<?xml version="1.0" encoding="UTF-8"?>
<!DOCTYPE svg PUBLIC "-//W3C//DTD SVG 1.1//EN" "http://www.w3.org/Graphics/SVG/1.1/DTD/svg11.dtd">
<svg xmlns="http://www.w3.org/2000/svg" version="1.1" width="274px" height="213px" style="shape-rendering:geometricPrecision; text-rendering:geometricPrecision; image-rendering:optimizeQuality; fill-rule:evenodd; clip-rule:evenodd" xmlns:xlink="http://www.w3.org/1999/xlink">
<g><path style="opacity:1" fill="#f4f4f4" d="M -0.5,-0.5 C 90.8333,-0.5 182.167,-0.5 273.5,-0.5C 273.5,70.5 273.5,141.5 273.5,212.5C 182.167,212.5 90.8333,212.5 -0.5,212.5C -0.5,141.5 -0.5,70.5 -0.5,-0.5 Z"/></g>
<g><path style="opacity:1" fill="#7a7a7a" d="M 219.5,26.5 C 220.449,29.2075 220.449,31.8742 219.5,34.5C 218.526,32.2573 218.192,29.924 218.5,27.5C 218.5,26.8333 218.833,26.5 219.5,26.5 Z"/></g>
<g><path style="opacity:1" fill="#757575" d="M 215.5,27.5 C 215.698,29.5753 215.865,31.5753 216,33.5C 215.051,31.9069 213.885,30.5736 212.5,29.5C 213.29,28.5987 214.29,27.9321 215.5,27.5 Z"/></g>
<g><path style="opacity:1" fill="#343434" d="M 219.5,26.5 C 218.833,26.5 218.5,26.8333 218.5,27.5C 217.5,27.5 216.5,27.5 215.5,27.5C 214.29,27.9321 213.29,28.5987 212.5,29.5C 206.943,32.0212 201.276,34.3545 195.5,36.5C 194.702,38.0777 194.202,39.7444 194,41.5C 193.51,40.2068 193.343,38.8734 193.5,37.5C 189.59,37.2628 185.923,38.0961 182.5,40C 183.056,40.3826 183.389,40.8826 183.5,41.5C 183.167,41.5 182.833,41.5 182.5,41.5C 179.833,40.1667 177.167,40.1667 174.5,41.5C 173.371,42.4695 172.371,43.6362 171.5,45C 171.57,45.7648 171.903,46.2648 172.5,46.5C 173.602,49.9355 175.936,51.9355 179.5,52.5C 190.677,49.0972 202.011,46.2639 213.5,44C 222.547,39.7313 232.047,36.898 242,35.5C 244.875,35.9987 245.042,36.6654 242.5,37.5C 238.859,38.6599 235.192,39.6599 231.5,40.5C 229.708,40.366 228.042,40.6993 226.5,41.5C 219.159,44.59 211.492,46.9233 203.5,48.5C 204.485,50.0983 204.651,51.765 204,53.5C 203.735,51.3485 202.735,49.6819 201,48.5C 198.846,49.2741 196.679,49.9408 194.5,50.5C 193.662,50.8417 193.328,51.5084 193.5,52.5C 190.833,52.5 188.167,52.5 185.5,52.5C 184.662,52.8417 184.328,53.5084 184.5,54.5C 183.249,56.7246 183.582,58.8912 185.5,61C 188.88,62.0842 192.38,62.5842 196,62.5C 211.189,60.4263 226.355,58.593 241.5,57C 238.79,58.7468 235.79,59.7468 232.5,60C 218.444,62.409 204.444,64.2424 190.5,65.5C 189.167,64.8333 187.833,64.1667 186.5,63.5C 182.689,61.6896 181.023,58.6896 181.5,54.5C 177.312,54.9062 173.979,53.4062 171.5,50C 170.552,49.5172 169.552,49.3505 168.5,49.5C 168.5,51.1667 168.5,52.8333 168.5,54.5C 168.5,54.8333 168.5,55.1667 168.5,55.5C 166.833,55.5 165.167,55.5 163.5,55.5C 162.833,55.5 162.5,55.1667 162.5,54.5C 163.822,54.67 164.989,54.3366 166,53.5C 168.178,49.6742 169.845,45.6742 171,41.5C 171.903,40.2986 173.069,39.4652 174.5,39C 189.215,36.3172 203.215,31.6505 216.5,25C 224.301,24.6998 231.968,23.5331 239.5,21.5C 242.167,22.1667 242.167,22.8333 239.5,23.5C 232.942,25.2464 226.275,26.2464 219.5,26.5 Z"/></g>
<g><path style="opacity:1" fill="#e0e0e0" d="M 182.5,41.5 C 182.471,44.6557 180.804,46.3223 177.5,46.5C 175.244,45.5791 174.244,43.9124 174.5,41.5C 177.167,40.1667 179.833,40.1667 182.5,41.5 Z"/></g>
<g><path style="opacity:1" fill="#828282" d="M 231.5,40.5 C 230.737,41.2679 229.737,41.7679 228.5,42C 230.378,43.9928 230.712,46.1595 229.5,48.5C 228.648,46.0758 227.648,43.7424 226.5,41.5C 228.042,40.6993 229.708,40.366 231.5,40.5 Z"/></g>
<g><path style="opacity:1" fill="#777777" d="M 174.5,41.5 C 174.244,43.9124 175.244,45.5791 177.5,46.5C 180.804,46.3223 182.471,44.6557 182.5,41.5C 182.833,41.5 183.167,41.5 183.5,41.5C 184.747,44.1754 183.747,46.0088 180.5,47C 177.32,48.0361 174.82,47.2028 173,44.5C 172.536,45.0944 172.369,45.7611 172.5,46.5C 171.903,46.2648 171.57,45.7648 171.5,45C 172.371,43.6362 173.371,42.4695 174.5,41.5 Z"/></g>
<g><path style="opacity:1" fill="#5d5d5d" d="M 224.5,43.5 C 225.848,44.5268 226.348,45.8602 226,47.5C 224.812,46.4366 224.312,45.1033 224.5,43.5 Z"/></g>
<g><path style="opacity:1" fill="#eaeaea" d="M 186.5,63.5 C 178.223,65.3621 172.223,62.3621 168.5,54.5C 168.5,52.8333 168.5,51.1667 168.5,49.5C 169.552,49.3505 170.552,49.5172 171.5,50C 173.979,53.4062 177.312,54.9062 181.5,54.5C 181.023,58.6896 182.689,61.6896 186.5,63.5 Z"/></g>
<g><path style="opacity:1" fill="#777777" d="M 194.5,50.5 C 195.717,56.4481 193.383,58.9481 187.5,58C 185.574,57.5776 184.574,56.4109 184.5,54.5C 184.328,53.5084 184.662,52.8417 185.5,52.5C 185.155,55.488 186.488,56.8213 189.5,56.5C 192.512,56.8213 193.845,55.488 193.5,52.5C 193.328,51.5084 193.662,50.8417 194.5,50.5 Z"/></g>
<g><path style="opacity:1" fill="#ebebeb" d="M 185.5,52.5 C 188.167,52.5 190.833,52.5 193.5,52.5C 193.845,55.488 192.512,56.8213 189.5,56.5C 186.488,56.8213 185.155,55.488 185.5,52.5 Z"/></g>
<g><path style="opacity:1" fill="#e9e9e9" d="M 163.5,55.5 C 165.167,55.5 166.833,55.5 168.5,55.5C 168.756,57.7925 168.423,59.9592 167.5,62C 164.854,62.4974 162.187,62.6641 159.5,62.5C 154.662,62.9114 149.995,63.5781 145.5,64.5C 143.072,65.2122 140.739,66.2122 138.5,67.5C 137.145,66.8118 136.145,65.8118 135.5,64.5C 137.428,62.5259 139.761,61.0259 142.5,60C 149.657,58.5757 156.657,57.0757 163.5,55.5 Z"/></g>
<g><path style="opacity:1" fill="#686868" d="M 162.5,54.5 C 162.5,55.1667 162.833,55.5 163.5,55.5C 156.657,57.0757 149.657,58.5757 142.5,60C 139.761,61.0259 137.428,62.5259 135.5,64.5C 135.125,65.7931 134.792,67.1264 134.5,68.5C 132.342,70.9929 129.676,72.6595 126.5,73.5C 127.936,72.5714 129.269,71.4048 130.5,70C 130.167,69.8333 129.833,69.6667 129.5,69.5C 120.844,74.765 112.177,79.9317 103.5,85C 105.35,84.4052 107.35,83.9052 109.5,83.5C 107.3,85.6404 104.633,87.1404 101.5,88C 101.273,89.1353 100.94,90.302 100.5,91.5C 99.914,91.2907 99.414,90.9574 99,90.5C 97.6703,91.5822 96.1703,92.2488 94.5,92.5C 95.2299,91.2876 96.2299,90.2876 97.5,89.5C 97.1667,89.1667 96.8333,88.8333 96.5,88.5C 93.004,90.3212 89.6707,92.3212 86.5,94.5C 86.2627,93.209 86.596,92.209 87.5,91.5C 101.766,83.6973 116.099,75.8639 130.5,68C 133.23,63.2803 137.23,59.947 142.5,58C 149.168,56.7661 155.835,55.5994 162.5,54.5 Z"/></g>
<g><path style="opacity:1" fill="#727272" d="M 159.5,62.5 C 160.926,63.3412 162.26,64.3412 163.5,65.5C 163.556,71.1028 166.223,74.9362 171.5,77C 175.587,77.7625 179.587,77.5958 183.5,76.5C 183.5,76.8333 183.5,77.1667 183.5,77.5C 173.997,81.4958 166.83,78.8291 162,69.5C 158.441,80.2962 162.441,85.9628 174,86.5C 177.073,86.6364 179.906,85.9698 182.5,84.5C 182.833,84.5 183.167,84.5 183.5,84.5C 175.563,90.2407 168.063,89.574 161,82.5C 157.694,76.7781 157.861,71.1114 161.5,65.5C 156.833,64.3486 152.166,64.3486 147.5,65.5C 147.158,64.6618 146.492,64.3284 145.5,64.5C 149.995,63.5781 154.662,62.9114 159.5,62.5 Z"/></g>
<g><path style="opacity:1" fill="#707070" d="M 126.5,73.5 C 121.832,78.4954 116.165,81.8288 109.5,83.5C 114.897,79.8017 120.564,76.4684 126.5,73.5 Z"/></g>
<g><path style="opacity:1" fill="#c6c6c6" d="M 126.5,73.5 C 120.564,76.4684 114.897,79.8017 109.5,83.5C 107.35,83.9052 105.35,84.4052 103.5,85C 112.177,79.9317 120.844,74.765 129.5,69.5C 129.833,69.6667 130.167,69.8333 130.5,70C 129.269,71.4048 127.936,72.5714 126.5,73.5 Z"/></g>
<g><path style="opacity:1" fill="#303030" d="M 87.5,91.5 C 86.596,92.209 86.2627,93.209 86.5,94.5C 86.56,95.0431 86.8933,95.3764 87.5,95.5C 89.4872,93.6726 91.8205,92.6726 94.5,92.5C 91.6402,93.7809 89.3068,95.7809 87.5,98.5C 88.2537,101.777 88.7537,105.11 89,108.5C 94.4306,117.697 99.0973,127.364 103,137.5C 104.178,148.125 104.845,158.791 105,169.5C 106.99,177.11 108.324,184.777 109,192.5C 106.532,184.961 104.532,177.295 103,169.5C 102.845,158.791 102.178,148.125 101,137.5C 96.9986,126.663 91.8319,116.496 85.5,107C 86.8143,104.395 86.8143,101.895 85.5,99.5C 85.5,98.8333 85.1667,98.5 84.5,98.5C 85.9136,96.8615 85.5803,95.5282 83.5,94.5C 86.0789,92.5623 86.0789,90.729 83.5,89C 85.5524,88.0701 87.0524,86.5701 88,84.5C 88.757,81.0857 87.5903,80.0857 84.5,81.5C 82.035,86.0061 78.3683,88.3394 73.5,88.5C 72.5139,92.97 72.1805,97.6367 72.5,102.5C 71.8333,98.1667 71.1667,93.8333 70.5,89.5C 69.448,89.6495 68.448,89.4828 67.5,89C 68.8333,88.6667 70.1667,88.3333 71.5,88C 72.8333,87 72.8333,86 71.5,85C 77.6246,86.7708 81.6246,84.6042 83.5,78.5C 83.2528,77.2867 82.5862,76.62 81.5,76.5C 79.6921,74.8947 77.6921,74.5613 75.5,75.5C 75.8627,76.1835 76.1961,76.8501 76.5,77.5C 73.4656,82.8531 68.799,85.3531 62.5,85C 61.6667,85.8333 60.8333,86.6667 60,87.5C 59.5466,90.8404 59.0466,94.1738 58.5,97.5C 58.5195,98.7261 58.8529,99.7261 59.5,100.5C 58.791,101.404 57.791,101.737 56.5,101.5C 56.5,100.167 56.5,98.8333 56.5,97.5C 57.4106,94.0394 57.7439,90.7061 57.5,87.5C 56.635,86.4173 55.635,86.2506 54.5,87C 52.9571,88.8783 51.1238,90.3783 49,91.5C 48.4167,95.8321 47.9167,100.165 47.5,104.5C 45.7741,104.815 44.1075,104.981 42.5,105C 46.6776,100.923 47.3442,96.4225 44.5,91.5C 47.1664,90.9611 49.3331,89.6278 51,87.5C 51.6172,86.5509 51.4506,85.7175 50.5,85C 55.0556,84.8905 59.3889,83.8905 63.5,82C 64.4231,79.9592 64.7564,77.7925 64.5,75.5C 59.1511,75.1447 53.8178,74.978 48.5,75C 43.4428,76.9454 38.9428,79.7788 35,83.5C 36.1377,86.055 37.4711,88.7216 39,91.5C 39.8523,96.4767 39.3523,101.31 37.5,106C 39.1931,108.22 40.1931,110.72 40.5,113.5C 48.7464,113.478 56.4131,115.478 63.5,119.5C 67.7728,122.434 71.7728,125.767 75.5,129.5C 75.1667,129.833 74.8333,130.167 74.5,130.5C 63.9925,120.081 51.3258,114.914 36.5,115C 39.0216,111.598 38.355,108.598 34.5,106C 38.923,98.6425 38.2563,91.8092 32.5,85.5C 31.791,84.596 30.791,84.2627 29.5,84.5C 28.5431,86.8103 27.5431,89.1436 26.5,91.5C 26.5427,92.4164 26.8761,93.0831 27.5,93.5C 25.0288,96.3894 22.5288,99.3894 20,102.5C 19.3818,107.326 20.0485,111.992 22,116.5C 25.0818,125.412 28.7485,134.078 33,142.5C 40.9834,148.485 48.3168,155.152 55,162.5C 59.6701,173.093 61.8367,184.093 61.5,195.5C 60.8076,194.975 60.3076,194.308 60,193.5C 59.8353,182.174 57.1686,171.508 52,161.5C 46.4583,156.289 40.6249,151.456 34.5,147C 31.9627,144.094 29.796,140.927 28,137.5C 25.5198,131.051 22.8531,124.718 20,118.5C 18.0767,113.322 17.4101,107.988 18,102.5C 22.2533,97.9934 24.92,92.6601 26,86.5C 35.7514,79.0349 46.5847,73.2016 58.5,69C 60.8333,68.3333 63.1667,68.3333 65.5,69C 71.6786,70.5009 77.6786,72.5009 83.5,75C 85,77.1667 86.8333,79 89,80.5C 89.5746,84.3755 89.0746,88.0422 87.5,91.5 Z"/></g>
<g><path style="opacity:1" fill="#858685" d="M 81.5,76.5 C 79.7085,76.366 78.0418,76.6993 76.5,77.5C 76.1961,76.8501 75.8627,76.1835 75.5,75.5C 77.6921,74.5613 79.6921,74.8947 81.5,76.5 Z"/></g>
<g><path style="opacity:1" fill="#e9e9e9" d="M 56.5,97.5 C 55.8969,99.1897 54.8969,100.69 53.5,102C 55.9018,102.814 58.2351,102.647 60.5,101.5C 60.3764,100.893 60.0431,100.56 59.5,100.5C 58.8529,99.7261 58.5195,98.7261 58.5,97.5C 59.0466,94.1738 59.5466,90.8404 60,87.5C 60.8333,86.6667 61.6667,85.8333 62.5,85C 68.799,85.3531 73.4656,82.8531 76.5,77.5C 78.0418,76.6993 79.7085,76.366 81.5,76.5C 82.5862,76.62 83.2528,77.2867 83.5,78.5C 81.6246,84.6042 77.6246,86.7708 71.5,85C 72.8333,86 72.8333,87 71.5,88C 70.1667,88.3333 68.8333,88.6667 67.5,89C 68.448,89.4828 69.448,89.6495 70.5,89.5C 70.8256,93.8839 70.4922,98.2172 69.5,102.5C 68.0186,104.149 66.3519,105.482 64.5,106.5C 67.5084,105.77 70.175,104.436 72.5,102.5C 74.9052,101.602 76.9052,100.102 78.5,98C 79.8333,97.6667 81.1667,97.3333 82.5,97C 79.2583,96.0145 76.5917,96.8478 74.5,99.5C 73.5108,95.8927 73.1774,92.226 73.5,88.5C 78.3683,88.3394 82.035,86.0061 84.5,81.5C 87.5903,80.0857 88.757,81.0857 88,84.5C 87.0524,86.5701 85.5524,88.0701 83.5,89C 86.0789,90.729 86.0789,92.5623 83.5,94.5C 85.5803,95.5282 85.9136,96.8615 84.5,98.5C 83.448,98.3505 82.448,98.5172 81.5,99C 78.4992,103.24 74.4992,106.24 69.5,108C 67.9632,109.11 67.2965,110.61 67.5,112.5C 63.8622,111.737 62.3622,113.07 63,116.5C 63.69,117.738 64.19,117.738 64.5,116.5C 65.0431,116.56 65.3764,116.893 65.5,117.5C 64.7573,118.182 64.0906,118.849 63.5,119.5C 56.4131,115.478 48.7464,113.478 40.5,113.5C 40.1931,110.72 39.1931,108.22 37.5,106C 39.3523,101.31 39.8523,96.4767 39,91.5C 37.4711,88.7216 36.1377,86.055 35,83.5C 38.9428,79.7788 43.4428,76.9454 48.5,75C 53.8178,74.978 59.1511,75.1447 64.5,75.5C 64.7564,77.7925 64.4231,79.9592 63.5,82C 59.3889,83.8905 55.0556,84.8905 50.5,85C 51.4506,85.7175 51.6172,86.5509 51,87.5C 49.3331,89.6278 47.1664,90.9611 44.5,91.5C 47.3442,96.4225 46.6776,100.923 42.5,105C 44.1075,104.981 45.7741,104.815 47.5,104.5C 47.9167,100.165 48.4167,95.8321 49,91.5C 51.1238,90.3783 52.9571,88.8783 54.5,87C 55.635,86.2506 56.635,86.4173 57.5,87.5C 57.7439,90.7061 57.4106,94.0394 56.5,97.5 Z"/></g>
<g><path style="opacity:1" fill="#e3e3e3" d="M 67.5,74.5 C 69.5,74.5 71.5,74.5 73.5,74.5C 73.8043,80.5408 71.1376,82.8742 65.5,81.5C 66.1702,79.1369 66.8368,76.8036 67.5,74.5 Z"/></g>
<g><path style="opacity:1" fill="#d7d7d7" d="M 67.5,74.5 C 66.5,74.5 65.5,74.5 64.5,74.5C 64.5,73.5 64.5,72.5 64.5,71.5C 67.4935,71.1457 68.4935,72.1457 67.5,74.5 Z"/></g>
<g><path style="opacity:1" fill="#a6a6a6" d="M 59.5,70.5 C 64.6482,70.7007 64.6482,71.3674 59.5,72.5C 58.5,72.3333 57.5,72.1667 56.5,72C 57.7375,71.7679 58.7375,71.2679 59.5,70.5 Z"/></g>
<g><path style="opacity:1" fill="#888888" d="M 32.5,85.5 C 31.0608,88.2062 29.3942,90.8729 27.5,93.5C 26.8761,93.0831 26.5427,92.4164 26.5,91.5C 27.5431,89.1436 28.5431,86.8103 29.5,84.5C 30.791,84.2627 31.791,84.596 32.5,85.5 Z"/></g>
<g><path style="opacity:1" fill="#d5d5d5" d="M 94.5,92.5 C 91.8205,92.6726 89.4872,93.6726 87.5,95.5C 86.8933,95.3764 86.56,95.0431 86.5,94.5C 89.6707,92.3212 93.004,90.3212 96.5,88.5C 96.8333,88.8333 97.1667,89.1667 97.5,89.5C 96.2299,90.2876 95.2299,91.2876 94.5,92.5 Z"/></g>
<g><path style="opacity:1" fill="#777777" d="M 73.5,88.5 C 73.1774,92.226 73.5108,95.8927 74.5,99.5C 76.5917,96.8478 79.2583,96.0145 82.5,97C 81.1667,97.3333 79.8333,97.6667 78.5,98C 76.9052,100.102 74.9052,101.602 72.5,102.5C 72.1805,97.6367 72.5139,92.97 73.5,88.5 Z"/></g>
<g><path style="opacity:1" fill="#6d6e6d" d="M 56.5,97.5 C 56.5,98.8333 56.5,100.167 56.5,101.5C 57.791,101.737 58.791,101.404 59.5,100.5C 60.0431,100.56 60.3764,100.893 60.5,101.5C 58.2351,102.647 55.9018,102.814 53.5,102C 54.8969,100.69 55.8969,99.1897 56.5,97.5 Z"/></g>
<g><path style="opacity:1" fill="#686868" d="M 70.5,89.5 C 71.1667,93.8333 71.8333,98.1667 72.5,102.5C 70.175,104.436 67.5084,105.77 64.5,106.5C 66.3519,105.482 68.0186,104.149 69.5,102.5C 70.4922,98.2172 70.8256,93.8839 70.5,89.5 Z"/></g>
<g><path style="opacity:1" fill="#6b6b6b" d="M 64.5,106.5 C 63.7322,109.562 61.7322,111.228 58.5,111.5C 58.1192,109.058 58.7859,108.391 60.5,109.5C 61.8518,108.476 63.1851,107.476 64.5,106.5 Z"/></g>
<g><path style="opacity:1" fill="#737373" d="M 58.5,111.5 C 57.6782,113.728 56.3448,114.395 54.5,113.5C 55.5769,112.295 56.9102,111.628 58.5,111.5 Z"/></g>
<g><path style="opacity:1" fill="#676767" d="M 84.5,98.5 C 85.1667,98.5 85.5,98.8333 85.5,99.5C 80.2738,103.795 74.6071,107.629 68.5,111C 69.7588,111.923 71.0921,112.757 72.5,113.5C 72.2907,114.086 71.9574,114.586 71.5,115C 69.8932,115.115 68.3932,114.615 67,113.5C 65.2509,113.748 64.4176,114.748 64.5,116.5C 64.19,117.738 63.69,117.738 63,116.5C 62.3622,113.07 63.8622,111.737 67.5,112.5C 67.2965,110.61 67.9632,109.11 69.5,108C 74.4992,106.24 78.4992,103.24 81.5,99C 82.448,98.5172 83.448,98.3505 84.5,98.5 Z"/></g>
<g><path style="opacity:1" fill="#8b8b8b" d="M 74.5,114.5 C 76.1207,114.787 77.1207,115.787 77.5,117.5C 76.1667,118.833 74.8333,118.833 73.5,117.5C 74.1272,116.583 74.4606,115.583 74.5,114.5 Z"/></g>
<g><path style="opacity:1" fill="#555555" d="M 168.5,54.5 C 172.223,62.3621 178.223,65.3621 186.5,63.5C 187.833,64.1667 189.167,64.8333 190.5,65.5C 189.928,66.9733 189.095,68.3066 188,69.5C 187.333,71.1667 187.333,72.8333 188,74.5C 192.333,78.8333 196.667,83.1667 201,87.5C 201.667,88.8333 201.667,90.1667 201,91.5C 191.414,114.081 181.914,136.747 172.5,159.5C 165.938,165.111 158.605,169.111 150.5,171.5C 147.447,171.769 144.78,170.936 142.5,169C 134.279,160.779 126.779,151.946 120,142.5C 119.527,137.378 120.194,132.378 122,127.5C 127.203,110.225 132.203,92.8921 137,75.5C 137.914,73.3359 139.081,71.3359 140.5,69.5C 138.604,68.5344 136.604,68.2011 134.5,68.5C 134.792,67.1264 135.125,65.7931 135.5,64.5C 136.145,65.8118 137.145,66.8118 138.5,67.5C 140.739,66.2122 143.072,65.2122 145.5,64.5C 146.492,64.3284 147.158,64.6618 147.5,65.5C 146.508,65.3284 145.842,65.6618 145.5,66.5C 142.795,66.3802 142.128,67.3802 143.5,69.5C 142.757,70.1818 142.091,70.8485 141.5,71.5C 140.662,71.8417 140.328,72.5084 140.5,73.5C 139.549,74.9187 139.216,76.5853 139.5,78.5C 139.167,78.5 138.833,78.5 138.5,78.5C 132.121,98.6439 126.121,118.977 120.5,139.5C 127.363,151.032 136.03,161.032 146.5,169.5C 154.441,149.949 162.108,130.283 169.5,110.5C 169.833,110.5 170.167,110.5 170.5,110.5C 163.303,130.091 156.303,149.758 149.5,169.5C 151.604,169.799 153.604,169.466 155.5,168.5C 156.127,167.583 156.461,166.583 156.5,165.5C 156.833,165.5 157.167,165.5 157.5,165.5C 157.369,166.239 157.536,166.906 158,167.5C 162.843,164.412 167.509,161.079 172,157.5C 180.437,137.49 188.437,117.49 196,97.5C 191.019,100.4 186.185,103.4 181.5,106.5C 180.833,106.5 180.167,106.5 179.5,106.5C 176.058,105.828 173.391,106.828 171.5,109.5C 170.662,109.158 170.328,108.492 170.5,107.5C 171.167,107.5 171.5,107.167 171.5,106.5C 172.5,106.167 173.167,105.5 173.5,104.5C 173.833,103.833 174.167,103.167 174.5,102.5C 174.833,102.5 175.167,102.5 175.5,102.5C 177.167,102.5 178.833,102.5 180.5,102.5C 180.369,103.376 180.702,104.043 181.5,104.5C 187.466,101.497 192.799,97.8308 197.5,93.5C 197.5,92.8333 197.5,92.1667 197.5,91.5C 198.303,90.5768 198.47,89.5768 198,88.5C 194.318,84.651 190.485,80.9844 186.5,77.5C 185.648,79.9242 184.648,82.2576 183.5,84.5C 183.167,84.5 182.833,84.5 182.5,84.5C 183.014,82.6336 183.68,80.8003 184.5,79C 184.43,78.2352 184.097,77.7352 183.5,77.5C 183.5,77.1667 183.5,76.8333 183.5,76.5C 185.14,75.2099 185.64,73.5433 185,71.5C 184.292,72.3805 183.458,73.0472 182.5,73.5C 182.5,72.5 182.5,71.5 182.5,70.5C 185.168,70.1663 187.168,68.8329 188.5,66.5C 181.69,66.6855 175.69,64.6855 170.5,60.5C 168.078,62.1488 167.411,64.1488 168.5,66.5C 167.222,66.2178 166.222,65.5511 165.5,64.5C 164.377,63.2426 163.711,63.5759 163.5,65.5C 162.26,64.3412 160.926,63.3412 159.5,62.5C 162.187,62.6641 164.854,62.4974 167.5,62C 168.423,59.9592 168.756,57.7925 168.5,55.5C 168.5,55.1667 168.5,54.8333 168.5,54.5 Z"/></g>
<g><path style="opacity:1" fill="#6e6e6e" d="M 179.5,106.5 C 180.167,106.5 180.833,106.5 181.5,106.5C 173.739,126.343 165.739,146.01 157.5,165.5C 157.167,165.5 156.833,165.5 156.5,165.5C 164.441,145.949 172.108,126.283 179.5,106.5 Z"/></g>
<g><path style="opacity:1" fill="#ececec" d="M 179.5,106.5 C 172.108,126.283 164.441,145.949 156.5,165.5C 156.461,166.583 156.127,167.583 155.5,168.5C 153.604,169.466 151.604,169.799 149.5,169.5C 156.303,149.758 163.303,130.091 170.5,110.5C 171.167,110.5 171.5,110.167 171.5,109.5C 173.391,106.828 176.058,105.828 179.5,106.5 Z"/></g>
<g><path style="opacity:1" fill="#c1c1c1" d="M 175.5,103.5 C 176.978,103.238 178.311,103.571 179.5,104.5C 177.926,105.631 176.259,105.798 174.5,105C 175.056,104.617 175.389,104.117 175.5,103.5 Z"/></g>
<g><path style="opacity:1" fill="#efefef" d="M 157.5,165.5 C 165.739,146.01 173.739,126.343 181.5,106.5C 186.185,103.4 191.019,100.4 196,97.5C 188.437,117.49 180.437,137.49 172,157.5C 167.509,161.079 162.843,164.412 158,167.5C 157.536,166.906 157.369,166.239 157.5,165.5 Z"/></g>
<g><path style="opacity:1" fill="#d0d0d0" d="M 197.5,93.5 C 192.799,97.8308 187.466,101.497 181.5,104.5C 180.702,104.043 180.369,103.376 180.5,102.5C 186.298,99.7674 191.965,96.7674 197.5,93.5 Z"/></g>
<g><path style="opacity:1" fill="#747474" d="M 138.5,78.5 C 138.833,78.5 139.167,78.5 139.5,78.5C 142.515,96.1864 152.848,105.853 170.5,107.5C 170.328,108.492 170.662,109.158 171.5,109.5C 171.5,110.167 171.167,110.5 170.5,110.5C 170.167,110.5 169.833,110.5 169.5,110.5C 151.745,107.078 141.412,96.4109 138.5,78.5 Z"/></g>
<g><path style="opacity:1" fill="#707070" d="M 197.5,91.5 C 197.5,92.1667 197.5,92.8333 197.5,93.5C 191.965,96.7674 186.298,99.7674 180.5,102.5C 185.875,98.4732 191.541,94.8065 197.5,91.5 Z"/></g>
<g><path style="opacity:1" fill="#767676" d="M 145.5,66.5 C 144.588,67.7382 144.421,69.0715 145,70.5C 155.006,81.3386 165.172,92.0053 175.5,102.5C 175.167,102.5 174.833,102.5 174.5,102.5C 164.005,92.8387 154.005,82.672 144.5,72C 143.552,71.5172 142.552,71.3505 141.5,71.5C 142.091,70.8485 142.757,70.1818 143.5,69.5C 142.128,67.3802 142.795,66.3802 145.5,66.5 Z"/></g>
<g><path style="opacity:1" fill="#eaeaea" d="M 141.5,71.5 C 142.552,71.3505 143.552,71.5172 144.5,72C 154.005,82.672 164.005,92.8387 174.5,102.5C 174.167,103.167 173.833,103.833 173.5,104.5C 170.244,102.75 167.411,100.417 165,97.5C 156.938,88.9427 149.104,80.2761 141.5,71.5 Z"/></g>
<g><path style="opacity:1" fill="#f3f3f3" d="M 138.5,78.5 C 141.412,96.4109 151.745,107.078 169.5,110.5C 162.108,130.283 154.441,149.949 146.5,169.5C 136.03,161.032 127.363,151.032 120.5,139.5C 126.121,118.977 132.121,98.6439 138.5,78.5 Z"/></g>
<g><path style="opacity:1" fill="#787878" d="M 141.5,71.5 C 149.104,80.2761 156.938,88.9427 165,97.5C 167.411,100.417 170.244,102.75 173.5,104.5C 173.167,105.5 172.5,106.167 171.5,106.5C 161.561,95.2245 151.228,84.2245 140.5,73.5C 140.328,72.5084 140.662,71.8417 141.5,71.5 Z"/></g>
<g><path style="opacity:1" fill="#f0f0f0" d="M 140.5,73.5 C 151.228,84.2245 161.561,95.2245 171.5,106.5C 171.5,107.167 171.167,107.5 170.5,107.5C 152.848,105.853 142.515,96.1864 139.5,78.5C 139.216,76.5853 139.549,74.9187 140.5,73.5 Z"/></g>
<g><path style="opacity:1" fill="#6c6c6c" d="M 165.5,64.5 C 166.222,65.5511 167.222,66.2178 168.5,66.5C 172.506,69.9259 177.173,71.2593 182.5,70.5C 182.5,71.5 182.5,72.5 182.5,73.5C 176.702,76.7525 171.535,75.7525 167,70.5C 165.872,68.6547 165.372,66.6547 165.5,64.5 Z"/></g>
<g><path style="opacity:1" fill="#e1e1e1" d="M 167.5,67.5 C 171.592,70.7097 176.259,72.543 181.5,73C 178.603,74.7718 175.603,74.7718 172.5,73C 169.921,71.9243 168.254,70.091 167.5,67.5 Z"/></g>
<g><path style="opacity:1" fill="#e7e7e7" d="M 165.5,64.5 C 165.372,66.6547 165.872,68.6547 167,70.5C 171.535,75.7525 176.702,76.7525 182.5,73.5C 183.458,73.0472 184.292,72.3805 185,71.5C 185.64,73.5433 185.14,75.2099 183.5,76.5C 179.587,77.5958 175.587,77.7625 171.5,77C 166.223,74.9362 163.556,71.1028 163.5,65.5C 163.711,63.5759 164.377,63.2426 165.5,64.5 Z"/></g>
<g><path style="opacity:1" fill="#f0f0f0" d="M 183.5,77.5 C 184.097,77.7352 184.43,78.2352 184.5,79C 183.68,80.8003 183.014,82.6336 182.5,84.5C 179.906,85.9698 177.073,86.6364 174,86.5C 162.441,85.9628 158.441,80.2962 162,69.5C 166.83,78.8291 173.997,81.4958 183.5,77.5 Z"/></g>
<g><path style="opacity:1" fill="#f0f0f0" d="M 183.5,84.5 C 184.648,82.2576 185.648,79.9242 186.5,77.5C 190.485,80.9844 194.318,84.651 198,88.5C 198.47,89.5768 198.303,90.5768 197.5,91.5C 191.541,94.8065 185.875,98.4732 180.5,102.5C 178.833,102.5 177.167,102.5 175.5,102.5C 165.172,92.0053 155.006,81.3386 145,70.5C 144.421,69.0715 144.588,67.7382 145.5,66.5C 145.842,65.6618 146.508,65.3284 147.5,65.5C 152.166,64.3486 156.833,64.3486 161.5,65.5C 157.861,71.1114 157.694,76.7781 161,82.5C 168.063,89.574 175.563,90.2407 183.5,84.5 Z"/></g>
<g><path style="opacity:1" fill="#ebebeb" d="M 182.5,70.5 C 177.173,71.2593 172.506,69.9259 168.5,66.5C 167.411,64.1488 168.078,62.1488 170.5,60.5C 175.69,64.6855 181.69,66.6855 188.5,66.5C 187.168,68.8329 185.168,70.1663 182.5,70.5 Z"/></g>
</svg>
