<?xml version="1.0" encoding="UTF-8"?>
<!DOCTYPE svg PUBLIC "-//W3C//DTD SVG 1.1//EN" "http://www.w3.org/Graphics/SVG/1.1/DTD/svg11.dtd">
<svg xmlns="http://www.w3.org/2000/svg" version="1.1" width="263px" height="158px" style="shape-rendering:geometricPrecision; text-rendering:geometricPrecision; image-rendering:optimizeQuality; fill-rule:evenodd; clip-rule:evenodd" xmlns:xlink="http://www.w3.org/1999/xlink">
<g><path style="opacity:1" fill="#eaeaea" d="M -0.5,-0.5 C 87.1667,-0.5 174.833,-0.5 262.5,-0.5C 262.5,52.1667 262.5,104.833 262.5,157.5C 174.833,157.5 87.1667,157.5 -0.5,157.5C -0.5,104.833 -0.5,52.1667 -0.5,-0.5 Z"/></g>
<g><path style="opacity:1" fill="#737373" d="M 121.5,12.5 C 121.5,13.1667 121.5,13.8333 121.5,14.5C 116.134,11.8287 110.468,10.9954 104.5,12C 99.4044,15.0235 97.071,19.5235 97.5,25.5C 96.8333,25.5 96.1667,25.5 95.5,25.5C 95.5732,16.0961 100.24,10.7627 109.5,9.5C 113.609,10.1938 117.609,11.1938 121.5,12.5 Z"/></g>
<g><path style="opacity:1" fill="#e4e4e4" d="M 121.5,14.5 C 122.391,15.1098 123.391,15.4431 124.5,15.5C 126.355,17.0331 128.188,18.6997 130,20.5C 133.605,27.8091 131.438,30.8091 123.5,29.5C 122.833,29.5 122.5,29.1667 122.5,28.5C 121.388,22.5585 117.722,19.0585 111.5,18C 103.71,15.3371 99.0435,17.8371 97.5,25.5C 97.071,19.5235 99.4044,15.0235 104.5,12C 110.468,10.9954 116.134,11.8287 121.5,14.5 Z"/></g>
<g><path style="opacity:1" fill="#595959" d="M 148.5,17.5 C 155.038,21.2639 161.372,25.2639 167.5,29.5C 165.563,30.7058 163.896,30.3725 162.5,28.5C 157.833,25.1667 153.167,21.8333 148.5,18.5C 148.5,18.1667 148.5,17.8333 148.5,17.5 Z"/></g>
<g><path style="opacity:1" fill="#cccccc" d="M 148.5,18.5 C 153.167,21.8333 157.833,25.1667 162.5,28.5C 155.929,26.4317 149.929,23.265 144.5,19C 145.793,18.51 147.127,18.3433 148.5,18.5 Z"/></g>
<g><path style="opacity:1" fill="#313131" d="M 121.5,12.5 C 130.529,14.4532 139.529,16.1198 148.5,17.5C 148.5,17.8333 148.5,18.1667 148.5,18.5C 147.127,18.3433 145.793,18.51 144.5,19C 149.929,23.265 155.929,26.4317 162.5,28.5C 163.896,30.3725 165.563,30.7058 167.5,29.5C 169.805,30.9894 172.138,32.4894 174.5,34C 190.901,38.6881 206.901,44.3548 222.5,51C 203.809,45.4376 185.142,39.4376 166.5,33C 156.474,29.2402 147.307,24.0735 139,17.5C 138.439,18.0219 137.772,18.3552 137,18.5C 134.361,17.0056 131.528,16.3389 128.5,16.5C 127.335,14.8906 126.001,14.5573 124.5,15.5C 123.391,15.4431 122.391,15.1098 121.5,14.5C 121.5,13.8333 121.5,13.1667 121.5,12.5 Z"/></g>
<g><path style="opacity:1" fill="#d9d9d9" d="M 119.5,26.5 C 120.833,28.8333 120.833,31.1667 119.5,33.5C 119.167,34.1667 118.833,34.8333 118.5,35.5C 116.173,35.7529 114.173,35.0863 112.5,33.5C 113.243,32.8182 113.909,32.1515 114.5,31.5C 113.167,31.5 111.833,31.5 110.5,31.5C 110.281,30.325 110.614,29.325 111.5,28.5C 114.044,26.5158 116.711,25.8492 119.5,26.5 Z"/></g>
<g><path style="opacity:1" fill="#242424" d="M 119.5,26.5 C 120.222,27.5511 121.222,28.2178 122.5,28.5C 122.5,29.1667 122.833,29.5 123.5,29.5C 123.279,30.7348 122.612,31.7348 121.5,32.5C 122.905,32.76 124.238,33.0934 125.5,33.5C 123.5,34.8333 121.5,34.8333 119.5,33.5C 120.833,31.1667 120.833,28.8333 119.5,26.5 Z"/></g>
<g><path style="opacity:1" fill="#565656" d="M 114.5,31.5 C 115.527,30.1522 116.86,29.6522 118.5,30C 117.437,31.1882 116.103,31.6882 114.5,31.5 Z"/></g>
<g><path style="opacity:1" fill="#747474" d="M 128.5,16.5 C 131.224,19.8255 132.89,23.6589 133.5,28C 132.219,29.4087 131.219,30.9087 130.5,32.5C 128.952,32.8212 128.285,33.8212 128.5,35.5C 128.5,36.1667 128.5,36.8333 128.5,37.5C 128.167,37.5 127.833,37.5 127.5,37.5C 127.843,35.5168 127.176,34.1834 125.5,33.5C 124.238,33.0934 122.905,32.76 121.5,32.5C 122.612,31.7348 123.279,30.7348 123.5,29.5C 131.438,30.8091 133.605,27.8091 130,20.5C 128.188,18.6997 126.355,17.0331 124.5,15.5C 126.001,14.5573 127.335,14.8906 128.5,16.5 Z"/></g>
<g><path style="opacity:1" fill="#e8e8e9" d="M 118.5,35.5 C 120.167,35.5 121.833,35.5 123.5,35.5C 123.5,36.8333 123.5,38.1667 123.5,39.5C 122.115,41.8835 120.115,43.5501 117.5,44.5C 112.57,38.7003 109.904,39.7003 109.5,47.5C 108.5,47.5 107.5,47.5 106.5,47.5C 94.8958,50.4842 83.2291,53.3175 71.5,56C 67.6536,57.0859 64.3203,58.9193 61.5,61.5C 51.8951,66.1846 47.2285,74.0179 47.5,85C 47.9819,92.0583 49.4819,98.8916 52,105.5C 52.7918,108.106 54.2918,110.106 56.5,111.5C 58.9849,116.15 62.6516,119.65 67.5,122C 74.6348,126.101 82.3014,128.268 90.5,128.5C 91.5676,129.434 92.901,129.768 94.5,129.5C 100.842,129.666 107.175,129.5 113.5,129C 117.465,128.892 121.132,128.059 124.5,126.5C 126.288,126.215 127.955,126.548 129.5,127.5C 130.97,130.273 132.303,133.106 133.5,136C 133.164,137.03 132.497,137.53 131.5,137.5C 107.421,144.453 84.0872,142.62 61.5,132C 45.6489,121.474 37.1489,106.64 36,87.5C 35.126,73.5934 33.626,59.76 31.5,46C 31.8333,44.8333 32.1667,43.6667 32.5,42.5C 48.8853,38.3893 65.3853,34.7226 82,31.5C 83.1667,31.8333 84.3333,32.1667 85.5,32.5C 87.1777,38.0136 90.8444,41.1802 96.5,42C 103.008,43.8291 108.341,42.1624 112.5,37C 114.708,36.8091 116.708,36.3091 118.5,35.5 Z"/></g>
<g><path style="opacity:1" fill="#e2e2e2" d="M 125.5,33.5 C 127.176,34.1834 127.843,35.5168 127.5,37.5C 126.532,39.6074 126.198,41.9407 126.5,44.5C 125.518,41.0381 125.185,37.3714 125.5,33.5 Z"/></g>
<g><path style="opacity:1" fill="#d9d9d9" d="M 128.5,35.5 C 132.122,36.8196 135.788,38.153 139.5,39.5C 137.393,40.4682 135.059,40.8016 132.5,40.5C 131.738,38.7376 130.404,37.7376 128.5,37.5C 128.5,36.8333 128.5,36.1667 128.5,35.5 Z"/></g>
<g><path style="opacity:1" fill="#e9e9e9" d="M 207.5,83.5 C 205.772,87.2872 203.772,90.9539 201.5,94.5C 191.957,100.436 182.291,106.102 172.5,111.5C 168.066,112.553 163.732,113.886 159.5,115.5C 159.291,114.078 158.791,112.745 158,111.5C 149.931,102.6 142.431,93.2668 135.5,83.5C 137.558,78.9819 138.058,74.3153 137,69.5C 140,65.8333 143,62.1667 146,58.5C 148.797,53.9394 147.631,51.606 142.5,51.5C 144.594,47.2007 143.26,45.2007 138.5,45.5C 137.566,44.4324 137.232,43.099 137.5,41.5C 139.099,41.7678 140.432,41.4345 141.5,40.5C 146.598,38.8497 151.264,39.6831 155.5,43C 166.318,51.9077 177.318,60.5744 188.5,69C 193.5,72 198.5,75 203.5,78C 205.746,79.2568 207.079,81.0901 207.5,83.5 Z"/></g>
<g><path style="opacity:1" fill="#8e8e8e" d="M 127.5,37.5 C 128.007,38.8589 129.007,39.8589 130.5,40.5C 130.035,42.8083 128.701,44.1416 126.5,44.5C 126.198,41.9407 126.532,39.6074 127.5,37.5 Z"/></g>
<g><path style="opacity:1" fill="#828282" d="M 119.5,33.5 C 121.5,34.8333 123.5,34.8333 125.5,33.5C 125.185,37.3714 125.518,41.0381 126.5,44.5C 126.263,45.791 126.596,46.791 127.5,47.5C 127.223,49.7281 126.223,51.3947 124.5,52.5C 124.784,50.5853 124.451,48.9187 123.5,47.5C 123.768,45.901 123.434,44.5676 122.5,43.5C 123.278,42.8444 123.944,42.0111 124.5,41C 124.43,40.2352 124.097,39.7352 123.5,39.5C 123.5,38.1667 123.5,36.8333 123.5,35.5C 121.833,35.5 120.167,35.5 118.5,35.5C 118.833,34.8333 119.167,34.1667 119.5,33.5 Z"/></g>
<g><path style="opacity:1" fill="#888888" d="M 139.5,39.5 C 140.167,39.8333 140.833,40.1667 141.5,40.5C 140.432,41.4345 139.099,41.7678 137.5,41.5C 137.232,43.099 137.566,44.4324 138.5,45.5C 136.205,48.2971 133.705,50.9638 131,53.5C 131.72,50.7348 133.387,48.4015 136,46.5C 136.494,44.8659 136.66,43.1992 136.5,41.5C 134.901,41.7678 133.568,41.4345 132.5,40.5C 135.059,40.8016 137.393,40.4682 139.5,39.5 Z"/></g>
<g><path style="opacity:1" fill="#737373" d="M 106.5,47.5 C 106.5,48.1667 106.833,48.5 107.5,48.5C 92.0745,52.1924 76.7412,56.5257 61.5,61.5C 64.3203,58.9193 67.6536,57.0859 71.5,56C 83.2291,53.3175 94.8958,50.4842 106.5,47.5 Z"/></g>
<g><path style="opacity:1" fill="#eaeaea" d="M 107.5,48.5 C 108.5,48.5 109.5,48.5 110.5,48.5C 110.5,50.1667 110.5,51.8333 110.5,53.5C 106.453,53.3316 103.12,54.6649 100.5,57.5C 101.171,58.9458 102.338,59.6125 104,59.5C 106.137,58.9233 108.304,58.59 110.5,58.5C 109.833,60.8194 109.666,63.1527 110,65.5C 112.795,71.9785 115.295,78.6452 117.5,85.5C 113.933,85.7438 111.267,87.4105 109.5,90.5C 107.036,93.066 107.369,95.566 110.5,98C 113.929,100.521 117.596,101.021 121.5,99.5C 122.865,108.327 124.865,116.993 127.5,125.5C 126.5,125.5 125.5,125.5 124.5,125.5C 119.28,126.969 113.946,127.636 108.5,127.5C 103.167,127.5 97.8333,127.5 92.5,127.5C 78.2571,126.983 66.2571,121.65 56.5,111.5C 50.7906,100.921 48.6239,89.5874 50,77.5C 50.521,74.1258 51.8543,71.1258 54,68.5C 56.4786,66.0343 58.9786,63.701 61.5,61.5C 76.7412,56.5257 92.0745,52.1924 107.5,48.5 Z"/></g>
<g><path style="opacity:1" fill="#262626" d="M 127.5,37.5 C 127.833,37.5 128.167,37.5 128.5,37.5C 130.404,37.7376 131.738,38.7376 132.5,40.5C 133.568,41.4345 134.901,41.7678 136.5,41.5C 136.66,43.1992 136.494,44.8659 136,46.5C 133.387,48.4015 131.72,50.7348 131,53.5C 133.705,50.9638 136.205,48.2971 138.5,45.5C 143.26,45.2007 144.594,47.2007 142.5,51.5C 140.855,52.4787 139.521,53.812 138.5,55.5C 139.2,55.7871 139.867,56.1205 140.5,56.5C 138.038,59.4639 135.371,62.2972 132.5,65C 131.517,65.5908 130.85,65.2575 130.5,64C 133.604,59.2249 137.104,54.7249 141,50.5C 141.483,49.552 141.649,48.552 141.5,47.5C 140.448,47.3505 139.448,47.5172 138.5,48C 135.369,52.1328 131.869,55.9662 128,59.5C 126.6,61.8409 126.1,64.1742 126.5,66.5C 124.565,63.062 122.065,60.062 119,57.5C 118.026,53.8269 117.193,50.1602 116.5,46.5C 116.328,45.5084 116.662,44.8417 117.5,44.5C 120.115,43.5501 122.115,41.8835 123.5,39.5C 124.097,39.7352 124.43,40.2352 124.5,41C 123.944,42.0111 123.278,42.8444 122.5,43.5C 121.272,44.3065 120.272,45.3065 119.5,46.5C 118.203,48.6934 118.203,51.0268 119.5,53.5C 120.107,53.3764 120.44,53.0431 120.5,52.5C 121.752,50.9991 122.752,49.3325 123.5,47.5C 124.451,48.9187 124.784,50.5853 124.5,52.5C 120.565,54.5508 120.565,56.8842 124.5,59.5C 126.678,54.4919 129.844,50.1586 134,46.5C 134.49,45.2068 134.657,43.8734 134.5,42.5C 131.357,42.969 129.023,44.6356 127.5,47.5C 126.596,46.791 126.263,45.791 126.5,44.5C 128.701,44.1416 130.035,42.8083 130.5,40.5C 129.007,39.8589 128.007,38.8589 127.5,37.5 Z"/></g>
<g><path style="opacity:1" fill="#7b7b7b" d="M 119.5,46.5 C 119.205,48.7354 119.539,50.7354 120.5,52.5C 120.44,53.0431 120.107,53.3764 119.5,53.5C 118.203,51.0268 118.203,48.6934 119.5,46.5 Z"/></g>
<g><path style="opacity:1" fill="#dbdbdc" d="M 122.5,43.5 C 123.434,44.5676 123.768,45.901 123.5,47.5C 122.752,49.3325 121.752,50.9991 120.5,52.5C 119.539,50.7354 119.205,48.7354 119.5,46.5C 120.272,45.3065 121.272,44.3065 122.5,43.5 Z"/></g>
<g><path style="opacity:1" fill="#d6d6d6" d="M 124.5,52.5 C 126.223,51.3947 127.223,49.7281 127.5,47.5C 129.023,44.6356 131.357,42.969 134.5,42.5C 134.657,43.8734 134.49,45.2068 134,46.5C 129.844,50.1586 126.678,54.4919 124.5,59.5C 120.565,56.8842 120.565,54.5508 124.5,52.5 Z"/></g>
<g><path style="opacity:1" fill="#878787" d="M 112.5,49.5 C 113.376,49.3691 114.043,49.7025 114.5,50.5C 113.911,53.6404 113.244,56.6404 112.5,59.5C 112.5,56.1667 112.5,52.8333 112.5,49.5 Z"/></g>
<g><path style="opacity:1" fill="#2f2f2f" d="M 130.5,32.5 C 132.209,34.813 134.543,36.313 137.5,37C 146.046,36.516 153.713,38.8494 160.5,44C 180.086,61.1262 201.086,76.2929 223.5,89.5C 222.234,90.3624 220.901,91.0291 219.5,91.5C 219.439,89.4078 218.439,87.9078 216.5,87C 213.827,85.9986 211.493,84.4986 209.5,82.5C 208.893,82.6236 208.56,82.9569 208.5,83.5C 208.167,83.5 207.833,83.5 207.5,83.5C 207.079,81.0901 205.746,79.2568 203.5,78C 198.5,75 193.5,72 188.5,69C 177.318,60.5744 166.318,51.9077 155.5,43C 151.264,39.6831 146.598,38.8497 141.5,40.5C 140.833,40.1667 140.167,39.8333 139.5,39.5C 135.788,38.153 132.122,36.8196 128.5,35.5C 128.285,33.8212 128.952,32.8212 130.5,32.5 Z"/></g>
<g><path style="opacity:1" fill="#e6e6e6" d="M 219.5,91.5 C 215.069,97.7659 209.736,103.266 203.5,108C 191.65,115.222 179.317,121.389 166.5,126.5C 165.504,126.586 164.671,126.252 164,125.5C 163.621,122.97 162.787,120.637 161.5,118.5C 161.369,117.624 161.702,116.957 162.5,116.5C 166.205,115.314 169.538,113.648 172.5,111.5C 183.444,107.863 193.111,102.196 201.5,94.5C 205.078,91.689 207.411,88.0223 208.5,83.5C 208.56,82.9569 208.893,82.6236 209.5,82.5C 211.493,84.4986 213.827,85.9986 216.5,87C 218.439,87.9078 219.439,89.4078 219.5,91.5 Z"/></g>
<g><path style="opacity:1" fill="#747474" d="M 207.5,83.5 C 207.833,83.5 208.167,83.5 208.5,83.5C 207.411,88.0223 205.078,91.689 201.5,94.5C 203.772,90.9539 205.772,87.2872 207.5,83.5 Z"/></g>
<g><path style="opacity:1" fill="#9e9e9e" d="M 117.5,85.5 C 118.434,86.5676 118.768,87.901 118.5,89.5C 116.833,89.5 115.167,89.5 113.5,89.5C 111.172,90.7356 110.006,92.7356 110,95.5C 109.506,93.8659 109.34,92.1992 109.5,90.5C 111.267,87.4105 113.933,85.7438 117.5,85.5 Z"/></g>
<g><path style="opacity:1" fill="#e5e5e5" d="M 113.5,90.5 C 117.813,89.4869 120.146,91.1536 120.5,95.5C 116.882,97.2889 113.882,96.6222 111.5,93.5C 112.193,92.4822 112.859,91.4822 113.5,90.5 Z"/></g>
<g><path style="opacity:1" fill="#717171" d="M 113.5,89.5 C 113.5,89.8333 113.5,90.1667 113.5,90.5C 112.859,91.4822 112.193,92.4822 111.5,93.5C 113.882,96.6222 116.882,97.2889 120.5,95.5C 121.234,96.7079 121.567,98.0413 121.5,99.5C 117.596,101.021 113.929,100.521 110.5,98C 107.369,95.566 107.036,93.066 109.5,90.5C 109.34,92.1992 109.506,93.8659 110,95.5C 110.006,92.7356 111.172,90.7356 113.5,89.5 Z"/></g>
<g><path style="opacity:1" fill="#303030" d="M 142.5,51.5 C 147.631,51.606 148.797,53.9394 146,58.5C 143,62.1667 140,65.8333 137,69.5C 138.058,74.3153 137.558,78.9819 135.5,83.5C 142.431,93.2668 149.931,102.6 158,111.5C 158.791,112.745 159.291,114.078 159.5,115.5C 159.932,116.71 160.599,117.71 161.5,118.5C 162.787,120.637 163.621,122.97 164,125.5C 164.671,126.252 165.504,126.586 166.5,126.5C 166.5,126.833 166.5,127.167 166.5,127.5C 165.379,129.089 165.546,130.756 167,132.5C 172.57,138.863 179.403,143.029 187.5,145C 178.863,144.737 171.696,141.237 166,134.5C 163.39,127.336 160.39,120.336 157,113.5C 148.955,104.458 141.289,95.1242 134,85.5C 135.637,80.3068 135.971,74.9735 135,69.5C 138.515,64.656 142.015,59.8226 145.5,55C 145.167,54.5 144.833,54 144.5,53.5C 143.148,54.5244 141.815,55.5244 140.5,56.5C 139.867,56.1205 139.2,55.7871 138.5,55.5C 139.521,53.812 140.855,52.4787 142.5,51.5 Z"/></g>
<g><path style="opacity:1" fill="#707170" d="M 61.5,61.5 C 58.9786,63.701 56.4786,66.0343 54,68.5C 51.8543,71.1258 50.521,74.1258 50,77.5C 48.6239,89.5874 50.7906,100.921 56.5,111.5C 54.2918,110.106 52.7918,108.106 52,105.5C 49.4819,98.8916 47.9819,92.0583 47.5,85C 47.2285,74.0179 51.8951,66.1846 61.5,61.5 Z"/></g>
<g><path style="opacity:1" fill="#6f6f6f" d="M 201.5,94.5 C 193.111,102.196 183.444,107.863 172.5,111.5C 182.291,106.102 191.957,100.436 201.5,94.5 Z"/></g>
<g><path style="opacity:1" fill="#535353" d="M 219.5,91.5 C 216.887,97.6282 212.887,102.795 207.5,107C 194.648,115.426 180.981,122.259 166.5,127.5C 166.5,127.167 166.5,126.833 166.5,126.5C 179.317,121.389 191.65,115.222 203.5,108C 209.736,103.266 215.069,97.7659 219.5,91.5 Z"/></g>
<g><path style="opacity:1" fill="#6b6b6b" d="M 172.5,111.5 C 169.538,113.648 166.205,115.314 162.5,116.5C 161.702,116.957 161.369,117.624 161.5,118.5C 160.599,117.71 159.932,116.71 159.5,115.5C 163.732,113.886 168.066,112.553 172.5,111.5 Z"/></g>
<g><path style="opacity:1" fill="#707070" d="M 56.5,111.5 C 66.2571,121.65 78.2571,126.983 92.5,127.5C 92.1583,128.338 91.4916,128.672 90.5,128.5C 82.3014,128.268 74.6348,126.101 67.5,122C 62.6516,119.65 58.9849,116.15 56.5,111.5 Z"/></g>
<g><path style="opacity:1" fill="#5a5a5a" d="M 122.5,28.5 C 121.222,28.2178 120.222,27.5511 119.5,26.5C 116.711,25.8492 114.044,26.5158 111.5,28.5C 110.614,29.325 110.281,30.325 110.5,31.5C 111.833,31.5 113.167,31.5 114.5,31.5C 113.909,32.1515 113.243,32.8182 112.5,33.5C 114.173,35.0863 116.173,35.7529 118.5,35.5C 116.708,36.3091 114.708,36.8091 112.5,37C 108.341,42.1624 103.008,43.8291 96.5,42C 90.8444,41.1802 87.1777,38.0136 85.5,32.5C 84.3333,32.1667 83.1667,31.8333 82,31.5C 65.3853,34.7226 48.8853,38.3893 32.5,42.5C 32.1667,43.6667 31.8333,44.8333 31.5,46C 33.626,59.76 35.126,73.5934 36,87.5C 37.1489,106.64 45.6489,121.474 61.5,132C 84.0872,142.62 107.421,144.453 131.5,137.5C 131.5,138.167 131.833,138.5 132.5,138.5C 105.575,147.453 79.9087,144.62 55.5,130C 46.0911,122.594 39.9244,113.094 37,101.5C 34.3048,81.842 31.9714,62.1753 30,42.5C 31.1711,41.1068 32.6711,40.2735 34.5,40C 55.2513,36.0076 75.5847,31.1743 95.5,25.5C 96.1667,25.5 96.8333,25.5 97.5,25.5C 99.0435,17.8371 103.71,15.3371 111.5,18C 117.722,19.0585 121.388,22.5585 122.5,28.5 Z"/></g>
<g><path style="opacity:1" fill="#d2d2d2" d="M 89.5,37.5 C 91.2637,36.2878 92.9303,36.6212 94.5,38.5C 92.8084,39.2008 91.1417,38.8675 89.5,37.5 Z"/></g>
<g><path style="opacity:1" fill="#dfdfdf" d="M 105.5,34.5 C 112.772,33.9749 113.438,35.8083 107.5,40C 104.262,41.3677 100.928,41.7011 97.5,41C 99.6813,38.0102 102.348,35.8436 105.5,34.5 Z"/></g>
<g><path style="opacity:1" fill="#d6d6d6" d="M 95.5,36.5 C 101.331,33.9669 101.831,34.9669 97,39.5C 95.9614,38.7562 95.4614,37.7562 95.5,36.5 Z"/></g>
<g><path style="opacity:1" fill="#d7d7d7" d="M 95.5,36.5 C 92.9356,36.0213 90.4356,35.3547 88,34.5C 87.2263,32.597 87.5596,30.9304 89,29.5C 88.9532,34.1361 90.9532,35.4694 95,33.5C 95.3324,30.3097 93.8324,28.3097 90.5,27.5C 92.0064,26.2528 93.5064,26.2528 95,27.5C 95.8333,29.1667 96.6667,30.8333 97.5,32.5C 96.3698,33.6223 95.7031,34.9557 95.5,36.5 Z"/></g>
<g><path style="opacity:1" fill="#e0e0e0" d="M 90.5,30.5 C 91.5,30.5 92.5,30.5 93.5,30.5C 92.7542,34.31 91.7542,34.31 90.5,30.5 Z"/></g>
<g><path style="opacity:1" fill="#adadad" d="M 104.5,28.5 C 103.1,29.1001 102.1,30.1001 101.5,31.5C 99.4352,32.8256 98.1019,32.159 97.5,29.5C 99.5298,29.1064 101.863,28.7731 104.5,28.5 Z"/></g>
<g><path style="opacity:1" fill="#e4e5e5" d="M 101.5,31.5 C 102.1,30.1001 103.1,29.1001 104.5,28.5C 105.708,27.7659 107.041,27.4326 108.5,27.5C 108.833,29.5 109.167,31.5 109.5,33.5C 106.794,33.5751 104.127,33.9084 101.5,34.5C 101.5,33.5 101.5,32.5 101.5,31.5 Z"/></g>
<g><path style="opacity:1" fill="#dfdfdf" d="M 114.5,22.5 C 115.873,22.3433 117.207,22.51 118.5,23C 116.366,25.098 114.032,25.9313 111.5,25.5C 112.34,24.265 113.34,23.265 114.5,22.5 Z"/></g>
<g><path style="opacity:1" fill="#e6e6e6" d="M 109.5,19.5 C 113.606,21.2925 113.439,22.9592 109,24.5C 108.36,22.735 108.527,21.0683 109.5,19.5 Z"/></g>
<g><path style="opacity:1" fill="#e5e5e5" d="M 102.5,18.5 C 104.527,18.3379 106.527,18.5045 108.5,19C 107.029,21.2428 106.029,23.7428 105.5,26.5C 103.591,27.3482 101.591,27.6816 99.5,27.5C 99.1289,23.9966 100.129,20.9966 102.5,18.5 Z"/></g>
<g><path style="opacity:1" fill="#353535" d="M 117.5,44.5 C 116.662,44.8417 116.328,45.5084 116.5,46.5C 114.244,45.7077 112.91,46.7077 112.5,49.5C 112.5,52.8333 112.5,56.1667 112.5,59.5C 112.322,60.6948 111.989,61.8615 111.5,63C 118.802,79.1099 123.635,95.9432 126,113.5C 129.753,123.507 133.92,133.34 138.5,143C 138.333,143.5 138.167,144 138,144.5C 136.821,141.74 134.988,139.74 132.5,138.5C 131.833,138.5 131.5,138.167 131.5,137.5C 132.497,137.53 133.164,137.03 133.5,136C 132.303,133.106 130.97,130.273 129.5,127.5C 127.955,126.548 126.288,126.215 124.5,126.5C 124.5,126.167 124.5,125.833 124.5,125.5C 125.5,125.5 126.5,125.5 127.5,125.5C 124.865,116.993 122.865,108.327 121.5,99.5C 121.567,98.0413 121.234,96.7079 120.5,95.5C 120.146,91.1536 117.813,89.4869 113.5,90.5C 113.5,90.1667 113.5,89.8333 113.5,89.5C 115.167,89.5 116.833,89.5 118.5,89.5C 118.768,87.901 118.434,86.5676 117.5,85.5C 115.295,78.6452 112.795,71.9785 110,65.5C 109.666,63.1527 109.833,60.8194 110.5,58.5C 108.304,58.59 106.137,58.9233 104,59.5C 102.338,59.6125 101.171,58.9458 100.5,57.5C 103.12,54.6649 106.453,53.3316 110.5,53.5C 110.5,51.8333 110.5,50.1667 110.5,48.5C 109.5,48.5 108.5,48.5 107.5,48.5C 106.833,48.5 106.5,48.1667 106.5,47.5C 107.5,47.5 108.5,47.5 109.5,47.5C 109.904,39.7003 112.57,38.7003 117.5,44.5 Z"/></g>
<g><path style="opacity:1" fill="#d0d0d0" d="M 108.5,54.5 C 110.379,54.3932 110.712,54.8932 109.5,56C 107.246,57.1505 104.913,57.4838 102.5,57C 104.502,55.9808 106.502,55.1475 108.5,54.5 Z"/></g>
<g><path style="opacity:1" fill="#dddddd" d="M 111.5,43.5 C 113.973,43.9473 114.14,44.9473 112,46.5C 111.517,45.552 111.351,44.552 111.5,43.5 Z"/></g>
<g><path style="opacity:1" fill="#b0b0b0" d="M 92.5,127.5 C 97.8333,127.5 103.167,127.5 108.5,127.5C 103.833,128.167 99.1667,128.833 94.5,129.5C 92.901,129.768 91.5676,129.434 90.5,128.5C 91.4916,128.672 92.1583,128.338 92.5,127.5 Z"/></g>
<g><path style="opacity:1" fill="#747474" d="M 124.5,125.5 C 124.5,125.833 124.5,126.167 124.5,126.5C 121.132,128.059 117.465,128.892 113.5,129C 107.175,129.5 100.842,129.666 94.5,129.5C 99.1667,128.833 103.833,128.167 108.5,127.5C 113.946,127.636 119.28,126.969 124.5,125.5 Z"/></g>
</svg>
