<?xml version="1.0" encoding="UTF-8"?>
<!DOCTYPE svg PUBLIC "-//W3C//DTD SVG 1.1//EN" "http://www.w3.org/Graphics/SVG/1.1/DTD/svg11.dtd">
<svg xmlns="http://www.w3.org/2000/svg" version="1.1" width="260px" height="156px" style="shape-rendering:geometricPrecision; text-rendering:geometricPrecision; image-rendering:optimizeQuality; fill-rule:evenodd; clip-rule:evenodd" xmlns:xlink="http://www.w3.org/1999/xlink">
<g><path style="opacity:1" fill="#ebebeb" d="M -0.5,-0.5 C 86.1667,-0.5 172.833,-0.5 259.5,-0.5C 259.5,51.5 259.5,103.5 259.5,155.5C 172.833,155.5 86.1667,155.5 -0.5,155.5C -0.5,103.5 -0.5,51.5 -0.5,-0.5 Z"/></g>
<g><path style="opacity:1" fill="#e6e6e6" d="M 168.5,22.5 C 166.154,25.679 163.321,28.3456 160,30.5C 155.169,28.225 151.669,24.5583 149.5,19.5C 150.243,18.8182 150.909,18.1515 151.5,17.5C 158.484,15.0233 164.151,16.69 168.5,22.5 Z"/></g>
<g><path style="opacity:1" fill="#696969" d="M 151.5,17.5 C 150.909,18.1515 150.243,18.8182 149.5,19.5C 151.669,24.5583 155.169,28.225 160,30.5C 163.321,28.3456 166.154,25.679 168.5,22.5C 169.167,22.5 169.5,22.8333 169.5,23.5C 166.381,27.9573 162.381,31.2906 157.5,33.5C 158.602,31.9081 157.935,31.0748 155.5,31C 153.167,30.3333 150.833,30.3333 148.5,31C 150.229,32.7889 150.896,34.9556 150.5,37.5C 152.565,37.4828 154.565,37.1495 156.5,36.5C 154.794,38.5358 152.461,39.5358 149.5,39.5C 150.424,35.1635 148.757,32.6635 144.5,32C 145.167,31.3333 145.833,30.6667 146.5,30C 148.9,29.8142 151.234,29.3142 153.5,28.5C 151.5,25.5 149.5,22.5 147.5,19.5C 145.22,21.499 142.886,22.499 140.5,22.5C 143.559,19.47 147.226,17.8033 151.5,17.5 Z"/></g>
<g><path style="opacity:1" fill="#e4e4e4" d="M 151.5,17.5 C 147.226,17.8033 143.559,19.47 140.5,22.5C 142.886,22.499 145.22,21.499 147.5,19.5C 149.5,22.5 151.5,25.5 153.5,28.5C 151.234,29.3142 148.9,29.8142 146.5,30C 145.833,30.6667 145.167,31.3333 144.5,32C 148.757,32.6635 150.424,35.1635 149.5,39.5C 152.461,39.5358 154.794,38.5358 156.5,36.5C 158.38,36.7709 159.713,36.1042 160.5,34.5C 162.415,34.7845 164.081,34.4511 165.5,33.5C 165.5,32.8333 165.5,32.1667 165.5,31.5C 167.63,29.8729 169.63,28.0396 171.5,26C 173.829,26.9933 175.663,28.8266 177,31.5C 177.679,34.5499 178.512,37.5499 179.5,40.5C 177.955,41.4519 176.288,41.7852 174.5,41.5C 172.073,41.523 169.74,42.023 167.5,43C 169.382,43.1981 171.048,43.6981 172.5,44.5C 168.21,45.4245 163.876,46.0912 159.5,46.5C 161.476,44.9891 163.809,44.1558 166.5,44C 162.027,43.0379 158.027,43.8713 154.5,46.5C 151.669,47.0787 149.336,48.412 147.5,50.5C 145.883,51.038 144.216,51.3713 142.5,51.5C 142.924,45.4919 142.258,39.6585 140.5,34C 141.5,33 142.5,32 143.5,31C 141.613,30.8374 140.113,31.6707 139,33.5C 138.902,36.5224 138.068,39.1891 136.5,41.5C 136.107,39.7162 135.441,38.0495 134.5,36.5C 135.386,34.2784 135.386,32.1118 134.5,30C 134.99,28.018 135.99,26.3513 137.5,25C 135.591,24.5521 134.424,25.3855 134,27.5C 133.505,29.4727 133.338,31.4727 133.5,33.5C 131.585,33.2155 129.919,33.5489 128.5,34.5C 127.206,35.2899 126.039,36.2899 125,37.5C 122.949,35.1909 123.116,33.0243 125.5,31C 126.449,30.3828 127.282,30.5494 128,31.5C 128.483,30.552 128.649,29.552 128.5,28.5C 132.272,24.1067 136.938,20.94 142.5,19C 143.696,18.3457 143.696,17.8457 142.5,17.5C 141.549,18.3256 140.549,18.4922 139.5,18C 140.833,16.6667 142.167,15.3333 143.5,14C 147.869,13.5752 152.203,13.9085 156.5,15C 154.685,15.7568 153.019,16.5902 151.5,17.5 Z"/></g>
<g><path style="opacity:1" fill="#bbbbbb" d="M 169.5,23.5 C 170.239,23.369 170.906,23.5357 171.5,24C 169.167,26.3333 166.833,28.6667 164.5,31C 164.728,31.3988 165.062,31.5654 165.5,31.5C 165.5,32.1667 165.5,32.8333 165.5,33.5C 163.344,31.8823 161.677,32.2157 160.5,34.5C 159.391,34.5569 158.391,34.8902 157.5,35.5C 157.5,34.8333 157.5,34.1667 157.5,33.5C 162.381,31.2906 166.381,27.9573 169.5,23.5 Z"/></g>
<g><path style="opacity:1" fill="#e4e4e4" d="M 157.5,33.5 C 157.5,34.1667 157.5,34.8333 157.5,35.5C 156.833,35.5 156.5,35.8333 156.5,36.5C 154.565,37.1495 152.565,37.4828 150.5,37.5C 150.896,34.9556 150.229,32.7889 148.5,31C 150.833,30.3333 153.167,30.3333 155.5,31C 157.935,31.0748 158.602,31.9081 157.5,33.5 Z"/></g>
<g><path style="opacity:1" fill="#696969" d="M 134.5,36.5 C 132.886,34.9254 130.886,34.2587 128.5,34.5C 129.919,33.5489 131.585,33.2155 133.5,33.5C 133.338,31.4727 133.505,29.4727 134,27.5C 134.424,25.3855 135.591,24.5521 137.5,25C 135.99,26.3513 134.99,28.018 134.5,30C 135.386,32.1118 135.386,34.2784 134.5,36.5 Z"/></g>
<g><path style="opacity:1" fill="#323232" d="M 128.5,28.5 C 128.649,29.552 128.483,30.552 128,31.5C 127.282,30.5494 126.449,30.3828 125.5,31C 123.116,33.0243 122.949,35.1909 125,37.5C 126.039,36.2899 127.206,35.2899 128.5,34.5C 130.886,34.2587 132.886,34.9254 134.5,36.5C 135.441,38.0495 136.107,39.7162 136.5,41.5C 136.833,42.1667 137.167,42.8333 137.5,43.5C 137.335,46.5184 137.502,49.5184 138,52.5C 138.383,53.056 138.883,53.3893 139.5,53.5C 140.167,53.5 140.5,53.8333 140.5,54.5C 141.795,55.0306 142.462,56.3639 142.5,58.5C 141.833,59.1667 141.167,59.8333 140.5,60.5C 139.391,60.5569 138.391,60.8902 137.5,61.5C 136.761,61.631 136.094,61.4643 135.5,61C 137.087,60.1376 138.754,59.4709 140.5,59C 138.833,58.6667 137.167,58.3333 135.5,58C 136.5,57.6667 137.5,57.3333 138.5,57C 135.5,53.3333 132.5,49.6667 129.5,46C 128.062,45.7811 126.729,45.2811 125.5,44.5C 126.326,43.549 126.492,42.549 126,41.5C 123.333,40.8333 120.667,40.1667 118,39.5C 117.333,40.5 117.333,41.5 118,42.5C 122.617,50.9343 128.451,58.2676 135.5,64.5C 138.735,70.3205 141.902,75.9871 145,81.5C 140.324,76.1212 136.157,70.4545 132.5,64.5C 131.455,63.1224 130.122,62.1224 128.5,61.5C 128.141,59.629 127.141,58.129 125.5,57C 122.624,54.563 119.29,53.2297 115.5,53C 116.902,51.6575 116.569,50.8242 114.5,50.5C 111.971,50.9289 109.638,51.5955 107.5,52.5C 106.375,51.6522 106.375,50.6522 107.5,49.5C 109.456,51.1751 110.789,50.8418 111.5,48.5C 112.652,49.625 113.652,49.625 114.5,48.5C 116.951,49.4108 119.285,50.2441 121.5,51C 119.954,48.7432 118.288,46.5765 116.5,44.5C 115.817,44.8627 115.15,45.1961 114.5,45.5C 115.574,42.501 115.407,39.501 114,36.5C 113.768,37.7375 113.268,38.7375 112.5,39.5C 112.178,37.2776 112.845,35.4443 114.5,34C 118.93,31.4697 123.597,29.6363 128.5,28.5 Z"/></g>
<g><path style="opacity:1" fill="#464646" d="M 165.5,33.5 C 164.081,34.4511 162.415,34.7845 160.5,34.5C 161.677,32.2157 163.344,31.8823 165.5,33.5 Z"/></g>
<g><path style="opacity:1" fill="#d5d6d5" d="M 117.5,35.5 C 120.278,35.0217 122.278,36.0217 123.5,38.5C 120.193,40.1702 118.193,39.1702 117.5,35.5 Z"/></g>
<g><path style="opacity:1" fill="#5d5d5d" d="M 160.5,34.5 C 159.713,36.1042 158.38,36.7709 156.5,36.5C 156.5,35.8333 156.833,35.5 157.5,35.5C 158.391,34.8902 159.391,34.5569 160.5,34.5 Z"/></g>
<g><path style="opacity:1" fill="#dbdbdc" d="M 129.5,36.5 C 133.068,36.7593 134.401,38.7593 133.5,42.5C 132.041,42.5674 130.708,42.2341 129.5,41.5C 128.438,39.7659 128.438,38.0992 129.5,36.5 Z"/></g>
<g><path style="opacity:1" fill="#666766" d="M 129.5,36.5 C 128.438,38.0992 128.438,39.7659 129.5,41.5C 127.748,41.5824 126.748,40.7491 126.5,39C 126.748,37.2509 127.748,36.4176 129.5,36.5 Z"/></g>
<g><path style="opacity:1" fill="#dedede" d="M 137.5,61.5 C 136.449,62.2223 135.782,63.2223 135.5,64.5C 128.451,58.2676 122.617,50.9343 118,42.5C 117.333,41.5 117.333,40.5 118,39.5C 120.667,40.1667 123.333,40.8333 126,41.5C 126.492,42.549 126.326,43.549 125.5,44.5C 126.729,45.2811 128.062,45.7811 129.5,46C 132.5,49.6667 135.5,53.3333 138.5,57C 137.5,57.3333 136.5,57.6667 135.5,58C 137.167,58.3333 138.833,58.6667 140.5,59C 138.754,59.4709 137.087,60.1376 135.5,61C 136.094,61.4643 136.761,61.631 137.5,61.5 Z"/></g>
<g><path style="opacity:1" fill="#737373" d="M 174.5,41.5 C 175.263,42.2679 176.263,42.7679 177.5,43C 175.657,43.1587 174.991,43.6587 175.5,44.5C 175.158,45.3382 174.492,45.6716 173.5,45.5C 173.5,44.8333 173.167,44.5 172.5,44.5C 171.048,43.6981 169.382,43.1981 167.5,43C 169.74,42.023 172.073,41.523 174.5,41.5 Z"/></g>
<g><path style="opacity:1" fill="#5d5d5d" d="M 114.5,45.5 C 114.5,46.5 114.5,47.5 114.5,48.5C 113.833,47.8333 113.167,47.1667 112.5,46.5C 113.686,44.2078 113.686,41.8744 112.5,39.5C 113.268,38.7375 113.768,37.7375 114,36.5C 115.407,39.501 115.574,42.501 114.5,45.5 Z"/></g>
<g><path style="opacity:1" fill="#e0e0e0" d="M 139.5,53.5 C 138.883,53.3893 138.383,53.056 138,52.5C 137.502,49.5184 137.335,46.5184 137.5,43.5C 138.232,42.1917 139.066,40.8584 140,39.5C 142.054,44.2727 141.887,48.9393 139.5,53.5 Z"/></g>
<g><path style="opacity:1" fill="#636363" d="M 147.5,50.5 C 149.424,50.7107 149.757,51.3774 148.5,52.5C 148.44,51.9569 148.107,51.6236 147.5,51.5C 146.186,52.3128 145.019,53.3128 144,54.5C 142.855,53.3157 141.688,53.3157 140.5,54.5C 140.5,53.8333 140.167,53.5 139.5,53.5C 141.887,48.9393 142.054,44.2727 140,39.5C 139.066,40.8584 138.232,42.1917 137.5,43.5C 137.167,42.8333 136.833,42.1667 136.5,41.5C 138.068,39.1891 138.902,36.5224 139,33.5C 140.113,31.6707 141.613,30.8374 143.5,31C 142.5,32 141.5,33 140.5,34C 142.258,39.6585 142.924,45.4919 142.5,51.5C 144.216,51.3713 145.883,51.038 147.5,50.5 Z"/></g>
<g><path style="opacity:1" fill="#dddddd" d="M 130.5,44.5 C 131.919,43.5489 133.585,43.2155 135.5,43.5C 135.785,45.288 135.452,46.9547 134.5,48.5C 133.479,46.812 132.145,45.4787 130.5,44.5 Z"/></g>
<g><path style="opacity:1" fill="#6f6f6f" d="M 159.5,46.5 C 157.833,46.5 156.167,46.5 154.5,46.5C 158.027,43.8713 162.027,43.0379 166.5,44C 163.809,44.1558 161.476,44.9891 159.5,46.5 Z"/></g>
<g><path style="opacity:1" fill="#545454" d="M 165.5,51.5 C 164.292,50.7659 162.959,50.4326 161.5,50.5C 167.702,49.013 174.035,47.513 180.5,46C 181.711,45.1072 181.711,44.2739 180.5,43.5C 178.929,44.3094 177.262,44.6427 175.5,44.5C 174.991,43.6587 175.657,43.1587 177.5,43C 176.263,42.7679 175.263,42.2679 174.5,41.5C 176.288,41.7852 177.955,41.4519 179.5,40.5C 178.512,37.5499 177.679,34.5499 177,31.5C 175.663,28.8266 173.829,26.9933 171.5,26C 169.63,28.0396 167.63,29.8729 165.5,31.5C 165.062,31.5654 164.728,31.3988 164.5,31C 166.833,28.6667 169.167,26.3333 171.5,24C 170.906,23.5357 170.239,23.369 169.5,23.5C 169.5,22.8333 169.167,22.5 168.5,22.5C 164.151,16.69 158.484,15.0233 151.5,17.5C 153.019,16.5902 154.685,15.7568 156.5,15C 152.203,13.9085 147.869,13.5752 143.5,14C 142.167,15.3333 140.833,16.6667 139.5,18C 140.549,18.4922 141.549,18.3256 142.5,17.5C 143.696,17.8457 143.696,18.3457 142.5,19C 136.938,20.94 132.272,24.1067 128.5,28.5C 133.25,23.5742 137.917,18.4075 142.5,13C 158.967,11.4831 171.134,17.9831 179,32.5C 179.696,35.4781 180.196,38.4781 180.5,41.5C 181.873,41.3433 183.207,41.51 184.5,42C 183.782,43.9874 182.782,45.8208 181.5,47.5C 176.005,48.6744 170.672,50.0077 165.5,51.5 Z"/></g>
<g><path style="opacity:1" fill="#272727" d="M 112.5,46.5 C 113.167,47.1667 113.833,47.8333 114.5,48.5C 113.652,49.625 112.652,49.625 111.5,48.5C 109.544,46.8249 108.211,47.1582 107.5,49.5C 106.375,50.6522 106.375,51.6522 107.5,52.5C 108.08,54.7488 109.413,56.4154 111.5,57.5C 110.652,58.625 109.652,58.625 108.5,57.5C 102.106,50.6975 103.439,47.0308 112.5,46.5 Z"/></g>
<g><path style="opacity:1" fill="#c7c7c7" d="M 114.5,48.5 C 114.5,47.5 114.5,46.5 114.5,45.5C 115.15,45.1961 115.817,44.8627 116.5,44.5C 118.288,46.5765 119.954,48.7432 121.5,51C 119.285,50.2441 116.951,49.4108 114.5,48.5 Z"/></g>
<g><path style="opacity:1" fill="#dadada" d="M 161.5,50.5 C 157.993,50.3067 154.66,50.9733 151.5,52.5C 150.429,50.6745 151.096,49.5079 153.5,49C 160.259,48.2812 166.926,47.1145 173.5,45.5C 174.492,45.6716 175.158,45.3382 175.5,44.5C 177.262,44.6427 178.929,44.3094 180.5,43.5C 181.711,44.2739 181.711,45.1072 180.5,46C 174.035,47.513 167.702,49.013 161.5,50.5 Z"/></g>
<g><path style="opacity:1" fill="#c0c0c0" d="M 111.5,48.5 C 110.789,50.8418 109.456,51.1751 107.5,49.5C 108.211,47.1582 109.544,46.8249 111.5,48.5 Z"/></g>
<g><path style="opacity:1" fill="#dedede" d="M 164.5,59.5 C 162.083,61.937 159.083,63.2703 155.5,63.5C 154.5,63.5 153.5,63.5 152.5,63.5C 152.975,60.6874 151.975,58.6874 149.5,57.5C 152.683,54.5363 156.517,52.5363 161,51.5C 162.107,51.5852 163.107,51.9186 164,52.5C 164.497,54.8098 164.663,57.1432 164.5,59.5 Z"/></g>
<g><path style="opacity:1" fill="#dddddd" d="M 148.5,52.5 C 147.686,57.1191 147.353,61.7858 147.5,66.5C 147.631,67.2389 147.464,67.9056 147,68.5C 143.853,65.8691 142.353,62.5357 142.5,58.5C 142.462,56.3639 141.795,55.0306 140.5,54.5C 141.688,53.3157 142.855,53.3157 144,54.5C 145.019,53.3128 146.186,52.3128 147.5,51.5C 148.107,51.6236 148.44,51.9569 148.5,52.5 Z"/></g>
<g><path style="opacity:1" fill="#363636" d="M 172.5,44.5 C 173.167,44.5 173.5,44.8333 173.5,45.5C 166.926,47.1145 160.259,48.2812 153.5,49C 151.096,49.5079 150.429,50.6745 151.5,52.5C 154.66,50.9733 157.993,50.3067 161.5,50.5C 162.959,50.4326 164.292,50.7659 165.5,51.5C 166.281,55.2182 166.614,58.8849 166.5,62.5C 164.952,62.1788 164.285,61.1788 164.5,59.5C 164.663,57.1432 164.497,54.8098 164,52.5C 163.107,51.9186 162.107,51.5852 161,51.5C 156.517,52.5363 152.683,54.5363 149.5,57.5C 148.377,59.9787 148.377,62.312 149.5,64.5C 149.167,65.1667 148.833,65.8333 148.5,66.5C 148.167,66.5 147.833,66.5 147.5,66.5C 147.353,61.7858 147.686,57.1191 148.5,52.5C 149.757,51.3774 149.424,50.7107 147.5,50.5C 149.336,48.412 151.669,47.0787 154.5,46.5C 156.167,46.5 157.833,46.5 159.5,46.5C 163.876,46.0912 168.21,45.4245 172.5,44.5 Z"/></g>
<g><path style="opacity:1" fill="#6f6f6f" d="M 153.5,56.5 C 155.446,57.2544 156.279,58.5878 156,60.5C 154.519,59.5291 153.685,58.1958 153.5,56.5 Z"/></g>
<g><path style="opacity:1" fill="#9c9c9c" d="M 149.5,57.5 C 151.975,58.6874 152.975,60.6874 152.5,63.5C 153.5,63.5 154.5,63.5 155.5,63.5C 153.506,64.1496 151.506,64.4829 149.5,64.5C 148.377,62.312 148.377,59.9787 149.5,57.5 Z"/></g>
<g><path style="opacity:1" fill="#dddddd" d="M 130.5,97.5 C 129.421,89.8924 126.088,83.5591 120.5,78.5C 120.953,77.5416 121.619,76.7083 122.5,76C 121.551,75.3828 120.718,75.5494 120,76.5C 119.751,75.376 119.251,74.376 118.5,73.5C 117.708,74.6998 117.708,76.0331 118.5,77.5C 117.167,77.5 115.833,77.5 114.5,77.5C 114.82,74.1016 114.487,70.7683 113.5,67.5C 113.167,67.6667 112.833,67.8333 112.5,68C 113.456,71.3936 113.789,74.8936 113.5,78.5C 112.058,79.8195 111.392,81.4862 111.5,83.5C 110.5,83.5 109.5,83.5 108.5,83.5C 108.5,82.5 108.5,81.5 108.5,80.5C 110.097,75.7128 110.93,70.7128 111,65.5C 111.717,64.9558 112.217,64.2891 112.5,63.5C 114.507,62.3215 114.84,62.8215 113.5,65C 114.996,65.5074 116.163,65.0074 117,63.5C 122.737,72.3068 127.403,81.6401 131,91.5C 131.789,93.7116 131.622,95.7116 130.5,97.5 Z"/></g>
<g><path style="opacity:1" fill="#808080" d="M 128.5,61.5 C 130.122,62.1224 131.455,63.1224 132.5,64.5C 130.488,65.0138 128.488,65.1805 126.5,65C 127.672,64.5814 128.672,63.9147 129.5,63C 128.551,62.3828 127.718,62.5494 127,63.5C 126.472,62.184 126.972,61.5173 128.5,61.5 Z"/></g>
<g><path style="opacity:1" fill="#7e7e7e" d="M 142.5,58.5 C 142.353,62.5357 143.853,65.8691 147,68.5C 147.464,67.9056 147.631,67.2389 147.5,66.5C 147.833,66.5 148.167,66.5 148.5,66.5C 148.634,68.2915 148.301,69.9582 147.5,71.5C 144.421,68.3495 142.087,64.6829 140.5,60.5C 141.167,59.8333 141.833,59.1667 142.5,58.5 Z"/></g>
<g><path style="opacity:1" fill="#dadada" d="M 159.5,64.5 C 162.187,64.3359 164.854,64.5026 167.5,65C 168.78,67.1317 168.78,69.2984 167.5,71.5C 163.932,72.1346 160.599,73.1346 157.5,74.5C 151.732,75.733 149.066,73.3997 149.5,67.5C 151.39,68.1799 153.39,68.3466 155.5,68C 156.337,69.0113 156.67,70.1779 156.5,71.5C 154.876,71.6399 153.71,70.9733 153,69.5C 152.51,70.7932 152.343,72.1266 152.5,73.5C 159.068,72.7935 160.068,70.1268 155.5,65.5C 156.833,65.1667 158.167,64.8333 159.5,64.5 Z"/></g>
<g><path style="opacity:1" fill="#6e6e6e" d="M 108.5,57.5 C 109.652,58.625 110.652,58.625 111.5,57.5C 114.692,59.1721 117.525,61.5054 120,64.5C 122.745,70.325 125.745,75.9916 129,81.5C 131.368,85.8995 132.868,90.5662 133.5,95.5C 132.698,96.9516 132.198,98.6183 132,100.5C 130.961,99.7562 130.461,98.7562 130.5,97.5C 131.622,95.7116 131.789,93.7116 131,91.5C 127.403,81.6401 122.737,72.3068 117,63.5C 116.163,65.0074 114.996,65.5074 113.5,65C 114.84,62.8215 114.507,62.3215 112.5,63.5C 112.158,62.6618 111.492,62.3284 110.5,62.5C 109.463,61.0697 108.796,59.403 108.5,57.5 Z"/></g>
<g><path style="opacity:1" fill="#616161" d="M 159.5,66.5 C 161.273,67.3143 161.773,68.6476 161,70.5C 160.209,69.255 159.709,67.9217 159.5,66.5 Z"/></g>
<g><path style="opacity:1" fill="#212221" d="M 164.5,59.5 C 164.285,61.1788 164.952,62.1788 166.5,62.5C 164.167,63.1667 161.833,63.8333 159.5,64.5C 158.167,64.8333 156.833,65.1667 155.5,65.5C 153.374,66.0482 151.374,66.7148 149.5,67.5C 149.066,73.3997 151.732,75.733 157.5,74.5C 159.028,74.5173 159.528,75.184 159,76.5C 156.973,76.0137 154.807,76.0137 152.5,76.5C 150.473,75.1394 148.806,73.4727 147.5,71.5C 148.301,69.9582 148.634,68.2915 148.5,66.5C 148.833,65.8333 149.167,65.1667 149.5,64.5C 151.506,64.4829 153.506,64.1496 155.5,63.5C 159.083,63.2703 162.083,61.937 164.5,59.5 Z"/></g>
<g><path style="opacity:1" fill="#696969" d="M 155.5,65.5 C 160.068,70.1268 159.068,72.7935 152.5,73.5C 152.343,72.1266 152.51,70.7932 153,69.5C 153.71,70.9733 154.876,71.6399 156.5,71.5C 156.67,70.1779 156.337,69.0113 155.5,68C 153.39,68.3466 151.39,68.1799 149.5,67.5C 151.374,66.7148 153.374,66.0482 155.5,65.5 Z"/></g>
<g><path style="opacity:1" fill="#636363" d="M 118.5,77.5 C 117.081,78.4511 115.415,78.7845 113.5,78.5C 113.789,74.8936 113.456,71.3936 112.5,68C 112.833,67.8333 113.167,67.6667 113.5,67.5C 114.487,70.7683 114.82,74.1016 114.5,77.5C 115.833,77.5 117.167,77.5 118.5,77.5 Z"/></g>
<g><path style="opacity:1" fill="#656565" d="M 120.5,78.5 C 119.833,78.1667 119.167,77.8333 118.5,77.5C 117.708,76.0331 117.708,74.6998 118.5,73.5C 119.251,74.376 119.751,75.376 120,76.5C 120.718,75.5494 121.551,75.3828 122.5,76C 121.619,76.7083 120.953,77.5416 120.5,78.5 Z"/></g>
<g><path style="opacity:1" fill="#2d2d2d" d="M 110.5,62.5 C 111.492,62.3284 112.158,62.6618 112.5,63.5C 112.217,64.2891 111.717,64.9558 111,65.5C 110.93,70.7128 110.097,75.7128 108.5,80.5C 106.167,81.5 104.5,83.1667 103.5,85.5C 82.667,106.439 60.3337,125.773 36.5,143.5C 36.1667,143.167 35.8333,142.833 35.5,142.5C 61.3319,122.843 85.4985,101.176 108,77.5C 108.917,72.4926 109.75,67.4926 110.5,62.5 Z"/></g>
<g><path style="opacity:1" fill="#323232" d="M 166.5,62.5 C 170.512,65.0085 171.512,68.5085 169.5,73C 170.848,74.5553 171.514,76.3887 171.5,78.5C 169.89,83.0471 168.89,87.7138 168.5,92.5C 169.568,100.808 170.401,109.142 171,117.5C 179.244,127.746 188.744,136.58 199.5,144C 197.212,144.418 195.212,143.751 193.5,142C 186.333,135.5 179.167,129 172,122.5C 171.252,120.668 170.252,119.001 169,117.5C 168.261,107.139 167.261,96.8058 166,86.5C 163.349,83.5698 160.516,80.7365 157.5,78C 156.451,77.5078 155.451,77.6744 154.5,78.5C 153.478,78.1445 152.811,77.4778 152.5,76.5C 154.807,76.0137 156.973,76.0137 159,76.5C 159.528,75.184 159.028,74.5173 157.5,74.5C 160.599,73.1346 163.932,72.1346 167.5,71.5C 168.78,69.2984 168.78,67.1317 167.5,65C 164.854,64.5026 162.187,64.3359 159.5,64.5C 161.833,63.8333 164.167,63.1667 166.5,62.5 Z"/></g>
<g><path style="opacity:1" fill="#cccccc" d="M 163.5,74.5 C 164.995,74.4148 165.995,75.0815 166.5,76.5C 165.397,76.9976 164.397,77.3309 163.5,77.5C 164.689,78.4287 166.022,78.762 167.5,78.5C 167.281,77.325 167.614,76.325 168.5,75.5C 169.647,77.7649 169.814,80.0982 169,82.5C 168.577,83.9561 167.744,84.4561 166.5,84C 166.957,83.586 167.291,83.086 167.5,82.5C 166.271,81.7189 164.938,81.2189 163.5,81C 162.87,79.108 161.87,77.4413 160.5,76C 161.737,75.7679 162.737,75.2679 163.5,74.5 Z"/></g>
<g><path style="opacity:1" fill="#e3e3e3" d="M 111.5,85.5 C 112.159,88.4552 112.492,91.4552 112.5,94.5C 112.217,95.2891 111.717,95.9558 111,96.5C 109.556,94.8446 107.722,94.178 105.5,94.5C 105.335,91.4816 105.502,88.4816 106,85.5C 107.626,85.1459 109.459,85.1459 111.5,85.5 Z"/></g>
<g><path style="opacity:1" fill="#dedede" d="M 112.5,98.5 C 114.104,99.287 114.771,100.62 114.5,102.5C 110.33,103.258 107.33,101.424 105.5,97C 108.095,96.3996 110.429,96.8996 112.5,98.5 Z"/></g>
<g><path style="opacity:1" fill="#5c5c5c" d="M 108.5,80.5 C 108.5,81.5 108.5,82.5 108.5,83.5C 109.5,83.5 110.5,83.5 111.5,83.5C 111.5,84.1667 111.5,84.8333 111.5,85.5C 109.459,85.1459 107.626,85.1459 106,85.5C 105.502,88.4816 105.335,91.4816 105.5,94.5C 107.722,94.178 109.556,94.8446 111,96.5C 111.717,95.9558 112.217,95.2891 112.5,94.5C 113.354,95.6316 113.354,96.965 112.5,98.5C 110.429,96.8996 108.095,96.3996 105.5,97C 107.33,101.424 110.33,103.258 114.5,102.5C 115.434,103.568 115.768,104.901 115.5,106.5C 105.596,103.04 101.596,96.0397 103.5,85.5C 104.5,83.1667 106.167,81.5 108.5,80.5 Z"/></g>
<g><path style="opacity:1" fill="#2c2c2c" d="M 118.5,77.5 C 119.167,77.8333 119.833,78.1667 120.5,78.5C 126.088,83.5591 129.421,89.8924 130.5,97.5C 130.461,98.7562 130.961,99.7562 132,100.5C 132.198,98.6183 132.698,96.9516 133.5,95.5C 133.049,101.123 134.049,106.456 136.5,111.5C 135.833,112.833 135.167,112.833 134.5,111.5C 130.56,102.618 126.893,93.618 123.5,84.5C 122.738,82.7376 121.404,81.7376 119.5,81.5C 117.661,80.2475 115.828,80.2475 114,81.5C 113.398,84.2205 113.565,86.8872 114.5,89.5C 114.5,90.1667 114.5,90.8333 114.5,91.5C 114.5,92.8333 114.5,94.1667 114.5,95.5C 114.833,96.1667 115.167,96.8333 115.5,97.5C 118.18,110.317 124.514,122.151 134.5,133C 140.451,134.799 145.451,137.966 149.5,142.5C 149.167,142.833 148.833,143.167 148.5,143.5C 144.589,139.38 139.923,136.547 134.5,135C 130.274,130.031 125.941,125.198 121.5,120.5C 115.757,127.654 110.257,134.988 105,142.5C 104.035,144.26 102.868,144.594 101.5,143.5C 107.425,135.32 113.591,127.32 120,119.5C 119.637,114.774 118.137,110.441 115.5,106.5C 115.768,104.901 115.434,103.568 114.5,102.5C 114.771,100.62 114.104,99.287 112.5,98.5C 113.354,96.965 113.354,95.6316 112.5,94.5C 112.492,91.4552 112.159,88.4552 111.5,85.5C 111.5,84.8333 111.5,84.1667 111.5,83.5C 111.392,81.4862 112.058,79.8195 113.5,78.5C 115.415,78.7845 117.081,78.4511 118.5,77.5 Z"/></g>
<g><path style="opacity:1" fill="#6b6b6b" d="M 115.5,97.5 C 115.167,96.8333 114.833,96.1667 114.5,95.5C 117.141,94.7369 119.808,94.5702 122.5,95C 119.97,95.3793 117.637,96.2126 115.5,97.5 Z"/></g>
<g><path style="opacity:1" fill="#747474" d="M 119.5,81.5 C 121.404,81.7376 122.738,82.7376 123.5,84.5C 122.647,89.3343 119.647,91.6676 114.5,91.5C 114.5,90.8333 114.5,90.1667 114.5,89.5C 120.416,89.7881 122.083,87.1214 119.5,81.5 Z"/></g>
<g><path style="opacity:1" fill="#e1e1e1" d="M 119.5,81.5 C 122.083,87.1214 120.416,89.7881 114.5,89.5C 113.565,86.8872 113.398,84.2205 114,81.5C 115.828,80.2475 117.661,80.2475 119.5,81.5 Z"/></g>
</svg>
