<?xml version="1.0" encoding="UTF-8"?>
<!DOCTYPE svg PUBLIC "-//W3C//DTD SVG 1.1//EN" "http://www.w3.org/Graphics/SVG/1.1/DTD/svg11.dtd">
<svg xmlns="http://www.w3.org/2000/svg" version="1.1" width="264px" height="159px" style="shape-rendering:geometricPrecision; text-rendering:geometricPrecision; image-rendering:optimizeQuality; fill-rule:evenodd; clip-rule:evenodd" xmlns:xlink="http://www.w3.org/1999/xlink">
<g><path style="opacity:1" fill="#ebebeb" d="M -0.5,-0.5 C 87.5,-0.5 175.5,-0.5 263.5,-0.5C 263.5,52.5 263.5,105.5 263.5,158.5C 175.5,158.5 87.5,158.5 -0.5,158.5C -0.5,105.5 -0.5,52.5 -0.5,-0.5 Z"/></g>
<g><path style="opacity:1" fill="#5c5c5c" d="M 136.5,15.5 C 131.36,16.4881 126.026,16.8214 120.5,16.5C 98.8231,16.167 77.1564,16.5003 55.5,17.5C 44.3152,45.1967 33.1485,72.8634 22,100.5C 22.0154,97.4302 22.6821,94.4302 24,91.5C 30.5544,76.3899 36.5544,61.0566 42,45.5C 46.3882,35.2288 50.8882,25.0622 55.5,15C 82.5048,14.4311 109.505,14.5978 136.5,15.5 Z"/></g>
<g><path style="opacity:1" fill="#6c6c6d" d="M 187.5,83.5 C 187.5,82.8333 187.5,82.1667 187.5,81.5C 190.167,81.5 192.833,81.5 195.5,81.5C 195.185,72.4585 194.352,63.4585 193,54.5C 192.329,55.2524 191.496,55.5858 190.5,55.5C 189.508,55.6716 188.842,55.3382 188.5,54.5C 191.244,54.7997 192.911,53.633 193.5,51C 191.878,42.569 190.878,34.069 190.5,25.5C 187.834,25.933 185.168,26.433 182.5,27C 180.936,29.9708 179.27,32.8041 177.5,35.5C 176.833,35.1667 176.167,34.8333 175.5,34.5C 177.334,32.4946 179.001,30.3279 180.5,28C 175.077,26.362 172.077,28.1953 171.5,33.5C 170.209,33.7373 169.209,33.404 168.5,32.5C 171.083,31.9085 171.083,31.2418 168.5,30.5C 167.287,30.7472 166.62,31.4138 166.5,32.5C 165.508,32.6716 164.842,32.3382 164.5,31.5C 165.738,31.19 165.738,30.69 164.5,30C 172.454,26.4637 180.787,24.6303 189.5,24.5C 189.5,20.8333 189.5,17.1667 189.5,13.5C 184.434,13.3399 179.434,13.8399 174.5,15C 167.795,17.4017 161.128,19.9017 154.5,22.5C 153.417,23.365 153.251,24.365 154,25.5C 157.62,26.2121 160.12,28.2121 161.5,31.5C 161.167,31.5 160.833,31.5 160.5,31.5C 158.425,28.7064 155.591,27.0397 152,26.5C 149.974,27.5202 148.641,29.1868 148,31.5C 147.26,32.7494 147.427,33.7494 148.5,34.5C 147.766,35.7079 147.433,37.0413 147.5,38.5C 144.396,37.9711 142.063,38.9711 140.5,41.5C 140.833,41.8333 141.167,42.1667 141.5,42.5C 143.432,41.6339 145.432,40.9672 147.5,40.5C 149.038,40.4534 150.038,41.1201 150.5,42.5C 148.596,42.7376 147.262,43.7376 146.5,45.5C 143.604,50.2739 140.437,54.9406 137,59.5C 135.382,66.4255 134.215,73.4255 133.5,80.5C 138.179,80.6658 142.845,80.4992 147.5,80C 149.325,78.5341 149.825,76.7008 149,74.5C 147.758,77.8553 145.591,79.1886 142.5,78.5C 145.126,77.7071 146.96,76.0405 148,73.5C 148.499,69.1794 148.666,64.8461 148.5,60.5C 149.616,67.6464 150.283,74.9797 150.5,82.5C 149.041,82.4326 147.708,82.7659 146.5,83.5C 147.014,85.3664 147.68,87.1997 148.5,89C 147.971,90.5589 147.304,92.0589 146.5,93.5C 147.002,94.521 147.668,94.6877 148.5,94C 150.607,92.7365 151.607,90.9032 151.5,88.5C 152.345,89.6715 153.011,91.0048 153.5,92.5C 150.385,94.2314 147.385,96.2314 144.5,98.5C 141.72,95.3881 138.386,93.0548 134.5,91.5C 133.499,99.3495 129.165,102.85 121.5,102C 118.131,99.6351 115.964,96.4685 115,92.5C 114.212,85.4436 114.545,78.4436 116,71.5C 115.868,77.4926 115.868,83.4926 116,89.5C 117.494,99.8657 122.494,102.199 131,96.5C 130.998,79.8406 133.331,63.5072 138,47.5C 138.415,49.2909 139.415,50.6243 141,51.5C 142.753,48.9952 144.253,46.3286 145.5,43.5C 142.638,42.6326 140.471,43.6326 139,46.5C 138.663,40.8447 140.33,35.8447 144,31.5C 144.333,33.0468 143.833,34.3801 142.5,35.5C 143.002,36.521 143.668,36.6877 144.5,36C 145.689,33.1217 147.022,30.2883 148.5,27.5C 145.64,20.7364 140.64,18.2364 133.5,20C 128.223,23.3708 125.057,28.2041 124,34.5C 121.237,46.4135 118.903,58.4135 117,70.5C 116.722,69.5842 116.222,68.9175 115.5,68.5C 115.833,67.8333 116.167,67.1667 116.5,66.5C 117.051,63.1933 117.384,59.8599 117.5,56.5C 114.07,56.8935 110.904,56.2268 108,54.5C 106.955,50.6564 105.455,46.9897 103.5,43.5C 103.957,41.4024 104.957,39.7358 106.5,38.5C 107.392,35.7079 109.392,34.3746 112.5,34.5C 112.611,33.8826 112.944,33.3826 113.5,33C 116.818,32.1208 120.152,31.2875 123.5,30.5C 126.205,20.6226 132.538,16.7893 142.5,19C 144.977,20.6427 147.31,22.476 149.5,24.5C 153.147,21.6738 157.147,19.5072 161.5,18C 147.661,17.8311 133.994,17.3311 120.5,16.5C 126.026,16.8214 131.36,16.4881 136.5,15.5C 147.838,15.6665 159.172,15.4999 170.5,15C 177.252,12.4873 184.252,11.3207 191.5,11.5C 191.5,13.1667 191.5,14.8333 191.5,16.5C 232.833,17.1667 232.833,17.8333 191.5,18.5C 192.886,36.1991 194.553,53.8658 196.5,71.5C 205.686,71.7965 214.353,73.9632 222.5,78C 216.966,76.5563 211.3,75.223 205.5,74C 202.518,73.502 199.518,73.3354 196.5,73.5C 197.329,76.4686 197.495,79.4686 197,82.5C 193.943,83.4505 190.777,83.7839 187.5,83.5 Z"/></g>
<g><path style="opacity:1" fill="#dedede" d="M 118.5,37.5 C 119.5,37.5 120.5,37.5 121.5,37.5C 120.378,50.0832 118.378,50.4165 115.5,38.5C 116.791,38.7373 117.791,38.404 118.5,37.5 Z"/></g>
<g><path style="opacity:1" fill="#e2e2e2" d="M 112.5,34.5 C 115.694,33.2424 119.027,32.5758 122.5,32.5C 122.5,33.5 122.5,34.5 122.5,35.5C 119.056,36.5911 115.556,37.5911 112,38.5C 110.596,38.4907 109.43,37.9907 108.5,37C 110.066,36.3918 111.4,35.5585 112.5,34.5 Z"/></g>
<g><path style="opacity:1" fill="#d3d3d3" d="M 168.5,32.5 C 167.833,32.5 167.167,32.5 166.5,32.5C 166.62,31.4138 167.287,30.7472 168.5,30.5C 171.083,31.2418 171.083,31.9085 168.5,32.5 Z"/></g>
<g><path style="opacity:1" fill="#dddddd" d="M 175.5,34.5 C 174.041,34.5674 172.708,34.2341 171.5,33.5C 172.077,28.1953 175.077,26.362 180.5,28C 179.001,30.3279 177.334,32.4946 175.5,34.5 Z"/></g>
<g><path style="opacity:1" fill="#e1e1e2" d="M 160.5,31.5 C 160.719,32.675 160.386,33.675 159.5,34.5C 155.803,33.1732 152.136,33.1732 148.5,34.5C 147.427,33.7494 147.26,32.7494 148,31.5C 148.641,29.1868 149.974,27.5202 152,26.5C 155.591,27.0397 158.425,28.7064 160.5,31.5 Z"/></g>
<g><path style="opacity:1" fill="#e5e5e6" d="M 188.5,54.5 C 188.752,51.6802 188.252,49.0135 187,46.5C 184.256,44.0163 182.256,41.0163 181,37.5C 180.184,36.1772 179.017,35.5106 177.5,35.5C 179.27,32.8041 180.936,29.9708 182.5,27C 185.168,26.433 187.834,25.933 190.5,25.5C 190.878,34.069 191.878,42.569 193.5,51C 192.911,53.633 191.244,54.7997 188.5,54.5 Z"/></g>
<g><path style="opacity:1" fill="#e8e8e8" d="M 164.5,31.5 C 163.5,31.5 162.5,31.5 161.5,31.5C 160.12,28.2121 157.62,26.2121 154,25.5C 153.251,24.365 153.417,23.365 154.5,22.5C 161.128,19.9017 167.795,17.4017 174.5,15C 179.434,13.8399 184.434,13.3399 189.5,13.5C 189.5,17.1667 189.5,20.8333 189.5,24.5C 180.787,24.6303 172.454,26.4637 164.5,30C 165.738,30.69 165.738,31.19 164.5,31.5 Z"/></g>
<g><path style="opacity:1" fill="#d5d5d6" d="M 147.5,38.5 C 149.728,39.3771 151.728,40.7104 153.5,42.5C 155.066,42.9763 155.4,43.643 154.5,44.5C 153.14,43.8201 151.807,43.1534 150.5,42.5C 150.038,41.1201 149.038,40.4534 147.5,40.5C 145.432,40.9672 143.432,41.6339 141.5,42.5C 141.167,42.1667 140.833,41.8333 140.5,41.5C 142.063,38.9711 144.396,37.9711 147.5,38.5 Z"/></g>
<g><path style="opacity:1" fill="#79797a" d="M 147.5,38.5 C 148.167,38.5 148.833,38.5 149.5,38.5C 151.544,39.5082 153.544,40.5082 155.5,41.5C 154.508,41.3284 153.842,41.6618 153.5,42.5C 151.728,40.7104 149.728,39.3771 147.5,38.5 Z"/></g>
<g><path style="opacity:1" fill="#dfdfdf" d="M 106.5,38.5 C 117.188,40.8989 119.188,46.5656 112.5,55.5C 109.007,54.0669 107.34,51.4002 107.5,47.5C 106.335,46.5039 105.668,45.1705 105.5,43.5C 106.046,41.8653 106.38,40.1986 106.5,38.5 Z"/></g>
<g><path style="opacity:1" fill="#747474" d="M 107.5,47.5 C 107.714,41.4005 109.881,40.4005 114,44.5C 115.583,49.1004 114.083,50.9337 109.5,50C 108.934,49.0053 108.267,48.172 107.5,47.5 Z"/></g>
<g><path style="opacity:1" fill="#e7e7e7" d="M 109.5,43.5 C 110.496,43.4142 111.329,43.7476 112,44.5C 112.798,46.2588 112.631,47.9255 111.5,49.5C 109.717,47.9775 109.051,45.9775 109.5,43.5 Z"/></g>
<g><path style="opacity:1" fill="#e1e1e1" d="M 117.5,48.5 C 118.497,48.4701 119.164,48.9701 119.5,50C 118.767,51.7659 118.433,53.5992 118.5,55.5C 117.5,55.5 116.5,55.5 115.5,55.5C 115.394,52.9214 116.061,50.588 117.5,48.5 Z"/></g>
<g><path style="opacity:1" fill="#303030" d="M 160.5,31.5 C 160.833,31.5 161.167,31.5 161.5,31.5C 162.5,31.5 163.5,31.5 164.5,31.5C 164.842,32.3382 165.508,32.6716 166.5,32.5C 167.167,32.5 167.833,32.5 168.5,32.5C 169.209,33.404 170.209,33.7373 171.5,33.5C 172.708,34.2341 174.041,34.5674 175.5,34.5C 176.167,34.8333 176.833,35.1667 177.5,35.5C 179.017,35.5106 180.184,36.1772 181,37.5C 182.256,41.0163 184.256,44.0163 187,46.5C 188.252,49.0135 188.752,51.6802 188.5,54.5C 188.842,55.3382 189.508,55.6716 190.5,55.5C 189.314,58.6061 189.314,61.7727 190.5,65C 189.047,70.4285 188.047,75.9285 187.5,81.5C 187.5,82.1667 187.5,82.8333 187.5,83.5C 186.748,89.0119 185.415,94.5119 183.5,100C 187.925,114.608 192.758,129.108 198,143.5C 198.781,144.944 198.614,146.277 197.5,147.5C 191.169,131.681 185.836,115.514 181.5,99C 184.08,90.3918 185.58,81.5584 186,72.5C 187.885,70.0859 188.552,67.4192 188,64.5C 187.465,66.2705 186.631,66.6039 185.5,65.5C 186.469,63.4272 187.135,61.2605 187.5,59C 185.087,54.0963 183.253,48.9297 182,43.5C 181.043,40.978 179.543,38.8114 177.5,37C 172.05,35.8416 166.717,34.8416 161.5,34C 165.579,36.0751 169.079,38.9084 172,42.5C 174.463,45.9646 177.296,49.1312 180.5,52C 180.167,52.1667 179.833,52.3333 179.5,52.5C 174.315,48.1489 169.649,43.3156 165.5,38C 160.382,35.9204 155.049,35.0871 149.5,35.5C 149.5,36.5 149.5,37.5 149.5,38.5C 148.833,38.5 148.167,38.5 147.5,38.5C 147.433,37.0413 147.766,35.7079 148.5,34.5C 152.136,33.1732 155.803,33.1732 159.5,34.5C 160.386,33.675 160.719,32.675 160.5,31.5 Z"/></g>
<g><path style="opacity:1" fill="#e6e6e6" d="M 146.5,45.5 C 146.739,47.4672 146.406,49.3005 145.5,51C 148.027,53.5894 149.027,56.7561 148.5,60.5C 148.666,64.8461 148.499,69.1794 148,73.5C 146.96,76.0405 145.126,77.7071 142.5,78.5C 145.591,79.1886 147.758,77.8553 149,74.5C 149.825,76.7008 149.325,78.5341 147.5,80C 142.845,80.4992 138.179,80.6658 133.5,80.5C 134.215,73.4255 135.382,66.4255 137,59.5C 140.437,54.9406 143.604,50.2739 146.5,45.5 Z"/></g>
<g><path style="opacity:1" fill="#e4e4e5" d="M 187.5,81.5 C 188.047,75.9285 189.047,70.4285 190.5,65C 189.314,61.7727 189.314,58.6061 190.5,55.5C 191.496,55.5858 192.329,55.2524 193,54.5C 194.352,63.4585 195.185,72.4585 195.5,81.5C 192.833,81.5 190.167,81.5 187.5,81.5 Z"/></g>
<g><path style="opacity:1" fill="#a0a0a0" d="M 90.5,65.5 C 95.0323,65.1818 99.3656,65.5151 103.5,66.5C 99.2984,66.1832 95.2984,66.5166 91.5,67.5C 87.8333,67.5 84.1667,67.5 80.5,67.5C 83.8333,66.8333 87.1667,66.1667 90.5,65.5 Z"/></g>
<g><path style="opacity:1" fill="#747474" d="M 91.5,67.5 C 95.2984,66.5166 99.2984,66.1832 103.5,66.5C 107.833,66.5 112.167,66.5 116.5,66.5C 116.167,67.1667 115.833,67.8333 115.5,68.5C 107.505,68.0645 99.5052,67.7312 91.5,67.5 Z"/></g>
<g><path style="opacity:1" fill="#6d6d6d" d="M 90.5,65.5 C 87.1667,66.1667 83.8333,66.8333 80.5,67.5C 65.9841,68.5082 54.8175,75.1749 47,87.5C 36.3524,103.772 29.019,121.439 25,140.5C 28.2062,114.588 39.0395,92.4213 57.5,74C 67.4589,67.1813 78.4589,64.348 90.5,65.5 Z"/></g>
<g><path style="opacity:1" fill="#e4e4e4" d="M 146.5,83.5 C 145.597,85.1374 145.597,86.9707 146.5,89C 145.815,91.5402 144.981,94.0402 144,96.5C 140.977,93.1553 137.311,90.8219 133,89.5C 132.503,86.854 132.336,84.1873 132.5,81.5C 137.619,80.8969 142.285,81.5636 146.5,83.5 Z"/></g>
<g><path style="opacity:1" fill="#333434" d="M 153.5,42.5 C 153.842,41.6618 154.508,41.3284 155.5,41.5C 156.609,42.29 157.942,42.79 159.5,43C 160.63,45.4281 162.13,47.5947 164,49.5C 164.565,54.0293 164.065,58.3626 162.5,62.5C 161.178,62.67 160.011,62.3366 159,61.5C 158.289,55.5239 156.122,50.1906 152.5,45.5C 151.205,48.2708 150.205,51.1041 149.5,54C 150.219,64.9038 151.385,75.7372 153,86.5C 161.71,106.303 164.877,126.969 162.5,148.5C 161.482,139.857 160.815,131.191 160.5,122.5C 159.96,118.358 159.294,114.358 158.5,110.5C 156.841,104.51 155.174,98.5104 153.5,92.5C 153.011,91.0048 152.345,89.6715 151.5,88.5C 151.167,86.5 150.833,84.5 150.5,82.5C 150.283,74.9797 149.616,67.6464 148.5,60.5C 149.027,56.7561 148.027,53.5894 145.5,51C 146.406,49.3005 146.739,47.4672 146.5,45.5C 147.262,43.7376 148.596,42.7376 150.5,42.5C 151.807,43.1534 153.14,43.8201 154.5,44.5C 155.4,43.643 155.066,42.9763 153.5,42.5 Z"/></g>
<g><path style="opacity:1" fill="#d1d1d1" d="M 157.5,44.5 C 160.71,47.5194 162.21,51.186 162,55.5C 161.586,55.9574 161.086,56.2907 160.5,56.5C 158.272,52.8135 157.272,48.8135 157.5,44.5 Z"/></g>
<g><path style="opacity:1" fill="#d5d5d5" d="M 148.5,45.5 C 150.465,45.9483 150.798,46.9483 149.5,48.5C 148.614,47.675 148.281,46.675 148.5,45.5 Z"/></g>
<g><path style="opacity:1" fill="#dddddd" d="M 150.5,82.5 C 150.833,84.5 151.167,86.5 151.5,88.5C 151.607,90.9032 150.607,92.7365 148.5,94C 147.668,94.6877 147.002,94.521 146.5,93.5C 147.304,92.0589 147.971,90.5589 148.5,89C 147.68,87.1997 147.014,85.3664 146.5,83.5C 147.708,82.7659 149.041,82.4326 150.5,82.5 Z"/></g>
<g><path style="opacity:1" fill="#707070" d="M 158.5,110.5 C 159.294,114.358 159.96,118.358 160.5,122.5C 156.442,132.735 149.442,135.235 139.5,130C 133.938,122.725 134.271,115.725 140.5,109C 146.953,105.325 152.786,106.158 158,111.5C 158.399,111.272 158.565,110.938 158.5,110.5 Z"/></g>
<g><path style="opacity:1" fill="#e1e1e1" d="M 143.5,108.5 C 155.436,107.364 160.269,112.697 158,124.5C 155.182,130.108 150.682,132.275 144.5,131C 138.223,128.193 135.723,123.36 137,116.5C 138.305,113.039 140.471,110.372 143.5,108.5 Z"/></g>
<g><path style="opacity:1" fill="#3b3b3b" d="M 153.5,114.5 C 156.923,120.297 155.589,124.631 149.5,127.5C 148.833,127.5 148.5,127.167 148.5,126.5C 152.956,123.928 154.29,120.261 152.5,115.5C 152.5,114.833 152.833,114.5 153.5,114.5 Z"/></g>
<g><path style="opacity:1" fill="#6b6b6b" d="M 153.5,114.5 C 152.833,114.5 152.5,114.833 152.5,115.5C 148.354,111.29 144.521,111.624 141,116.5C 139.412,123.01 141.912,126.343 148.5,126.5C 148.5,127.167 148.833,127.5 149.5,127.5C 142.168,128.678 138.668,125.344 139,117.5C 142.766,110.799 147.6,109.799 153.5,114.5 Z"/></g>
<g><path style="opacity:1" fill="#e5e5e5" d="M 152.5,115.5 C 154.29,120.261 152.956,123.928 148.5,126.5C 141.912,126.343 139.412,123.01 141,116.5C 144.521,111.624 148.354,111.29 152.5,115.5 Z"/></g>
</svg>
