<?xml version="1.0" encoding="UTF-8"?>
<!DOCTYPE svg PUBLIC "-//W3C//DTD SVG 1.1//EN" "http://www.w3.org/Graphics/SVG/1.1/DTD/svg11.dtd">
<svg xmlns="http://www.w3.org/2000/svg" version="1.1" width="260px" height="155px" style="shape-rendering:geometricPrecision; text-rendering:geometricPrecision; image-rendering:optimizeQuality; fill-rule:evenodd; clip-rule:evenodd" xmlns:xlink="http://www.w3.org/1999/xlink">
<g><path style="opacity:1" fill="#eaeaea" d="M -0.5,-0.5 C 86.1667,-0.5 172.833,-0.5 259.5,-0.5C 259.5,51.1667 259.5,102.833 259.5,154.5C 172.833,154.5 86.1667,154.5 -0.5,154.5C -0.5,102.833 -0.5,51.1667 -0.5,-0.5 Z"/></g>
<g><path style="opacity:1" fill="#353436" d="M 81.5,144.5 C 80.5655,143.432 80.2322,142.099 80.5,140.5C 81.2909,131.673 83.7909,123.34 88,115.5C 89.9134,99.3249 89.7467,83.1582 87.5,67C 88.5534,59.2955 89.8867,51.6288 91.5,44C 90.8494,36.6708 88.3494,35.8374 84,41.5C 82.0591,49.7383 80.3924,58.0716 79,66.5C 77.3484,65.6006 75.8484,64.6006 74.5,63.5C 74.5,61.1667 74.5,58.8333 74.5,56.5C 74.7683,53.8806 74.435,51.3806 73.5,49C 75.2113,47.5648 76.378,45.7314 77,43.5C 78.0224,38.7436 79.3557,34.077 81,29.5C 82.8021,21.2769 80.4688,19.6102 74,24.5C 72.094,31.6464 69.094,38.3131 65,44.5C 64.502,47.4816 64.3354,50.4816 64.5,53.5C 63.8365,55.0419 63.1698,56.7086 62.5,58.5C 61.8933,58.3764 61.56,58.0431 61.5,57.5C 62.6557,52.1435 62.6557,46.8102 61.5,41.5C 65.2599,37.302 67.4266,32.302 68,26.5C 71.0774,22.2635 72.7441,17.5969 73,12.5C 71.8668,10.7888 70.3668,10.2888 68.5,11C 64.062,14.4294 61.8954,18.9294 62,24.5C 55.9589,32.2338 52.4589,40.9005 51.5,50.5C 50.5233,47.7131 50.19,44.7131 50.5,41.5C 52.7454,35.835 55.5787,30.5017 59,25.5C 61.0205,15.057 58.0205,13.7236 50,21.5C 46.3333,27.1667 42.6667,32.8333 39,38.5C 38.3333,40.8333 38.3333,43.1667 39,45.5C 41.4301,48.1949 42.5968,51.3616 42.5,55C 42.0535,59.6199 41.0535,64.1199 39.5,68.5C 40.2306,73.948 41.0639,79.2813 42,84.5C 40.955,83.6266 40.1217,82.6266 39.5,81.5C 38.8969,77.7272 38.2302,74.0606 37.5,70.5C 37.0825,69.7784 36.4158,69.2784 35.5,69C 40.6033,62.9394 41.7699,56.106 39,48.5C 37.9593,46.6885 36.7927,46.3552 35.5,47.5C 34.5084,47.3284 33.8417,47.6618 33.5,48.5C 32.6993,50.0418 32.366,51.7085 32.5,53.5C 31.6554,54.6715 30.9887,56.0048 30.5,57.5C 29.2235,59.95 27.7235,62.2833 26,64.5C 25.3333,73.5 25.3333,82.5 26,91.5C 32.3333,98.5 38.6667,105.5 45,112.5C 46.3563,123.736 44.5229,134.402 39.5,144.5C 39.8223,138.845 40.989,133.179 43,127.5C 43.6667,122.833 43.6667,118.167 43,113.5C 37.6991,107.198 32.0325,101.198 26,95.5C 25.3333,94.1667 24.6667,92.8333 24,91.5C 23.3333,82.5 23.3333,73.5 24,64.5C 27.6726,60.1533 30.0059,55.1533 31,49.5C 31.9733,47.36 33.4733,45.6933 35.5,44.5C 36.1418,40.9771 37.3084,37.6438 39,34.5C 43.0571,29.4415 46.7238,24.1082 50,18.5C 53.0838,15.1127 56.7505,14.1127 61,15.5C 70.1044,5.14837 74.9377,6.81504 75.5,20.5C 80.4088,18.894 83.0755,20.7274 83.5,26C 81.3288,33.1792 79.1621,40.3458 77,47.5C 76.7095,51.8632 76.2095,56.1965 75.5,60.5C 75.8333,61.1667 76.1667,61.8333 76.5,62.5C 77.5152,58.284 79.0152,54.284 81,50.5C 81.1596,46.7125 81.8263,43.0458 83,39.5C 85.1114,35.0561 88.1114,34.3895 92,37.5C 92.9847,39.3659 93.4847,41.3659 93.5,43.5C 91.7125,51.6023 90.3792,59.769 89.5,68C 91.1578,81.4619 91.6578,94.9619 91,108.5C 90.532,115.05 88.532,121.05 85,126.5C 83.7232,132.497 82.5565,138.497 81.5,144.5 Z"/></g>
<g><path style="opacity:1" fill="#323134" d="M 204.5,70.5 C 203.549,69.0813 203.216,67.4147 203.5,65.5C 203.464,62.1788 204.131,59.0121 205.5,56C 204.615,52.4346 203.282,49.1013 201.5,46C 202.704,44.6472 203.371,42.9806 203.5,41C 204.401,36.5671 202.735,34.9004 198.5,36C 192.324,42.1223 190.991,49.1223 194.5,57C 193.333,57.5 192.5,58.3333 192,59.5C 191.889,64.8135 190.056,69.3135 186.5,73C 185.668,73.6877 185.002,73.521 184.5,72.5C 185.347,71.1552 186.513,70.1552 188,69.5C 191.638,57.6787 191.305,46.0121 187,34.5C 181.516,27.0179 175.349,20.1845 168.5,14C 166.527,13.5045 164.527,13.3379 162.5,13.5C 162.338,15.5273 162.505,17.5273 163,19.5C 168.031,25.6299 172.198,32.2966 175.5,39.5C 175.784,41.4147 175.451,43.0813 174.5,44.5C 172.161,36.159 167.995,28.8257 162,22.5C 161.178,20.2115 160.511,17.8782 160,15.5C 158.167,13.6667 156.333,11.8333 154.5,10C 153.101,9.40544 151.768,9.57211 150.5,10.5C 149.353,12.7649 149.186,15.0982 150,17.5C 153.895,23.7128 156.895,30.3795 159,37.5C 160.152,39.6487 161.652,41.482 163.5,43C 162.572,43.3879 161.905,44.0546 161.5,45C 161.704,49.9848 163.37,54.3182 166.5,58C 165.207,58.49 163.873,58.6567 162.5,58.5C 161.571,54.8732 160.737,51.2066 160,47.5C 155.539,38.2486 151.372,28.9153 147.5,19.5C 147.5,19.1667 147.5,18.8333 147.5,18.5C 147.648,16.0661 147.814,13.3995 148,10.5C 149.864,7.79283 152.364,6.9595 155.5,8C 157.351,9.68375 159.018,11.5171 160.5,13.5C 162.26,10.9788 164.593,10.1455 167.5,11C 174,16.1667 179.833,22 185,28.5C 188.289,32.7054 190.622,37.372 192,42.5C 193.938,36.8071 197.771,33.9737 203.5,34C 204,34.5 204.5,35 205,35.5C 205.027,42.475 205.86,49.3084 207.5,56C 206.053,60.7381 205.053,65.5714 204.5,70.5 Z"/></g>
<g><path style="opacity:1" fill="#555456" d="M 50.5,41.5 C 50.19,44.7131 50.5233,47.7131 51.5,50.5C 51.1062,51.9672 50.7728,53.4672 50.5,55C 50.7549,56.3261 51.4216,57.3261 52.5,58C 50.8659,58.4935 49.1992,58.6602 47.5,58.5C 49.1508,53.6716 49.8175,48.6716 49.5,43.5C 48.448,43.6495 47.448,43.4828 46.5,43C 47.9007,42.5899 49.234,42.0899 50.5,41.5 Z"/></g>
<g><path style="opacity:1" fill="#525153" d="M 175.5,39.5 C 179.806,40.0658 180.139,40.7325 176.5,41.5C 176.575,44.2062 176.908,46.8728 177.5,49.5C 176.539,51.2646 176.205,53.2646 176.5,55.5C 177.791,55.7373 178.791,55.404 179.5,54.5C 180.289,54.7828 180.956,55.2828 181.5,56C 179.527,56.4955 177.527,56.6621 175.5,56.5C 175.693,52.4338 175.36,48.4338 174.5,44.5C 175.451,43.0813 175.784,41.4147 175.5,39.5 Z"/></g>
<g><path style="opacity:1" fill="#767676" d="M 33.5,48.5 C 33.8417,47.6618 34.5084,47.3284 35.5,47.5C 38.2232,51.637 37.5565,55.3036 33.5,58.5C 32.5832,57.8728 31.5832,57.5394 30.5,57.5C 30.9887,56.0048 31.6554,54.6715 32.5,53.5C 32.6509,56.7181 33.4842,57.0515 35,54.5C 35.1667,53.5 35.3333,52.5 35.5,51.5C 35.3601,49.9704 34.6935,48.9704 33.5,48.5 Z"/></g>
<g><path style="opacity:1" fill="#e1e1e1" d="M 33.5,48.5 C 34.6935,48.9704 35.3601,49.9704 35.5,51.5C 35.3333,52.5 35.1667,53.5 35,54.5C 33.4842,57.0515 32.6509,56.7181 32.5,53.5C 32.366,51.7085 32.6993,50.0418 33.5,48.5 Z"/></g>
<g><path style="opacity:1" fill="#252326" d="M 177.5,49.5 C 178.537,50.9303 179.204,52.597 179.5,54.5C 178.791,55.404 177.791,55.7373 176.5,55.5C 176.205,53.2646 176.539,51.2646 177.5,49.5 Z"/></g>
<g><path style="opacity:1" fill="#8b8b8c" d="M 64.5,53.5 C 64.5,55.5 64.5,57.5 64.5,59.5C 63.0222,59.762 61.6888,59.4287 60.5,58.5C 60.6236,57.8933 60.9569,57.56 61.5,57.5C 61.56,58.0431 61.8933,58.3764 62.5,58.5C 63.1698,56.7086 63.8365,55.0419 64.5,53.5 Z"/></g>
<g><path style="opacity:1" fill="#39383a" d="M 147.5,18.5 C 147.5,18.8333 147.5,19.1667 147.5,19.5C 143.824,19.3192 141.824,20.9858 141.5,24.5C 143.039,30.5807 144.872,36.5807 147,42.5C 147.896,45.1404 149.396,47.307 151.5,49C 150.571,54.0179 151.571,58.6845 154.5,63C 149.271,69.3641 147.104,68.8641 148,61.5C 144.23,55.3966 140.897,49.0633 138,42.5C 136.611,40.7727 134.944,39.4394 133,38.5C 131.053,39.0439 130.22,40.3772 130.5,42.5C 132.703,49.0337 135.37,55.3671 138.5,61.5C 139.44,64.8025 140.273,68.1358 141,71.5C 141.047,83.5951 142.047,95.5951 144,107.5C 146.881,115.593 150.547,123.26 155,130.5C 156.116,135.132 157.616,139.632 159.5,144C 159.167,144.5 158.833,145 158.5,145.5C 153.745,131.328 147.911,117.661 141,104.5C 139.971,93.8578 139.304,83.1912 139,72.5C 138.697,67.2613 137.03,62.5947 134,58.5C 131.91,53.3058 130.077,47.9725 128.5,42.5C 128.974,38.185 131.307,36.3516 135.5,37C 137,38.5 138.5,40 140,41.5C 141.464,47.0827 143.964,52.0827 147.5,56.5C 148.594,58.3594 149.427,60.3594 150,62.5C 150.654,63.6956 151.154,63.6956 151.5,62.5C 150.635,59.3381 149.635,56.3381 148.5,53.5C 148.66,51.8008 148.494,50.1341 148,48.5C 144.776,40.8312 141.943,32.9978 139.5,25C 139.9,20.1039 142.566,17.9372 147.5,18.5 Z"/></g>
<g><path style="opacity:1" fill="#b5b5b6" d="M 148.5,53.5 C 149.635,56.3381 150.635,59.3381 151.5,62.5C 151.154,63.6956 150.654,63.6956 150,62.5C 149.427,60.3594 148.594,58.3594 147.5,56.5C 148.404,55.791 148.737,54.791 148.5,53.5 Z"/></g>
<g><path style="opacity:1" fill="#717172" d="M 74.5,56.5 C 74.5,58.8333 74.5,61.1667 74.5,63.5C 73.6236,63.6309 72.9569,63.2975 72.5,62.5C 73.0505,60.3432 73.7171,58.3432 74.5,56.5 Z"/></g>
<g><path style="opacity:1" fill="#5c5b5d" d="M 203.5,65.5 C 203.216,67.4147 203.549,69.0813 204.5,70.5C 204.81,73.7131 204.477,76.7131 203.5,79.5C 203.806,76.6146 203.473,73.9479 202.5,71.5C 202.205,69.2646 202.539,67.2646 203.5,65.5 Z"/></g>
<g><path style="opacity:1" fill="#8f8e8f" d="M 37.5,70.5 C 38.2302,74.0606 38.8969,77.7272 39.5,81.5C 38.448,81.6495 37.448,81.4828 36.5,81C 37.4558,77.6064 37.7892,74.1064 37.5,70.5 Z"/></g>
<g><path style="opacity:1" fill="#6d6d6d" d="M 61.5,90.5 C 57.4494,88.1453 53.116,86.312 48.5,85C 53.7713,84.6361 58.1046,86.4695 61.5,90.5 Z"/></g>
<g><path style="opacity:1" fill="#7d7d7d" d="M 61.5,90.5 C 64.7243,93.2184 67.8909,96.2184 71,99.5C 71.6667,100.167 71.6667,100.833 71,101.5C 67.2271,98.2365 64.0604,94.5698 61.5,90.5 Z"/></g>
<g><path style="opacity:1" fill="#717171" d="M 178.5,74.5 C 179.552,74.3505 180.552,74.5172 181.5,75C 171.129,81.8915 164.296,91.3915 161,103.5C 162.712,91.4202 168.545,81.7535 178.5,74.5 Z"/></g>
<g><path style="opacity:1" fill="#363537" d="M 202.5,71.5 C 203.473,73.9479 203.806,76.6146 203.5,79.5C 200.64,86.2244 197.473,92.891 194,99.5C 190.468,107.986 190.802,116.32 195,124.5C 198.5,130.833 202,137.167 205.5,143.5C 204.726,144.711 203.893,144.711 203,143.5C 199.333,136.5 195.667,129.5 192,122.5C 189.882,116.654 189.215,110.654 190,104.5C 193.139,96.8878 196.806,89.5545 201,82.5C 202.237,78.9399 202.737,75.2733 202.5,71.5 Z"/></g>
<g><path style="opacity:1" fill="#808080" d="M 80.5,140.5 C 80.2322,142.099 80.5655,143.432 81.5,144.5C 81.44,145.043 81.1067,145.376 80.5,145.5C 79.2121,143.701 79.2121,142.035 80.5,140.5 Z"/></g>
</svg>
