<?xml version="1.0" encoding="UTF-8"?>
<!DOCTYPE svg PUBLIC "-//W3C//DTD SVG 1.1//EN" "http://www.w3.org/Graphics/SVG/1.1/DTD/svg11.dtd">
<svg xmlns="http://www.w3.org/2000/svg" version="1.1" width="270px" height="223px" style="shape-rendering:geometricPrecision; text-rendering:geometricPrecision; image-rendering:optimizeQuality; fill-rule:evenodd; clip-rule:evenodd" xmlns:xlink="http://www.w3.org/1999/xlink">
<g><path style="opacity:1" fill="#fefefe" d="M -0.5,0.5 C -0.5,0.166667 -0.5,-0.166667 -0.5,-0.5C 89.5,-0.5 179.5,-0.5 269.5,-0.5C 269.5,73.8333 269.5,148.167 269.5,222.5C 268.5,222.5 267.5,222.5 266.5,222.5C 267.832,148.667 267.832,74.8333 266.5,1C 177.501,0.500002 88.5006,0.333336 -0.5,0.5 Z"/></g>
<g><path style="opacity:1" fill="#f4f4f4" d="M -0.5,0.5 C 88.5006,0.333336 177.501,0.500002 266.5,1C 267.832,74.8333 267.832,148.667 266.5,222.5C 177.5,222.5 88.5,222.5 -0.5,222.5C -0.5,148.5 -0.5,74.5 -0.5,0.5 Z"/></g>
<g><path style="opacity:1" fill="#323133" d="M 132.5,87.5 C 132.5,86.8333 132.167,86.5 131.5,86.5C 130.027,84.6053 128.36,82.9387 126.5,81.5C 122.805,77.4741 119.138,73.4741 115.5,69.5C 114.71,68.5987 113.71,67.9321 112.5,67.5C 111.738,65.7376 110.404,64.7376 108.5,64.5C 106.748,64.4176 105.748,65.2509 105.5,67C 106.315,68.9802 107.648,70.4802 109.5,71.5C 114.833,77.5 120.5,83.1667 126.5,88.5C 127.812,90.4788 129.479,92.1455 131.5,93.5C 131.167,93.8333 130.833,94.1667 130.5,94.5C 129.3,93.4688 127.966,92.6355 126.5,92C 122.496,87.1371 118.163,82.6371 113.5,78.5C 113.167,77.5 112.5,76.8333 111.5,76.5C 104.86,70.1944 98.193,63.8611 91.5,57.5C 90.791,56.596 89.791,56.2627 88.5,56.5C 87.3126,54.0246 85.3126,53.0246 82.5,53.5C 78.857,54.461 78.5237,56.1276 81.5,58.5C 81.8333,59.1667 82.1667,59.8333 82.5,60.5C 82.3284,61.4916 82.6618,62.1583 83.5,62.5C 95.8771,73.8663 107.21,85.5329 117.5,97.5C 111.183,92.5156 105.183,87.1823 99.5,81.5C 99.1667,80.5 98.5,79.8333 97.5,79.5C 90.1028,72.107 83.1028,64.4403 76.5,56.5C 76.1583,55.6618 75.4916,55.3284 74.5,55.5C 73.4556,51.3942 71.1223,50.0608 67.5,51.5C 64.5512,53.265 63.8846,55.5983 65.5,58.5C 72.0242,65.8331 77.8576,73.8331 83,82.5C 91.0138,89.8484 98.3471,97.8484 105,106.5C 105.688,107.332 105.521,107.998 104.5,108.5C 96.2129,99.0428 87.7129,89.7095 79,80.5C 76.8218,76.8057 74.6552,73.1391 72.5,69.5C 71.7095,68.5987 70.7095,67.9321 69.5,67.5C 68.8716,64.0451 66.8716,62.8785 63.5,64C 62.7476,64.6708 62.4142,65.5041 62.5,66.5C 61.3065,66.9704 60.6399,67.9704 60.5,69.5C 60.5195,70.7261 60.8529,71.7261 61.5,72.5C 64.1284,79.0901 67.2951,85.4235 71,91.5C 83,108.833 95,126.167 107,143.5C 107.49,144.793 107.657,146.127 107.5,147.5C 99.3593,145.964 91.3593,143.798 83.5,141C 77.8333,140.333 72.1667,140.333 66.5,141C 65.9558,141.717 65.2891,142.217 64.5,142.5C 61.8259,143.499 61.1592,145.166 62.5,147.5C 62.33,148.822 62.6634,149.989 63.5,151C 65.6775,152.202 68.0108,152.702 70.5,152.5C 71.6715,153.345 73.0048,154.011 74.5,154.5C 76.4352,155.15 78.4352,155.483 80.5,155.5C 81.5676,156.434 82.901,156.768 84.5,156.5C 85.4959,156.586 86.3292,156.252 87,155.5C 87.4828,156.448 87.6495,157.448 87.5,158.5C 99.1747,162.672 110.841,166.839 122.5,171C 132.055,172.977 141.721,173.977 151.5,174C 155.966,176.472 159.799,179.638 163,183.5C 164.301,185.402 164.968,187.402 165,189.5C 161.777,183.277 156.943,178.777 150.5,176C 131.956,176.423 114.456,172.256 98,163.5C 97.228,163.645 96.5613,163.978 96,164.5C 93.5919,172.556 91.0919,180.556 88.5,188.5C 88.1667,188 87.8333,187.5 87.5,187C 89.429,178.653 91.5956,170.486 94,162.5C 83.6629,158.832 73.1629,155.665 62.5,153C 59.9035,150.683 59.0701,147.85 60,144.5C 61.8734,142.291 64.04,140.458 66.5,139C 72.1667,138.333 77.8333,138.333 83.5,139C 88.733,140.809 94.0663,142.309 99.5,143.5C 101,143.547 102,142.881 102.5,141.5C 88.8385,122.851 76.1718,103.517 64.5,83.5C 59.8682,83.0359 56.0349,81.0359 53,77.5C 49.6667,70.8333 46.3333,64.1667 43,57.5C 38.7335,52.2834 33.2335,49.6167 26.5,49.5C 32.6427,63.4284 37.476,77.7617 41,92.5C 46.6288,103.084 51.1288,114.084 54.5,125.5C 49.2766,146.452 43.11,167.118 36,187.5C 33.6902,189.918 33.0236,189.252 34,185.5C 41.6478,166.061 47.8145,146.227 52.5,126C 48.9928,114.488 44.4928,103.321 39,92.5C 36.7916,79.1096 32.125,66.7763 25,55.5C 23.4608,51.1948 24.7941,48.5282 29,47.5C 36.3478,48.6678 42.0144,52.3345 46,58.5C 48.5151,64.6991 51.5151,70.6991 55,76.5C 56.439,78.448 58.2723,79.7814 60.5,80.5C 61.1667,80.1667 61.8333,79.8333 62.5,79.5C 58.4182,73.2033 58.5848,67.2033 63,61.5C 63.3333,58.1667 63.6667,54.8333 64,51.5C 66.2103,48.7104 69.0437,47.877 72.5,49C 74.3333,50.8333 76.1667,52.6667 78,54.5C 82.3788,49.3275 86.8788,49.3275 91.5,54.5C 100.293,46.6066 109.626,39.4399 119.5,33C 124.03,31.7726 128.03,32.6059 131.5,35.5C 134.224,32.889 137.391,31.2223 141,30.5C 147.575,30.7328 149.742,33.8994 147.5,40C 151.785,43.7363 152.619,48.2363 150,53.5C 147.64,56.3603 145.473,59.3603 143.5,62.5C 145.193,63.2283 146.693,64.2283 148,65.5C 148.667,68.1667 148.667,70.8333 148,73.5C 145.047,78.5706 142.214,83.7373 139.5,89C 154.078,100.32 166.245,113.82 176,129.5C 181.699,134.865 187.033,140.531 192,146.5C 200.753,159.674 209.753,172.674 219,185.5C 219.667,186.5 219.667,187.5 219,188.5C 209.26,176.023 200.26,163.023 192,149.5C 180.138,137.419 169.471,124.419 160,110.5C 152.16,101.152 142.993,93.4858 132.5,87.5 Z"/></g>
<g><path style="opacity:1" fill="#e2e2e2" d="M 108.5,64.5 C 110.404,64.7376 111.738,65.7376 112.5,67.5C 110.71,70.047 109.044,69.7137 107.5,66.5C 107.863,65.8165 108.196,65.1499 108.5,64.5 Z"/></g>
<g><path style="opacity:1" fill="#e4e4e5" d="M 69.5,67.5 C 68.9283,70.2436 67.2617,71.0769 64.5,70C 63.695,68.8873 63.0283,67.7206 62.5,66.5C 62.4142,65.5041 62.7476,64.6708 63.5,64C 66.8716,62.8785 68.8716,64.0451 69.5,67.5 Z"/></g>
<g><path style="opacity:1" fill="#686868" d="M 88.5,56.5 C 89.791,56.2627 90.791,56.596 91.5,57.5C 89.2933,60.0666 86.6266,61.7333 83.5,62.5C 82.6618,62.1583 82.3284,61.4916 82.5,60.5C 85.8784,61.1089 87.8784,59.7756 88.5,56.5 Z"/></g>
<g><path style="opacity:1" fill="#7b7b7b" d="M 67.5,51.5 C 66.5272,56.0057 68.1939,58.1724 72.5,58C 73.756,57.5831 74.4226,56.7498 74.5,55.5C 75.4916,55.3284 76.1583,55.6618 76.5,56.5C 73.0425,60.4197 69.5425,60.4197 66,56.5C 65.5357,57.0944 65.369,57.7611 65.5,58.5C 63.8846,55.5983 64.5512,53.265 67.5,51.5 Z"/></g>
<g><path style="opacity:1" fill="#e7e7e7" d="M 82.5,53.5 C 85.3126,53.0246 87.3126,54.0246 88.5,56.5C 87.8784,59.7756 85.8784,61.1089 82.5,60.5C 82.1667,59.8333 81.8333,59.1667 81.5,58.5C 81.366,56.7085 81.6993,55.0418 82.5,53.5 Z"/></g>
<g><path style="opacity:1" fill="#656467" d="M 82.5,53.5 C 81.6993,55.0418 81.366,56.7085 81.5,58.5C 78.5237,56.1276 78.857,54.461 82.5,53.5 Z"/></g>
<g><path style="opacity:1" fill="#e9e9e9" d="M 74.5,55.5 C 74.4226,56.7498 73.756,57.5831 72.5,58C 68.1939,58.1724 66.5272,56.0057 67.5,51.5C 71.1223,50.0608 73.4556,51.3942 74.5,55.5 Z"/></g>
<g><path style="opacity:1" fill="#ececec" d="M 143.5,42.5 C 148.989,42.504 150.822,45.1707 149,50.5C 142.734,60.6973 135.734,70.364 128,79.5C 124.64,77.6397 122.14,74.973 120.5,71.5C 127.934,61.6209 135.601,51.9543 143.5,42.5 Z"/></g>
<g><path style="opacity:1" fill="#ededed" d="M 119.5,34.5 C 122.518,34.3354 125.518,34.502 128.5,35C 129.517,36.0495 129.684,37.2161 129,38.5C 120.154,46.6802 111.987,55.5135 104.5,65C 103.092,65.3152 101.759,64.9819 100.5,64C 98.1245,61.2964 95.7912,58.6298 93.5,56C 101.462,47.8609 110.129,40.6942 119.5,34.5 Z"/></g>
<g><path style="opacity:1" fill="#ebebeb" d="M 137.5,32.5 C 140.685,32.0196 143.519,32.6863 146,34.5C 146.667,35.8333 146.667,37.1667 146,38.5C 136.919,47.5768 128.586,57.2435 121,67.5C 120.163,69.0074 118.996,69.5074 117.5,69C 115.129,66.294 112.463,63.9606 109.5,62C 117.969,51.3636 127.303,41.5302 137.5,32.5 Z"/></g>
<g><path style="opacity:1" fill="#eaeaea" d="M 141.5,65.5 C 143.144,65.2865 144.644,65.6198 146,66.5C 145.892,74.8065 142.726,81.8065 136.5,87.5C 133.318,86.412 131.318,84.2454 130.5,81C 133.802,75.5577 137.469,70.391 141.5,65.5 Z"/></g>
<g><path style="opacity:1" fill="#6e6d6e" d="M 62.5,66.5 C 63.0283,67.7206 63.695,68.8873 64.5,70C 67.2617,71.0769 68.9283,70.2436 69.5,67.5C 70.7095,67.9321 71.7095,68.5987 72.5,69.5C 69.7719,71.2881 66.7719,71.7881 63.5,71C 61.8771,67.946 61.2105,68.446 61.5,72.5C 60.8529,71.7261 60.5195,70.7261 60.5,69.5C 60.6399,67.9704 61.3065,66.9704 62.5,66.5 Z"/></g>
<g><path style="opacity:1" fill="#626162" d="M 108.5,64.5 C 108.196,65.1499 107.863,65.8165 107.5,66.5C 109.044,69.7137 110.71,70.047 112.5,67.5C 113.71,67.9321 114.71,68.5987 115.5,69.5C 113.302,69.8751 111.302,70.5418 109.5,71.5C 107.648,70.4802 106.315,68.9802 105.5,67C 105.748,65.2509 106.748,64.4176 108.5,64.5 Z"/></g>
<g><path style="opacity:1" fill="#e1e1e1" d="M 115.5,69.5 C 119.138,73.4741 122.805,77.4741 126.5,81.5C 126.5,83.1667 126.5,84.8333 126.5,86.5C 128.167,86.5 129.833,86.5 131.5,86.5C 132.167,86.5 132.5,86.8333 132.5,87.5C 130.265,87.2053 128.265,87.5386 126.5,88.5C 120.5,83.1667 114.833,77.5 109.5,71.5C 111.302,70.5418 113.302,69.8751 115.5,69.5 Z"/></g>
<g><path style="opacity:1" fill="#757575" d="M 90.5,76.5 C 91.675,76.281 92.675,76.6143 93.5,77.5C 90.5334,78.4153 88.7001,80.4153 88,83.5C 87.6826,80.793 88.5159,78.4597 90.5,76.5 Z"/></g>
<g><path style="opacity:1" fill="#7e7d7e" d="M 107.5,75.5 C 108.239,75.369 108.906,75.5357 109.5,76C 107.92,78.2951 105.92,79.6284 103.5,80C 105.041,78.6288 106.375,77.1288 107.5,75.5 Z"/></g>
<g><path style="opacity:1" fill="#747474" d="M 111.5,76.5 C 112.5,76.8333 113.167,77.5 113.5,78.5C 112.234,80.9651 110.234,82.1317 107.5,82C 110.215,81.1253 111.548,79.2919 111.5,76.5 Z"/></g>
<g><path style="opacity:1" fill="#656565" d="M 92.5,80.5 C 94.9752,80.7467 94.9752,81.4134 92.5,82.5C 91.537,82.0302 91.537,81.3635 92.5,80.5 Z"/></g>
<g><path style="opacity:1" fill="#999899" d="M 126.5,81.5 C 128.36,82.9387 130.027,84.6053 131.5,86.5C 129.833,86.5 128.167,86.5 126.5,86.5C 126.5,84.8333 126.5,83.1667 126.5,81.5 Z"/></g>
<g><path style="opacity:1" fill="#7d7d7d" d="M 97.5,79.5 C 98.5,79.8333 99.1667,80.5 99.5,81.5C 97.9062,82.983 96.2395,84.483 94.5,86C 93.365,86.7494 92.365,86.5827 91.5,85.5C 94.5826,84.418 96.5826,82.418 97.5,79.5 Z"/></g>
<g><path style="opacity:1" fill="#5f5f5f" d="M 79.5,88.5 C 80.2389,88.369 80.9056,88.5357 81.5,89C 79.9588,90.5793 78.7922,92.4127 78,94.5C 77.5906,92.3049 78.0906,90.3049 79.5,88.5 Z"/></g>
<g><path style="opacity:1" fill="#797979" d="M 85.5,91.5 C 86.2389,91.369 86.9056,91.5357 87.5,92C 86.0237,95.7315 83.357,97.3981 79.5,97C 82.5475,96.2715 84.5475,94.4382 85.5,91.5 Z"/></g>
<g><path style="opacity:1" fill="#ec7919" d="M 119.5,126.5 C 118.596,125.791 118.263,124.791 118.5,123.5C 119.541,118.997 121.041,114.664 123,110.5C 124.351,112.019 125.851,113.352 127.5,114.5C 134.692,108.615 142.692,107.115 151.5,110C 159.16,114.758 161.66,121.592 159,130.5C 153.126,149.662 140.292,159.495 120.5,160C 111.271,154.688 108.271,146.855 111.5,136.5C 112.833,136.5 114.167,136.5 115.5,136.5C 112.99,152.844 119.323,158.344 134.5,153C 148.407,145.686 154.907,134.186 154,118.5C 150.212,113.847 145.378,112.347 139.5,114C 136.671,115.247 134.005,116.747 131.5,118.5C 132.624,119.914 133.624,121.414 134.5,123C 129.467,124.106 124.467,125.273 119.5,126.5 Z"/></g>
<g><path style="opacity:1" fill="#f0b989" d="M 118.5,123.5 C 118.263,124.791 118.596,125.791 119.5,126.5C 118.528,127.751 117.861,127.418 117.5,125.5C 117.543,124.584 117.876,123.917 118.5,123.5 Z"/></g>
<g><path style="opacity:1" fill="#eaeaea" d="M 70.5,152.5 C 68.0108,152.702 65.6775,152.202 63.5,151C 62.6634,149.989 62.33,148.822 62.5,147.5C 65.7252,144.045 69.2252,143.711 73,146.5C 73.4955,148.473 73.6621,150.473 73.5,152.5C 72.5,152.5 71.5,152.5 70.5,152.5 Z"/></g>
<g><path style="opacity:1" fill="#757576" d="M 64.5,142.5 C 73.31,141.975 76.6434,145.975 74.5,154.5C 73.0048,154.011 71.6715,153.345 70.5,152.5C 71.5,152.5 72.5,152.5 73.5,152.5C 73.6621,150.473 73.4955,148.473 73,146.5C 69.2252,143.711 65.7252,144.045 62.5,147.5C 61.1592,145.166 61.8259,143.499 64.5,142.5 Z"/></g>
<g><path style="opacity:1" fill="#717171" d="M 86.5,146.5 C 88.2029,148.851 88.7029,151.518 88,154.5C 87.1785,151.883 86.6785,149.216 86.5,146.5 Z"/></g>
<g><path style="opacity:1" fill="#7b7a7b" d="M 84.5,156.5 C 82.901,156.768 81.5676,156.434 80.5,155.5C 81.5862,155.38 82.2528,154.713 82.5,153.5C 83,151.5 83.5,149.5 84,147.5C 84.498,150.482 84.6646,153.482 84.5,156.5 Z"/></g>
</svg>
