<?xml version="1.0" encoding="UTF-8"?>
<!DOCTYPE svg PUBLIC "-//W3C//DTD SVG 1.1//EN" "http://www.w3.org/Graphics/SVG/1.1/DTD/svg11.dtd">
<svg xmlns="http://www.w3.org/2000/svg" version="1.1" width="257px" height="153px" style="shape-rendering:geometricPrecision; text-rendering:geometricPrecision; image-rendering:optimizeQuality; fill-rule:evenodd; clip-rule:evenodd" xmlns:xlink="http://www.w3.org/1999/xlink">
<g><path style="opacity:1" fill="#ebebeb" d="M -0.5,-0.5 C 85.1667,-0.5 170.833,-0.5 256.5,-0.5C 256.5,50.5 256.5,101.5 256.5,152.5C 170.833,152.5 85.1667,152.5 -0.5,152.5C -0.5,101.5 -0.5,50.5 -0.5,-0.5 Z"/></g>
<g><path style="opacity:1" fill="#878787" d="M 131.5,55.5 C 131.5,55.8333 131.5,56.1667 131.5,56.5C 130.222,56.2178 129.222,55.5511 128.5,54.5C 128.167,39.1522 128.501,23.8189 129.5,8.5C 130.167,24.3281 130.833,39.9948 131.5,55.5 Z"/></g>
<g><path style="opacity:1" fill="#232524" d="M 149.5,8.5 C 150.485,12.6344 150.818,16.9677 150.5,21.5C 149.518,24.9619 149.185,28.6286 149.5,32.5C 149.5,35.5 149.5,38.5 149.5,41.5C 148.508,34.3524 148.175,27.0191 148.5,19.5C 148.185,15.6286 148.518,11.9619 149.5,8.5 Z"/></g>
<g><path style="opacity:1" fill="#8b8b8b" d="M 149.5,8.5 C 150.167,7.16667 150.833,7.16667 151.5,8.5C 152.388,17.4363 152.055,21.7696 150.5,21.5C 150.818,16.9677 150.485,12.6344 149.5,8.5 Z"/></g>
<g><path style="opacity:1" fill="#4c4c4c" d="M 151.5,8.5 C 152.1,23.995 152.1,39.6617 151.5,55.5C 150.833,47.8333 150.167,40.1667 149.5,32.5C 149.185,28.6286 149.518,24.9619 150.5,21.5C 152.055,21.7696 152.388,17.4363 151.5,8.5 Z"/></g>
<g><path style="opacity:1" fill="#4e4f4e" d="M 148.5,19.5 C 148.175,27.0191 148.508,34.3524 149.5,41.5C 149.664,44.1873 149.497,46.854 149,49.5C 147.715,49.4021 146.549,49.4021 145.5,49.5C 145.783,48.7109 146.283,48.0442 147,47.5C 147.17,37.991 147.67,28.6577 148.5,19.5 Z"/></g>
<g><path style="opacity:1" fill="#5e5e5e" d="M 89.5,52.5 C 88.5489,53.9187 88.2155,55.5853 88.5,57.5C 87.6981,56.0484 87.1981,54.3817 87,52.5C 86.3333,37.1667 86.3333,21.8333 87,6.5C 87.2261,21.926 88.0595,37.2593 89.5,52.5 Z"/></g>
<g><path style="opacity:1" fill="#696969" d="M 149.5,32.5 C 150.167,40.1667 150.833,47.8333 151.5,55.5C 151.846,58.6021 151.179,61.4355 149.5,64C 143.806,67.1788 138.139,70.3454 132.5,73.5C 132.5,73.1667 132.5,72.8333 132.5,72.5C 137.853,69.0667 143.353,65.7334 149,62.5C 149.667,58.5 149.667,54.5 149,50.5C 143.406,54.0479 137.573,57.2146 131.5,60C 125.796,60.6873 120.13,60.5207 114.5,59.5C 119.662,58.9536 124.995,58.7869 130.5,59C 132.5,58 134.5,57 136.5,56C 134.803,55.6155 133.137,55.7822 131.5,56.5C 131.5,56.1667 131.5,55.8333 131.5,55.5C 136.162,53.5026 140.829,51.5026 145.5,49.5C 146.549,49.4021 147.715,49.4021 149,49.5C 149.497,46.854 149.664,44.1873 149.5,41.5C 149.5,38.5 149.5,35.5 149.5,32.5 Z"/></g>
<g><path style="opacity:1" fill="#e8e8e8" d="M 132.5,72.5 C 131.833,72.5 131.167,72.5 130.5,72.5C 117.41,71.8113 104.41,70.3113 91.5,68C 90.9011,66.3775 90.2344,64.8775 89.5,63.5C 89.5,61.1667 89.5,58.8333 89.5,56.5C 91.1667,56.5 92.8333,56.5 94.5,56.5C 95.5676,57.4345 96.901,57.7678 98.5,57.5C 102.481,58.0209 106.481,58.3542 110.5,58.5C 111.568,59.4345 112.901,59.7678 114.5,59.5C 120.13,60.5207 125.796,60.6873 131.5,60C 137.573,57.2146 143.406,54.0479 149,50.5C 149.667,54.5 149.667,58.5 149,62.5C 143.353,65.7334 137.853,69.0667 132.5,72.5 Z"/></g>
<g><path style="opacity:1" fill="#aaaaaa" d="M 131.5,56.5 C 133.137,55.7822 134.803,55.6155 136.5,56C 134.5,57 132.5,58 130.5,59C 124.995,58.7869 119.662,58.9536 114.5,59.5C 112.901,59.7678 111.568,59.4345 110.5,58.5C 111.552,58.6495 112.552,58.4828 113.5,58C 108.368,56.5829 103.368,56.4163 98.5,57.5C 96.901,57.7678 95.5676,57.4345 94.5,56.5C 94.5064,55.5826 93.5064,55.0826 91.5,55C 103.393,55.2841 115.226,56.4507 127,58.5C 128.876,58.4753 130.376,57.8086 131.5,56.5 Z"/></g>
<g><path style="opacity:1" fill="#737473" d="M 98.5,57.5 C 103.368,56.4163 108.368,56.5829 113.5,58C 112.552,58.4828 111.552,58.6495 110.5,58.5C 106.481,58.3542 102.481,58.0209 98.5,57.5 Z"/></g>
<g><path style="opacity:1" fill="#595959" d="M 90.5,52.5 C 101.49,53.8317 112.49,55.1651 123.5,56.5C 125.64,56.4439 127.306,55.7773 128.5,54.5C 129.222,55.5511 130.222,56.2178 131.5,56.5C 130.376,57.8086 128.876,58.4753 127,58.5C 115.226,56.4507 103.393,55.2841 91.5,55C 93.5064,55.0826 94.5064,55.5826 94.5,56.5C 92.8333,56.5 91.1667,56.5 89.5,56.5C 89.4326,55.0413 89.7659,53.7079 90.5,52.5 Z"/></g>
<g><path style="opacity:1" fill="#373737" d="M 89.5,52.5 C 89.8333,52.5 90.1667,52.5 90.5,52.5C 89.7659,53.7079 89.4326,55.0413 89.5,56.5C 89.5,58.8333 89.5,61.1667 89.5,63.5C 89.5,64.8333 89.5,66.1667 89.5,67.5C 88.5206,64.3752 88.1872,61.0419 88.5,57.5C 88.2155,55.5853 88.5489,53.9187 89.5,52.5 Z"/></g>
<g><path style="opacity:1" fill="#e3e3e3" d="M 127.5,75.5 C 128.693,75.9704 129.36,76.9704 129.5,78.5C 129.047,81.8892 128.38,85.2225 127.5,88.5C 124.185,89.5527 120.852,89.5527 117.5,88.5C 115.852,86.5441 115.185,84.2108 115.5,81.5C 120.35,81.0751 124.35,79.0751 127.5,75.5 Z"/></g>
<g><path style="opacity:1" fill="#626262" d="M 89.5,63.5 C 90.2344,64.8775 90.9011,66.3775 91.5,68C 104.41,70.3113 117.41,71.8113 130.5,72.5C 128.708,73.3091 126.708,73.8091 124.5,74C 125.737,74.2321 126.737,74.7321 127.5,75.5C 124.35,79.0751 120.35,81.0751 115.5,81.5C 115.185,84.2108 115.852,86.5441 117.5,88.5C 116.508,88.3284 115.842,88.6618 115.5,89.5C 114.778,89.0825 114.278,88.4158 114,87.5C 113.667,88.5 113.333,89.5 113,90.5C 112.272,87.7695 112.438,85.1029 113.5,82.5C 112.311,81.5713 110.978,81.238 109.5,81.5C 109.5,83.1667 109.5,84.8333 109.5,86.5C 109.167,86.5 108.833,86.5 108.5,86.5C 108.66,84.8008 108.494,83.1341 108,81.5C 104.02,78.9822 102.52,75.3155 103.5,70.5C 100.15,70.665 96.8168,70.4983 93.5,70C 91.6803,69.7996 90.347,68.9663 89.5,67.5C 89.5,66.1667 89.5,64.8333 89.5,63.5 Z"/></g>
<g><path style="opacity:1" fill="#e6e6e6" d="M 105.5,71.5 C 110.866,72.2834 116.2,73.2834 121.5,74.5C 123.087,76.4461 122.754,77.9461 120.5,79C 115.85,80.9094 111.184,80.9094 106.5,79C 105.565,76.6194 105.232,74.1194 105.5,71.5 Z"/></g>
<g><path style="opacity:1" fill="#dedede" d="M 115.5,89.5 C 116.5,89.5 117.5,89.5 118.5,89.5C 118.599,97.3558 116.932,104.689 113.5,111.5C 112.672,105.013 112.172,98.346 112,91.5C 111.667,95.5 111.333,99.5 111,103.5C 110.826,98.3165 110.326,93.3165 109.5,88.5C 109.5,87.8333 109.5,87.1667 109.5,86.5C 109.5,84.8333 109.5,83.1667 109.5,81.5C 110.978,81.238 112.311,81.5713 113.5,82.5C 112.438,85.1029 112.272,87.7695 113,90.5C 113.333,89.5 113.667,88.5 114,87.5C 114.278,88.4158 114.778,89.0825 115.5,89.5 Z"/></g>
<g><path style="opacity:1" fill="#848484" d="M 107.5,89.5 C 107.842,88.6618 108.508,88.3284 109.5,88.5C 110.326,93.3165 110.826,98.3165 111,103.5C 111.333,99.5 111.667,95.5 112,91.5C 112.172,98.346 112.672,105.013 113.5,111.5C 113.5,112.167 113.5,112.833 113.5,113.5C 112.596,114.209 112.263,115.209 112.5,116.5C 111.5,116.5 110.5,116.5 109.5,116.5C 109.806,113.615 109.473,110.948 108.5,108.5C 108.823,101.978 108.49,95.6446 107.5,89.5 Z"/></g>
<g><path style="opacity:1" fill="#2f2f2f" d="M 130.5,72.5 C 131.167,72.5 131.833,72.5 132.5,72.5C 132.5,72.8333 132.5,73.1667 132.5,73.5C 132.335,76.5184 132.502,79.5184 133,82.5C 135.517,84.4573 136.684,87.1239 136.5,90.5C 137.765,98.4484 138.599,106.448 139,114.5C 141.49,108.978 145.657,106.478 151.5,107C 152,107.5 152.5,108 153,108.5C 152.4,113.836 151.4,119.169 150,124.5C 145.258,128.454 140.424,132.287 135.5,136C 127.548,139.407 119.215,141.74 110.5,143C 107.377,144.882 104.711,147.215 102.5,150C 101.668,150.688 101.002,150.521 100.5,149.5C 103.074,145.758 106.407,142.925 110.5,141C 117.61,139.74 124.61,138.073 131.5,136C 137.09,131.955 142.59,127.788 148,123.5C 149.149,120.607 149.649,117.607 149.5,114.5C 151.423,112.799 151.757,110.799 150.5,108.5C 149.313,107.347 148.313,107.347 147.5,108.5C 143.789,109.898 141.456,112.565 140.5,116.5C 138.269,117.903 135.936,119.07 133.5,120C 124.983,120.132 116.483,119.632 108,118.5C 103.064,118.978 98.2308,119.978 93.5,121.5C 92.5,121.167 91.5,120.833 90.5,120.5C 96.2743,118.13 102.274,116.797 108.5,116.5C 108.773,114.549 108.107,113.049 106.5,112C 107.823,111.184 108.489,110.017 108.5,108.5C 109.473,110.948 109.806,113.615 109.5,116.5C 110.5,116.5 111.5,116.5 112.5,116.5C 115.287,117.477 118.287,117.81 121.5,117.5C 122.568,118.434 123.901,118.768 125.5,118.5C 126.577,119.018 127.744,119.352 129,119.5C 131.472,118.678 133.972,118.011 136.5,117.5C 136.5,113.833 136.5,110.167 136.5,106.5C 136.404,100.627 135.737,94.9601 134.5,89.5C 134.657,88.1266 134.49,86.7932 134,85.5C 133,84.1667 132,84.1667 131,85.5C 129.242,95.1731 127.742,104.84 126.5,114.5C 125.033,117.258 124.367,116.925 124.5,113.5C 126.344,106.346 127.011,99.0131 126.5,91.5C 124.5,91.1667 122.5,90.8333 120.5,90.5C 120.167,97.9991 118.5,105.166 115.5,112C 115.957,112.414 116.291,112.914 116.5,113.5C 115.767,114.087 114.767,114.087 113.5,113.5C 113.5,112.833 113.5,112.167 113.5,111.5C 116.932,104.689 118.599,97.3558 118.5,89.5C 117.5,89.5 116.5,89.5 115.5,89.5C 115.842,88.6618 116.508,88.3284 117.5,88.5C 120.852,89.5527 124.185,89.5527 127.5,88.5C 128.38,85.2225 129.047,81.8892 129.5,78.5C 129.36,76.9704 128.693,75.9704 127.5,75.5C 126.737,74.7321 125.737,74.2321 124.5,74C 126.708,73.8091 128.708,73.3091 130.5,72.5 Z"/></g>
<g><path style="opacity:1" fill="#afafaf" d="M 134.5,89.5 C 135.737,94.9601 136.404,100.627 136.5,106.5C 134.988,101.071 134.321,95.4042 134.5,89.5 Z"/></g>
<g><path style="opacity:1" fill="#dfdfdf" d="M 124.5,113.5 C 123.978,115.219 122.978,116.552 121.5,117.5C 118.287,117.81 115.287,117.477 112.5,116.5C 112.263,115.209 112.596,114.209 113.5,113.5C 114.767,114.087 115.767,114.087 116.5,113.5C 116.291,112.914 115.957,112.414 115.5,112C 118.5,105.166 120.167,97.9991 120.5,90.5C 122.5,90.8333 124.5,91.1667 126.5,91.5C 127.011,99.0131 126.344,106.346 124.5,113.5 Z"/></g>
<g><path style="opacity:1" fill="#e4e4e4" d="M 134.5,89.5 C 134.321,95.4042 134.988,101.071 136.5,106.5C 136.5,110.167 136.5,113.833 136.5,117.5C 133.972,118.011 131.472,118.678 129,119.5C 127.744,119.352 126.577,119.018 125.5,118.5C 126.234,117.292 126.567,115.959 126.5,114.5C 127.742,104.84 129.242,95.1731 131,85.5C 132,84.1667 133,84.1667 134,85.5C 134.49,86.7932 134.657,88.1266 134.5,89.5 Z"/></g>
<g><path style="opacity:1" fill="#747474" d="M 147.5,108.5 C 148.313,107.347 149.313,107.347 150.5,108.5C 151.757,110.799 151.423,112.799 149.5,114.5C 148.833,112.5 148.167,110.5 147.5,108.5 Z"/></g>
<g><path style="opacity:1" fill="#828282" d="M 124.5,113.5 C 124.367,116.925 125.033,117.258 126.5,114.5C 126.567,115.959 126.234,117.292 125.5,118.5C 123.901,118.768 122.568,118.434 121.5,117.5C 122.978,116.552 123.978,115.219 124.5,113.5 Z"/></g>
<g><path style="opacity:1" fill="#313131" d="M 108.5,86.5 C 108.833,86.5 109.167,86.5 109.5,86.5C 109.5,87.1667 109.5,87.8333 109.5,88.5C 108.508,88.3284 107.842,88.6618 107.5,89.5C 104.575,96.6742 102.241,104.008 100.5,111.5C 91.5361,114.733 83.3695,119.4 76,125.5C 73.4203,134.902 68.9203,143.235 62.5,150.5C 62.1667,150.167 61.8333,149.833 61.5,149.5C 67.3259,141.515 71.8259,132.848 75,123.5C 83.2055,118.403 91.2055,113.069 99,107.5C 100.819,102.56 102.486,97.5597 104,92.5C 104.792,89.8936 106.292,87.8936 108.5,86.5 Z"/></g>
</svg>
