<?xml version="1.0" encoding="UTF-8"?>
<!DOCTYPE svg PUBLIC "-//W3C//DTD SVG 1.1//EN" "http://www.w3.org/Graphics/SVG/1.1/DTD/svg11.dtd">
<svg xmlns="http://www.w3.org/2000/svg" version="1.1" width="267px" height="216px" style="shape-rendering:geometricPrecision; text-rendering:geometricPrecision; image-rendering:optimizeQuality; fill-rule:evenodd; clip-rule:evenodd" xmlns:xlink="http://www.w3.org/1999/xlink">
<g><path style="opacity:1" fill="#f4f4f4" d="M -0.5,-0.5 C 88.5,-0.5 177.5,-0.5 266.5,-0.5C 266.5,71.5 266.5,143.5 266.5,215.5C 177.5,215.5 88.5,215.5 -0.5,215.5C -0.5,143.5 -0.5,71.5 -0.5,-0.5 Z"/></g>
<g><path style="opacity:1" fill="#eb7819" d="M 21.5,5.5 C 33.6856,12.1812 43.5189,21.5146 51,33.5C 54.4215,39.3419 57.5881,45.3419 60.5,51.5C 62.4012,52.2309 64.4012,52.2309 66.5,51.5C 65.7035,56.8161 65.0369,62.1494 64.5,67.5C 63.448,67.6495 62.448,67.4828 61.5,67C 58.0226,63.4331 54.3559,60.0998 50.5,57C 52.6701,56.1888 54.3368,54.8554 55.5,53C 48.0784,35.2473 36.5784,20.7473 21,9.5C 20.4209,8.07153 20.5876,6.7382 21.5,5.5 Z"/></g>
<g><path style="opacity:1" fill="#4b4b4c" d="M 211.5,38.5 C 210.549,37.0813 210.216,35.4147 210.5,33.5C 210.423,32.2502 209.756,31.4169 208.5,31C 209.973,30.2904 210.64,29.1238 210.5,27.5C 209.5,27.5 208.5,27.5 207.5,27.5C 206.908,30.1272 206.575,32.7938 206.5,35.5C 205.833,35.5 205.5,35.1667 205.5,34.5C 205.337,32.1432 205.503,29.8098 206,27.5C 209.818,24.5017 211.984,25.5017 212.5,30.5C 211.905,33.1401 211.572,35.8067 211.5,38.5 Z"/></g>
<g><path style="opacity:1" fill="#e5e5e5" d="M 197.5,30.5 C 197.5,31.1667 197.5,31.8333 197.5,32.5C 197.5,34.5 197.5,36.5 197.5,38.5C 196.167,38.5 194.833,38.5 193.5,38.5C 193.5,34.5 193.5,30.5 193.5,26.5C 194.5,26.5 195.5,26.5 196.5,26.5C 196.232,28.099 196.566,29.4324 197.5,30.5 Z"/></g>
<g><path style="opacity:1" fill="#dbdbdb" d="M 210.5,33.5 C 209.448,33.3505 208.448,33.5172 207.5,34C 209.155,35.4443 209.822,37.2776 209.5,39.5C 208.285,43.9001 206.785,48.2334 205,52.5C 204.506,50.8659 204.34,49.1992 204.5,47.5C 205.186,46.1516 206.186,44.985 207.5,44C 206.376,43.1612 205.709,41.9945 205.5,40.5C 205.728,38.7927 206.062,37.126 206.5,35.5C 206.575,32.7938 206.908,30.1272 207.5,27.5C 208.5,27.5 209.5,27.5 210.5,27.5C 210.64,29.1238 209.973,30.2904 208.5,31C 209.756,31.4169 210.423,32.2502 210.5,33.5 Z"/></g>
<g><path style="opacity:1" fill="#ec7919" d="M 26.5,34.5 C 29.9744,38.762 32.9744,43.4287 35.5,48.5C 33.604,49.4656 31.604,49.7989 29.5,49.5C 30.4089,70.3156 36.7422,89.3156 48.5,106.5C 48.0004,107.881 47.0004,108.547 45.5,108.5C 43.1708,107.002 41.3375,105.002 40,102.5C 30.3324,86.1653 25.1657,68.4986 24.5,49.5C 22.396,49.7989 20.396,49.4656 18.5,48.5C 21.1785,43.806 23.8452,39.1393 26.5,34.5 Z"/></g>
<g><path style="opacity:1" fill="#858586" d="M 193.5,25.5 C 194.5,25.5 195.5,25.5 196.5,25.5C 197.451,26.9187 197.784,28.5853 197.5,30.5C 196.566,29.4324 196.232,28.099 196.5,26.5C 195.5,26.5 194.5,26.5 193.5,26.5C 193.5,30.5 193.5,34.5 193.5,38.5C 194.833,38.5 196.167,38.5 197.5,38.5C 197.5,36.5 197.5,34.5 197.5,32.5C 198.167,32.5 198.5,32.1667 198.5,31.5C 199.468,33.6074 199.802,35.9407 199.5,38.5C 201.167,38.5 202.833,38.5 204.5,38.5C 204.232,36.901 204.566,35.5676 205.5,34.5C 205.5,35.1667 205.833,35.5 206.5,35.5C 206.062,37.126 205.728,38.7927 205.5,40.5C 205.709,41.9945 206.376,43.1612 207.5,44C 206.186,44.985 205.186,46.1516 204.5,47.5C 204.5,44.8333 204.5,42.1667 204.5,39.5C 201.014,38.8285 198.347,39.8285 196.5,42.5C 195.5,41.1667 194.5,41.1667 193.5,42.5C 193.167,42.5 192.833,42.5 192.5,42.5C 192.178,36.642 192.511,30.9753 193.5,25.5 Z"/></g>
<g><path style="opacity:1" fill="#919191" d="M 210.5,33.5 C 210.216,35.4147 210.549,37.0813 211.5,38.5C 211.5,40.5 211.5,42.5 211.5,44.5C 210.833,42.8333 210.167,41.1667 209.5,39.5C 209.822,37.2776 209.155,35.4443 207.5,34C 208.448,33.5172 209.448,33.3505 210.5,33.5 Z"/></g>
<g><path style="opacity:1" fill="#e1e1e1" d="M 196.5,42.5 C 196.723,54.2222 195.723,54.2222 193.5,42.5C 194.5,41.1667 195.5,41.1667 196.5,42.5 Z"/></g>
<g><path style="opacity:1" fill="#484849" d="M 204.5,47.5 C 204.34,49.1992 204.506,50.8659 205,52.5C 206.785,48.2334 208.285,43.9001 209.5,39.5C 210.167,41.1667 210.833,42.8333 211.5,44.5C 212.583,44.5394 213.583,44.8728 214.5,45.5C 216.262,43.3109 218.429,41.6443 221,40.5C 222.5,40.6667 223.333,41.5 223.5,43C 220.214,48.4023 217.047,53.9023 214,59.5C 213.192,61.5787 213.359,63.5787 214.5,65.5C 215.183,65.1373 215.85,64.8039 216.5,64.5C 216.5,64.8333 216.5,65.1667 216.5,65.5C 214.351,69.5667 212.851,69.2333 212,64.5C 211.544,58.4094 211.878,52.4094 213,46.5C 211.062,45.1398 209.396,45.4732 208,47.5C 207.685,50.6363 206.518,53.3029 204.5,55.5C 203.508,51.2172 203.174,46.8839 203.5,42.5C 201.856,42.7135 200.356,42.3802 199,41.5C 198.43,45.7597 197.597,49.9263 196.5,54C 195.256,54.4561 194.423,53.9561 194,52.5C 193.506,50.8659 193.34,49.1992 193.5,47.5C 192.962,45.8828 192.629,44.2161 192.5,42.5C 192.833,42.5 193.167,42.5 193.5,42.5C 195.723,54.2222 196.723,54.2222 196.5,42.5C 198.347,39.8285 201.014,38.8285 204.5,39.5C 204.5,42.1667 204.5,44.8333 204.5,47.5 Z"/></g>
<g><path style="opacity:1" fill="#bcbcbd" d="M 220.5,41.5 C 221.598,42.6009 221.765,43.9343 221,45.5C 218.417,48.9974 216.084,52.6641 214,56.5C 213.441,50.2877 215.608,45.2877 220.5,41.5 Z"/></g>
<g><path style="opacity:1" fill="#bab9ba" d="M 192.5,42.5 C 192.629,44.2161 192.962,45.8828 193.5,47.5C 192.292,46.7659 190.959,46.4326 189.5,46.5C 189.5,47.8333 189.5,49.1667 189.5,50.5C 188.371,48.3718 188.204,46.0385 189,43.5C 190.011,42.6634 191.178,42.33 192.5,42.5 Z"/></g>
<g><path style="opacity:1" fill="#515152" d="M 198.5,31.5 C 198.5,32.1667 198.167,32.5 197.5,32.5C 197.5,31.8333 197.5,31.1667 197.5,30.5C 197.784,28.5853 197.451,26.9187 196.5,25.5C 196.5,24.5 196.5,23.5 196.5,22.5C 195.5,22.5 194.5,22.5 193.5,22.5C 193.5,23.5 193.5,24.5 193.5,25.5C 192.511,30.9753 192.178,36.642 192.5,42.5C 191.178,42.33 190.011,42.6634 189,43.5C 188.204,46.0385 188.371,48.3718 189.5,50.5C 189.777,53.4475 189.444,56.2809 188.5,59C 186.096,58.1032 183.763,56.9365 181.5,55.5C 183.211,62.726 184.545,70.0594 185.5,77.5C 183.065,85.7044 180.065,93.7044 176.5,101.5C 175.833,102.833 175.167,102.833 174.5,101.5C 176.664,96.8759 178.83,92.2092 181,87.5C 181.868,84.5147 182.201,81.5147 182,78.5C 176.6,70.6104 171.434,62.6104 166.5,54.5C 166.608,53.5581 166.941,52.7247 167.5,52C 172.633,51.6546 176.467,53.8212 179,58.5C 178.937,55.2328 180.437,53.0661 183.5,52C 180.012,43.8509 178.845,35.3509 180,26.5C 182.522,23.6736 184.522,24.0069 186,27.5C 186.529,32.2425 187.362,36.9092 188.5,41.5C 189.5,41.5 190.5,41.5 191.5,41.5C 191.334,35.1579 191.5,28.8246 192,22.5C 193.733,20.3985 195.733,20.0652 198,21.5C 198.498,24.8168 198.665,28.1501 198.5,31.5 Z"/></g>
<g><path style="opacity:1" fill="#d3d3d4" d="M 181.5,26.5 C 182.5,26.5 183.5,26.5 184.5,26.5C 184.902,30.9124 185.735,35.2457 187,39.5C 187.667,45.5 187.667,51.5 187,57.5C 184.045,49.2846 181.879,40.7846 180.5,32C 180.943,30.175 181.277,28.3417 181.5,26.5 Z"/></g>
<g><path style="opacity:1" fill="#dcdcdc" d="M 196.5,25.5 C 195.5,25.5 194.5,25.5 193.5,25.5C 193.5,24.5 193.5,23.5 193.5,22.5C 194.5,22.5 195.5,22.5 196.5,22.5C 196.5,23.5 196.5,24.5 196.5,25.5 Z"/></g>
<g><path style="opacity:1" fill="#e3e3e3" d="M 167.5,53.5 C 169.989,53.2978 172.323,53.7978 174.5,55C 181.083,61.081 183.916,68.581 183,77.5C 179.937,73.4311 177.27,69.0978 175,64.5C 174.405,63.1011 174.572,61.7678 175.5,60.5C 171.334,59.7933 168.667,57.46 167.5,53.5 Z"/></g>
<g><path style="opacity:1" fill="#a0a0a2" d="M 84.5,71.5 C 85.6291,73.6282 85.7958,75.9615 85,78.5C 84.2828,77.9558 83.7828,77.2891 83.5,76.5C 84.4511,75.0813 84.7845,73.4147 84.5,71.5 Z"/></g>
<g><path style="opacity:1" fill="#585858" d="M 216.5,65.5 C 216.5,65.1667 216.5,64.8333 216.5,64.5C 218.123,59.6908 221.289,58.3575 226,60.5C 226.667,62.1667 226.667,63.8333 226,65.5C 221.855,70.765 218.355,76.4317 215.5,82.5C 220.028,90.3672 225.694,97.3672 232.5,103.5C 231.998,104.521 231.332,104.688 230.5,104C 224.618,97.6226 218.951,91.1226 213.5,84.5C 211.333,85.7919 209,86.6253 206.5,87C 204.306,89.6947 202.306,92.528 200.5,95.5C 202.803,98.2458 204.303,101.246 205,104.5C 203.327,101.999 201.493,99.6655 199.5,97.5C 198.139,99.0284 196.972,100.695 196,102.5C 195.833,102 195.667,101.5 195.5,101C 197.702,96.0949 200.535,91.5949 204,87.5C 207.134,86.1265 210.134,84.4598 213,82.5C 215.416,77.9994 218.083,73.6661 221,69.5C 221.195,67.7928 221.195,66.1261 221,64.5C 221.667,65.1667 222.333,65.8333 223,66.5C 223.44,64.9238 224.273,63.5904 225.5,62.5C 223.579,61.359 221.579,61.1923 219.5,62C 218.837,63.5185 217.837,64.6851 216.5,65.5 Z"/></g>
<g><path style="opacity:1" fill="#2f2e31" d="M 124.5,54.5 C 124.815,58.3714 124.482,62.0381 123.5,65.5C 123.528,60.1383 123.194,54.8049 122.5,49.5C 122.741,47.1016 122.074,45.1016 120.5,43.5C 118.5,42.1667 116.5,42.1667 114.5,43.5C 112.734,49.9089 112.068,56.5756 112.5,63.5C 112.334,69.1764 112.501,74.8431 113,80.5C 115.106,82.291 117.606,82.9577 120.5,82.5C 121.167,82.5 121.5,82.8333 121.5,83.5C 119.5,83.5 117.5,83.5 115.5,83.5C 116.065,88.1493 116.565,92.816 117,97.5C 117.557,101.175 118.89,104.508 121,107.5C 122.066,96.1436 123.233,84.8102 124.5,73.5C 124.216,71.5853 124.549,69.9187 125.5,68.5C 132.267,70.4744 135.434,75.1411 135,82.5C 137.85,73.2083 140.516,63.875 143,54.5C 146.979,50.3562 150.645,50.6896 154,55.5C 153.746,68.7719 151.579,81.7719 147.5,94.5C 147.833,95.1667 148.167,95.8333 148.5,96.5C 154.03,94.1991 156.697,96.0324 156.5,102C 154.195,109.082 152.195,116.249 150.5,123.5C 149.517,127.298 149.183,131.298 149.5,135.5C 150.791,135.737 151.791,135.404 152.5,134.5C 159.633,129.429 166.967,124.595 174.5,120C 178.594,119.233 182.594,119.566 186.5,121C 190.485,124.286 190.485,127.619 186.5,131C 174.004,137.168 163.671,145.835 155.5,157C 162.041,170.873 170.208,183.706 180,195.5C 180.688,196.332 180.521,196.998 179.5,197.5C 169.199,185.695 160.699,172.695 154,158.5C 152.333,156.833 150.667,155.167 149,153.5C 146.957,141.4 147.124,129.4 149.5,117.5C 150.338,117.158 150.672,116.492 150.5,115.5C 151.698,112.574 152.698,109.574 153.5,106.5C 154.833,103.833 154.833,101.167 153.5,98.5C 152.5,97.1667 151.5,97.1667 150.5,98.5C 149.508,98.3284 148.842,98.6618 148.5,99.5C 145.265,106.732 141.599,113.732 137.5,120.5C 136.029,119.619 135.196,118.286 135,116.5C 134.985,108.447 134.818,100.447 134.5,92.5C 133.255,86.8705 132.255,81.2038 131.5,75.5C 131.068,74.2905 130.401,73.2905 129.5,72.5C 128.713,70.8958 127.38,70.2291 125.5,70.5C 125.232,72.099 125.566,73.4324 126.5,74.5C 126.5,75.1667 126.5,75.8333 126.5,76.5C 125.657,84.8655 124.657,93.1988 123.5,101.5C 123.768,104.119 123.435,106.619 122.5,109C 120.112,109.865 118.612,109.032 118,106.5C 115.96,101.053 114.96,95.3859 115,89.5C 113.607,85.7143 111.941,82.0477 110,78.5C 109.667,75.5 109.333,72.5 109,69.5C 108.583,68.244 107.75,67.5774 106.5,67.5C 106.5,67.1667 106.5,66.8333 106.5,66.5C 106.116,64.7074 104.95,63.7074 103,63.5C 101.251,63.7483 100.418,64.7483 100.5,66.5C 99.8333,66.5 99.5,66.8333 99.5,67.5C 100.575,78.8566 102.075,90.19 104,101.5C 104.667,105.167 104.667,108.833 104,112.5C 102.062,113.86 100.396,113.527 99,111.5C 96.9312,105.692 94.0978,100.359 90.5,95.5C 89.8897,93.5659 88.8897,91.8993 87.5,90.5C 87.4431,89.391 87.1098,88.391 86.5,87.5C 86.2041,85.597 85.5375,83.9303 84.5,82.5C 84.5,82.1667 84.5,81.8333 84.5,81.5C 84.0679,80.2905 83.4013,79.2905 82.5,78.5C 81.2921,77.7659 79.9587,77.4326 78.5,77.5C 75.8203,80.5224 75.1536,83.8557 76.5,87.5C 77.8389,93.5199 79.1722,99.5199 80.5,105.5C 80.6495,106.552 80.4828,107.552 80,108.5C 79.7679,107.263 79.2679,106.263 78.5,105.5C 78.7845,103.585 78.4511,101.919 77.5,100.5C 76.6493,98.1184 75.316,96.1184 73.5,94.5C 73.5,93.8333 73.1667,93.5 72.5,93.5C 71.8305,90.1511 70.1639,87.4844 67.5,85.5C 67.3318,82.9486 66.3318,82.2819 64.5,83.5C 63.209,83.2627 62.209,83.596 61.5,84.5C 60.1667,86.1667 60.1667,87.8333 61.5,89.5C 68.0594,100.944 74.8927,112.277 82,123.5C 82.3884,127.219 83.0551,130.886 84,134.5C 84.6667,130.5 84.6667,126.5 84,122.5C 82.8277,118.159 81.661,113.826 80.5,109.5C 81.1667,109.833 81.8333,110.167 82.5,110.5C 86.3011,119.332 87.3011,128.499 85.5,138C 79.5116,135.151 73.8449,131.485 68.5,127C 66.0506,126.275 63.7173,125.275 61.5,124C 58.9615,123.204 56.6282,123.371 54.5,124.5C 53.209,124.263 52.209,124.596 51.5,125.5C 49.6231,126.659 49.1231,128.326 50,130.5C 51.4133,132.414 53.2466,133.747 55.5,134.5C 56.2975,134.043 56.6309,133.376 56.5,132.5C 56.8333,132.5 57.1667,132.5 57.5,132.5C 57.3433,133.873 57.51,135.207 58,136.5C 61.5662,139.699 65.3996,142.533 69.5,145C 77.1667,153.333 84.8333,161.667 92.5,170C 97.1483,173.745 102.482,175.411 108.5,175C 117.319,180.322 124.653,187.156 130.5,195.5C 130.167,195.833 129.833,196.167 129.5,196.5C 127.573,193.65 125.406,190.983 123,188.5C 120.425,191.319 118.092,194.319 116,197.5C 115.333,196.5 115.333,195.5 116,194.5C 118.34,192.209 119.673,189.542 120,186.5C 117.131,183.296 113.965,180.463 110.5,178C 100.677,177.422 92.3438,173.589 85.5,166.5C 80.6289,177.24 74.9622,187.573 68.5,197.5C 68.1667,197 67.8333,196.5 67.5,196C 71.2006,189.434 75.0339,182.934 79,176.5C 81.4905,172.686 82.9905,168.52 83.5,164C 80.3961,159.225 76.8961,154.725 73,150.5C 65.4103,144.955 57.9103,139.288 50.5,133.5C 46.0735,128.798 46.7402,124.965 52.5,122C 58.1673,121.109 63.5006,122.109 68.5,125C 72.3244,128.079 76.3244,130.912 80.5,133.5C 81.0138,129.496 80.5138,125.496 79,121.5C 73.7267,112.563 68.06,103.897 62,95.5C 60.6326,92.3968 59.4659,89.2301 58.5,86C 58.9271,80.9107 61.5937,79.244 66.5,81C 69.0939,83.0865 71.0939,85.5865 72.5,88.5C 73.072,89.9733 73.9054,91.3066 75,92.5C 74.7093,88.2262 74.5427,83.8929 74.5,79.5C 76.5297,75.6264 79.5297,74.6264 83.5,76.5C 83.7828,77.2891 84.2828,77.9558 85,78.5C 85.7958,75.9615 85.6291,73.6282 84.5,71.5C 82.7314,65.2767 82.2314,58.9433 83,52.5C 86.9434,49.6342 90.6101,49.9676 94,53.5C 95.6323,58.0296 96.6323,62.6962 97,67.5C 102.502,59.5306 107.169,60.1973 111,69.5C 111.333,60.8333 111.667,52.1667 112,43.5C 116.352,39.3354 120.352,39.6687 124,44.5C 124.498,47.8168 124.665,51.1501 124.5,54.5 Z"/></g>
<g><path style="opacity:1" fill="#797879" d="M 78.5,77.5 C 78.5,78.5 78.5,79.5 78.5,80.5C 80.4832,80.8432 81.8166,80.1765 82.5,78.5C 83.4013,79.2905 84.0679,80.2905 84.5,81.5C 81.8333,81.5 79.1667,81.5 76.5,81.5C 76.5,83.5 76.5,85.5 76.5,87.5C 75.1536,83.8557 75.8203,80.5224 78.5,77.5 Z"/></g>
<g><path style="opacity:1" fill="#dfdfdf" d="M 78.5,77.5 C 79.9587,77.4326 81.2921,77.7659 82.5,78.5C 81.8166,80.1765 80.4832,80.8432 78.5,80.5C 78.5,79.5 78.5,78.5 78.5,77.5 Z"/></g>
<g><path style="opacity:1" fill="#7c7a7c" d="M 129.5,72.5 C 130.401,73.2905 131.068,74.2905 131.5,75.5C 129.883,76.038 128.216,76.3713 126.5,76.5C 126.5,75.8333 126.5,75.1667 126.5,74.5C 128.179,74.7148 129.179,74.0481 129.5,72.5 Z"/></g>
<g><path style="opacity:1" fill="#929292" d="M 102.5,72.5 C 104.288,72.2148 105.955,72.5481 107.5,73.5C 106.667,73.8333 105.833,74.1667 105,74.5C 103.624,74.3158 102.791,73.6491 102.5,72.5 Z"/></g>
<g><path style="opacity:1" fill="#d4d4d5" d="M 129.5,72.5 C 129.179,74.0481 128.179,74.7148 126.5,74.5C 125.566,73.4324 125.232,72.099 125.5,70.5C 127.38,70.2291 128.713,70.8958 129.5,72.5 Z"/></g>
<g><path style="opacity:1" fill="#e8e8e9" d="M 99.5,86.5 C 97.076,86.1924 94.7427,86.5258 92.5,87.5C 94.6552,87.838 96.9885,87.838 99.5,87.5C 99.5,87.8333 99.5,88.1667 99.5,88.5C 90.1978,90.4764 90.1978,91.1431 99.5,90.5C 101.618,97.0678 102.285,103.735 101.5,110.5C 98.2524,104.336 94.7524,98.3359 91,92.5C 88.5151,81.8944 86.3484,71.2277 84.5,60.5C 86.4024,61.5109 88.4024,61.6776 90.5,61C 86.1178,60.9973 84.4511,58.8306 85.5,54.5C 87.3792,53.6586 89.3792,53.3253 91.5,53.5C 94.2915,63.7306 96.9582,74.7306 99.5,86.5 Z"/></g>
<g><path style="opacity:1" fill="#565658" d="M 124.5,54.5 C 125.486,58.97 125.819,63.6367 125.5,68.5C 124.549,69.9187 124.216,71.5853 124.5,73.5C 123.527,71.0521 123.194,68.3854 123.5,65.5C 124.482,62.0381 124.815,58.3714 124.5,54.5 Z"/></g>
<g><path style="opacity:1" fill="#797879" d="M 99.5,67.5 C 99.5,66.8333 99.8333,66.5 100.5,66.5C 102.5,66.5 104.5,66.5 106.5,66.5C 106.5,66.8333 106.5,67.1667 106.5,67.5C 104.274,68.7563 101.941,68.7563 99.5,67.5 Z"/></g>
<g><path style="opacity:1" fill="#89898a" d="M 89.5,67.5 C 90.9778,67.238 92.3112,67.5713 93.5,68.5C 91.9255,69.6309 90.2588,69.7975 88.5,69C 89.056,68.6174 89.3893,68.1174 89.5,67.5 Z"/></g>
<g><path style="opacity:1" fill="#dcdcdc" d="M 106.5,66.5 C 104.5,66.5 102.5,66.5 100.5,66.5C 100.418,64.7483 101.251,63.7483 103,63.5C 104.95,63.7074 106.116,64.7074 106.5,66.5 Z"/></g>
<g><path style="opacity:1" fill="#737273" d="M 145.5,55.5 C 145.34,57.1992 145.506,58.8659 146,60.5C 147.333,61.8333 148.667,61.8333 150,60.5C 150.494,58.8659 150.66,57.1992 150.5,55.5C 151.674,56.5137 152.34,57.847 152.5,59.5C 150.138,63.0012 147.305,63.3345 144,60.5C 143.617,61.056 143.117,61.3893 142.5,61.5C 143.522,59.4561 144.522,57.4561 145.5,55.5 Z"/></g>
<g><path style="opacity:1" fill="#e7e7e7" d="M 152.5,59.5 C 150.564,76.1481 147.064,92.4815 142,108.5C 140.065,111.371 138.399,114.371 137,117.5C 136.773,107.311 136.273,97.144 135.5,87C 137.996,78.5192 140.329,70.0192 142.5,61.5C 143.117,61.3893 143.617,61.056 144,60.5C 147.305,63.3345 150.138,63.0012 152.5,59.5 Z"/></g>
<g><path style="opacity:1" fill="#828282" d="M 142.5,70.5 C 144.035,69.2121 145.701,69.2121 147.5,70.5C 145.833,71.6664 144.166,71.6664 142.5,70.5 Z"/></g>
<g><path style="opacity:1" fill="#6d6c6e" d="M 85.5,54.5 C 84.4511,58.8306 86.1178,60.9973 90.5,61C 88.4024,61.6776 86.4024,61.5109 84.5,60.5C 83.2056,58.32 83.5389,56.32 85.5,54.5 Z"/></g>
<g><path style="opacity:1" fill="#e6e6e6" d="M 150.5,55.5 C 150.66,57.1992 150.494,58.8659 150,60.5C 148.667,61.8333 147.333,61.8333 146,60.5C 145.506,58.8659 145.34,57.1992 145.5,55.5C 147.167,52.8333 148.833,52.8333 150.5,55.5 Z"/></g>
<g><path style="opacity:1" fill="#e7e7e7" d="M 122.5,49.5 C 123.194,54.8049 123.528,60.1383 123.5,65.5C 123.194,68.3854 123.527,71.0521 124.5,73.5C 123.233,84.8102 122.066,96.1436 121,107.5C 118.89,104.508 117.557,101.175 117,97.5C 116.565,92.816 116.065,88.1493 115.5,83.5C 117.5,83.5 119.5,83.5 121.5,83.5C 122.525,83.1034 122.692,82.4368 122,81.5C 120.274,80.4238 118.441,80.2571 116.5,81C 118.058,81.21 119.391,81.71 120.5,82.5C 117.606,82.9577 115.106,82.291 113,80.5C 112.501,74.8431 112.334,69.1764 112.5,63.5C 113.326,59.0181 113.826,54.3514 114,49.5C 116.83,52.1013 119.663,52.1013 122.5,49.5 Z"/></g>
<g><path style="opacity:1" fill="#727272" d="M 115.5,75.5 C 117.989,75.2978 120.323,75.7978 122.5,77C 119.833,77.6667 117.167,77.6667 114.5,77C 115.056,76.6174 115.389,76.1174 115.5,75.5 Z"/></g>
<g><path style="opacity:1" fill="#69686a" d="M 114.5,43.5 C 113.65,48.4786 115.483,50.4786 120,49.5C 120.495,47.5273 120.662,45.5273 120.5,43.5C 122.074,45.1016 122.741,47.1016 122.5,49.5C 119.663,52.1013 116.83,52.1013 114,49.5C 113.826,54.3514 113.326,59.0181 112.5,63.5C 112.068,56.5756 112.734,49.9089 114.5,43.5 Z"/></g>
<g><path style="opacity:1" fill="#eeeeee" d="M 120.5,43.5 C 120.662,45.5273 120.495,47.5273 120,49.5C 115.483,50.4786 113.65,48.4786 114.5,43.5C 116.5,42.1667 118.5,42.1667 120.5,43.5 Z"/></g>
<g><path style="opacity:1" fill="#8f8e90" d="M 74.5,79.5 C 74.5427,83.8929 74.7093,88.2262 75,92.5C 73.9054,91.3066 73.072,89.9733 72.5,88.5C 73.1667,85.5 73.8333,82.5 74.5,79.5 Z"/></g>
<g><path style="opacity:1" fill="#828182" d="M 121.5,83.5 C 121.5,82.8333 121.167,82.5 120.5,82.5C 119.391,81.71 118.058,81.21 116.5,81C 118.441,80.2571 120.274,80.4238 122,81.5C 122.692,82.4368 122.525,83.1034 121.5,83.5 Z"/></g>
<g><path style="opacity:1" fill="#dadada" d="M 131.5,75.5 C 132.255,81.2038 133.255,86.8705 134.5,92.5C 132.374,93.0482 130.374,93.7148 128.5,94.5C 127.075,92.9689 126.409,93.3023 126.5,95.5C 125.797,97.6287 124.797,99.6287 123.5,101.5C 124.657,93.1988 125.657,84.8655 126.5,76.5C 128.216,76.3713 129.883,76.038 131.5,75.5 Z"/></g>
<g><path style="opacity:1" fill="#e5e5e5" d="M 64.5,83.5 C 66.0376,85.5514 65.7043,87.218 63.5,88.5C 61.8888,87.6798 61.2222,86.3464 61.5,84.5C 62.209,83.596 63.209,83.2627 64.5,83.5 Z"/></g>
<g><path style="opacity:1" fill="#9d9d9e" d="M 84.5,82.5 C 85.5375,83.9303 86.2041,85.597 86.5,87.5C 84.4951,86.9612 82.4951,86.2945 80.5,85.5C 82.3316,84.9432 83.6649,83.9432 84.5,82.5 Z"/></g>
<g><path style="opacity:1" fill="#626263" d="M 138.5,85.5 C 140.185,84.156 141.852,84.3227 143.5,86C 141.893,85.9813 140.226,85.8146 138.5,85.5 Z"/></g>
<g><path style="opacity:1" fill="#777777" d="M 99.5,86.5 C 99.5,86.8333 99.5,87.1667 99.5,87.5C 96.9885,87.838 94.6552,87.838 92.5,87.5C 94.7427,86.5258 97.076,86.1924 99.5,86.5 Z"/></g>
<g><path style="opacity:1" fill="#656466" d="M 104.5,84.5 C 106.527,84.3379 108.527,84.5045 110.5,85C 106.148,85.4189 105.815,86.0855 109.5,87C 106.738,88.0769 105.072,87.2436 104.5,84.5 Z"/></g>
<g><path style="opacity:1" fill="#616061" d="M 67.5,85.5 C 66.8784,88.7756 64.8784,90.1089 61.5,89.5C 60.1667,87.8333 60.1667,86.1667 61.5,84.5C 61.2222,86.3464 61.8888,87.6798 63.5,88.5C 65.7043,87.218 66.0376,85.5514 64.5,83.5C 66.3318,82.2819 67.3318,82.9486 67.5,85.5 Z"/></g>
<g><path style="opacity:1" fill="#6b6b6b" d="M 136.5,87.5 C 136.56,86.9569 136.893,86.6236 137.5,86.5C 139.385,87.6094 141.385,88.4427 143.5,89C 140.935,89.6089 138.601,89.1089 136.5,87.5 Z"/></g>
<g><path style="opacity:1" fill="#858586" d="M 99.5,88.5 C 99.5,89.1667 99.5,89.8333 99.5,90.5C 90.1978,91.1431 90.1978,90.4764 99.5,88.5 Z"/></g>
<g><path style="opacity:1" fill="#8e8e8e" d="M 87.5,90.5 C 88.8897,91.8993 89.8897,93.5659 90.5,95.5C 88.3985,97.1089 86.0652,97.6089 83.5,97C 84.8333,96.3333 86.1667,95.6667 87.5,95C 85.5758,94.8208 83.9091,94.6541 82.5,94.5C 84.3634,93.3112 86.0301,91.9779 87.5,90.5 Z"/></g>
<g><path style="opacity:1" fill="#707071" d="M 128.5,94.5 C 129.766,95.0899 131.099,95.5899 132.5,96C 130.455,96.4901 128.455,96.3235 126.5,95.5C 126.409,93.3023 127.075,92.9689 128.5,94.5 Z"/></g>
<g><path style="opacity:1" fill="#7b7b7b" d="M 72.5,93.5 C 73.1667,93.5 73.5,93.8333 73.5,94.5C 71.7708,95.1175 70.2708,96.1175 69,97.5C 68.8758,95.2594 70.0425,93.9261 72.5,93.5 Z"/></g>
<g><path style="opacity:1" fill="#e7e7e7" d="M 67.5,85.5 C 70.1639,87.4844 71.8305,90.1511 72.5,93.5C 70.0425,93.9261 68.8758,95.2594 69,97.5C 70.2708,96.1175 71.7708,95.1175 73.5,94.5C 75.316,96.1184 76.6493,98.1184 77.5,100.5C 77.9193,103.325 76.9193,105.491 74.5,107C 76.0657,107.3 77.399,106.8 78.5,105.5C 78.4386,107.592 77.4386,109.092 75.5,110C 77.1075,109.981 78.7741,109.815 80.5,109.5C 81.661,113.826 82.8277,118.159 84,122.5C 84.6667,126.5 84.6667,130.5 84,134.5C 83.0551,130.886 82.3884,127.219 82,123.5C 74.8927,112.277 68.0594,100.944 61.5,89.5C 64.8784,90.1089 66.8784,88.7756 67.5,85.5 Z"/></g>
<g><path style="opacity:1" fill="#ebebec" d="M 153.5,98.5 C 152.74,100.985 151.74,100.985 150.5,98.5C 151.5,97.1667 152.5,97.1667 153.5,98.5 Z"/></g>
<g><path style="opacity:1" fill="#7c7c7d" d="M 148.5,99.5 C 148.842,98.6618 149.508,98.3284 150.5,98.5C 151.74,100.985 152.74,100.985 153.5,98.5C 154.833,101.167 154.833,103.833 153.5,106.5C 153.265,103.197 151.598,100.863 148.5,99.5 Z"/></g>
<g><path style="opacity:1" fill="#828282" d="M 77.5,100.5 C 78.4511,101.919 78.7845,103.585 78.5,105.5C 77.399,106.8 76.0657,107.3 74.5,107C 76.9193,105.491 77.9193,103.325 77.5,100.5 Z"/></g>
<g><path style="opacity:1" fill="#676668" d="M 78.5,105.5 C 79.2679,106.263 79.7679,107.263 80,108.5C 80.4828,107.552 80.6495,106.552 80.5,105.5C 81.5375,106.93 82.2041,108.597 82.5,110.5C 81.8333,110.167 81.1667,109.833 80.5,109.5C 78.7741,109.815 77.1075,109.981 75.5,110C 77.4386,109.092 78.4386,107.592 78.5,105.5 Z"/></g>
<g><path style="opacity:1" fill="#979797" d="M 150.5,115.5 C 150.672,116.492 150.338,117.158 149.5,117.5C 148.152,116.399 146.652,115.399 145,114.5C 144.719,112.095 145.385,112.095 147,114.5C 147.507,113.004 147.007,111.837 145.5,111C 146.167,110.333 146.833,110.333 147.5,111C 148.781,112.409 149.781,113.909 150.5,115.5 Z"/></g>
<g><path style="opacity:1" fill="#e9e9e9" d="M 187.5,126.5 C 185.47,129.182 182.803,130.849 179.5,131.5C 178.449,124.411 181.115,122.744 187.5,126.5 Z"/></g>
<g><path style="opacity:1" fill="#e8e8e8" d="M 51.5,125.5 C 56.8616,125.227 58.5282,127.561 56.5,132.5C 56.6309,133.376 56.2975,134.043 55.5,134.5C 53.2466,133.747 51.4133,132.414 50,130.5C 49.1231,128.326 49.6231,126.659 51.5,125.5 Z"/></g>
<g><path style="opacity:1" fill="#777778" d="M 183.5,121.5 C 186.297,121.967 187.631,123.633 187.5,126.5C 181.115,122.744 178.449,124.411 179.5,131.5C 179.672,132.492 179.338,133.158 178.5,133.5C 177.491,130.473 177.491,127.473 178.5,124.5C 180.396,123.725 182.063,122.725 183.5,121.5 Z"/></g>
<g><path style="opacity:1" fill="#79797a" d="M 51.5,125.5 C 52.209,124.596 53.209,124.263 54.5,124.5C 59.4625,125.751 60.4625,128.417 57.5,132.5C 57.1667,132.5 56.8333,132.5 56.5,132.5C 58.5282,127.561 56.8616,125.227 51.5,125.5 Z"/></g>
<g><path style="opacity:1" fill="#959596" d="M 150.5,123.5 C 149.92,127.649 150.586,131.316 152.5,134.5C 151.791,135.404 150.791,135.737 149.5,135.5C 149.183,131.298 149.517,127.298 150.5,123.5 Z"/></g>
<g><path style="opacity:1" fill="#ececec" d="M 183.5,121.5 C 182.063,122.725 180.396,123.725 178.5,124.5C 177.491,127.473 177.491,130.473 178.5,133.5C 176.668,134.248 175.001,135.248 173.5,136.5C 170.973,135.125 168.64,133.458 166.5,131.5C 165.133,134.012 165.466,136.345 167.5,138.5C 167.5,139.5 167.5,140.5 167.5,141.5C 162.494,145.839 157.827,150.506 153.5,155.5C 151.613,153.974 150.613,151.974 150.5,149.5C 149.836,145.524 149.503,141.524 149.5,137.5C 151.308,137.509 152.975,137.009 154.5,136C 160.817,130.841 167.484,126.174 174.5,122C 177.482,121.502 180.482,121.335 183.5,121.5 Z"/></g>
<g><path style="opacity:1" fill="#6f6f70" d="M 65.5,130.5 C 66.6063,131.149 67.6063,131.483 68.5,131.5C 67.6677,134.161 66.8344,136.828 66,139.5C 65.8446,137.144 65.8446,134.811 66,132.5C 65.0266,134.392 64.3599,136.392 64,138.5C 63.2815,135.593 63.7815,132.926 65.5,130.5 Z"/></g>
<g><path style="opacity:1" fill="#717171" d="M 166.5,131.5 C 166.317,133.936 166.984,136.103 168.5,138C 168.272,138.399 167.938,138.565 167.5,138.5C 165.466,136.345 165.133,134.012 166.5,131.5 Z"/></g>
<g><path style="opacity:1" fill="#c7c6c7" d="M 166.5,131.5 C 168.64,133.458 170.973,135.125 173.5,136.5C 171.525,138.137 169.525,139.804 167.5,141.5C 167.5,140.5 167.5,139.5 167.5,138.5C 167.938,138.565 168.272,138.399 168.5,138C 166.984,136.103 166.317,133.936 166.5,131.5 Z"/></g>
</svg>
