<?xml version="1.0" encoding="UTF-8"?>
<!DOCTYPE svg PUBLIC "-//W3C//DTD SVG 1.1//EN" "http://www.w3.org/Graphics/SVG/1.1/DTD/svg11.dtd">
<svg xmlns="http://www.w3.org/2000/svg" version="1.1" width="262px" height="156px" style="shape-rendering:geometricPrecision; text-rendering:geometricPrecision; image-rendering:optimizeQuality; fill-rule:evenodd; clip-rule:evenodd" xmlns:xlink="http://www.w3.org/1999/xlink">
<g><path style="opacity:1" fill="#eaeaea" d="M -0.5,-0.5 C 86.8333,-0.5 174.167,-0.5 261.5,-0.5C 261.5,51.5 261.5,103.5 261.5,155.5C 174.167,155.5 86.8333,155.5 -0.5,155.5C -0.5,103.5 -0.5,51.5 -0.5,-0.5 Z"/></g>
<g><path style="opacity:1" fill="#656466" d="M 133.5,7.5 C 131.801,7.33982 130.134,7.50649 128.5,8C 130.382,8.19808 132.048,8.69808 133.5,9.5C 131.5,9.5 129.5,9.5 127.5,9.5C 127.158,8.66175 126.492,8.32842 125.5,8.5C 127.993,6.41623 130.66,6.0829 133.5,7.5 Z"/></g>
<g><path style="opacity:1" fill="#333235" d="M 121.5,39.5 C 121.5,38.8333 121.167,38.5 120.5,38.5C 117.965,34.2277 116.632,34.561 116.5,39.5C 116.427,41.0269 117.094,42.0269 118.5,42.5C 124.59,48.9511 130.924,55.2844 137.5,61.5C 137.167,61.8333 136.833,62.1667 136.5,62.5C 135.3,61.4688 133.966,60.6355 132.5,60C 129.331,55.665 125.664,51.8316 121.5,48.5C 121.167,47.5 120.5,46.8333 119.5,46.5C 118.833,45.1667 117.833,44.1667 116.5,43.5C 111.526,38.8613 106.526,34.1947 101.5,29.5C 101.158,28.6618 100.492,28.3284 99.5,28.5C 98.5944,26.0863 96.9278,25.253 94.5,26C 93.193,27.9435 93.193,29.7768 94.5,31.5C 94.2627,32.791 94.596,33.791 95.5,34.5C 106.24,44.2262 115.907,54.2262 124.5,64.5C 118.885,60.3882 113.719,55.7215 109,50.5C 107.887,52.3293 106.387,53.1626 104.5,53C 106.329,51.8867 107.163,50.3867 107,48.5C 100.232,42.2378 94.065,35.5712 88.5,28.5C 87.8333,27.8333 87.1667,27.1667 86.5,26.5C 84.8147,23.1445 82.8147,22.8112 80.5,25.5C 78.4031,26.8786 78.0698,28.5453 79.5,30.5C 84.8883,36.0784 89.3883,42.4118 93,49.5C 100.019,57.0178 106.852,64.6845 113.5,72.5C 112.998,73.521 112.332,73.6877 111.5,73C 106.847,66.8561 101.847,61.0227 96.5,55.5C 96.1667,54.5 95.5,53.8333 94.5,53.5C 90.7601,49.6895 87.7601,45.3561 85.5,40.5C 84.5,39.5 83.5,38.5 82.5,37.5C 81.4095,34.8083 79.7428,34.1416 77.5,35.5C 76.3263,36.5137 75.6596,37.847 75.5,39.5C 77.5433,46.9263 80.7099,53.9263 85,60.5C 94.997,75.3225 105.164,89.9891 115.5,104.5C 115.5,105.5 115.5,106.5 115.5,107.5C 114.167,107.5 112.833,107.5 111.5,107.5C 106.029,106.51 100.696,105.01 95.5,103C 89.9836,102.183 84.6503,102.349 79.5,103.5C 77.6503,104.242 76.9836,105.242 77.5,106.5C 76.0894,110.772 77.7561,112.772 82.5,112.5C 83.9303,113.537 85.597,114.204 87.5,114.5C 89.8056,114.993 92.139,115.326 94.5,115.5C 94.5,114.5 94.5,113.5 94.5,112.5C 94.8333,112.5 95.1667,112.5 95.5,112.5C 95.238,113.978 95.5713,115.311 96.5,116.5C 97.1067,116.376 97.44,116.043 97.5,115.5C 97.8333,115.5 98.1667,115.5 98.5,115.5C 110.837,123.528 124.504,128.695 139.5,131C 151.804,128.157 160.804,132.324 166.5,143.5C 166.167,143.833 165.833,144.167 165.5,144.5C 162.641,139.474 158.641,135.641 153.5,133C 137.312,133.395 121.979,129.895 107.5,122.5C 106.201,123.09 105.368,124.09 105,125.5C 103.063,131.81 101.23,138.143 99.5,144.5C 98.3691,142.926 98.2025,141.259 99,139.5C 100.681,133.107 102.514,126.774 104.5,120.5C 95.8738,118.343 87.2071,116.177 78.5,114C 71.6908,109.322 72.0242,104.989 79.5,101C 82,100.833 84.5,100.667 87,100.5C 95.1736,101.751 103.34,103.085 111.5,104.5C 110.226,100.619 108.393,96.9522 106,93.5C 95.8419,80.5229 86.6752,66.8562 78.5,52.5C 73.916,52.4196 70.416,50.4196 68,46.5C 65.3333,41.1667 62.6667,35.8333 60,30.5C 56.5108,25.1732 51.6775,22.6732 45.5,23C 45.1667,23.3333 44.8333,23.6667 44.5,24C 46.5192,27.0555 48.3525,30.2221 50,33.5C 52.8095,41.7426 55.1428,50.0759 57,58.5C 62.2968,68.4199 66.4634,78.7532 69.5,89.5C 64.779,108.047 59.279,126.38 53,144.5C 52.1072,145.711 51.2739,145.711 50.5,144.5C 57.5506,126.567 63.2173,108.233 67.5,89.5C 64.8352,80.5026 61.3352,71.8359 57,63.5C 54.3714,49.595 49.538,36.595 42.5,24.5C 42.8991,21.9345 44.3991,20.6012 47,20.5C 53.6981,21.345 58.6981,24.6783 62,30.5C 64.6667,35.8333 67.3333,41.1667 70,46.5C 76.3948,51.1673 77.7281,50.1673 74,43.5C 72.5564,38.7528 73.723,34.9194 77.5,32C 75.0586,24.4484 77.7253,21.115 85.5,22C 87,23.5 88.5,25 90,26.5C 93.8671,22.7212 97.8671,22.7212 102,26.5C 109.43,19.895 117.263,13.895 125.5,8.5C 126.492,8.32842 127.158,8.66175 127.5,9.5C 118.989,14.9317 110.989,21.0983 103.5,28C 106.349,31.0162 109.349,33.8496 112.5,36.5C 119.506,27.9952 127.006,19.9952 135,12.5C 135.585,11.0024 135.085,10.0024 133.5,9.5C 132.048,8.69808 130.382,8.19808 128.5,8C 130.134,7.50649 131.801,7.33982 133.5,7.5C 134.531,8.35503 135.697,9.0217 137,9.5C 138.823,8.34881 140.656,7.18215 142.5,6C 149.532,4.8626 152.198,7.69594 150.5,14.5C 152.923,15.9181 154.589,17.9181 155.5,20.5C 153.601,25.2969 150.934,29.6302 147.5,33.5C 152.629,36.2967 153.795,40.2967 151,45.5C 148.084,49.3554 145.751,53.3554 144,57.5C 157.41,67.2452 168.41,79.2452 177,93.5C 184.04,100.871 190.706,108.538 197,116.5C 202.218,125.779 208.052,134.612 214.5,143C 214.026,144.608 213.359,144.774 212.5,143.5C 204.746,133.242 197.579,122.576 191,111.5C 186.367,105.865 181.367,100.532 176,95.5C 166.573,80.4083 154.74,67.5749 140.5,57C 138.192,55.1335 135.525,54.1335 132.5,54C 133.5,53.6667 134.5,53.3333 135.5,53C 130.991,48.3242 126.324,43.8242 121.5,39.5 Z"/></g>
<g><path style="opacity:1" fill="#e2e2e2" d="M 82.5,37.5 C 82.5,38.5 82.5,39.5 82.5,40.5C 78.5,41.1667 76.8333,39.5 77.5,35.5C 79.7428,34.1416 81.4095,34.8083 82.5,37.5 Z"/></g>
<g><path style="opacity:1" fill="#6d6d6e" d="M 99.5,28.5 C 100.492,28.3284 101.158,28.6618 101.5,29.5C 99.9095,31.6326 97.9095,33.2993 95.5,34.5C 94.596,33.791 94.2627,32.791 94.5,31.5C 97.285,32.0838 98.9517,31.0838 99.5,28.5 Z"/></g>
<g><path style="opacity:1" fill="#858586" d="M 80.5,25.5 C 80.7593,29.0681 82.7593,30.4015 86.5,29.5C 86.5,28.5 86.5,27.5 86.5,26.5C 87.1667,27.1667 87.8333,27.8333 88.5,28.5C 86.0917,32.0126 83.2583,32.3459 80,29.5C 79.6012,29.7284 79.4346,30.0618 79.5,30.5C 78.0698,28.5453 78.4031,26.8786 80.5,25.5 Z"/></g>
<g><path style="opacity:1" fill="#dddddd" d="M 99.5,28.5 C 98.9517,31.0838 97.285,32.0838 94.5,31.5C 93.193,29.7768 93.193,27.9435 94.5,26C 96.9278,25.253 98.5944,26.0863 99.5,28.5 Z"/></g>
<g><path style="opacity:1" fill="#e2e3e4" d="M 86.5,26.5 C 86.5,27.5 86.5,28.5 86.5,29.5C 82.7593,30.4015 80.7593,29.0681 80.5,25.5C 82.8147,22.8112 84.8147,23.1445 86.5,26.5 Z"/></g>
<g><path style="opacity:1" fill="#e0e0e1" d="M 147.5,16.5 C 152,16.1638 153.833,18.1638 153,22.5C 147.361,30.9716 141.528,39.3049 135.5,47.5C 134.635,48.5827 133.635,48.7494 132.5,48C 129.588,46.1422 128.088,43.6422 128,40.5C 134.713,32.6259 141.213,24.6259 147.5,16.5 Z"/></g>
<g><path style="opacity:1" fill="#e1e1e2" d="M 142.5,7.5 C 144.527,7.33788 146.527,7.50454 148.5,8C 151.344,11.4733 150.511,13.9733 146,15.5C 140.333,22.5 134.667,29.5 129,36.5C 127.887,38.3293 126.387,39.1626 124.5,39C 122.65,36.9824 120.65,35.1491 118.5,33.5C 125.475,23.8599 133.475,15.1932 142.5,7.5 Z"/></g>
<g><path style="opacity:1" fill="#e4e4e4" d="M 127.5,9.5 C 129.5,9.5 131.5,9.5 133.5,9.5C 135.085,10.0024 135.585,11.0024 135,12.5C 127.006,19.9952 119.506,27.9952 112.5,36.5C 109.349,33.8496 106.349,31.0162 103.5,28C 110.989,21.0983 118.989,14.9317 127.5,9.5 Z"/></g>
<g><path style="opacity:1" fill="#d4d4d4" d="M 120.5,38.5 C 119.432,39.4345 118.099,39.7678 116.5,39.5C 116.632,34.561 117.965,34.2277 120.5,38.5 Z"/></g>
<g><path style="opacity:1" fill="#dddcde" d="M 145.5,36.5 C 150.068,36.0826 151.568,38.0826 150,42.5C 147.723,47.2615 144.89,51.5949 141.5,55.5C 139.091,54.2993 137.091,52.6326 135.5,50.5C 138.843,45.8041 142.176,41.1374 145.5,36.5 Z"/></g>
<g><path style="opacity:1" fill="#767676" d="M 77.5,35.5 C 76.8333,39.5 78.5,41.1667 82.5,40.5C 82.5,39.5 82.5,38.5 82.5,37.5C 83.5,38.5 84.5,39.5 85.5,40.5C 83.6336,41.0138 81.8003,41.6805 80,42.5C 78.3566,41.6854 76.8566,40.6854 75.5,39.5C 75.6596,37.847 76.3263,36.5137 77.5,35.5 Z"/></g>
<g><path style="opacity:1" fill="#767476" d="M 120.5,38.5 C 121.167,38.5 121.5,38.8333 121.5,39.5C 120.694,40.7281 119.694,41.7281 118.5,42.5C 117.094,42.0269 116.427,41.0269 116.5,39.5C 118.099,39.7678 119.432,39.4345 120.5,38.5 Z"/></g>
<g><path style="opacity:1" fill="#868686" d="M 116.5,43.5 C 117.833,44.1667 118.833,45.1667 119.5,46.5C 117.007,47.2294 114.674,48.0628 112.5,49C 114.464,47.549 115.797,45.7157 116.5,43.5 Z"/></g>
<g><path style="opacity:1" fill="#686868" d="M 100.5,46.5 C 101.552,46.3505 102.552,46.5172 103.5,47C 101.448,47.9299 99.9476,49.4299 99,51.5C 98.3872,49.5048 98.8872,47.8381 100.5,46.5 Z"/></g>
<g><path style="opacity:1" fill="#676767" d="M 102.5,49.5 C 104.975,49.7467 104.975,50.4134 102.5,51.5C 101.537,51.0302 101.537,50.3635 102.5,49.5 Z"/></g>
<g><path style="opacity:1" fill="#727272" d="M 119.5,46.5 C 120.5,46.8333 121.167,47.5 121.5,48.5C 119.787,50.195 117.787,51.0283 115.5,51C 117.635,50.1237 118.969,48.6237 119.5,46.5 Z"/></g>
<g><path style="opacity:1" fill="#676767" d="M 94.5,53.5 C 95.5,53.8333 96.1667,54.5 96.5,55.5C 93.1554,56.6799 90.9887,59.0132 90,62.5C 89.3333,61.5 89.3333,60.5 90,59.5C 91.7242,57.587 93.2242,55.587 94.5,53.5 Z"/></g>
<g><path style="opacity:1" fill="#6f6f6f" d="M 96.5,59.5 C 97.2389,59.369 97.9056,59.5357 98.5,60C 96.7957,62.7568 94.4623,64.0901 91.5,64C 93.6605,63.0041 95.3272,61.5041 96.5,59.5 Z"/></g>
<g><path style="opacity:1" fill="#6c6c6d" d="M 79.5,103.5 C 82.0201,104.188 84.5201,105.188 87,106.5C 87.4974,109.146 87.6641,111.813 87.5,114.5C 85.597,114.204 83.9303,113.537 82.5,112.5C 83.8333,112.5 85.1667,112.5 86.5,112.5C 86.4801,106.312 83.4801,104.312 77.5,106.5C 76.9836,105.242 77.6503,104.242 79.5,103.5 Z"/></g>
<g><path style="opacity:1" fill="#dbdbdc" d="M 82.5,112.5 C 77.7561,112.772 76.0894,110.772 77.5,106.5C 83.4801,104.312 86.4801,106.312 86.5,112.5C 85.1667,112.5 83.8333,112.5 82.5,112.5 Z"/></g>
<g><path style="opacity:1" fill="#747475" d="M 115.5,104.5 C 116.434,105.568 116.768,106.901 116.5,108.5C 114.585,108.784 112.919,108.451 111.5,107.5C 112.833,107.5 114.167,107.5 115.5,107.5C 115.5,106.5 115.5,105.5 115.5,104.5 Z"/></g>
<g><path style="opacity:1" fill="#89898b" d="M 95.5,112.5 C 95.1667,112.5 94.8333,112.5 94.5,112.5C 94.238,111.022 94.5713,109.689 95.5,108.5C 96.782,109.958 96.782,111.292 95.5,112.5 Z"/></g>
<g><path style="opacity:1" fill="#7f7f80" d="M 98.5,115.5 C 98.1667,115.5 97.8333,115.5 97.5,115.5C 97.3359,112.813 97.5026,110.146 98,107.5C 99.4764,110.265 99.6431,112.932 98.5,115.5 Z"/></g>
<g><path style="opacity:1" fill="#211f22" d="M 142.5,74.5 C 157.399,72.5641 163.566,78.8974 161,93.5C 155.956,110.892 144.456,119.392 126.5,119C 118.977,114.44 116.644,107.94 119.5,99.5C 120.451,98.6744 121.451,98.5078 122.5,99C 123.095,103.529 123.928,108.029 125,112.5C 128.762,115.875 132.928,116.375 137.5,114C 150.961,108.219 157.461,98.0526 157,83.5C 150.682,77.0168 144.182,76.8501 137.5,83C 137.95,84.2853 138.617,85.452 139.5,86.5C 134.623,88.3027 129.623,89.636 124.5,90.5C 125.647,85.5586 127.48,80.8919 130,76.5C 131.019,77.6872 132.186,78.6872 133.5,79.5C 136.433,77.5376 139.433,75.8709 142.5,74.5 Z"/></g>
</svg>
