<?xml version="1.0" encoding="UTF-8"?>
<!DOCTYPE svg PUBLIC "-//W3C//DTD SVG 1.1//EN" "http://www.w3.org/Graphics/SVG/1.1/DTD/svg11.dtd">
<svg xmlns="http://www.w3.org/2000/svg" version="1.1" width="265px" height="222px" style="shape-rendering:geometricPrecision; text-rendering:geometricPrecision; image-rendering:optimizeQuality; fill-rule:evenodd; clip-rule:evenodd" xmlns:xlink="http://www.w3.org/1999/xlink">
<g><path style="opacity:1" fill="#f5f4f4" d="M -0.5,-0.5 C 87.8333,-0.5 176.167,-0.5 264.5,-0.5C 264.5,73.5 264.5,147.5 264.5,221.5C 176.167,221.5 87.8333,221.5 -0.5,221.5C -0.5,147.5 -0.5,73.5 -0.5,-0.5 Z"/></g>
<g><path style="opacity:1" fill="#565657" d="M 152.5,47.5 C 150.233,47.1455 148.899,47.4789 148.5,48.5C 148.34,50.1992 148.506,51.8659 149,53.5C 149.671,54.2524 150.504,54.5858 151.5,54.5C 151.068,55.7095 150.401,56.7095 149.5,57.5C 148.928,55.7446 148.094,54.0779 147,52.5C 146.333,51.1667 145.667,51.1667 145,52.5C 144.188,56.6888 144.355,60.6888 145.5,64.5C 145.44,65.0431 145.107,65.3764 144.5,65.5C 143.832,62.6944 143.166,60.0277 142.5,57.5C 142.062,54.1066 142.895,51.1066 145,48.5C 147.357,46.3542 149.857,46.0209 152.5,47.5 Z"/></g>
<g><path style="opacity:1" fill="#e2e2e2" d="M 148.5,48.5 C 152.677,47.8416 154.177,49.5082 153,53.5C 152.617,54.056 152.117,54.3893 151.5,54.5C 150.504,54.5858 149.671,54.2524 149,53.5C 148.506,51.8659 148.34,50.1992 148.5,48.5 Z"/></g>
<g><path style="opacity:1" fill="#f1b684" d="M 81.5,51.5 C 83.0348,50.2121 84.7015,50.2121 86.5,51.5C 86.3764,52.1067 86.0431,52.44 85.5,52.5C 84.4324,51.5655 83.099,51.2322 81.5,51.5 Z"/></g>
<g><path style="opacity:1" fill="#eb7818" d="M 81.5,51.5 C 83.099,51.2322 84.4324,51.5655 85.5,52.5C 83.6995,57.2293 81.6995,61.896 79.5,66.5C 77.8513,65.3523 76.3513,64.019 75,62.5C 67.3544,67.6454 60.8544,73.9788 55.5,81.5C 65.8929,94.2857 73.0595,108.619 77,124.5C 75.6667,125.833 74.3333,125.833 73,124.5C 68.3328,110.161 61.3328,97.1607 52,85.5C 42.7465,97.2372 35.7465,110.237 31,124.5C 28.5237,126.063 27.0237,125.396 26.5,122.5C 31.4972,107.501 38.8306,93.8344 48.5,81.5C 43.4268,74.0914 37.0935,68.0914 29.5,63.5C 27.9644,64.2485 26.6311,65.2485 25.5,66.5C 23.027,61.7211 20.6937,56.8877 18.5,52C 24.1797,51.7411 29.8463,52.0744 35.5,53C 33.3347,54.8974 32.6681,57.064 33.5,59.5C 40.1376,64.6369 46.3043,70.3036 52,76.5C 57.9663,70.2027 64.2996,64.2027 71,58.5C 71.3334,56.9532 70.8334,55.6199 69.5,54.5C 73.2277,52.6518 77.2277,51.6518 81.5,51.5 Z"/></g>
<g><path style="opacity:1" fill="#e8e7e8" d="M 149.5,57.5 C 148.42,59.9962 147.086,62.3295 145.5,64.5C 144.355,60.6888 144.188,56.6888 145,52.5C 145.667,51.1667 146.333,51.1667 147,52.5C 148.094,54.0779 148.928,55.7446 149.5,57.5 Z"/></g>
<g><path style="opacity:1" fill="#969496" d="M 175.5,85.5 C 176.167,86.5 176.833,87.5 177.5,88.5C 177.443,89.609 177.11,90.609 176.5,91.5C 174.805,90.9886 173.139,90.3219 171.5,89.5C 172.689,88.5713 174.022,88.238 175.5,88.5C 175.5,87.5 175.5,86.5 175.5,85.5 Z"/></g>
<g><path style="opacity:1" fill="#2c2b2d" d="M 187.5,113.5 C 188.833,114.167 190.167,114.833 191.5,115.5C 189.517,115.157 188.183,115.824 187.5,117.5C 186.833,115.833 186.167,114.167 185.5,112.5C 186.686,111.039 186.686,109.705 185.5,108.5C 184.909,107.849 184.243,107.182 183.5,106.5C 183.938,105.494 184.604,105.494 185.5,106.5C 186.833,105.167 186.833,103.833 185.5,102.5C 183.456,104.219 181.456,105.886 179.5,107.5C 178.833,110.5 178.167,113.5 177.5,116.5C 177.5,112.167 177.5,107.833 177.5,103.5C 178.833,99.8333 178.833,96.1667 177.5,92.5C 177.5,91.8333 177.167,91.5 176.5,91.5C 177.11,90.609 177.443,89.609 177.5,88.5C 178.5,88.5 179.5,88.5 180.5,88.5C 180.247,86.1727 180.914,84.1727 182.5,82.5C 185.109,81.7695 187.776,81.2695 190.5,81C 194.344,78.578 198.01,75.9113 201.5,73C 209.484,72.4505 211.984,75.9505 209,83.5C 202.148,88.9294 195.481,94.5961 189,100.5C 187.925,104.77 187.425,109.103 187.5,113.5 Z"/></g>
<g><path style="opacity:1" fill="#7c7a7d" d="M 184.5,82.5 C 185.675,82.281 186.675,82.6143 187.5,83.5C 182.901,87.5996 181.901,87.2663 184.5,82.5 Z"/></g>
<g><path style="opacity:1" fill="#ececec" d="M 181.5,103.5 C 180.833,100.5 180.167,97.5 179.5,94.5C 179.215,92.712 179.548,91.0453 180.5,89.5C 188.188,85.6421 195.188,80.8087 201.5,75C 207,73.8333 209.167,76 208,81.5C 199.877,89.7991 191.043,97.1324 181.5,103.5 Z"/></g>
<g><path style="opacity:1" fill="#787778" d="M 177.5,92.5 C 178.833,96.1667 178.833,99.8333 177.5,103.5C 177.5,101.5 177.5,99.5 177.5,97.5C 174.821,97.3274 172.487,96.3274 170.5,94.5C 170.833,94.1667 171.167,93.8333 171.5,93.5C 173.001,94.7515 174.668,95.7515 176.5,96.5C 177.429,95.3112 177.762,93.9778 177.5,92.5 Z"/></g>
<g><path style="opacity:1" fill="#979798" d="M 179.5,94.5 C 180.167,97.5 180.833,100.5 181.5,103.5C 181.44,104.043 181.107,104.376 180.5,104.5C 179.513,101.232 179.18,97.8984 179.5,94.5 Z"/></g>
<g><path style="opacity:1" fill="#3a393b" d="M 185.5,112.5 C 186.167,114.167 186.833,115.833 187.5,117.5C 186.706,120.802 186.04,124.135 185.5,127.5C 190.86,125.99 196.193,124.157 201.5,122C 204.783,120.439 207.617,118.273 210,115.5C 211.067,112.402 210.067,110.402 207,109.5C 201.784,111.405 196.617,113.405 191.5,115.5C 190.167,114.833 188.833,114.167 187.5,113.5C 194.2,112.238 200.7,110.238 207,107.5C 213.035,109.645 214.035,113.312 210,118.5C 203.139,124.066 195.306,127.4 186.5,128.5C 186.279,143.244 187.112,157.911 189,172.5C 191.275,179.372 193.108,186.372 194.5,193.5C 194.167,194.5 193.833,195.5 193.5,196.5C 191.485,188.106 189.318,179.773 187,171.5C 184.49,151.889 183.99,132.222 185.5,112.5 Z"/></g>
<g><path style="opacity:1" fill="#e8e8e8" d="M 187.5,117.5 C 188.183,115.824 189.517,115.157 191.5,115.5C 196.617,113.405 201.784,111.405 207,109.5C 210.067,110.402 211.067,112.402 210,115.5C 207.617,118.273 204.783,120.439 201.5,122C 196.193,124.157 190.86,125.99 185.5,127.5C 186.04,124.135 186.706,120.802 187.5,117.5 Z"/></g>
<g><path style="opacity:1" fill="#6d6d6e" d="M 185.5,108.5 C 186.686,109.705 186.686,111.039 185.5,112.5C 183.554,111.746 182.721,110.412 183,108.5C 184.392,110.842 185.225,110.842 185.5,108.5 Z"/></g>
<g><path style="opacity:1" fill="#575657" d="M 179.5,107.5 C 179.826,111.884 179.492,116.217 178.5,120.5C 177.571,119.311 177.238,117.978 177.5,116.5C 178.167,113.5 178.833,110.5 179.5,107.5 Z"/></g>
<g><path style="opacity:1" fill="#363637" d="M 167.5,59.5 C 165.138,64.0435 162.138,68.2101 158.5,72C 160.279,71.956 161.945,71.2893 163.5,70C 164.896,66.6953 166.896,63.862 169.5,61.5C 170.552,61.6495 171.552,61.4828 172.5,61C 176.131,57.1901 180.131,53.8568 184.5,51C 193.744,49.2379 196.91,52.7379 194,61.5C 188.667,66.8333 183.333,72.1667 178,77.5C 177.501,81.1516 177.335,84.8183 177.5,88.5C 176.833,87.5 176.167,86.5 175.5,85.5C 175.66,83.8008 175.494,82.1341 175,80.5C 171.669,85.1277 168.336,89.7944 165,94.5C 164.09,99.6644 164.59,104.664 166.5,109.5C 166.167,110.167 165.833,110.833 165.5,111.5C 164.21,109.343 163.376,107.01 163,104.5C 162.469,98.8291 161.969,93.1625 161.5,87.5C 159.833,87.5 158.167,87.5 156.5,87.5C 157.568,86.5655 158.901,86.2322 160.5,86.5C 160.879,82.4238 159.879,78.7571 157.5,75.5C 154.956,76.7348 154.956,77.9015 157.5,79C 153.482,79.8635 151.482,82.3635 151.5,86.5C 150.108,89.0067 149.108,91.6733 148.5,94.5C 147.517,98.2984 147.183,102.298 147.5,106.5C 146.5,106.5 145.5,106.5 144.5,106.5C 140.94,100.586 138.274,94.2527 136.5,87.5C 136.068,86.2905 135.401,85.2905 134.5,84.5C 134.5,84.1667 134.5,83.8333 134.5,83.5C 134.068,82.2905 133.401,81.2905 132.5,80.5C 130.449,77.5658 128.782,74.3991 127.5,71C 125.5,70.6667 123.5,70.3333 121.5,70C 126.381,69.4956 127.714,66.9956 125.5,62.5C 125.158,61.6618 124.492,61.3284 123.5,61.5C 124.022,55.6683 121.688,53.6683 116.5,55.5C 115.5,55.8333 114.833,56.5 114.5,57.5C 114.777,69.2793 117.277,80.6127 122,91.5C 127.109,94.6097 130.776,98.943 133,104.5C 133.159,112.878 132.493,121.211 131,129.5C 128.224,134.408 126.891,139.741 127,145.5C 125.756,142.362 125.089,139.028 125,135.5C 120.586,130.344 116.919,124.677 114,118.5C 109.354,112.147 103.187,108.98 95.5,109C 94.6919,109.308 94.0253,109.808 93.5,110.5C 95.9688,111.168 98.3021,111.835 100.5,112.5C 98.4727,112.338 96.4727,112.505 94.5,113C 94.0803,116.978 95.9136,119.811 100,121.5C 102.54,120.793 103.707,119.127 103.5,116.5C 104.861,120.066 103.528,122.566 99.5,124C 100.794,126.087 101.961,128.254 103,130.5C 104.337,129.235 105.837,128.735 107.5,129C 105.939,129.941 104.605,131.108 103.5,132.5C 103.957,133.298 104.624,133.631 105.5,133.5C 108.06,138.277 110.893,142.944 114,147.5C 114.714,150.595 115.714,153.595 117,156.5C 124.709,167.9 133.375,178.567 143,188.5C 144.632,190.933 146.132,193.433 147.5,196C 147.026,197.608 146.359,197.774 145.5,196.5C 143.667,193.5 141.833,190.5 140,187.5C 135.659,184.325 131.826,180.658 128.5,176.5C 122.026,182.142 116.859,188.809 113,196.5C 112.107,197.711 111.274,197.711 110.5,196.5C 114.847,187.988 120.514,180.488 127.5,174C 123.462,168.096 119.295,162.262 115,156.5C 112.991,149.482 109.657,143.148 105,137.5C 92.3966,155.785 77.8966,172.618 61.5,188C 58.1667,190.667 54.8333,193.333 51.5,196C 50.2411,196.982 48.9078,197.315 47.5,197C 66.3139,181.185 83.4805,163.685 99,144.5C 100.38,141.572 101.88,138.738 103.5,136C 99.985,128.472 95.8183,121.305 91,114.5C 91.768,106.565 95.9346,104.398 103.5,108C 106.009,109.421 108.343,111.088 110.5,113C 111.635,113.749 112.635,113.583 113.5,112.5C 115.638,107.211 114.471,102.878 110,99.5C 109.514,93.4837 112.347,90.4837 118.5,90.5C 116.982,83.1084 115.149,75.775 113,68.5C 112.333,64.1667 112.333,59.8333 113,55.5C 115.823,52.4288 119.156,51.7621 123,53.5C 127.19,61.5761 130.69,69.9094 133.5,78.5C 135.474,74.6921 138.308,71.6921 142,69.5C 142.499,65.5138 142.666,61.5138 142.5,57.5C 143.166,60.0277 143.832,62.6944 144.5,65.5C 145.107,65.3764 145.44,65.0431 145.5,64.5C 147.086,62.3295 148.42,59.9962 149.5,57.5C 150.401,56.7095 151.068,55.7095 151.5,54.5C 152.117,54.3893 152.617,54.056 153,53.5C 154.177,49.5082 152.677,47.8416 148.5,48.5C 148.899,47.4789 150.233,47.1455 152.5,47.5C 153.531,48.355 154.697,49.0217 156,49.5C 162.219,44.6401 166.386,45.9735 168.5,53.5C 168.16,55.5122 167.827,57.5122 167.5,59.5 Z"/></g>
<g><path style="opacity:1" fill="#757575" d="M 105.5,133.5 C 107.771,131.734 109.937,129.734 112,127.5C 111.397,130.93 109.231,132.93 105.5,133.5 Z"/></g>
<g><path style="opacity:1" fill="#737373" d="M 100.5,112.5 C 102.262,113.262 103.262,114.596 103.5,116.5C 101.738,115.738 100.738,114.404 100.5,112.5 Z"/></g>
<g><path style="opacity:1" fill="#e7e7e7" d="M 100.5,112.5 C 100.738,114.404 101.738,115.738 103.5,116.5C 103.707,119.127 102.54,120.793 100,121.5C 95.9136,119.811 94.0803,116.978 94.5,113C 96.4727,112.505 98.4727,112.338 100.5,112.5 Z"/></g>
<g><path style="opacity:1" fill="#737373" d="M 117.5,109.5 C 120.195,110.884 121.195,112.884 120.5,115.5C 119.145,114.812 118.145,113.812 117.5,112.5C 117.5,111.5 117.5,110.5 117.5,109.5 Z"/></g>
<g><path style="opacity:1" fill="#bcbcbd" d="M 148.5,94.5 C 148.5,98.8333 148.5,103.167 148.5,107.5C 146.901,107.768 145.568,107.434 144.5,106.5C 145.5,106.5 146.5,106.5 147.5,106.5C 147.183,102.298 147.517,98.2984 148.5,94.5 Z"/></g>
<g><path style="opacity:1" fill="#79797a" d="M 116.5,101.5 C 120.64,103.902 120.973,106.236 117.5,108.5C 117.973,106.62 117.307,104.787 115.5,103C 116.056,102.617 116.389,102.117 116.5,101.5 Z"/></g>
<g><path style="opacity:1" fill="#ececec" d="M 117.5,112.5 C 118.145,113.812 119.145,114.812 120.5,115.5C 121.195,112.884 120.195,110.884 117.5,109.5C 117.5,109.167 117.5,108.833 117.5,108.5C 120.973,106.236 120.64,103.902 116.5,101.5C 111.421,99.9987 110.421,97.1654 113.5,93C 120.027,92.3443 125.193,94.8443 129,100.5C 130.722,103.611 131.555,106.944 131.5,110.5C 130.966,118.705 129.466,126.705 127,134.5C 123.089,129.678 119.422,124.678 116,119.5C 115.412,116.861 115.912,114.527 117.5,112.5 Z"/></g>
<g><path style="opacity:1" fill="#818081" d="M 134.5,84.5 C 135.401,85.2905 136.068,86.2905 136.5,87.5C 133.728,88.5912 130.895,89.5912 128,90.5C 127.5,90.1667 127,89.8333 126.5,89.5C 130.176,89.2625 132.843,87.5959 134.5,84.5 Z"/></g>
<g><path style="opacity:1" fill="#737373" d="M 132.5,80.5 C 133.401,81.2905 134.068,82.2905 134.5,83.5C 130.975,83.4781 127.642,83.9781 124.5,85C 127.266,83.4163 129.933,81.9163 132.5,80.5 Z"/></g>
<g><path style="opacity:1" fill="#c2c2c2" d="M 156.5,87.5 C 154.883,86.962 153.216,86.6287 151.5,86.5C 151.482,82.3635 153.482,79.8635 157.5,79C 154.956,77.9015 154.956,76.7348 157.5,75.5C 159.879,78.7571 160.879,82.4238 160.5,86.5C 158.901,86.2322 157.568,86.5655 156.5,87.5 Z"/></g>
<g><path style="opacity:1" fill="#cbcbcb" d="M 167.5,59.5 C 167.5,60.8333 168.167,61.5 169.5,61.5C 166.896,63.862 164.896,66.6953 163.5,70C 161.945,71.2893 160.279,71.956 158.5,72C 162.138,68.2101 165.138,64.0435 167.5,59.5 Z"/></g>
<g><path style="opacity:1" fill="#7e7e7f" d="M 116.5,55.5 C 116.373,60.3731 118.706,62.3731 123.5,61.5C 124.492,61.3284 125.158,61.6618 125.5,62.5C 120.193,64.3455 116.526,62.6788 114.5,57.5C 114.833,56.5 115.5,55.8333 116.5,55.5 Z"/></g>
<g><path style="opacity:1" fill="#ebebeb" d="M 123.5,61.5 C 118.706,62.3731 116.373,60.3731 116.5,55.5C 121.688,53.6683 124.022,55.6683 123.5,61.5 Z"/></g>
<g><path style="opacity:1" fill="#ededed" d="M 185.5,52.5 C 191.496,51.3327 193.996,53.6661 193,59.5C 185.694,66.8063 178.36,74.1396 171,81.5C 168.916,85.3359 166.583,89.0026 164,92.5C 162.805,86.1264 161.805,79.7931 161,73.5C 169.359,66.6352 177.525,59.6352 185.5,52.5 Z"/></g>
<g><path style="opacity:1" fill="#eeeeee" d="M 160.5,48.5 C 165.989,48.504 167.822,51.1707 166,56.5C 165.275,58.9494 164.275,61.2827 163,63.5C 158.504,69.1559 154.504,75.1559 151,81.5C 149.127,86.9537 146.96,92.287 144.5,97.5C 145.544,99.7676 145.711,102.101 145,104.5C 141.638,96.7467 138.471,88.9134 135.5,81C 137.839,75.6531 141.339,71.1531 146,67.5C 149.41,59.9794 154.244,53.6461 160.5,48.5 Z"/></g>
</svg>
