<?xml version="1.0" encoding="UTF-8"?>
<!DOCTYPE svg PUBLIC "-//W3C//DTD SVG 1.1//EN" "http://www.w3.org/Graphics/SVG/1.1/DTD/svg11.dtd">
<svg xmlns="http://www.w3.org/2000/svg" version="1.1" width="262px" height="157px" style="shape-rendering:geometricPrecision; text-rendering:geometricPrecision; image-rendering:optimizeQuality; fill-rule:evenodd; clip-rule:evenodd" xmlns:xlink="http://www.w3.org/1999/xlink">
<g><path style="opacity:1" fill="#eaeaea" d="M -0.5,-0.5 C 86.8333,-0.5 174.167,-0.5 261.5,-0.5C 261.5,51.8333 261.5,104.167 261.5,156.5C 174.167,156.5 86.8333,156.5 -0.5,156.5C -0.5,104.167 -0.5,51.8333 -0.5,-0.5 Z"/></g>
<g><path style="opacity:1" fill="#4e4d4e" d="M 171.5,27.5 C 171.565,27.9382 171.399,28.2716 171,28.5C 170.768,27.2625 170.268,26.2625 169.5,25.5C 169.72,22.5995 169.054,19.9329 167.5,17.5C 166.232,19.3043 165.565,21.3043 165.5,23.5C 164.378,21.7116 164.211,19.7116 165,17.5C 166.494,16.2528 167.994,16.2528 169.5,17.5C 170.551,20.757 171.218,24.0903 171.5,27.5 Z"/></g>
<g><path style="opacity:1" fill="#c4c4c5" d="M 177.5,17.5 C 176.833,20.1667 176.167,20.1667 175.5,17.5C 176.167,13.5 176.833,13.5 177.5,17.5 Z"/></g>
<g><path style="opacity:1" fill="#e4e4e4" d="M 178.5,20.5 C 178.975,23.0821 178.308,25.0821 176.5,26.5C 175.539,24.7354 175.205,22.7354 175.5,20.5C 176.5,20.5 177.5,20.5 178.5,20.5 Z"/></g>
<g><path style="opacity:1" fill="#b2b1b2" d="M 169.5,25.5 C 169.179,27.0481 168.179,27.7148 166.5,27.5C 166.768,25.901 166.434,24.5676 165.5,23.5C 165.565,21.3043 166.232,19.3043 167.5,17.5C 169.054,19.9329 169.72,22.5995 169.5,25.5 Z"/></g>
<g><path style="opacity:1" fill="#201e22" d="M 44.5,1.5 C 58.6057,9.93758 68.2724,21.9376 73.5,37.5C 74.9305,37.5792 76.2638,37.2458 77.5,36.5C 78.1128,40.8552 77.6128,45.1886 76,49.5C 73.116,46.315 69.9493,43.4816 66.5,41C 67.7588,40.0766 69.0921,39.2432 70.5,38.5C 64.795,24.7708 55.9616,13.4374 44,4.5C 43.5304,3.42317 43.6971,2.42317 44.5,1.5 Z"/></g>
<g><path style="opacity:1" fill="#4e4e4f" d="M 193.5,46.5 C 193.316,49.1731 192.149,49.8398 190,48.5C 189.337,43.4626 189.504,38.4626 190.5,33.5C 189.167,33.5 187.833,33.5 186.5,33.5C 186.167,35.5 185.833,37.5 185.5,39.5C 184.5,39.5 183.5,39.5 182.5,39.5C 183.082,35.6845 182.248,32.3512 180,29.5C 179.517,30.448 179.351,31.448 179.5,32.5C 178.522,30.5439 177.522,28.5439 176.5,26.5C 178.308,25.0821 178.975,23.0821 178.5,20.5C 178.737,19.209 178.404,18.209 177.5,17.5C 176.833,13.5 176.167,13.5 175.5,17.5C 174.596,16.791 174.263,15.791 174.5,14.5C 175.585,12.4178 177.085,12.0844 179,13.5C 179.583,17.8321 180.083,22.1654 180.5,26.5C 181.675,26.719 182.675,26.3857 183.5,25.5C 184.213,23.2241 184.713,20.8907 185,18.5C 187.647,15.6386 189.48,16.1386 190.5,20C 189.45,23.4551 189.283,26.9551 190,30.5C 190.414,30.9574 190.914,31.2907 191.5,31.5C 193.167,30.1667 194.833,28.8333 196.5,27.5C 198.283,28.3482 198.783,29.6815 198,31.5C 196,34.8333 194,38.1667 192,41.5C 191.833,42.3333 191.667,43.1667 191.5,44C 191.684,45.3756 192.351,46.2089 193.5,46.5 Z"/></g>
<g><path style="opacity:1" fill="#ecebed" d="M 185.5,24.5 C 187.048,24.8212 187.715,25.8212 187.5,27.5C 187.5,27.8333 187.5,28.1667 187.5,28.5C 186.508,28.6716 185.842,28.3382 185.5,27.5C 185.5,26.5 185.5,25.5 185.5,24.5 Z"/></g>
<g><path style="opacity:1" fill="#a1a1a2" d="M 187.5,27.5 C 187.715,25.8212 187.048,24.8212 185.5,24.5C 185.247,22.1727 185.914,20.1727 187.5,18.5C 188.803,21.6447 188.803,24.6447 187.5,27.5 Z"/></g>
<g><path style="opacity:1" fill="#727273" d="M 174.5,14.5 C 174.263,15.791 174.596,16.791 175.5,17.5C 176.167,20.1667 176.833,20.1667 177.5,17.5C 178.404,18.209 178.737,19.209 178.5,20.5C 177.5,20.5 176.5,20.5 175.5,20.5C 175.205,22.7354 175.539,24.7354 176.5,26.5C 177.522,28.5439 178.522,30.5439 179.5,32.5C 179.768,34.099 179.434,35.4324 178.5,36.5C 177.085,33.9974 175.918,31.3307 175,28.5C 174.421,29.9285 174.588,31.2618 175.5,32.5C 174.5,32.5 173.5,32.5 172.5,32.5C 172.5,33.8333 172.5,35.1667 172.5,36.5C 171.839,37.7175 171.172,39.0508 170.5,40.5C 169.893,40.3764 169.56,40.0431 169.5,39.5C 170.479,36.3752 170.813,33.0419 170.5,29.5C 169.5,29.5 168.5,29.5 167.5,29.5C 166.662,29.1583 166.328,28.4916 166.5,27.5C 168.179,27.7148 169.179,27.0481 169.5,25.5C 170.268,26.2625 170.768,27.2625 171,28.5C 171.399,28.2716 171.565,27.9382 171.5,27.5C 172.117,27.6107 172.617,27.944 173,28.5C 173.174,23.6486 173.674,18.9819 174.5,14.5 Z"/></g>
<g><path style="opacity:1" fill="#959496" d="M 185.5,27.5 C 185.842,28.3382 186.508,28.6716 187.5,28.5C 187.371,30.2161 187.038,31.8828 186.5,33.5C 185.778,33.9175 185.278,34.5842 185,35.5C 184.199,32.633 184.366,29.9664 185.5,27.5 Z"/></g>
<g><path style="opacity:1" fill="#e2e2e2" d="M 167.5,29.5 C 168.5,29.5 169.5,29.5 170.5,29.5C 170.813,33.0419 170.479,36.3752 169.5,39.5C 168.833,36.1667 168.167,32.8333 167.5,29.5 Z"/></g>
<g><path style="opacity:1" fill="#a5a5a7" d="M 195.5,29.5 C 196.239,29.369 196.906,29.5357 197.5,30C 196,32.1667 194.5,34.3333 193,36.5C 192.333,35.1667 192.333,33.8333 193,32.5C 194.045,31.6266 194.878,30.6266 195.5,29.5 Z"/></g>
<g><path style="opacity:1" fill="#3f3e40" d="M 123.5,44.5 C 122.523,47.2869 122.19,50.2869 122.5,53.5C 121.523,50.7131 121.19,47.7131 121.5,44.5C 121.725,39.752 121.225,35.0853 120,30.5C 116.159,29.0052 114.826,30.3385 116,34.5C 117.302,35.0848 118.469,35.7515 119.5,36.5C 117.856,36.7135 116.356,36.3802 115,35.5C 114.502,38.4816 114.335,41.4816 114.5,44.5C 114.5,49.1667 114.5,53.8333 114.5,58.5C 113.834,55.6417 113.167,52.6417 112.5,49.5C 111.893,49.6236 111.56,49.9569 111.5,50.5C 111.167,50.5 110.833,50.5 110.5,50.5C 108.735,49.5386 106.735,49.2053 104.5,49.5C 104.5,50.8333 104.5,52.1667 104.5,53.5C 103.133,50.9882 103.466,48.6548 105.5,46.5C 105.5,45.8333 105.167,45.5 104.5,45.5C 107.947,43.7068 110.447,44.7068 112,48.5C 112.333,42.5 112.667,36.5 113,30.5C 116.649,26.4016 119.982,26.7349 123,31.5C 123.499,35.8206 123.666,40.1539 123.5,44.5 Z"/></g>
<g><path style="opacity:1" fill="#424143" d="M 178.5,36.5 C 178.294,38.5492 177.461,38.8825 176,37.5C 175.506,35.8659 175.34,34.1992 175.5,32.5C 174.588,31.2618 174.421,29.9285 175,28.5C 175.918,31.3307 177.085,33.9974 178.5,36.5 Z"/></g>
<g><path style="opacity:1" fill="#cacacb" d="M 121.5,44.5 C 119.167,44.5 116.833,44.5 114.5,44.5C 114.335,41.4816 114.502,38.4816 115,35.5C 116.356,36.3802 117.856,36.7135 119.5,36.5C 118.469,35.7515 117.302,35.0848 116,34.5C 114.826,30.3385 116.159,29.0052 120,30.5C 121.225,35.0853 121.725,39.752 121.5,44.5 Z"/></g>
<g><path style="opacity:1" fill="#ededee" d="M 119.5,36.5 C 120.461,38.2646 120.795,40.2646 120.5,42.5C 118.833,42.5 117.167,42.5 115.5,42.5C 115.5,40.8333 115.5,39.1667 115.5,37.5C 117.099,37.7678 118.432,37.4345 119.5,36.5 Z"/></g>
<g><path style="opacity:1" fill="#9a9a9c" d="M 197.5,44.5 C 198.552,44.3505 199.552,44.5172 200.5,45C 199.269,46.4048 197.936,47.5714 196.5,48.5C 195.957,48.44 195.624,48.1067 195.5,47.5C 196.612,46.7348 197.279,45.7348 197.5,44.5 Z"/></g>
<g><path style="opacity:1" fill="#cdcdce" d="M 105.5,46.5 C 107.103,46.3118 108.437,46.8118 109.5,48C 107.537,48.8442 106.204,48.3442 105.5,46.5 Z"/></g>
<g><path style="opacity:1" fill="#515151" d="M 193.5,56.5 C 194.117,53.6446 195.117,50.9779 196.5,48.5C 197.936,47.5714 199.269,46.4048 200.5,45C 199.552,44.5172 198.552,44.3505 197.5,44.5C 195.938,44.7329 194.605,45.3995 193.5,46.5C 194.462,42.8539 196.795,41.6872 200.5,43C 201.022,43.5613 201.355,44.228 201.5,45C 198.955,49.0231 196.289,52.8564 193.5,56.5 Z"/></g>
<g><path style="opacity:1" fill="#302f32" d="M 141.5,86.5 C 142.978,83.6319 144.311,80.6319 145.5,77.5C 145.182,76.3527 144.516,75.5194 143.5,75C 146,74.1667 146.167,73 144,71.5C 140.635,73.563 138.802,76.563 138.5,80.5C 137.5,80.8333 136.833,81.5 136.5,82.5C 135.406,84.6121 134.406,86.7787 133.5,89C 132.256,89.4561 131.423,88.9561 131,87.5C 130.5,81.1754 130.334,74.8421 130.5,68.5C 130.01,65.3447 129.344,62.3447 128.5,59.5C 128.5,58.1667 128.5,56.8333 128.5,55.5C 127.167,55.5 125.833,55.5 124.5,55.5C 124.561,57.5922 125.561,59.0922 127.5,60C 126.552,60.4828 125.552,60.6495 124.5,60.5C 124.5,61.5 124.5,62.5 124.5,63.5C 123.087,66.2186 122.42,69.2186 122.5,72.5C 122.167,84.0806 120.001,84.4139 116,73.5C 115.503,71.1902 115.337,68.8568 115.5,66.5C 115.672,65.5084 115.338,64.8417 114.5,64.5C 113.5,61.1667 112.5,57.8333 111.5,54.5C 111.5,53.1667 111.5,51.8333 111.5,50.5C 111.56,49.9569 111.893,49.6236 112.5,49.5C 113.167,52.6417 113.834,55.6417 114.5,58.5C 114.5,59.1667 114.833,59.5 115.5,59.5C 115.232,61.099 115.566,62.4324 116.5,63.5C 116.949,68.968 118.116,74.3013 120,79.5C 120.561,70.7543 121.394,62.0876 122.5,53.5C 122.19,50.2869 122.523,47.2869 123.5,44.5C 123.5,46.1667 123.5,47.8333 123.5,49.5C 125.903,49.393 127.736,50.393 129,52.5C 129.36,54.6079 130.027,56.6079 131,58.5C 133.252,51.9046 135.252,45.2379 137,38.5C 139.966,35.7348 142.633,36.0682 145,39.5C 145.667,42.8333 145.667,46.1667 145,49.5C 143.83,56.1756 142.664,62.8423 141.5,69.5C 145.58,69.0807 147.58,70.914 147.5,75C 146.154,80.197 144.654,85.3637 143,90.5C 142.176,93.8823 142.343,97.2156 143.5,100.5C 149.03,96.471 154.697,92.6376 160.5,89C 163.5,88.3333 166.5,88.3333 169.5,89C 173.388,91.9324 173.388,94.9324 169.5,98C 160.437,102.9 152.77,109.4 146.5,117.5C 151.337,127.181 157.17,136.181 164,144.5C 164.982,145.759 165.315,147.092 165,148.5C 157.094,139.915 150.76,130.248 146,119.5C 144.333,117.833 142.667,116.167 141,114.5C 140.279,105.139 140.446,95.806 141.5,86.5 Z"/></g>
<g><path style="opacity:1" fill="#717172" d="M 142.5,39.5 C 144.413,42.04 144.746,44.7067 143.5,47.5C 143.649,46.448 143.483,45.448 143,44.5C 140.88,45.6053 138.713,45.6053 136.5,44.5C 136.842,43.6618 137.508,43.3284 138.5,43.5C 139.833,43.5 141.167,43.5 142.5,43.5C 142.5,42.1667 142.5,40.8333 142.5,39.5 Z"/></g>
<g><path style="opacity:1" fill="#dfdfe0" d="M 142.5,39.5 C 142.5,40.8333 142.5,42.1667 142.5,43.5C 141.167,43.5 139.833,43.5 138.5,43.5C 137.839,39.4828 139.172,38.1495 142.5,39.5 Z"/></g>
<g><path style="opacity:1" fill="#515152" d="M 165.5,23.5 C 166.434,24.5676 166.768,25.901 166.5,27.5C 166.328,28.4916 166.662,29.1583 167.5,29.5C 168.167,32.8333 168.833,36.1667 169.5,39.5C 169.56,40.0431 169.893,40.3764 170.5,40.5C 171.172,39.0508 171.839,37.7175 172.5,36.5C 172.5,38.5 172.5,40.5 172.5,42.5C 170.088,42.756 168.421,41.756 167.5,39.5C 167.167,40.1667 166.833,40.8333 166.5,41.5C 171.045,53.0276 169.878,64.0276 163,74.5C 162.346,75.6956 161.846,75.6956 161.5,74.5C 163.598,69.3726 165.598,64.206 167.5,59C 163.416,52.1628 159.082,45.4962 154.5,39C 154.734,37.2676 155.734,36.4342 157.5,36.5C 160.214,36.9404 162.38,38.2738 164,40.5C 164.81,38.6942 165.976,37.1942 167.5,36C 166.042,31.9573 165.375,27.7906 165.5,23.5 Z"/></g>
<g><path style="opacity:1" fill="#d8d8d9" d="M 156.5,38.5 C 157.873,38.3433 159.207,38.51 160.5,39C 163.491,41.9904 165.657,45.4904 167,49.5C 167.667,51.5 167.667,53.5 167,55.5C 163.652,51.8023 161.652,47.469 161,42.5C 160.586,42.9574 160.086,43.2907 159.5,43.5C 158.305,41.8794 157.305,40.2128 156.5,38.5 Z"/></g>
<g><path style="opacity:1" fill="#242326" d="M 47.5,23.5 C 49.0744,23.9371 50.2411,24.9371 51,26.5C 52.2467,29.3286 53.7467,31.9952 55.5,34.5C 53.9547,35.4519 52.288,35.7852 50.5,35.5C 50.2804,41.9696 51.1137,48.303 53,54.5C 56.5938,63.3471 60.4271,72.0137 64.5,80.5C 62.6096,80.7035 61.1096,80.0368 60,78.5C 51.5622,65.0214 47.0622,50.3548 46.5,34.5C 45.0222,34.762 43.6888,34.4287 42.5,33.5C 44.705,30.4234 46.3716,27.0901 47.5,23.5 Z"/></g>
<g><path style="opacity:1" fill="#939394" d="M 110.5,50.5 C 110.833,50.5 111.167,50.5 111.5,50.5C 111.5,51.8333 111.5,53.1667 111.5,54.5C 109.396,54.7989 107.396,54.4656 105.5,53.5C 107.655,52.9986 109.322,51.9986 110.5,50.5 Z"/></g>
<g><path style="opacity:1" fill="#dfdfe0" d="M 124.5,51.5 C 126.332,52.1405 126.665,53.1405 125.5,54.5C 124.614,53.675 124.281,52.675 124.5,51.5 Z"/></g>
<g><path style="opacity:1" fill="#dededf" d="M 136.5,44.5 C 138.713,45.6053 140.88,45.6053 143,44.5C 143.483,45.448 143.649,46.448 143.5,47.5C 141.88,60.7021 138.547,73.3688 133.5,85.5C 132.521,82.3752 132.187,79.0419 132.5,75.5C 132.677,71.7657 132.344,68.0991 131.5,64.5C 133.258,64.8769 134.925,65.5435 136.5,66.5C 136.833,66.1667 137.167,65.8333 137.5,65.5C 133.639,64.4024 133.639,63.5691 137.5,63C 137.167,62.6667 136.833,62.3333 136.5,62C 134.885,61.9378 133.552,61.7711 132.5,61.5C 133.991,55.8681 135.325,50.2015 136.5,44.5 Z"/></g>
<g><path style="opacity:1" fill="#747375" d="M 116.5,63.5 C 115.566,62.4324 115.232,61.099 115.5,59.5C 117.867,57.9277 119.867,58.261 121.5,60.5C 119.345,61.0014 117.678,62.0014 116.5,63.5 Z"/></g>
<g><path style="opacity:1" fill="#e3e3e4" d="M 128.5,59.5 C 128.5,61.8333 128.5,64.1667 128.5,66.5C 127.167,66.5 125.833,66.5 124.5,66.5C 124.5,65.5 124.5,64.5 124.5,63.5C 124.5,62.5 124.5,61.5 124.5,60.5C 125.552,60.6495 126.552,60.4828 127.5,60C 125.561,59.0922 124.561,57.5922 124.5,55.5C 125.833,55.5 127.167,55.5 128.5,55.5C 128.5,56.8333 128.5,58.1667 128.5,59.5 Z"/></g>
<g><path style="opacity:1" fill="#595959" d="M 193.5,56.5 C 192.174,59.7227 192.674,62.7227 195,65.5C 198.682,69.0152 202.182,72.6819 205.5,76.5C 204.998,77.521 204.332,77.6877 203.5,77C 198.954,72.1226 194.787,66.956 191,61.5C 189.509,63.0037 187.676,63.8371 185.5,64C 184.696,65.7713 183.529,67.2713 182,68.5C 181.761,71.697 182.928,74.3637 185.5,76.5C 185.167,76.8333 184.833,77.1667 184.5,77.5C 183.167,75.8333 181.833,74.1667 180.5,72.5C 179.409,74.0148 178.076,74.8481 176.5,75C 178.291,71.2486 180.457,67.7486 183,64.5C 184.491,62.9963 186.324,62.1629 188.5,62C 190.3,60.1881 191.967,58.3548 193.5,56.5 Z"/></g>
<g><path style="opacity:1" fill="#dcdbdc" d="M 114.5,44.5 C 116.833,44.5 119.167,44.5 121.5,44.5C 121.19,47.7131 121.523,50.7131 122.5,53.5C 121.394,62.0876 120.561,70.7543 120,79.5C 118.116,74.3013 116.949,68.968 116.5,63.5C 117.678,62.0014 119.345,61.0014 121.5,60.5C 119.867,58.261 117.867,57.9277 115.5,59.5C 114.833,59.5 114.5,59.1667 114.5,58.5C 114.5,53.8333 114.5,49.1667 114.5,44.5 Z"/></g>
<g><path style="opacity:1" fill="#8a8a8b" d="M 132.5,61.5 C 133.552,61.7711 134.885,61.9378 136.5,62C 136.833,62.3333 137.167,62.6667 137.5,63C 133.639,63.5691 133.639,64.4024 137.5,65.5C 137.167,65.8333 136.833,66.1667 136.5,66.5C 134.925,65.5435 133.258,64.8769 131.5,64.5C 131.263,63.209 131.596,62.209 132.5,61.5 Z"/></g>
<g><path style="opacity:1" fill="#777779" d="M 114.5,64.5 C 115.338,64.8417 115.672,65.5084 115.5,66.5C 112.899,66.3905 110.232,66.0571 107.5,65.5C 108.833,64.5 108.833,63.5 107.5,62.5C 109.045,61.5481 110.712,61.2148 112.5,61.5C 112.285,63.1788 112.952,64.1788 114.5,64.5 Z"/></g>
<g><path style="opacity:1" fill="#666568" d="M 84.5,58.5 C 84.3367,60.8568 84.5034,63.1902 85,65.5C 85.1909,63.2922 85.6909,61.2922 86.5,59.5C 86.5,61.8333 86.5,64.1667 86.5,66.5C 85.609,67.1098 84.609,67.4431 83.5,67.5C 83.5674,66.0413 83.2341,64.7079 82.5,63.5C 83.1667,61.8333 83.8333,60.1667 84.5,58.5 Z"/></g>
<g><path style="opacity:1" fill="#abaaac" d="M 128.5,59.5 C 129.344,62.3447 130.01,65.3447 130.5,68.5C 124.558,68.2116 124.225,69.0449 129.5,71C 127.765,71.6514 126.098,71.4847 124.5,70.5C 123.818,71.2427 123.151,71.9094 122.5,72.5C 122.42,69.2186 123.087,66.2186 124.5,63.5C 124.5,64.5 124.5,65.5 124.5,66.5C 125.833,66.5 127.167,66.5 128.5,66.5C 128.5,64.1667 128.5,61.8333 128.5,59.5 Z"/></g>
<g><path style="opacity:1" fill="#8a8a8c" d="M 94.5,66.5 C 95.8897,67.8993 96.8897,69.5659 97.5,71.5C 95.326,71.9202 93.326,71.9202 91.5,71.5C 91.1667,70.8333 90.8333,70.1667 90.5,69.5C 92.3316,68.9432 93.6649,67.9432 94.5,66.5 Z"/></g>
<g><path style="opacity:1" fill="#353437" d="M 104.5,45.5 C 105.167,45.5 105.5,45.8333 105.5,46.5C 103.466,48.6548 103.133,50.9882 104.5,53.5C 105.197,63.3416 106.364,73.0083 108,82.5C 106.333,83.8333 104.667,83.8333 103,82.5C 101.648,78.462 99.8145,74.7954 97.5,71.5C 96.8897,69.5659 95.8897,67.8993 94.5,66.5C 93.493,64.478 91.8263,63.1447 89.5,62.5C 90.5,61.8333 91.5,61.1667 92.5,60.5C 90.604,59.5344 88.604,59.2011 86.5,59.5C 85.6909,61.2922 85.1909,63.2922 85,65.5C 84.5034,63.1902 84.3367,60.8568 84.5,58.5C 85.8433,55.1513 88.1767,54.1513 91.5,55.5C 91.8333,54.6667 92.1667,53.8333 92.5,53C 91.3113,49.6003 90.6446,46.1003 90.5,42.5C 89.839,36.992 92.1723,34.8254 97.5,36C 98.3333,36.8333 99.1667,37.6667 100,38.5C 100.539,41.5285 101.206,44.5285 102,47.5C 102.708,46.6195 103.542,45.9528 104.5,45.5 Z"/></g>
<g><path style="opacity:1" fill="#d8d8d9" d="M 102.5,66.5 C 104.245,70.4586 105.578,74.7919 106.5,79.5C 106.167,80.1667 105.833,80.8333 105.5,81.5C 102.9,77.299 100.566,72.9656 98.5,68.5C 99.8333,67.8333 101.167,67.1667 102.5,66.5 Z"/></g>
<g><path style="opacity:1" fill="#9c9c9c" d="M 99.5,63.5 C 100.609,64.29 101.942,64.79 103.5,65C 102.944,65.3826 102.611,65.8826 102.5,66.5C 101.167,67.1667 99.8333,67.8333 98.5,68.5C 97.3263,67.4863 96.6596,66.153 96.5,64.5C 97.391,63.8902 98.391,63.5569 99.5,63.5 Z"/></g>
<g><path style="opacity:1" fill="#d0cfd1" d="M 87.5,56.5 C 88.675,56.281 89.675,56.6143 90.5,57.5C 88.9483,58.7979 87.9483,58.4646 87.5,56.5 Z"/></g>
<g><path style="opacity:1" fill="#dedede" d="M 93.5,43.5 C 95.017,44.7349 96.6837,44.7349 98.5,43.5C 100.988,49.9625 102.654,56.6292 103.5,63.5C 102.167,63.5 100.833,63.5 99.5,63.5C 98.391,63.5569 97.391,63.8902 96.5,64.5C 95.4894,58.1049 94.1561,51.7715 92.5,45.5C 92.5427,44.5836 92.8761,43.9169 93.5,43.5 Z"/></g>
<g><path style="opacity:1" fill="#e1e1e1" d="M 93.5,43.5 C 93.5,41.8333 93.5,40.1667 93.5,38.5C 94.8333,38.5 96.1667,38.5 97.5,38.5C 98.2436,41.9496 96.9103,43.6162 93.5,43.5 Z"/></g>
<g><path style="opacity:1" fill="#c8c8c9" d="M 141.5,86.5 C 141.972,83.6421 140.972,81.6421 138.5,80.5C 138.802,76.563 140.635,73.563 144,71.5C 146.167,73 146,74.1667 143.5,75C 144.516,75.5194 145.182,76.3527 145.5,77.5C 144.311,80.6319 142.978,83.6319 141.5,86.5 Z"/></g>
<g><path style="opacity:1" fill="#79787b" d="M 132.5,75.5 C 132.187,79.0419 132.521,82.3752 133.5,85.5C 133.44,86.0431 133.107,86.3764 132.5,86.5C 131.192,82.6853 131.192,79.0187 132.5,75.5 Z"/></g>
<g><path style="opacity:1" fill="#898989" d="M 138.5,80.5 C 140.972,81.6421 141.972,83.6421 141.5,86.5C 139.225,85.8888 137.559,84.5554 136.5,82.5C 136.833,81.5 137.5,80.8333 138.5,80.5 Z"/></g>
<g><path style="opacity:1" fill="#dededf" d="M 169.5,92.5 C 170.776,93.3864 170.776,94.3864 169.5,95.5C 168.378,96.6302 167.044,97.2969 165.5,97.5C 163.732,93.5891 165.065,91.9224 169.5,92.5 Z"/></g>
<g><path style="opacity:1" fill="#737374" d="M 167.5,90.5 C 168.833,90.5 169.5,91.1667 169.5,92.5C 165.065,91.9224 163.732,93.5891 165.5,97.5C 164.833,98.1667 164.167,98.8333 163.5,99.5C 161.377,94.8482 162.711,91.8482 167.5,90.5 Z"/></g>
<g><path style="opacity:1" fill="#e0e0e0" d="M 167.5,90.5 C 162.711,91.8482 161.377,94.8482 163.5,99.5C 162.395,100.6 161.062,101.267 159.5,101.5C 158.166,99.841 156.499,98.5076 154.5,97.5C 153.633,100.143 154.3,102.477 156.5,104.5C 152.494,107.839 148.827,111.506 145.5,115.5C 144.833,115.167 144.167,114.833 143.5,114.5C 142.167,110.5 142.167,106.5 143.5,102.5C 148.188,99.8222 152.521,96.6556 156.5,93C 159.923,91.0961 163.59,90.2628 167.5,90.5 Z"/></g>
<g><path style="opacity:1" fill="#949496" d="M 159.5,101.5 C 158.833,102.833 157.833,103.833 156.5,104.5C 154.3,102.477 153.633,100.143 154.5,97.5C 156.499,98.5076 158.166,99.841 159.5,101.5 Z"/></g>
<g><path style="opacity:1" fill="#343336" d="M 82.5,63.5 C 83.2341,64.7079 83.5674,66.0413 83.5,67.5C 84.609,67.4431 85.609,67.1098 86.5,66.5C 88.471,74.6375 90.971,82.6375 94,90.5C 94.9466,95.0405 94.4466,99.3738 92.5,103.5C 86.8809,98.5361 80.5475,94.8695 73.5,92.5C 71.0467,91.3549 68.7134,91.6883 66.5,93.5C 66.0246,96.3126 67.0246,98.3126 69.5,99.5C 70.2905,100.401 71.2905,101.068 72.5,101.5C 82.4633,109.166 91.4633,117.999 99.5,128C 103.232,129.969 107.232,130.969 111.5,131C 117.921,135.044 123.255,140.211 127.5,146.5C 127.167,146.833 126.833,147.167 126.5,147.5C 125.167,145.5 123.5,143.833 121.5,142.5C 119.844,144.46 118.177,146.46 116.5,148.5C 115.828,146.14 116.661,144.14 119,142.5C 119.667,141.5 119.667,140.5 119,139.5C 116.407,137.451 113.907,135.285 111.5,133C 104.019,133.009 97.8523,130.176 93,124.5C 90.2147,131.404 86.8813,138.071 83,144.5C 82.044,145.579 81.2106,146.745 80.5,148C 79.6683,148.688 79.0016,148.521 78.5,147.5C 84.1663,139.833 88.4996,131.5 91.5,122.5C 84.7995,113.156 76.4661,105.656 66.5,100C 62.5,97 62.5,94 66.5,91C 69.8333,90.3333 73.1667,90.3333 76.5,91C 80.6682,93.2497 84.6682,95.7497 88.5,98.5C 89.6023,95.8097 89.4356,93.1431 88,90.5C 84.0604,83.5637 79.727,76.8971 75,70.5C 73.0691,67.386 72.4024,64.0527 73,60.5C 73.804,59.1955 74.9707,58.5288 76.5,58.5C 79.1018,59.4344 81.1018,61.1011 82.5,63.5 Z"/></g>
<g><path style="opacity:1" fill="#6b6b6c" d="M 77.5,97.5 C 78.552,97.3505 79.552,97.5172 80.5,98C 77.5102,105.475 76.5102,105.309 77.5,97.5 Z"/></g>
<g><path style="opacity:1" fill="#e2e2e4" d="M 66.5,93.5 C 71.7224,93.5157 72.7224,95.5157 69.5,99.5C 67.0246,98.3126 66.0246,96.3126 66.5,93.5 Z"/></g>
<g><path style="opacity:1" fill="#767577" d="M 73.5,92.5 C 72.7611,92.369 72.0944,92.5357 71.5,93C 72.4438,95.7191 72.7771,98.5525 72.5,101.5C 71.2905,101.068 70.2905,100.401 69.5,99.5C 72.7224,95.5157 71.7224,93.5157 66.5,93.5C 68.7134,91.6883 71.0467,91.3549 73.5,92.5 Z"/></g>
<g><path style="opacity:1" fill="#727274" d="M 86.5,73.5 C 87.7682,75.9052 88.4349,78.5718 88.5,81.5C 87.448,81.6495 86.448,81.4828 85.5,81C 86.9561,80.5774 87.4561,79.7441 87,78.5C 86.2825,79.4506 85.4491,79.6172 84.5,79C 86.1554,77.5557 86.822,75.7224 86.5,73.5 Z"/></g>
<g><path style="opacity:1" fill="#dadadb" d="M 82.5,67.5 C 82.0629,69.0744 81.0629,70.2411 79.5,71C 81.1075,70.9813 82.7741,70.8146 84.5,70.5C 85.4013,71.2905 86.0679,72.2905 86.5,73.5C 86.822,75.7224 86.1554,77.5557 84.5,79C 85.4491,79.6172 86.2825,79.4506 87,78.5C 87.4561,79.7441 86.9561,80.5774 85.5,81C 86.448,81.4828 87.448,81.6495 88.5,81.5C 91.4301,86.4547 92.5968,91.788 92,97.5C 91.124,93.6595 89.7906,89.9928 88,86.5C 83.6368,80.302 79.4702,73.9687 75.5,67.5C 77.1487,66.3523 78.6487,65.019 80,63.5C 81.0946,64.6934 81.928,66.0267 82.5,67.5 Z"/></g>
<g><path style="opacity:1" fill="#767676" d="M 82.5,67.5 C 82.8333,67.5 83.1667,67.5 83.5,67.5C 83.5569,68.609 83.8902,69.609 84.5,70.5C 82.7741,70.8146 81.1075,70.9813 79.5,71C 81.0629,70.2411 82.0629,69.0744 82.5,67.5 Z"/></g>
<g><path style="opacity:1" fill="#d2d2d3" d="M 74.5,61.5 C 75.5,61.5 76.5,61.5 77.5,61.5C 77.5,62.5 77.5,63.5 77.5,64.5C 76.5,64.5 75.5,64.5 74.5,64.5C 74.5,63.5 74.5,62.5 74.5,61.5 Z"/></g>
</svg>
