<?xml version="1.0" encoding="UTF-8"?>
<!DOCTYPE svg PUBLIC "-//W3C//DTD SVG 1.1//EN" "http://www.w3.org/Graphics/SVG/1.1/DTD/svg11.dtd">
<svg xmlns="http://www.w3.org/2000/svg" version="1.1" width="261px" height="221px" style="shape-rendering:geometricPrecision; text-rendering:geometricPrecision; image-rendering:optimizeQuality; fill-rule:evenodd; clip-rule:evenodd" xmlns:xlink="http://www.w3.org/1999/xlink">
<g><path style="opacity:1" fill="#f5f5f5" d="M -0.5,-0.5 C 86.5,-0.5 173.5,-0.5 260.5,-0.5C 260.5,73.1667 260.5,146.833 260.5,220.5C 173.5,220.5 86.5,220.5 -0.5,220.5C -0.5,192.5 -0.5,164.5 -0.5,136.5C 11.1727,132.541 23.1727,131.041 35.5,132C 48.8226,139.494 63.1559,142.994 78.5,142.5C 80.6869,149.174 85.3535,152.674 92.5,153C 99.2001,156.583 105.367,160.75 111,165.5C 133.321,160.092 152.821,149.592 169.5,134C 174.106,130.967 179.106,129.967 184.5,131C 202.038,135.29 219.205,140.79 236,147.5C 238,146.833 238,146.167 236,145.5C 217.645,138.239 198.812,132.573 179.5,128.5C 176.302,128.622 173.302,129.455 170.5,131C 161.782,138.052 152.782,144.719 143.5,151C 133.5,155 123.5,159 113.5,163C 111.833,163.667 110.167,163.667 108.5,163C 105.967,159.969 103.3,157.136 100.5,154.5C 104.646,153.353 108.98,153.186 113.5,154C 112.289,154.893 112.289,155.726 113.5,156.5C 114.386,155.675 114.719,154.675 114.5,153.5C 119.363,153.819 124.03,153.486 128.5,152.5C 130.823,151.942 133.157,151.275 135.5,150.5C 132.682,149.12 130.015,149.287 127.5,151C 114.136,151.805 100.802,151.472 87.5,150C 80.947,147.27 78.7804,142.437 81,135.5C 81.6119,132.885 83.1119,131.219 85.5,130.5C 92.344,131.819 99.344,131.819 106.5,130.5C 106.376,129.893 106.043,129.56 105.5,129.5C 98.6787,128.671 91.6787,128.171 84.5,128C 77.7756,125.924 75.2756,121.424 77,114.5C 78.0391,113.29 79.2058,112.29 80.5,111.5C 89.8092,112.317 99.1425,112.65 108.5,112.5C 108.5,111.5 108.5,110.5 108.5,109.5C 101.167,109.5 93.8333,109.5 86.5,109.5C 82.1064,109.946 80.4397,107.946 81.5,103.5C 81.5838,97.9107 84.4172,94.5774 90,93.5C 97.1644,94.7454 104.331,94.7454 111.5,93.5C 105.202,92.5037 98.8682,92.1703 92.5,92.5C 91.7691,88.3966 92.7691,84.8966 95.5,82C 109.673,80.4416 123.673,77.9416 137.5,74.5C 143.167,74.5 148.833,74.5 154.5,74.5C 166.578,78.0611 178.912,80.5611 191.5,82C 205.461,88.4314 219.961,93.2647 235,96.5C 238.333,95.8333 238.333,95.1667 235,94.5C 220.961,91.598 207.461,87.098 194.5,81C 182.079,78.8221 169.746,76.3221 157.5,73.5C 156.432,72.5655 155.099,72.2322 153.5,72.5C 147.839,71.2231 142.172,71.2231 136.5,72.5C 135.833,72.1667 135.167,71.8333 134.5,71.5C 136.058,64.2275 133.058,61.3942 125.5,63C 122.264,64.1518 118.931,64.9851 115.5,65.5C 110.878,64.6149 106.211,64.2816 101.5,64.5C 96.7498,62.9692 91.7498,62.3025 86.5,62.5C 83.1501,62.335 79.8168,62.5017 76.5,63C 66.4289,70.3676 55.7623,76.7009 44.5,82C 29.2672,83.8644 14.2672,86.6977 -0.5,90.5C -0.5,60.1667 -0.5,29.8333 -0.5,-0.5 Z"/></g>
<g><path style="opacity:1" fill="#686668" d="M 153.5,72.5 C 155.099,72.2322 156.432,72.5655 157.5,73.5C 156.209,73.2627 155.209,73.596 154.5,74.5C 148.833,74.5 143.167,74.5 137.5,74.5C 142.833,73.8333 148.167,73.1667 153.5,72.5 Z"/></g>
<g><path style="opacity:1" fill="#ec7817" d="M 143.5,132.5 C 143.194,129.615 143.527,126.948 144.5,124.5C 146.416,126.116 147.916,125.782 149,123.5C 151.877,113.595 152.21,103.595 150,93.5C 148.573,91.2129 146.739,90.8795 144.5,92.5C 143.167,86.8333 143.167,81.1667 144.5,75.5C 149.5,78.6667 154.5,81.8333 159.5,85C 156.958,85.5456 154.958,86.8789 153.5,89C 157.468,101.655 157.468,114.322 153.5,127C 154.085,129.134 155.418,130.634 157.5,131.5C 153.727,135.227 149.394,138.227 144.5,140.5C 143.52,137.914 143.187,135.247 143.5,132.5 Z"/></g>
<g><path style="opacity:1" fill="#f3f2f1" d="M 79.5,99.5 C 78.6805,102.305 78.1805,105.305 78,108.5C 73.0265,112.735 67.5265,116.069 61.5,118.5C 58.8826,109.538 58.8826,100.538 61.5,91.5C 63.2624,91.3573 64.9291,91.6906 66.5,92.5C 67.8333,86.8333 67.8333,81.1667 66.5,75.5C 61.6603,78.4192 56.9936,81.5859 52.5,85C 54.6268,86.0514 56.2935,87.5514 57.5,89.5C 53.5369,100.853 53.5369,112.187 57.5,123.5C 55.8333,124.667 54.1667,125.833 52.5,127C 56.4785,130.656 60.8119,133.822 65.5,136.5C 67.0878,131.29 67.7545,125.957 67.5,120.5C 65.9397,120.519 64.4397,120.852 63,121.5C 61.9701,121.164 61.4701,120.497 61.5,119.5C 66.2965,117.851 70.7965,115.518 75,112.5C 75.3988,112.728 75.5654,113.062 75.5,113.5C 73.9336,120.457 75.9336,125.957 81.5,130C 80.0944,131.978 79.0944,134.145 78.5,136.5C 77.596,137.209 77.2627,138.209 77.5,139.5C 71.1624,139.233 64.829,138.9 58.5,138.5C 55.0534,138.186 51.7201,137.352 48.5,136C 42.6775,133.335 36.8441,130.835 31,128.5C 20.2631,129.517 9.76312,131.517 -0.5,134.5C -0.5,120.5 -0.5,106.5 -0.5,92.5C 15.3106,88.7174 31.3106,85.5507 47.5,83C 57.942,78.2196 67.6087,72.2196 76.5,65C 77.8732,64.1251 79.3732,63.6251 81,63.5C 88.0551,65.0984 95.2218,65.9317 102.5,66C 104.329,66.2735 105.829,67.1068 107,68.5C 108,65.8333 109,65.8333 110,68.5C 110.388,67.572 111.055,66.9054 112,66.5C 114.488,67.7557 116.988,67.7557 119.5,66.5C 124.044,69.3563 128.377,69.0229 132.5,65.5C 133.922,70.1035 132.255,73.1035 127.5,74.5C 116.261,77.1483 104.927,79.1483 93.5,80.5C 92.5823,82.8386 90.9156,84.3386 88.5,85C 90.25,86.7542 90.9167,88.9208 90.5,91.5C 85.1994,91.9783 81.5327,94.6449 79.5,99.5 Z"/></g>
<g><path style="opacity:1" fill="#ec791a" d="M 61.5,118.5 C 61.5,118.833 61.5,119.167 61.5,119.5C 61.4701,120.497 61.9701,121.164 63,121.5C 64.4397,120.852 65.9397,120.519 67.5,120.5C 67.7545,125.957 67.0878,131.29 65.5,136.5C 60.8119,133.822 56.4785,130.656 52.5,127C 54.1667,125.833 55.8333,124.667 57.5,123.5C 53.5369,112.187 53.5369,100.853 57.5,89.5C 56.2935,87.5514 54.6268,86.0514 52.5,85C 56.9936,81.5859 61.6603,78.4192 66.5,75.5C 67.8333,81.1667 67.8333,86.8333 66.5,92.5C 64.9291,91.6906 63.2624,91.3573 61.5,91.5C 58.8826,100.538 58.8826,109.538 61.5,118.5 Z"/></g>
<g><path style="opacity:1" fill="#383739" d="M 154.5,74.5 C 155.209,73.596 156.209,73.2627 157.5,73.5C 169.746,76.3221 182.079,78.8221 194.5,81C 207.461,87.098 220.961,91.598 235,94.5C 238.333,95.1667 238.333,95.8333 235,96.5C 219.961,93.2647 205.461,88.4314 191.5,82C 178.912,80.5611 166.578,78.0611 154.5,74.5 Z"/></g>
<g><path style="opacity:1" fill="#343335" d="M 86.5,62.5 C 91.2895,63.7249 96.2895,64.3916 101.5,64.5C 106.211,64.2816 110.878,64.6149 115.5,65.5C 118.931,64.9851 122.264,64.1518 125.5,63C 133.058,61.3942 136.058,64.2275 134.5,71.5C 135.167,71.8333 135.833,72.1667 136.5,72.5C 142.172,71.2231 147.839,71.2231 153.5,72.5C 148.167,73.1667 142.833,73.8333 137.5,74.5C 123.673,77.9416 109.673,80.4416 95.5,82C 92.7691,84.8966 91.7691,88.3966 92.5,92.5C 98.8682,92.1703 105.202,92.5037 111.5,93.5C 104.331,94.7454 97.1644,94.7454 90,93.5C 84.4172,94.5774 81.5838,97.9107 81.5,103.5C 80.4397,107.946 82.1064,109.946 86.5,109.5C 84.5,110.167 82.5,110.833 80.5,111.5C 79.2058,112.29 78.0391,113.29 77,114.5C 75.2756,121.424 77.7756,125.924 84.5,128C 91.6787,128.171 98.6787,128.671 105.5,129.5C 99.021,130.491 92.3543,130.824 85.5,130.5C 83.1119,131.219 81.6119,132.885 81,135.5C 78.7804,142.437 80.947,147.27 87.5,150C 100.802,151.472 114.136,151.805 127.5,151C 130.015,149.287 132.682,149.12 135.5,150.5C 133.157,151.275 130.823,151.942 128.5,152.5C 117.713,152.577 107.046,152.577 96.5,152.5C 95.3044,152.846 95.3044,153.346 96.5,154C 97.7932,154.49 99.1266,154.657 100.5,154.5C 103.3,157.136 105.967,159.969 108.5,163C 110.167,163.667 111.833,163.667 113.5,163C 123.5,159 133.5,155 143.5,151C 152.782,144.719 161.782,138.052 170.5,131C 173.302,129.455 176.302,128.622 179.5,128.5C 198.812,132.573 217.645,138.239 236,145.5C 238,146.167 238,146.833 236,147.5C 219.205,140.79 202.038,135.29 184.5,131C 179.106,129.967 174.106,130.967 169.5,134C 152.821,149.592 133.321,160.092 111,165.5C 105.367,160.75 99.2001,156.583 92.5,153C 85.3535,152.674 80.6869,149.174 78.5,142.5C 63.1559,142.994 48.8226,139.494 35.5,132C 23.1727,131.041 11.1727,132.541 -0.5,136.5C -0.5,135.833 -0.5,135.167 -0.5,134.5C 9.76312,131.517 20.2631,129.517 31,128.5C 36.8441,130.835 42.6775,133.335 48.5,136C 51.7201,137.352 55.0534,138.186 58.5,138.5C 64.9373,140.039 71.6039,140.706 78.5,140.5C 78.5,139.167 78.5,137.833 78.5,136.5C 79.0944,134.145 80.0944,131.978 81.5,130C 75.9336,125.957 73.9336,120.457 75.5,113.5C 77.2959,112.207 78.9625,110.707 80.5,109C 79.5495,105.943 79.2161,102.777 79.5,99.5C 81.5327,94.6449 85.1994,91.9783 90.5,91.5C 90.9167,88.9208 90.25,86.7542 88.5,85C 90.9156,84.3386 92.5823,82.8386 93.5,80.5C 104.927,79.1483 116.261,77.1483 127.5,74.5C 132.255,73.1035 133.922,70.1035 132.5,65.5C 128.377,69.0229 124.044,69.3563 119.5,66.5C 116.988,67.7557 114.488,67.7557 112,66.5C 111.055,66.9054 110.388,67.572 110,68.5C 109,65.8333 108,65.8333 107,68.5C 105.829,67.1068 104.329,66.2735 102.5,66C 95.2218,65.9317 88.0551,65.0984 81,63.5C 79.3732,63.6251 77.8732,64.1251 76.5,65C 67.6087,72.2196 57.942,78.2196 47.5,83C 31.3106,85.5507 15.3106,88.7174 -0.5,92.5C -0.5,91.8333 -0.5,91.1667 -0.5,90.5C 14.2672,86.6977 29.2672,83.8644 44.5,82C 55.7623,76.7009 66.4289,70.3676 76.5,63C 79.8168,62.5017 83.1501,62.335 86.5,62.5 Z"/></g>
<g><path style="opacity:1" fill="#d1d0d1" d="M 126.5,64.5 C 131.368,65.0897 131.034,66.0897 125.5,67.5C 124.833,67.1667 124.167,66.8333 123.5,66.5C 124.602,65.8243 125.602,65.1577 126.5,64.5 Z"/></g>
<g><path style="opacity:1" fill="#bbbbbc" d="M 86.5,62.5 C 91.7498,62.3025 96.7498,62.9692 101.5,64.5C 96.2895,64.3916 91.2895,63.7249 86.5,62.5 Z"/></g>
<g><path style="opacity:1" fill="#5f5f60" d="M 86.5,109.5 C 93.8333,109.5 101.167,109.5 108.5,109.5C 108.5,110.5 108.5,111.5 108.5,112.5C 99.1425,112.65 89.8092,112.317 80.5,111.5C 82.5,110.833 84.5,110.167 86.5,109.5 Z"/></g>
<g><path style="opacity:1" fill="#757475" d="M 79.5,99.5 C 79.2161,102.777 79.5495,105.943 80.5,109C 78.9625,110.707 77.2959,112.207 75.5,113.5C 75.5654,113.062 75.3988,112.728 75,112.5C 70.7965,115.518 66.2965,117.851 61.5,119.5C 61.5,119.167 61.5,118.833 61.5,118.5C 67.5265,116.069 73.0265,112.735 78,108.5C 78.1805,105.305 78.6805,102.305 79.5,99.5 Z"/></g>
<g><path style="opacity:1" fill="#b0b0b1" d="M 105.5,129.5 C 106.043,129.56 106.376,129.893 106.5,130.5C 99.344,131.819 92.344,131.819 85.5,130.5C 92.3543,130.824 99.021,130.491 105.5,129.5 Z"/></g>
<g><path style="opacity:1" fill="#f2b684" d="M 144.5,124.5 C 143.527,126.948 143.194,129.615 143.5,132.5C 142.197,129.645 142.197,126.645 143.5,123.5C 144.107,123.624 144.44,123.957 144.5,124.5 Z"/></g>
<g><path style="opacity:1" fill="#ababab" d="M 78.5,136.5 C 78.5,137.833 78.5,139.167 78.5,140.5C 71.6039,140.706 64.9373,140.039 58.5,138.5C 64.829,138.9 71.1624,139.233 77.5,139.5C 77.2627,138.209 77.596,137.209 78.5,136.5 Z"/></g>
<g><path style="opacity:1" fill="#828183" d="M 128.5,152.5 C 124.03,153.486 119.363,153.819 114.5,153.5C 114.719,154.675 114.386,155.675 113.5,156.5C 112.289,155.726 112.289,154.893 113.5,154C 108.98,153.186 104.646,153.353 100.5,154.5C 99.1266,154.657 97.7932,154.49 96.5,154C 95.3044,153.346 95.3044,152.846 96.5,152.5C 107.046,152.577 117.713,152.577 128.5,152.5 Z"/></g>
</svg>
