<?xml version="1.0" encoding="UTF-8"?>
<!DOCTYPE svg PUBLIC "-//W3C//DTD SVG 1.1//EN" "http://www.w3.org/Graphics/SVG/1.1/DTD/svg11.dtd">
<svg xmlns="http://www.w3.org/2000/svg" version="1.1" width="261px" height="154px" style="shape-rendering:geometricPrecision; text-rendering:geometricPrecision; image-rendering:optimizeQuality; fill-rule:evenodd; clip-rule:evenodd" xmlns:xlink="http://www.w3.org/1999/xlink">
<g><path style="opacity:1" fill="#eaeaea" d="M -0.5,-0.5 C 86.5,-0.5 173.5,-0.5 260.5,-0.5C 260.5,50.8333 260.5,102.167 260.5,153.5C 173.5,153.5 86.5,153.5 -0.5,153.5C -0.5,102.167 -0.5,50.8333 -0.5,-0.5 Z"/></g>
<g><path style="opacity:1" fill="#201e21" d="M 40.5,18.5 C 45.5549,18.7284 50.5549,19.3951 55.5,20.5C 54.3595,22.0778 53.8595,23.7445 54,25.5C 59.9828,30.3158 65.4828,35.6491 70.5,41.5C 75.5874,35.3692 81.4208,30.0359 88,25.5C 88.1626,23.6133 87.3293,22.1133 85.5,21C 90.4351,19.1731 95.4351,18.6731 100.5,19.5C 98.3742,23.7109 96.5409,28.0442 95,32.5C 93.6667,31.1667 92.3333,29.8333 91,28.5C 84.6175,33.3814 79.1175,39.0481 74.5,45.5C 79.8945,53.4215 84.7278,61.7549 89,70.5C 91.2518,74.6395 92.5851,78.9728 93,83.5C 91.8173,84.731 90.6507,84.731 89.5,83.5C 85.2068,70.9027 78.8735,59.5693 70.5,49.5C 62.5418,59.7419 56.3751,71.0752 52,83.5C 50.9887,84.3366 49.8221,84.67 48.5,84.5C 51.8742,70.0844 58.2075,57.0844 67.5,45.5C 63.3538,39.5203 58.3538,34.3536 52.5,30C 50.5355,29.376 48.8689,29.876 47.5,31.5C 44.902,27.3036 42.5686,22.9703 40.5,18.5 Z"/></g>
<g><path style="opacity:1" fill="#343335" d="M 191.5,65.5 C 190.523,68.2869 190.19,71.2869 190.5,74.5C 192.099,74.7678 193.432,74.4345 194.5,73.5C 198.717,71.5591 203.051,69.8924 207.5,68.5C 211.989,68.8333 213.489,71.1666 212,75.5C 210.5,78.3333 208.333,80.5 205.5,82C 200.809,83.8363 196.142,85.6696 191.5,87.5C 190.167,87.5 189.5,88.1667 189.5,89.5C 188.511,94.9753 188.178,100.642 188.5,106.5C 187.208,97.295 187.208,87.9617 188.5,78.5C 189.482,75.0381 189.815,71.3714 189.5,67.5C 189.719,66.325 189.386,65.325 188.5,64.5C 187.167,65.5 185.833,66.5 184.5,67.5C 183.672,71.7956 183.172,76.1289 183,80.5C 181.554,75.3548 181.054,70.0214 181.5,64.5C 182.833,61.5 182.833,58.5 181.5,55.5C 180.571,54.6851 179.571,53.8518 178.5,53C 180.662,50.4781 180.995,47.6447 179.5,44.5C 174.856,49.6019 171.856,55.4352 170.5,62C 170.423,65.3328 171.09,68.4995 172.5,71.5C 172.167,71.8333 171.833,72.1667 171.5,72.5C 168.703,65.4763 167.37,58.143 167.5,50.5C 164.319,50.2577 161.319,50.2577 158.5,50.5C 155.965,55.7979 154.798,61.4645 155,67.5C 154.586,67.9574 154.086,68.2907 153.5,68.5C 151.768,66.7173 150.268,64.7173 149,62.5C 147.485,58.3904 145.985,54.3904 144.5,50.5C 144.672,49.5084 144.338,48.8417 143.5,48.5C 143.5,48.1667 143.5,47.8333 143.5,47.5C 143.068,46.2905 142.401,45.2905 141.5,44.5C 139.887,41.8419 138.554,39.0085 137.5,36C 135.473,36.4978 133.473,36.3311 131.5,35.5C 133.045,34.5481 134.712,34.2148 136.5,34.5C 136.675,32.3792 136.341,30.3792 135.5,28.5C 135.011,27.0048 134.345,25.6715 133.5,24.5C 132.32,22.087 130.32,21.087 127.5,21.5C 127.5,22.5 127.5,23.5 127.5,24.5C 126.235,25.5145 125.569,27.0145 125.5,29C 125.508,30.7067 125.842,32.2067 126.5,33.5C 127.756,40.6889 129.756,47.6889 132.5,54.5C 137.054,56.9249 140.221,60.5916 142,65.5C 142.453,72.1923 142.119,78.859 141,85.5C 138.622,90.5888 137.122,95.9221 136.5,101.5C 135.679,98.5535 135.179,95.5535 135,92.5C 130.839,87.5144 127.173,82.181 124,76.5C 121.108,73.9426 117.941,71.776 114.5,70C 112.288,69.2109 110.288,69.3775 108.5,70.5C 106.519,71.1054 106.185,72.1054 107.5,73.5C 107.961,76.3033 109.295,78.6366 111.5,80.5C 112.5,81.1667 113.5,81.8333 114.5,82.5C 113.761,82.369 113.094,82.5357 112.5,83C 113.542,84.918 114.708,86.7513 116,88.5C 117.337,87.2351 118.837,86.7351 120.5,87C 119.421,87.956 118.255,88.7894 117,89.5C 116.308,90.4368 116.475,91.1034 117.5,91.5C 117.328,92.4916 117.662,93.1583 118.5,93.5C 124.061,101.368 128.894,109.702 133,118.5C 137.728,125.95 143.395,132.617 150,138.5C 151.833,141.5 153.667,144.5 155.5,147.5C 154.833,148.833 154.167,148.833 153.5,147.5C 149.253,140.916 144.253,134.916 138.5,129.5C 132.395,134.375 127.728,140.375 124.5,147.5C 123.833,148.833 123.167,148.833 122.5,147.5C 126.307,140.043 130.974,133.209 136.5,127C 129.083,117.099 122.75,106.599 117.5,95.5C 104.347,114.297 89.0133,131.13 71.5,146C 69.9452,147.289 68.2785,147.956 66.5,148C 74.6177,141.183 82.451,134.016 90,126.5C 96.9612,117.87 104.295,109.537 112,101.5C 113.444,98.9454 114.611,96.2787 115.5,93.5C 113.032,86.5602 109.532,80.2269 105,74.5C 104.374,70.1148 106.374,67.7815 111,67.5C 115.944,68.7373 120.444,70.5707 124.5,73C 126.254,68.6155 125.421,64.7822 122,61.5C 121.174,55.8236 123.674,53.157 129.5,53.5C 127.776,46.4902 125.942,39.4902 124,32.5C 123.044,28.428 123.544,24.5946 125.5,21C 129.155,18.6654 132.321,19.1654 135,22.5C 137.673,27.5188 139.34,32.8521 140,38.5C 141,39.8333 142,41.1667 143,42.5C 144.961,39.5372 147.294,36.8706 150,34.5C 150.333,29.5 150.667,24.5 151,19.5C 153.676,14.1309 157.509,13.1309 162.5,16.5C 170.666,12.8221 174.166,15.4888 173,24.5C 170.927,28.6455 168.927,32.6455 167,36.5C 168.512,35.7433 169.846,34.7433 171,33.5C 171.346,31.1523 172.513,29.3189 174.5,28C 179.483,23.6823 184.983,20.1823 191,17.5C 196.608,18.1066 198.608,21.1066 197,26.5C 192.311,32.1874 187.311,37.5207 182,42.5C 181.21,45.634 181.543,48.634 183,51.5C 184.476,46.2591 187.976,44.0924 193.5,45C 196.5,42.6667 199.5,40.3333 202.5,38C 209.097,37.0705 211.597,39.9038 210,46.5C 204.314,51.6872 198.481,56.6872 192.5,61.5C 191.571,62.6888 191.238,64.0222 191.5,65.5 Z"/></g>
<g><path style="opacity:1" fill="#e3e3e3" d="M 185.5,64.5 C 184.833,61.5 184.167,58.5 183.5,55.5C 183.281,54.325 183.614,53.325 184.5,52.5C 191.372,49.566 197.372,45.3993 202.5,40C 208.606,39.2816 210.106,41.7816 207,47.5C 199.934,53.4113 192.767,59.078 185.5,64.5 Z"/></g>
<g><path style="opacity:1" fill="#878788" d="M 127.5,24.5 C 128.642,26.9717 130.642,27.9717 133.5,27.5C 133.5,26.5 133.5,25.5 133.5,24.5C 134.345,25.6715 135.011,27.0048 135.5,28.5C 132.131,30.1924 129.298,29.5257 127,26.5C 126.503,28.8098 126.337,31.1432 126.5,33.5C 125.842,32.2067 125.508,30.7067 125.5,29C 125.569,27.0145 126.235,25.5145 127.5,24.5 Z"/></g>
<g><path style="opacity:1" fill="#6c6b6e" d="M 152.5,24.5 C 152.205,26.7354 152.539,28.7354 153.5,30.5C 153.44,31.0431 153.107,31.3764 152.5,31.5C 151.203,29.0268 151.203,26.6934 152.5,24.5 Z"/></g>
<g><path style="opacity:1" fill="#ddddde" d="M 153.5,18.5 C 155.008,20.1815 156.008,22.1815 156.5,24.5C 155.5,26.5 154.5,28.5 153.5,30.5C 152.539,28.7354 152.205,26.7354 152.5,24.5C 152.325,22.3792 152.659,20.3792 153.5,18.5 Z"/></g>
<g><path style="opacity:1" fill="#e2e2e2" d="M 133.5,24.5 C 133.5,25.5 133.5,26.5 133.5,27.5C 130.642,27.9717 128.642,26.9717 127.5,24.5C 127.5,23.5 127.5,22.5 127.5,21.5C 130.32,21.087 132.32,22.087 133.5,24.5 Z"/></g>
<g><path style="opacity:1" fill="#e4e4e5" d="M 189.5,19.5 C 194.494,19.329 196.328,21.6624 195,26.5C 185.554,34.9401 177.221,44.2735 170,54.5C 169.383,49.5334 168.217,44.7001 166.5,40C 174.043,32.9533 181.709,26.12 189.5,19.5 Z"/></g>
<g><path style="opacity:1" fill="#e5e5e5" d="M 165.5,16.5 C 171.204,16.1464 173.037,18.813 171,24.5C 166.667,31.5 162.333,38.5 158,45.5C 156.444,50.2785 154.61,54.9452 152.5,59.5C 153.52,61.4325 153.687,63.4325 153,65.5C 150.305,58.6095 147.471,51.7761 144.5,45C 151.858,35.7927 158.858,26.2927 165.5,16.5 Z"/></g>
<g><path style="opacity:1" fill="#d2d2d3" d="M 158.5,21.5 C 156.554,20.9653 155.554,19.632 155.5,17.5C 156.884,16.1991 158.384,16.1991 160,17.5C 160.773,19.3524 160.273,20.6857 158.5,21.5 Z"/></g>
<g><path style="opacity:1" fill="#727172" d="M 153.5,18.5 C 153.842,17.6618 154.508,17.3284 155.5,17.5C 155.554,19.632 156.554,20.9653 158.5,21.5C 158.068,22.7095 157.401,23.7095 156.5,24.5C 156.008,22.1815 155.008,20.1815 153.5,18.5 Z"/></g>
<g><path style="opacity:1" fill="#b1b1b3" d="M 163.5,40.5 C 165.862,42.919 166.862,45.919 166.5,49.5C 163.62,49.9675 161.287,49.1341 159.5,47C 161.043,44.9583 162.376,42.7917 163.5,40.5 Z"/></g>
<g><path style="opacity:1" fill="#6b6b6c" d="M 141.5,44.5 C 142.401,45.2905 143.068,46.2905 143.5,47.5C 134.109,49.521 133.442,48.521 141.5,44.5 Z"/></g>
<g><path style="opacity:1" fill="#818181" d="M 143.5,48.5 C 144.338,48.8417 144.672,49.5084 144.5,50.5C 142.101,52.6404 139.434,53.3071 136.5,52.5C 139.34,51.8944 141.673,50.5611 143.5,48.5 Z"/></g>
<g><path style="opacity:1" fill="#e4e4e4" d="M 127.5,75.5 C 129.106,74.6409 130.773,74.4742 132.5,75C 131.915,73.6976 131.249,72.531 130.5,71.5C 129.522,71.189 128.855,70.5223 128.5,69.5C 130.04,68.4679 130.54,67.1346 130,65.5C 127.154,63.9874 124.987,61.8208 123.5,59C 125.997,55.1339 129.33,54.4672 133.5,57C 136.273,59.3834 138.439,62.2167 140,65.5C 140.797,74.4625 139.63,83.1291 136.5,91.5C 131.931,87.0264 128.931,81.6931 127.5,75.5 Z"/></g>
<g><path style="opacity:1" fill="#636264" d="M 181.5,55.5 C 182.833,58.5 182.833,61.5 181.5,64.5C 181.5,62.8333 181.5,61.1667 181.5,59.5C 179.158,59.4959 177.158,58.6625 175.5,57C 177.256,56.8595 178.922,57.3595 180.5,58.5C 181.386,57.675 181.719,56.675 181.5,55.5 Z"/></g>
<g><path style="opacity:1" fill="#98989a" d="M 183.5,55.5 C 184.167,58.5 184.833,61.5 185.5,64.5C 185.44,65.0431 185.107,65.3764 184.5,65.5C 183.513,62.2317 183.18,58.8984 183.5,55.5 Z"/></g>
<g><path style="opacity:1" fill="#656566" d="M 189.5,67.5 C 189.815,71.3714 189.482,75.0381 188.5,78.5C 189.125,75.0295 188.125,72.1962 185.5,70C 186.449,69.3828 187.282,69.5494 188,70.5C 188.617,69.5509 188.451,68.7175 187.5,68C 188.094,67.5357 188.761,67.369 189.5,67.5 Z"/></g>
<g><path style="opacity:1" fill="#7e7e7f" d="M 108.5,70.5 C 113.078,70.8965 116.078,73.3965 117.5,78C 117.101,79.9812 116.101,81.4812 114.5,82.5C 113.5,81.8333 112.5,81.1667 111.5,80.5C 112.833,80.5 114.167,80.5 115.5,80.5C 116,74.6706 113.334,72.3373 107.5,73.5C 106.185,72.1054 106.519,71.1054 108.5,70.5 Z"/></g>
<g><path style="opacity:1" fill="#7e7e80" d="M 191.5,65.5 C 191.5,68.1667 191.5,70.8333 191.5,73.5C 192.5,73.5 193.5,73.5 194.5,73.5C 193.432,74.4345 192.099,74.7678 190.5,74.5C 190.19,71.2869 190.523,68.2869 191.5,65.5 Z"/></g>
<g><path style="opacity:1" fill="#e1e1e1" d="M 205.5,70.5 C 208.261,69.9147 209.927,70.9147 210.5,73.5C 209.781,75.7277 208.448,77.561 206.5,79C 201.227,82.2566 195.561,84.4232 189.5,85.5C 189.833,82.1667 190.167,78.8333 190.5,75.5C 195.895,74.8127 200.895,73.1461 205.5,70.5 Z"/></g>
<g><path style="opacity:1" fill="#8b8b8c" d="M 130.5,71.5 C 131.249,72.531 131.915,73.6976 132.5,75C 130.773,74.4742 129.106,74.6409 127.5,75.5C 128.211,73.9699 129.211,72.6366 130.5,71.5 Z"/></g>
<g><path style="opacity:1" fill="#e0e0e1" d="M 107.5,73.5 C 113.334,72.3373 116,74.6706 115.5,80.5C 114.167,80.5 112.833,80.5 111.5,80.5C 109.295,78.6366 107.961,76.3033 107.5,73.5 Z"/></g>
<g><path style="opacity:1" fill="#717171" d="M 118.5,93.5 C 117.662,93.1583 117.328,92.4916 117.5,91.5C 119.27,90.236 120.937,88.736 122.5,87C 123.167,86.3333 123.833,86.3333 124.5,87C 122.244,89.0829 120.244,91.2496 118.5,93.5 Z"/></g>
<g><path style="opacity:1" fill="#b5b4b6" d="M 191.5,87.5 C 190.545,93.4093 190.211,99.4093 190.5,105.5C 189.512,100.36 189.179,95.0262 189.5,89.5C 189.5,88.1667 190.167,87.5 191.5,87.5 Z"/></g>
<g><path style="opacity:1" fill="#1d1c1e" d="M 189.5,89.5 C 189.179,95.0262 189.512,100.36 190.5,105.5C 190.5,106.167 190.5,106.833 190.5,107.5C 190.821,113.026 190.488,118.36 189.5,123.5C 189.625,117.797 189.292,112.13 188.5,106.5C 188.178,100.642 188.511,94.9753 189.5,89.5 Z"/></g>
<g><path style="opacity:1" fill="#3b3a3c" d="M 190.5,107.5 C 191.328,113.653 191.828,119.987 192,126.5C 194.755,133.272 196.088,140.272 196,147.5C 193.754,139.585 191.588,131.585 189.5,123.5C 190.488,118.36 190.821,113.026 190.5,107.5 Z"/></g>
</svg>
