<?xml version="1.0" encoding="UTF-8"?>
<!DOCTYPE svg PUBLIC "-//W3C//DTD SVG 1.1//EN" "http://www.w3.org/Graphics/SVG/1.1/DTD/svg11.dtd">
<svg xmlns="http://www.w3.org/2000/svg" version="1.1" width="262px" height="212px" style="shape-rendering:geometricPrecision; text-rendering:geometricPrecision; image-rendering:optimizeQuality; fill-rule:evenodd; clip-rule:evenodd" xmlns:xlink="http://www.w3.org/1999/xlink">
<g><path style="opacity:1" fill="#f4f4f4" d="M -0.5,-0.5 C 86.8333,-0.5 174.167,-0.5 261.5,-0.5C 261.5,70.1667 261.5,140.833 261.5,211.5C 174.167,211.5 86.8333,211.5 -0.5,211.5C -0.5,199.833 -0.5,188.167 -0.5,176.5C 7.45797,164.574 13.2913,151.574 17,137.5C 23.4298,126.214 29.0965,114.548 34,102.5C 41.531,90.0949 50.031,78.4283 59.5,67.5C 61.9699,67.6535 63.9699,68.6535 65.5,70.5C 63.8564,72.4807 62.1897,74.4807 60.5,76.5C 61.0016,77.521 61.6683,77.6877 62.5,77C 67.4637,71.5446 71.797,65.7112 75.5,59.5C 75.4142,60.4959 75.7476,61.3292 76.5,62C 78.3146,62.7568 79.9812,63.5902 81.5,64.5C 79.5443,70.232 76.211,75.0653 71.5,79C 74.2798,79.2692 76.4464,78.1025 78,75.5C 81.4066,70.0201 84.24,64.3535 86.5,58.5C 87.609,58.5569 88.609,58.8902 89.5,59.5C 91.0418,60.3007 92.7085,60.634 94.5,60.5C 95.9002,61.1001 96.9002,62.1001 97.5,63.5C 95.2735,70.5119 92.2735,77.1786 88.5,83.5C 89.325,84.3857 90.325,84.719 91.5,84.5C 96.0415,72.4205 101.375,60.7539 107.5,49.5C 109.512,50.0138 111.512,50.1805 113.5,50C 110.574,49.313 109.241,47.4797 109.5,44.5C 109.5,42.5 110.5,41.5 112.5,41.5C 116.554,43.4927 119.054,42.1594 120,37.5C 120.495,39.4727 120.662,41.4727 120.5,43.5C 114.695,62.4599 108.862,81.4599 103,100.5C 99.7511,107.067 95.7511,113.067 91,118.5C 90.3015,122.717 89.4681,126.884 88.5,131C 89.4163,134.874 89.4163,138.708 88.5,142.5C 81.1928,136.181 73.5261,130.348 65.5,125C 59.0398,122.325 53.2065,123.158 48,127.5C 47.3333,129.5 47.3333,131.5 48,133.5C 56.0794,141.108 64.5794,148.108 73.5,154.5C 68.5329,155.329 63.5329,155.829 58.5,156C 57,157.5 55.5,159 54,160.5C 47.4139,172.795 42.5805,185.462 39.5,198.5C 44.3636,186.422 49.5303,174.422 55,162.5C 58.3487,158.037 62.8487,156.37 68.5,157.5C 71.5,157.667 74.5,157.833 77.5,158C 88.0858,168.924 100.086,177.924 113.5,185C 117.5,185.333 121.5,185.667 125.5,186C 131.5,190.667 137.5,195.333 143.5,200C 144.332,200.688 144.998,200.521 145.5,199.5C 138.902,193.529 131.902,188.029 124.5,183C 120.167,182.667 115.833,182.333 111.5,182C 96.2143,172.707 82.5477,161.54 70.5,148.5C 71.6334,145.729 72.6334,142.896 73.5,140C 73.1667,139.167 72.8333,138.333 72.5,137.5C 71.7719,140.212 70.9385,142.879 70,145.5C 69.3292,146.252 68.4959,146.586 67.5,146.5C 68.7374,143.838 69.5707,141.171 70,138.5C 68.7485,140.001 67.7485,141.668 67,143.5C 66.3292,144.252 65.4959,144.586 64.5,144.5C 62.2048,143.525 60.2048,142.192 58.5,140.5C 64.6518,133.107 62.9851,128.107 53.5,125.5C 59.2328,124.895 64.5661,126.062 69.5,129C 77.0985,135.451 84.7651,141.618 92.5,147.5C 92.8333,147 93.1667,146.5 93.5,146C 88.9484,134.85 89.9484,124.184 96.5,114C 100.885,114.038 105.218,114.371 109.5,115C 112.128,113.374 114.461,111.374 116.5,109C 118.5,108.333 120.5,108.333 122.5,109C 124.208,111.043 126.208,112.71 128.5,114C 131.5,113.667 134.5,113.333 137.5,113C 142.787,116.56 148.287,119.726 154,122.5C 157.52,130.05 160.853,137.717 164,145.5C 164.333,149.167 164.667,152.833 165,156.5C 176.808,167.976 188.308,179.809 199.5,192C 202.5,194.333 205.5,196.667 208.5,199C 209.5,199.667 210.5,199.667 211.5,199C 205.649,194.572 199.983,189.906 194.5,185C 185.697,175.196 176.53,165.696 167,156.5C 165.965,144.392 162.298,133.058 156,122.5C 151.762,118.744 146.929,115.911 141.5,114C 140.5,113 139.5,112 138.5,111C 134.95,110.489 131.617,110.822 128.5,112C 122.17,104.537 116.17,104.703 110.5,112.5C 106.603,113.545 102.937,112.879 99.5,110.5C 101.253,107.995 102.753,105.329 104,102.5C 109.418,85.3964 115.085,68.3964 121,51.5C 122.122,46.8984 122.622,42.2318 122.5,37.5C 122.672,36.5084 122.338,35.8417 121.5,35.5C 119.827,33.4944 118.16,31.4944 116.5,29.5C 118.663,20.6664 115.329,16.9997 106.5,18.5C 105.561,20.0534 104.394,21.3867 103,22.5C 100.88,21.5411 98.7135,21.3744 96.5,22C 92.2095,28.0803 88.0429,34.2469 84,40.5C 82.087,38.8131 79.9203,38.3131 77.5,39C 70.223,47.6112 63.723,56.7779 58,66.5C 53.3767,72.7921 48.3767,78.7921 43,84.5C 38.9173,91.6676 34.5839,98.6676 30,105.5C 26.0985,116.639 21.0985,127.305 15,137.5C 11.3967,150.024 6.23008,161.691 -0.5,172.5C -0.5,114.833 -0.5,57.1667 -0.5,-0.5 Z"/></g>
<g><path style="opacity:1" fill="#c9c9ca" d="M 183.5,25.5 C 184.399,28.395 185.733,31.0616 187.5,33.5C 186.5,33.8333 185.833,34.5 185.5,35.5C 182.133,30.7814 179.133,25.7814 176.5,20.5C 177.002,19.479 177.668,19.3123 178.5,20C 180.3,21.8119 181.967,23.6452 183.5,25.5 Z"/></g>
<g><path style="opacity:1" fill="#afafaf" d="M 194.5,37.5 C 193.833,37.5 193.167,37.5 192.5,37.5C 191.167,36.1667 189.833,34.8333 188.5,33.5C 188.264,31.1296 187.264,29.1296 185.5,27.5C 186.002,26.479 186.668,26.3123 187.5,27C 190.047,30.3758 192.38,33.8758 194.5,37.5 Z"/></g>
<g><path style="opacity:1" fill="#545354" d="M 183.5,25.5 C 181.967,23.6452 180.3,21.8119 178.5,20C 177.668,19.3123 177.002,19.479 176.5,20.5C 179.133,25.7814 182.133,30.7814 185.5,35.5C 186.028,36.8474 186.195,38.1807 186,39.5C 184.489,37.1384 182.989,34.8051 181.5,32.5C 179.234,28.9663 177.234,25.2996 175.5,21.5C 174.122,16.9316 172.455,16.5982 170.5,20.5C 170.543,21.4164 170.876,22.0831 171.5,22.5C 173.323,27.4799 175.657,32.1465 178.5,36.5C 180.215,38.9206 181.048,41.5872 181,44.5C 179.569,42.6365 178.403,40.6365 177.5,38.5C 176.737,36.6316 175.737,34.9649 174.5,33.5C 173.538,30.2432 172.038,27.2432 170,24.5C 168.214,29.3476 168.714,34.0142 171.5,38.5C 171.328,39.4916 171.662,40.1583 172.5,40.5C 174.051,45.7337 176.051,50.7337 178.5,55.5C 176.453,55.5111 174.453,55.8444 172.5,56.5C 170.833,55.8333 169.167,55.1667 167.5,54.5C 162.867,55.6574 158.534,57.4907 154.5,60C 151.653,65.1992 149.487,70.6992 148,76.5C 142.866,82.6353 137.366,88.4687 131.5,94C 129.945,95.2893 128.279,95.956 126.5,96C 134,89.8333 140.833,83 147,75.5C 147.797,69.4408 149.963,63.9408 153.5,59C 157.447,56.76 161.447,54.76 165.5,53C 168.305,52.5585 170.972,53.0585 173.5,54.5C 174.167,54.1667 174.833,53.8333 175.5,53.5C 172.565,45.8608 169.732,38.1941 167,30.5C 166.333,28.1667 166.333,25.8333 167,23.5C 168.871,22.0027 169.871,20.0027 170,17.5C 172.267,16.0652 174.267,16.3985 176,18.5C 177.049,17.4829 178.216,17.3162 179.5,18C 181.495,20.1572 182.828,22.6572 183.5,25.5 Z"/></g>
<g><path style="opacity:1" fill="#e0e0e0" d="M 174.5,33.5 C 174.047,34.4584 173.381,35.2917 172.5,36C 176.042,36.8817 175.708,37.715 171.5,38.5C 168.714,34.0142 168.214,29.3476 170,24.5C 172.038,27.2432 173.538,30.2432 174.5,33.5 Z"/></g>
<g><path style="opacity:1" fill="#d8d8d8" d="M 175.5,21.5 C 177.234,25.2996 179.234,28.9663 181.5,32.5C 179.738,33.2623 178.738,34.5956 178.5,36.5C 175.657,32.1465 173.323,27.4799 171.5,22.5C 172.568,21.5655 173.901,21.2322 175.5,21.5 Z"/></g>
<g><path style="opacity:1" fill="#a1a1a2" d="M 175.5,21.5 C 173.901,21.2322 172.568,21.5655 171.5,22.5C 170.876,22.0831 170.543,21.4164 170.5,20.5C 172.455,16.5982 174.122,16.9316 175.5,21.5 Z"/></g>
<g><path style="opacity:1" fill="#333335" d="M 121.5,35.5 C 120.652,36.625 119.652,36.625 118.5,35.5C 117.686,33.7274 116.352,33.2274 114.5,34C 112.887,36.2276 112.22,38.7276 112.5,41.5C 110.5,41.5 109.5,42.5 109.5,44.5C 108.691,46.0276 108.024,47.6943 107.5,49.5C 101.375,60.7539 96.0415,72.4205 91.5,84.5C 90.325,84.719 89.325,84.3857 88.5,83.5C 92.2735,77.1786 95.2735,70.5119 97.5,63.5C 98.7359,61.3893 100.236,59.3893 102,57.5C 106.245,46.6828 110.745,36.0161 115.5,25.5C 115.561,23.279 114.895,22.9456 113.5,24.5C 114.158,20.3228 112.492,18.8228 108.5,20C 107.177,20.8159 106.511,21.9826 106.5,23.5C 105.659,24.9264 104.659,26.2597 103.5,27.5C 98.5972,38.3099 92.9305,48.6432 86.5,58.5C 84.24,64.3535 81.4066,70.0201 78,75.5C 76.4464,78.1025 74.2798,79.2692 71.5,79C 76.211,75.0653 79.5443,70.232 81.5,64.5C 82.3382,64.1583 82.6716,63.4916 82.5,62.5C 83.1098,61.609 83.4431,60.609 83.5,59.5C 84.3382,59.1583 84.6716,58.4916 84.5,57.5C 87.0013,52.4936 90.0013,47.8269 93.5,43.5C 94.4013,42.7095 95.0679,41.7095 95.5,40.5C 95.8925,38.7162 96.5592,37.0495 97.5,35.5C 98.4013,34.7095 99.0679,33.7095 99.5,32.5C 100.014,30.6336 100.68,28.8003 101.5,27C 100.968,24.9803 99.6348,24.147 97.5,24.5C 94.9228,25.6061 93.2561,27.6061 92.5,30.5C 86.5695,40.0299 80.9029,49.6966 75.5,59.5C 71.797,65.7112 67.4637,71.5446 62.5,77C 61.6683,77.6877 61.0016,77.521 60.5,76.5C 62.1897,74.4807 63.8564,72.4807 65.5,70.5C 66.5,70.1667 67.1667,69.5 67.5,68.5C 70.9024,62.0305 74.5691,55.6972 78.5,49.5C 76.8867,47.8767 75.22,46.71 73.5,46C 70.3375,51.3187 67.0041,56.4854 63.5,61.5C 62.5987,62.2905 61.9321,63.2905 61.5,64.5C 60.5987,65.2905 59.9321,66.2905 59.5,67.5C 50.031,78.4283 41.531,90.0949 34,102.5C 29.0965,114.548 23.4298,126.214 17,137.5C 13.2913,151.574 7.45797,164.574 -0.5,176.5C -0.5,175.167 -0.5,173.833 -0.5,172.5C 6.23008,161.691 11.3967,150.024 15,137.5C 21.0985,127.305 26.0985,116.639 30,105.5C 34.5839,98.6676 38.9173,91.6676 43,84.5C 48.3767,78.7921 53.3767,72.7921 58,66.5C 63.723,56.7779 70.223,47.6112 77.5,39C 79.9203,38.3131 82.087,38.8131 84,40.5C 88.0429,34.2469 92.2095,28.0803 96.5,22C 98.7135,21.3744 100.88,21.5411 103,22.5C 104.394,21.3867 105.561,20.0534 106.5,18.5C 115.329,16.9997 118.663,20.6664 116.5,29.5C 118.16,31.4944 119.827,33.4944 121.5,35.5 Z"/></g>
<g><path style="opacity:1" fill="#7a7a7b" d="M 97.5,24.5 C 96.9862,26.3664 96.3195,28.1997 95.5,30C 96.0319,32.0197 97.3652,32.853 99.5,32.5C 99.0679,33.7095 98.4013,34.7095 97.5,35.5C 96.1667,33.5 94.5,31.8333 92.5,30.5C 93.2561,27.6061 94.9228,25.6061 97.5,24.5 Z"/></g>
<g><path style="opacity:1" fill="#767676" d="M 106.5,23.5 C 106.5,24.8333 106.5,26.1667 106.5,27.5C 109.438,27.7267 111.771,26.7267 113.5,24.5C 113.703,26.3904 113.037,27.8904 111.5,29C 108.678,29.4279 106.012,28.9279 103.5,27.5C 104.659,26.2597 105.659,24.9264 106.5,23.5 Z"/></g>
<g><path style="opacity:1" fill="#e7e7e7" d="M 97.5,63.5 C 96.9002,62.1001 95.9002,61.1001 94.5,60.5C 95.2389,60.631 95.9056,60.4643 96.5,60C 94.444,59.6892 92.444,59.1892 90.5,58.5C 89.8933,58.6236 89.56,58.9569 89.5,59.5C 88.609,58.8902 87.609,58.5569 86.5,58.5C 92.9305,48.6432 98.5972,38.3099 103.5,27.5C 106.012,28.9279 108.678,29.4279 111.5,29C 113.037,27.8904 113.703,26.3904 113.5,24.5C 114.895,22.9456 115.561,23.279 115.5,25.5C 110.745,36.0161 106.245,46.6828 102,57.5C 100.236,59.3893 98.7359,61.3893 97.5,63.5 Z"/></g>
<g><path style="opacity:1" fill="#eaeaea" d="M 97.5,24.5 C 99.6348,24.147 100.968,24.9803 101.5,27C 100.68,28.8003 100.014,30.6336 99.5,32.5C 97.3652,32.853 96.0319,32.0197 95.5,30C 96.3195,28.1997 96.9862,26.3664 97.5,24.5 Z"/></g>
<g><path style="opacity:1" fill="#ebebeb" d="M 113.5,24.5 C 111.771,26.7267 109.438,27.7267 106.5,27.5C 106.5,26.1667 106.5,24.8333 106.5,23.5C 106.511,21.9826 107.177,20.8159 108.5,20C 112.492,18.8228 114.158,20.3228 113.5,24.5 Z"/></g>
<g><path style="opacity:1" fill="#e4e4e4" d="M 118.5,35.5 C 118.697,39.8063 116.697,41.8063 112.5,41.5C 112.22,38.7276 112.887,36.2276 114.5,34C 116.352,33.2274 117.686,33.7274 118.5,35.5 Z"/></g>
<g><path style="opacity:1" fill="#555555" d="M 188.5,33.5 C 189.833,34.8333 191.167,36.1667 192.5,37.5C 192.631,38.2389 192.464,38.9056 192,39.5C 190.053,37.9366 188.886,35.9366 188.5,33.5 Z"/></g>
<g><path style="opacity:1" fill="#4c4b4c" d="M 183.5,25.5 C 186.044,25.1043 188.211,25.771 190,27.5C 195.079,34.3983 199.913,41.3983 204.5,48.5C 201.167,44.8333 197.833,41.1667 194.5,37.5C 192.38,33.8758 190.047,30.3758 187.5,27C 186.668,26.3123 186.002,26.479 185.5,27.5C 187.264,29.1296 188.264,31.1296 188.5,33.5C 188.167,33.5 187.833,33.5 187.5,33.5C 185.733,31.0616 184.399,28.395 183.5,25.5 Z"/></g>
<g><path style="opacity:1" fill="#adadae" d="M 174.5,33.5 C 175.737,34.9649 176.737,36.6316 177.5,38.5C 175.597,38.7959 173.93,39.4625 172.5,40.5C 171.662,40.1583 171.328,39.4916 171.5,38.5C 175.708,37.715 176.042,36.8817 172.5,36C 173.381,35.2917 174.047,34.4584 174.5,33.5 Z"/></g>
<g><path style="opacity:1" fill="#767676" d="M 95.5,40.5 C 95.0679,41.7095 94.4013,42.7095 93.5,43.5C 92.9688,41.3763 91.6355,39.8763 89.5,39C 91.5056,39.1503 93.5056,39.6503 95.5,40.5 Z"/></g>
<g><path style="opacity:1" fill="#eaeaea" d="M 92.5,30.5 C 94.5,31.8333 96.1667,33.5 97.5,35.5C 96.5592,37.0495 95.8925,38.7162 95.5,40.5C 93.5056,39.6503 91.5056,39.1503 89.5,39C 91.6355,39.8763 92.9688,41.3763 93.5,43.5C 90.0013,47.8269 87.0013,52.4936 84.5,57.5C 82.4812,56.2447 80.4812,55.9114 78.5,56.5C 80.5435,57.0652 82.2102,58.0652 83.5,59.5C 83.4431,60.609 83.1098,61.609 82.5,62.5C 79.9616,61.9573 77.6282,60.9573 75.5,59.5C 80.9029,49.6966 86.5695,40.0299 92.5,30.5 Z"/></g>
<g><path style="opacity:1" fill="#696969" d="M 118.5,35.5 C 119.652,36.625 120.652,36.625 121.5,35.5C 122.338,35.8417 122.672,36.5084 122.5,37.5C 121.833,39.5 121.167,41.5 120.5,43.5C 120.662,41.4727 120.495,39.4727 120,37.5C 119.054,42.1594 116.554,43.4927 112.5,41.5C 116.697,41.8063 118.697,39.8063 118.5,35.5 Z"/></g>
<g><path style="opacity:1" fill="#dedede" d="M 77.5,41.5 C 80.9209,41.2384 81.9209,42.5717 80.5,45.5C 79.3112,46.4287 77.9778,46.762 76.5,46.5C 76.366,44.7085 76.6993,43.0418 77.5,41.5 Z"/></g>
<g><path style="opacity:1" fill="#737373" d="M 109.5,44.5 C 109.241,47.4797 110.574,49.313 113.5,50C 111.512,50.1805 109.512,50.0138 107.5,49.5C 108.024,47.6943 108.691,46.0276 109.5,44.5 Z"/></g>
<g><path style="opacity:1" fill="#797979" d="M 91.5,51.5 C 95.2928,51.4404 97.4594,53.1071 98,56.5C 95.8064,54.635 93.6397,52.9683 91.5,51.5 Z"/></g>
<g><path style="opacity:1" fill="#dedede" d="M 67.5,68.5 C 64.775,68.063 62.775,66.7296 61.5,64.5C 63.5273,64.6621 65.5273,64.4955 67.5,64C 65.563,63.8784 64.2297,63.045 63.5,61.5C 67.0041,56.4854 70.3375,51.3187 73.5,46C 75.22,46.71 76.8867,47.8767 78.5,49.5C 74.5691,55.6972 70.9024,62.0305 67.5,68.5 Z"/></g>
<g><path style="opacity:1" fill="#7d7d7d" d="M 84.5,57.5 C 84.6716,58.4916 84.3382,59.1583 83.5,59.5C 82.2102,58.0652 80.5435,57.0652 78.5,56.5C 80.4812,55.9114 82.4812,56.2447 84.5,57.5 Z"/></g>
<g><path style="opacity:1" fill="#737374" d="M 90.5,56.5 C 90.56,55.9569 90.8933,55.6236 91.5,55.5C 93.1667,56.3333 94.8333,57.1667 96.5,58C 94.3049,58.4094 92.3049,57.9094 90.5,56.5 Z"/></g>
<g><path style="opacity:1" fill="#656565" d="M 89.5,59.5 C 89.56,58.9569 89.8933,58.6236 90.5,58.5C 92.444,59.1892 94.444,59.6892 96.5,60C 95.9056,60.4643 95.2389,60.631 94.5,60.5C 92.7085,60.634 91.0418,60.3007 89.5,59.5 Z"/></g>
<g><path style="opacity:1" fill="#6f6f6f" d="M 63.5,61.5 C 64.2297,63.045 65.563,63.8784 67.5,64C 65.5273,64.4955 63.5273,64.6621 61.5,64.5C 61.9321,63.2905 62.5987,62.2905 63.5,61.5 Z"/></g>
<g><path style="opacity:1" fill="#777677" d="M 75.5,59.5 C 77.6282,60.9573 79.9616,61.9573 82.5,62.5C 82.6716,63.4916 82.3382,64.1583 81.5,64.5C 79.9812,63.5902 78.3146,62.7568 76.5,62C 75.7476,61.3292 75.4142,60.4959 75.5,59.5 Z"/></g>
<g><path style="opacity:1" fill="#6e6e6e" d="M 101.5,66.5 C 103.605,65.1811 105.605,65.5144 107.5,67.5C 107.333,67.8333 107.167,68.1667 107,68.5C 105.416,67.1387 103.582,66.472 101.5,66.5 Z"/></g>
<g><path style="opacity:1" fill="#595959" d="M 204.5,48.5 C 205.458,48.9528 206.292,49.6195 207,50.5C 212.66,62.9102 218.66,74.9102 225,86.5C 223.333,84.5 221.667,82.5 220,80.5C 214.571,69.9209 209.404,59.2542 204.5,48.5 Z"/></g>
<g><path style="opacity:1" fill="#868687" d="M 61.5,64.5 C 62.775,66.7296 64.775,68.063 67.5,68.5C 67.1667,69.5 66.5,70.1667 65.5,70.5C 63.9699,68.6535 61.9699,67.6535 59.5,67.5C 59.9321,66.2905 60.5987,65.2905 61.5,64.5 Z"/></g>
<g><path style="opacity:1" fill="#848484" d="M 100.5,70.5 C 100.56,69.9569 100.893,69.6236 101.5,69.5C 103.225,70.0149 104.892,70.6816 106.5,71.5C 104.383,72.4693 102.383,72.136 100.5,70.5 Z"/></g>
<g><path style="opacity:1" fill="#585859" d="M 178.5,55.5 C 180.828,56.7356 181.994,58.7356 182,61.5C 182.091,65.2533 182.258,68.92 182.5,72.5C 187.236,74.0055 192.069,75.0055 197,75.5C 201.424,82.0017 204.424,89.0017 206,96.5C 203.194,89.5545 199.861,82.8878 196,76.5C 192.927,75.3832 189.76,75.2165 186.5,76C 185.283,77.6477 184.45,79.481 184,81.5C 178.27,84.9502 172.103,87.1168 165.5,88C 162,90.8333 158.5,93.6667 155,96.5C 154.333,95.8333 154.333,95.1667 155,94.5C 158.167,92 161.333,89.5 164.5,87C 171.121,86.1051 177.288,83.9384 183,80.5C 185.373,77.3739 184.873,75.0405 181.5,73.5C 180.972,67.3632 179.972,61.3632 178.5,55.5 Z"/></g>
<g><path style="opacity:1" fill="#ec7919" d="M 209.5,144.5 C 208.167,143.833 206.833,143.167 205.5,142.5C 208.476,138.518 211.476,134.518 214.5,130.5C 218.15,134.804 220.483,139.804 221.5,145.5C 219.167,145.5 216.833,145.5 214.5,145.5C 211.781,161.77 202.781,167.27 187.5,162C 178.643,151.411 175.476,139.245 178,125.5C 180.065,117.857 184.232,111.69 190.5,107C 200.579,103.954 208.079,107.121 213,116.5C 213.833,119.667 212.667,120.833 209.5,120C 199.167,106.475 190.667,107.642 184,123.5C 180.826,135.29 182.493,146.29 189,156.5C 198.521,161.743 205.187,159.076 209,148.5C 209.49,147.207 209.657,145.873 209.5,144.5 Z"/></g>
<g><path style="opacity:1" fill="#353436" d="M 122.5,37.5 C 122.622,42.2318 122.122,46.8984 121,51.5C 115.085,68.3964 109.418,85.3964 104,102.5C 102.753,105.329 101.253,107.995 99.5,110.5C 102.937,112.879 106.603,113.545 110.5,112.5C 116.17,104.703 122.17,104.537 128.5,112C 131.617,110.822 134.95,110.489 138.5,111C 139.5,112 140.5,113 141.5,114C 146.929,115.911 151.762,118.744 156,122.5C 162.298,133.058 165.965,144.392 167,156.5C 176.53,165.696 185.697,175.196 194.5,185C 199.983,189.906 205.649,194.572 211.5,199C 210.5,199.667 209.5,199.667 208.5,199C 205.5,196.667 202.5,194.333 199.5,192C 188.308,179.809 176.808,167.976 165,156.5C 164.667,152.833 164.333,149.167 164,145.5C 160.853,137.717 157.52,130.05 154,122.5C 148.287,119.726 142.787,116.56 137.5,113C 134.5,113.333 131.5,113.667 128.5,114C 126.208,112.71 124.208,111.043 122.5,109C 120.5,108.333 118.5,108.333 116.5,109C 114.461,111.374 112.128,113.374 109.5,115C 105.218,114.371 100.885,114.038 96.5,114C 89.9484,124.184 88.9484,134.85 93.5,146C 93.1667,146.5 92.8333,147 92.5,147.5C 84.7651,141.618 77.0985,135.451 69.5,129C 64.5661,126.062 59.2328,124.895 53.5,125.5C 51.4677,126.048 50.4677,127.381 50.5,129.5C 49.4017,130.601 49.235,131.934 50,133.5C 51.7742,134.965 53.6075,136.298 55.5,137.5C 56.5,138.5 57.5,139.5 58.5,140.5C 60.2048,142.192 62.2048,143.525 64.5,144.5C 64.9731,145.906 65.9731,146.573 67.5,146.5C 67.9731,147.906 68.9731,148.573 70.5,148.5C 82.5477,161.54 96.2143,172.707 111.5,182C 115.833,182.333 120.167,182.667 124.5,183C 131.902,188.029 138.902,193.529 145.5,199.5C 144.998,200.521 144.332,200.688 143.5,200C 137.5,195.333 131.5,190.667 125.5,186C 121.5,185.667 117.5,185.333 113.5,185C 100.086,177.924 88.0858,168.924 77.5,158C 74.5,157.833 71.5,157.667 68.5,157.5C 62.8487,156.37 58.3487,158.037 55,162.5C 49.5303,174.422 44.3636,186.422 39.5,198.5C 42.5805,185.462 47.4139,172.795 54,160.5C 55.5,159 57,157.5 58.5,156C 63.5329,155.829 68.5329,155.329 73.5,154.5C 64.5794,148.108 56.0794,141.108 48,133.5C 47.3333,131.5 47.3333,129.5 48,127.5C 53.2065,123.158 59.0398,122.325 65.5,125C 73.5261,130.348 81.1928,136.181 88.5,142.5C 89.4163,138.708 89.4163,134.874 88.5,131C 89.4681,126.884 90.3015,122.717 91,118.5C 95.7511,113.067 99.7511,107.067 103,100.5C 108.862,81.4599 114.695,62.4599 120.5,43.5C 121.167,41.5 121.833,39.5 122.5,37.5 Z"/></g>
<g><path style="opacity:1" fill="#777677" d="M 53.5,125.5 C 62.9851,128.107 64.6518,133.107 58.5,140.5C 57.5,139.5 56.5,138.5 55.5,137.5C 60.2129,137.532 61.7129,135.199 60,130.5C 56.9973,128.359 53.8307,128.026 50.5,129.5C 50.4677,127.381 51.4677,126.048 53.5,125.5 Z"/></g>
<g><path style="opacity:1" fill="#ebebeb" d="M 55.5,137.5 C 53.6075,136.298 51.7742,134.965 50,133.5C 49.235,131.934 49.4017,130.601 50.5,129.5C 53.8307,128.026 56.9973,128.359 60,130.5C 61.7129,135.199 60.2129,137.532 55.5,137.5 Z"/></g>
<g><path style="opacity:1" fill="#7c7c7c" d="M 67.5,146.5 C 65.9731,146.573 64.9731,145.906 64.5,144.5C 65.4959,144.586 66.3292,144.252 67,143.5C 67.7485,141.668 68.7485,140.001 70,138.5C 69.5707,141.171 68.7374,143.838 67.5,146.5 Z"/></g>
<g><path style="opacity:1" fill="#f0ac75" d="M 205.5,142.5 C 206.833,143.167 208.167,143.833 209.5,144.5C 207.712,144.785 206.045,144.452 204.5,143.5C 204.624,142.893 204.957,142.56 205.5,142.5 Z"/></g>
<g><path style="opacity:1" fill="#878788" d="M 70.5,148.5 C 68.9731,148.573 67.9731,147.906 67.5,146.5C 68.4959,146.586 69.3292,146.252 70,145.5C 70.9385,142.879 71.7719,140.212 72.5,137.5C 72.8333,138.333 73.1667,139.167 73.5,140C 72.6334,142.896 71.6334,145.729 70.5,148.5 Z"/></g>
</svg>
