<?xml version="1.0" encoding="UTF-8"?>
<!DOCTYPE svg PUBLIC "-//W3C//DTD SVG 1.1//EN" "http://www.w3.org/Graphics/SVG/1.1/DTD/svg11.dtd">
<svg xmlns="http://www.w3.org/2000/svg" version="1.1" width="257px" height="154px" style="shape-rendering:geometricPrecision; text-rendering:geometricPrecision; image-rendering:optimizeQuality; fill-rule:evenodd; clip-rule:evenodd" xmlns:xlink="http://www.w3.org/1999/xlink">
<g><path style="opacity:1" fill="#eaeaea" d="M -0.5,-0.5 C 85.1667,-0.5 170.833,-0.5 256.5,-0.5C 256.5,50.8333 256.5,102.167 256.5,153.5C 170.833,153.5 85.1667,153.5 -0.5,153.5C -0.5,137.833 -0.5,122.167 -0.5,106.5C 11.0996,102.229 23.0996,100.395 35.5,101C 48.6138,109.312 62.9471,112.812 78.5,111.5C 79.0473,116.381 81.7139,119.381 86.5,120.5C 89.1702,121.248 91.8369,122.248 94.5,123.5C 99.4846,126.018 103.818,129.518 107.5,134C 109.167,134.667 110.833,134.667 112.5,134C 123.247,129.862 133.914,125.529 144.5,121C 152.5,115 160.5,109 168.5,103C 171.309,101.342 174.309,100.175 177.5,99.5C 195.633,103.489 213.299,108.989 230.5,116C 232.167,116.667 233.833,116.667 235.5,116C 216.672,107.914 197.172,101.747 177,97.5C 173.338,98.5798 169.838,100.08 166.5,102C 155.998,111.419 144.332,119.086 131.5,125C 124.495,127.503 117.495,130.003 110.5,132.5C 106.418,129.925 102.751,126.758 99.5,123C 103.821,122.501 108.154,122.334 112.5,122.5C 112.369,123.239 112.536,123.906 113,124.5C 117.531,122.753 122.365,121.92 127.5,122C 129.701,120.957 132.034,120.123 134.5,119.5C 131.761,118.233 129.094,118.399 126.5,120C 113.154,120.639 99.8206,120.473 86.5,119.5C 80.2489,114.968 78.7489,108.968 82,101.5C 82.6891,100.643 83.5224,99.9767 84.5,99.5C 91.4733,100.797 98.4733,100.797 105.5,99.5C 98.8581,98.6691 92.1915,98.1691 85.5,98C 75.9974,94.9689 73.9974,89.3022 79.5,81C 82.8492,80.6124 86.1825,80.7791 89.5,81.5C 95.6783,82.8174 102.012,82.8174 108.5,81.5C 108.376,80.8933 108.043,80.56 107.5,80.5C 99.2957,79.8061 90.9623,79.1394 82.5,78.5C 79.4068,70.8225 81.7401,65.8225 89.5,63.5C 96.4935,64.7625 103.493,64.7625 110.5,63.5C 104.537,62.5041 98.5368,62.1707 92.5,62.5C 92.3359,59.8127 92.5026,57.146 93,54.5C 93.9025,53.2986 95.0692,52.4652 96.5,52C 112.055,49.0572 127.722,46.5572 143.5,44.5C 158.649,46.2051 173.649,48.7051 188.5,52C 202.7,58.2677 217.367,63.101 232.5,66.5C 233.167,66.1667 233.833,65.8333 234.5,65.5C 218.66,61.831 203.326,56.6644 188.5,50C 176.08,48.1451 163.746,45.8118 151.5,43C 145.627,42.2321 139.794,42.3987 134,43.5C 133.5,43.3333 133,43.1667 132.5,43C 135.514,39.4444 135.18,36.4444 131.5,34C 125.072,34.6041 118.572,35.1041 112,35.5C 101.733,35.2792 91.5661,34.2792 81.5,32.5C 79.3659,32.5153 77.3659,33.0153 75.5,34C 66.9729,40.4295 57.9729,46.0962 48.5,51C 32.0687,53.7382 15.7353,56.9048 -0.5,60.5C -0.5,40.1667 -0.5,19.8333 -0.5,-0.5 Z"/></g>
<g><path style="opacity:1" fill="#373638" d="M 107.5,80.5 C 101.69,81.4896 95.69,81.8229 89.5,81.5C 86.1825,80.7791 82.8492,80.6124 79.5,81C 73.9974,89.3022 75.9974,94.9689 85.5,98C 92.1915,98.1691 98.8581,98.6691 105.5,99.5C 98.4733,100.797 91.4733,100.797 84.5,99.5C 83.5224,99.9767 82.6891,100.643 82,101.5C 78.7489,108.968 80.2489,114.968 86.5,119.5C 86.5,119.833 86.5,120.167 86.5,120.5C 81.7139,119.381 79.0473,116.381 78.5,111.5C 62.9471,112.812 48.6138,109.312 35.5,101C 23.0996,100.395 11.0996,102.229 -0.5,106.5C -0.5,105.5 -0.5,104.5 -0.5,103.5C 4.5076,102.531 9.5076,101.364 14.5,100C 21.8182,99.0007 29.1516,98.6674 36.5,99C 49.2418,107.185 63.2418,110.685 78.5,109.5C 78.3574,105.148 79.3574,101.148 81.5,97.5C 77.9567,97.128 75.79,95.128 75,91.5C 74.2782,88.7395 74.4448,86.0728 75.5,83.5C 76.6464,81.525 78.313,80.025 80.5,79C 79.5495,75.9433 79.2161,72.7766 79.5,69.5C 81.3467,64.9876 84.6801,62.321 89.5,61.5C 89.7564,59.2075 89.4231,57.0408 88.5,55C 91.1019,54.065 92.6019,52.2317 93,49.5C 93.5613,50.0219 94.228,50.3552 95,50.5C 100.723,48.9807 106.556,48.1474 112.5,48C 118.226,46.8181 123.893,45.4847 129.5,44C 132.754,41.2494 133.088,38.4161 130.5,35.5C 129.5,34.1667 128.5,34.1667 127.5,35.5C 125.784,35.6287 124.117,35.962 122.5,36.5C 121.833,36.8333 121.167,37.1667 120.5,37.5C 115.767,37.2232 111.1,37.5565 106.5,38.5C 105.205,37.9017 103.872,37.4017 102.5,37C 94.1148,36.3808 85.7815,35.7141 77.5,35C 69.1751,41.1642 60.5084,46.8309 51.5,52C 34.0862,55.1959 16.7529,58.6959 -0.5,62.5C -0.5,61.8333 -0.5,61.1667 -0.5,60.5C 15.7353,56.9048 32.0687,53.7382 48.5,51C 57.9729,46.0962 66.9729,40.4295 75.5,34C 77.3659,33.0153 79.3659,32.5153 81.5,32.5C 91.5661,34.2792 101.733,35.2792 112,35.5C 118.572,35.1041 125.072,34.6041 131.5,34C 135.18,36.4444 135.514,39.4444 132.5,43C 133,43.1667 133.5,43.3333 134,43.5C 139.794,42.3987 145.627,42.2321 151.5,43C 163.746,45.8118 176.08,48.1451 188.5,50C 203.326,56.6644 218.66,61.831 234.5,65.5C 233.833,65.8333 233.167,66.1667 232.5,66.5C 217.367,63.101 202.7,58.2677 188.5,52C 173.649,48.7051 158.649,46.2051 143.5,44.5C 127.722,46.5572 112.055,49.0572 96.5,52C 95.0692,52.4652 93.9025,53.2986 93,54.5C 92.5026,57.146 92.3359,59.8127 92.5,62.5C 98.5368,62.1707 104.537,62.5041 110.5,63.5C 103.493,64.7625 96.4935,64.7625 89.5,63.5C 81.7401,65.8225 79.4068,70.8225 82.5,78.5C 90.9623,79.1394 99.2957,79.8061 107.5,80.5 Z"/></g>
<g><path style="opacity:1" fill="#7d7c7e" d="M 127.5,35.5 C 128.5,34.1667 129.5,34.1667 130.5,35.5C 127.674,39.6665 124.34,40.3331 120.5,37.5C 121.167,37.1667 121.833,36.8333 122.5,36.5C 123.946,37.6129 125.613,37.7796 127.5,37C 128.738,36.31 128.738,35.81 127.5,35.5 Z"/></g>
<g><path style="opacity:1" fill="#e8e8e8" d="M 120.5,37.5 C 124.34,40.3331 127.674,39.6665 130.5,35.5C 133.088,38.4161 132.754,41.2494 129.5,44C 123.893,45.4847 118.226,46.8181 112.5,48C 106.556,48.1474 100.723,48.9807 95,50.5C 94.228,50.3552 93.5613,50.0219 93,49.5C 92.6019,52.2317 91.1019,54.065 88.5,55C 89.4231,57.0408 89.7564,59.2075 89.5,61.5C 84.6801,62.321 81.3467,64.9876 79.5,69.5C 78.6805,72.3054 78.1805,75.3054 78,78.5C 76.0077,79.3281 74.5077,80.6614 73.5,82.5C 74.4916,82.3284 75.1583,82.6618 75.5,83.5C 74.4448,86.0728 74.2782,88.7395 75,91.5C 75.79,95.128 77.9567,97.128 81.5,97.5C 79.3574,101.148 78.3574,105.148 78.5,109.5C 63.2418,110.685 49.2418,107.185 36.5,99C 29.1516,98.6674 21.8182,99.0007 14.5,100C 9.5076,101.364 4.5076,102.531 -0.5,103.5C -0.5,89.8333 -0.5,76.1667 -0.5,62.5C 16.7529,58.6959 34.0862,55.1959 51.5,52C 60.5084,46.8309 69.1751,41.1642 77.5,35C 85.7815,35.7141 94.1148,36.3808 102.5,37C 103.872,37.4017 105.205,37.9017 106.5,38.5C 111.1,37.5565 115.767,37.2232 120.5,37.5 Z"/></g>
<g><path style="opacity:1" fill="#1f1d21" d="M 65.5,46.5 C 66.1667,48.8333 66.8333,51.1667 67.5,53.5C 67.5,53.8333 67.5,54.1667 67.5,54.5C 67.8064,57.3854 67.4731,60.0521 66.5,62.5C 65.2921,61.7659 63.9587,61.4326 62.5,61.5C 61.0762,63.5145 60.4095,65.8478 60.5,68.5C 60.5,74.1667 60.5,79.8333 60.5,85.5C 60.2594,87.8984 60.9261,89.8984 62.5,91.5C 63.391,90.8902 64.391,90.5569 65.5,90.5C 67.256,91.5521 67.9227,93.2188 67.5,95.5C 67.0482,99.1629 66.5482,102.83 66,106.5C 61.6667,103.5 57.3333,100.5 53,97.5C 53.3166,95.2266 54.8166,94.2266 57.5,94.5C 54.9039,82.9784 54.9039,71.4784 57.5,60C 56.9152,57.8656 55.5819,56.3656 53.5,55.5C 57.1336,52.016 61.1336,49.016 65.5,46.5 Z"/></g>
<g><path style="opacity:1" fill="#ddddde" d="M 127.5,35.5 C 128.738,35.81 128.738,36.31 127.5,37C 125.613,37.7796 123.946,37.6129 122.5,36.5C 124.117,35.962 125.784,35.6287 127.5,35.5 Z"/></g>
<g><path style="opacity:1" fill="#616063" d="M 65.5,46.5 C 65.56,45.9569 65.8933,45.6236 66.5,45.5C 67.48,48.0865 67.8134,50.7531 67.5,53.5C 66.8333,51.1667 66.1667,48.8333 65.5,46.5 Z"/></g>
<g><path style="opacity:1" fill="#9d9d9d" d="M 67.5,54.5 C 68.8032,57.3553 68.8032,60.3553 67.5,63.5C 66.8933,63.3764 66.56,63.0431 66.5,62.5C 67.4731,60.0521 67.8064,57.3854 67.5,54.5 Z"/></g>
<g><path style="opacity:1" fill="#908f91" d="M 62.5,61.5 C 62.5905,64.1522 61.9238,66.4855 60.5,68.5C 60.4095,65.8478 61.0762,63.5145 62.5,61.5 Z"/></g>
<g><path style="opacity:1" fill="#727273" d="M 79.5,69.5 C 79.2161,72.7766 79.5495,75.9433 80.5,79C 78.313,80.025 76.6464,81.525 75.5,83.5C 75.1583,82.6618 74.4916,82.3284 73.5,82.5C 74.5077,80.6614 76.0077,79.3281 78,78.5C 78.1805,75.3054 78.6805,72.3054 79.5,69.5 Z"/></g>
<g><path style="opacity:1" fill="#acabad" d="M 107.5,80.5 C 108.043,80.56 108.376,80.8933 108.5,81.5C 102.012,82.8174 95.6783,82.8174 89.5,81.5C 95.69,81.8229 101.69,81.4896 107.5,80.5 Z"/></g>
<g><path style="opacity:1" fill="#1e1c20" d="M 142.5,110.5 C 142.179,104.974 142.512,99.6405 143.5,94.5C 145.416,96.1157 146.916,95.7823 148,93.5C 151.287,83.1576 151.287,72.8243 148,62.5C 146.542,61.2532 145.042,61.2532 143.5,62.5C 142.167,57.1667 142.167,51.8333 143.5,46.5C 148.333,49.0821 153,51.9155 157.5,55C 154.907,55.6063 153.24,57.1063 152.5,59.5C 156.603,72.2744 156.269,84.9411 151.5,97.5C 153.028,98.8613 154.695,100.028 156.5,101C 151.978,104.424 147.311,107.591 142.5,110.5 Z"/></g>
<g><path style="opacity:1" fill="#7d7c7e" d="M 73.5,82.5 C 70.7442,85.3891 67.4109,87.5558 63.5,89C 62.7476,89.6708 62.4142,90.5041 62.5,91.5C 60.9261,89.8984 60.2594,87.8984 60.5,85.5C 61.1556,86.2778 61.9889,86.9444 63,87.5C 66.6133,85.9422 70.1133,84.2755 73.5,82.5 Z"/></g>
<g><path style="opacity:1" fill="#9b9b9c" d="M 65.5,90.5 C 66.209,89.596 67.209,89.2627 68.5,89.5C 68.7947,91.7354 68.4614,93.7354 67.5,95.5C 67.9227,93.2188 67.256,91.5521 65.5,90.5 Z"/></g>
<g><path style="opacity:1" fill="#363537" d="M 94.5,123.5 C 95.1515,122.909 95.8182,122.243 96.5,121.5C 101.842,121.265 107.175,121.598 112.5,122.5C 108.154,122.334 103.821,122.501 99.5,123C 102.751,126.758 106.418,129.925 110.5,132.5C 117.495,130.003 124.495,127.503 131.5,125C 144.332,119.086 155.998,111.419 166.5,102C 169.838,100.08 173.338,98.5798 177,97.5C 197.172,101.747 216.672,107.914 235.5,116C 233.833,116.667 232.167,116.667 230.5,116C 213.299,108.989 195.633,103.489 177.5,99.5C 174.309,100.175 171.309,101.342 168.5,103C 160.5,109 152.5,115 144.5,121C 133.914,125.529 123.247,129.862 112.5,134C 110.833,134.667 109.167,134.667 107.5,134C 103.818,129.518 99.4846,126.018 94.5,123.5 Z"/></g>
<g><path style="opacity:1" fill="#878688" d="M 143.5,94.5 C 142.512,99.6405 142.179,104.974 142.5,110.5C 141.184,104.987 141.184,99.3204 142.5,93.5C 143.107,93.6236 143.44,93.9569 143.5,94.5 Z"/></g>
<g><path style="opacity:1" fill="#2c2b2e" d="M 112.5,122.5 C 107.175,121.598 101.842,121.265 96.5,121.5C 95.8182,122.243 95.1515,122.909 94.5,123.5C 91.8369,122.248 89.1702,121.248 86.5,120.5C 86.5,120.167 86.5,119.833 86.5,119.5C 99.8206,120.473 113.154,120.639 126.5,120C 129.094,118.399 131.761,118.233 134.5,119.5C 132.034,120.123 129.701,120.957 127.5,122C 122.365,121.92 117.531,122.753 113,124.5C 112.536,123.906 112.369,123.239 112.5,122.5 Z"/></g>
</svg>
