<?xml version="1.0" encoding="UTF-8"?>
<!DOCTYPE svg PUBLIC "-//W3C//DTD SVG 1.1//EN" "http://www.w3.org/Graphics/SVG/1.1/DTD/svg11.dtd">
<svg xmlns="http://www.w3.org/2000/svg" version="1.1" width="262px" height="216px" style="shape-rendering:geometricPrecision; text-rendering:geometricPrecision; image-rendering:optimizeQuality; fill-rule:evenodd; clip-rule:evenodd" xmlns:xlink="http://www.w3.org/1999/xlink">
<g><path style="opacity:1" fill="#f4f3f3" d="M -0.5,-0.5 C 86.8333,-0.5 174.167,-0.5 261.5,-0.5C 261.5,71.5 261.5,143.5 261.5,215.5C 174.167,215.5 86.8333,215.5 -0.5,215.5C -0.5,203.167 -0.5,190.833 -0.5,178.5C 11.1785,165.65 22.3451,152.316 33,138.5C 36.7546,133.997 39.7546,128.997 42,123.5C 42.6782,111.989 42.5115,100.489 41.5,89C 43.8036,79.6881 44.9703,70.1881 45,60.5C 47.3301,56.6784 49.8301,53.0117 52.5,49.5C 56.0534,47.9349 58.0534,45.1016 58.5,41C 58.1918,39.5405 57.5251,38.3739 56.5,37.5C 56.8425,35.7748 57.8425,35.2748 59.5,36C 64.1515,40.5357 65.6515,46.0357 64,52.5C 62.9816,56.2489 61.8149,59.9156 60.5,63.5C 59.0222,63.238 57.6888,63.5713 56.5,64.5C 57.325,65.3857 58.325,65.719 59.5,65.5C 59.5,67.8333 59.5,70.1667 59.5,72.5C 57.7275,76.5264 58.2275,80.193 61,83.5C 61.7876,80.0373 63.4543,77.0373 66,74.5C 76.1371,65.3637 85.9705,55.8637 95.5,46C 102.46,40.7084 109.127,35.0417 115.5,29C 119.893,25.5495 124.726,24.7162 130,26.5C 131.301,28.3646 131.635,30.3646 131,32.5C 117.281,44.3848 104.781,57.3848 93.5,71.5C 94.0016,72.521 94.6683,72.6877 95.5,72C 108.554,56.2791 122.888,41.9458 138.5,29C 144.712,28.5456 147.546,31.3789 147,37.5C 132.428,50.0697 119.262,63.9031 107.5,79C 108.5,79.6667 109.5,79.6667 110.5,79C 121.483,64.6846 133.816,51.6846 147.5,40C 152.783,40.3196 154.616,43.1529 153,48.5C 140.299,61.5328 127.966,74.8661 116,88.5C 108.694,81.8822 100.528,80.2155 91.5,83.5C 88.5514,82.6978 85.5514,82.3645 82.5,82.5C 79.1501,82.335 75.8168,82.5017 72.5,83C 67.8834,85.2209 63.7167,88.0542 60,91.5C 58.2626,90.3802 56.4292,89.3802 54.5,88.5C 53.5159,91.4281 53.1826,94.4281 53.5,97.5C 52.1997,100.024 52.1997,102.691 53.5,105.5C 54.1067,105.376 54.44,105.043 54.5,104.5C 59.3665,103.069 64.0332,101.069 68.5,98.5C 67.0186,97.5197 65.6853,96.353 64.5,95C 68.3082,90.0052 73.3082,87.5052 79.5,87.5C 79.5,88.8333 79.5,90.1667 79.5,91.5C 75.2792,92.2213 72.9458,94.7213 72.5,99C 74.669,106.007 77.669,112.674 81.5,119C 75.1679,119.17 72.8346,122.337 74.5,128.5C 60.9361,136.478 53.7694,132.478 53,116.5C 49.3407,114.98 47.8407,116.313 48.5,120.5C 51.4608,136.647 60.1275,140.981 74.5,133.5C 75.7654,139.443 77.2654,145.443 79,151.5C 79.6667,153.5 79.6667,155.5 79,157.5C 68.3419,171.482 58.1753,185.815 48.5,200.5C 49.2739,201.711 50.1072,201.711 51,200.5C 60.2497,186.085 70.083,172.085 80.5,158.5C 80.8841,164.208 82.3841,169.541 85,174.5C 94.5415,183.044 104.375,191.21 114.5,199C 115.332,199.688 115.998,199.521 116.5,198.5C 105.723,190.673 95.5561,182.007 86,172.5C 84.2026,164.836 82.3693,157.169 80.5,149.5C 81.5113,147.801 82.8446,146.301 84.5,145C 83.1023,143.351 83.4356,142.018 85.5,141C 83.4183,141.932 81.085,142.432 78.5,142.5C 78.2786,139.721 78.612,137.054 79.5,134.5C 81.2427,133.359 82.2427,131.692 82.5,129.5C 82.1078,126.299 80.7744,123.633 78.5,121.5C 79.8734,121.343 81.2068,121.51 82.5,122C 87.1633,132.154 90.83,142.654 93.5,153.5C 93.1796,156.898 93.513,160.232 94.5,163.5C 95.1067,163.376 95.44,163.043 95.5,162.5C 96.4675,159.555 96.6342,156.555 96,153.5C 91.9143,135.567 84.9143,118.901 75,103.5C 74.5034,101.19 74.3367,98.8568 74.5,96.5C 77.2492,96.7261 79.9159,96.3928 82.5,95.5C 83.7387,95.9424 84.7387,96.6091 85.5,97.5C 88.8049,101.141 92.1383,104.808 95.5,108.5C 95.5858,109.496 95.2524,110.329 94.5,111C 91.5,111.833 88.5,112.667 85.5,113.5C 86.1667,113.833 86.8333,114.167 87.5,114.5C 90.955,113.804 94.2883,112.804 97.5,111.5C 101.308,117.77 105.141,124.103 109,130.5C 109.667,129.5 109.667,128.5 109,127.5C 105.667,121.5 102.333,115.5 99,109.5C 94.9131,106.084 91.5797,102.084 89,97.5C 86.6667,95.8333 84.3333,94.1667 82,92.5C 81.51,91.2068 81.3433,89.8734 81.5,88.5C 83.8185,88.0075 85.8185,87.0075 87.5,85.5C 88.552,85.3505 89.552,85.5172 90.5,86C 85.332,89.9222 85.6653,90.2556 91.5,87C 93.1667,86.3333 94.8333,86.3333 96.5,87C 99.7735,90.112 103.44,92.612 107.5,94.5C 104.815,95.6285 102.148,96.9618 99.5,98.5C 103.554,99.8801 107.221,99.2134 110.5,96.5C 112.129,97.6253 113.629,98.9586 115,100.5C 118.078,106.991 121.412,113.325 125,119.5C 125.837,121.007 127.004,121.507 128.5,121C 123.607,113.379 119.107,105.546 115,97.5C 110.325,95.0909 106.158,92.0909 102.5,88.5C 104.455,88.2014 105.789,87.2014 106.5,85.5C 111.943,88.3919 117.276,91.5586 122.5,95C 121.167,95.3333 119.833,95.6667 118.5,96C 126.863,96.7488 127.197,97.7488 119.5,99C 122.167,99.3333 124.833,99.6667 127.5,100C 131.3,105.887 134.633,112.053 137.5,118.5C 138.167,119.833 138.833,119.833 139.5,118.5C 137.131,115.439 135.631,112.106 135,108.5C 140.202,115.578 145.869,122.245 152,128.5C 155.088,138.683 158.755,148.683 163,158.5C 164.627,173.75 170.127,187.416 179.5,199.5C 179.833,199.167 180.167,198.833 180.5,198.5C 170.749,184.325 164.916,168.658 163,151.5C 159.544,145.249 157.211,138.582 156,131.5C 147.105,120.943 138.605,110.109 130.5,99C 136.652,90.1772 142.819,81.3439 149,72.5C 152.934,66.9128 152.1,62.2462 146.5,58.5C 148.817,55.6826 151.317,53.0159 154,50.5C 156.744,45.2379 155.577,41.2379 150.5,38.5C 150.369,31.7108 147.035,27.7108 140.5,26.5C 138.029,26.7948 135.863,27.7948 134,29.5C 131.185,23.8309 126.685,21.9976 120.5,24C 117.567,25.2709 114.901,26.9376 112.5,29C 94.7612,43.7347 77.9279,59.5681 62,76.5C 61.6558,68.2466 62.9892,60.2466 66,52.5C 67.7019,45.7552 66.2019,39.9218 61.5,35C 58.7838,32.8489 56.2838,33.0155 54,35.5C 52.8423,39.7974 51.8423,44.1307 51,48.5C 47.568,52.3643 44.9013,56.6977 43,61.5C 41.9518,71.0385 40.7851,80.5385 39.5,90C 40.4663,100.824 40.633,111.657 40,122.5C 38.4443,127.28 36.1109,131.613 33,135.5C 22.3451,149.316 11.1785,162.65 -0.5,175.5C -0.5,116.833 -0.5,58.1667 -0.5,-0.5 Z"/></g>
<g><path style="opacity:1" fill="#575757" d="M 216.5,59.5 C 216.477,61.9267 215.977,64.26 215,66.5C 212.468,70.8811 209.301,74.8811 205.5,78.5C 206.831,80.8235 206.498,82.8235 204.5,84.5C 204.781,79.0028 203.447,78.3362 200.5,82.5C 197.85,86.1545 195.183,89.8212 192.5,93.5C 191.417,92.635 191.251,91.635 192,90.5C 194.333,87.5 196.667,84.5 199,81.5C 202.981,78.6865 206.481,75.3532 209.5,71.5C 209,70.1195 208,69.4528 206.5,69.5C 204.004,70.8885 201.337,71.8885 198.5,72.5C 201.272,70.2719 204.272,68.2719 207.5,66.5C 205.519,63.3378 202.852,62.6712 199.5,64.5C 197.545,65.3235 195.545,65.4901 193.5,65C 196.076,63.8779 198.743,62.8779 201.5,62C 199.19,61.5034 196.857,61.3367 194.5,61.5C 192.371,62.2028 190.371,63.2028 188.5,64.5C 186.057,65.1087 184.39,66.6087 183.5,69C 180.684,68.3695 178.018,69.0362 175.5,71C 169.904,76.5931 165.07,82.7598 161,89.5C 158.356,91.31 155.856,93.31 153.5,95.5C 154.78,92.5071 157.114,89.8405 160.5,87.5C 164.597,81.2338 169.263,75.4005 174.5,70C 177.778,68.1909 181.111,66.6909 184.5,65.5C 184.087,60.182 182.587,55.182 180,50.5C 178.884,46.7115 179.55,43.3782 182,40.5C 181.547,33.9482 184.547,29.9482 191,28.5C 192.285,28.9504 193.452,29.6171 194.5,30.5C 197.964,27.6991 200.797,28.3657 203,32.5C 207.999,41.3851 212.499,50.3851 216.5,59.5 Z"/></g>
<g><path style="opacity:1" fill="#eaeaea" d="M 194.5,61.5 C 191.61,61.278 188.943,61.9447 186.5,63.5C 184.653,57.6343 182.653,51.801 180.5,46C 180.438,43.0351 181.605,42.2018 184,43.5C 185.878,49.0405 188.211,54.3739 191,59.5C 191.667,58.1667 191.667,56.8333 191,55.5C 188.401,49.2007 185.901,42.8674 183.5,36.5C 183.527,34.2956 184.527,33.4622 186.5,34C 190.692,41.2146 194.192,48.7146 197,56.5C 196.783,53.153 196.116,49.8196 195,46.5C 192.304,42.4404 190.137,38.107 188.5,33.5C 188.747,30.9185 190.08,30.0851 192.5,31C 197.008,38.8497 200.842,47.0164 204,55.5C 202.093,47.0111 199.593,38.6778 196.5,30.5C 198.903,30.393 200.736,31.393 202,33.5C 206.993,42.4842 211.16,51.8175 214.5,61.5C 213.294,67.8218 211.294,68.4884 208.5,63.5C 204.043,60.5632 199.376,59.8966 194.5,61.5 Z"/></g>
<g><path style="opacity:1" fill="#5c5c5d" d="M 216.5,59.5 C 217.746,52.7456 221.746,49.5789 228.5,50C 230.072,53.1897 229.239,55.6897 226,57.5C 224.363,66.4233 221.363,74.7566 217,82.5C 216.333,85.5 216.333,88.5 217,91.5C 218.829,98.4692 220.163,105.469 221,112.5C 218.306,104.033 216.139,95.3663 214.5,86.5C 215.77,81.9565 217.603,77.6232 220,73.5C 221.409,66.0346 223.909,59.0346 227.5,52.5C 225.45,51.3373 223.45,51.5039 221.5,53C 219.934,55.3256 218.268,57.4922 216.5,59.5 Z"/></g>
<g><path style="opacity:1" fill="#333334" d="M 106.5,85.5 C 104.735,84.5386 102.735,84.2053 100.5,84.5C 99.375,85.6522 99.375,86.6522 100.5,87.5C 100.842,88.3382 101.508,88.6716 102.5,88.5C 106.158,92.0909 110.325,95.0909 115,97.5C 119.107,105.546 123.607,113.379 128.5,121C 127.004,121.507 125.837,121.007 125,119.5C 121.412,113.325 118.078,106.991 115,100.5C 113.629,98.9586 112.129,97.6253 110.5,96.5C 109.71,95.5987 108.71,94.9321 107.5,94.5C 103.44,92.612 99.7735,90.112 96.5,87C 94.8333,86.3333 93.1667,86.3333 91.5,87C 85.6653,90.2556 85.332,89.9222 90.5,86C 89.552,85.5172 88.552,85.3505 87.5,85.5C 84.2564,83.8208 82.2564,84.8208 81.5,88.5C 81.3433,89.8734 81.51,91.2068 82,92.5C 84.3333,94.1667 86.6667,95.8333 89,97.5C 91.5797,102.084 94.9131,106.084 99,109.5C 102.333,115.5 105.667,121.5 109,127.5C 109.667,128.5 109.667,129.5 109,130.5C 105.141,124.103 101.308,117.77 97.5,111.5C 97.0679,110.29 96.4013,109.29 95.5,108.5C 92.1383,104.808 88.8049,101.141 85.5,97.5C 84.7387,96.6091 83.7387,95.9424 82.5,95.5C 79.9159,96.3928 77.2492,96.7261 74.5,96.5C 74.3367,98.8568 74.5034,101.19 75,103.5C 84.9143,118.901 91.9143,135.567 96,153.5C 96.6342,156.555 96.4675,159.555 95.5,162.5C 94.8333,159.5 94.1667,156.5 93.5,153.5C 90.83,142.654 87.1633,132.154 82.5,122C 81.2068,121.51 79.8734,121.343 78.5,121.5C 77.5,121.833 76.8333,122.5 76.5,123.5C 76.5,126.833 76.5,130.167 76.5,133.5C 77.5,133.5 78.5,133.5 79.5,133.5C 79.5,133.833 79.5,134.167 79.5,134.5C 78.2353,135.514 77.5687,137.014 77.5,139C 77.6234,142.857 78.6234,146.357 80.5,149.5C 82.3693,157.169 84.2026,164.836 86,172.5C 95.5561,182.007 105.723,190.673 116.5,198.5C 115.998,199.521 115.332,199.688 114.5,199C 104.375,191.21 94.5415,183.044 85,174.5C 82.3841,169.541 80.8841,164.208 80.5,158.5C 70.083,172.085 60.2497,186.085 51,200.5C 50.1072,201.711 49.2739,201.711 48.5,200.5C 58.1753,185.815 68.3419,171.482 79,157.5C 79.6667,155.5 79.6667,153.5 79,151.5C 77.2654,145.443 75.7654,139.443 74.5,133.5C 74.5,131.833 74.5,130.167 74.5,128.5C 72.8346,122.337 75.1679,119.17 81.5,119C 77.669,112.674 74.669,106.007 72.5,99C 72.9458,94.7213 75.2792,92.2213 79.5,91.5C 79.5,90.1667 79.5,88.8333 79.5,87.5C 80.2485,85.6675 81.2485,84.0009 82.5,82.5C 85.5514,82.3645 88.5514,82.6978 91.5,83.5C 100.528,80.2155 108.694,81.8822 116,88.5C 127.966,74.8661 140.299,61.5328 153,48.5C 154.616,43.1529 152.783,40.3196 147.5,40C 133.816,51.6846 121.483,64.6846 110.5,79C 109.5,79.6667 108.5,79.6667 107.5,79C 119.262,63.9031 132.428,50.0697 147,37.5C 147.546,31.3789 144.712,28.5456 138.5,29C 122.888,41.9458 108.554,56.2791 95.5,72C 94.6683,72.6877 94.0016,72.521 93.5,71.5C 104.781,57.3848 117.281,44.3848 131,32.5C 131.635,30.3646 131.301,28.3646 130,26.5C 124.726,24.7162 119.893,25.5495 115.5,29C 109.127,35.0417 102.46,40.7084 95.5,46C 85.9705,55.8637 76.1371,65.3637 66,74.5C 63.4543,77.0373 61.7876,80.0373 61,83.5C 58.2275,80.193 57.7275,76.5264 59.5,72.5C 60.4767,69.7131 60.81,66.7131 60.5,63.5C 61.8149,59.9156 62.9816,56.2489 64,52.5C 65.6515,46.0357 64.1515,40.5357 59.5,36C 57.8425,35.2748 56.8425,35.7748 56.5,37.5C 55.1667,37.5 54.5,38.1667 54.5,39.5C 54.3259,41.861 53.9926,44.1944 53.5,46.5C 52.596,47.209 52.2627,48.209 52.5,49.5C 49.8301,53.0117 47.3301,56.6784 45,60.5C 44.9703,70.1881 43.8036,79.6881 41.5,89C 42.5115,100.489 42.6782,111.989 42,123.5C 39.7546,128.997 36.7546,133.997 33,138.5C 22.3451,152.316 11.1785,165.65 -0.5,178.5C -0.5,177.5 -0.5,176.5 -0.5,175.5C 11.1785,162.65 22.3451,149.316 33,135.5C 36.1109,131.613 38.4443,127.28 40,122.5C 40.633,111.657 40.4663,100.824 39.5,90C 40.7851,80.5385 41.9518,71.0385 43,61.5C 44.9013,56.6977 47.568,52.3643 51,48.5C 51.8423,44.1307 52.8423,39.7974 54,35.5C 56.2838,33.0155 58.7838,32.8489 61.5,35C 66.2019,39.9218 67.7019,45.7552 66,52.5C 62.9892,60.2466 61.6558,68.2466 62,76.5C 77.9279,59.5681 94.7612,43.7347 112.5,29C 114.901,26.9376 117.567,25.2709 120.5,24C 126.685,21.9976 131.185,23.8309 134,29.5C 135.863,27.7948 138.029,26.7948 140.5,26.5C 147.035,27.7108 150.369,31.7108 150.5,38.5C 155.577,41.2379 156.744,45.2379 154,50.5C 151.317,53.0159 148.817,55.6826 146.5,58.5C 152.1,62.2462 152.934,66.9128 149,72.5C 142.819,81.3439 136.652,90.1772 130.5,99C 138.605,110.109 147.105,120.943 156,131.5C 157.211,138.582 159.544,145.249 163,151.5C 164.916,168.658 170.749,184.325 180.5,198.5C 180.167,198.833 179.833,199.167 179.5,199.5C 170.127,187.416 164.627,173.75 163,158.5C 158.755,148.683 155.088,138.683 152,128.5C 145.869,122.245 140.202,115.578 135,108.5C 135.631,112.106 137.131,115.439 139.5,118.5C 138.833,119.833 138.167,119.833 137.5,118.5C 134.633,112.053 131.3,105.887 127.5,100C 124.833,99.6667 122.167,99.3333 119.5,99C 127.197,97.7488 126.863,96.7488 118.5,96C 119.833,95.6667 121.167,95.3333 122.5,95C 117.276,91.5586 111.943,88.3919 106.5,85.5 Z"/></g>
<g><path style="opacity:1" fill="#d5d5d6" d="M 53.5,46.5 C 53.9926,44.1944 54.3259,41.861 54.5,39.5C 56.1007,38.3572 56.7674,39.0239 56.5,41.5C 56.423,43.299 55.923,44.9656 55,46.5C 54.31,47.7383 53.81,47.7383 53.5,46.5 Z"/></g>
<g><path style="opacity:1" fill="#747474" d="M 56.5,37.5 C 57.5251,38.3739 58.1918,39.5405 58.5,41C 58.0534,45.1016 56.0534,47.9349 52.5,49.5C 52.2627,48.209 52.596,47.209 53.5,46.5C 53.81,47.7383 54.31,47.7383 55,46.5C 55.923,44.9656 56.423,43.299 56.5,41.5C 56.7674,39.0239 56.1007,38.3572 54.5,39.5C 54.5,38.1667 55.1667,37.5 56.5,37.5 Z"/></g>
<g><path style="opacity:1" fill="#ececec" d="M 143.5,60.5 C 148.288,61.123 150.121,63.7897 149,68.5C 142.75,78.5828 135.916,88.2495 128.5,97.5C 125.455,94.4534 122.122,91.7867 118.5,89.5C 127.085,79.9572 135.419,70.2906 143.5,60.5 Z"/></g>
<g><path style="opacity:1" fill="#949395" d="M 60.5,63.5 C 60.81,66.7131 60.4767,69.7131 59.5,72.5C 59.5,70.1667 59.5,67.8333 59.5,65.5C 58.325,65.719 57.325,65.3857 56.5,64.5C 57.6888,63.5713 59.0222,63.238 60.5,63.5 Z"/></g>
<g><path style="opacity:1" fill="#adadad" d="M 194.5,61.5 C 196.857,61.3367 199.19,61.5034 201.5,62C 198.743,62.8779 196.076,63.8779 193.5,65C 195.545,65.4901 197.545,65.3235 199.5,64.5C 199.414,65.4959 199.748,66.3292 200.5,67C 199.333,67.5 198.5,68.3333 198,69.5C 196.447,67.3267 194.614,66.6601 192.5,67.5C 192.5,66.8333 192.167,66.5 191.5,66.5C 191.179,64.9519 190.179,64.2852 188.5,64.5C 190.371,63.2028 192.371,62.2028 194.5,61.5 Z"/></g>
<g><path style="opacity:1" fill="#545454" d="M 191.5,66.5 C 192.167,66.5 192.5,66.8333 192.5,67.5C 190.519,69.1436 188.519,70.8103 186.5,72.5C 187.116,70.1609 188.782,68.1609 191.5,66.5 Z"/></g>
<g><path style="opacity:1" fill="#525252" d="M 198.5,72.5 C 196.83,75.0016 194.664,77.0016 192,78.5C 193.238,75.7703 195.405,73.7703 198.5,72.5 Z"/></g>
<g><path style="opacity:1" fill="#9f9f9f" d="M 204.5,84.5 C 203.833,84.5 203.167,84.5 202.5,84.5C 201.833,83.8333 201.167,83.1667 200.5,82.5C 203.447,78.3362 204.781,79.0028 204.5,84.5 Z"/></g>
<g><path style="opacity:1" fill="#eb7819" d="M 82.5,82.5 C 81.2485,84.0009 80.2485,85.6675 79.5,87.5C 73.3082,87.5052 68.3082,90.0052 64.5,95C 65.6853,96.353 67.0186,97.5197 68.5,98.5C 64.0332,101.069 59.3665,103.069 54.5,104.5C 53.5318,102.393 53.1984,100.059 53.5,97.5C 53.1826,94.4281 53.5159,91.4281 54.5,88.5C 56.4292,89.3802 58.2626,90.3802 60,91.5C 63.7167,88.0542 67.8834,85.2209 72.5,83C 75.8168,82.5017 79.1501,82.335 82.5,82.5 Z"/></g>
<g><path style="opacity:1" fill="#d5d4d5" d="M 100.5,84.5 C 98.6283,85.7946 96.9617,85.6279 95.5,84C 97.3869,83.2204 99.0536,83.3871 100.5,84.5 Z"/></g>
<g><path style="opacity:1" fill="#dcdcdc" d="M 100.5,84.5 C 102.735,84.2053 104.735,84.5386 106.5,85.5C 104.5,86.1667 102.5,86.8333 100.5,87.5C 99.375,86.6522 99.375,85.6522 100.5,84.5 Z"/></g>
<g><path style="opacity:1" fill="#878788" d="M 87.5,85.5 C 85.8185,87.0075 83.8185,88.0075 81.5,88.5C 82.2564,84.8208 84.2564,83.8208 87.5,85.5 Z"/></g>
<g><path style="opacity:1" fill="#797979" d="M 106.5,85.5 C 105.789,87.2014 104.455,88.2014 102.5,88.5C 101.508,88.6716 100.842,88.3382 100.5,87.5C 102.5,86.8333 104.5,86.1667 106.5,85.5 Z"/></g>
<g><path style="opacity:1" fill="#d7d7d8" d="M 76.5,93.5 C 80.5878,93.2184 81.0878,93.8851 78,95.5C 76.9701,95.1639 76.4701,94.4972 76.5,93.5 Z"/></g>
<g><path style="opacity:1" fill="#787878" d="M 107.5,94.5 C 108.71,94.9321 109.71,95.5987 110.5,96.5C 107.221,99.2134 103.554,99.8801 99.5,98.5C 102.148,96.9618 104.815,95.6285 107.5,94.5 Z"/></g>
<g><path style="opacity:1" fill="#767676" d="M 85.5,97.5 C 83.8805,99.2385 81.8805,99.7385 79.5,99C 81.3453,97.872 83.3453,97.372 85.5,97.5 Z"/></g>
<g><path style="opacity:1" fill="#777676" d="M 109.5,99.5 C 111.735,100.248 111.402,101.081 108.5,102C 106.246,103.15 103.913,103.484 101.5,103C 104.231,101.828 106.898,100.661 109.5,99.5 Z"/></g>
<g><path style="opacity:1" fill="#f1a05f" d="M 53.5,97.5 C 53.1984,100.059 53.5318,102.393 54.5,104.5C 54.44,105.043 54.1067,105.376 53.5,105.5C 52.1997,102.691 52.1997,100.024 53.5,97.5 Z"/></g>
<g><path style="opacity:1" fill="#797979" d="M 89.5,108.5 C 90.8734,108.343 92.2068,108.51 93.5,109C 91.2503,110.652 88.917,111.152 86.5,110.5C 87.6016,109.824 88.6016,109.158 89.5,108.5 Z"/></g>
<g><path style="opacity:1" fill="#4f4e4f" d="M 202.5,84.5 C 203.167,84.5 203.833,84.5 204.5,84.5C 202.86,88.4409 200.694,92.1076 198,95.5C 197.667,100.833 197.333,106.167 197,111.5C 196.452,107.83 195.952,104.163 195.5,100.5C 191.43,101.356 187.43,102.523 183.5,104C 181.833,104.667 180.167,104.667 178.5,104C 183.988,102.393 189.322,100.393 194.5,98C 197.363,94.8079 198.863,91.3079 199,87.5C 199.741,86.3595 200.575,86.3595 201.5,87.5C 202.386,86.675 202.719,85.675 202.5,84.5 Z"/></g>
<g><path style="opacity:1" fill="#838384" d="M 95.5,108.5 C 96.4013,109.29 97.0679,110.29 97.5,111.5C 94.2883,112.804 90.955,113.804 87.5,114.5C 86.8333,114.167 86.1667,113.833 85.5,113.5C 88.5,112.667 91.5,111.833 94.5,111C 95.2524,110.329 95.5858,109.496 95.5,108.5 Z"/></g>
<g><path style="opacity:1" fill="#eb7818" d="M 74.5,128.5 C 74.5,130.167 74.5,131.833 74.5,133.5C 60.1275,140.981 51.4608,136.647 48.5,120.5C 47.8407,116.313 49.3407,114.98 53,116.5C 53.7694,132.478 60.9361,136.478 74.5,128.5 Z"/></g>
<g><path style="opacity:1" fill="#ebebeb" d="M 76.5,123.5 C 78.4109,123.574 79.5776,124.574 80,126.5C 80.7033,128.929 80.5366,131.262 79.5,133.5C 78.5,133.5 77.5,133.5 76.5,133.5C 76.5,130.167 76.5,126.833 76.5,123.5 Z"/></g>
<g><path style="opacity:1" fill="#777777" d="M 78.5,121.5 C 80.7744,123.633 82.1078,126.299 82.5,129.5C 82.2427,131.692 81.2427,133.359 79.5,134.5C 79.5,134.167 79.5,133.833 79.5,133.5C 80.5366,131.262 80.7033,128.929 80,126.5C 79.5776,124.574 78.4109,123.574 76.5,123.5C 76.8333,122.5 77.5,121.833 78.5,121.5 Z"/></g>
<g><path style="opacity:1" fill="#a0a0a0" d="M 79.5,134.5 C 78.612,137.054 78.2786,139.721 78.5,142.5C 81.085,142.432 83.4183,141.932 85.5,141C 83.4356,142.018 83.1023,143.351 84.5,145C 82.8446,146.301 81.5113,147.801 80.5,149.5C 78.6234,146.357 77.6234,142.857 77.5,139C 77.5687,137.014 78.2353,135.514 79.5,134.5 Z"/></g>
<g><path style="opacity:1" fill="#8e8e8e" d="M 93.5,153.5 C 94.1667,156.5 94.8333,159.5 95.5,162.5C 95.44,163.043 95.1067,163.376 94.5,163.5C 93.513,160.232 93.1796,156.898 93.5,153.5 Z"/></g>
</svg>
