<?xml version="1.0" encoding="UTF-8"?>
<!DOCTYPE svg PUBLIC "-//W3C//DTD SVG 1.1//EN" "http://www.w3.org/Graphics/SVG/1.1/DTD/svg11.dtd">
<svg xmlns="http://www.w3.org/2000/svg" version="1.1" width="256px" height="155px" style="shape-rendering:geometricPrecision; text-rendering:geometricPrecision; image-rendering:optimizeQuality; fill-rule:evenodd; clip-rule:evenodd" xmlns:xlink="http://www.w3.org/1999/xlink">
<g><path style="opacity:1" fill="#eaeaea" d="M -0.5,-0.5 C 84.8333,-0.5 170.167,-0.5 255.5,-0.5C 255.5,51.1667 255.5,102.833 255.5,154.5C 170.167,154.5 84.8333,154.5 -0.5,154.5C -0.5,102.833 -0.5,51.1667 -0.5,-0.5 Z"/></g>
<g><path style="opacity:1" fill="#565656" d="M 155.5,20.5 C 155.34,18.847 154.674,17.5137 153.5,16.5C 152.36,14.2198 151.193,11.8864 150,9.5C 149.5,10.5 149,11.5 148.5,12.5C 149.747,14.323 150.414,16.323 150.5,18.5C 150.989,19.9952 151.655,21.3285 152.5,22.5C 153.758,25.7722 154.925,29.1056 156,32.5C 160.2,36.189 161.367,40.689 159.5,46C 159.905,46.9454 160.572,47.6121 161.5,48C 164.5,48.3333 167.5,48.6667 170.5,49C 174.85,54.1979 177.684,60.0313 179,66.5C 176.524,61.4101 173.857,56.4101 171,51.5C 166.336,49.3955 162.836,50.5621 160.5,55C 156.222,57.8078 151.556,59.4745 146.5,60C 143.98,61.7632 141.647,63.7632 139.5,66C 138.833,66.6667 138.167,66.6667 137.5,66C 141.247,61.558 145.913,58.8913 151.5,58C 155.846,56.6798 159.179,54.1798 161.5,50.5C 161.167,49.5 160.5,48.8333 159.5,48.5C 158.875,44.0928 158.042,39.7594 157,35.5C 143.693,31.7831 135.693,36.7831 133,50.5C 128.867,55.6344 124.367,60.4677 119.5,65C 118.241,65.9819 116.908,66.3152 115.5,66C 125.082,59.2965 131.582,50.4632 135,39.5C 138.636,35.3624 143.136,32.6957 148.5,31.5C 150.055,31.722 151.389,32.3887 152.5,33.5C 153.631,31.9255 153.798,30.2588 153,28.5C 150.586,23.0096 148.753,17.3429 147.5,11.5C 148.513,8.88421 149.347,6.21754 150,3.5C 150.561,2.97814 151.228,2.6448 152,2.5C 153.927,3.86096 156.094,4.6943 158.5,5C 159.5,6.66667 160.5,8.33333 161.5,10C 163.101,10.2734 164.601,10.7734 166,11.5C 170.281,18.1146 174.947,24.4479 180,30.5C 183.989,39.9775 188.822,48.9775 194.5,57.5C 194.167,57.8333 193.833,58.1667 193.5,58.5C 187.123,49.9046 181.957,40.5713 178,30.5C 175.239,26.6496 172.239,22.9829 169,19.5C 168.692,20.3081 168.192,20.9747 167.5,21.5C 166.5,19.8333 165.167,18.5 163.5,17.5C 163.757,22.8416 162.757,22.8416 160.5,17.5C 159.311,16.5713 157.978,16.238 156.5,16.5C 157.2,19.0627 158.2,21.5627 159.5,24C 159.333,24.5 159.167,25 159,25.5C 157.811,23.7669 156.644,22.1002 155.5,20.5 Z"/></g>
<g><path style="opacity:1" fill="#9b9b9d" d="M 153.5,16.5 C 154.674,17.5137 155.34,18.847 155.5,20.5C 154.29,20.9321 153.29,21.5987 152.5,22.5C 151.655,21.3285 150.989,19.9952 150.5,18.5C 152.027,18.573 153.027,17.9063 153.5,16.5 Z"/></g>
<g><path style="opacity:1" fill="#d4d4d5" d="M 153.5,16.5 C 153.027,17.9063 152.027,18.573 150.5,18.5C 150.414,16.323 149.747,14.323 148.5,12.5C 149,11.5 149.5,10.5 150,9.5C 151.193,11.8864 152.36,14.2198 153.5,16.5 Z"/></g>
<g><path style="opacity:1" fill="#cccccd" d="M 158.5,10.5 C 161.361,11.237 162.361,12.9037 161.5,15.5C 159.738,14.3115 158.738,12.6449 158.5,10.5 Z"/></g>
<g><path style="opacity:1" fill="#cacacb" d="M 151.5,4.5 C 153.974,5.27628 154.641,6.77628 153.5,9C 156.67,10.1701 157.17,12.0035 155,14.5C 152.416,11.6644 151.249,8.33106 151.5,4.5 Z"/></g>
<g><path style="opacity:1" fill="#acacad" d="M 158.5,10.5 C 156.359,9.2449 155.693,7.57823 156.5,5.5C 158.457,6.98008 159.124,8.64674 158.5,10.5 Z"/></g>
<g><path style="opacity:1" fill="#232225" d="M 181.5,106.5 C 182.404,105.791 182.737,104.791 182.5,103.5C 180.833,103.5 179.167,103.5 177.5,103.5C 180.118,99.7093 182.951,96.0426 186,92.5C 187.799,96.07 189.299,99.7366 190.5,103.5C 188.469,103.972 186.802,104.972 185.5,106.5C 183.703,114.631 178.703,119.298 170.5,120.5C 165.004,119.176 161.17,115.843 159,110.5C 155.145,99.8395 155.812,89.5062 161,79.5C 166.783,72.5989 173.283,71.7655 180.5,77C 182.087,78.8448 183.421,80.8448 184.5,83C 184.387,84.2798 183.72,85.1131 182.5,85.5C 173.742,74.0412 166.575,75.0412 161,88.5C 159.197,97.9106 160.863,106.577 166,114.5C 169.043,116.908 172.209,117.074 175.5,115C 178.371,112.751 180.371,109.918 181.5,106.5 Z"/></g>
<g><path style="opacity:1" fill="#343336" d="M 60.5,89.5 C 58.8212,89.2852 57.8212,89.9519 57.5,91.5C 55.7274,92.3143 55.2274,93.6476 56,95.5C 57.2708,96.8825 58.7708,97.8825 60.5,98.5C 61.5,99.5 62.5,100.5 63.5,101.5C 64.795,102.488 66.1283,103.488 67.5,104.5C 67.8417,105.338 68.5084,105.672 69.5,105.5C 69.5,106.167 69.8333,106.5 70.5,106.5C 71.1667,106.833 71.8333,107.167 72.5,107.5C 81.7607,117.918 92.4274,126.751 104.5,134C 108.167,134.333 111.833,134.667 115.5,135C 120.5,138.833 125.5,142.667 130.5,146.5C 131.833,147.167 131.833,147.833 130.5,148.5C 125.027,144.86 119.694,141.027 114.5,137C 111.167,136.667 107.833,136.333 104.5,136C 94.3557,130.528 85.3557,123.528 77.5,115C 72.8333,114.333 68.1667,114.333 63.5,115C 62.3333,116.167 61.1667,117.333 60,118.5C 55.6782,128.153 51.5116,137.819 47.5,147.5C 46.3861,146.277 46.2195,144.944 47,143.5C 50.4254,134.216 54.4254,125.216 59,116.5C 60.1667,115.333 61.3333,114.167 62.5,113C 66.5,112.667 70.5,112.333 74.5,112C 67.4046,107.407 60.738,102.24 54.5,96.5C 52.8135,93.0973 53.4801,90.264 56.5,88C 62.2264,86.8956 67.5598,87.8956 72.5,91C 75.9997,93.6686 79.333,96.502 82.5,99.5C 83.3149,100.837 84.4815,101.837 86,102.5C 86.4988,98.5138 86.6655,94.5138 86.5,90.5C 86.838,88.146 87.338,85.8127 88,83.5C 91.9973,79.5131 94.9973,74.8464 97,69.5C 101.062,55.2332 105.728,41.2332 111,27.5C 111.497,25.1902 111.663,22.8568 111.5,20.5C 111.068,19.2905 110.401,18.2905 109.5,17.5C 107.027,17.0882 105.694,18.0882 105.5,20.5C 104.599,21.2905 103.932,22.2905 103.5,23.5C 102.699,25.0418 102.366,26.7085 102.5,28.5C 103.675,28.281 104.675,28.6143 105.5,29.5C 104.033,29.723 102.533,30.0563 101,30.5C 99.1401,34.2198 97.3068,37.8864 95.5,41.5C 93.9925,43.1815 92.9925,45.1815 92.5,47.5C 90.8324,50.8385 89.1657,54.1718 87.5,57.5C 86.3861,56.277 86.2195,54.9437 87,53.5C 94.1725,40.4751 100.673,27.1418 106.5,13.5C 107.867,10.9882 107.534,8.65485 105.5,6.5C 104.399,5.40168 103.066,5.23502 101.5,6C 100.748,6.67076 100.414,7.5041 100.5,8.5C 99.596,9.20895 99.2627,10.209 99.5,11.5C 97.7497,12.6594 96.7497,14.326 96.5,16.5C 95.6618,16.8417 95.3284,17.5084 95.5,18.5C 93.1816,22.4645 90.8483,26.4645 88.5,30.5C 87.5,30.8333 86.8333,31.5 86.5,32.5C 86.5,32.8333 86.5,33.1667 86.5,33.5C 85.5987,34.2905 84.9321,35.2905 84.5,36.5C 82.5863,43.3339 78.9197,49.0005 73.5,53.5C 72.479,52.9984 72.3123,52.3317 73,51.5C 76.2181,48.742 78.7181,45.4086 80.5,41.5C 80.0431,40.7025 79.3764,40.3691 78.5,40.5C 78.5,39.8333 78.8333,39.5 79.5,39.5C 80.4916,39.6716 81.1583,39.3382 81.5,38.5C 82.3446,37.3285 83.0113,35.9952 83.5,34.5C 85.1023,30.9046 87.1023,27.5712 89.5,24.5C 90.4013,23.7095 91.0679,22.7095 91.5,21.5C 92.0283,20.2794 92.695,19.1127 93.5,18C 91.6969,17.3632 90.3636,16.1965 89.5,14.5C 88.451,16.528 87.451,18.528 86.5,20.5C 83.3504,24.1189 80.6837,28.1189 78.5,32.5C 77.5987,33.2905 76.9321,34.2905 76.5,35.5C 76.5,35.8333 76.5,36.1667 76.5,36.5C 75.5,36.8333 74.8333,37.5 74.5,38.5C 72.6917,43.9788 69.3583,48.3121 64.5,51.5C 64.1667,51.1667 63.8333,50.8333 63.5,50.5C 64.7701,49.7124 65.7701,48.7124 66.5,47.5C 68.5224,45.4687 70.1891,43.1354 71.5,40.5C 72.5,38.5 73.5,36.5 74.5,34.5C 75.5,34.1667 76.1667,33.5 76.5,32.5C 78.1119,30.0369 77.6119,28.0369 75,26.5C 73.5187,27.4709 72.6854,28.8042 72.5,30.5C 71.5,30.8333 70.8333,31.5 70.5,32.5C 69.1667,34.8333 67.8333,37.1667 66.5,39.5C 64.6061,40.6011 63.9394,41.9345 64.5,43.5C 56.1032,51.7502 48.9365,61.0835 43,71.5C 39.4375,80.8448 35.1041,89.8448 30,98.5C 25.0733,115.354 17.2399,130.687 6.5,144.5C 5.95898,142.477 6.45898,140.477 8,138.5C 13.0851,132.003 17.4184,125.003 21,117.5C 25.2478,104.342 30.5811,91.6756 37,79.5C 43.6003,65.9568 51.9336,53.6235 62,42.5C 66.3757,35.581 70.8757,28.7477 75.5,22C 77.5696,20.306 79.7362,20.1393 82,21.5C 85.2797,17.1178 88.4463,12.6178 91.5,8C 93.8333,7.66667 96.1667,7.33333 98.5,7C 101.509,2.616 104.675,2.44933 108,6.5C 107.642,11.4798 109.309,15.4798 113,18.5C 113.167,19.8333 113.333,21.1667 113.5,22.5C 109.631,36.5757 105.465,50.5757 101,64.5C 99.1667,68.8333 97.3333,73.1667 95.5,77.5C 100.851,80.9303 104.851,79.7637 107.5,74C 108.333,73.8333 109.167,73.6667 110,73.5C 113.482,74.3185 116.482,75.9851 119,78.5C 121.12,77.5411 123.287,77.3744 125.5,78C 128.822,80.5583 132.489,82.5583 136.5,84C 139.531,86.559 141.698,89.7257 143,93.5C 144.383,97.9342 146.05,102.268 148,106.5C 148.333,109.167 148.667,111.833 149,114.5C 159.836,125.669 171.003,136.502 182.5,147C 181.092,147.315 179.759,146.982 178.5,146C 167.333,136.167 156.833,125.667 147,114.5C 145.329,104.325 141.829,94.8248 136.5,86C 132.489,84.5583 128.822,82.5583 125.5,80C 122.486,79.8724 119.486,79.8724 116.5,80C 111.839,73.9009 107.506,74.2342 103.5,81C 99.8432,80.8922 96.1765,80.8922 92.5,81C 90.0321,83.2283 88.8654,86.0617 89,89.5C 88.6645,95.2894 88.4978,100.956 88.5,106.5C 82.3273,101.909 76.3273,97.0761 70.5,92C 67.3924,90.2415 64.059,89.4081 60.5,89.5 Z"/></g>
<g><path style="opacity:1" fill="#b1b1b2" d="M 95.5,41.5 C 95.8333,41.5 96.1667,41.5 96.5,41.5C 96.5,41.8333 96.5,42.1667 96.5,42.5C 95.475,42.8966 95.3083,43.5632 96,44.5C 97.5095,45.0897 99.0095,45.7564 100.5,46.5C 97.9135,47.48 95.2469,47.8134 92.5,47.5C 92.9925,45.1815 93.9925,43.1815 95.5,41.5 Z"/></g>
<g><path style="opacity:1" fill="#b0b0b1" d="M 66.5,39.5 C 67.9187,40.4511 69.5853,40.7845 71.5,40.5C 70.1891,43.1354 68.5224,45.4687 66.5,47.5C 66.4729,45.8007 65.8062,44.4674 64.5,43.5C 63.9394,41.9345 64.6061,40.6011 66.5,39.5 Z"/></g>
<g><path style="opacity:1" fill="#6c6c6c" d="M 96.5,42.5 C 96.5,42.1667 96.5,41.8333 96.5,41.5C 98.6807,41.2837 100.347,42.117 101.5,44C 99.7184,44.1218 98.0518,43.6218 96.5,42.5 Z"/></g>
<g><path style="opacity:1" fill="#878787" d="M 76.5,36.5 C 77.3065,37.7281 78.3065,38.7281 79.5,39.5C 78.8333,39.5 78.5,39.8333 78.5,40.5C 77.3951,39.3995 76.0618,38.7329 74.5,38.5C 74.8333,37.5 75.5,36.8333 76.5,36.5 Z"/></g>
<g><path style="opacity:1" fill="#818182" d="M 86.5,33.5 C 86.4148,34.9953 87.0815,35.9953 88.5,36.5C 88.8333,35.8333 89.1667,35.1667 89.5,34.5C 91.5499,35.0766 92.5499,36.4099 92.5,38.5C 89.6726,38.4162 87.006,37.7496 84.5,36.5C 84.9321,35.2905 85.5987,34.2905 86.5,33.5 Z"/></g>
<g><path style="opacity:1" fill="#e1e0e1" d="M 76.5,35.5 C 79.285,34.9162 80.9517,35.9162 81.5,38.5C 81.1583,39.3382 80.4916,39.6716 79.5,39.5C 78.3065,38.7281 77.3065,37.7281 76.5,36.5C 76.5,36.1667 76.5,35.8333 76.5,35.5 Z"/></g>
<g><path style="opacity:1" fill="#878787" d="M 78.5,32.5 C 79.6354,34.2132 81.302,34.8799 83.5,34.5C 83.0113,35.9952 82.3446,37.3285 81.5,38.5C 80.9517,35.9162 79.285,34.9162 76.5,35.5C 76.9321,34.2905 77.5987,33.2905 78.5,32.5 Z"/></g>
<g><path style="opacity:1" fill="#dbdbdc" d="M 70.5,32.5 C 72.153,32.6596 73.4863,33.3263 74.5,34.5C 73.5,36.5 72.5,38.5 71.5,40.5C 69.5853,40.7845 67.9187,40.4511 66.5,39.5C 67.8333,37.1667 69.1667,34.8333 70.5,32.5 Z"/></g>
<g><path style="opacity:1" fill="#7f7f7f" d="M 88.5,30.5 C 90.9366,30.886 92.9366,32.0527 94.5,34C 92.0984,32.9544 89.4317,32.4544 86.5,32.5C 86.8333,31.5 87.5,30.8333 88.5,30.5 Z"/></g>
<g><path style="opacity:1" fill="#8a8a8b" d="M 72.5,30.5 C 73.5137,31.6737 74.847,32.3404 76.5,32.5C 76.1667,33.5 75.5,34.1667 74.5,34.5C 73.4863,33.3263 72.153,32.6596 70.5,32.5C 70.8333,31.5 71.5,30.8333 72.5,30.5 Z"/></g>
<g><path style="opacity:1" fill="#e0e0e0" d="M 76.5,32.5 C 74.847,32.3404 73.5137,31.6737 72.5,30.5C 72.6854,28.8042 73.5187,27.4709 75,26.5C 77.6119,28.0369 78.1119,30.0369 76.5,32.5 Z"/></g>
<g><path style="opacity:1" fill="#dbdadb" d="M 76.5,23.5 C 77.5,23.5 78.5,23.5 79.5,23.5C 79.5,24.5 79.5,25.5 79.5,26.5C 78.5,26.5 77.5,26.5 76.5,26.5C 76.5,25.5 76.5,24.5 76.5,23.5 Z"/></g>
<g><path style="opacity:1" fill="#6f6f70" d="M 109.5,17.5 C 110.401,18.2905 111.068,19.2905 111.5,20.5C 109.653,23.1715 106.986,24.1715 103.5,23.5C 103.932,22.2905 104.599,21.2905 105.5,20.5C 105.843,22.2252 106.843,22.7252 108.5,22C 109.38,20.6439 109.714,19.1439 109.5,17.5 Z"/></g>
<g><path style="opacity:1" fill="#7f7e80" d="M 86.5,20.5 C 88.1172,21.038 89.7839,21.3713 91.5,21.5C 91.0679,22.7095 90.4013,23.7095 89.5,24.5C 88.7888,22.9699 87.7888,21.6366 86.5,20.5 Z"/></g>
<g><path style="opacity:1" fill="#dfdfdf" d="M 86.5,20.5 C 87.7888,21.6366 88.7888,22.9699 89.5,24.5C 87.1023,27.5712 85.1023,30.9046 83.5,34.5C 81.302,34.8799 79.6354,34.2132 78.5,32.5C 80.6837,28.1189 83.3504,24.1189 86.5,20.5 Z"/></g>
<g><path style="opacity:1" fill="#e3e3e4" d="M 109.5,17.5 C 109.714,19.1439 109.38,20.6439 108.5,22C 106.843,22.7252 105.843,22.2252 105.5,20.5C 105.694,18.0882 107.027,17.0882 109.5,17.5 Z"/></g>
<g><path style="opacity:1" fill="#797979" d="M 96.5,16.5 C 97.6002,17.5585 98.9336,18.3918 100.5,19C 98.735,19.6397 97.0683,19.4731 95.5,18.5C 95.3284,17.5084 95.6618,16.8417 96.5,16.5 Z"/></g>
<g><path style="opacity:1" fill="#dadada" d="M 91.5,21.5 C 89.7839,21.3713 88.1172,21.038 86.5,20.5C 87.451,18.528 88.451,16.528 89.5,14.5C 90.3636,16.1965 91.6969,17.3632 93.5,18C 92.695,19.1127 92.0283,20.2794 91.5,21.5 Z"/></g>
<g><path style="opacity:1" fill="#6b6a6c" d="M 105.5,6.5 C 107.534,8.65485 107.867,10.9882 106.5,13.5C 106.631,12.7611 106.464,12.0944 106,11.5C 103.707,14.1339 101.54,14.1339 99.5,11.5C 99.2627,10.209 99.596,9.20895 100.5,8.5C 100.222,10.3464 100.889,11.6798 102.5,12.5C 104.553,11.0606 105.553,9.06058 105.5,6.5 Z"/></g>
<g><path style="opacity:1" fill="#d1d1d1" d="M 93.5,9.5 C 97.1491,10.49 97.4824,12.3234 94.5,15C 93.552,15.4828 92.552,15.6495 91.5,15.5C 91.6036,13.2972 92.2702,11.2972 93.5,9.5 Z"/></g>
<g><path style="opacity:1" fill="#dadadb" d="M 105.5,6.5 C 105.553,9.06058 104.553,11.0606 102.5,12.5C 100.889,11.6798 100.222,10.3464 100.5,8.5C 100.414,7.5041 100.748,6.67076 101.5,6C 103.066,5.23502 104.399,5.40168 105.5,6.5 Z"/></g>
<g><path style="opacity:1" fill="#79797a" d="M 60.5,89.5 C 65.8593,92.2686 66.8593,96.2686 63.5,101.5C 62.5,100.5 61.5,99.5 60.5,98.5C 65.2433,97.1507 65.5766,94.9841 61.5,92C 60.2068,91.51 58.8734,91.3433 57.5,91.5C 57.8212,89.9519 58.8212,89.2852 60.5,89.5 Z"/></g>
<g><path style="opacity:1" fill="#dfdfe0" d="M 57.5,91.5 C 58.8734,91.3433 60.2068,91.51 61.5,92C 65.5766,94.9841 65.2433,97.1507 60.5,98.5C 58.7708,97.8825 57.2708,96.8825 56,95.5C 55.2274,93.6476 55.7274,92.3143 57.5,91.5 Z"/></g>
<g><path style="opacity:1" fill="#b4b4b5" d="M 86.5,90.5 C 86.6655,94.5138 86.4988,98.5138 86,102.5C 84.4815,101.837 83.3149,100.837 82.5,99.5C 83.4959,99.4142 84.3292,99.7476 85,100.5C 85.1787,96.9748 85.6787,93.6414 86.5,90.5 Z"/></g>
<g><path style="opacity:1" fill="#747475" d="M 72.5,107.5 C 71.8333,107.167 71.1667,106.833 70.5,106.5C 71.9094,104.695 72.4094,102.695 72,100.5C 71.1534,102.193 70.3201,103.86 69.5,105.5C 68.5084,105.672 67.8417,105.338 67.5,104.5C 69.539,103.089 70.539,101.089 70.5,98.5C 71.8333,98.5 73.1667,98.5 74.5,98.5C 73.8333,101.5 73.1667,104.5 72.5,107.5 Z"/></g>
<g><path style="opacity:1" fill="#cfcfcf" d="M 70.5,106.5 C 69.8333,106.5 69.5,106.167 69.5,105.5C 70.3201,103.86 71.1534,102.193 72,100.5C 72.4094,102.695 71.9094,104.695 70.5,106.5 Z"/></g>
<g><path style="opacity:1" fill="#7b7a7d" d="M 177.5,103.5 C 179.167,103.5 180.833,103.5 182.5,103.5C 182.737,104.791 182.404,105.791 181.5,106.5C 180.552,105.022 179.219,104.022 177.5,103.5 Z"/></g>
<g><path style="opacity:1" fill="#7a797b" d="M 190.5,103.5 C 191.043,103.56 191.376,103.893 191.5,104.5C 189.505,105.295 187.505,105.961 185.5,106.5C 186.802,104.972 188.469,103.972 190.5,103.5 Z"/></g>
</svg>
