<?xml version="1.0" encoding="UTF-8"?>
<!DOCTYPE svg PUBLIC "-//W3C//DTD SVG 1.1//EN" "http://www.w3.org/Graphics/SVG/1.1/DTD/svg11.dtd">
<svg xmlns="http://www.w3.org/2000/svg" version="1.1" width="266px" height="215px" style="shape-rendering:geometricPrecision; text-rendering:geometricPrecision; image-rendering:optimizeQuality; fill-rule:evenodd; clip-rule:evenodd" xmlns:xlink="http://www.w3.org/1999/xlink">
<g><path style="opacity:1" fill="#f4f4f4" d="M -0.5,-0.5 C 88.1667,-0.5 176.833,-0.5 265.5,-0.5C 265.5,71.1667 265.5,142.833 265.5,214.5C 176.833,214.5 88.1667,214.5 -0.5,214.5C -0.5,142.833 -0.5,71.1667 -0.5,-0.5 Z"/></g>
<g><path style="opacity:1" fill="#343335" d="M 208.5,84.5 C 209.097,79.706 208.43,75.3727 206.5,71.5C 204.911,70.3789 203.244,70.5456 201.5,72C 195.649,78.3522 193.982,85.6855 196.5,94C 194.401,98.598 193.068,103.431 192.5,108.5C 191.242,111.5 189.242,112.5 186.5,111.5C 188.149,110.352 189.649,109.019 191,107.5C 193.229,98.2808 193.895,88.9474 193,79.5C 191.47,74.1082 189.137,69.1082 186,64.5C 181.913,61.084 178.58,57.084 176,52.5C 172.665,48.4456 168.498,46.2789 163.5,46C 161.604,47.8083 161.104,49.975 162,52.5C 167.418,59.4239 172.252,66.7572 176.5,74.5C 176.216,76.4147 176.549,78.0813 177.5,79.5C 178.063,84.7057 180.063,89.2057 183.5,93C 181.527,93.4955 179.527,93.6621 177.5,93.5C 177.281,86.1712 175.781,79.1712 173,72.5C 166.178,63.0109 160.011,53.1775 154.5,43C 148.333,41.1667 146.167,43.3333 148,49.5C 152.394,59.5572 157.227,69.3905 162.5,79C 161.701,82.777 161.868,86.6104 163,90.5C 163.674,92.5165 164.841,94.1832 166.5,95.5C 164.926,96.6309 163.259,96.7975 161.5,96C 161.833,95.6667 162.167,95.3333 162.5,95C 161.189,91.6461 160.356,88.1461 160,84.5C 155.883,76.813 152.55,68.813 150,60.5C 148.63,55.4333 145.463,53.2666 140.5,54C 139.106,54.956 138.439,56.2894 138.5,58C 142.472,70.1136 146.305,82.2802 150,94.5C 150.654,97.0076 151.821,99.1742 153.5,101C 152.183,102.659 150.517,103.826 148.5,104.5C 143.269,94.5325 137.936,84.6992 132.5,75C 126.92,73.739 125.087,75.9057 127,81.5C 131.245,90.6483 134.911,99.9817 138,109.5C 137.99,122.922 138.99,136.255 141,149.5C 144.543,158.917 148.876,167.917 154,176.5C 155.298,181.394 156.798,186.227 158.5,191C 157.833,193 157.167,193 156.5,191C 154.337,184.511 152.17,178.011 150,171.5C 143.812,163.121 139.812,153.788 138,143.5C 137.08,132.182 136.413,120.849 136,109.5C 132.938,99.9904 129.271,90.657 125,81.5C 122.995,74.5098 125.495,71.6764 132.5,73C 133.667,74.1667 134.833,75.3333 136,76.5C 140.291,84.9548 144.791,93.2881 149.5,101.5C 149.833,101.167 150.167,100.833 150.5,100.5C 146.111,87.5003 141.611,74.5003 137,61.5C 136.291,54.6971 139.458,51.0304 146.5,50.5C 143.958,42.8776 146.625,39.7109 154.5,41C 156.658,42.457 158.491,44.2903 160,46.5C 163.542,42.7844 167.375,42.6177 171.5,46C 182.112,54.9274 189.946,65.7608 195,78.5C 196.84,71.3007 201.34,68.1341 208.5,69C 209.126,69.7504 209.626,70.5838 210,71.5C 210.344,78.6787 210.844,85.8454 211.5,93C 209.232,102.015 208.065,111.181 208,120.5C 204,128.5 200,136.5 196,144.5C 194.059,151.157 194.059,157.824 196,164.5C 200.078,172.991 204.412,181.324 209,189.5C 209.667,190.5 209.667,191.5 209,192.5C 204.427,185.027 200.094,177.361 196,169.5C 192.868,162.111 191.868,154.445 193,146.5C 197.077,137.347 201.41,128.347 206,119.5C 206.374,110.713 207.541,102.046 209.5,93.5C 209.034,90.5078 208.701,87.5078 208.5,84.5 Z"/></g>
<g><path style="opacity:1" fill="#bababb" d="M 64.5,44.5 C 65.4731,46.9479 65.8064,49.6146 65.5,52.5C 67.4147,52.2155 69.0813,52.5489 70.5,53.5C 67.3484,52.9586 64.8484,53.9586 63,56.5C 64.1421,52.698 64.6421,48.698 64.5,44.5 Z"/></g>
<g><path style="opacity:1" fill="#353436" d="M 64.5,44.5 C 64.6421,48.698 64.1421,52.698 63,56.5C 64.8484,53.9586 67.3484,52.9586 70.5,53.5C 72.799,54.6322 74.1323,56.4655 74.5,59C 72.2522,67.5706 69.7522,76.0706 67,84.5C 66.6798,89.023 66.1798,93.523 65.5,98C 65.8333,98.8333 66.1667,99.6667 66.5,100.5C 67.8193,96.8919 68.986,93.2252 70,89.5C 70.6667,88.8333 71.3333,88.1667 72,87.5C 72.3333,83.8333 72.6667,80.1667 73,76.5C 76.1809,70.7476 80.1809,70.0809 85,74.5C 84.9708,82.9628 83.8041,91.2962 81.5,99.5C 80.8333,105.167 80.1667,110.833 79.5,116.5C 79.8097,110.242 79.4764,104.076 78.5,98C 79.8491,97.2276 80.6824,96.0609 81,94.5C 81.6745,89.4698 82.5079,84.4698 83.5,79.5C 82.1324,71.3822 79.2991,70.7155 75,77.5C 74.6667,80.8333 74.3333,84.1667 74,87.5C 70.8737,92.713 69.0404,98.3797 68.5,104.5C 66.5,103.167 64.5,101.833 62.5,100.5C 64.9373,95.1932 64.9373,90.0266 62.5,85C 65.288,84.2736 66.788,82.4402 67,79.5C 68.3789,73.744 70.0456,68.0773 72,62.5C 73.7865,56.1185 71.6198,54.1185 65.5,56.5C 62.0825,60.9063 59.9159,65.9063 59,71.5C 54.0088,79.0255 51.8422,87.3588 52.5,96.5C 51.1266,96.6567 49.7932,96.49 48.5,96C 50.1376,93.8665 50.971,91.3665 51,88.5C 51.7886,84.9085 51.6219,81.4085 50.5,78C 54.6724,72.9154 56.6724,67.2488 56.5,61C 59.7688,56.8988 62.1021,52.2321 63.5,47C 60.7025,42.5174 57.5359,42.3507 54,46.5C 52.1676,50.3214 50.8343,54.3214 50,58.5C 46.1452,64.2096 42.8119,70.2096 40,76.5C 39.7572,81.9309 38.9239,87.2642 37.5,92.5C 38.8546,95.3165 37.8546,96.1499 34.5,95C 35.713,92.3135 36.3797,89.4802 36.5,86.5C 37.4767,83.7131 37.81,80.7131 37.5,77.5C 40.4913,70.0137 44.3247,63.0137 49,56.5C 49.8995,50.0679 47.3995,48.2345 41.5,51C 39.6667,52.8333 37.8333,54.6667 36,56.5C 32.5948,62.3037 28.9282,67.9704 25,73.5C 23.6897,78.4517 24.6897,82.785 28,86.5C 28.1667,88.5 28.3333,90.5 28.5,92.5C 27.5765,99.0231 26.5765,105.523 25.5,112C 25.1135,116.243 26.1135,120.076 28.5,123.5C 28.3333,123.833 28.1667,124.167 28,124.5C 26.583,123.922 25.7496,122.922 25.5,121.5C 24.8914,117.395 24.2248,113.395 23.5,109.5C 24.5108,104.154 25.5108,98.8207 26.5,93.5C 26.3333,91.5 26.1667,89.5 26,87.5C 25.7996,85.6803 24.9663,84.347 23.5,83.5C 23.44,82.9569 23.1067,82.6236 22.5,82.5C 21.6143,83.325 21.281,84.325 21.5,85.5C 20.8501,85.1961 20.1835,84.8627 19.5,84.5C 18.5233,86.4109 17.8567,88.4109 17.5,90.5C 16.6554,91.6715 15.9887,93.0048 15.5,94.5C 14.5202,97.1161 13.0202,99.4494 11,101.5C 10.7526,110.853 10.2526,120.186 9.5,129.5C 9.57697,131.299 10.077,132.966 11,134.5C 17.4358,141.691 24.1025,148.691 31,155.5C 32.8744,168.312 31.0411,180.645 25.5,192.5C 25.1667,191.833 24.8333,191.167 24.5,190.5C 28.4267,179.807 30.2601,168.807 30,157.5C 23.6984,150.197 17.0317,143.197 10,136.5C 8.44813,134.232 7.61479,131.732 7.5,129C 8.23545,119.851 8.73545,110.684 9,101.5C 13.5169,96.3182 16.1836,90.3182 17,83.5C 18.2635,81.393 20.0968,80.393 22.5,80.5C 22.0889,76.5371 22.9222,72.8705 25,69.5C 29.4678,62.7324 34.3011,56.2324 39.5,50C 42.939,47.0034 46.439,46.8367 50,49.5C 51.9857,43.2604 56.1524,40.7604 62.5,42C 63.3805,42.7083 64.0472,43.5416 64.5,44.5 Z"/></g>
<g><path style="opacity:1" fill="#5d5c5e" d="M 176.5,74.5 C 177.901,74.9709 179.234,75.6376 180.5,76.5C 179.007,77.1411 178.007,78.1411 177.5,79.5C 176.549,78.0813 176.216,76.4147 176.5,74.5 Z"/></g>
<g><path style="opacity:1" fill="#777778" d="M 37.5,77.5 C 37.81,80.7131 37.4767,83.7131 36.5,86.5C 36.5,84.1667 36.5,81.8333 36.5,79.5C 35.0222,79.762 33.6888,79.4287 32.5,78.5C 34.0453,77.5481 35.712,77.2148 37.5,77.5 Z"/></g>
<g><path style="opacity:1" fill="#757575" d="M 206.5,71.5 C 208.43,75.3727 209.097,79.706 208.5,84.5C 207.279,83.9717 206.113,83.305 205,82.5C 204.333,79.1667 204.333,75.8333 205,72.5C 205.383,71.944 205.883,71.6107 206.5,71.5 Z"/></g>
<g><path style="opacity:1" fill="#e6e6e6" d="M 206.5,72.5 C 207.641,75.6399 207.808,78.9733 207,82.5C 205.182,79.2781 205.016,75.9447 206.5,72.5 Z"/></g>
<g><path style="opacity:1" fill="#e7e6e7" d="M 21.5,85.5 C 21.7525,88.3198 21.2525,90.9865 20,93.5C 19.3333,94.8333 18.6667,94.8333 18,93.5C 17.5172,92.552 17.3505,91.552 17.5,90.5C 17.8567,88.4109 18.5233,86.4109 19.5,84.5C 20.1835,84.8627 20.8501,85.1961 21.5,85.5 Z"/></g>
<g><path style="opacity:1" fill="#747475" d="M 23.5,83.5 C 22.8474,87.0928 22.0141,90.7595 21,94.5C 19.2245,95.5361 17.3911,95.5361 15.5,94.5C 15.9887,93.0048 16.6554,91.6715 17.5,90.5C 17.3505,91.552 17.5172,92.552 18,93.5C 18.6667,94.8333 19.3333,94.8333 20,93.5C 21.2525,90.9865 21.7525,88.3198 21.5,85.5C 21.281,84.325 21.6143,83.325 22.5,82.5C 23.1067,82.6236 23.44,82.9569 23.5,83.5 Z"/></g>
<g><path style="opacity:1" fill="#605f61" d="M 81.5,99.5 C 81.5596,108.513 81.8929,117.513 82.5,126.5C 81.6618,126.842 81.3284,127.508 81.5,128.5C 80.0109,124.764 79.3442,120.764 79.5,116.5C 80.1667,110.833 80.8333,105.167 81.5,99.5 Z"/></g>
<g><path style="opacity:1" fill="#8b8a8c" d="M 23.5,109.5 C 24.2248,113.395 24.8914,117.395 25.5,121.5C 24.448,121.649 23.448,121.483 22.5,121C 23.4601,117.27 23.7935,113.437 23.5,109.5 Z"/></g>
<g><path style="opacity:1" fill="#777778" d="M 34.5,124.5 C 47.0348,126.566 55.8681,133.232 61,144.5C 56.8173,140.618 52.984,136.451 49.5,132C 44.534,128.985 39.534,126.485 34.5,124.5 Z"/></g>
<g><path style="opacity:1" fill="#707070" d="M 179.5,114.5 C 180.552,114.351 181.552,114.517 182.5,115C 171.395,122.35 164.062,132.516 160.5,145.5C 162.942,132.979 169.275,122.646 179.5,114.5 Z"/></g>
<g><path style="opacity:1" fill="#3c3b3d" d="M 82.5,126.5 C 84.3539,139.207 83.5205,151.873 80,164.5C 78.9196,166.996 77.5862,169.33 76,171.5C 74.4352,178.491 72.9352,185.491 71.5,192.5C 70.7885,181.467 73.2885,171.133 79,161.5C 81.2454,150.628 82.0787,139.628 81.5,128.5C 81.3284,127.508 81.6618,126.842 82.5,126.5 Z"/></g>
</svg>
