<?xml version="1.0" encoding="UTF-8"?>
<!DOCTYPE svg PUBLIC "-//W3C//DTD SVG 1.1//EN" "http://www.w3.org/Graphics/SVG/1.1/DTD/svg11.dtd">
<svg xmlns="http://www.w3.org/2000/svg" version="1.1" width="259px" height="158px" style="shape-rendering:geometricPrecision; text-rendering:geometricPrecision; image-rendering:optimizeQuality; fill-rule:evenodd; clip-rule:evenodd" xmlns:xlink="http://www.w3.org/1999/xlink">
<g><path style="opacity:1" fill="#eaeaea" d="M -0.5,-0.5 C 85.8333,-0.5 172.167,-0.5 258.5,-0.5C 258.5,52.1667 258.5,104.833 258.5,157.5C 172.167,157.5 85.8333,157.5 -0.5,157.5C -0.5,104.833 -0.5,52.1667 -0.5,-0.5 Z"/></g>
<g><path style="opacity:1" fill="#333234" d="M 143.5,82.5 C 142.343,80.8624 141.176,79.1957 140,77.5C 139.86,79.2555 140.36,80.9222 141.5,82.5C 141.376,83.1067 141.043,83.44 140.5,83.5C 137.845,78.5698 135.178,73.5698 132.5,68.5C 130.328,68.3241 127.995,68.1575 125.5,68C 130.833,67 130.833,66 125.5,65C 126.167,64.6667 126.833,64.3333 127.5,64C 123.929,61.5794 120.262,59.4127 116.5,57.5C 113.487,55.2469 110.154,54.5803 106.5,55.5C 109.004,57.0553 111.337,58.722 113.5,60.5C 117.043,62.2016 120.21,64.535 123,67.5C 126.879,73.5838 129.879,79.9171 132,86.5C 128.236,80.6365 124.736,74.6365 121.5,68.5C 121.167,67.5 120.5,66.8333 119.5,66.5C 118.791,65.596 117.791,65.2627 116.5,65.5C 116.5,64.8333 116.167,64.5 115.5,64.5C 112.72,62.5919 110.053,60.4252 107.5,58C 104.692,57.7623 102.026,58.0956 99.5,59C 100.328,58.0853 101.328,57.4186 102.5,57C 102.272,56.6012 101.938,56.4346 101.5,56.5C 101.833,55.8333 102.167,55.1667 102.5,54.5C 106.119,53.7564 109.785,53.423 113.5,53.5C 116.234,54.705 118.901,56.205 121.5,58C 122.635,58.7494 123.635,58.5827 124.5,57.5C 133.816,47.0166 143.316,36.6833 153,26.5C 154.033,22.3647 152.533,20.1981 148.5,20C 137.464,29.3683 127.464,39.7017 118.5,51C 117.563,51.6917 116.897,51.525 116.5,50.5C 121.843,45.319 126.677,39.6524 131,33.5C 136.667,28.1667 142.333,22.8333 148,17.5C 148.371,12.2455 145.871,10.0788 140.5,11C 128.36,21.8063 116.86,33.3063 106,45.5C 105.685,44.0922 106.018,42.7589 107,41.5C 115.667,31.5 125,22.1667 135,13.5C 134.287,7.5193 131.12,6.0193 125.5,9C 108.631,22.8736 92.7977,37.7069 78,53.5C 76.3402,50.3403 76.1736,47.007 77.5,43.5C 77.2908,42.0055 76.6241,40.8388 75.5,40C 76.4162,39.6258 77.2496,39.1258 78,38.5C 80.2636,32.3375 80.9303,26.0042 80,19.5C 78.871,17.8588 77.371,16.8588 75.5,16.5C 72.7705,19.1551 72.1038,22.1551 73.5,25.5C 69.1346,29.5568 66.3013,34.5568 65,40.5C 64.3607,46.8621 63.5274,53.1954 62.5,59.5C 63.9466,69.8929 63.7799,80.2262 62,90.5C 51.3553,106.121 39.522,120.788 26.5,134.5C 25.479,133.998 25.3123,133.332 26,132.5C 39.195,118.644 50.8617,103.644 61,87.5C 61.651,78.1545 61.4844,68.8212 60.5,59.5C 61.7816,52.91 62.6149,46.2433 63,39.5C 64.451,34.7094 66.7844,30.376 70,26.5C 70.6679,22.4746 71.8346,18.6412 73.5,15C 77.6836,13.8345 80.5169,15.3345 82,19.5C 82.6667,23.8333 82.6667,28.1667 82,32.5C 79.9364,38.028 78.9364,43.6947 79,49.5C 92.9298,34.5657 107.763,20.7324 123.5,8C 129.154,4.19778 133.987,5.03111 138,10.5C 142.938,7.29079 146.938,8.29079 150,13.5C 151.338,17.2549 153.171,20.7549 155.5,24C 155.375,25.6268 154.875,27.1268 154,28.5C 151.982,30.3501 150.149,32.3501 148.5,34.5C 151.242,36.9331 152.075,39.9331 151,43.5C 146.241,52.0215 140.741,60.0215 134.5,67.5C 140.76,75.6834 147.26,83.6834 154,91.5C 156.429,99.6951 159.429,107.695 163,115.5C 164.357,127.55 168.523,138.55 175.5,148.5C 175.167,148.833 174.833,149.167 174.5,149.5C 166.421,138.428 161.588,126.095 160,112.5C 157.167,107.16 155.167,101.493 154,95.5C 151.015,90.6888 147.515,86.3555 143.5,82.5 Z"/></g>
<g><path style="opacity:1" fill="#9c9c9d" d="M 75.5,16.5 C 77.2869,20.1218 76.6202,23.1218 73.5,25.5C 72.1038,22.1551 72.7705,19.1551 75.5,16.5 Z"/></g>
<g><path style="opacity:1" fill="#e0e0e0" d="M 113.5,53.5 C 114.9,52.9002 115.9,51.9002 116.5,50.5C 116.897,51.525 117.563,51.6917 118.5,51C 127.464,39.7017 137.464,29.3683 148.5,20C 152.533,20.1981 154.033,22.3647 153,26.5C 143.316,36.6833 133.816,47.0166 124.5,57.5C 123.635,58.5827 122.635,58.7494 121.5,58C 118.901,56.205 116.234,54.705 113.5,53.5 Z"/></g>
<g><path style="opacity:1" fill="#545354" d="M 186.5,59.5 C 188.122,56.5451 190.122,53.8785 192.5,51.5C 194.463,50.0401 196.296,48.3734 198,46.5C 198.749,45.365 198.583,44.365 197.5,43.5C 194.226,44.7972 191.226,46.4638 188.5,48.5C 182.731,52.2296 182.398,51.7296 187.5,47C 190.682,44.9087 194.015,43.0754 197.5,41.5C 197.291,40.914 196.957,40.414 196.5,40C 194.527,39.5045 192.527,39.3379 190.5,39.5C 189.251,37.0275 187.585,36.8609 185.5,39C 186.833,39.3333 188.167,39.6667 189.5,40C 188.263,40.2321 187.263,40.7321 186.5,41.5C 184.454,43.2789 182.287,44.9456 180,46.5C 179.333,45.8333 179.333,45.1667 180,44.5C 181.972,43.6948 183.472,42.3615 184.5,40.5C 184,40.1667 183.5,39.8333 183,39.5C 179.613,42.2088 175.78,44.0421 171.5,45C 167.618,49.2139 164.118,53.7139 161,58.5C 158.74,61.5283 155.906,63.3616 152.5,64C 154.759,62.2854 156.926,60.4521 159,58.5C 163.522,49.9777 170.022,43.4777 178.5,39C 177.717,35.3681 176.551,31.8681 175,28.5C 173.777,24.7951 174.61,21.7951 177.5,19.5C 176.127,14.5017 178.127,11.5017 183.5,10.5C 185.683,11.7321 187.849,11.7321 190,10.5C 191.261,10.7591 192.261,11.4258 193,12.5C 197.209,19.5856 200.876,26.919 204,34.5C 206.073,29.7178 209.573,27.5511 214.5,28C 215.022,28.5613 215.355,29.228 215.5,30C 214.349,31.8231 213.182,33.6564 212,35.5C 210.337,43.1498 207.837,50.4832 204.5,57.5C 206.187,64.489 207.354,71.489 208,78.5C 205.572,71.7156 203.738,64.7156 202.5,57.5C 206.269,49.4924 209.102,41.159 211,32.5C 212.976,31.4567 213.476,30.1233 212.5,28.5C 210.247,29.2531 208.413,30.5864 207,32.5C 204.355,39.4632 200.521,45.6299 195.5,51C 196.554,52.3876 196.72,53.8876 196,55.5C 193.266,59.3909 190.766,63.3909 188.5,67.5C 189.515,71.1311 189.681,74.7978 189,78.5C 188.121,75.1815 187.287,71.8482 186.5,68.5C 182.408,70.8125 178.074,71.9791 173.5,72C 177.732,70.0496 182.066,68.383 186.5,67C 188.936,64.2934 190.436,61.1267 191,57.5C 191.333,57.8333 191.667,58.1667 192,58.5C 193.221,57.2259 194.054,55.7259 194.5,54C 194.15,52.7425 193.483,52.4092 192.5,53C 191.002,55.6637 189.002,57.8304 186.5,59.5 Z"/></g>
<g><path style="opacity:1" fill="#e1e1e1" d="M 181.5,12.5 C 183.144,12.2865 184.644,12.6198 186,13.5C 188.838,19.842 191.672,26.1754 194.5,32.5C 194.833,32.1667 195.167,31.8333 195.5,31.5C 192.865,25.2383 190.531,18.9049 188.5,12.5C 189.822,12.33 190.989,12.6634 192,13.5C 196.136,20.1051 199.469,27.1051 202,34.5C 202.758,36.7695 202.591,38.9361 201.5,41C 198.953,39.5431 196.287,37.8764 193.5,36C 188.852,35.117 184.519,35.9504 180.5,38.5C 178.407,33.2264 176.741,27.8931 175.5,22.5C 176.675,22.281 177.675,22.6143 178.5,23.5C 180.076,27.6501 181.909,31.6501 184,35.5C 183.165,30.3268 181.498,25.3268 179,20.5C 178.192,18.4213 178.359,16.4213 179.5,14.5C 183.209,20.5857 186.376,26.919 189,33.5C 188.581,30.5449 187.914,27.5449 187,24.5C 184.854,20.5587 183.021,16.5587 181.5,12.5 Z"/></g>
<g><path style="opacity:1" fill="#e0e0e0" d="M 145.5,36.5 C 149.146,37.4615 150.313,39.7949 149,43.5C 144.056,51.4426 138.723,59.1093 133,66.5C 130.624,63.9552 128.124,61.6218 125.5,59.5C 132.247,51.7631 138.914,44.0964 145.5,36.5 Z"/></g>
<g><path style="opacity:1" fill="#909092" d="M 190.5,39.5 C 191.394,43.7231 190.061,44.3898 186.5,41.5C 187.263,40.7321 188.263,40.2321 189.5,40C 188.167,39.6667 186.833,39.3333 185.5,39C 187.585,36.8609 189.251,37.0275 190.5,39.5 Z"/></g>
<g><path style="opacity:1" fill="#c1c1c2" d="M 192.5,51.5 C 191.965,49.5544 190.632,48.5544 188.5,48.5C 191.226,46.4638 194.226,44.7972 197.5,43.5C 198.583,44.365 198.749,45.365 198,46.5C 196.296,48.3734 194.463,50.0401 192.5,51.5 Z"/></g>
<g><path style="opacity:1" fill="#949394" d="M 116.5,57.5 C 114.81,57.8564 113.81,58.8564 113.5,60.5C 111.337,58.722 109.004,57.0553 106.5,55.5C 110.154,54.5803 113.487,55.2469 116.5,57.5 Z"/></g>
<g><path style="opacity:1" fill="#727274" d="M 99.5,56.5 C 98.5637,57.9744 97.2303,58.9744 95.5,59.5C 95.3369,55.9652 96.6702,54.9652 99.5,56.5 Z"/></g>
<g><path style="opacity:1" fill="#211f23" d="M 102.5,54.5 C 102.167,55.1667 101.833,55.8333 101.5,56.5C 100.833,56.5 100.167,56.5 99.5,56.5C 96.6702,54.9652 95.3369,55.9652 95.5,59.5C 94.9569,59.56 94.6236,59.8933 94.5,60.5C 95.1925,61.5178 95.8592,62.5178 96.5,63.5C 95.8333,63.5 95.5,63.8333 95.5,64.5C 92.6066,61.6844 90.6066,62.3511 89.5,66.5C 88.6618,66.1583 88.3284,65.4916 88.5,64.5C 90.4637,62.8726 91.797,60.8726 92.5,58.5C 87.8227,58.6715 84.1561,60.6715 81.5,64.5C 82.1667,65.5 82.8333,66.5 83.5,67.5C 79.7058,69.7325 75.7058,71.3992 71.5,72.5C 71.2681,68.0199 71.9348,63.6865 73.5,59.5C 74.548,60.3829 75.7147,61.0496 77,61.5C 79.8894,58.9685 83.056,56.8019 86.5,55C 91.8229,54.5006 97.1563,54.334 102.5,54.5 Z"/></g>
<g><path style="opacity:1" fill="#727073" d="M 95.5,64.5 C 96.1667,64.5 96.5,64.8333 96.5,65.5C 94.139,65.6741 91.8056,66.0074 89.5,66.5C 90.6066,62.3511 92.6066,61.6844 95.5,64.5 Z"/></g>
<g><path style="opacity:1" fill="#474747" d="M 186.5,59.5 C 186.291,60.9217 185.791,62.255 185,63.5C 184.227,61.6476 184.727,60.3143 186.5,59.5 Z"/></g>
<g><path style="opacity:1" fill="#5b5a5c" d="M 115.5,64.5 C 116.167,64.5 116.5,64.8333 116.5,65.5C 114.74,68.3686 112.406,68.8686 109.5,67C 111.502,65.9808 113.502,65.1475 115.5,64.5 Z"/></g>
<g><path style="opacity:1" fill="#383739" d="M 95.5,64.5 C 95.5,63.8333 95.8333,63.5 96.5,63.5C 97.2389,63.369 97.9056,63.5357 98.5,64C 101.631,68.1328 105.131,71.9662 109,75.5C 111.748,80.6657 114.748,85.6657 118,90.5C 118.749,91.635 118.583,92.635 117.5,93.5C 114.237,88.638 111.237,83.638 108.5,78.5C 107.876,76.246 106.543,74.5794 104.5,73.5C 102.946,72.0858 101.612,70.4192 100.5,68.5C 98.1739,67.6099 95.8406,67.4433 93.5,68C 94.6226,66.9563 95.9559,66.2896 97.5,66C 97.2716,65.6012 96.9382,65.4346 96.5,65.5C 96.5,64.8333 96.1667,64.5 95.5,64.5 Z"/></g>
<g><path style="opacity:1" fill="#7b7b7b" d="M 119.5,66.5 C 120.5,66.8333 121.167,67.5 121.5,68.5C 118.3,70.0705 114.967,70.9038 111.5,71C 114.412,69.768 117.078,68.268 119.5,66.5 Z"/></g>
<g><path style="opacity:1" fill="#989898" d="M 104.5,73.5 C 106.543,74.5794 107.876,76.246 108.5,78.5C 104.837,79.3406 101.17,79.8406 97.5,80C 98.0712,78.7949 98.7379,77.6283 99.5,76.5C 101.759,76.2155 103.426,75.2155 104.5,73.5 Z"/></g>
<g><path style="opacity:1" fill="#9c9a9d" d="M 143.5,82.5 C 142.849,83.0906 142.182,83.7573 141.5,84.5C 140.893,84.3764 140.56,84.0431 140.5,83.5C 141.043,83.44 141.376,83.1067 141.5,82.5C 140.36,80.9222 139.86,79.2555 140,77.5C 141.176,79.1957 142.343,80.8624 143.5,82.5 Z"/></g>
<g><path style="opacity:1" fill="#cfcfcf" d="M 90.5,87.5 C 91.1667,87.5 91.8333,87.5 92.5,87.5C 94.1089,89.6015 94.6089,91.9348 94,94.5C 93.3292,95.2524 92.4959,95.5858 91.5,95.5C 90.5269,93.0521 90.1936,90.3854 90.5,87.5 Z"/></g>
<g><path style="opacity:1" fill="#262527" d="M 88.5,91.5 C 89.1667,90.1667 89.8333,88.8333 90.5,87.5C 90.1936,90.3854 90.5269,93.0521 91.5,95.5C 91.2053,97.7354 91.5386,99.7354 92.5,101.5C 92.5,102.167 92.5,102.833 92.5,103.5C 92.595,105.786 93.2616,107.786 94.5,109.5C 94.8333,110.833 95.1667,112.167 95.5,113.5C 95.7373,114.791 95.404,115.791 94.5,116.5C 85.7874,126.901 77.7874,137.901 70.5,149.5C 69.8333,150.833 69.1667,150.833 68.5,149.5C 76.9627,137.403 85.296,125.237 93.5,113C 91.3203,108.063 90.1536,102.896 90,97.5C 89.586,97.0426 89.086,96.7093 88.5,96.5C 74.7256,101.263 68.0589,96.263 68.5,81.5C 69.8221,81.33 70.9887,81.6634 72,82.5C 72.5737,94.8236 78.0737,97.8236 88.5,91.5 Z"/></g>
<g><path style="opacity:1" fill="#7a797a" d="M 93.5,86.5 C 94.722,88.2857 95.3887,90.2857 95.5,92.5C 93.7206,95.1304 92.7206,98.1304 92.5,101.5C 91.5386,99.7354 91.2053,97.7354 91.5,95.5C 92.4959,95.5858 93.3292,95.2524 94,94.5C 94.6089,91.9348 94.1089,89.6015 92.5,87.5C 92.5,86.8333 92.8333,86.5 93.5,86.5 Z"/></g>
<g><path style="opacity:1" fill="#363537" d="M 88.5,64.5 C 88.3284,65.4916 88.6618,66.1583 89.5,66.5C 92.4822,75.4713 96.3155,84.138 101,92.5C 102.405,98.4742 104.238,104.308 106.5,110C 108.17,113.439 107.836,116.605 105.5,119.5C 105.167,119.167 104.833,118.833 104.5,118.5C 105.544,116.232 105.711,113.899 105,111.5C 102.472,103.383 99.6383,95.3835 96.5,87.5C 95.675,86.6143 94.675,86.281 93.5,86.5C 92.8333,86.5 92.5,86.8333 92.5,87.5C 91.8333,87.5 91.1667,87.5 90.5,87.5C 89.8333,88.8333 89.1667,90.1667 88.5,91.5C 87.8193,86.845 89.8193,84.1783 94.5,83.5C 92.2374,79.2105 90.0707,74.8771 88,70.5C 87.2109,68.2884 87.3775,66.2884 88.5,64.5 Z"/></g>
<g><path style="opacity:1" fill="#7d7d7e" d="M 94.5,109.5 C 93.2616,107.786 92.595,105.786 92.5,103.5C 94.3904,103.703 95.8904,103.037 97,101.5C 97.6667,102.833 97.6667,104.167 97,105.5C 95.5187,106.471 94.6854,107.804 94.5,109.5 Z"/></g>
<g><path style="opacity:1" fill="#363537" d="M 95.5,113.5 C 96.1808,118.161 97.3474,122.828 99,127.5C 106.75,135.091 114.917,142.091 123.5,148.5C 123.167,148.833 122.833,149.167 122.5,149.5C 114.058,143.192 105.891,136.526 98,129.5C 95.7401,125.46 94.5734,121.127 94.5,116.5C 95.404,115.791 95.7373,114.791 95.5,113.5 Z"/></g>
</svg>
