<?xml version="1.0" encoding="UTF-8"?>
<!DOCTYPE svg PUBLIC "-//W3C//DTD SVG 1.1//EN" "http://www.w3.org/Graphics/SVG/1.1/DTD/svg11.dtd">
<svg xmlns="http://www.w3.org/2000/svg" version="1.1" width="255px" height="154px" style="shape-rendering:geometricPrecision; text-rendering:geometricPrecision; image-rendering:optimizeQuality; fill-rule:evenodd; clip-rule:evenodd" xmlns:xlink="http://www.w3.org/1999/xlink">
<g><path style="opacity:1" fill="#eaeaea" d="M -0.5,-0.5 C 84.5,-0.5 169.5,-0.5 254.5,-0.5C 254.5,50.8333 254.5,102.167 254.5,153.5C 169.5,153.5 84.5,153.5 -0.5,153.5C -0.5,102.167 -0.5,50.8333 -0.5,-0.5 Z"/></g>
<g><path style="opacity:1" fill="#545454" d="M 157.5,35.5 C 158.167,35.5 158.5,35.8333 158.5,36.5C 155.418,38.181 152.085,38.8476 148.5,38.5C 148.167,40.5 147.833,42.5 147.5,44.5C 146.778,44.9175 146.278,45.5842 146,46.5C 145.601,46.2716 145.435,45.9382 145.5,45.5C 145.586,43.323 146.253,41.323 147.5,39.5C 147.043,38.7025 146.376,38.3691 145.5,38.5C 145.5,38.1667 145.5,37.8333 145.5,37.5C 146.167,37.5 146.833,37.5 147.5,37.5C 149.195,36.9886 150.861,36.3219 152.5,35.5C 151.095,35.24 149.762,34.9066 148.5,34.5C 153.172,26.2974 151.839,18.7974 144.5,12C 142.725,10.5611 140.725,9.56106 138.5,9C 123.103,7.35667 109.27,11.19 97,20.5C 94.6896,25.2661 94.0229,30.2661 95,35.5C 96.1096,37.0368 97.6096,37.7035 99.5,37.5C 99.5,38.1667 99.1667,38.5 98.5,38.5C 95.001,38.259 94.6677,39.0924 97.5,41C 100.167,41.6667 102.833,41.6667 105.5,41C 106.056,40.6174 106.389,40.1174 106.5,39.5C 107.338,39.1583 107.672,38.4916 107.5,37.5C 108.692,33.7023 110.192,30.0356 112,26.5C 119.979,20.9636 128.813,18.7969 138.5,20C 136.256,20.0496 134.589,20.8829 133.5,22.5C 130.749,20.5508 127.749,20.5508 124.5,22.5C 123.833,22.8333 123.167,23.1667 122.5,23.5C 120.62,23.2291 119.287,23.8958 118.5,25.5C 117.448,25.3505 116.448,25.5172 115.5,26C 114.378,28.1238 112.878,29.9571 111,31.5C 111.068,33.3423 110.901,35.009 110.5,36.5C 109.957,36.56 109.624,36.8933 109.5,37.5C 112.698,40.5972 116.364,42.9305 120.5,44.5C 121.416,44.4573 122.083,44.1239 122.5,43.5C 122.5,43.1667 122.5,42.8333 122.5,42.5C 125.97,43.73 127.97,42.3966 128.5,38.5C 130.124,38.6399 131.29,37.9733 132,36.5C 132.399,36.7284 132.565,37.0618 132.5,37.5C 130.909,40.4309 128.909,43.0976 126.5,45.5C 126.167,45.5 125.833,45.5 125.5,45.5C 123.738,45.3573 122.071,45.6906 120.5,46.5C 116.566,44.5615 112.899,42.2281 109.5,39.5C 107.493,41.3062 105.826,43.3062 104.5,45.5C 104.5,44.5 104.5,43.5 104.5,42.5C 101.813,42.6641 99.146,42.4974 96.5,42C 91.2335,33.704 91.5669,25.5373 97.5,17.5C 92.2482,15.3047 86.9149,13.3047 81.5,11.5C 62.0525,20.0567 42.7192,28.89 23.5,38C 21.8353,38.7885 20.1686,39.1218 18.5,39C 38.9156,28.5415 59.7489,19.0415 81,10.5C 87.1909,12.0634 93.3576,13.7301 99.5,15.5C 106.962,12.1784 114.629,9.3451 122.5,7C 143.943,4.27204 154.61,13.772 154.5,35.5C 155.5,35.5 156.5,35.5 157.5,35.5 Z"/></g>
<g><path style="opacity:1" fill="#e7e7e8" d="M 148.5,34.5 C 144.792,35.9137 141.125,35.747 137.5,34C 136.418,30.5951 135.584,27.0951 135,23.5C 134.617,22.944 134.117,22.6107 133.5,22.5C 134.589,20.8829 136.256,20.0496 138.5,20C 128.813,18.7969 119.979,20.9636 112,26.5C 110.192,30.0356 108.692,33.7023 107.5,37.5C 104.833,37.5 102.167,37.5 99.5,37.5C 97.6096,37.7035 96.1096,37.0368 95,35.5C 94.0229,30.2661 94.6896,25.2661 97,20.5C 109.27,11.19 123.103,7.35667 138.5,9C 140.725,9.56106 142.725,10.5611 144.5,12C 151.839,18.7974 153.172,26.2974 148.5,34.5 Z"/></g>
<g><path style="opacity:1" fill="#e0e0e0" d="M 133.5,22.5 C 133.785,24.288 133.452,25.9547 132.5,27.5C 129.432,26.3087 126.765,24.642 124.5,22.5C 127.749,20.5508 130.749,20.5508 133.5,22.5 Z"/></g>
<g><path style="opacity:1" fill="#e6e6e6" d="M 122.5,23.5 C 125.021,25.0192 127.521,26.6859 130,28.5C 130.495,30.4727 130.662,32.4727 130.5,34.5C 126.526,33.3791 122.86,31.5457 119.5,29C 118.663,27.9887 118.33,26.8221 118.5,25.5C 119.287,23.8958 120.62,23.2291 122.5,23.5 Z"/></g>
<g><path style="opacity:1" fill="#e5e5e5" d="M 128.5,38.5 C 127.97,42.3966 125.97,43.73 122.5,42.5C 119.668,39.8217 116.501,37.4884 113,35.5C 112.833,31.6667 114.667,29.8333 118.5,30C 121.5,31.8333 124.5,33.6667 127.5,35.5C 128.386,36.325 128.719,37.325 128.5,38.5 Z"/></g>
<g><path style="opacity:1" fill="#e5e5e5" d="M 147.5,37.5 C 146.833,37.5 146.167,37.5 145.5,37.5C 139.691,44.544 140.358,51.044 147.5,57C 138.003,57.6595 131.003,53.8262 126.5,45.5C 128.909,43.0976 130.909,40.4309 132.5,37.5C 133.161,36.2825 133.828,34.9492 134.5,33.5C 135.7,34.5312 137.034,35.3645 138.5,36C 141.695,36.1805 144.695,36.6805 147.5,37.5 Z"/></g>
<g><path style="opacity:1" fill="#848484" d="M 99.5,37.5 C 102.167,37.5 104.833,37.5 107.5,37.5C 107.672,38.4916 107.338,39.1583 106.5,39.5C 103.615,39.8064 100.948,39.4731 98.5,38.5C 99.1667,38.5 99.5,38.1667 99.5,37.5 Z"/></g>
<g><path style="opacity:1" fill="#757575" d="M 124.5,22.5 C 126.765,24.642 129.432,26.3087 132.5,27.5C 133.452,25.9547 133.785,24.288 133.5,22.5C 134.117,22.6107 134.617,22.944 135,23.5C 135.584,27.0951 136.418,30.5951 137.5,34C 141.125,35.747 144.792,35.9137 148.5,34.5C 149.762,34.9066 151.095,35.24 152.5,35.5C 150.861,36.3219 149.195,36.9886 147.5,37.5C 144.695,36.6805 141.695,36.1805 138.5,36C 137.034,35.3645 135.7,34.5312 134.5,33.5C 133.828,34.9492 133.161,36.2825 132.5,37.5C 132.565,37.0618 132.399,36.7284 132,36.5C 131.29,37.9733 130.124,38.6399 128.5,38.5C 128.719,37.325 128.386,36.325 127.5,35.5C 124.5,33.6667 121.5,31.8333 118.5,30C 114.667,29.8333 112.833,31.6667 113,35.5C 116.501,37.4884 119.668,39.8217 122.5,42.5C 122.5,42.8333 122.5,43.1667 122.5,43.5C 118.801,40.6503 114.801,38.317 110.5,36.5C 110.901,35.009 111.068,33.3423 111,31.5C 112.878,29.9571 114.378,28.1238 115.5,26C 116.448,25.5172 117.448,25.3505 118.5,25.5C 118.33,26.8221 118.663,27.9887 119.5,29C 122.86,31.5457 126.526,33.3791 130.5,34.5C 130.662,32.4727 130.495,30.4727 130,28.5C 127.521,26.6859 125.021,25.0192 122.5,23.5C 123.167,23.1667 123.833,22.8333 124.5,22.5 Z"/></g>
<g><path style="opacity:1" fill="#c9c9c9" d="M 132.5,29.5 C 134.465,29.9483 134.798,30.9483 133.5,32.5C 132.614,31.675 132.281,30.675 132.5,29.5 Z"/></g>
<g><path style="opacity:1" fill="#e2e2e2" d="M 158.5,36.5 C 161.506,37.639 163.506,39.8057 164.5,43C 162.775,45.8857 162.108,49.0523 162.5,52.5C 159.447,52.6815 156.447,52.8481 153.5,53C 152.54,51.5806 151.707,50.0806 151,48.5C 150.329,47.7476 149.496,47.4142 148.5,47.5C 147.89,46.609 147.557,45.609 147.5,44.5C 147.833,42.5 148.167,40.5 148.5,38.5C 152.085,38.8476 155.418,38.181 158.5,36.5 Z"/></g>
<g><path style="opacity:1" fill="#d1d1d1" d="M 98.5,38.5 C 100.948,39.4731 103.615,39.8064 106.5,39.5C 106.389,40.1174 106.056,40.6174 105.5,41C 102.833,41.6667 100.167,41.6667 97.5,41C 94.6677,39.0924 95.001,38.259 98.5,38.5 Z"/></g>
<g><path style="opacity:1" fill="#dddddd" d="M 110.5,36.5 C 114.801,38.317 118.801,40.6503 122.5,43.5C 122.083,44.1239 121.416,44.4573 120.5,44.5C 116.364,42.9305 112.698,40.5972 109.5,37.5C 109.624,36.8933 109.957,36.56 110.5,36.5 Z"/></g>
<g><path style="opacity:1" fill="#676767" d="M 157.5,35.5 C 158.251,34.4265 159.251,34.2599 160.5,35C 162.167,36.6667 163.833,38.3333 165.5,40C 179.167,45 192.833,50 206.5,55C 193.434,51.8677 180.601,47.701 168,42.5C 164.181,45.1006 162.514,48.7672 163,53.5C 160.908,56.9937 157.741,58.827 153.5,59C 140.812,61.1546 131.479,56.6546 125.5,45.5C 125.833,45.5 126.167,45.5 126.5,45.5C 131.003,53.8262 138.003,57.6595 147.5,57C 140.358,51.044 139.691,44.544 145.5,37.5C 145.5,37.8333 145.5,38.1667 145.5,38.5C 144.312,40.7221 143.312,43.0554 142.5,45.5C 143.425,46.5624 144.425,46.5624 145.5,45.5C 145.435,45.9382 145.601,46.2716 146,46.5C 146.278,45.5842 146.778,44.9175 147.5,44.5C 147.557,45.609 147.89,46.609 148.5,47.5C 149.496,47.4142 150.329,47.7476 151,48.5C 151.707,50.0806 152.54,51.5806 153.5,53C 156.447,52.8481 159.447,52.6815 162.5,52.5C 162.108,49.0523 162.775,45.8857 164.5,43C 163.506,39.8057 161.506,37.639 158.5,36.5C 158.5,35.8333 158.167,35.5 157.5,35.5 Z"/></g>
<g><path style="opacity:1" fill="#6c6c6c" d="M 152.5,46.5 C 151.183,41.6549 153.183,39.8216 158.5,41C 162.167,47 160.5,49.6667 153.5,49C 152.748,48.3292 152.414,47.4959 152.5,46.5 Z"/></g>
<g><path style="opacity:1" fill="#e0e0e0" d="M 152.5,46.5 C 152.997,41.5072 155.164,40.5072 159,43.5C 159.684,44.7839 159.517,45.9505 158.5,47C 156.402,47.6776 154.402,47.5109 152.5,46.5 Z"/></g>
<g><path style="opacity:1" fill="#686868" d="M 91.5,50.5 C 79.8109,45.8708 67.6442,43.2041 55,42.5C 48.4408,42.8824 41.9408,43.7157 35.5,45C 29.3913,47.0744 23.3913,49.0744 17.5,51C 34.4681,41.8766 52.4681,39.2099 71.5,43C 78.5925,44.6382 85.2592,47.1382 91.5,50.5 Z"/></g>
<g><path style="opacity:1" fill="#dfdfdf" d="M 145.5,38.5 C 146.376,38.3691 147.043,38.7025 147.5,39.5C 146.253,41.323 145.586,43.323 145.5,45.5C 144.425,46.5624 143.425,46.5624 142.5,45.5C 143.312,43.0554 144.312,40.7221 145.5,38.5 Z"/></g>
<g><path style="opacity:1" fill="#6f7070" d="M 100.5,80.5 C 99.8333,74.5 99.1667,68.5 98.5,62.5C 98.5,59.5 98.5,56.5 98.5,53.5C 95.6538,53.4484 93.3204,52.4484 91.5,50.5C 93.5,50.8333 95.5,51.1667 97.5,51.5C 97.3359,48.8127 97.5026,46.146 98,43.5C 100.214,55.7256 101.048,68.0589 100.5,80.5 Z"/></g>
<g><path style="opacity:1" fill="#e2e2e2" d="M 148.5,47.5 C 151.542,50.5262 152.042,53.8595 150,57.5C 146.935,54.938 144.435,51.938 142.5,48.5C 144.396,47.5344 146.396,47.2011 148.5,47.5 Z"/></g>
<g><path style="opacity:1" fill="#cfcfcf" d="M 153.5,54.5 C 160.7,54.625 161.033,55.625 154.5,57.5C 152.197,57.1237 151.863,56.1237 153.5,54.5 Z"/></g>
<g><path style="opacity:1" fill="#6f6f6f" d="M 104.5,45.5 C 104.5,48.8333 104.5,52.1667 104.5,55.5C 112.787,58.3149 120.787,61.6483 128.5,65.5C 120.407,63.2045 112.574,60.2045 105,56.5C 104.36,58.265 104.527,59.9317 105.5,61.5C 104.761,61.369 104.094,61.5357 103.5,62C 104.416,62.2784 105.082,62.7784 105.5,63.5C 103.554,68.3958 102.887,73.7291 103.5,79.5C 104.5,79.5 105.5,79.5 106.5,79.5C 105.432,80.4345 104.099,80.7678 102.5,80.5C 102.334,70.4944 102.5,60.4944 103,50.5C 103.198,48.6183 103.698,46.9516 104.5,45.5 Z"/></g>
<g><path style="opacity:1" fill="#6e6e6e" d="M 128.5,65.5 C 139.552,69.0681 150.218,73.4015 160.5,78.5C 149.448,74.9319 138.782,70.5985 128.5,65.5 Z"/></g>
<g><path style="opacity:1" fill="#9b9b9a" d="M 82.5,73.5 C 82.5,74.5 82.5,75.5 82.5,76.5C 79.5,76.5 76.5,76.5 73.5,76.5C 76.6343,75.9649 79.6343,74.9649 82.5,73.5 Z"/></g>
<g><path style="opacity:1" fill="#707070" d="M 116.5,71.5 C 123.434,72.5472 129.934,74.8805 136,78.5C 136.667,80.1667 136.667,81.8333 136,83.5C 135.275,84.0585 134.442,84.3918 133.5,84.5C 128.214,82.2947 122.881,80.2947 117.5,78.5C 117.007,76.1944 116.674,73.861 116.5,71.5 Z"/></g>
<g><path style="opacity:1" fill="#262726" d="M 98.5,62.5 C 99.1667,68.5 99.8333,74.5 100.5,80.5C 101.167,80.5 101.833,80.5 102.5,80.5C 104.099,80.7678 105.432,80.4345 106.5,79.5C 106.782,74.0735 106.449,68.7401 105.5,63.5C 105.082,62.7784 104.416,62.2784 103.5,62C 104.094,61.5357 104.761,61.369 105.5,61.5C 106.965,62.4057 107.965,63.739 108.5,65.5C 112.645,65.657 115.312,67.657 116.5,71.5C 116.674,73.861 117.007,76.1944 117.5,78.5C 118.92,81.2613 119.587,84.2613 119.5,87.5C 126.241,87.3902 128.408,90.3902 126,96.5C 122.677,97.5813 121.51,99.5813 122.5,102.5C 121.443,106.538 118.777,108.205 114.5,107.5C 113.833,107.833 113.167,108.167 112.5,108.5C 112.649,107.448 112.483,106.448 112,105.5C 108.823,109.207 105.657,112.874 102.5,116.5C 101.479,115.998 101.312,115.332 102,114.5C 106.325,109.203 110.158,103.703 113.5,98C 114.777,97.8726 115.943,98.3726 117,99.5C 117.765,99.4301 118.265,99.0967 118.5,98.5C 119.995,98.0113 121.329,97.3446 122.5,96.5C 124.727,95.5994 125.727,93.9328 125.5,91.5C 123.972,90.6908 122.306,90.0241 120.5,89.5C 113.976,89.759 108.976,92.5924 105.5,98C 98.8472,99.0596 92.1806,100.06 85.5,101C 81.4698,102.618 77.4698,104.118 73.5,105.5C 72.209,105.737 71.209,105.404 70.5,104.5C 76.2875,102.888 81.7875,100.555 87,97.5C 88.6115,97.7233 90.1115,97.7233 91.5,97.5C 94.5,98.8333 97.5,98.8333 100.5,97.5C 103.887,97.1382 105.553,95.1382 105.5,91.5C 105.938,91.5654 106.272,91.3988 106.5,91C 105.584,90.7216 104.918,90.2216 104.5,89.5C 107.695,87.2563 108.029,84.7563 105.5,82C 104.251,81.2599 103.251,81.4265 102.5,82.5C 101.833,82.5 101.167,82.5 100.5,82.5C 98.901,82.2322 97.5676,82.5655 96.5,83.5C 95.5,83.5 94.5,83.5 93.5,83.5C 89.1667,83.5 84.8333,83.5 80.5,83.5C 77.7196,82.9216 75.0529,82.2549 72.5,81.5C 75.5,81.5 78.5,81.5 81.5,81.5C 81.5,80.1667 81.5,78.8333 81.5,77.5C 78.9407,77.1984 76.6074,77.5318 74.5,78.5C 69.7495,79.7128 65.0829,81.0462 60.5,82.5C 56.6286,82.815 52.9619,82.4816 49.5,81.5C 53.1817,81.6653 56.8484,81.4986 60.5,81C 64.7415,79.1872 69.0748,77.6872 73.5,76.5C 76.5,76.5 79.5,76.5 82.5,76.5C 82.5,75.5 82.5,74.5 82.5,73.5C 84.2123,67.1209 88.2123,63.1209 94.5,61.5C 95.8492,61.8457 97.1825,62.179 98.5,62.5 Z"/></g>
<g><path style="opacity:1" fill="#cecece" d="M 105.5,63.5 C 106.449,68.7401 106.782,74.0735 106.5,79.5C 105.5,79.5 104.5,79.5 103.5,79.5C 102.887,73.7291 103.554,68.3958 105.5,63.5 Z"/></g>
<g><path style="opacity:1" fill="#dfdfdf" d="M 109.5,68.5 C 111.451,68.2267 112.951,68.8934 114,70.5C 115.696,76.4433 115.862,82.4433 114.5,88.5C 112.587,89.373 110.753,90.373 109,91.5C 108.202,83.754 108.369,76.0873 109.5,68.5 Z"/></g>
<g><path style="opacity:1" fill="#dcdcdc" d="M 89.5,81.5 C 87.5,81.5 85.5,81.5 83.5,81.5C 83.5,80.5 83.5,79.5 83.5,78.5C 83.4295,73.4092 85.4295,69.4092 89.5,66.5C 90.5033,71.4834 90.5033,76.4834 89.5,81.5 Z"/></g>
<g><path style="opacity:1" fill="#e3e3e3" d="M 93.5,63.5 C 94.8221,63.33 95.9887,63.6634 97,64.5C 97.4994,70.1569 97.6661,75.8236 97.5,81.5C 95.5,81.5 93.5,81.5 91.5,81.5C 91.949,75.4307 92.6156,69.4307 93.5,63.5 Z"/></g>
<g><path style="opacity:1" fill="#dddddd" d="M 118.5,72.5 C 124.569,74.3684 130.235,77.035 135.5,80.5C 135.167,80.8333 134.833,81.1667 134.5,81.5C 129.5,79.3333 124.5,77.1667 119.5,75C 118.748,74.3292 118.414,73.4959 118.5,72.5 Z"/></g>
<g><path style="opacity:1" fill="#393939" d="M 49.5,81.5 C 52.9619,82.4816 56.6286,82.815 60.5,82.5C 54.3471,83.6533 48.0137,83.82 41.5,83C 33.7208,80.8121 26.0541,78.3121 18.5,75.5C 18.8333,75.1667 19.1667,74.8333 19.5,74.5C 29.3033,77.7846 39.3033,80.1179 49.5,81.5 Z"/></g>
<g><path style="opacity:1" fill="#6c6c6c" d="M 160.5,78.5 C 167.236,80.3727 173.57,83.0394 179.5,86.5C 172.776,84.5972 166.443,81.9305 160.5,78.5 Z"/></g>
<g><path style="opacity:1" fill="#797979" d="M 74.5,78.5 C 76.6074,77.5318 78.9407,77.1984 81.5,77.5C 81.5,78.8333 81.5,80.1667 81.5,81.5C 78.5,81.5 75.5,81.5 72.5,81.5C 75.0277,80.8343 77.6944,80.1676 80.5,79.5C 78.604,78.5344 76.604,78.2011 74.5,78.5 Z"/></g>
<g><path style="opacity:1" fill="#8a8a8a" d="M 83.5,78.5 C 83.5,79.5 83.5,80.5 83.5,81.5C 85.5,81.5 87.5,81.5 89.5,81.5C 87.3926,82.4682 85.0593,82.8016 82.5,82.5C 82.2322,80.901 82.5655,79.5676 83.5,78.5 Z"/></g>
<g><path style="opacity:1" fill="#797979" d="M 80.5,83.5 C 84.8333,83.5 89.1667,83.5 93.5,83.5C 93.3491,86.7181 92.5158,87.0515 91,84.5C 90.1932,88.449 89.6932,88.449 89.5,84.5C 86.2869,84.81 83.2869,84.4767 80.5,83.5 Z"/></g>
<g><path style="opacity:1" fill="#6c6c6c" d="M 102.5,82.5 C 103.251,81.4265 104.251,81.2599 105.5,82C 108.029,84.7563 107.695,87.2563 104.5,89.5C 102.708,88.6909 100.708,88.1909 98.5,88C 97.9011,86.3775 97.2344,84.8775 96.5,83.5C 97.5676,82.5655 98.901,82.2322 100.5,82.5C 97.5219,86.3641 98.5219,87.8641 103.5,87C 105.043,84.9551 104.71,83.4551 102.5,82.5 Z"/></g>
<g><path style="opacity:1" fill="#dfdfdf" d="M 100.5,82.5 C 101.167,82.5 101.833,82.5 102.5,82.5C 104.71,83.4551 105.043,84.9551 103.5,87C 98.5219,87.8641 97.5219,86.3641 100.5,82.5 Z"/></g>
<g><path style="opacity:1" fill="#727272" d="M 179.5,86.5 C 182.691,87.0922 185.691,88.2589 188.5,90C 192.58,92.0285 196.246,94.5285 199.5,97.5C 192.473,94.3231 185.806,90.6565 179.5,86.5 Z"/></g>
<g><path style="opacity:1" fill="#e0e0e0" d="M 125.5,91.5 C 125.727,93.9328 124.727,95.5994 122.5,96.5C 121.5,96.5 120.5,96.5 119.5,96.5C 119.062,92.0917 121.062,90.4251 125.5,91.5 Z"/></g>
<g><path style="opacity:1" fill="#303030" d="M 104.5,89.5 C 104.918,90.2216 105.584,90.7216 106.5,91C 106.272,91.3988 105.938,91.5654 105.5,91.5C 102.603,92.129 99.936,93.129 97.5,94.5C 92.1563,94.334 86.8229,94.5006 81.5,95C 77.1954,99.6538 71.862,102.487 65.5,103.5C 64.5,104.5 63.5,105.5 62.5,106.5C 59.9499,109.768 57.2832,112.935 54.5,116C 42.5931,119.136 30.9264,122.969 19.5,127.5C 17.2688,127.019 17.1021,126.352 19,125.5C 28.3744,121.931 37.8744,118.764 47.5,116C 38.1703,112.701 28.5036,110.868 18.5,110.5C 21.2869,109.523 24.2869,109.19 27.5,109.5C 36.6153,110.716 45.6153,112.216 54.5,114C 56.2907,111.586 57.9574,109.086 59.5,106.5C 59.1667,105.833 58.8333,105.167 58.5,104.5C 63.989,101.877 69.6557,99.7107 75.5,98C 77.792,96.7101 79.792,95.0435 81.5,93C 87.5,92.6667 93.5,92.3333 99.5,92C 101.03,90.8797 102.697,90.0464 104.5,89.5 Z"/></g>
<g><path style="opacity:1" fill="#a3a3a3" d="M 105.5,91.5 C 105.553,95.1382 103.887,97.1382 100.5,97.5C 101.567,95.1205 100.567,94.1205 97.5,94.5C 99.936,93.129 102.603,92.129 105.5,91.5 Z"/></g>
<g><path style="opacity:1" fill="#727272" d="M 120.5,89.5 C 122.306,90.0241 123.972,90.6908 125.5,91.5C 121.062,90.4251 119.062,92.0917 119.5,96.5C 120.5,96.5 121.5,96.5 122.5,96.5C 121.329,97.3446 119.995,98.0113 118.5,98.5C 118.065,95.1625 118.732,92.1625 120.5,89.5 Z"/></g>
<g><path style="opacity:1" fill="#d9d9d9" d="M 97.5,94.5 C 100.567,94.1205 101.567,95.1205 100.5,97.5C 97.607,96.9241 94.607,96.9241 91.5,97.5C 90.1115,97.7233 88.6115,97.7233 87,97.5C 81.7875,100.555 76.2875,102.888 70.5,104.5C 68.5434,107.059 66.8767,106.726 65.5,103.5C 71.862,102.487 77.1954,99.6538 81.5,95C 86.8229,94.5006 92.1563,94.334 97.5,94.5 Z"/></g>
<g><path style="opacity:1" fill="#636363" d="M 100.5,97.5 C 97.5,98.8333 94.5,98.8333 91.5,97.5C 94.607,96.9241 97.607,96.9241 100.5,97.5 Z"/></g>
<g><path style="opacity:1" fill="#737373" d="M 199.5,97.5 C 201.255,98.0722 202.922,98.9055 204.5,100C 206.007,100.837 206.507,102.004 206,103.5C 203.665,101.6 201.498,99.5998 199.5,97.5 Z"/></g>
<g><path style="opacity:1" fill="#d3d3d3" d="M 116.5,101.5 C 117.833,101.5 119.167,101.5 120.5,101.5C 120.143,105.395 118.143,106.395 114.5,104.5C 115.193,103.482 115.859,102.482 116.5,101.5 Z"/></g>
<g><path style="opacity:1" fill="#646464" d="M 65.5,103.5 C 66.8767,106.726 68.5434,107.059 70.5,104.5C 71.209,105.404 72.209,105.737 73.5,105.5C 71.0987,106.539 68.7654,107.873 66.5,109.5C 65.6143,108.675 65.281,107.675 65.5,106.5C 64.5,106.5 63.5,106.5 62.5,106.5C 63.5,105.5 64.5,104.5 65.5,103.5 Z"/></g>
<g><path style="opacity:1" fill="#8e8e8e" d="M 27.5,109.5 C 24.2869,109.19 21.2869,109.523 18.5,110.5C 17.9569,110.44 17.6236,110.107 17.5,109.5C 20.9798,108.194 24.3132,108.194 27.5,109.5 Z"/></g>
<g><path style="opacity:1" fill="#787878" d="M 114.5,107.5 C 114.5,108.833 114.5,110.167 114.5,111.5C 113.833,111.833 113.167,112.167 112.5,112.5C 112.5,111.167 112.5,109.833 112.5,108.5C 113.167,108.167 113.833,107.833 114.5,107.5 Z"/></g>
<g><path style="opacity:1" fill="#323232" d="M 114.5,111.5 C 116.229,115.277 115.229,117.943 111.5,119.5C 110.508,119.672 109.842,119.338 109.5,118.5C 111.025,116.784 112.025,114.784 112.5,112.5C 113.167,112.167 113.833,111.833 114.5,111.5 Z"/></g>
<g><path style="opacity:1" fill="#2d2d2d" d="M 100.5,128.5 C 99.0357,129.405 97.7024,129.405 96.5,128.5C 95.0413,128.567 93.7079,128.234 92.5,127.5C 90.8333,126.167 89.1667,126.167 87.5,127.5C 75.4715,132.848 64.8048,140.181 55.5,149.5C 54.479,148.998 54.3123,148.332 55,147.5C 69.3275,134.088 85.8275,124.421 104.5,118.5C 105.167,118.833 105.833,119.167 106.5,119.5C 104.504,122.535 102.504,125.535 100.5,128.5 Z"/></g>
<g><path style="opacity:1" fill="#d2d2d2" d="M 99.5,122.5 C 101.71,123.455 102.043,124.955 100.5,127C 97.788,127.738 95.4547,127.071 93.5,125C 95.7226,124.434 97.7226,123.6 99.5,122.5 Z"/></g>
<g><path style="opacity:1" fill="#6a6a6a" d="M 109.5,118.5 C 109.842,119.338 110.508,119.672 111.5,119.5C 110.194,120.467 109.527,121.801 109.5,123.5C 121.568,124.644 125.068,130.644 120,141.5C 114.911,145.417 109.411,146.251 103.5,144C 107.167,143.667 110.833,143.333 114.5,143C 121.763,139.496 123.096,134.496 118.5,128C 114.782,125.702 110.782,125.035 106.5,126C 116.402,126.495 119.402,131.162 115.5,140C 113.487,141.257 111.321,142.091 109,142.5C 106.266,141.204 103.433,140.704 100.5,141C 103.254,142.58 103.088,143.746 100,144.5C 99.0546,144.095 98.3879,143.428 98,142.5C 96.3292,144.276 94.4959,144.61 92.5,143.5C 91.1667,144.833 89.8333,146.167 88.5,147.5C 87.5,147.167 86.8333,146.5 86.5,145.5C 88.3603,144.061 90.027,142.395 91.5,140.5C 90.5,139.833 89.5,139.167 88.5,138.5C 90.5,137.667 92.5,136.833 94.5,136C 91.2519,135.918 88.9186,134.418 87.5,131.5C 88.2739,130.289 89.1072,130.289 90,131.5C 90.9098,129.055 90.0764,127.722 87.5,127.5C 89.1667,126.167 90.8333,126.167 92.5,127.5C 91.3473,128.313 91.3473,129.313 92.5,130.5C 89.5571,133.18 89.8904,133.847 93.5,132.5C 94.1924,133.025 94.6924,133.692 95,134.5C 95.21,132.942 95.71,131.609 96.5,130.5C 96.5,129.833 96.5,129.167 96.5,128.5C 97.7024,129.405 99.0357,129.405 100.5,128.5C 100.026,131.691 99.026,134.691 97.5,137.5C 96.3112,138.429 94.9778,138.762 93.5,138.5C 93.238,139.978 93.5713,141.311 94.5,142.5C 98.1987,139.806 102.199,137.806 106.5,136.5C 105.989,133.972 105.322,131.472 104.5,129C 105.54,125.125 107.206,121.625 109.5,118.5 Z"/></g>
<g><path style="opacity:1" fill="#b6b6b6" d="M 92.5,127.5 C 93.7079,128.234 95.0413,128.567 96.5,128.5C 96.5,129.167 96.5,129.833 96.5,130.5C 95.71,131.609 95.21,132.942 95,134.5C 94.6924,133.692 94.1924,133.025 93.5,132.5C 89.8904,133.847 89.5571,133.18 92.5,130.5C 91.3473,129.313 91.3473,128.313 92.5,127.5 Z"/></g>
<g><path style="opacity:1" fill="#c3c3c3" d="M 96.5,130.5 C 98.898,131.882 99.0647,133.549 97,135.5C 96.5065,133.866 96.3398,132.199 96.5,130.5 Z"/></g>
<g><path style="opacity:1" fill="#e5e5e5" d="M 106.5,128.5 C 109.602,128.154 112.435,128.821 115,130.5C 115.833,136.333 113.333,138.833 107.5,138C 111.204,135.864 111.204,134.031 107.5,132.5C 106.571,131.311 106.238,129.978 106.5,128.5 Z"/></g>
<g><path style="opacity:1" fill="#4f4f4f" d="M 80.5,134.5 C 83.3881,135.54 83.7214,136.873 81.5,138.5C 79.2997,137.675 78.9663,136.342 80.5,134.5 Z"/></g>
<g><path style="opacity:1" fill="#747474" d="M 79.5,143.5 C 80.8333,143.5 82.1667,143.5 83.5,143.5C 83.5,144.833 83.5,146.167 83.5,147.5C 80.5,147.833 79.1667,146.5 79.5,143.5 Z"/></g>
</svg>
