<svg width="248" height="91" viewBox="0 0 248 91" fill="none" xmlns="http://www.w3.org/2000/svg">
<path d="M13.3798 32.1617H19.0191L32.4795 63.1092H24.7865L22.121 56.5545H10.0977L7.51753 63.1092H0L13.3798 32.1617ZM16.0026 41.1733L12.2415 50.7919H19.8017L16.0026 41.1733Z" fill="#FF9500"/>
<path d="M34.7561 41.8657H41.3108V45.2759H41.4009C41.9792 44.1037 42.8337 43.0896 43.891 42.3211C44.9727 41.633 46.2382 41.2905 47.5193 41.3393C47.8987 41.3393 48.2782 41.3535 48.6576 41.382C49.0114 41.4103 49.3621 41.469 49.7058 41.5575V47.5478C49.2561 47.4045 48.7963 47.2951 48.3303 47.2205C47.8596 47.1472 47.3839 47.1107 46.9075 47.1114C45.8901 47.0682 44.8755 47.2462 43.9336 47.6331C43.2441 47.951 42.6598 48.4595 42.2499 49.0987C41.8395 49.7875 41.5793 50.5552 41.4863 51.3516C41.3657 52.308 41.3071 53.2713 41.3108 54.2353V63.1093H34.7561V41.8657Z" fill="#FF9500"/>
<path d="M52.5468 41.8657H59.1062V45.2759H59.1916C59.7726 44.1041 60.6286 43.0903 61.6864 42.3211C62.7675 41.6316 64.0335 41.289 65.3147 41.3393C65.6894 41.3393 66.0688 41.3393 66.4483 41.382C66.8021 41.4099 67.1528 41.4686 67.4965 41.5575V47.5478C67.0468 47.4045 66.587 47.2951 66.121 47.2205C65.6503 47.1469 65.1746 47.1105 64.6981 47.1114C63.6807 47.0672 62.6659 47.2453 61.7243 47.6331C61.034 47.9499 60.4495 48.4587 60.0406 49.0987C59.6258 49.7854 59.3652 50.5541 59.277 51.3516C59.154 52.3078 59.0954 53.2712 59.1015 54.2353V63.1093H52.5468V41.8657Z" fill="#FF9500"/>
<path d="M83.6746 60.4437H83.5845C82.8989 61.5468 81.8809 62.4038 80.677 62.8911C79.4642 63.3884 78.1651 63.6415 76.8542 63.6357C75.8903 63.6376 74.9313 63.497 74.0085 63.2183C73.1293 62.9611 72.3069 62.5395 71.5849 61.9757C70.883 61.4227 70.3142 60.7193 69.9201 59.9173C69.4956 59.0299 69.286 58.055 69.3083 57.0715C69.2752 55.9975 69.5081 54.9319 69.9865 53.9697C70.4269 53.1363 71.0554 52.4169 71.822 51.8685C72.6291 51.3002 73.5228 50.8662 74.4686 50.5832C75.4758 50.2727 76.5069 50.0458 77.5515 49.905C78.61 49.7598 79.6755 49.6711 80.7434 49.6394C81.8059 49.6109 82.7892 49.5967 83.6935 49.5967C83.7149 49.0692 83.6134 48.5439 83.3969 48.0624C83.1804 47.5808 82.8549 47.1562 82.4462 46.8221C81.6174 46.1374 80.5708 45.7723 79.4961 45.7929C78.4655 45.7804 77.4471 46.0163 76.527 46.4806C75.6267 46.9458 74.8222 47.5766 74.1555 48.3398L70.6695 44.7494C71.9001 43.6156 73.354 42.7513 74.9381 42.212C76.5694 41.643 78.2853 41.3543 80.013 41.3582C81.6246 41.3096 83.2316 41.5539 84.756 42.0792C85.9175 42.5076 86.9428 43.2397 87.725 44.1993C88.5032 45.2075 89.0358 46.3832 89.2807 47.6331C89.5892 49.1804 89.7355 50.7557 89.717 52.3334V63.1282H83.6746V60.4437ZM82.0572 53.8037C81.5829 53.8037 80.9426 53.8037 80.198 53.8701C79.4715 53.9099 78.7521 54.034 78.0542 54.24C77.4143 54.421 76.8197 54.7345 76.3088 55.1601C76.067 55.3704 75.8764 55.6331 75.7515 55.9281C75.6265 56.2232 75.5706 56.5429 75.5879 56.8628C75.5738 57.2196 75.6607 57.5731 75.8386 57.8827C76.0165 58.1923 76.2781 58.4454 76.5934 58.613C77.2299 58.984 77.953 59.1803 78.6898 59.1821C79.319 59.183 79.9452 59.0936 80.549 58.9165C81.1166 58.7574 81.6548 58.5075 82.1426 58.1766C82.6036 57.8602 82.985 57.4414 83.2572 56.953C83.5458 56.4157 83.6897 55.8125 83.6746 55.2028V53.8037H82.0572Z" fill="#FF9500"/>
<path d="M94.4268 30.0606H100.986V44.1376H101.072C101.8 43.1398 102.814 42.3859 103.979 41.9748C105.209 41.5437 106.504 41.3287 107.807 41.3393C109.219 41.3182 110.614 41.6439 111.871 42.2879C113.049 42.9029 114.083 43.7595 114.907 44.8016C115.757 45.8813 116.409 47.1033 116.832 48.411C117.288 49.7877 117.517 51.2294 117.511 52.6796C117.528 54.1842 117.276 55.6797 116.766 57.0952C116.303 58.3864 115.582 59.5694 114.646 60.5718C113.715 61.5586 112.583 62.3335 111.326 62.8437C109.972 63.3975 108.52 63.6733 107.057 63.6547C106.331 63.6585 105.609 63.5546 104.913 63.3464C104.268 63.1538 103.646 62.8897 103.059 62.5591C102.521 62.2646 102.021 61.9063 101.57 61.4919C101.187 61.1427 100.844 60.7531 100.545 60.3299H100.455V63.1282H94.4268V30.0606ZM100.46 52.4899C100.397 53.9155 100.89 55.3099 101.835 56.3791C102.755 57.3687 104.045 57.8636 105.705 57.8636C107.365 57.8636 108.656 57.3687 109.576 56.3791C110.465 55.2772 110.951 53.9037 110.951 52.4875C110.951 51.0713 110.465 49.6978 109.576 48.5959C108.656 47.6062 107.365 47.1114 105.705 47.1114C104.045 47.1114 102.755 47.6062 101.835 48.5959C100.89 49.6668 100.397 51.0627 100.46 52.4899Z" fill="#FF9500"/>
<path d="M134.699 60.4438H134.613C133.926 61.5453 132.909 62.4018 131.706 62.8911C130.492 63.3891 129.191 63.6421 127.879 63.6357C126.914 63.6384 125.955 63.4977 125.033 63.2184C124.152 62.9621 123.328 62.5404 122.604 61.9757C121.904 61.4224 121.337 60.719 120.944 59.9173C120.52 59.0299 120.31 58.055 120.333 57.0715C120.298 55.9979 120.529 54.9324 121.006 53.9697C121.45 53.1371 122.079 52.4181 122.846 51.8686C123.651 51.2993 124.543 50.8652 125.488 50.5832C126.495 50.2732 127.527 50.0463 128.571 49.905C129.63 49.76 130.695 49.6713 131.763 49.6394C132.825 49.6109 133.812 49.5967 134.713 49.5967C134.736 49.069 134.635 48.5434 134.418 48.0617C134.201 47.58 133.875 47.1555 133.466 46.8221C132.637 46.1374 131.59 45.7723 130.516 45.7929C129.484 45.7807 128.464 46.0166 127.542 46.4806C126.641 46.9451 125.836 47.576 125.17 48.3398L121.67 44.7542C122.899 43.6131 124.353 42.7422 125.939 42.1978C127.568 41.6288 129.283 41.3401 131.009 41.344C132.62 41.2949 134.228 41.5392 135.752 42.065C136.914 42.4944 137.941 43.2263 138.726 44.185C139.5 45.1948 140.031 46.37 140.277 47.6189C140.585 49.1662 140.731 50.7415 140.713 52.3191V63.114H134.699V60.4438ZM133.081 53.8037C132.607 53.8037 131.967 53.8037 131.222 53.8701C130.497 53.9099 129.779 54.0341 129.083 54.24C128.442 54.4204 127.845 54.7339 127.333 55.1601C127.092 55.3711 126.902 55.6339 126.777 55.9288C126.652 56.2237 126.596 56.543 126.612 56.8629C126.598 57.2196 126.685 57.5731 126.863 57.8827C127.041 58.1923 127.302 58.4455 127.618 58.613C128.254 58.9834 128.977 59.1797 129.714 59.1821C130.343 59.183 130.969 59.0936 131.573 58.9165C132.141 58.7574 132.679 58.5076 133.167 58.1766C133.629 57.8604 134.012 57.4416 134.286 56.953C134.571 56.4145 134.713 55.8119 134.699 55.2028V53.8037H133.081Z" fill="#FF9500"/>
<path d="M144.92 30.0606H151.479V63.1093H144.92V30.0606Z" fill="#FF9500"/>
<path d="M88.2609 23.3968H87.521L90.2387 17.1457H90.86L93.5777 23.3968H92.8378L92.1501 21.7558H88.9534L88.2609 23.3968ZM89.2095 21.1724H91.9177L90.5707 17.8856L89.2095 21.1724Z" fill="#837C7C"/>
<path d="M98.3444 18.1796C98.2158 17.9777 98.0364 17.8131 97.8241 17.7024C97.6118 17.5917 97.3742 17.5387 97.135 17.5488C96.9747 17.5508 96.8154 17.5731 96.6607 17.6152C96.5073 17.6569 96.3627 17.7259 96.2338 17.8191C96.1061 17.9115 96.0007 18.0315 95.9255 18.1701C95.8469 18.3275 95.8078 18.5017 95.8117 18.6776C95.8042 18.7982 95.8218 18.9191 95.8634 19.0326C95.9051 19.1461 95.9698 19.2497 96.0536 19.3368C96.2235 19.5011 96.4231 19.6315 96.6417 19.721C96.8939 19.8262 97.1521 19.9164 97.4148 19.9914C97.6839 20.0671 97.9433 20.1738 98.1879 20.3091C98.4212 20.4505 98.6204 20.6416 98.7713 20.8688C98.9424 21.1336 99.0255 21.4457 99.0084 21.7605C99.0114 22.0259 98.9495 22.288 98.8282 22.5241C98.7127 22.7456 98.5509 22.9396 98.3539 23.0932C98.1558 23.2469 97.9328 23.3656 97.6947 23.4442C97.4567 23.5265 97.2066 23.5682 96.9548 23.5675C96.5806 23.5688 96.2099 23.4963 95.8639 23.3541C95.5128 23.2001 95.2097 22.9543 94.9865 22.6427L95.5698 22.2253C95.7046 22.4524 95.8979 22.6391 96.1295 22.766C96.3908 22.9093 96.6853 22.9812 96.9832 22.9747C97.1442 22.9726 97.304 22.9471 97.4575 22.8988C97.6114 22.8493 97.7558 22.7739 97.8844 22.6759C98.0127 22.5808 98.1194 22.4595 98.1974 22.3201C98.2793 22.1756 98.3219 22.012 98.3207 21.8458C98.3273 21.6562 98.2796 21.4686 98.1832 21.3052C98.0918 21.1593 97.9686 21.0361 97.8227 20.9447C97.6627 20.8419 97.4907 20.759 97.3105 20.6981L96.7176 20.5036C96.5165 20.4408 96.3186 20.368 96.1247 20.2854C95.9411 20.2038 95.7689 20.0986 95.6125 19.9724C95.4602 19.8415 95.3374 19.6799 95.2521 19.4981C95.0878 19.1517 95.0453 18.76 95.1314 18.3865C95.2175 18.0129 95.4271 17.6793 95.7263 17.4397C95.9193 17.289 96.1401 17.1778 96.3761 17.1124C96.6162 17.0408 96.8654 17.004 97.116 17.0033C97.4401 17.0002 97.7619 17.0581 98.0646 17.1741C98.3774 17.3012 98.6543 17.5031 98.8709 17.7622L98.3444 18.1796Z" fill="#837C7C"/>
<path d="M107.356 20.2712C107.36 20.7215 107.275 21.1681 107.105 21.585C106.952 21.9751 106.719 22.3289 106.422 22.6237C106.126 22.9187 105.775 23.151 105.388 23.3067C104.557 23.6356 103.633 23.6356 102.803 23.3067C102.415 23.1511 102.063 22.9183 101.767 22.6223C101.472 22.3263 101.24 21.9734 101.086 21.585C100.751 20.7396 100.751 19.7982 101.086 18.9527C101.242 18.5655 101.475 18.2135 101.77 17.9178C102.065 17.6221 102.416 17.3885 102.803 17.231C103.633 16.9022 104.557 16.9022 105.388 17.231C105.775 17.3884 106.127 17.6223 106.422 17.9188C106.72 18.2181 106.953 18.5768 107.105 18.9717C107.272 19.3844 107.358 19.8258 107.356 20.2712ZM106.664 20.2712C106.666 19.9205 106.606 19.5721 106.488 19.242C106.376 18.9244 106.203 18.6314 105.981 18.3788C105.755 18.1298 105.48 17.9296 105.174 17.7907C104.834 17.6436 104.466 17.5677 104.095 17.5677C103.724 17.5677 103.357 17.6436 103.016 17.7907C102.71 17.9296 102.436 18.1298 102.21 18.3788C101.987 18.6314 101.815 18.9244 101.702 19.242C101.468 19.9082 101.468 20.6343 101.702 21.3005C101.814 21.6172 101.986 21.9089 102.21 22.1589C102.434 22.4146 102.709 22.6213 103.016 22.766C103.357 22.9131 103.724 22.989 104.095 22.989C104.466 22.989 104.834 22.9131 105.174 22.766C105.481 22.6255 105.755 22.4237 105.981 22.1732C106.204 21.9231 106.377 21.6314 106.488 21.3147C106.608 20.9801 106.668 20.6267 106.664 20.2712Z" fill="#837C7C"/>
<path d="M114.736 22.4055C114.626 22.5731 114.494 22.7247 114.342 22.8561C114.189 23.0061 114.017 23.1353 113.83 23.2403C113.624 23.3428 113.408 23.4239 113.185 23.4822C112.943 23.5403 112.694 23.5689 112.445 23.5676C112.001 23.5727 111.561 23.4889 111.15 23.3209C110.765 23.164 110.415 22.9318 110.121 22.638C109.824 22.3421 109.59 21.9887 109.433 21.5993C109.104 20.7527 109.104 19.8135 109.433 18.9669C109.592 18.5808 109.825 18.2298 110.12 17.9343C110.414 17.6388 110.765 17.4046 111.15 17.2453C111.562 17.0799 112.002 16.9961 112.445 16.9986C112.845 17.0001 113.242 17.079 113.612 17.231C114.008 17.3872 114.352 17.6499 114.608 17.9899L114.053 18.4025C113.978 18.2915 113.889 18.1911 113.787 18.1037C113.672 17.9986 113.542 17.9093 113.403 17.8381C113.252 17.7596 113.093 17.6976 112.929 17.6531C112.775 17.6077 112.615 17.5838 112.455 17.582C112.084 17.5769 111.716 17.653 111.378 17.8049C111.071 17.9425 110.796 18.1429 110.572 18.393C110.338 18.6377 110.156 18.9263 110.036 19.242C109.796 19.9072 109.796 20.6353 110.036 21.3004C110.145 21.618 110.318 21.9101 110.543 22.1589C110.768 22.4105 111.042 22.6124 111.349 22.7518C111.688 22.9037 112.055 22.9798 112.426 22.9747C112.585 22.9724 112.744 22.9566 112.9 22.9273C113.064 22.8968 113.223 22.8474 113.375 22.7802C113.536 22.707 113.684 22.6094 113.816 22.4909C113.967 22.3527 114.096 22.1929 114.2 22.0166L114.736 22.4055Z" fill="#837C7C"/>
<path d="M117.401 23.3968H116.766V17.1457H117.401V23.3968Z" fill="#837C7C"/>
<path d="M119.953 23.3968H119.213L121.931 17.1457H122.552L125.27 23.3968H124.53L123.838 21.7558H120.641L119.953 23.3968ZM120.902 21.1724H123.61L122.258 17.8856L120.902 21.1724Z" fill="#837C7C"/>
<path d="M132.228 22.4055C132.118 22.5731 131.985 22.7247 131.834 22.8561C131.674 23.0017 131.495 23.1261 131.303 23.2261C131.095 23.3278 130.877 23.4089 130.653 23.468C130.411 23.526 130.162 23.5547 129.913 23.5533C129.471 23.5586 129.032 23.4747 128.623 23.3067C128.235 23.1502 127.883 22.9171 127.587 22.6213C127.291 22.3254 127.058 21.973 126.902 21.585C126.572 20.7384 126.572 19.7993 126.902 18.9527C127.06 18.5658 127.294 18.2143 127.589 17.9187C127.885 17.6232 128.236 17.3894 128.623 17.231C129.033 17.0652 129.471 16.9814 129.913 16.9844C130.314 16.9859 130.71 17.0648 131.08 17.2168C131.476 17.373 131.82 17.6356 132.076 17.9757L131.521 18.3883C131.448 18.2762 131.358 18.1755 131.256 18.0895C131.14 17.9844 131.011 17.8951 130.871 17.8239C130.72 17.7459 130.561 17.6839 130.397 17.6389C130.243 17.5942 130.083 17.5703 129.923 17.5678C129.552 17.5627 129.184 17.6387 128.846 17.7907C128.539 17.9283 128.265 18.1286 128.04 18.3788C127.817 18.6314 127.645 18.9244 127.532 19.242C127.298 19.9082 127.298 20.6342 127.532 21.3004C127.643 21.6171 127.816 21.9088 128.04 22.1589C128.264 22.4105 128.539 22.6124 128.846 22.7518C129.184 22.9037 129.552 22.9798 129.923 22.9747C130.082 22.972 130.241 22.9561 130.397 22.9273C130.56 22.8964 130.719 22.8471 130.871 22.7802C131.032 22.707 131.181 22.6094 131.312 22.4909C131.463 22.3527 131.593 22.1929 131.697 22.0166L132.228 22.4055Z" fill="#837C7C"/>
<path d="M134.893 23.3968H134.258V17.1457H134.893V23.3968Z" fill="#837C7C"/>
<path d="M143.644 20.2713C143.65 20.7212 143.566 21.1678 143.397 21.585C143.243 21.9734 143.011 22.3263 142.716 22.6223C142.421 22.9183 142.068 23.1511 141.68 23.3067C141.27 23.4747 140.829 23.5585 140.386 23.5534C139.943 23.5587 139.505 23.4748 139.096 23.3067C138.708 23.1502 138.355 22.9171 138.059 22.6213C137.763 22.3255 137.53 21.973 137.374 21.585C137.045 20.7385 137.045 19.7993 137.374 18.9527C137.532 18.5659 137.766 18.2144 138.062 17.9188C138.357 17.6232 138.709 17.3894 139.096 17.2311C139.505 17.0652 139.944 16.9814 140.386 16.9844C140.829 16.9819 141.269 17.0657 141.68 17.2311C142.069 17.3907 142.421 17.6271 142.716 17.9262C143.012 18.2253 143.243 18.5809 143.397 18.9717C143.563 19.3847 143.647 19.8262 143.644 20.2713ZM142.956 20.2713C142.959 19.9206 142.899 19.5722 142.781 19.242C142.671 18.9264 142.504 18.6337 142.288 18.3788C142.06 18.1297 141.784 17.9296 141.477 17.7907C141.137 17.6438 140.77 17.5679 140.4 17.5679C140.03 17.5679 139.663 17.6438 139.323 17.7907C139.016 17.9283 138.742 18.1287 138.517 18.3788C138.297 18.6322 138.128 18.9252 138.019 19.242C137.785 19.9083 137.785 20.6343 138.019 21.3005C138.12 21.6146 138.281 21.9061 138.493 22.1589C138.718 22.4105 138.992 22.6124 139.3 22.7518C139.639 22.8988 140.006 22.9746 140.376 22.9746C140.746 22.9746 141.113 22.8988 141.453 22.7518C141.769 22.6141 142.053 22.4123 142.288 22.1589C142.498 21.905 142.659 21.6138 142.762 21.3005C142.887 20.9715 142.953 20.6231 142.956 20.2713ZM140.39 16.8706H139.869L140.751 15.5995H141.552L140.39 16.8706Z" fill="#837C7C"/>
<path d="M150.403 22.4435V17.1457H151.038V23.3968H150.246L146.556 18.0468V23.3968H145.921V17.1457H146.717L150.403 22.4435Z" fill="#837C7C"/>
<path d="M202.689 0C193.765 0 185.041 2.6462 177.622 7.60399C170.202 12.5618 164.419 19.6085 161.004 27.8529C157.589 36.0974 156.695 45.1694 158.436 53.9217C160.177 62.674 164.474 70.7135 170.784 77.0236C177.094 83.3336 185.134 87.6309 193.886 89.3718C202.639 91.1127 211.711 90.2192 219.955 86.8042C228.2 83.3893 235.246 77.6062 240.204 70.1864C245.162 62.7665 247.808 54.0431 247.808 45.1194C247.808 33.153 243.054 21.6767 234.593 13.2152C226.131 4.75363 214.655 0 202.689 0ZM227.698 33.1056C226.598 33.7933 223.904 35.2067 222.789 35.5197C221.674 35.8327 221.594 35.9655 221.788 36.511C222.888 39.8453 223.682 43.2727 224.16 46.7509C224.851 51.5083 225.193 56.3099 225.184 61.1172C225.142 65.31 224.919 67.4348 224.615 68.1273C224.513 68.5018 224.312 68.8417 224.032 69.1107C223.752 69.3796 223.405 69.5676 223.026 69.6545C221.883 70.0387 219.867 71.0347 216.794 70.7643C212.018 70.347 210.22 69.3415 209.651 68.9431C208.916 68.4118 208.622 68.2079 208.546 67.2546C208.47 66.3012 208.1 54.3206 208.446 50.6544C208.743 47.3939 209.256 44.1568 209.983 40.9646C210.234 40.0107 210.538 39.0717 210.894 38.152C211.145 37.4785 210.818 37.2936 210.216 37.4169C209.613 37.5402 206.146 37.9528 203.101 38.2327C200.703 38.4145 198.295 38.4145 195.897 38.2327C195.218 38.2 194.542 38.1272 193.872 38.0145C193.592 37.9623 193.473 38.1283 193.502 38.3939C193.577 39.0778 193.697 39.7559 193.862 40.4239C194.128 41.4484 195.901 48.3351 196.262 51.5603C196.622 54.7854 196.912 60.4912 196.736 62.4215C196.561 64.3519 196.499 66.785 196.352 67.2735C196.205 67.7621 195.309 68.4166 194.901 68.6964C194.241 69.1707 192.359 70.2284 188.374 70.1193C185.657 70.0343 183.042 69.0633 180.928 67.3542C179.851 66.5763 179.894 65.8602 179.894 65.8602C179.894 65.8602 179.61 55.4257 179.543 53.0543C179.451 49.6314 179.621 46.2066 180.051 42.8096C180.525 39.7599 180.587 39.4895 181.198 38.2279C181.81 36.9663 182.413 36.2311 182.242 35.9561C182.071 35.681 179.7 34.334 178.144 32.636C176.588 30.9381 176.806 29.7903 176.674 27.9785C176.541 26.1667 178.244 22.287 181.706 21.1392C185.977 19.6066 190.513 18.9516 195.043 19.2136C200.663 19.5598 209.903 20.6696 217.61 23.2166C225.317 25.7635 229.908 28.8322 229.908 30.8052C229.951 31.4076 228.803 32.4226 227.698 33.1056Z" fill="#FF9500"/>
</svg>
