<?xml version="1.0" encoding="UTF-8"?>
<!DOCTYPE svg PUBLIC "-//W3C//DTD SVG 1.1//EN" "http://www.w3.org/Graphics/SVG/1.1/DTD/svg11.dtd">
<svg xmlns="http://www.w3.org/2000/svg" version="1.1" width="512px" height="512px" style="shape-rendering:geometricPrecision; text-rendering:geometricPrecision; image-rendering:optimizeQuality; fill-rule:evenodd; clip-rule:evenodd" xmlns:xlink="http://www.w3.org/1999/xlink">
<g><path style="opacity:0.952" fill="#000000" d="M 232.5,-0.5 C 247.833,-0.5 263.167,-0.5 278.5,-0.5C 368.144,10.3879 435.644,54.7213 481,132.5C 497.695,163.971 507.861,197.304 511.5,232.5C 511.5,247.833 511.5,263.167 511.5,278.5C 500.612,368.144 456.279,435.644 378.5,481C 347.029,497.695 313.696,507.861 278.5,511.5C 263.167,511.5 247.833,511.5 232.5,511.5C 142.856,500.612 75.3562,456.279 30,378.5C 13.3053,347.029 3.1386,313.696 -0.5,278.5C -0.5,263.167 -0.5,247.833 -0.5,232.5C 10.3875,142.857 54.7208,75.3573 132.5,30C 163.971,13.3053 197.304,3.1386 232.5,-0.5 Z M 235.5,23.5 C 314.7,19.3693 380.533,46.7026 433,105.5C 485.274,171.11 499.941,244.444 477,325.5C 450.672,401.828 399.172,452.661 322.5,478C 243.339,499.035 171.672,484.369 107.5,434C 46.3919,380.052 18.8919,312.219 25,230.5C 37.5161,142.689 83.6827,79.8553 163.5,42C 186.742,32.3571 210.742,26.1904 235.5,23.5 Z"/></g>
<g><path style="opacity:0.978" fill="#000000" d="M 196.5,149.5 C 211.167,149.5 225.833,149.5 240.5,149.5C 240.5,220.167 240.5,290.833 240.5,361.5C 224.167,361.5 207.833,361.5 191.5,361.5C 191.667,308.166 191.5,254.832 191,201.5C 179.007,205.539 166.84,208.706 154.5,211C 150.407,197.551 146.407,184.051 142.5,170.5C 160.558,163.464 178.558,156.464 196.5,149.5 Z"/></g>
<g><path style="opacity:0.976" fill="#000000" d="M 318.5,149.5 C 333.167,149.5 347.833,149.5 362.5,149.5C 362.5,220.167 362.5,290.833 362.5,361.5C 346.167,361.5 329.833,361.5 313.5,361.5C 313.667,308.166 313.5,254.832 313,201.5C 300.611,205.222 288.111,208.556 275.5,211.5C 271.358,197.597 267.858,183.597 265,169.5C 282.954,162.908 300.787,156.241 318.5,149.5 Z"/></g>
</svg>
