<?xml version="1.0" encoding="UTF-8"?>
<!DOCTYPE svg PUBLIC "-//W3C//DTD SVG 1.1//EN" "http://www.w3.org/Graphics/SVG/1.1/DTD/svg11.dtd">
<svg xmlns="http://www.w3.org/2000/svg" version="1.1" width="512px" height="512px" style="shape-rendering:geometricPrecision; text-rendering:geometricPrecision; image-rendering:optimizeQuality; fill-rule:evenodd; clip-rule:evenodd" xmlns:xlink="http://www.w3.org/1999/xlink">
<g><path style="opacity:0.952" fill="#000000" d="M 232.5,-0.5 C 247.833,-0.5 263.167,-0.5 278.5,-0.5C 368.144,10.3879 435.644,54.7213 481,132.5C 497.695,163.971 507.861,197.304 511.5,232.5C 511.5,247.833 511.5,263.167 511.5,278.5C 500.612,368.144 456.279,435.644 378.5,481C 347.029,497.695 313.696,507.861 278.5,511.5C 263.167,511.5 247.833,511.5 232.5,511.5C 142.856,500.612 75.3562,456.279 30,378.5C 13.3053,347.029 3.1386,313.696 -0.5,278.5C -0.5,263.167 -0.5,247.833 -0.5,232.5C 10.3875,142.857 54.7208,75.3573 132.5,30C 163.971,13.3053 197.304,3.1386 232.5,-0.5 Z M 235.5,23.5 C 314.7,19.3693 380.533,46.7026 433,105.5C 485.274,171.11 499.941,244.444 477,325.5C 450.672,401.828 399.172,452.661 322.5,478C 243.339,499.035 171.672,484.369 107.5,434C 46.3919,380.052 18.8919,312.219 25,230.5C 37.5161,142.689 83.6827,79.8553 163.5,42C 186.742,32.3571 210.742,26.1904 235.5,23.5 Z"/></g>
<g><path style="opacity:0.976" fill="#000000" d="M 244.5,147.5 C 269.365,145.413 290.865,152.747 309,169.5C 326.699,191.951 330.366,216.618 320,243.5C 315.166,254.514 308.832,264.514 301,273.5C 286.804,287.362 272.971,301.529 259.5,316C 282.498,316.5 305.498,316.667 328.5,316.5C 328.5,332.167 328.5,347.833 328.5,363.5C 280.5,363.5 232.5,363.5 184.5,363.5C 184.333,351.162 184.5,338.829 185,326.5C 214.431,297.406 242.764,267.406 270,236.5C 277.217,226.332 278.217,215.665 273,204.5C 262.766,194.323 251.266,192.823 238.5,200C 231.724,204.713 226.724,210.88 223.5,218.5C 209.297,210.905 195.631,202.572 182.5,193.5C 194.857,166.986 215.523,151.653 244.5,147.5 Z"/></g>
</svg>
