<?xml version="1.0" encoding="UTF-8"?>
<!DOCTYPE svg PUBLIC "-//W3C//DTD SVG 1.1//EN" "http://www.w3.org/Graphics/SVG/1.1/DTD/svg11.dtd">
<svg xmlns="http://www.w3.org/2000/svg" version="1.1" width="512px" height="512px" style="shape-rendering:geometricPrecision; text-rendering:geometricPrecision; image-rendering:optimizeQuality; fill-rule:evenodd; clip-rule:evenodd" xmlns:xlink="http://www.w3.org/1999/xlink">
<g><path style="opacity:0.952" fill="#000000" d="M 232.5,-0.5 C 247.833,-0.5 263.167,-0.5 278.5,-0.5C 368.144,10.3879 435.644,54.7213 481,132.5C 497.695,163.971 507.861,197.304 511.5,232.5C 511.5,247.833 511.5,263.167 511.5,278.5C 500.612,368.144 456.279,435.644 378.5,481C 347.029,497.695 313.696,507.861 278.5,511.5C 263.167,511.5 247.833,511.5 232.5,511.5C 142.856,500.612 75.3562,456.279 30,378.5C 13.3053,347.029 3.1386,313.696 -0.5,278.5C -0.5,263.167 -0.5,247.833 -0.5,232.5C 10.3875,142.857 54.7208,75.3573 132.5,30C 163.971,13.3053 197.304,3.1386 232.5,-0.5 Z M 235.5,23.5 C 314.7,19.3693 380.533,46.7026 433,105.5C 485.274,171.11 499.941,244.444 477,325.5C 450.672,401.828 399.172,452.661 322.5,478C 243.339,499.035 171.672,484.369 107.5,434C 46.3919,380.052 18.8919,312.219 25,230.5C 37.5161,142.689 83.6827,79.8553 163.5,42C 186.742,32.3571 210.742,26.1904 235.5,23.5 Z"/></g>
<g><path style="opacity:0.975" fill="#000000" d="M 239.5,149.5 C 257.17,149.333 274.836,149.5 292.5,150C 269.911,193.844 247.578,237.844 225.5,282C 239.496,282.5 253.496,282.667 267.5,282.5C 267.5,267.167 267.5,251.833 267.5,236.5C 284.167,236.5 300.833,236.5 317.5,236.5C 317.5,251.833 317.5,267.167 317.5,282.5C 324.5,282.5 331.5,282.5 338.5,282.5C 338.5,297.5 338.5,312.5 338.5,327.5C 331.5,327.5 324.5,327.5 317.5,327.5C 317.5,338.833 317.5,350.167 317.5,361.5C 300.833,361.5 284.167,361.5 267.5,361.5C 267.5,350.167 267.5,338.833 267.5,327.5C 235.833,327.5 204.167,327.5 172.5,327.5C 172.333,311.83 172.5,296.163 173,280.5C 195.18,236.807 217.346,193.14 239.5,149.5 Z"/></g>
</svg>
