<?xml version="1.0" encoding="UTF-8"?>
<!DOCTYPE svg PUBLIC "-//W3C//DTD SVG 1.1//EN" "http://www.w3.org/Graphics/SVG/1.1/DTD/svg11.dtd">
<svg xmlns="http://www.w3.org/2000/svg" version="1.1" width="512px" height="512px" style="shape-rendering:geometricPrecision; text-rendering:geometricPrecision; image-rendering:optimizeQuality; fill-rule:evenodd; clip-rule:evenodd" xmlns:xlink="http://www.w3.org/1999/xlink">
<g><path style="opacity:0.952" fill="#000000" d="M 232.5,-0.5 C 247.833,-0.5 263.167,-0.5 278.5,-0.5C 368.144,10.3879 435.644,54.7213 481,132.5C 497.695,163.971 507.861,197.304 511.5,232.5C 511.5,247.833 511.5,263.167 511.5,278.5C 500.612,368.144 456.279,435.644 378.5,481C 347.029,497.695 313.696,507.861 278.5,511.5C 263.167,511.5 247.833,511.5 232.5,511.5C 142.856,500.612 75.3562,456.279 30,378.5C 13.3053,347.029 3.1386,313.696 -0.5,278.5C -0.5,263.167 -0.5,247.833 -0.5,232.5C 10.3875,142.857 54.7208,75.3573 132.5,30C 163.971,13.3053 197.304,3.1386 232.5,-0.5 Z M 235.5,23.5 C 314.7,19.3693 380.533,46.7026 433,105.5C 485.274,171.11 499.941,244.444 477,325.5C 450.672,401.828 399.172,452.661 322.5,478C 243.339,499.035 171.672,484.369 107.5,434C 46.3919,380.052 18.8919,312.219 25,230.5C 37.5161,142.689 83.6827,79.8553 163.5,42C 186.742,32.3571 210.742,26.1904 235.5,23.5 Z"/></g>
<g><path style="opacity:0.975" fill="#000000" d="M 186.5,147.5 C 231.833,147.5 277.167,147.5 322.5,147.5C 322.667,161.171 322.5,174.837 322,188.5C 310.691,203.31 299.191,217.977 287.5,232.5C 326.515,250.552 339.348,280.219 326,321.5C 314.924,344.312 296.758,357.812 271.5,362C 240.869,367.557 214.369,359.724 192,338.5C 186.942,332.217 182.775,325.384 179.5,318C 193.336,309.581 207.336,301.414 221.5,293.5C 230.365,312.429 245.031,319.262 265.5,314C 280.343,308.145 285.177,297.645 280,282.5C 275.705,274.934 269.205,270.767 260.5,270C 254.833,269.667 249.167,269.333 243.5,269C 237.093,260.262 231.093,251.262 225.5,242C 237.437,225.726 249.77,209.726 262.5,194C 237.169,193.5 211.836,193.333 186.5,193.5C 186.5,178.167 186.5,162.833 186.5,147.5 Z"/></g>
</svg>
