<?xml version="1.0" encoding="UTF-8"?>
<!DOCTYPE svg PUBLIC "-//W3C//DTD SVG 1.1//EN" "http://www.w3.org/Graphics/SVG/1.1/DTD/svg11.dtd">
<svg xmlns="http://www.w3.org/2000/svg" version="1.1" width="512px" height="512px" style="shape-rendering:geometricPrecision; text-rendering:geometricPrecision; image-rendering:optimizeQuality; fill-rule:evenodd; clip-rule:evenodd" xmlns:xlink="http://www.w3.org/1999/xlink">
<g><path style="opacity:0.952" fill="#000000" d="M 232.5,-0.5 C 247.833,-0.5 263.167,-0.5 278.5,-0.5C 368.144,10.3879 435.644,54.7213 481,132.5C 497.695,163.971 507.861,197.304 511.5,232.5C 511.5,247.833 511.5,263.167 511.5,278.5C 500.612,368.144 456.279,435.644 378.5,481C 347.029,497.695 313.696,507.861 278.5,511.5C 263.167,511.5 247.833,511.5 232.5,511.5C 142.856,500.612 75.3562,456.279 30,378.5C 13.3053,347.029 3.1386,313.696 -0.5,278.5C -0.5,263.167 -0.5,247.833 -0.5,232.5C 10.3875,142.857 54.7208,75.3573 132.5,30C 163.971,13.3053 197.304,3.1386 232.5,-0.5 Z M 235.5,23.5 C 314.7,19.3693 380.533,46.7026 433,105.5C 485.274,171.11 499.941,244.444 477,325.5C 450.672,401.828 399.172,452.661 322.5,478C 243.339,499.035 171.672,484.369 107.5,434C 46.3919,380.052 18.8919,312.219 25,230.5C 37.5161,142.689 83.6827,79.8553 163.5,42C 186.742,32.3571 210.742,26.1904 235.5,23.5 Z M 312.5,193.5 C 331.651,191.503 344.485,199.503 351,217.5C 358.333,242.833 358.333,268.167 351,293.5C 343.37,313.233 329.203,320.733 308.5,316C 298.052,311.549 291.052,303.883 287.5,293C 285.234,286.338 283.734,279.504 283,272.5C 282.333,261.167 282.333,249.833 283,238.5C 283.626,222.932 289.459,209.765 300.5,199C 304.451,196.855 308.451,195.021 312.5,193.5 Z"/></g>
<g><path style="opacity:0.976" fill="#000000" d="M 308.5,145.5 C 357.963,143.456 388.796,166.456 401,214.5C 407.505,244.341 406.838,274.008 399,303.5C 381.299,354.107 346.133,373.607 293.5,362C 269.512,353.346 252.678,337.179 243,313.5C 229,274.833 229,236.167 243,197.5C 255.054,167.59 276.888,150.256 308.5,145.5 Z M 312.5,193.5 C 308.451,195.021 304.451,196.855 300.5,199C 289.459,209.765 283.626,222.932 283,238.5C 282.333,249.833 282.333,261.167 283,272.5C 283.734,279.504 285.234,286.338 287.5,293C 291.052,303.883 298.052,311.549 308.5,316C 329.203,320.733 343.37,313.233 351,293.5C 358.333,268.167 358.333,242.833 351,217.5C 344.485,199.503 331.651,191.503 312.5,193.5 Z"/></g>
<g><path style="opacity:0.978" fill="#000000" d="M 159.5,149.5 C 174.167,149.5 188.833,149.5 203.5,149.5C 203.5,220.167 203.5,290.833 203.5,361.5C 187.167,361.5 170.833,361.5 154.5,361.5C 154.667,308.166 154.5,254.832 154,201.5C 142.007,205.539 129.84,208.706 117.5,211C 113.351,197.741 109.351,184.408 105.5,171C 105.645,170.228 105.978,169.561 106.5,169C 124.381,162.766 142.047,156.266 159.5,149.5 Z"/></g>
</svg>
