<?xml version="1.0" encoding="UTF-8"?>
<!DOCTYPE svg PUBLIC "-//W3C//DTD SVG 1.1//EN" "http://www.w3.org/Graphics/SVG/1.1/DTD/svg11.dtd">
<svg xmlns="http://www.w3.org/2000/svg" version="1.1" width="512px" height="512px" style="shape-rendering:geometricPrecision; text-rendering:geometricPrecision; image-rendering:optimizeQuality; fill-rule:evenodd; clip-rule:evenodd" xmlns:xlink="http://www.w3.org/1999/xlink">
<g><path style="opacity:0.952" fill="#000000" d="M 232.5,-0.5 C 247.833,-0.5 263.167,-0.5 278.5,-0.5C 368.144,10.3879 435.644,54.7213 481,132.5C 497.695,163.971 507.861,197.304 511.5,232.5C 511.5,247.833 511.5,263.167 511.5,278.5C 500.612,368.144 456.279,435.644 378.5,481C 347.029,497.695 313.696,507.861 278.5,511.5C 263.167,511.5 247.833,511.5 232.5,511.5C 142.856,500.612 75.3562,456.279 30,378.5C 13.3053,347.029 3.1386,313.696 -0.5,278.5C -0.5,263.167 -0.5,247.833 -0.5,232.5C 10.3875,142.857 54.7208,75.3573 132.5,30C 163.971,13.3053 197.304,3.1386 232.5,-0.5 Z M 235.5,23.5 C 314.7,19.3693 380.533,46.7026 433,105.5C 485.274,171.11 499.941,244.444 477,325.5C 450.672,401.828 399.172,452.661 322.5,478C 243.339,499.035 171.672,484.369 107.5,434C 46.3919,380.052 18.8919,312.219 25,230.5C 37.5161,142.689 83.6827,79.8553 163.5,42C 186.742,32.3571 210.742,26.1904 235.5,23.5 Z M 251.5,193.5 C 271.479,193.152 282.813,202.819 285.5,222.5C 283.373,240.293 273.373,249.96 255.5,251.5C 233.451,248.709 223.951,236.375 227,214.5C 231.077,202.581 239.244,195.581 251.5,193.5 Z"/></g>
<g><path style="opacity:0.975" fill="#000000" d="M 245.5,147.5 C 273.375,144.747 297.208,153.08 317,172.5C 338.759,203.239 340.092,234.906 321,267.5C 299.833,299.333 278.667,331.167 257.5,363C 238.824,363.833 220.158,363.666 201.5,362.5C 216.305,340.529 231.305,318.696 246.5,297C 209.663,293.156 186.83,273.323 178,237.5C 172.705,186.357 195.205,156.357 245.5,147.5 Z M 251.5,193.5 C 239.244,195.581 231.077,202.581 227,214.5C 223.951,236.375 233.451,248.709 255.5,251.5C 273.373,249.96 283.373,240.293 285.5,222.5C 282.813,202.819 271.479,193.152 251.5,193.5 Z"/></g>
</svg>
