<?xml version="1.0" encoding="UTF-8"?>
<!DOCTYPE svg PUBLIC "-//W3C//DTD SVG 1.1//EN" "http://www.w3.org/Graphics/SVG/1.1/DTD/svg11.dtd">
<svg xmlns="http://www.w3.org/2000/svg" version="1.1" width="512px" height="512px" style="shape-rendering:geometricPrecision; text-rendering:geometricPrecision; image-rendering:optimizeQuality; fill-rule:evenodd; clip-rule:evenodd" xmlns:xlink="http://www.w3.org/1999/xlink">
<g><path style="opacity:0.952" fill="#000000" d="M 232.5,-0.5 C 247.833,-0.5 263.167,-0.5 278.5,-0.5C 368.144,10.3879 435.644,54.7213 481,132.5C 497.695,163.971 507.861,197.304 511.5,232.5C 511.5,247.833 511.5,263.167 511.5,278.5C 500.612,368.144 456.279,435.644 378.5,481C 347.029,497.695 313.696,507.861 278.5,511.5C 263.167,511.5 247.833,511.5 232.5,511.5C 142.856,500.612 75.3562,456.279 30,378.5C 13.3053,347.029 3.1386,313.696 -0.5,278.5C -0.5,263.167 -0.5,247.833 -0.5,232.5C 10.3875,142.857 54.7208,75.3573 132.5,30C 163.971,13.3053 197.304,3.1386 232.5,-0.5 Z M 235.5,23.5 C 314.7,19.3693 380.533,46.7026 433,105.5C 485.274,171.11 499.941,244.444 477,325.5C 450.672,401.828 399.172,452.661 322.5,478C 243.339,499.035 171.672,484.369 107.5,434C 46.3919,380.052 18.8919,312.219 25,230.5C 37.5161,142.689 83.6827,79.8553 163.5,42C 186.742,32.3571 210.742,26.1904 235.5,23.5 Z"/></g>
<g><path style="opacity:0.975" fill="#000000" d="M 198.5,147.5 C 239.5,147.5 280.5,147.5 321.5,147.5C 321.5,162.833 321.5,178.167 321.5,193.5C 295.833,193.5 270.167,193.5 244.5,193.5C 244.088,202.856 243.421,212.189 242.5,221.5C 259.678,220.064 276.345,222.23 292.5,228C 319.017,241.074 332.35,262.574 332.5,292.5C 331.088,326.841 314.088,349.341 281.5,360C 254.427,366.908 228.761,363.575 204.5,350C 192.924,341.752 184.258,331.085 178.5,318C 192.336,309.581 206.336,301.414 220.5,293.5C 226.772,308.407 238.106,315.74 254.5,315.5C 278.853,314.335 287.019,302.335 279,279.5C 274.781,274.14 269.281,270.973 262.5,270C 238.169,269.5 213.836,269.333 189.5,269.5C 192.689,228.854 195.689,188.187 198.5,147.5 Z"/></g>
</svg>
