<?xml version="1.0" encoding="UTF-8"?>
<!DOCTYPE svg PUBLIC "-//W3C//DTD SVG 1.1//EN" "http://www.w3.org/Graphics/SVG/1.1/DTD/svg11.dtd">
<svg xmlns="http://www.w3.org/2000/svg" version="1.1" width="512px" height="512px" style="shape-rendering:geometricPrecision; text-rendering:geometricPrecision; image-rendering:optimizeQuality; fill-rule:evenodd; clip-rule:evenodd" xmlns:xlink="http://www.w3.org/1999/xlink">
<g><path style="opacity:0.952" fill="#000000" d="M 232.5,-0.5 C 247.833,-0.5 263.167,-0.5 278.5,-0.5C 368.144,10.3879 435.644,54.7213 481,132.5C 497.695,163.971 507.861,197.304 511.5,232.5C 511.5,247.833 511.5,263.167 511.5,278.5C 500.612,368.144 456.279,435.644 378.5,481C 347.029,497.695 313.696,507.861 278.5,511.5C 263.167,511.5 247.833,511.5 232.5,511.5C 142.856,500.612 75.3562,456.279 30,378.5C 13.3053,347.029 3.1386,313.696 -0.5,278.5C -0.5,263.167 -0.5,247.833 -0.5,232.5C 10.3875,142.857 54.7208,75.3573 132.5,30C 163.971,13.3053 197.304,3.1386 232.5,-0.5 Z M 235.5,23.5 C 314.7,19.3693 380.533,46.7026 433,105.5C 485.274,171.11 499.941,244.444 477,325.5C 450.672,401.828 399.172,452.661 322.5,478C 243.339,499.035 171.672,484.369 107.5,434C 46.3919,380.052 18.8919,312.219 25,230.5C 37.5161,142.689 83.6827,79.8553 163.5,42C 186.742,32.3571 210.742,26.1904 235.5,23.5 Z M 250.5,191.5 C 271.579,191.37 279.412,201.37 274,221.5C 264.515,232.606 253.348,234.439 240.5,227C 231.167,216.667 231.167,206.333 240.5,196C 243.815,194.17 247.149,192.67 250.5,191.5 Z M 251.5,269.5 C 261.559,269.02 270.393,272.02 278,278.5C 284.923,288.588 285.256,298.921 279,309.5C 268.08,319.417 255.58,321.917 241.5,317C 226.667,308.834 222.834,297 230,281.5C 235.704,274.735 242.87,270.735 251.5,269.5 Z"/></g>
<g><path style="opacity:0.977" fill="#000000" d="M 244.5,145.5 C 267.915,143.101 288.915,148.934 307.5,163C 325.024,182.279 329.857,204.445 322,229.5C 318.412,237.762 313.246,244.929 306.5,251C 331.098,270.474 338.598,295.308 329,325.5C 320.377,344.576 305.877,356.742 285.5,362C 259.141,368.248 233.474,366.248 208.5,356C 183.971,341.098 173.804,319.265 178,290.5C 181.085,273.829 189.585,260.662 203.5,251C 184.722,232.551 179.555,210.718 188,185.5C 194.141,168.693 205.641,157.193 222.5,151C 229.823,148.575 237.157,146.742 244.5,145.5 Z M 250.5,191.5 C 247.149,192.67 243.815,194.17 240.5,196C 231.167,206.333 231.167,216.667 240.5,227C 253.348,234.439 264.515,232.606 274,221.5C 279.412,201.37 271.579,191.37 250.5,191.5 Z M 251.5,269.5 C 242.87,270.735 235.704,274.735 230,281.5C 222.834,297 226.667,308.834 241.5,317C 255.58,321.917 268.08,319.417 279,309.5C 285.256,298.921 284.923,288.588 278,278.5C 270.393,272.02 261.559,269.02 251.5,269.5 Z"/></g>
</svg>
