<?xml version="1.0" encoding="UTF-8"?>
<!DOCTYPE svg PUBLIC "-//W3C//DTD SVG 1.1//EN" "http://www.w3.org/Graphics/SVG/1.1/DTD/svg11.dtd">
<svg xmlns="http://www.w3.org/2000/svg" version="1.1" width="512px" height="512px" style="shape-rendering:geometricPrecision; text-rendering:geometricPrecision; image-rendering:optimizeQuality; fill-rule:evenodd; clip-rule:evenodd" xmlns:xlink="http://www.w3.org/1999/xlink">
<g><path style="opacity:0.952" fill="#000000" d="M 232.5,-0.5 C 247.833,-0.5 263.167,-0.5 278.5,-0.5C 368.144,10.3879 435.644,54.7213 481,132.5C 497.695,163.971 507.861,197.304 511.5,232.5C 511.5,247.833 511.5,263.167 511.5,278.5C 500.612,368.144 456.279,435.644 378.5,481C 347.029,497.695 313.696,507.861 278.5,511.5C 263.167,511.5 247.833,511.5 232.5,511.5C 142.856,500.612 75.3562,456.279 30,378.5C 13.3053,347.029 3.1386,313.696 -0.5,278.5C -0.5,263.167 -0.5,247.833 -0.5,232.5C 10.3875,142.857 54.7208,75.3573 132.5,30C 163.971,13.3053 197.304,3.1386 232.5,-0.5 Z M 235.5,23.5 C 314.7,19.3693 380.533,46.7026 433,105.5C 485.274,171.11 499.941,244.444 477,325.5C 450.672,401.828 399.172,452.661 322.5,478C 243.339,499.035 171.672,484.369 107.5,434C 46.3919,380.052 18.8919,312.219 25,230.5C 37.5161,142.689 83.6827,79.8553 163.5,42C 186.742,32.3571 210.742,26.1904 235.5,23.5 Z M 252.5,259.5 C 276.262,260.751 286.762,273.084 284,296.5C 277.02,313.408 264.52,319.908 246.5,316C 229.705,309.862 223.205,298.028 227,280.5C 231.223,268.158 239.723,261.158 252.5,259.5 Z"/></g>
<g><path style="opacity:0.975" fill="#000000" d="M 253.5,147.5 C 272.179,147.167 290.845,147.5 309.5,148.5C 294.695,170.471 279.695,192.304 264.5,214C 299.249,217.11 321.749,235.277 332,268.5C 338.636,297.465 331.803,322.632 311.5,344C 285.515,363.505 256.849,368.505 225.5,359C 193.99,346.461 177.656,323.128 176.5,289C 176.483,274.569 179.983,261.069 187,248.5C 209.177,214.805 231.344,181.138 253.5,147.5 Z M 252.5,259.5 C 239.723,261.158 231.223,268.158 227,280.5C 223.205,298.028 229.705,309.862 246.5,316C 264.52,319.908 277.02,313.408 284,296.5C 286.762,273.084 276.262,260.751 252.5,259.5 Z"/></g>
</svg>
