<?xml version="1.0" encoding="UTF-8"?>
<!DOCTYPE svg PUBLIC "-//W3C//DTD SVG 1.1//EN" "http://www.w3.org/Graphics/SVG/1.1/DTD/svg11.dtd">
<svg xmlns="http://www.w3.org/2000/svg" version="1.1" width="512px" height="512px" style="shape-rendering:geometricPrecision; text-rendering:geometricPrecision; image-rendering:optimizeQuality; fill-rule:evenodd; clip-rule:evenodd" xmlns:xlink="http://www.w3.org/1999/xlink">
<g><path style="opacity:0.952" fill="#000000" d="M 232.5,-0.5 C 247.833,-0.5 263.167,-0.5 278.5,-0.5C 368.144,10.3879 435.644,54.7213 481,132.5C 497.695,163.971 507.861,197.304 511.5,232.5C 511.5,247.833 511.5,263.167 511.5,278.5C 500.612,368.144 456.279,435.644 378.5,481C 347.029,497.695 313.696,507.861 278.5,511.5C 263.167,511.5 247.833,511.5 232.5,511.5C 142.856,500.612 75.3562,456.279 30,378.5C 13.3053,347.029 3.1386,313.696 -0.5,278.5C -0.5,263.167 -0.5,247.833 -0.5,232.5C 10.3875,142.857 54.7208,75.3573 132.5,30C 163.971,13.3053 197.304,3.1386 232.5,-0.5 Z M 235.5,23.5 C 314.7,19.3693 380.533,46.7026 433,105.5C 485.274,171.11 499.941,244.444 477,325.5C 450.672,401.828 399.172,452.661 322.5,478C 243.339,499.035 171.672,484.369 107.5,434C 46.3919,380.052 18.8919,312.219 25,230.5C 37.5161,142.689 83.6827,79.8553 163.5,42C 186.742,32.3571 210.742,26.1904 235.5,23.5 Z"/></g>
<g><path style="opacity:0.973" fill="#000000" d="M 305.5,147.5 C 331.788,145.313 353.955,153.646 372,172.5C 390.522,199.945 391.188,227.945 374,256.5C 368.382,264.453 362.382,272.12 356,279.5C 343.833,291.667 331.667,303.833 319.5,316C 342.831,316.5 366.164,316.667 389.5,316.5C 389.5,332.167 389.5,347.833 389.5,363.5C 341.167,363.5 292.833,363.5 244.5,363.5C 244.333,351.495 244.5,339.495 245,327.5C 270.636,300.196 296.636,273.196 323,246.5C 327.75,240.673 331.75,234.34 335,227.5C 339.144,201.314 328.311,191.481 302.5,198C 294.258,203.075 287.924,209.909 283.5,218.5C 269.833,210.333 256.167,202.167 242.5,194C 254.905,166.803 275.905,151.303 305.5,147.5 Z"/></g>
<g><path style="opacity:0.963" fill="#000000" d="M 174.5,151.5 C 189.167,151.5 203.833,151.5 218.5,151.5C 218.5,222.167 218.5,292.833 218.5,363.5C 201.833,363.5 185.167,363.5 168.5,363.5C 168.5,310.5 168.5,257.5 168.5,204.5C 156.802,207.287 145.135,210.287 133.5,213.5C 132.833,213.167 132.167,212.833 131.5,212.5C 127.5,199.167 123.5,185.833 119.5,172.5C 137.821,165.285 156.154,158.285 174.5,151.5 Z"/></g>
</svg>
