<?xml version="1.0" encoding="UTF-8"?>
<!DOCTYPE svg PUBLIC "-//W3C//DTD SVG 1.1//EN" "http://www.w3.org/Graphics/SVG/1.1/DTD/svg11.dtd">
<svg xmlns="http://www.w3.org/2000/svg" version="1.1" width="512px" height="512px" style="shape-rendering:geometricPrecision; text-rendering:geometricPrecision; image-rendering:optimizeQuality; fill-rule:evenodd; clip-rule:evenodd" xmlns:xlink="http://www.w3.org/1999/xlink">
<g><path style="opacity:0.993" fill="#000000" d="M 110.5,27.5 C 207.167,27.3333 303.834,27.5 400.5,28C 402.333,28.5 403.5,29.6667 404,31.5C 404.667,43.8333 404.667,56.1667 404,68.5C 403.5,70.3333 402.333,71.5 400.5,72C 303.833,72.6667 207.167,72.6667 110.5,72C 108.667,71.5 107.5,70.3333 107,68.5C 106.333,56.1667 106.333,43.8333 107,31.5C 107.69,29.6498 108.856,28.3164 110.5,27.5 Z"/></g>
<g><path style="opacity:0.974" fill="#000000" d="M 130.5,87.5 C 213.833,87.5 297.167,87.5 380.5,87.5C 380.5,214.167 380.5,340.833 380.5,467.5C 385.167,467.5 389.833,467.5 394.5,467.5C 394.5,386.5 394.5,305.5 394.5,224.5C 423.833,224.5 453.167,224.5 482.5,224.5C 482.5,305.5 482.5,386.5 482.5,467.5C 492.705,465.55 497.205,469.55 496,479.5C 495.5,481.333 494.333,482.5 492.5,483C 334.5,483.667 176.5,483.667 18.5,483C 16.6667,482.5 15.5,481.333 15,479.5C 13.7949,469.55 18.2949,465.55 28.5,467.5C 28.5,386.5 28.5,305.5 28.5,224.5C 57.8333,224.5 87.1667,224.5 116.5,224.5C 116.5,305.5 116.5,386.5 116.5,467.5C 121.167,467.5 125.833,467.5 130.5,467.5C 130.5,340.833 130.5,214.167 130.5,87.5 Z M 243.5,115.5 C 251.507,115.334 259.507,115.5 267.5,116C 268.333,116.833 269.167,117.667 270,118.5C 270.5,124.825 270.666,131.158 270.5,137.5C 276.842,137.334 283.175,137.5 289.5,138C 290.333,138.833 291.167,139.667 292,140.5C 292.667,148.5 292.667,156.5 292,164.5C 291.167,165.333 290.333,166.167 289.5,167C 283.175,167.5 276.842,167.666 270.5,167.5C 270.666,173.842 270.5,180.175 270,186.5C 269.167,187.333 268.333,188.167 267.5,189C 259.5,189.667 251.5,189.667 243.5,189C 242.667,188.167 241.833,187.333 241,186.5C 240.5,180.175 240.334,173.842 240.5,167.5C 234.158,167.666 227.825,167.5 221.5,167C 220.667,166.167 219.833,165.333 219,164.5C 218.333,156.5 218.333,148.5 219,140.5C 219.833,139.667 220.667,138.833 221.5,138C 227.825,137.5 234.158,137.334 240.5,137.5C 240.334,131.158 240.5,124.825 241,118.5C 242.045,117.627 242.878,116.627 243.5,115.5 Z M 165.5,221.5 C 176.172,221.333 186.839,221.5 197.5,222C 198.333,222.833 199.167,223.667 200,224.5C 200.667,241.167 200.667,257.833 200,274.5C 198.764,276.538 196.931,277.705 194.5,278C 185.5,278.667 176.5,278.667 167.5,278C 166.234,277.691 165.067,277.191 164,276.5C 162.362,259.258 162.029,241.925 163,224.5C 163.698,223.309 164.531,222.309 165.5,221.5 Z M 239.5,221.5 C 250.172,221.333 260.839,221.5 271.5,222C 272.333,222.833 273.167,223.667 274,224.5C 274.667,241.167 274.667,257.833 274,274.5C 272.764,276.538 270.931,277.705 268.5,278C 264.167,278.167 259.833,278.333 255.5,278.5C 249.507,278.716 243.673,278.05 238,276.5C 236.362,259.258 236.029,241.925 237,224.5C 238.045,223.627 238.878,222.627 239.5,221.5 Z M 313.5,221.5 C 324.172,221.333 334.839,221.5 345.5,222C 346.308,222.308 346.975,222.808 347.5,223.5C 348.652,240.456 348.819,257.456 348,274.5C 347.626,275.416 347.126,276.25 346.5,277C 336.574,278.59 326.574,278.923 316.5,278C 314.579,277.64 312.912,276.806 311.5,275.5C 310.348,258.544 310.181,241.544 311,224.5C 312.045,223.627 312.878,222.627 313.5,221.5 Z M 63.5,252.5 C 70.5888,252.116 77.5888,252.616 84.5,254C 85.7014,254.903 86.5348,256.069 87,257.5C 87.6667,269.833 87.6667,282.167 87,294.5C 86.5,296.333 85.3333,297.5 83.5,298C 76.1667,298.667 68.8333,298.667 61.5,298C 60.3333,296.833 59.1667,295.667 58,294.5C 57.3333,282.167 57.3333,269.833 58,257.5C 59.3516,255.251 61.1849,253.584 63.5,252.5 Z M 429.5,252.5 C 435.509,252.334 441.509,252.501 447.5,253C 450.057,253.685 451.891,255.185 453,257.5C 453.667,269.833 453.667,282.167 453,294.5C 451.833,295.667 450.667,296.833 449.5,298C 442.167,298.667 434.833,298.667 427.5,298C 425.667,297.5 424.5,296.333 424,294.5C 423.333,282.167 423.333,269.833 424,257.5C 425.107,254.887 426.94,253.22 429.5,252.5 Z M 165.5,303.5 C 176.172,303.333 186.839,303.5 197.5,304C 198.333,304.833 199.167,305.667 200,306.5C 200.667,323.167 200.667,339.833 200,356.5C 198.992,358.259 197.492,359.426 195.5,360C 186.167,360.667 176.833,360.667 167.5,360C 166.234,359.691 165.067,359.191 164,358.5C 162.362,341.258 162.029,323.925 163,306.5C 164.045,305.627 164.878,304.627 165.5,303.5 Z M 239.5,303.5 C 250.172,303.333 260.839,303.5 271.5,304C 272.333,304.833 273.167,305.667 274,306.5C 274.667,323.167 274.667,339.833 274,356.5C 273.626,357.416 273.126,358.25 272.5,359C 262.241,360.592 251.907,360.926 241.5,360C 240.234,359.691 239.067,359.191 238,358.5C 236.362,341.258 236.029,323.925 237,306.5C 238.045,305.627 238.878,304.627 239.5,303.5 Z M 313.5,303.5 C 324.172,303.333 334.839,303.5 345.5,304C 346.333,304.833 347.167,305.667 348,306.5C 348.667,323.167 348.667,339.833 348,356.5C 347.626,357.416 347.126,358.25 346.5,359C 336.241,360.592 325.907,360.926 315.5,360C 314.234,359.691 313.067,359.191 312,358.5C 310.362,341.258 310.029,323.925 311,306.5C 312.045,305.627 312.878,304.627 313.5,303.5 Z M 62.5,327.5 C 69.175,327.334 75.8417,327.5 82.5,328C 84.286,328.785 85.786,329.951 87,331.5C 87.6667,344.167 87.6667,356.833 87,369.5C 85.786,371.049 84.286,372.215 82.5,373C 75.8333,373.667 69.1667,373.667 62.5,373C 60.3333,372.167 58.8333,370.667 58,368.5C 57.3333,356.5 57.3333,344.5 58,332.5C 59.025,330.313 60.525,328.646 62.5,327.5 Z M 428.5,327.5 C 435.175,327.334 441.842,327.5 448.5,328C 450.667,328.833 452.167,330.333 453,332.5C 453.667,344.5 453.667,356.5 453,368.5C 452.167,370.667 450.667,372.167 448.5,373C 441.833,373.667 435.167,373.667 428.5,373C 426.714,372.215 425.214,371.049 424,369.5C 423.333,356.833 423.333,344.167 424,331.5C 425.397,329.93 426.897,328.596 428.5,327.5 Z M 165.5,385.5 C 176.172,385.333 186.839,385.5 197.5,386C 198.333,386.833 199.167,387.667 200,388.5C 200.667,405.167 200.667,421.833 200,438.5C 199.626,439.416 199.126,440.25 198.5,441C 188.241,442.592 177.907,442.926 167.5,442C 166.234,441.691 165.067,441.191 164,440.5C 162.362,423.258 162.029,405.925 163,388.5C 164.045,387.627 164.878,386.627 165.5,385.5 Z M 239.5,385.5 C 250.172,385.333 260.839,385.5 271.5,386C 272.333,386.833 273.167,387.667 274,388.5C 274.667,405.167 274.667,421.833 274,438.5C 273.626,439.416 273.126,440.25 272.5,441C 262.241,442.592 251.907,442.926 241.5,442C 240.234,441.691 239.067,441.191 238,440.5C 236.362,423.258 236.029,405.925 237,388.5C 238.045,387.627 238.878,386.627 239.5,385.5 Z M 313.5,385.5 C 324.172,385.333 334.839,385.5 345.5,386C 346.333,386.833 347.167,387.667 348,388.5C 348.667,405.167 348.667,421.833 348,438.5C 347.626,439.416 347.126,440.25 346.5,441C 336.241,442.592 325.907,442.926 315.5,442C 314.234,441.691 313.067,441.191 312,440.5C 310.362,423.258 310.029,405.925 311,388.5C 312.045,387.627 312.878,386.627 313.5,385.5 Z M 61.5,402.5 C 68.8409,402.334 76.1742,402.5 83.5,403C 85.3333,403.5 86.5,404.667 87,406.5C 87.6667,418.833 87.6667,431.167 87,443.5C 85.8906,445.815 84.0573,447.315 81.5,448C 75.5,448.667 69.5,448.667 63.5,448C 60.9427,447.315 59.1094,445.815 58,443.5C 57.3333,431.167 57.3333,418.833 58,406.5C 59.3756,405.295 60.5423,403.962 61.5,402.5 Z M 427.5,402.5 C 434.841,402.334 442.174,402.5 449.5,403C 450.667,404.167 451.833,405.333 453,406.5C 453.667,418.833 453.667,431.167 453,443.5C 451.891,445.815 450.057,447.315 447.5,448C 441.5,448.667 435.5,448.667 429.5,448C 426.943,447.315 425.109,445.815 424,443.5C 423.333,431.167 423.333,418.833 424,406.5C 424.69,404.65 425.856,403.316 427.5,402.5 Z"/></g>
<g><path style="opacity:0.97" fill="#000000" d="M 23.5,164.5 C 54.5,164.5 85.5,164.5 116.5,164.5C 116.5,179.833 116.5,195.167 116.5,210.5C 85.4982,210.667 54.4982,210.5 23.5,210C 21.508,209.426 20.008,208.259 19,206.5C 18.3333,193.833 18.3333,181.167 19,168.5C 20.3968,166.93 21.8968,165.596 23.5,164.5 Z"/></g>
<g><path style="opacity:0.97" fill="#000000" d="M 394.5,164.5 C 425.502,164.333 456.502,164.5 487.5,165C 489.286,165.785 490.786,166.951 492,168.5C 492.667,181.167 492.667,193.833 492,206.5C 490.992,208.259 489.492,209.426 487.5,210C 456.502,210.5 425.502,210.667 394.5,210.5C 394.5,195.167 394.5,179.833 394.5,164.5 Z"/></g>
</svg>
