<?xml version="1.0" encoding="UTF-8"?>
<!DOCTYPE svg PUBLIC "-//W3C//DTD SVG 1.1//EN" "http://www.w3.org/Graphics/SVG/1.1/DTD/svg11.dtd">
<svg xmlns="http://www.w3.org/2000/svg" version="1.1" width="512px" height="512px" style="shape-rendering:geometricPrecision; text-rendering:geometricPrecision; image-rendering:optimizeQuality; fill-rule:evenodd; clip-rule:evenodd" xmlns:xlink="http://www.w3.org/1999/xlink">
<g><path style="opacity:0.963" fill="#000000" d="M 511.5,253.5 C 511.5,257.5 511.5,261.5 511.5,265.5C 505.21,275.195 496.876,277.362 486.5,272C 481,266.5 475.5,261 470,255.5C 469.667,314.833 469.333,374.167 469,433.5C 462.469,466.365 442.636,485.198 409.5,490C 306.833,490.667 204.167,490.667 101.5,490C 68.3643,485.198 48.531,466.365 42,433.5C 41.6667,374.167 41.3333,314.833 41,255.5C 35.5,261 30,266.5 24.5,272C 14.1237,277.362 5.79033,275.195 -0.5,265.5C -0.5,261.5 -0.5,257.5 -0.5,253.5C 73.2735,179.561 147.607,106.061 222.5,33C 244.5,16.3333 266.5,16.3333 288.5,33C 363.42,106.088 437.753,179.588 511.5,253.5 Z M 252.5,51.5 C 259.027,51.4308 264.694,53.5975 269.5,58C 325.667,113.5 381.833,169 438,224.5C 438.667,293.167 438.667,361.833 438,430.5C 434.272,446.895 424.105,456.395 407.5,459C 306.167,459.667 204.833,459.667 103.5,459C 86.8948,456.395 76.7281,446.895 73,430.5C 72.3333,361.833 72.3333,293.167 73,224.5C 129.167,169 185.333,113.5 241.5,58C 244.651,54.8004 248.318,52.6337 252.5,51.5 Z M 240.5,211.5 C 250.167,211.5 259.833,211.5 269.5,211.5C 269.333,228.503 269.5,245.503 270,262.5C 271.5,269.333 275.667,273.5 282.5,275C 299.497,275.5 316.497,275.667 333.5,275.5C 333.5,285.167 333.5,294.833 333.5,304.5C 315.83,304.333 298.164,304.5 280.5,305C 274.843,306.783 271.343,310.616 270,316.5C 269.5,333.497 269.333,350.497 269.5,367.5C 259.833,367.5 250.167,367.5 240.5,367.5C 240.961,348.765 240.461,330.098 239,311.5C 236.736,308.567 233.902,306.4 230.5,305C 212.836,304.5 195.17,304.333 177.5,304.5C 177.5,294.833 177.5,285.167 177.5,275.5C 194.503,275.667 211.503,275.5 228.5,275C 234.159,274.004 237.993,270.838 240,265.5C 240.5,247.503 240.667,229.503 240.5,211.5 Z"/></g>
<g><path style="opacity:0.968" fill="#000000" d="M 219.5,181.5 C 244.232,181.029 268.898,181.529 293.5,183C 296.433,185.264 298.6,188.098 300,191.5C 300.5,209.164 300.667,226.83 300.5,244.5C 318.17,244.333 335.836,244.5 353.5,245C 359.66,247.487 363.16,251.987 364,258.5C 364.667,279.5 364.667,300.5 364,321.5C 362.833,329.333 358.333,333.833 350.5,335C 333.837,335.5 317.17,335.667 300.5,335.5C 300.667,352.837 300.5,370.17 300,387.5C 298.421,393.41 294.588,396.91 288.5,398C 266.167,398.667 243.833,398.667 221.5,398C 214.81,395.974 210.977,391.474 210,384.5C 209.5,368.17 209.333,351.837 209.5,335.5C 193.163,335.667 176.83,335.5 160.5,335C 153.526,334.023 149.026,330.19 147,323.5C 146.333,301.167 146.333,278.833 147,256.5C 148.09,250.412 151.59,246.579 157.5,245C 174.83,244.5 192.163,244.333 209.5,244.5C 209.333,227.83 209.5,211.163 210,194.5C 211.245,188.643 214.412,184.309 219.5,181.5 Z M 240.5,211.5 C 240.667,229.503 240.5,247.503 240,265.5C 237.993,270.838 234.159,274.004 228.5,275C 211.503,275.5 194.503,275.667 177.5,275.5C 177.5,285.167 177.5,294.833 177.5,304.5C 195.17,304.333 212.836,304.5 230.5,305C 233.902,306.4 236.736,308.567 239,311.5C 240.461,330.098 240.961,348.765 240.5,367.5C 250.167,367.5 259.833,367.5 269.5,367.5C 269.333,350.497 269.5,333.497 270,316.5C 271.343,310.616 274.843,306.783 280.5,305C 298.164,304.5 315.83,304.333 333.5,304.5C 333.5,294.833 333.5,285.167 333.5,275.5C 316.497,275.667 299.497,275.5 282.5,275C 275.667,273.5 271.5,269.333 270,262.5C 269.5,245.503 269.333,228.503 269.5,211.5C 259.833,211.5 250.167,211.5 240.5,211.5 Z"/></g>
</svg>
