<svg version="1.2" xmlns="http://www.w3.org/2000/svg" viewBox="0 0 1024 1024" width="360" height="360">
	<title>logo</title>
	<style>
		.s0 { fill: #ffb302;stroke: #ffffff;stroke-miterlimit:100;stroke-width: 16 } 
	</style>
	<path id="Capa 6" class="s0" d="m273 271.3c-28.5-13.5-78-36-75-85.5 28.5-156 514.5-91.5 618 22.5-22.5 36-67.5 54-81 66 7.5 36 46.5 420 31.5 444-24 36-90 57-148.5 20.7-30-29.7-37.5-346.2-24-434.7-40.5 12-130.5 4.5-175.5-9 10.5 76.3 30 415.5-3 454.5-30 30-105 33-141 3-31.5-49.5-43.5-406.5-1.5-481.5z"/>
</svg>