<svg version="1.1" id="Layer_1" xmlns="http://www.w3.org/2000/svg" xmlns:xlink="http://www.w3.org/1999/xlink" x="0px" y="0px"
	 width="100%" viewBox="0 0 404 325" enable-background="new 0 0 404 325" xml:space="preserve">
<path fill="none" opacity="1.000000" stroke="#000000" stroke-linecap="round" stroke-linejoin="round" stroke-width="3.000000"
	d="
M56.500000,158.500000 
	C62.321781,148.544678 61.713322,138.991455 54.475166,130.020035 
	C50.082340,124.575287 44.778873,125.271286 42.640999,132.044510 
	C40.190514,139.808151 37.415600,147.049667 31.643353,153.135956 
	C29.209814,155.701889 29.586861,160.201157 30.636871,163.455841 
	C34.504635,175.444641 38.487690,187.419006 43.515793,198.993134 
	C48.230289,209.845383 55.510445,218.444611 65.441681,225.087204 
	C75.635132,231.905167 83.428459,240.807358 87.072784,252.978210 
	C89.578751,261.347351 89.854698,270.025360 91.490334,278.501862 
	C92.042755,281.364655 92.268600,284.299530 93.500000,287.000000 
"/>
<path fill="none" opacity="1.000000" stroke="#000000" stroke-linecap="round" stroke-linejoin="round" stroke-width="3.000000"
	d="
M129.500000,147.000000 
	C131.387268,148.250488 130.880600,150.591156 130.821365,151.992447 
	C130.470383,160.295258 135.236664,166.569412 138.435211,173.529770 
	C143.076508,183.629623 149.126556,193.196671 151.871674,204.032516 
	C154.428009,214.123138 156.585342,224.286438 154.670425,235.030380 
	C153.027374,244.249023 155.074753,253.546646 157.603729,262.470612 
	C159.670242,269.762665 161.283447,277.137482 163.000000,284.500000 
"/>
<path fill="none" opacity="1.000000" stroke="#000000" stroke-linecap="round" stroke-linejoin="round" stroke-width="2.000000"
	d="
M220.500000,148.500000 
	C229.249954,158.002975 240.752258,161.336884 253.306503,162.399048 
	C246.048172,181.851212 239.011368,200.670868 232.004898,219.501816 
	C227.977875,230.325089 224.000000,241.166672 220.000000,252.000000 
"/>
<path fill="none" opacity="1.000000" stroke="#000000" stroke-linecap="round" stroke-linejoin="round" stroke-width="3.000000"
	d="
M291.500000,145.000000 
	C292.154327,149.106995 289.323181,152.080963 287.938385,155.474869 
	C277.718903,180.521301 267.294678,205.484177 257.044281,230.518127 
	C255.608643,234.024307 254.074234,237.045807 250.544006,239.076508 
	C244.056442,242.808380 237.936005,247.175888 231.470749,250.949890 
	C225.163986,254.631409 215.884628,253.809540 211.619080,248.405991 
	C203.614822,238.266235 192.182053,231.146881 186.147644,219.423996 
	C185.070190,217.330856 183.130325,217.171768 181.870010,215.604538 
	C178.129578,210.953293 178.396103,206.106720 180.015045,201.004776 
	C187.260391,178.171570 193.510529,155.051834 200.043488,132.012329 
	C202.098053,124.766617 204.666656,117.666664 206.999985,110.500000 
"/>
<path fill="none" opacity="1.000000" stroke="#000000" stroke-linecap="round" stroke-linejoin="round" stroke-width="2.000000"
	d="
M267.000000,158.000000 
	C266.624298,164.138260 263.491669,169.436417 261.359100,174.945450 
	C252.019547,199.072083 242.152023,222.994171 232.594086,247.037384 
	C232.381134,247.573044 231.184036,248.666672 232.500000,249.500000 
"/>
<path fill="none" opacity="1.000000" stroke="#000000" stroke-linecap="round" stroke-linejoin="round" stroke-width="3.000000"
	d="
M355.000000,87.000000 
	C347.892334,89.585182 340.598877,90.929497 332.998871,90.521248 
	C328.713898,90.291069 324.585968,91.856590 320.576447,92.818626 
	C317.075226,93.658699 313.454254,94.812057 309.998993,94.832993 
	C300.949738,94.887810 292.212128,97.902061 282.978119,96.663124 
	C274.324432,95.502037 269.500000,91.181053 269.500000,82.500000 
"/>
<path fill="none" opacity="1.000000" stroke="#000000" stroke-linecap="round" stroke-linejoin="round" stroke-width="3.000000"
	d="
M253.000000,72.500000 
	C250.396378,73.672279 248.596558,76.360825 248.725204,78.486374 
	C249.030701,83.533966 245.961670,83.929230 242.501282,84.507629 
	C233.664124,85.984749 224.857880,87.672234 215.990906,88.936256 
	C210.557022,89.710892 206.143814,92.523216 201.484451,94.970406 
	C199.177139,96.182243 200.215744,97.862762 200.500000,99.500000 
"/>
<path fill="none" opacity="1.000000" stroke="#000000" stroke-linecap="round" stroke-linejoin="round" stroke-width="3.000000"
	d="
M107.500000,109.500000 
	C103.132309,106.209549 98.515182,104.885841 93.510185,108.016281 
	C89.307739,110.644760 84.343536,108.830254 80.000618,110.501602 
	C69.852318,114.407127 58.800812,116.734756 52.000000,126.500000 
"/>
<path fill="none" opacity="1.000000" stroke="#000000" stroke-linecap="round" stroke-linejoin="round" stroke-width="3.000000"
	d="
M58.500000,171.500000 
	C67.315857,169.111572 75.809181,171.055847 83.964897,174.094223 
	C94.172890,177.897202 103.215118,183.785568 111.021271,191.478409 
	C111.694016,192.141373 112.666672,192.500000 113.500000,193.000000 
"/>
<path fill="none" opacity="1.000000" stroke="#000000" stroke-linecap="round" stroke-linejoin="round" stroke-width="2.000000"
	d="
M208.500000,109.999992 
	C224.166672,125.999992 239.833344,142.000000 255.500000,158.000000 
"/>
<path fill="none" opacity="1.000000" stroke="#000000" stroke-linecap="round" stroke-linejoin="round" stroke-width="2.000000"
	d="
M199.500000,100.000000 
	C193.382660,104.482193 186.628754,107.919205 179.955643,111.415321 
	C173.029160,115.044189 167.108246,120.496445 159.055939,122.256004 
	C156.854279,122.737106 155.333328,126.333321 153.499985,128.499985 
"/>
<path fill="none" opacity="1.000000" stroke="#000000" stroke-linecap="round" stroke-linejoin="round" stroke-width="3.000000"
	d="
M355.500000,36.000000 
	C344.892120,39.165604 333.934998,40.291576 322.994385,41.446812 
	C320.766876,41.682014 318.911682,42.381775 316.972290,43.449699 
	C309.207611,47.725357 300.869904,50.617847 292.541168,53.614433 
	C284.702209,56.434807 276.352539,57.450363 268.711121,60.914230 
	C266.719299,61.817120 264.201660,61.477303 262.009460,62.037006 
	C256.386322,63.472687 253.688446,66.103409 253.499985,70.000000 
	C253.288223,74.377754 256.797394,78.680557 261.997559,80.506912 
	C266.327118,82.027481 270.598602,82.710449 274.468445,79.462395 
	C275.277222,78.783554 276.012390,78.610008 276.994019,78.460640 
	C291.423645,76.265060 305.361389,71.819817 319.393921,68.099823 
	C327.572052,65.931816 335.255615,61.874222 343.980652,60.837196 
	C349.086792,60.230305 354.000000,58.000008 359.000000,56.500008 
"/>
<path fill="none" opacity="1.000000" stroke="#000000" stroke-linecap="round" stroke-linejoin="round" stroke-width="2.000000"
	d="
M274.500000,115.500000 
	C272.581451,126.383133 268.858063,131.288513 260.992279,131.900925 
	C254.305832,132.421539 248.010742,130.539627 242.500000,126.500000 
"/>
<path fill="none" opacity="1.000000" stroke="#000000" stroke-linecap="round" stroke-linejoin="round" stroke-width="2.000000"
	d="
M241.000000,103.500000 
	C243.166763,111.540131 248.838928,115.936722 256.512268,117.953377 
	C262.410675,119.503571 266.184845,118.561684 276.247681,114.000275 
	C275.445190,111.897354 276.693329,109.557823 275.500000,107.500000 
"/>
<path fill="none" opacity="1.000000" stroke="#000000" stroke-linecap="round" stroke-linejoin="round" stroke-width="2.000000"
	d="
M150.500000,135.500000 
	C149.315048,134.146301 148.278793,133.136398 146.459488,134.959579 
	C143.826096,137.598572 139.714691,138.579407 137.243118,140.773819 
	C132.283829,145.177002 125.417839,146.547897 121.322441,152.375214 
	C117.889885,157.259369 111.471687,158.788040 106.478752,161.966629 
	C101.757164,164.972473 101.671669,164.968735 106.000000,169.500000 
"/>
<path fill="none" opacity="1.000000" stroke="#000000" stroke-linecap="round" stroke-linejoin="round" stroke-width="2.000000"
	d="
M247.000000,99.500000 
	C246.759552,105.759193 251.804596,111.378174 259.006561,112.456154 
	C264.301117,113.248650 269.960327,114.459541 272.500000,107.500000 
	C276.971985,106.925674 278.697571,103.472885 280.565216,100.035431 
	C281.062531,99.120087 280.831787,98.333023 281.000000,97.500000 
"/>
<path fill="none" opacity="1.000000" stroke="#000000" stroke-linecap="round" stroke-linejoin="round" stroke-width="3.000000"
	d="
M241.500000,96.500000 
	C233.359177,94.746712 225.394302,97.132240 217.549988,98.327950 
	C212.439926,99.106888 209.936890,104.887154 207.500000,109.500000 
"/>
<path fill="none" opacity="1.000000" stroke="#000000" stroke-linecap="round" stroke-linejoin="round" stroke-width="2.000000"
	d="
M203.000000,102.000000 
	C194.341995,107.513641 185.871109,113.652733 176.796906,118.084122 
	C168.251526,122.257248 160.985596,129.538055 149.996826,129.462479 
	C144.848724,129.427063 139.239075,133.759659 134.639862,137.187653 
	C131.171310,139.772919 127.281227,142.424973 123.781830,144.021912 
	C118.627113,146.374252 114.088585,149.677170 108.325447,153.236710 
	C108.804802,145.823547 107.899261,139.654114 109.435593,133.483963 
	C109.968674,131.343033 110.860260,129.315704 112.984619,129.610748 
	C119.500267,130.515732 122.661354,126.220779 125.996979,121.997612 
	C126.657692,121.161095 127.279594,120.293922 128.020264,119.306389 
	C126.360260,114.376274 122.869881,112.108658 117.496361,112.441162 
	C116.354691,112.511803 114.963669,112.115181 114.037407,111.448059 
	C111.054794,109.299873 108.311798,109.381798 104.948227,110.884087 
	C101.395615,112.470818 99.090797,114.020477 99.366478,118.508202 
	C99.586594,122.091232 98.137848,124.942810 94.067459,126.659912 
	C88.253403,129.112579 88.946495,130.923660 89.404465,136.008606 
	C89.625130,138.458710 89.291176,141.185669 88.373489,143.448700 
	C87.422424,145.794052 86.996918,148.058868 87.000000,150.500000 
"/>
<path fill="none" opacity="1.000000" stroke="#000000" stroke-linecap="round" stroke-linejoin="round" stroke-width="2.000000"
	d="
M212.500000,105.999992 
	C222.000000,115.666664 231.500000,125.333328 241.000000,135.000000 
"/>
<path fill="none" opacity="1.000000" stroke="#000000" stroke-linecap="round" stroke-linejoin="round" stroke-width="2.000000"
	d="
M206.000000,117.500000 
	C208.367294,122.064171 208.385040,127.289955 210.294296,132.081955 
	C212.398697,137.363708 215.152939,142.042053 218.500000,146.500000 
"/>
<path fill="none" opacity="1.000000" stroke="#000000" stroke-linecap="round" stroke-linejoin="round" stroke-width="3.000000"
	d="
M246.500000,96.000000 
	C250.655975,103.809044 257.165283,107.762878 265.999207,108.026688 
	C267.831482,108.081406 269.743988,107.482674 271.500000,108.500000 
"/>
<path fill="none" opacity="1.000000" stroke="#000000" stroke-linecap="round" stroke-linejoin="round" stroke-width="2.000000"
	d="
M293.000000,139.000000 
	C288.744751,139.080673 286.046722,142.452301 282.576233,144.155350 
	C276.959656,146.911499 271.833344,150.666656 266.500000,154.000000 
"/>
<path fill="none" opacity="1.000000" stroke="#000000" stroke-linecap="round" stroke-linejoin="round" stroke-width="4.000000"
	d="
M276.500000,114.000008 
	C282.694641,120.805359 288.889282,127.610703 295.083954,134.416046 
	C295.554443,136.447388 293.208374,138.785843 293.410187,142.005630 
	C293.466888,142.910110 292.727020,144.023529 291.509155,144.522369 
	C284.335480,147.460846 278.176910,152.185181 271.484100,155.971878 
	C269.646118,157.011795 267.894653,158.339218 265.450989,156.567612 
	C261.999573,154.065414 259.572205,158.158264 256.500000,158.500000 
"/>
<path fill="none" opacity="1.000000" stroke="#000000" stroke-linecap="round" stroke-linejoin="round" stroke-width="2.000000"
	d="
M252.000000,90.000000 
	C258.339325,95.905678 265.562073,99.441780 274.503479,98.534325 
	C275.505219,98.432655 276.408386,98.437599 277.000000,97.500000 
"/>
<path fill="none" opacity="1.000000" stroke="#000000" stroke-linecap="round" stroke-linejoin="round" stroke-width="2.000000"
	d="
M107.500000,153.000000 
	C104.113899,156.052444 100.005936,158.198212 96.605095,161.122238 
	C92.576721,164.585800 88.159958,167.166214 83.500000,169.500000 
"/>
<path fill="none" opacity="1.000000" stroke="#000000" stroke-linecap="round" stroke-linejoin="round" stroke-width="2.000000"
	d="
M269.000000,61.500000 
	C270.857910,63.492981 273.589233,65.281883 270.988251,68.490471 
	C268.433441,71.642067 261.987823,73.069870 259.529449,70.965576 
	C258.197449,69.825417 257.166656,68.333336 256.000000,67.000000 
"/>
<path fill="none" opacity="1.000000" stroke="#000000" stroke-linecap="round" stroke-linejoin="round" stroke-width="3.000000"
	d="
M114.500000,112.500000 
	C113.461769,116.990822 110.789474,120.438148 107.502487,123.502670 
	C104.577278,126.229889 101.382484,126.216949 98.000000,124.500000 
"/>
<path fill="none" opacity="1.000000" stroke="#000000" stroke-linecap="round" stroke-linejoin="round" stroke-width="2.000000"
	d="
M239.500000,103.000000 
	C235.044632,109.833336 235.036453,116.666664 239.500000,123.500000 
"/>
<path fill="none" opacity="1.000000" stroke="#000000" stroke-linecap="round" stroke-linejoin="round" stroke-width="2.000000"
	d="
M286.000000,79.500000 
	C289.156830,81.922318 286.968170,84.115211 285.435913,85.946373 
	C283.743347,87.969131 278.168579,88.206451 276.040985,86.450348 
	C274.597382,85.258812 272.913635,84.085686 272.500000,82.000000 
"/>
<path fill="none" opacity="1.000000" stroke="#000000" stroke-linecap="round" stroke-linejoin="round" stroke-width="2.000000"
	d="
M242.000000,136.000000 
	C247.666656,141.833344 253.333328,147.666672 259.000000,153.500000 
"/>
<path fill="none" opacity="1.000000" stroke="#000000" stroke-linecap="round" stroke-linejoin="round" stroke-width="3.000000"
	d="
M89.500000,129.000000 
	C86.134689,128.024612 83.834976,129.016235 80.821899,131.260941 
	C75.569839,135.173660 72.734108,139.370575 72.852509,146.002640 
	C72.902809,148.820190 71.333336,151.666672 70.500000,154.500000 
"/>
<path fill="none" opacity="1.000000" stroke="#000000" stroke-linecap="round" stroke-linejoin="round" stroke-width="3.000000"
	d="
M128.500000,119.500000 
	C133.542496,120.796730 135.560074,124.950516 132.375046,128.899200 
	C129.686188,132.232742 129.264954,135.647125 129.500000,139.500000 
"/>
<path fill="none" opacity="1.000000" stroke="#000000" stroke-linecap="round" stroke-linejoin="round" stroke-width="2.000000"
	d="
M104.000000,168.500000 
	C101.623001,168.527664 99.198112,168.220093 96.516075,170.178787 
	C95.801239,171.303207 96.682198,172.898453 97.500000,174.500000 
"/>
<path fill="none" opacity="1.000000" stroke="#000000" stroke-linecap="round" stroke-linejoin="round" stroke-width="2.000000"
	d="
M46.000000,130.500000 
	C46.894627,137.113846 45.857430,139.188232 41.000000,140.500000 
"/>
<path fill="none" opacity="1.000000" stroke="#000000" stroke-linecap="round" stroke-linejoin="round" stroke-width="3.000000"
	d="
M52.500000,157.500000 
	C58.265934,158.343994 59.825947,163.045639 61.388031,167.538925 
	C61.695488,168.423294 62.587128,168.998474 62.500000,170.000000 
"/>
<path fill="none" opacity="1.000000" stroke="#000000" stroke-linecap="round" stroke-linejoin="round" stroke-width="2.000000"
	d="
M335.500000,63.000000 
	C336.651154,66.456810 339.306946,69.483734 338.500000,73.500000 
"/>
<path fill="none" opacity="1.000000" stroke="#000000" stroke-linecap="round" stroke-linejoin="round" stroke-width="2.000000"
	d="
M322.500000,42.000000 
	C323.433685,45.449139 325.002411,48.777317 324.500000,52.500000 
"/>
<path fill="none" opacity="1.000000" stroke="#000000" stroke-linecap="round" stroke-linejoin="round" stroke-width="2.000000"
	d="
M300.000000,73.500000 
	C300.536194,76.159882 301.667816,78.708115 301.500000,81.500000 
"/>
<path fill="none" opacity="1.000000" stroke="#000000" stroke-linecap="round" stroke-linejoin="round" stroke-width="2.000000"
	d="
M201.500000,100.000000 
	C203.609085,104.852165 207.822037,101.709610 211.000000,102.500000 
"/>
<path fill="none" opacity="1.000000" stroke="#000000" stroke-linecap="round" stroke-linejoin="round" stroke-width="2.000000"
	d="
M316.000000,45.000000 
	C317.449188,47.014538 317.292358,49.893860 319.500000,51.500000 
"/>
<path fill="none" opacity="1.000000" stroke="#000000" stroke-linecap="round" stroke-linejoin="round" stroke-width="3.000000"
	d="
M249.000000,84.000000 
	C251.624329,86.645943 251.759735,89.668846 250.531937,93.011726 
	C249.973679,94.531654 248.521774,95.550644 247.519684,95.382622 
	C241.579208,94.386543 241.098526,98.431862 240.500000,102.500000 
"/>
<path fill="none" opacity="1.000000" stroke="#000000" stroke-linecap="round" stroke-linejoin="round" stroke-width="2.000000"
	d="
M286.000000,57.000000 
	C287.321106,58.977180 286.644928,61.415272 287.500000,63.500000 
"/>
<path fill="none" opacity="1.000000" stroke="#000000" stroke-linecap="round" stroke-linejoin="round" stroke-width="2.000000"
	d="
M108.500000,133.000000 
	C106.500000,133.166672 104.500000,133.333328 102.500000,133.500000 
"/>
<path fill="none" opacity="1.000000" stroke="#000000" stroke-linecap="round" stroke-linejoin="round" stroke-width="2.000000"
	d="
M91.500000,151.500000 
	C88.042175,150.106461 85.118492,151.116562 82.500000,153.500000 
"/>
<path fill="none" opacity="1.000000" stroke="#000000" stroke-linecap="round" stroke-linejoin="round" stroke-width="2.000000"
	d="
M73.000000,137.500000 
	C71.500000,137.500000 70.000000,137.500000 68.500000,137.500000 
"/>
<path fill="none" opacity="1.000000" stroke="#000000" stroke-linecap="round" stroke-linejoin="round" stroke-width="2.000000"
	d="
M129.000000,133.500000 
	C127.833336,133.500000 126.666664,133.500000 125.500000,133.500000 
"/>
<path fill="none" opacity="1.000000" stroke="#000000" stroke-linecap="round" stroke-linejoin="round" stroke-width="2.000000"
	d="
M69.500000,155.000000 
	C68.407829,155.722733 66.766914,155.786957 66.500000,157.500000 
"/>
</svg>