<svg version="1.1" id="Layer_1" xmlns="http://www.w3.org/2000/svg" xmlns:xlink="http://www.w3.org/1999/xlink" x="0px" y="0px"
	 width="100%" viewBox="0 0 390 231" enable-background="new 0 0 390 231" xml:space="preserve">
<path fill="none" opacity="1.000000" stroke="#000000" stroke-linecap="round" stroke-linejoin="round" stroke-width="3.000000"
	d="
M136.500000,177.000000 
	C144.619720,176.995560 151.841278,172.646698 159.996475,172.388672 
	C168.953857,172.105240 177.792542,173.159012 186.450623,174.766006 
	C191.319046,175.669632 195.524506,175.912308 200.012680,174.030258 
	C204.290207,172.236572 208.048538,170.233231 210.111816,165.549255 
	C211.930099,161.421478 215.506012,158.785492 219.989365,157.463928 
	C223.366776,156.468338 224.661865,157.777664 224.486206,160.999252 
	C224.204315,166.168732 223.897202,171.338501 223.479080,176.498306 
	C223.165283,180.370712 221.062195,183.634476 217.928223,185.370407 
	C212.612381,188.314911 208.170929,192.316971 203.576614,196.093201 
	C199.652435,199.318634 195.385040,201.196503 190.495575,201.385452 
	C188.349457,201.468369 187.219955,202.962296 185.501160,203.503693 
	C180.090393,205.208038 174.761948,206.968079 169.015915,207.636795 
	C161.935822,208.460754 156.710403,212.898941 152.500000,218.500000 
"/>
<path fill="none" opacity="1.000000" stroke="#000000" stroke-linecap="round" stroke-linejoin="round" stroke-width="2.000000"
	d="
M223.000000,67.000000 
	C224.769501,66.463524 225.008987,65.071144 225.005615,63.499989 
	C224.992035,57.166683 225.001709,50.833332 224.998779,44.500000 
	C224.998062,42.957478 225.253342,41.259998 222.408737,41.337502 
	C221.028107,41.781372 221.351196,43.534809 221.537277,44.995251 
	C222.491714,52.486214 220.225418,59.928246 221.578232,67.574623 
	C221.986099,69.880035 221.217865,74.947609 216.080246,76.731140 
	C209.744476,78.930611 203.912094,82.680046 198.030441,86.053085 
	C194.011215,88.358047 189.708481,88.424690 185.510132,87.916344 
	C169.318497,85.955841 153.167587,83.659790 136.997757,81.516914 
	C136.015015,81.386681 135.000000,81.500000 134.000000,81.500000 
"/>
<path fill="none" opacity="1.000000" stroke="#000000" stroke-linecap="round" stroke-linejoin="round" stroke-width="3.000000"
	d="
M163.000000,119.000000 
	C163.256927,123.716606 162.204224,127.754547 159.773178,132.151047 
	C156.251144,138.520615 153.940186,145.669632 152.402206,152.979416 
	C151.451889,157.496094 148.274551,160.825272 144.507172,163.510056 
	C139.363464,167.175598 133.567383,169.621872 128.004822,172.509277 
	C121.882225,175.687363 115.752762,178.988495 112.572296,185.535126 
	C111.299538,188.154968 110.887390,191.183929 109.989555,193.996658 
	C107.599167,201.485168 102.900749,207.657089 98.515251,214.010529 
	C97.413361,215.606873 96.500000,217.333328 95.500000,219.000000 
"/>
<path fill="none" opacity="1.000000" stroke="#000000" stroke-linecap="round" stroke-linejoin="round" stroke-width="3.000000"
	d="
M193.500000,13.500000 
	C192.698730,15.103207 193.013596,16.825542 193.011734,18.500013 
	C192.992584,35.666660 193.033798,52.833443 192.977112,69.999924 
	C192.962265,74.500427 192.666672,79.000000 192.500000,83.500000 
"/>
<path fill="none" opacity="1.000000" stroke="#000000" stroke-linecap="round" stroke-linejoin="round" stroke-width="3.000000"
	d="
M130.500000,10.499999 
	C130.666672,11.333333 130.999878,12.171558 130.975555,12.999281 
	C130.416946,32.016418 131.978287,50.993908 132.050949,69.999802 
	C132.061432,72.740021 131.996338,75.313896 133.574738,78.230171 
	C134.633957,80.187187 134.049835,84.333046 134.006821,87.500092 
	C133.972870,89.999634 133.895828,92.505379 134.024475,94.998741 
	C134.216339,98.717415 135.780792,100.666145 139.986694,101.122612 
	C150.360626,102.248474 160.694016,103.838097 170.987091,105.576447 
	C175.352707,106.313721 180.048111,105.847061 184.000000,108.500000 
"/>
<path fill="none" opacity="1.000000" stroke="#000000" stroke-linecap="round" stroke-linejoin="round" stroke-width="3.000000"
	d="
M135.000000,78.000000 
	C142.004517,78.968376 149.018631,80.001823 156.022308,80.805679 
	C162.666031,81.568222 169.314636,82.680244 176.003525,82.884514 
	C178.609970,82.964119 180.983597,83.784515 183.484741,84.115326 
	C192.664017,85.329437 200.220779,81.117569 207.997498,77.494637 
	C211.788559,75.728493 215.360596,73.462708 219.500000,72.500000 
"/>
<path fill="none" opacity="1.000000" stroke="#000000" stroke-linecap="round" stroke-linejoin="round" stroke-width="3.000000"
	d="
M205.000000,170.500000 
	C204.641632,164.338516 205.397369,158.160614 204.530014,151.995773 
	C203.406921,144.013092 202.160889,136.022476 201.628738,127.991470 
	C201.315643,123.266327 198.701920,122.336815 195.000000,122.000000 
"/>
<path fill="none" opacity="1.000000" stroke="#000000" stroke-linecap="round" stroke-linejoin="round" stroke-width="3.000000"
	d="
M223.000000,69.500000 
	C224.901352,75.955521 224.097748,82.487099 223.475647,88.997673 
	C223.185013,92.039185 220.985687,93.546410 218.531952,95.052063 
	C211.075287,99.627579 202.958954,103.098267 196.000000,108.500000 
"/>
<path fill="none" opacity="1.000000" stroke="#000000" stroke-linecap="round" stroke-linejoin="round" stroke-width="2.000000"
	d="
M170.000000,126.500000 
	C167.426788,133.121155 168.043594,140.174332 167.665451,147.009155 
	C167.206085,155.312027 165.505692,163.633453 167.000000,172.000000 
"/>
<path fill="none" opacity="1.000000" stroke="#000000" stroke-linecap="round" stroke-linejoin="round" stroke-width="3.000000"
	d="
M163.000000,129.500000 
	C164.522858,131.663406 163.963806,134.138260 163.980743,136.500137 
	C164.033340,143.833084 164.124985,151.169952 163.932663,158.498230 
	C163.864761,161.085678 164.228516,164.738998 159.500000,163.500000 
"/>
<path fill="none" opacity="1.000000" stroke="#000000" stroke-linecap="round" stroke-linejoin="round" stroke-width="4.000000"
	d="
M223.000000,12.500000 
	C222.021896,14.775373 222.366150,17.197182 222.561661,19.494753 
	C223.172699,26.675707 221.045685,33.833332 222.500000,41.000000 
"/>
<path fill="none" opacity="1.000000" stroke="#000000" stroke-linecap="round" stroke-linejoin="round" stroke-width="3.000000"
	d="
M226.500000,13.500000 
	C226.333344,21.666666 226.108826,29.832928 226.051575,38.000362 
	C226.040863,39.528755 225.660629,40.616459 224.500000,41.500000 
"/>
<path fill="none" opacity="1.000000" stroke="#000000" stroke-linecap="round" stroke-linejoin="round" stroke-width="4.000000"
	d="
M186.000000,110.000000 
	C187.333328,109.833328 188.707916,109.819557 189.992706,109.472939 
	C194.962402,108.132179 196.080627,108.746666 195.433258,113.490891 
	C194.480835,120.470612 194.631287,127.755295 190.550766,134.033005 
	C190.169983,134.618820 190.438171,135.672012 190.509674,136.499161 
	C191.147644,143.878830 189.479034,151.139847 189.335419,158.496780 
	C189.256958,162.514786 187.523376,166.506485 186.420822,170.478027 
	C186.373123,170.649857 185.166672,170.500000 184.500000,170.500000 
"/>
<path fill="none" opacity="1.000000" stroke="#000000" stroke-linecap="round" stroke-linejoin="round" stroke-width="3.000000"
	d="
M179.500000,132.500000 
	C178.506042,142.651154 175.900284,152.422531 172.475189,161.991119 
	C171.978271,163.379349 171.471390,164.971390 169.500000,165.000000 
"/>
<path fill="none" opacity="1.000000" stroke="#000000" stroke-linecap="round" stroke-linejoin="round" stroke-width="4.000000"
	d="
M171.500000,120.000000 
	C171.500000,123.175301 171.500000,126.350601 171.500000,129.628418 
	C176.973206,130.633957 181.791000,132.582855 186.999527,132.476471 
	C188.344681,132.449005 188.965317,133.569366 190.000000,134.000000 
"/>
<path fill="none" opacity="1.000000" stroke="#000000" stroke-linecap="round" stroke-linejoin="round" stroke-width="2.000000"
	d="
M184.500000,109.500000 
	C187.179596,111.000000 186.160583,112.717377 184.469543,113.958504 
	C179.743835,117.426910 174.757996,120.255302 168.496292,118.513359 
	C167.201248,118.153084 165.822617,118.309830 164.482574,118.129463 
	C158.667831,117.346779 156.582077,115.464127 156.504135,109.999939 
	C156.477997,108.166977 156.500000,106.333336 156.500000,104.500000 
"/>
<path fill="none" opacity="1.000000" stroke="#000000" stroke-linecap="round" stroke-linejoin="round" stroke-width="2.000000"
	d="
M163.000000,164.000000 
	C163.333328,166.666672 163.666672,169.333328 164.000000,172.000000 
"/>
</svg>