<svg version="1.1" id="Layer_1" xmlns="http://www.w3.org/2000/svg" xmlns:xlink="http://www.w3.org/1999/xlink" x="0px" y="0px"
	 width="100%" viewBox="0 0 389 234" enable-background="new 0 0 389 234" xml:space="preserve">
<path fill="none" opacity="1.000000" stroke="#000000" stroke-linecap="round" stroke-linejoin="round" stroke-width="3.000000"
	d="
M272.000000,122.500000 
	C276.689026,122.479576 281.394592,122.690796 286.313080,121.651772 
	C285.977295,110.741714 284.730408,100.069763 282.872925,89.522377 
	C281.725037,83.004219 283.401825,76.522720 281.658691,69.957863 
	C278.893463,59.543438 278.892090,48.616219 277.331482,37.951492 
	C276.497009,32.248844 277.388824,26.001541 277.525940,19.442938 
	C272.482635,19.645863 267.467102,20.299526 262.514404,20.685169 
	C256.662140,21.140860 250.914536,22.933538 245.488342,25.475124 
	C241.778549,27.212761 237.819336,26.196911 234.002899,25.954287 
	C211.181366,24.503448 188.298111,25.912302 165.511093,24.777172 
	C144.486893,23.729853 123.492538,24.634222 102.503273,23.905714 
	C96.843567,23.709270 91.198936,22.881609 85.499542,22.970531 
	C82.219879,23.021700 80.377533,24.122890 78.871300,27.441589 
	C72.312378,41.893013 67.094940,56.873581 60.966301,71.485870 
	C52.919491,90.671593 46.537083,110.507233 38.054363,129.524246 
	C35.372925,135.535645 33.333336,141.833328 31.000002,148.000000 
"/>
<path fill="none" opacity="1.000000" stroke="#000000" stroke-linecap="round" stroke-linejoin="round" stroke-width="2.000000"
	d="
M169.000000,101.000000 
	C162.333328,100.500000 155.661942,99.533409 149.001022,99.601028 
	C136.664108,99.726288 124.393692,97.391769 111.984970,99.407494 
	C95.881935,102.023323 82.782784,109.521027 72.527969,122.022942 
	C64.116142,132.278030 57.409466,143.680481 51.563084,155.531128 
	C45.389114,168.045822 41.950459,181.543076 38.502880,195.000732 
	C37.650215,198.329117 36.833328,201.666672 35.999996,205.000000 
"/>
<path fill="none" opacity="1.000000" stroke="#000000" stroke-linecap="round" stroke-linejoin="round" stroke-width="2.000000"
	d="
M232.500000,169.500000 
	C228.752029,168.003296 228.743927,163.396210 225.114517,161.301575 
	C219.413147,158.011185 213.596710,157.254868 208.088333,159.699081 
	C202.142090,162.337585 198.435104,167.510757 197.978409,174.498596 
	C197.238663,185.817505 202.125748,190.944717 208.545715,193.379456 
	C219.501373,197.534332 229.461288,191.767944 232.000000,179.500000 
"/>
<path fill="none" opacity="1.000000" stroke="#000000" stroke-linecap="round" stroke-linejoin="round" stroke-width="2.000000"
	d="
M178.000000,55.000000 
	C178.731735,58.205292 177.131516,61.026474 176.485077,63.996754 
	C173.031052,79.867142 170.428207,95.873993 168.469864,111.996338 
	C167.620956,118.985046 166.735962,125.925606 167.457794,133.004303 
	C168.160568,139.896088 171.344177,145.294266 177.042007,148.934235 
	C183.104645,152.807236 191.979507,146.872162 192.975037,138.497040 
	C193.150864,137.017929 193.237762,135.454956 192.963409,134.006927 
	C190.034378,118.546989 195.126099,103.905205 197.556976,89.009300 
	C198.545319,82.952995 200.300003,77.024780 201.422119,70.985535 
	C201.778107,69.069611 202.124237,67.230850 203.000000,65.500000 
"/>
<path fill="none" opacity="1.000000" stroke="#000000" stroke-linecap="round" stroke-linejoin="round" stroke-width="3.000000"
	d="
M221.500000,37.000000 
	C221.310043,39.907578 224.123550,40.045483 225.534378,40.328831 
	C228.935989,41.012012 231.831879,43.034962 232.739334,45.592491 
	C233.918045,48.914486 236.262070,48.891956 238.512329,49.450321 
	C244.475983,50.930111 250.570236,51.921329 256.468567,53.609806 
	C259.170685,54.383324 261.496948,56.011089 263.113586,58.937244 
	C267.497833,66.872833 270.487885,75.416451 274.437714,83.530319 
	C274.896851,84.473480 274.437836,85.837311 274.512146,86.999222 
	C274.704865,90.013145 273.981720,93.000984 275.336273,96.072212 
	C276.034607,97.655602 275.965088,100.033028 275.014557,102.007004 
	C270.895966,110.559875 271.890961,119.982620 270.523743,129.003601 
	C269.909393,133.057175 269.608154,137.244919 267.911469,140.959564 
	C265.968048,145.214340 265.621979,148.957230 267.368103,153.550140 
	C272.520325,167.102249 275.140564,181.483246 280.475525,195.009659 
	C283.280640,202.121719 285.833344,209.333328 288.500000,216.500000 
"/>
<path fill="none" opacity="1.000000" stroke="#000000" stroke-linecap="round" stroke-linejoin="round" stroke-width="2.000000"
	d="
M157.000000,56.500000 
	C160.031189,60.281712 163.469208,60.037159 167.538681,58.080441 
	C171.175919,56.331539 175.142258,55.267033 179.113174,53.846985 
	C179.419403,52.350643 179.760223,50.685204 180.176071,48.653179 
	C176.432892,47.757286 173.006226,47.284805 169.461395,49.436409 
	C166.995178,50.933334 164.260162,52.186977 161.479401,52.922096 
	C156.572006,54.219410 154.339661,58.029350 152.648788,62.062378 
	C151.893768,63.863174 151.211014,66.317429 152.930283,68.553596 
	C154.125763,70.108498 154.832672,72.110863 155.470993,74.009750 
	C158.101212,81.834038 159.958176,83.143410 168.000641,83.078629 
	C169.162735,83.069267 170.333328,81.598930 171.500000,83.000000 
"/>
<path fill="none" opacity="1.000000" stroke="#000000" stroke-linecap="round" stroke-linejoin="round" stroke-width="3.000000"
	d="
M219.000000,120.500000 
	C222.701477,135.636993 230.421707,149.639297 232.687103,165.046005 
	C233.894730,173.258911 235.181747,181.624039 235.464508,190.001190 
	C235.785004,199.496002 235.833328,209.000000 236.000000,218.500000 
"/>
<path fill="none" opacity="1.000000" stroke="#000000" stroke-linecap="round" stroke-linejoin="round" stroke-width="2.000000"
	d="
M217.000000,39.500000 
	C215.833328,38.333332 214.508118,37.286098 213.525116,35.981083 
	C205.712189,25.608940 191.278595,26.687071 184.406982,37.943218 
	C182.531311,41.015732 182.046585,44.592243 180.000000,47.500000 
"/>
<path fill="none" opacity="1.000000" stroke="#000000" stroke-linecap="round" stroke-linejoin="round" stroke-width="3.000000"
	d="
M279.000000,26.500000 
	C293.500000,26.666666 308.000000,26.833334 322.500000,27.000000 
"/>
<path fill="none" opacity="1.000000" stroke="#000000" stroke-linecap="round" stroke-linejoin="round" stroke-width="2.000000"
	d="
M323.500000,116.500000 
	C314.275543,110.285820 303.572662,109.351219 292.995239,108.038284 
	C290.861481,107.773430 288.666656,108.000000 286.500000,108.000000 
"/>
<path fill="none" opacity="1.000000" stroke="#000000" stroke-linecap="round" stroke-linejoin="round" stroke-width="3.000000"
	d="
M215.500000,57.000000 
	C215.275818,53.775814 217.425659,52.777702 220.002838,52.529484 
	C229.174866,51.646107 237.853119,52.077690 244.561096,59.947922 
	C249.755203,66.041977 255.500000,71.666664 261.000000,77.500000 
"/>
<path fill="none" opacity="1.000000" stroke="#000000" stroke-linecap="round" stroke-linejoin="round" stroke-width="3.000000"
	d="
M227.000000,66.500000 
	C225.541504,68.166664 226.461441,69.824913 226.995178,71.501534 
	C228.775238,77.093384 231.134659,82.519714 231.572937,88.494652 
	C231.640640,89.417702 232.679489,90.269516 233.846329,92.020035 
	C235.233765,87.645424 236.475616,84.102638 237.469284,80.491547 
	C238.453232,76.915733 236.678162,73.985947 234.438446,71.556755 
	C232.444550,69.394203 232.712036,64.405029 227.435364,65.745605 
	C226.859665,65.891869 224.251694,63.824253 223.072235,62.438522 
	C219.975342,58.800102 216.052765,57.329056 211.500000,57.000000 
"/>
<path fill="none" opacity="1.000000" stroke="#000000" stroke-linecap="round" stroke-linejoin="round" stroke-width="4.000000"
	d="
M216.000000,61.500000 
	C214.998962,65.548653 216.941483,69.431122 216.601593,73.508469 
	C216.285339,77.302444 216.399612,81.154716 216.908585,85.012062 
	C217.495377,89.459160 218.609604,93.834541 217.656219,98.531708 
	C216.897263,102.270935 217.904663,106.180801 218.823120,110.042076 
	C219.637527,113.465973 221.791443,117.613983 216.119476,120.256439 
	C213.542160,121.457153 210.615021,125.087578 213.541855,128.968430 
	C215.428391,131.469879 214.264069,133.865295 213.372040,135.945129 
	C212.447021,138.101929 211.196045,140.034683 211.500000,142.500000 
"/>
<path fill="none" opacity="1.000000" stroke="#000000" stroke-linecap="round" stroke-linejoin="round" stroke-width="2.000000"
	d="
M239.500000,27.000000 
	C235.259460,30.489052 229.716507,31.072205 224.883606,33.240589 
	C222.457718,34.329021 220.876007,35.646194 219.530487,37.521873 
	C215.265228,43.467686 212.778900,50.311089 210.281448,57.092896 
	C208.831268,56.673771 207.665634,56.336884 206.500000,55.999996 
"/>
<path fill="none" opacity="1.000000" stroke="#000000" stroke-linecap="round" stroke-linejoin="round" stroke-width="3.000000"
	d="
M193.000000,120.000000 
	C200.333328,120.166672 207.666672,120.333336 215.000000,120.500000 
"/>
<path fill="none" opacity="1.000000" stroke="#000000" stroke-linecap="round" stroke-linejoin="round" stroke-width="2.000000"
	d="
M164.500000,73.500000 
	C165.675537,71.758385 165.467392,69.696861 164.888718,68.038841 
	C164.159485,65.949448 162.978134,63.300224 160.022079,64.083321 
	C157.074203,64.864243 157.374847,67.677376 157.569794,69.994125 
	C157.656891,71.028877 158.500000,72.000000 159.000000,73.000000 
"/>
<path fill="none" opacity="1.000000" stroke="#000000" stroke-linecap="round" stroke-linejoin="round" stroke-width="2.000000"
	d="
M209.500000,47.500000 
	C206.584610,52.705051 204.807861,58.358654 202.968246,64.099403 
	C206.500000,67.157852 210.000000,61.097939 213.500000,64.000000 
"/>
<path fill="none" opacity="1.000000" stroke="#000000" stroke-linecap="round" stroke-linejoin="round" stroke-width="2.000000"
	d="
M194.000000,134.500000 
	C200.438507,135.591553 205.196381,139.425201 209.498505,144.002441 
	C214.368195,142.635620 217.115524,138.089951 221.500000,136.000000 
"/>
<path fill="none" opacity="1.000000" stroke="#000000" stroke-linecap="round" stroke-linejoin="round" stroke-width="2.000000"
	d="
M276.500000,38.000000 
	C264.928741,38.692879 253.588150,40.395542 242.979874,45.457836 
	C242.301117,45.781742 241.333328,45.500000 240.500000,45.500000 
"/>
<path fill="none" opacity="1.000000" stroke="#000000" stroke-linecap="round" stroke-linejoin="round" stroke-width="2.000000"
	d="
M263.500000,40.000000 
	C264.224487,42.765827 262.569916,44.664532 260.974457,46.477535 
	C259.158264,48.541405 256.861420,50.213902 256.000000,53.000000 
"/>
<path fill="none" opacity="1.000000" stroke="#000000" stroke-linecap="round" stroke-linejoin="round" stroke-width="2.000000"
	d="
M166.000000,59.500000 
	C169.067444,62.916340 168.871918,67.692253 171.000000,71.500000 
"/>
<path fill="none" opacity="1.000000" stroke="#000000" stroke-linecap="round" stroke-linejoin="round" stroke-width="2.000000"
	d="
M213.000000,67.000000 
	C208.747757,71.473427 206.259277,77.174316 202.651230,82.110542 
	C201.658691,83.468430 200.397781,84.590004 199.500000,86.000000 
"/>
<path fill="none" opacity="1.000000" stroke="#000000" stroke-linecap="round" stroke-linejoin="round" stroke-width="2.000000"
	d="
M216.500000,109.000000 
	C214.527344,112.581131 212.787155,116.409271 208.000000,117.000000 
"/>
<path fill="none" opacity="1.000000" stroke="#000000" stroke-linecap="round" stroke-linejoin="round" stroke-width="2.000000"
	d="
M174.000000,71.500000 
	C168.376572,72.464211 166.943756,74.470169 166.500000,82.000000 
"/>
<path fill="none" opacity="1.000000" stroke="#000000" stroke-linecap="round" stroke-linejoin="round" stroke-width="4.000000"
	d="
M225.500000,68.500000 
	C222.811478,67.179398 220.189697,65.480637 217.000000,67.000000 
"/>
<path fill="none" opacity="1.000000" stroke="#000000" stroke-linecap="round" stroke-linejoin="round" stroke-width="2.000000"
	d="
M282.000000,80.000000 
	C279.118835,80.071014 277.558685,82.784065 275.000000,83.500000 
"/>
<path fill="none" opacity="1.000000" stroke="#000000" stroke-linecap="round" stroke-linejoin="round" stroke-width="2.000000"
	d="
M248.500000,44.500000 
	C248.500000,46.666668 248.500000,48.833332 248.500000,51.000000 
"/>
<path fill="none" opacity="1.000000" stroke="#000000" stroke-linecap="round" stroke-linejoin="round" stroke-width="3.000000"
	d="
M274.000000,93.500000 
	C272.055054,94.382446 272.236572,96.446243 271.500000,98.000000 
"/>
<path fill="none" opacity="1.000000" stroke="#000000" stroke-linecap="round" stroke-linejoin="round" stroke-width="3.000000"
	d="
M212.000000,165.000000 
	C206.763199,166.320221 203.666946,169.647614 203.030411,175.003616 
	C202.447662,179.906921 204.131729,183.874298 208.498718,186.502136 
	C212.004990,188.612015 215.666168,188.847855 218.958725,186.443481 
	C223.250046,183.309784 225.167770,178.764542 224.430161,173.509811 
	C223.817581,169.145874 219.806259,165.621658 215.497192,165.020157 
	C214.516296,164.883240 213.500000,165.000000 212.500000,165.000000 
"/>
</svg>