<svg version="1.1" id="Layer_1" xmlns="http://www.w3.org/2000/svg" xmlns:xlink="http://www.w3.org/1999/xlink" x="0px" y="0px"
	 width="100%" viewBox="0 0 384 224" enable-background="new 0 0 384 224" xml:space="preserve">
<path fill="#000000" opacity="1.000000" stroke="none" 
	d="
M144.763702,90.754570 
	C142.148361,85.743538 139.564697,88.654480 136.958176,90.773521 
	C134.920898,92.429787 134.924408,95.674385 132.311722,97.035202 
	C130.783478,92.751816 132.163467,90.365425 139.435547,84.744629 
	C133.874603,78.797615 129.204605,72.194923 125.325966,64.683205 
	C120.912132,67.181999 116.773735,69.047073 112.499901,64.201950 
	C112.309853,69.073441 114.380692,72.628876 116.265511,76.125214 
	C123.538445,89.616440 131.806366,102.556740 140.519547,115.101555 
	C150.104538,128.901566 159.977234,142.513763 169.499954,156.369308 
	C170.909424,158.420105 172.321655,160.365509 171.156311,162.694870 
	C169.922775,165.160583 167.526810,163.791382 165.762299,163.352615 
	C157.534439,161.306641 149.294693,159.265549 141.178558,156.825699 
	C133.606857,154.549530 126.183281,154.615356 118.589775,157.014801 
	C122.295837,156.965118 125.674660,157.602692 128.205719,160.532333 
	C130.925125,163.679977 130.033066,167.392441 129.712158,170.992310 
	C132.215927,172.437286 134.699432,173.188568 137.585602,173.308350 
	C139.905319,170.567947 138.252075,166.416199 140.971603,163.418320 
	C143.629715,166.832504 141.311661,170.588791 142.333878,174.430008 
	C145.438843,170.475220 141.917343,166.107193 143.897430,161.847458 
	C147.747665,166.449600 147.196045,171.074158 145.926346,175.880630 
	C164.504272,183.270569 182.339432,191.864426 202.110153,195.149353 
	C208.723251,196.248123 214.956818,196.698593 221.751144,195.967880 
	C228.906433,195.198364 234.705963,200.539856 239.517624,205.754623 
	C241.747421,208.171204 243.295792,211.222961 245.105850,214.017349 
	C245.845627,215.159409 246.592361,216.560486 245.218918,217.593826 
	C243.513535,218.876892 242.470108,217.368973 241.604965,216.173050 
	C240.336700,214.419830 239.356400,212.443680 237.990097,210.778549 
	C232.677963,204.304382 227.145889,199.293839 217.350739,200.889709 
	C206.982803,202.578934 196.987701,198.370743 187.026901,195.863754 
	C177.057617,193.354614 167.324265,189.965149 157.747330,185.041946 
	C154.029861,193.380173 152.152618,201.630707 149.947952,209.772797 
	C149.469833,211.538498 149.021164,213.313095 148.498245,215.065475 
	C148.107681,216.374329 147.562073,217.852386 145.858307,217.419418 
	C143.880005,216.916672 144.138290,215.235657 144.552734,213.729996 
	C146.628128,206.190231 148.502060,198.584457 150.890381,191.144257 
	C153.380737,183.386230 153.688278,183.184692 145.781525,180.676712 
	C136.108704,177.608582 126.295868,174.969116 116.495674,172.321579 
	C112.462013,171.231873 109.263466,169.313995 108.629356,164.995605 
	C108.020012,160.845840 110.006538,157.514297 113.369339,155.158173 
	C122.131035,149.019333 131.678741,150.270676 141.222153,152.547668 
	C146.887970,153.899475 152.474869,155.589203 158.075943,157.201080 
	C159.941467,157.737930 161.658005,158.069305 163.322647,155.901138 
	C157.731155,145.864975 151.155960,136.312729 144.007812,127.167366 
	C134.138443,114.540466 126.096146,100.738022 117.929031,87.023987 
	C115.976273,83.744965 114.436256,81.178146 110.010605,80.661545 
	C104.947838,80.070572 101.343605,76.457222 99.269585,71.809906 
	C96.146400,64.811707 91.543800,58.654079 88.474663,51.577923 
	C85.465523,44.640083 79.249146,40.806896 71.931641,39.017017 
	C70.797401,38.739578 69.536926,38.978252 67.353416,38.978252 
	C72.070343,47.989338 75.010918,56.569843 78.347961,64.993500 
	C80.920601,71.487526 83.423233,77.993553 84.319946,84.968849 
	C84.946777,89.844772 86.949829,94.205910 88.950615,98.605644 
	C93.432335,108.460938 97.672623,118.429085 102.316498,128.206284 
	C104.646530,133.111938 104.434624,137.943649 102.937859,142.786316 
	C95.568954,166.627975 89.013229,190.732101 80.106392,214.081177 
	C79.869057,214.703369 79.599525,215.314941 79.313942,215.916718 
	C78.678246,217.256210 78.121056,219.087936 76.231491,218.458023 
	C73.993446,217.711945 74.765121,215.813797 75.327324,214.239578 
	C79.023193,203.890961 83.042496,193.646576 86.383133,183.185150 
	C90.934708,168.931564 95.002228,154.522675 99.213173,140.161575 
	C100.176064,136.877747 100.013268,133.618469 98.550293,130.411560 
	C93.503922,119.349724 88.695580,108.176308 83.480972,97.195259 
	C79.926674,89.710518 80.226723,81.258835 76.892616,73.718117 
	C73.153191,65.260704 71.546524,55.910740 65.831223,48.253788 
	C63.421955,45.026009 61.370918,41.324833 64.658821,37.331245 
	C67.990105,33.284969 72.118088,34.493889 76.110718,35.883980 
	C85.196930,39.047474 90.853302,45.520157 94.613899,54.287392 
	C97.287819,60.521194 100.918457,66.359726 104.330994,72.253731 
	C105.595406,74.437576 107.692329,75.915634 110.685234,76.357048 
	C111.112862,74.229828 109.815285,72.597107 109.181831,70.885086 
	C106.853775,64.593086 107.116158,58.726181 112.049377,53.760490 
	C113.642693,52.156696 113.477318,50.656322 113.081711,48.780228 
	C112.521576,46.123932 112.627617,43.468014 114.002701,41.004776 
	C117.056526,35.534321 122.877968,34.184692 127.865990,37.887295 
	C129.451126,39.063938 130.830734,40.517456 132.786224,42.278088 
	C137.878174,37.606503 143.224762,37.731190 148.747437,42.069340 
	C150.775208,43.662209 152.460388,41.477951 153.933304,40.268589 
	C161.396637,34.140648 168.755981,27.885658 176.240967,21.784632 
	C180.168228,18.583523 184.771072,16.590702 189.639572,15.293703 
	C192.972473,14.405800 196.431305,14.327891 199.129379,16.762119 
	C201.452026,18.857664 203.084045,18.355854 205.065826,16.462751 
	C207.993408,13.666169 211.626083,12.481578 215.619827,12.839378 
	C222.052933,13.415723 225.014084,18.844364 222.989227,26.075899 
	C230.149902,32.698841 230.590515,36.462082 224.965088,44.609711 
	C222.625351,47.998447 220.080490,51.245544 217.606506,54.587311 
	C225.489944,59.199482 226.621292,62.530365 223.001205,70.775269 
	C220.716690,75.978363 217.355911,80.581558 214.042236,85.166489 
	C212.346832,87.512329 212.258850,89.138046 214.889587,90.877014 
	C234.108597,103.581200 246.731934,122.262634 259.977875,140.443039 
	C263.870483,145.785751 268.941895,150.268661 273.464508,155.153503 
	C284.278442,166.833572 292.571381,180.296982 301.019257,193.682678 
	C304.922455,199.867371 309.635651,205.539459 313.948273,211.468201 
	C314.978760,212.884872 316.924866,214.596695 314.895538,216.167358 
	C312.440155,218.067795 311.552490,215.213501 310.389343,213.820099 
	C298.504852,199.582764 290.196838,182.873871 278.909760,168.222656 
	C277.284058,166.112427 275.702698,163.928558 273.820068,162.061920 
	C257.078735,145.462906 244.962677,125.043388 228.954330,107.846069 
	C221.279602,99.601311 211.434372,94.093903 202.711334,87.170311 
	C201.878357,86.509186 200.539246,86.150276 199.458755,86.197067 
	C195.648453,86.362045 193.666733,85.004745 194.423782,80.923370 
	C194.716370,79.345993 193.676971,78.445587 192.692673,77.554016 
	C189.224838,74.412888 185.940582,71.084106 183.229996,67.272957 
	C180.837418,63.908909 178.562378,64.398567 175.450699,67.389252 
	C183.512085,75.530708 191.428146,83.544548 199.372879,91.529861 
	C200.676300,92.839958 203.766464,93.708244 202.053879,95.963501 
	C200.152481,98.467400 198.195526,95.753761 196.613251,94.604767 
	C190.761261,90.355247 186.783890,84.213203 181.506958,79.371361 
	C180.547073,78.490631 179.501709,77.703072 178.467834,76.849403 
	C175.832474,78.324051 174.002640,81.195488 170.336411,80.600182 
	C170.597061,77.075493 175.540771,77.201294 175.300949,72.972191 
	C171.102875,73.298462 169.408203,76.679642 166.734085,79.114273 
	C171.003036,84.869064 175.432983,90.157120 181.304581,94.126343 
	C182.966202,95.249603 186.143768,96.502693 184.489319,98.830154 
	C182.487213,101.646652 180.427582,98.468124 178.704849,97.334572 
	C173.644501,94.004860 169.675034,89.493782 165.776199,84.911118 
	C164.295868,83.171135 163.002518,81.151482 160.823639,80.177605 
	C157.200241,81.945923 154.957321,86.601570 149.925186,85.547386 
	C149.768326,82.820267 151.750046,82.943680 152.911972,82.277596 
	C158.610046,79.011116 158.725159,77.995834 153.382477,73.174271 
	C153.000473,72.960121 152.830261,72.741463 152.830261,72.741463 
	C151.732666,70.191528 149.499405,68.625633 147.560715,66.849945 
	C141.555634,61.349754 135.766373,55.673599 131.568909,48.161156 
	C126.779907,51.361320 122.217842,54.578163 117.964027,47.991879 
	C117.191025,49.977451 118.175583,51.084942 119.055389,51.884743 
	C125.277725,57.541309 129.999924,64.289330 134.267242,71.491203 
	C138.963013,79.416161 146.371887,85.124893 152.095047,92.247704 
	C156.880768,98.203812 162.076813,103.829742 167.070862,109.619392 
	C168.057755,110.763504 169.278641,112.205986 167.901855,113.540382 
	C166.199966,115.189857 164.894455,113.514412 163.777420,112.321709 
	C157.527481,105.648514 152.425842,97.974007 145.401779,91.328323 
	C145.032028,91.005234 144.763702,90.754570 144.763702,90.754570 
M188.064224,38.551258 
	C183.711395,43.490108 178.936615,48.093719 175.330429,53.928387 
	C177.322083,55.722919 179.211472,57.100540 180.693161,58.827885 
	C183.783417,62.430458 186.093689,61.831444 188.994675,58.359947 
	C198.564606,46.907940 207.308624,34.755177 218.031113,24.266844 
	C221.059753,21.304344 219.602646,17.842583 215.354843,17.195126 
	C211.744873,16.644886 208.925125,18.392351 206.377823,20.664043 
	C200.180283,26.190994 194.145325,31.886665 188.064224,38.551258 
M172.573944,30.090994 
	C166.298340,35.461239 160.022720,40.831486 152.381744,47.370117 
	C155.587509,49.929760 158.537537,51.885464 160.986938,54.340611 
	C164.150146,57.511253 166.576828,57.640839 169.428802,53.952541 
	C177.479279,43.541378 186.254105,33.761478 195.754089,24.640335 
	C196.689499,23.742224 197.887619,22.818344 197.222656,21.246458 
	C196.546066,19.647112 195.092743,19.284962 193.522934,19.201895 
	C191.319916,19.085321 189.286026,19.625351 187.218857,20.406454 
	C181.816940,22.447636 177.377319,25.889376 172.573944,30.090994 
M195.132538,74.005821 
	C197.151886,76.121208 198.316299,74.447563 199.476303,72.991432 
	C208.070923,62.202740 215.326553,50.469578 223.236465,39.197979 
	C225.217819,36.374561 224.917358,33.428982 222.065033,31.269703 
	C219.201508,29.101948 217.170959,30.898926 215.334900,33.105766 
	C208.008255,41.912018 200.712402,50.744598 193.309311,59.486298 
	C187.231232,66.663406 187.183670,66.795105 194.265060,73.244164 
	C194.387878,73.356018 194.506760,73.472191 195.132538,74.005821 
M149.649445,62.843128 
	C152.231216,65.427055 154.833694,67.990692 157.390717,70.598885 
	C163.907028,77.245567 163.903290,77.258301 170.606247,71.082504 
	C170.939758,70.775215 171.083679,70.262154 171.600189,69.334000 
	C164.364380,62.690346 157.105637,56.025631 149.131607,48.704174 
	C148.105209,52.700802 144.561172,53.230839 142.294281,55.545727 
	C144.709854,57.949116 146.923004,60.151112 149.649445,62.843128 
M207.587158,85.086998 
	C213.745407,80.201622 217.014084,73.331024 220.185349,66.447586 
	C221.091934,64.479744 221.388046,61.967827 219.000748,60.679138 
	C216.464569,59.310078 214.173721,60.166046 212.481033,62.510284 
	C209.949661,66.016029 207.453033,69.547836 204.868729,73.014183 
	C199.887619,79.695328 199.906906,79.904678 207.587158,85.086998 
M126.248909,168.557510 
	C127.282104,165.415405 127.188606,162.564377 123.692039,161.072433 
	C120.780624,159.830154 117.832108,159.728729 115.502090,162.350296 
	C113.800339,164.264954 113.443092,166.476624 116.202667,167.543427 
	C119.201424,168.702667 122.298309,170.195755 126.248909,168.557510 
M120.054512,45.558578 
	C121.233765,47.804913 122.787224,49.422260 125.561531,48.251690 
	C127.068565,47.615826 128.051834,46.413616 127.139458,44.704479 
	C126.069237,42.699665 125.084030,40.152893 122.267220,40.500549 
	C119.947800,40.786819 119.055382,42.578896 120.054512,45.558578 
M144.997879,49.615807 
	C146.608688,46.637009 144.057861,45.554523 142.412018,44.162205 
	C141.415161,43.318890 140.244217,43.544853 139.336365,44.508099 
	C138.089172,45.831394 137.773575,47.508549 138.471695,49.066113 
	C139.895538,52.242825 142.174454,51.619671 144.997879,49.615807 
M121.230293,62.782093 
	C121.977348,59.472828 119.718178,57.943966 117.374496,56.679878 
	C116.150650,56.019787 115.096725,56.960835 114.657463,58.145138 
	C113.944069,60.068523 114.701698,61.787174 115.956490,63.186150 
	C117.443542,64.844070 119.157509,64.643806 121.230293,62.782093 
z"/>
<path fill="#000000" opacity="1.000000" stroke="none" 
	d="
M187.489655,122.632858 
	C188.384399,120.101349 189.157364,117.936035 189.874222,115.927910 
	C190.623459,115.890381 191.120667,115.734619 191.233047,115.878807 
	C194.919128,120.607590 198.607620,119.921219 203.424362,117.024513 
	C209.016632,113.661423 215.473770,112.156570 222.178467,113.328300 
	C231.597549,114.974419 237.896606,121.994286 238.304855,131.604599 
	C239.002884,148.036987 230.692184,160.143845 218.993759,170.392685 
	C213.149811,175.512466 206.288696,178.871506 198.603729,180.443054 
	C190.782516,182.042465 183.931778,180.237061 178.749802,174.117874 
	C173.224808,167.593658 172.624649,159.936600 175.018631,151.964310 
	C175.646225,149.874344 177.126541,148.424515 179.525253,149.028549 
	C181.771057,149.594055 182.676636,151.332047 182.571182,153.584839 
	C182.439148,156.405533 181.983200,159.242661 182.165054,162.040314 
	C182.630157,169.195786 187.146942,173.280411 194.472580,172.793091 
	C205.137375,172.083633 213.103851,166.169098 219.895920,158.472931 
	C225.044434,152.639099 228.664490,145.995834 230.165131,138.230972 
	C232.472733,126.290642 225.755905,119.204292 213.904465,121.478737 
	C209.818115,122.262955 206.047256,124.020355 202.631622,126.966187 
	C203.734573,128.721420 204.759567,130.352585 206.181427,132.615311 
	C198.778717,135.444595 191.390656,136.575714 183.324890,138.358719 
	C183.511963,132.385406 186.081482,127.840584 187.489655,122.632858 
z"/>
<path fill="#000000" opacity="1.000000" stroke="none" 
	d="
M153.088623,73.067017 
	C151.197052,76.516914 147.325729,78.140533 145.830872,82.597466 
	C143.878326,76.872658 146.242752,73.729012 152.541718,72.691002 
	C152.830261,72.741463 153.000473,72.960121 153.088623,73.067017 
z"/>
<path fill="#000000" opacity="1.000000" stroke="none" 
	d="
M145.168182,91.128403 
	C143.723831,97.295509 139.947540,100.302383 135.017975,98.988205 
	C138.175583,96.232071 141.162964,93.624519 144.457031,90.885765 
	C144.763702,90.754570 145.032028,91.005234 145.168182,91.128403 
z"/>
</svg>