<svg version="1.1" id="Layer_1" xmlns="http://www.w3.org/2000/svg" xmlns:xlink="http://www.w3.org/1999/xlink" x="0px" y="0px"
	 width="100%" viewBox="0 0 387 235" enable-background="new 0 0 387 235" xml:space="preserve">
<path fill="none" opacity="1.000000" stroke="#000000" stroke-linecap="round" stroke-linejoin="round" stroke-width="2.000000"
	d="
M307.500000,155.500000 
	C301.666656,151.500000 296.061554,147.104736 289.954437,143.578918 
	C275.398041,135.175034 260.011719,128.415726 244.484451,122.037849 
	C222.212097,112.889404 199.849457,103.959633 177.489639,95.025925 
	C171.224228,92.522621 164.833328,90.333328 158.500000,88.000000 
"/>
<path fill="none" opacity="1.000000" stroke="#000000" stroke-linecap="round" stroke-linejoin="round" stroke-width="2.000000"
	d="
M151.000000,31.000000 
	C143.166672,28.000000 135.389954,24.834604 127.459160,22.119278 
	C125.538025,21.461529 123.189018,21.879778 120.966438,22.928907 
	C102.692543,31.554819 84.358093,40.053967 65.990585,48.479485 
	C55.208843,53.425274 44.333336,58.166668 33.500000,63.000000 
"/>
<path fill="none" opacity="1.000000" stroke="#000000" stroke-linecap="round" stroke-linejoin="round" stroke-width="2.000000"
	d="
M150.000000,84.000000 
	C136.725281,79.004967 124.004547,72.359398 109.987610,69.562088 
	C87.464394,65.067192 65.449738,67.591667 44.016937,75.545631 
	C40.396973,76.889046 37.000000,78.833336 33.500000,80.500000 
"/>
<path fill="none" opacity="1.000000" stroke="#000000" stroke-linecap="round" stroke-linejoin="round" stroke-width="3.000000"
	d="
M231.500000,59.500000 
	C227.662399,52.114292 229.800812,43.634850 227.071030,35.974689 
	C222.840271,24.102600 213.213257,17.417868 200.504349,16.894337 
	C184.580719,16.238379 170.980133,22.747208 156.915649,28.804119 
	C144.382202,34.201683 142.925446,44.178913 143.020004,55.499832 
	C143.047211,58.758492 144.800537,60.652130 147.990219,61.535336 
	C153.857834,63.160042 159.666672,62.351345 165.500031,61.504578 
	C168.934189,63.865532 171.966339,66.727921 175.445892,69.080040 
	C183.463470,74.499786 194.002548,71.326210 196.901550,61.969498 
	C198.014542,58.377300 199.612289,55.158859 201.571976,51.814667 
	C198.400681,45.329666 191.330673,43.788155 186.000000,40.000000 
"/>
<path fill="none" opacity="1.000000" stroke="#000000" stroke-linecap="round" stroke-linejoin="round" stroke-width="3.000000"
	d="
M125.500000,118.500000 
	C116.051552,117.369614 107.705322,121.653542 99.035324,124.123978 
	C95.042969,125.261574 91.151207,126.182678 87.006516,126.569748 
	C73.385162,127.841850 60.734665,123.879562 47.977509,120.075432 
	C42.877617,118.554657 37.872910,116.534149 32.500000,116.000000 
"/>
<path fill="none" opacity="1.000000" stroke="#000000" stroke-linecap="round" stroke-linejoin="round" stroke-width="2.000000"
	d="
M162.000000,207.500000 
	C162.863937,206.527222 163.727875,205.554443 164.478638,204.709076 
	C161.717819,200.612473 159.155426,196.797318 160.416748,191.480255 
	C161.384048,187.402603 161.879318,186.681274 166.000687,186.990936 
	C172.715149,187.495438 178.652481,189.588409 182.476440,195.515198 
	C188.138092,204.290207 181.367706,215.235504 169.998428,216.989853 
	C164.388626,217.855484 159.016769,215.825867 153.513138,215.348541 
	C152.060211,215.222519 151.721619,212.151489 149.247894,211.982803 
	C147.515839,212.788651 147.178513,215.429993 144.488586,216.141785 
	C143.659500,215.021484 141.936203,215.191406 140.500000,214.500000 
"/>
<path fill="none" opacity="1.000000" stroke="#000000" stroke-linecap="round" stroke-linejoin="round" stroke-width="2.000000"
	d="
M307.000000,87.000000 
	C298.629089,83.634209 290.120697,80.692406 281.542511,77.870743 
	C271.030792,74.413055 260.839020,69.985062 250.484497,66.040695 
	C249.921402,65.826195 249.002838,65.677994 248.500000,66.500000 
"/>
<path fill="none" opacity="1.000000" stroke="#000000" stroke-linecap="round" stroke-linejoin="round" stroke-width="2.000000"
	d="
M178.500000,117.500000 
	C185.500000,120.500000 192.472382,123.567627 199.521942,126.446274 
	C201.038284,127.065475 202.902115,128.614685 204.481628,126.486366 
	C206.238617,124.118896 204.351227,122.344330 202.929932,121.078690 
	C200.741028,119.129532 197.700516,118.566307 195.060959,117.365952 
	C190.910629,115.478584 186.608047,113.916733 182.568405,111.865303 
	C180.511047,110.820534 179.166672,110.904320 177.500000,112.000000 
"/>
<path fill="none" opacity="1.000000" stroke="#000000" stroke-linecap="round" stroke-linejoin="round" stroke-width="3.000000"
	d="
M154.500000,184.000000 
	C156.730621,185.874771 157.779282,188.173065 155.439621,190.437622 
	C153.329163,192.480362 151.240402,195.258530 147.436310,192.590805 
	C145.352554,191.129517 142.465591,191.154175 140.426315,189.072174 
	C138.607925,187.215698 136.630829,189.345764 135.039093,190.084259 
	C125.815407,194.363541 117.355751,200.046310 108.463455,204.933502 
	C99.961388,209.606216 93.875908,217.052032 86.500000,223.000000 
"/>
<path fill="none" opacity="1.000000" stroke="#000000" stroke-linecap="round" stroke-linejoin="round" stroke-width="4.000000"
	d="
M32.500000,166.000000 
	C35.453796,166.998352 38.508400,166.226364 41.498936,166.511169 
	C52.183361,167.528687 62.789806,168.973526 73.001862,172.494583 
	C74.948059,173.165619 76.963974,173.696442 78.000000,175.750000 
"/>
<path fill="none" opacity="1.000000" stroke="#000000" stroke-linecap="round" stroke-linejoin="round" stroke-width="3.000000"
	d="
M95.500000,159.500000 
	C93.949181,163.956467 91.020142,167.601959 88.595482,171.558517 
	C87.291145,173.686920 85.180511,175.071564 83.474228,175.329575 
	C67.566803,177.735153 53.005184,184.312973 38.015110,189.543304 
	C36.194454,190.178589 34.453228,190.939621 32.500000,191.000000 
"/>
<path fill="none" opacity="1.000000" stroke="#000000" stroke-linecap="round" stroke-linejoin="round" stroke-width="2.000000"
	d="
M189.500000,71.000000 
	C194.031479,78.468529 198.641205,85.853836 207.498901,89.003067 
	C212.361099,90.731750 217.224579,92.398987 222.500000,91.000000 
"/>
<path fill="none" opacity="1.000000" stroke="#000000" stroke-linecap="round" stroke-linejoin="round" stroke-width="2.000000"
	d="
M240.000000,71.500000 
	C238.174667,66.084084 235.839996,65.067642 231.453766,66.888641 
	C229.035324,67.892693 228.546600,69.346756 228.492966,71.499825 
	C228.427261,74.136894 229.719131,75.910065 232.006912,76.985306 
	C234.027786,77.935120 235.851807,77.595802 237.518417,76.019470 
	C238.724762,74.878479 239.695404,73.663788 240.000000,72.000000 
"/>
<path fill="none" opacity="1.000000" stroke="#000000" stroke-linecap="round" stroke-linejoin="round" stroke-width="3.000000"
	d="
M139.000000,147.500000 
	C138.412064,150.017563 137.736786,151.036301 134.288483,151.382904 
	C129.386978,151.875549 124.615540,154.736267 120.036133,157.070877 
	C115.007759,159.634415 108.339081,158.167557 104.530602,164.431763 
	C103.611511,161.604584 103.018799,159.446259 100.500000,159.000000 
"/>
<path fill="none" opacity="1.000000" stroke="#000000" stroke-linecap="round" stroke-linejoin="round" stroke-width="3.000000"
	d="
M159.500000,69.000000 
	C155.998672,87.212059 157.272415,105.641167 157.000000,124.000000 
"/>
<path fill="none" opacity="1.000000" stroke="#000000" stroke-linecap="round" stroke-linejoin="round" stroke-width="4.000000"
	d="
M138.000000,133.000000 
	C136.203171,128.754791 138.484055,124.611389 138.831848,120.528267 
	C139.302399,115.003792 139.525513,109.494324 139.384079,104.002983 
	C139.295471,100.562073 141.340195,98.853111 143.573929,97.635635 
	C145.601257,96.530647 147.664612,98.319870 149.504105,99.493553 
	C151.128494,100.529984 150.461121,102.132309 150.472672,103.500229 
	C150.531754,110.499733 150.500000,117.500000 150.500000,124.500000 
"/>
<path fill="none" opacity="1.000000" stroke="#000000" stroke-linecap="round" stroke-linejoin="round" stroke-width="2.000000"
	d="
M157.500000,209.000000 
	C160.247559,212.489029 165.007141,213.631348 170.000000,212.000000 
	C173.602982,210.822800 176.756927,206.542450 177.000000,202.500000 
	C177.211578,198.981400 174.270767,194.774811 170.508026,192.983139 
	C167.429855,191.517410 164.300201,191.064804 161.000000,192.000000 
"/>
<path fill="none" opacity="1.000000" stroke="#000000" stroke-linecap="round" stroke-linejoin="round" stroke-width="2.000000"
	d="
M227.500000,91.000000 
	C233.917847,91.437134 239.495056,90.011841 242.999466,83.999687 
	C243.719589,82.764252 244.134811,81.488365 244.024063,79.998215 
	C243.783447,76.760338 244.170929,73.936264 246.873840,71.367256 
	C248.646927,69.681999 249.030045,67.068756 246.079010,64.892845 
	C243.470901,62.969795 241.538361,60.130524 239.269348,57.654106 
	C233.556366,60.263813 227.773026,60.561169 222.002716,61.033123 
	C219.178741,61.264088 216.983627,62.561111 215.985107,65.494934 
	C212.093216,76.930176 212.099869,78.436020 220.042221,86.458199 
	C221.533264,87.964226 223.571884,88.928116 225.703064,90.376862 
	C227.016357,89.696632 227.016357,89.696632 229.783737,85.804176 
	C228.104111,80.616890 225.353424,76.439926 220.500000,74.000000 
"/>
<path fill="none" opacity="1.000000" stroke="#000000" stroke-linecap="round" stroke-linejoin="round" stroke-width="3.000000"
	d="
M138.500000,102.500000 
	C134.601578,101.810204 131.726791,103.937576 130.647476,107.051125 
	C128.509491,113.218742 125.821571,119.312691 125.500000,126.000000 
"/>
<path fill="none" opacity="1.000000" stroke="#000000" stroke-linecap="round" stroke-linejoin="round" stroke-width="3.000000"
	d="
M172.000000,158.000000 
	C172.622971,162.980698 171.714706,167.967957 172.672134,173.061630 
	C173.160477,175.659683 170.115845,178.782501 166.500000,179.500000 
"/>
<path fill="none" opacity="1.000000" stroke="#000000" stroke-linecap="round" stroke-linejoin="round" stroke-width="3.000000"
	d="
M178.500000,134.500000 
	C178.786011,131.685959 178.075775,129.052460 176.991867,126.503456 
	C176.088760,124.379623 175.843552,121.778046 176.649811,120.070740 
	C179.388458,114.271446 175.262451,110.588318 172.884918,106.568062 
	C170.781143,103.010742 167.426407,104.584518 164.500000,106.000000 
"/>
<path fill="none" opacity="1.000000" stroke="#000000" stroke-linecap="round" stroke-linejoin="round" stroke-width="3.000000"
	d="
M173.000000,148.500000 
	C173.272064,149.988281 172.733307,151.456833 173.407440,153.039429 
	C174.167404,154.823563 173.030258,156.616486 171.472366,157.448242 
	C163.937576,161.471085 160.430801,168.866348 156.000000,175.500000 
"/>
<path fill="none" opacity="1.000000" stroke="#000000" stroke-linecap="round" stroke-linejoin="round" stroke-width="4.000000"
	d="
M158.000000,96.500000 
	C163.686249,97.621582 163.480743,103.068604 163.659317,106.517639 
	C163.921829,111.587090 163.733551,116.835274 163.517960,122.000748 
	C163.470749,123.131874 163.351273,124.172646 162.500000,125.000000 
"/>
<path fill="none" opacity="1.000000" stroke="#000000" stroke-linecap="round" stroke-linejoin="round" stroke-width="2.000000"
	d="
M178.500000,48.000000 
	C184.333328,51.666664 190.166672,55.333332 196.000000,59.000000 
"/>
<path fill="none" opacity="1.000000" stroke="#000000" stroke-linecap="round" stroke-linejoin="round" stroke-width="2.000000"
	d="
M169.000000,57.499996 
	C174.666672,61.499996 180.333328,65.500000 186.000000,69.500000 
"/>
<path fill="none" opacity="1.000000" stroke="#000000" stroke-linecap="round" stroke-linejoin="round" stroke-width="3.000000"
	d="
M174.000000,154.000000 
	C180.644821,153.331528 185.383636,149.148132 189.920486,144.914780 
	C192.024200,142.951813 192.169693,139.679443 189.431290,138.120697 
	C185.696106,135.994553 181.596390,133.954330 177.001053,136.002350 
	C173.662338,137.490326 170.111023,138.657120 167.079468,140.622574 
	C165.113434,141.897202 163.322861,141.109070 161.500000,141.500000 
"/>
<path fill="none" opacity="1.000000" stroke="#000000" stroke-linecap="round" stroke-linejoin="round" stroke-width="2.000000"
	d="
M223.000000,62.000000 
	C222.439575,65.075813 220.485977,67.671844 220.399460,70.997383 
	C220.307480,74.533783 216.924576,74.303528 214.500000,75.000000 
"/>
<path fill="none" opacity="1.000000" stroke="#000000" stroke-linecap="round" stroke-linejoin="round" stroke-width="3.000000"
	d="
M182.000000,152.500000 
	C183.276764,155.096222 184.319946,157.568359 181.528503,160.032303 
	C178.710953,162.519287 175.912415,161.677765 173.000000,160.500000 
"/>
<path fill="none" opacity="1.000000" stroke="#000000" stroke-linecap="round" stroke-linejoin="round" stroke-width="2.000000"
	d="
M148.500015,68.000000 
	C149.500015,76.833336 150.508240,85.665749 151.493393,94.500740 
	C151.700790,96.360847 151.297623,98.072624 150.000000,99.500000 
"/>
<path fill="none" opacity="1.000000" stroke="#000000" stroke-linecap="round" stroke-linejoin="round" stroke-width="4.000000"
	d="
M151.500000,125.500000 
	C153.626984,125.928581 155.487122,124.721939 157.501709,124.516724 
	C163.184830,123.937813 166.496552,127.609596 163.574234,132.543961 
	C162.145370,134.956650 161.500000,137.833328 160.500000,140.500000 
"/>
<path fill="none" opacity="1.000000" stroke="#000000" stroke-linecap="round" stroke-linejoin="round" stroke-width="3.000000"
	d="
M207.500000,35.500000 
	C200.780304,34.024574 194.359329,35.836803 188.023010,37.583454 
	C184.230988,38.628746 180.780823,41.032658 176.967804,41.849766 
	C173.175812,42.662373 170.923874,45.596783 170.283035,48.073238 
	C168.926208,53.316685 166.328506,57.788002 164.061569,62.529434 
	C161.620529,67.635033 160.755325,68.559776 155.007065,67.934998 
	C151.398926,67.542831 147.286606,67.834671 145.067307,63.961433 
	C144.749557,63.406872 144.571182,62.180904 145.500000,61.500000 
"/>
<path fill="none" opacity="1.000000" stroke="#000000" stroke-linecap="round" stroke-linejoin="round" stroke-width="3.000000"
	d="
M161.500000,180.000000 
	C156.336411,180.568420 152.399261,184.230545 147.509521,185.535660 
	C144.913483,186.228577 141.928329,186.070816 140.000000,188.500000 
"/>
<path fill="none" opacity="1.000000" stroke="#000000" stroke-linecap="round" stroke-linejoin="round" stroke-width="2.000000"
	d="
M229.000000,54.000000 
	C221.650894,60.161461 211.772964,60.573040 205.000000,55.000000 
"/>
<path fill="none" opacity="1.000000" stroke="#000000" stroke-linecap="round" stroke-linejoin="round" stroke-width="2.000000"
	d="
M200.000000,36.000000 
	C201.365601,40.078922 204.310379,43.778843 203.000000,48.500000 
"/>
<path fill="none" opacity="1.000000" stroke="#000000" stroke-linecap="round" stroke-linejoin="round" stroke-width="4.000000"
	d="
M137.500000,127.500000 
	C131.923935,127.460846 126.419266,127.547813 120.939178,125.678299 
	C118.467194,124.834984 115.285721,125.023872 112.500000,126.000000 
"/>
<path fill="none" opacity="1.000000" stroke="#000000" stroke-linecap="round" stroke-linejoin="round" stroke-width="2.000000"
	d="
M178.000000,42.500000 
	C178.252747,47.912907 176.377060,49.905834 170.000000,51.000000 
"/>
<path fill="none" opacity="1.000000" stroke="#000000" stroke-linecap="round" stroke-linejoin="round" stroke-width="2.000000"
	d="
M183.500000,138.000000 
	C179.129852,140.988144 178.866394,142.920135 182.000000,149.000000 
"/>
<path fill="none" opacity="1.000000" stroke="#000000" stroke-linecap="round" stroke-linejoin="round" stroke-width="2.000000"
	d="
M174.500000,207.000000 
	C170.540054,207.906998 166.935654,210.947296 162.500000,209.000000 
"/>
<path fill="none" opacity="1.000000" stroke="#000000" stroke-linecap="round" stroke-linejoin="round" stroke-width="2.000000"
	d="
M136.500000,190.000000 
	C136.728516,191.598679 138.201004,192.324615 138.960464,193.525009 
	C140.643890,196.185745 140.756683,198.529999 137.000000,199.500000 
"/>
<path fill="none" opacity="1.000000" stroke="#000000" stroke-linecap="round" stroke-linejoin="round" stroke-width="2.000000"
	d="
M241.500000,84.500000 
	C237.833328,84.833336 234.166672,85.166672 230.500000,85.500000 
"/>
<path fill="none" opacity="1.000000" stroke="#000000" stroke-linecap="round" stroke-linejoin="round" stroke-width="3.000000"
	d="
M149.500000,194.500000 
	C149.980591,198.030823 152.904190,201.677979 149.000000,205.000000 
"/>
<path fill="none" opacity="1.000000" stroke="#000000" stroke-linecap="round" stroke-linejoin="round" stroke-width="4.000000"
	d="
M139.000000,150.000000 
	C144.530045,150.824829 150.053207,150.999817 155.496017,149.485718 
	C161.124771,147.919861 161.761673,146.864105 161.000000,141.000000 
"/>
<path fill="none" opacity="1.000000" stroke="#000000" stroke-linecap="round" stroke-linejoin="round" stroke-width="3.000000"
	d="
M161.500000,208.500000 
	C157.412247,208.290482 153.470032,208.463013 151.000000,212.500000 
"/>
<path fill="none" opacity="1.000000" stroke="#000000" stroke-linecap="round" stroke-linejoin="round" stroke-width="3.000000"
	d="
M135.500000,198.500000 
	C137.580322,200.565979 138.309753,204.915955 143.112259,202.198395 
	C144.280807,201.537155 146.187729,203.919067 146.500000,206.000000 
"/>
<path fill="none" opacity="1.000000" stroke="#000000" stroke-linecap="round" stroke-linejoin="round" stroke-width="2.000000"
	d="
M148.000000,195.500000 
	C145.321838,197.258621 147.334930,200.357605 146.000000,202.500000 
"/>
<path fill="none" opacity="1.000000" stroke="#000000" stroke-linecap="round" stroke-linejoin="round" stroke-width="2.000000"
	d="
M141.500000,127.500000 
	C140.918091,129.116959 142.715591,131.209793 140.500000,132.500000 
"/>
<path fill="none" opacity="1.000000" stroke="#000000" stroke-linecap="round" stroke-linejoin="round" stroke-width="3.000000"
	d="
M148.500000,206.000000 
	C146.833328,206.333328 145.179245,206.800369 143.496109,206.958664 
	C142.092636,207.090637 140.878021,207.868179 141.086624,208.983795 
	C142.059753,214.188156 138.444366,216.245575 135.000000,218.500000 
"/>
<path fill="none" opacity="1.000000" stroke="#000000" stroke-linecap="round" stroke-linejoin="round" stroke-width="2.000000"
	d="
M166.000015,180.500000 
	C165.333344,182.333344 164.666672,184.166672 164.000015,186.000000 
"/>
<path fill="none" opacity="1.000000" stroke="#000000" stroke-linecap="round" stroke-linejoin="round" stroke-width="3.000000"
	d="
M92.500000,158.000000 
	C95.380547,159.377686 97.915001,159.365967 100.558647,157.067459 
	C103.026329,154.921921 106.439995,154.467438 109.513901,153.546387 
	C114.002663,152.201416 118.320282,150.453232 121.440491,146.947037 
	C125.460327,142.429932 130.903244,141.983337 135.991089,142.204681 
	C142.489563,142.487427 148.826416,142.925385 154.994690,140.486572 
	C157.119019,139.646652 159.077957,139.897827 161.000000,141.000000 
"/>
<path fill="none" opacity="1.000000" stroke="#000000" stroke-linecap="round" stroke-linejoin="round" stroke-width="4.000000"
	d="
M139.500000,127.000000 
	C143.337997,126.360176 147.400513,127.011284 151.000000,125.000000 
"/>
</svg>