<svg version="1.1" id="Layer_1" xmlns="http://www.w3.org/2000/svg" xmlns:xlink="http://www.w3.org/1999/xlink" x="0px" y="0px"
	 width="100%" viewBox="0 0 388 237" enable-background="new 0 0 388 237" xml:space="preserve">
<path fill="none" opacity="1.000000" stroke="#000000" stroke-linecap="round" stroke-linejoin="round" stroke-width="3.000000"
	d="
M167.500000,94.500000 
	C164.312698,102.191002 163.739868,110.259537 163.207901,118.481102 
	C163.006271,121.597458 160.151794,125.500000 157.375763,127.309402 
	C149.564987,132.400436 143.005096,138.680084 137.581116,146.059631 
	C131.860046,153.843384 123.883575,159.100342 116.868683,165.352676 
	C98.838272,181.423096 80.602066,197.305008 61.004978,211.506866 
	C59.467148,212.621338 58.000000,213.833328 56.500000,215.000000 
"/>
<path fill="none" opacity="1.000000" stroke="#000000" stroke-linecap="round" stroke-linejoin="round" stroke-width="3.000000"
	d="
M239.500000,120.500000 
	C236.649429,122.629311 238.904907,123.778397 240.523239,124.443443 
	C247.953720,127.496948 248.390259,133.955292 248.469742,140.500366 
	C248.610428,152.083160 250.684692,163.484634 251.705612,174.981735 
	C252.058594,178.956757 254.147247,183.104828 257.509979,185.988358 
	C268.270294,195.215286 277.906128,205.729034 289.512054,213.983047 
	C291.091187,215.106110 292.833344,216.000000 294.500000,217.000000 
"/>
<path fill="none" opacity="1.000000" stroke="#000000" stroke-linecap="round" stroke-linejoin="round" stroke-width="3.000000"
	d="
M216.500000,124.000000 
	C210.101395,119.912659 207.161484,113.131027 203.565094,106.962051 
	C198.450439,98.188721 191.510147,90.917511 183.822632,84.720016 
	C177.802216,79.866486 170.359909,76.524803 161.998978,76.981339 
	C159.438019,77.121170 157.228149,80.066795 158.596558,82.444427 
	C160.731796,86.154366 163.490723,89.506737 166.018280,92.986725 
	C166.212631,93.254326 166.688385,93.511574 166.996826,93.473991 
	C175.322693,92.459526 177.402084,99.667870 179.735580,104.624489 
	C184.312012,114.345482 190.637268,123.179268 194.057281,133.480988 
	C196.339294,140.354874 198.982986,147.073853 197.000000,154.500000 
"/>
<path fill="none" opacity="1.000000" stroke="#000000" stroke-linecap="round" stroke-linejoin="round" stroke-width="3.000000"
	d="
M222.500000,215.000000 
	C220.036835,213.928284 217.747162,212.533981 216.034912,210.471024 
	C214.505859,208.628769 212.462173,207.114594 210.468369,206.630234 
	C196.086746,203.136292 190.867111,189.860413 182.000000,180.500000 
	C180.195801,171.178238 175.255936,162.970749 172.044327,154.166214 
	C169.040100,145.930283 170.609665,137.414368 167.703690,129.425903 
	C167.055542,127.644165 168.088226,124.474228 170.509689,123.016075 
	C172.885925,121.585144 176.071732,121.101189 177.876892,122.644035 
	C182.438675,126.542938 187.208282,129.924057 188.865250,136.913406 
	C190.580734,144.149597 192.842377,151.602234 197.334167,158.114395 
	C199.765198,161.638870 200.500000,166.333328 202.000000,170.500000 
"/>
<path fill="none" opacity="1.000000" stroke="#000000" stroke-linecap="round" stroke-linejoin="round" stroke-width="3.000000"
	d="
M262.500000,70.000000 
	C252.787201,72.377808 243.310867,75.867752 232.993668,75.083237 
	C227.911346,74.696770 223.572800,77.837914 219.072021,79.676323 
	C216.281784,80.816040 214.122299,83.452202 211.047134,84.623734 
	C209.595596,85.176727 209.286255,86.818886 209.252975,88.996223 
	C209.125290,97.354195 214.321655,102.862671 218.495651,109.002953 
	C219.118561,109.919296 219.972504,110.152069 221.000000,110.000000 
"/>
<path fill="none" opacity="1.000000" stroke="#000000" stroke-linecap="round" stroke-linejoin="round" stroke-width="2.000000"
	d="
M272.500000,68.000000 
	C271.833344,68.333336 270.594238,68.651405 270.584869,69.002266 
	C270.413300,75.439964 265.551575,75.754776 260.999969,76.499847 
	C251.833389,78.000359 242.651398,79.414261 233.507797,81.043739 
	C230.029327,81.663635 227.196976,84.137329 223.526688,84.680351 
	C221.820312,84.932808 220.853287,87.343315 221.036682,90.009598 
	C224.134155,92.193085 227.590927,94.675392 224.061691,99.544708 
	C222.862289,101.199532 225.324768,102.330864 225.573273,103.989021 
	C226.009491,106.899940 226.896988,109.743233 227.559235,112.465843 
	C231.009705,112.681221 233.273636,111.300262 233.901260,108.478043 
	C234.515213,105.717323 231.848282,104.754707 230.000000,103.500000 
"/>
<path fill="none" opacity="1.000000" stroke="#000000" stroke-linecap="round" stroke-linejoin="round" stroke-width="3.000000"
	d="
M181.000000,180.000000 
	C170.978470,191.346970 163.524551,204.655319 153.500000,216.000000 
"/>
<path fill="none" opacity="1.000000" stroke="#000000" stroke-linecap="round" stroke-linejoin="round" stroke-width="2.000000"
	d="
M270.000000,69.000000 
	C259.135559,67.301880 248.549911,69.338791 238.025665,71.618484 
	C236.704468,71.904671 234.478012,71.798141 234.000000,74.000000 
"/>
<path fill="none" opacity="1.000000" stroke="#000000" stroke-linecap="round" stroke-linejoin="round" stroke-width="4.000000"
	d="
M202.000000,78.500000 
	C202.234100,74.617325 205.965546,70.541451 201.066010,66.910912 
	C199.938049,66.075089 200.383911,63.982433 199.624466,62.438763 
	C196.831207,56.761116 194.180862,55.887287 190.042755,60.042572 
	C189.310989,60.777378 188.316086,61.658039 188.500000,63.000000 
"/>
<path fill="none" opacity="1.000000" stroke="#000000" stroke-linecap="round" stroke-linejoin="round" stroke-width="2.000000"
	d="
M209.500000,39.500000 
	C215.482773,35.379353 222.348404,33.204811 228.921143,30.320328 
	C236.322708,27.072104 241.641098,29.719122 246.421326,34.577404 
	C250.025436,38.240379 254.812134,40.103970 258.206757,44.334080 
	C263.914825,51.447033 265.006500,59.781193 267.000000,68.000000 
"/>
<path fill="none" opacity="1.000000" stroke="#000000" stroke-linecap="round" stroke-linejoin="round" stroke-width="3.000000"
	d="
M233.500000,28.500000 
	C221.046127,23.066656 210.362427,22.399189 204.959915,34.982792 
	C204.346939,36.410561 202.997650,37.374939 201.501968,38.004658 
	C198.532730,39.254757 195.850845,41.466705 194.671677,44.077538 
	C191.890945,50.234417 185.099335,50.430443 180.871826,54.362183 
	C179.198181,55.918728 176.091110,55.386402 173.867462,57.349899 
	C171.777023,59.195774 170.348099,61.144608 171.118515,63.460575 
	C172.686874,68.175224 171.985550,72.040276 168.532761,75.532387 
	C168.282776,75.785225 168.500000,76.500000 168.500000,77.000000 
"/>
<path fill="none" opacity="1.000000" stroke="#000000" stroke-linecap="round" stroke-linejoin="round" stroke-width="2.000000"
	d="
M220.000000,52.000000 
	C223.621475,54.834618 220.979828,59.946728 223.998871,63.082420 
	C236.551331,59.463432 246.124496,51.601460 254.500000,42.000000 
"/>
<path fill="none" opacity="1.000000" stroke="#000000" stroke-linecap="round" stroke-linejoin="round" stroke-width="2.000000"
	d="
M208.000000,62.000000 
	C211.471115,65.950867 211.333755,70.648880 211.072998,75.503922 
	C210.911819,78.504951 209.154495,81.415993 210.500000,84.500000 
"/>
<path fill="none" opacity="1.000000" stroke="#000000" stroke-linecap="round" stroke-linejoin="round" stroke-width="2.000000"
	d="
M180.500000,125.500000 
	C180.750076,126.666664 179.731155,127.576256 180.343430,129.064423 
	C181.126602,130.967880 182.872040,133.499344 180.923782,135.422791 
	C178.576309,137.740402 175.335098,138.725922 172.013229,138.374863 
	C171.242767,138.293442 170.333023,138.168228 169.500000,138.000000 
"/>
<path fill="none" opacity="1.000000" stroke="#000000" stroke-linecap="round" stroke-linejoin="round" stroke-width="3.000000"
	d="
M180.500015,55.499996 
	C181.166672,56.666660 181.546219,58.259842 182.545456,58.932503 
	C190.513367,64.296349 193.228088,74.425400 201.384888,79.678741 
	C202.038498,80.099686 203.199280,81.857384 203.639786,83.461617 
	C204.208969,85.534332 205.932617,87.120071 208.500000,87.000000 
"/>
<path fill="none" opacity="1.000000" stroke="#000000" stroke-linecap="round" stroke-linejoin="round" stroke-width="3.000000"
	d="
M157.000000,128.500000 
	C157.000000,131.166672 157.558594,133.979462 156.905640,136.475311 
	C153.659256,148.884460 159.964523,157.610321 173.000000,159.500000 
"/>
<path fill="none" opacity="1.000000" stroke="#000000" stroke-linecap="round" stroke-linejoin="round" stroke-width="3.000000"
	d="
M249.500000,114.000000 
	C254.264145,119.681862 253.598404,127.670700 248.000000,132.000000 
"/>
<path fill="none" opacity="1.000000" stroke="#000000" stroke-linecap="round" stroke-linejoin="round" stroke-width="3.000000"
	d="
M225.500000,102.500000 
	C230.862991,102.527901 235.033890,98.584274 240.487686,98.279533 
	C244.162262,98.074226 247.286697,98.153214 249.418289,101.059914 
	C251.479172,103.870201 252.718918,106.988251 250.107407,110.578133 
	C248.854843,112.299988 248.479462,114.683899 246.500000,116.000000 
"/>
<path fill="none" opacity="1.000000" stroke="#000000" stroke-linecap="round" stroke-linejoin="round" stroke-width="2.000000"
	d="
M251.500000,39.500000 
	C246.766357,45.557430 241.037292,50.486713 234.500000,54.500000 
"/>
<path fill="none" opacity="1.000000" stroke="#000000" stroke-linecap="round" stroke-linejoin="round" stroke-width="3.000000"
	d="
M172.500000,68.500000 
	C177.105865,71.648636 179.381699,76.664429 182.443771,81.039360 
	C182.702148,81.408524 182.166656,82.333336 182.000000,83.000000 
"/>
<path fill="none" opacity="1.000000" stroke="#000000" stroke-linecap="round" stroke-linejoin="round" stroke-width="2.000000"
	d="
M221.000000,34.500000 
	C222.838318,40.054375 227.430786,43.883335 230.076721,48.960018 
	C231.178360,51.073700 234.234589,50.530823 236.000000,52.000000 
"/>
<path fill="none" opacity="1.000000" stroke="#000000" stroke-linecap="round" stroke-linejoin="round" stroke-width="2.000000"
	d="
M168.500000,105.500000 
	C171.046280,106.414825 170.473557,108.596687 170.489700,110.500084 
	C170.523636,114.499802 170.500000,118.500000 170.500000,122.500000 
"/>
<path fill="none" opacity="1.000000" stroke="#000000" stroke-linecap="round" stroke-linejoin="round" stroke-width="2.000000"
	d="
M182.500000,144.500000 
	C176.396072,145.365692 170.816208,148.589615 164.500000,148.500000 
"/>
<path fill="none" opacity="1.000000" stroke="#000000" stroke-linecap="round" stroke-linejoin="round" stroke-width="3.000000"
	d="
M221.000000,91.500000 
	C219.331772,93.999802 220.063248,96.818863 220.050964,99.500237 
	C220.041229,101.625000 221.530548,102.290565 223.500000,102.000000 
"/>
<path fill="none" opacity="1.000000" stroke="#000000" stroke-linecap="round" stroke-linejoin="round" stroke-width="3.000000"
	d="
M230.000000,49.500000 
	C225.314575,50.591648 219.945404,48.948265 216.000000,53.000000 
"/>
<path fill="none" opacity="1.000000" stroke="#000000" stroke-linecap="round" stroke-linejoin="round" stroke-width="2.000000"
	d="
M174.000000,61.000000 
	C177.163696,63.177048 179.788696,67.239578 184.500000,64.000000 
"/>
<path fill="none" opacity="1.000000" stroke="#000000" stroke-linecap="round" stroke-linejoin="round" stroke-width="3.000000"
	d="
M221.500000,102.500000 
	C220.274490,107.477379 221.103851,111.993797 225.068329,115.420959 
	C226.147415,116.353806 227.630264,117.294060 229.506287,117.047844 
	C233.222366,116.560135 236.239853,118.002014 238.500000,121.000000 
"/>
<path fill="none" opacity="1.000000" stroke="#000000" stroke-linecap="round" stroke-linejoin="round" stroke-width="3.000000"
	d="
M243.500000,80.500000 
	C246.802002,85.000000 247.054550,89.557381 243.447281,93.956772 
	C242.619690,94.966087 242.433090,95.866585 242.500000,97.000000 
"/>
<path fill="none" opacity="1.000000" stroke="#000000" stroke-linecap="round" stroke-linejoin="round" stroke-width="2.000000"
	d="
M203.500000,42.500000 
	C200.709488,45.264988 198.450699,48.216076 200.000000,52.500000 
"/>
<path fill="none" opacity="1.000000" stroke="#000000" stroke-linecap="round" stroke-linejoin="round" stroke-width="2.000000"
	d="
M212.500000,51.500000 
	C208.929520,53.442326 207.002640,56.220215 207.459366,60.504333 
	C207.770325,63.420986 205.963882,65.685547 204.500000,68.000000 
"/>
<path fill="none" opacity="1.000000" stroke="#000000" stroke-linecap="round" stroke-linejoin="round" stroke-width="2.000000"
	d="
M211.500000,32.500000 
	C209.881577,34.687847 207.572296,35.378880 205.000000,35.500000 
"/>
<path fill="none" opacity="1.000000" stroke="#000000" stroke-linecap="round" stroke-linejoin="round" stroke-width="2.000000"
	d="
M209.000000,93.500000 
	C206.833328,93.833336 204.666672,94.166664 202.500000,94.500000 
"/>
<path fill="none" opacity="1.000000" stroke="#000000" stroke-linecap="round" stroke-linejoin="round" stroke-width="2.000000"
	d="
M195.000000,98.500000 
	C193.219482,100.336662 190.883209,100.969162 188.500000,101.500000 
"/>
<path fill="none" opacity="1.000000" stroke="#000000" stroke-linecap="round" stroke-linejoin="round" stroke-width="4.000000"
	d="
M245.000000,118.000000 
	C243.985886,114.136093 241.098221,113.456642 236.500000,116.000000 
"/>
<path fill="none" opacity="1.000000" stroke="#000000" stroke-linecap="round" stroke-linejoin="round" stroke-width="2.000000"
	d="
M179.500000,150.500000 
	C177.333328,151.333328 175.166656,152.166656 173.000000,153.000000 
"/>
<path fill="none" opacity="1.000000" stroke="#000000" stroke-linecap="round" stroke-linejoin="round" stroke-width="2.000000"
	d="
M199.500000,68.000000 
	C197.751007,71.048225 195.130661,68.432587 193.000000,69.000000 
"/>
<path fill="none" opacity="1.000000" stroke="#000000" stroke-linecap="round" stroke-linejoin="round" stroke-width="2.000000"
	d="
M167.000000,129.500000 
	C165.012131,129.187698 162.837296,131.119202 161.000000,129.000000 
"/>
<path fill="none" opacity="1.000000" stroke="#000000" stroke-linecap="round" stroke-linejoin="round" stroke-width="3.000000"
	d="
M163.500000,146.500000 
	C161.500000,145.890091 159.500000,145.518387 157.500000,146.500000 
"/>
<path fill="none" opacity="1.000000" stroke="#000000" stroke-linecap="round" stroke-linejoin="round" stroke-width="3.000000"
	d="
M176.500000,113.500000 
	C177.271667,115.464996 176.245209,118.029373 178.500000,119.500000 
"/>
<path fill="none" opacity="1.000000" stroke="#000000" stroke-linecap="round" stroke-linejoin="round" stroke-width="2.000000"
	d="
M201.500000,53.000000 
	C199.445435,53.809414 198.924438,55.811596 198.000000,57.500000 
"/>
<path fill="none" opacity="1.000000" stroke="#000000" stroke-linecap="round" stroke-linejoin="round" stroke-width="2.000000"
	d="
M206.500000,90.000000 
	C205.585587,91.617134 203.150513,89.179153 202.500000,91.500000 
"/>
<path fill="none" opacity="1.000000" stroke="#000000" stroke-linecap="round" stroke-linejoin="round" stroke-width="2.000000"
	d="
M173.500000,96.500000 
	C172.316895,97.696007 172.716812,100.079269 170.500000,100.500000 
"/>
<path fill="none" opacity="1.000000" stroke="#000000" stroke-linecap="round" stroke-linejoin="round" stroke-width="2.000000"
	d="
M192.500000,95.000000 
	C192.013016,96.448952 189.534683,95.508293 189.500000,97.500000 
"/>
<path fill="none" opacity="1.000000" stroke="#000000" stroke-linecap="round" stroke-linejoin="round" stroke-width="2.000000"
	d="
M181.500000,117.500000 
	C179.970444,118.825584 177.229828,119.074661 177.500000,122.000000 
"/>
</svg>