<svg version="1.1" id="Layer_1" xmlns="http://www.w3.org/2000/svg" xmlns:xlink="http://www.w3.org/1999/xlink" x="0px" y="0px"
	 width="100%" viewBox="0 0 388 235" enable-background="new 0 0 388 235" xml:space="preserve">
<path fill="none" opacity="1.000000" stroke="#000000" stroke-linecap="round" stroke-linejoin="round" stroke-width="3.000000"
	d="
M116.000000,78.500000 
	C115.985527,72.259697 116.040375,66.003464 118.027672,60.009174 
	C120.294151,53.172756 122.069702,46.276398 121.480713,39.001560 
	C121.115570,34.491436 119.757805,30.278595 115.453430,28.091661 
	C113.311882,27.003601 110.428696,26.181654 109.504448,30.001076 
	C107.215424,39.460400 102.497009,47.728863 97.699432,56.114101 
	C94.337402,61.990276 95.313469,69.320061 94.653084,76.015099 
	C94.417397,78.404633 94.190094,81.042023 93.322762,82.918060 
	C89.726807,90.696167 92.426231,98.345268 93.056473,105.995346 
	C94.338585,121.558067 94.307518,136.207932 82.693550,149.173370 
	C68.871582,164.603745 56.506927,181.338928 43.484692,197.487656 
	C42.602013,198.582260 41.500004,199.500000 40.500004,200.500000 
"/>
<path fill="none" opacity="1.000000" stroke="#000000" stroke-linecap="round" stroke-linejoin="round" stroke-width="3.000000"
	d="
M140.000000,87.500000 
	C144.995514,87.099434 149.807465,83.993439 155.008011,86.483261 
	C155.279175,86.613098 155.721970,86.614243 155.992035,86.483536 
	C167.140228,81.088043 174.937866,88.356178 183.556900,93.402824 
	C191.664352,98.149925 197.335770,104.773758 202.756149,112.315910 
	C206.959320,118.164421 211.819687,123.855354 217.080200,128.916641 
	C223.522934,135.115356 228.568314,141.693024 229.616364,150.986877 
	C230.205307,156.209579 234.043411,160.387833 235.616425,165.463928 
	C238.266068,174.014282 239.625549,182.822021 241.764954,191.434189 
	C244.186996,201.184189 249.685867,209.905426 254.984451,218.509583 
	C255.763092,219.773956 256.333344,221.166672 257.000000,222.500000 
"/>
<path fill="none" opacity="1.000000" stroke="#000000" stroke-linecap="round" stroke-linejoin="round" stroke-width="3.000000"
	d="
M305.999969,119.500008 
	C304.333313,112.166672 302.915253,104.765099 300.926483,97.520180 
	C299.123871,90.953499 299.141083,84.788437 303.015930,79.010689 
	C307.192230,72.783424 308.115082,65.452271 309.862915,58.465706 
	C310.952911,54.108646 314.213989,51.095093 315.633026,47.161621 
	C313.947754,45.120750 311.446503,45.261536 310.081146,46.127892 
	C305.138794,49.263912 300.733459,53.058697 299.991455,59.499016 
	C299.478241,63.953957 297.019745,66.372604 292.000000,67.500000 
"/>
<path fill="none" opacity="1.000000" stroke="#000000" stroke-linecap="round" stroke-linejoin="round" stroke-width="3.000000"
	d="
M202.000000,22.500000 
	C201.333328,21.166666 200.752853,19.781189 199.983658,18.509888 
	C197.764496,14.842122 194.310928,13.811239 189.989441,14.960296 
	C183.944077,16.567713 179.571991,20.714014 175.026794,24.531906 
	C160.384079,36.831566 146.493210,49.932785 132.808777,63.304306 
	C127.094574,68.887848 121.898590,75.099510 115.461990,80.274666 
	C115.712029,81.702065 115.939034,83.397469 117.500000,84.500000 
"/>
<path fill="none" opacity="1.000000" stroke="#000000" stroke-linecap="round" stroke-linejoin="round" stroke-width="6.000000"
	d="
M105.000000,123.500000 
	C105.293549,128.965790 104.199509,134.454514 107.892502,139.577484 
	C113.033333,146.708908 126.726974,148.451141 131.925659,141.940643 
	C132.786850,140.862137 132.778702,139.014908 132.980713,137.497437 
	C133.875793,130.773621 134.400009,130.186401 141.000000,129.000000 
"/>
<path fill="none" opacity="1.000000" stroke="#000000" stroke-linecap="round" stroke-linejoin="round" stroke-width="3.000000"
	d="
M140.000000,173.500000 
	C142.156113,175.407776 141.920212,177.989975 142.007278,180.499741 
	C142.205261,186.206055 144.377335,191.343552 148.579681,194.906006 
	C159.615692,204.261627 169.576477,215.002472 182.500000,222.000000 
"/>
<path fill="none" opacity="1.000000" stroke="#000000" stroke-linecap="round" stroke-linejoin="round" stroke-width="3.000000"
	d="
M133.000000,143.500000 
	C135.845108,145.419083 134.136597,148.533127 134.891785,151.032700 
	C136.724564,157.098816 137.675964,163.441833 139.683990,169.438385 
	C140.345032,171.412445 140.100403,172.093643 139.047852,173.534943 
	C126.775169,190.340637 113.317841,206.312592 103.000000,224.500000 
"/>
<path fill="none" opacity="1.000000" stroke="#000000" stroke-linecap="round" stroke-linejoin="round" stroke-width="3.000000"
	d="
M155.500000,71.000000 
	C161.166656,64.666664 166.803116,58.305981 172.506866,52.006207 
	C181.776001,41.768467 192.550690,33.079121 202.257614,23.254524 
	C208.933975,16.497232 214.100952,17.582735 218.907196,23.574448 
	C221.037552,26.230247 221.527206,29.661892 218.499069,32.499012 
	C216.003571,34.837135 213.673859,37.394913 210.967041,39.456738 
	C203.192856,45.378468 196.715652,52.540844 190.485413,59.987793 
	C184.720566,66.878433 178.833344,73.666672 173.000015,80.500008 
"/>
<path fill="none" opacity="1.000000" stroke="#000000" stroke-linecap="round" stroke-linejoin="round" stroke-width="3.000000"
	d="
M174.500000,140.000000 
	C170.329376,135.893265 168.137161,130.476990 165.641357,125.430092 
	C161.145050,116.337807 153.607651,109.666908 147.806671,101.639709 
	C145.728424,98.763901 141.515442,96.468765 137.523270,97.138680 
	C131.441040,98.159302 129.538696,104.728760 132.992416,111.004173 
	C135.365295,115.315742 137.629944,119.686920 140.006866,123.996216 
	C147.315643,137.246872 151.416443,151.715683 155.986481,166.004318 
	C157.310120,170.142822 158.172180,174.333328 156.000000,178.500000 
"/>
<path fill="none" opacity="1.000000" stroke="#000000" stroke-linecap="round" stroke-linejoin="round" stroke-width="3.000000"
	d="
M217.500000,57.000000 
	C223.285461,61.819859 223.693604,63.551781 220.497787,69.998901 
	C215.445801,80.190582 207.829224,88.566010 201.011719,97.508942 
	C199.597565,99.363991 198.333344,101.333336 197.000000,103.250008 
"/>
<path fill="none" opacity="1.000000" stroke="#000000" stroke-linecap="round" stroke-linejoin="round" stroke-width="2.000000"
	d="
M274.250000,63.000000 
	C272.815674,60.794464 270.202942,59.492115 268.092712,61.120167 
	C262.542847,65.401970 255.300095,66.672813 250.130249,71.150391 
	C245.985931,74.739777 242.597931,79.408005 239.601593,84.065361 
	C235.841461,89.909904 231.305267,94.765999 225.500000,98.500000 
"/>
<path fill="none" opacity="1.000000" stroke="#000000" stroke-linecap="round" stroke-linejoin="round" stroke-width="3.000000"
	d="
M220.500000,31.500000 
	C228.457855,34.880142 230.354034,41.470192 223.030289,48.531422 
	C217.007904,54.337971 211.636078,60.769436 205.627777,66.630981 
	C199.148529,72.951988 193.650558,80.279518 187.006607,86.507050 
	C185.216431,88.185028 184.002213,90.279251 183.000000,92.500000 
"/>
<path fill="none" opacity="1.000000" stroke="#000000" stroke-linecap="round" stroke-linejoin="round" stroke-width="2.000000"
	d="
M275.500000,23.500000 
	C280.110382,20.028210 280.437775,19.822187 283.415100,24.553421 
	C286.942963,30.159454 290.413757,35.939320 292.815948,42.072090 
	C294.730835,46.960804 297.065796,51.639439 299.000000,56.500000 
"/>
<path fill="none" opacity="1.000000" stroke="#000000" stroke-linecap="round" stroke-linejoin="round" stroke-width="3.000000"
	d="
M195.000000,129.500000 
	C189.291809,122.610428 186.523407,114.062370 182.059723,106.464912 
	C179.857208,102.716103 176.787247,100.568916 173.158859,98.251297 
	C168.179276,95.070610 161.864166,92.902817 159.500000,86.500000 
"/>
<path fill="none" opacity="1.000000" stroke="#000000" stroke-linecap="round" stroke-linejoin="round" stroke-width="3.000000"
	d="
M261.500000,35.500000 
	C258.032898,35.781502 257.211487,38.079182 257.527161,40.997063 
	C257.947021,44.878262 259.760071,48.355900 260.987762,52.004120 
	C262.046722,55.150944 263.000000,58.333332 264.000000,61.500000 
"/>
<path fill="none" opacity="1.000000" stroke="#000000" stroke-linecap="round" stroke-linejoin="round" stroke-width="3.000000"
	d="
M271.000000,56.000000 
	C268.002075,47.767899 263.589783,40.081318 261.511169,31.497297 
	C260.808167,28.594194 259.855865,25.535969 264.492706,24.942984 
	C265.211548,24.851055 265.843872,24.013353 266.498291,23.497841 
	C270.843567,20.075024 273.819489,20.810438 275.984344,26.006521 
	C279.376648,34.148617 282.666656,42.333332 286.000000,50.499996 
"/>
<path fill="none" opacity="1.000000" stroke="#000000" stroke-linecap="round" stroke-linejoin="round" stroke-width="2.000000"
	d="
M266.000000,25.500000 
	C270.708435,33.779602 274.516754,42.457329 277.500000,51.500000 
"/>
<path fill="none" opacity="1.000000" stroke="#000000" stroke-linecap="round" stroke-linejoin="round" stroke-width="7.000000"
	d="
M139.000000,96.500000 
	C139.353836,93.669014 139.707657,90.838020 140.059784,88.020576 
	C132.057373,85.266365 124.018829,89.285637 116.000000,100.000000 
"/>
<path fill="none" opacity="1.000000" stroke="#000000" stroke-linecap="round" stroke-linejoin="round" stroke-width="2.000000"
	d="
M276.000000,103.500000 
	C269.105804,105.474701 262.761108,109.182487 255.500000,110.000000 
"/>
<path fill="none" opacity="1.000000" stroke="#000000" stroke-linecap="round" stroke-linejoin="round" stroke-width="3.000000"
	d="
M292.500000,68.500000 
	C293.851898,70.838394 292.690979,72.370705 291.030853,74.030846 
	C285.861572,79.200211 280.224976,83.900078 275.901825,89.929604 
	C274.384644,92.045631 272.874298,94.050842 272.000000,96.500000 
"/>
<path fill="none" opacity="1.000000" stroke="#000000" stroke-linecap="round" stroke-linejoin="round" stroke-width="2.000000"
	d="
M137.500000,132.000000 
	C139.223251,133.005600 139.337219,134.956787 139.943298,136.521957 
	C141.856873,141.463730 141.570068,144.549133 135.000000,145.500000 
"/>
<path fill="none" opacity="1.000000" stroke="#000000" stroke-linecap="round" stroke-linejoin="round" stroke-width="3.000000"
	d="
M286.000000,80.500000 
	C287.850739,84.479500 285.251312,87.654770 283.915344,90.965851 
	C283.231506,92.660667 281.761963,94.087456 280.481171,95.482727 
	C277.312500,98.934700 276.051575,102.801903 276.948120,107.509880 
	C277.700653,111.461792 278.000000,115.500000 278.500000,119.500000 
"/>
<path fill="none" opacity="1.000000" stroke="#000000" stroke-linecap="round" stroke-linejoin="round" stroke-width="2.000000"
	d="
M110.000000,31.000000 
	C114.013077,35.609707 112.200363,41.274426 106.000000,43.500000 
"/>
<path fill="none" opacity="1.000000" stroke="#000000" stroke-linecap="round" stroke-linejoin="round" stroke-width="2.000000"
	d="
M158.500000,117.000000 
	C154.751694,120.190094 149.906204,120.210503 145.500000,121.500000 
"/>
<path fill="none" opacity="1.000000" stroke="#000000" stroke-linecap="round" stroke-linejoin="round" stroke-width="2.000000"
	d="
M176.500000,104.500000 
	C172.555298,105.999214 168.746414,107.905930 164.500000,108.500000 
"/>
<path fill="none" opacity="1.000000" stroke="#000000" stroke-linecap="round" stroke-linejoin="round" stroke-width="3.000000"
	d="
M204.000000,115.500000 
	C202.799301,120.271492 206.647125,122.977692 208.500000,126.500000 
"/>
<path fill="none" opacity="1.000000" stroke="#000000" stroke-linecap="round" stroke-linejoin="round" stroke-width="3.000000"
	d="
M291.500000,67.500000 
	C282.987366,68.423401 276.998627,73.553253 271.500000,79.500000 
"/>
<path fill="none" opacity="1.000000" stroke="#000000" stroke-linecap="round" stroke-linejoin="round" stroke-width="8.000000"
	d="
M124.500000,103.000000 
	C123.833336,102.833336 123.157257,102.491173 122.501411,102.526329 
	C112.713097,103.050980 111.511772,97.756767 109.500000,91.500000 
"/>
<path fill="none" opacity="1.000000" stroke="#000000" stroke-linecap="round" stroke-linejoin="round" stroke-width="3.000000"
	d="
M273.000000,64.000000 
	C270.058228,66.784851 267.549927,70.118782 263.500000,71.500000 
"/>
<path fill="none" opacity="1.000000" stroke="#000000" stroke-linecap="round" stroke-linejoin="round" stroke-width="2.000000"
	d="
M144.500000,152.500000 
	C142.940765,155.577820 140.208710,156.896393 137.000000,157.500000 
"/>
<path fill="none" opacity="1.000000" stroke="#000000" stroke-linecap="round" stroke-linejoin="round" stroke-width="3.000000"
	d="
M172.500000,99.000000 
	C169.982819,102.373711 166.319839,102.882912 162.500000,103.000000 
"/>
<path fill="none" opacity="1.000000" stroke="#000000" stroke-linecap="round" stroke-linejoin="round" stroke-width="2.000000"
	d="
M186.500000,103.500000 
	C188.931839,104.712425 191.184464,103.415802 193.500000,103.000000 
"/>
<path fill="none" opacity="1.000000" stroke="#000000" stroke-linecap="round" stroke-linejoin="round" stroke-width="2.000000"
	d="
M143.500000,157.500000 
	C142.667877,160.335571 139.669708,159.200012 138.000000,160.500000 
"/>
<path fill="none" opacity="1.000000" stroke="#000000" stroke-linecap="round" stroke-linejoin="round" stroke-width="2.000000"
	d="
M153.500000,88.000000 
	C151.500000,89.166664 149.500000,90.333336 147.500000,91.500000 
"/>
<path fill="none" opacity="1.000000" stroke="#000000" stroke-linecap="round" stroke-linejoin="round" stroke-width="2.000000"
	d="
M171.000000,88.000000 
	C169.138687,88.948715 166.882843,89.174118 165.500000,91.000000 
"/>
<path fill="none" opacity="1.000000" stroke="#000000" stroke-linecap="round" stroke-linejoin="round" stroke-width="2.000000"
	d="
M189.500000,99.000000 
	C187.833328,99.500000 186.166672,100.000000 184.500000,100.500000 
"/>
</svg>