<svg version="1.1" id="Layer_1" xmlns="http://www.w3.org/2000/svg" xmlns:xlink="http://www.w3.org/1999/xlink" x="0px" y="0px"
	 width="100%" viewBox="0 0 389 235" enable-background="new 0 0 389 235" xml:space="preserve">
<path fill="none" opacity="1.000000" stroke="#000000" stroke-linecap="round" stroke-linejoin="round" stroke-width="3.000000"
	d="
M162.000000,30.000000 
	C154.062454,26.912489 148.825302,29.825239 147.473587,37.995632 
	C147.191238,39.702297 146.571640,41.353165 145.961319,43.557545 
	C143.393723,40.749245 139.920731,41.694519 136.968185,40.584652 
	C135.331894,39.969570 134.642593,41.722458 133.995590,42.997765 
	C132.434998,46.073910 129.692917,46.590248 126.516937,47.104603 
	C118.133568,48.462307 109.803734,50.199066 101.506294,52.028553 
	C85.318161,55.597843 69.169029,59.343819 52.998775,62.994587 
	C46.950371,64.360138 46.634914,65.214256 47.443722,71.507233 
	C49.454361,87.151184 51.941914,102.718819 53.156494,118.487946 
	C54.551571,136.600449 56.285168,154.781021 65.949211,171.030197 
	C72.697479,182.376770 82.087776,190.658920 93.482445,197.031387 
	C107.045364,204.616440 121.631561,208.314041 136.987717,210.105240 
	C157.080704,212.448929 176.563110,209.377594 195.999847,204.999344 
	C197.258301,204.715881 197.986115,203.189835 199.500000,203.500000 
"/>
<path fill="none" opacity="1.000000" stroke="#000000" stroke-linecap="round" stroke-linejoin="round" stroke-width="2.000000"
	d="
M166.000000,68.500000 
	C164.532288,74.056511 159.191391,73.458572 155.458145,74.318230 
	C139.733337,77.939224 124.170349,82.182121 108.496170,85.984207 
	C97.336250,88.691277 87.774513,94.262955 80.609085,103.088562 
	C73.586403,111.738342 73.010696,122.245399 73.940849,133.005112 
	C75.102509,146.442627 78.593575,158.843231 88.000000,169.000000 
"/>
<path fill="none" opacity="1.000000" stroke="#000000" stroke-linecap="round" stroke-linejoin="round" stroke-width="3.000000"
	d="
M328.500000,134.500000 
	C321.500000,130.166672 314.209412,126.229164 307.593689,121.372375 
	C302.475708,117.615112 297.542999,113.678108 292.025482,110.456367 
	C274.653076,100.312469 259.364166,87.343307 244.015594,74.481392 
	C237.862518,69.325195 231.128952,65.181824 224.064148,61.380764 
	C219.181168,58.753597 214.395401,59.900032 209.500000,60.000000 
"/>
<path fill="none" opacity="1.000000" stroke="#000000" stroke-linecap="round" stroke-linejoin="round" stroke-width="2.000000"
	d="
M91.000000,172.000000 
	C103.475433,183.356354 118.612885,187.975952 134.988541,190.088867 
	C153.506439,192.478165 171.622482,191.272903 189.500000,186.000000 
"/>
<path fill="none" opacity="1.000000" stroke="#000000" stroke-linecap="round" stroke-linejoin="round" stroke-width="2.000000"
	d="
M324.500000,134.000000 
	C316.542572,152.400192 300.679016,162.158508 283.995178,170.990891 
	C270.720490,178.018448 256.903290,183.857758 243.000000,189.500000 
"/>
<path fill="none" opacity="1.000000" stroke="#000000" stroke-linecap="round" stroke-linejoin="round" stroke-width="3.000000"
	d="
M213.500000,30.000000 
	C216.328934,27.570354 219.125931,29.224571 221.451523,30.582985 
	C227.594666,34.171268 234.354462,37.294819 239.331192,42.172256 
	C251.623734,54.219616 267.860077,56.366745 282.972198,61.580559 
	C295.876312,66.032593 309.135376,69.544762 321.499268,75.501534 
	C323.120972,76.282852 325.143250,76.058578 326.500000,77.500000 
"/>
<path fill="none" opacity="1.000000" stroke="#000000" stroke-linecap="round" stroke-linejoin="round" stroke-width="2.000000"
	d="
M307.000000,123.500000 
	C302.018127,140.778503 287.768250,148.655258 273.497467,156.495377 
	C261.572632,163.046661 249.131485,168.482269 236.500000,173.500000 
"/>
<path fill="none" opacity="1.000000" stroke="#000000" stroke-linecap="round" stroke-linejoin="round" stroke-width="2.000000"
	d="
M241.500000,45.500000 
	C237.290344,46.490986 233.952118,43.784344 230.575882,42.324509 
	C223.145920,39.111900 216.332489,34.640003 209.975128,29.530952 
	C207.414093,27.472797 204.630539,26.878666 201.056412,26.486240 
	C195.798615,25.908957 190.275665,25.976099 184.929810,24.212803 
	C177.488388,21.758299 170.290894,18.114492 161.997009,18.418549 
	C150.248154,18.849264 146.949005,24.458437 144.580627,32.523678 
	C143.743149,35.375629 143.833328,38.500000 143.500000,41.500000 
"/>
<path fill="none" opacity="1.000000" stroke="#000000" stroke-linecap="round" stroke-linejoin="round" stroke-width="3.000000"
	d="
M164.500000,72.500000 
	C165.668274,79.666664 167.946396,86.783783 164.610931,94.050911 
	C164.082077,95.203133 164.701584,96.936424 165.355179,98.558357 
	C171.030701,112.642448 176.175049,126.951233 180.358948,141.540451 
	C182.346680,148.471664 182.648361,155.869568 184.043945,162.991394 
	C186.068420,173.322479 189.742142,183.111664 194.493851,192.503113 
	C197.858841,199.153763 201.166656,205.833344 204.500000,212.500000 
"/>
<path fill="none" opacity="1.000000" stroke="#000000" stroke-linecap="round" stroke-linejoin="round" stroke-width="3.000000"
	d="
M191.500000,84.500000 
	C198.302750,81.415573 200.975204,73.916031 206.978622,69.991714 
	C212.421143,72.101364 212.416977,72.098892 209.502945,77.001755 
	C208.773376,78.229271 208.229172,79.515625 208.531708,81.005264 
	C210.249832,81.249496 211.581543,80.198051 212.987381,79.475464 
	C214.352371,78.773865 215.649399,78.741753 216.447403,80.032516 
	C217.153488,81.174568 218.083878,82.254173 217.077789,84.043732 
	C214.998917,87.741394 211.817368,90.521294 209.454758,93.968994 
	C207.858627,96.298210 205.779526,98.290504 204.012772,100.510155 
	C201.432678,103.751633 199.895523,107.457909 201.569809,111.470879 
	C203.687500,116.546730 201.479706,120.694527 199.314438,125.405464 
	C208.124283,136.033401 215.636154,147.902435 225.430237,158.067230 
	C234.054855,167.018295 238.743423,178.320831 242.495255,190.001526 
	C244.217392,195.363068 246.998047,199.880005 251.449585,203.560974 
	C258.823608,209.658524 267.303345,213.043427 276.500000,215.000000 
"/>
<path fill="none" opacity="1.000000" stroke="#000000" stroke-linecap="round" stroke-linejoin="round" stroke-width="2.000000"
	d="
M176.000000,130.500000 
	C171.515060,130.529984 166.891861,130.047867 163.498016,133.998306 
	C160.397797,137.606979 160.713058,142.250427 164.521851,144.969391 
	C169.590561,148.587784 175.145905,149.254639 181.000000,147.000000 
"/>
<path fill="none" opacity="1.000000" stroke="#000000" stroke-linecap="round" stroke-linejoin="round" stroke-width="3.000000"
	d="
M185.500000,92.500000 
	C188.130981,89.459198 190.876129,86.716843 190.731155,81.992905 
	C190.671097,80.035667 193.026321,77.885361 194.539871,76.032570 
	C196.023514,74.216393 197.816269,72.649132 199.505264,71.005402 
	C200.924850,69.623863 202.204041,67.867355 201.390686,66.048889 
	C200.481812,64.016846 198.339874,63.364571 195.998276,63.455391 
	C194.282425,63.521938 192.206863,64.224777 191.459427,61.511177 
	C190.769470,59.006260 187.966370,56.713352 191.000000,54.000000 
"/>
<path fill="none" opacity="1.000000" stroke="#000000" stroke-linecap="round" stroke-linejoin="round" stroke-width="2.000000"
	d="
M129.000000,47.500000 
	C129.500534,53.876167 131.841324,58.832550 138.479263,61.061741 
	C142.415131,62.383507 145.810852,61.702900 147.898300,58.435032 
	C150.880981,53.765678 155.147217,53.034851 159.999222,52.953384 
	C161.171158,52.933701 162.333328,52.333340 163.500000,52.000004 
"/>
<path fill="none" opacity="1.000000" stroke="#000000" stroke-linecap="round" stroke-linejoin="round" stroke-width="3.000000"
	d="
M191.000000,50.000000 
	C191.509857,54.821198 196.201920,54.596779 199.073868,56.381107 
	C202.076538,58.246655 205.667557,59.164474 208.992722,60.517899 
	C209.050919,60.541584 209.059296,60.868240 208.986420,60.992004 
	C208.870636,61.188633 208.666656,61.333332 208.500000,61.499996 
"/>
<path fill="none" opacity="1.000000" stroke="#000000" stroke-linecap="round" stroke-linejoin="round" stroke-width="2.000000"
	d="
M134.000000,49.500000 
	C134.692230,51.354797 135.557175,52.820496 138.005280,52.547245 
	C139.717270,52.356159 140.636429,51.368996 140.936768,49.986267 
	C141.257095,48.511608 140.893311,46.737263 139.468689,46.066505 
	C136.572083,44.702705 134.631516,45.796669 134.000000,49.000000 
"/>
<path fill="none" opacity="1.000000" stroke="#000000" stroke-linecap="round" stroke-linejoin="round" stroke-width="2.000000"
	d="
M184.000000,64.500000 
	C186.407791,72.096222 182.454865,77.629509 178.000000,83.000000 
"/>
<path fill="none" opacity="1.000000" stroke="#000000" stroke-linecap="round" stroke-linejoin="round" stroke-width="2.000000"
	d="
M188.500000,26.000000 
	C191.494827,30.101259 194.657715,34.026447 195.098450,39.492062 
	C195.324463,42.294796 195.373398,44.375584 193.766937,47.154327 
	C191.755173,50.634159 189.308670,49.054932 186.997330,49.485699 
	C185.678741,49.731445 184.333328,49.833332 183.000000,50.000000 
"/>
<path fill="none" opacity="1.000000" stroke="#000000" stroke-linecap="round" stroke-linejoin="round" stroke-width="2.000000"
	d="
M177.500000,135.000000 
	C174.102493,133.883347 170.767899,133.285141 167.488800,135.483292 
	C164.189285,137.695145 164.136383,141.377411 167.503357,143.494659 
	C171.655975,146.105957 175.833328,145.504227 180.000000,143.500000 
"/>
<path fill="none" opacity="1.000000" stroke="#000000" stroke-linecap="round" stroke-linejoin="round" stroke-width="2.000000"
	d="
M165.000000,81.500000 
	C160.117538,82.784042 154.431961,82.023796 150.580353,87.043327 
	C155.969040,90.768867 160.623642,85.418839 165.500000,86.500000 
"/>
<path fill="none" opacity="1.000000" stroke="#000000" stroke-linecap="round" stroke-linejoin="round" stroke-width="2.000000"
	d="
M164.500000,57.500000 
	C157.595520,65.345482 150.505600,66.956833 142.500000,62.500000 
"/>
<path fill="none" opacity="1.000000" stroke="#000000" stroke-linecap="round" stroke-linejoin="round" stroke-width="2.000000"
	d="
M192.000000,63.500000 
	C189.628799,68.265152 187.044449,72.959259 187.000000,78.500000 
"/>
<path fill="none" opacity="1.000000" stroke="#000000" stroke-linecap="round" stroke-linejoin="round" stroke-width="5.000000"
	d="
M208.000000,81.500000 
	C203.833328,86.333336 199.666672,91.166664 195.500000,96.000000 
"/>
<path fill="none" opacity="1.000000" stroke="#000000" stroke-linecap="round" stroke-linejoin="round" stroke-width="3.000000"
	d="
M164.500000,67.750000 
	C170.391922,65.869164 172.527756,66.240677 174.423264,70.038300 
	C175.145844,71.485992 175.414963,73.512657 175.343781,74.992485 
	C174.994339,82.257042 179.112503,87.181503 183.534790,91.967857 
	C185.833786,94.456139 187.335541,97.224327 188.000000,100.500000 
"/>
<path fill="none" opacity="1.000000" stroke="#000000" stroke-linecap="round" stroke-linejoin="round" stroke-width="2.000000"
	d="
M177.000000,39.000000 
	C172.075409,39.129406 168.010376,41.929832 164.150223,44.249935 
	C161.164352,46.044544 163.147812,49.370438 165.500000,51.500000 
"/>
<path fill="none" opacity="1.000000" stroke="#000000" stroke-linecap="round" stroke-linejoin="round" stroke-width="2.000000"
	d="
M163.000000,43.500000 
	C162.046066,42.691505 162.348587,41.045387 160.287231,40.788467 
	C157.433929,44.216518 152.258621,43.284145 148.000000,45.000000 
"/>
<path fill="none" opacity="1.000000" stroke="#000000" stroke-linecap="round" stroke-linejoin="round" stroke-width="2.000000"
	d="
M178.000000,44.500000 
	C174.786011,47.762432 169.763748,47.825607 166.500000,51.000000 
"/>
<path fill="none" opacity="1.000000" stroke="#000000" stroke-linecap="round" stroke-linejoin="round" stroke-width="2.000000"
	d="
M143.000000,61.000000 
	C140.764481,57.564144 138.493500,54.195671 133.500000,56.000000 
"/>
<path fill="none" opacity="1.000000" stroke="#000000" stroke-linecap="round" stroke-linejoin="round" stroke-width="2.000000"
	d="
M178.000000,53.500000 
	C173.691330,56.870628 169.760727,55.704651 166.000000,52.500000 
"/>
<path fill="none" opacity="1.000000" stroke="#000000" stroke-linecap="round" stroke-linejoin="round" stroke-width="5.000000"
	d="
M167.500000,31.500000 
	C167.994781,33.273968 169.621094,34.017647 170.992569,33.907459 
	C175.254318,33.565044 177.636139,34.459541 178.212753,39.475544 
	C178.597137,42.819321 181.612152,45.719078 181.500000,49.500000 
"/>
<path fill="none" opacity="1.000000" stroke="#000000" stroke-linecap="round" stroke-linejoin="round" stroke-width="2.000000"
	d="
M166.500000,31.000000 
	C165.262283,30.284206 163.971176,28.420490 162.566971,30.057453 
	C160.559860,32.397278 159.237106,35.198250 160.001694,38.499607 
	C160.156708,39.168972 160.333344,39.833332 160.500015,40.499996 
"/>
<path fill="none" opacity="1.000000" stroke="#000000" stroke-linecap="round" stroke-linejoin="round" stroke-width="3.000000"
	d="
M183.500000,62.500000 
	C180.008163,64.293633 179.283264,69.032722 175.250000,70.250000 
"/>
<path fill="none" opacity="1.000000" stroke="#000000" stroke-linecap="round" stroke-linejoin="round" stroke-width="2.000000"
	d="
M207.500000,62.000000 
	C205.500000,62.666668 203.500000,63.333332 201.500000,64.000000 
"/>
<path fill="none" opacity="1.000000" stroke="#000000" stroke-linecap="round" stroke-linejoin="round" stroke-width="2.000000"
	d="
M146.000000,51.500000 
	C144.500000,53.333332 143.000000,55.166668 141.500000,57.000000 
"/>
<path fill="none" opacity="1.000000" stroke="#000000" stroke-linecap="round" stroke-linejoin="round" stroke-width="2.000000"
	d="
M180.500000,50.250000 
	C185.024673,49.946598 183.356812,54.060165 184.326187,56.083282 
	C184.993500,57.476009 185.017319,59.743999 184.000000,61.500000 
"/>
</svg>