<svg version="1.1" id="Layer_1" xmlns="http://www.w3.org/2000/svg" xmlns:xlink="http://www.w3.org/1999/xlink" x="0px" y="0px"
	 width="100%" viewBox="0 0 386 237" enable-background="new 0 0 386 237" xml:space="preserve">
<path fill="none" opacity="1.000000" stroke="#000000" stroke-linecap="round" stroke-linejoin="round" stroke-width="3.000000"
	d="
M194.500000,134.500000 
	C194.507599,131.461182 196.414261,128.474396 197.799072,126.738602 
	C201.622833,121.945747 203.153412,116.297928 204.215424,110.943558 
	C205.900177,102.449524 208.622162,94.163177 209.543243,85.504601 
	C209.953934,81.644035 210.531570,77.748192 211.582581,74.023300 
	C212.692978,70.088020 211.114792,66.647453 210.529922,62.995209 
	C210.084183,60.211735 207.673386,60.091572 206.005035,60.148239 
	C203.650497,60.228210 202.512375,62.053997 201.331451,64.415718 
	C197.489594,72.099068 197.365540,80.872032 193.683136,88.587402 
	C193.047592,89.918999 192.399231,91.629646 191.920105,93.226021 
	C191.245544,95.473480 189.968399,97.449265 190.964523,100.013779 
	C193.626587,106.867378 192.629669,113.991364 191.908875,120.990616 
	C191.464218,125.308449 191.008804,129.387421 194.000000,133.000000 
"/>
<path fill="none" opacity="1.000000" stroke="#000000" stroke-linecap="round" stroke-linejoin="round" stroke-width="3.000000"
	d="
M125.500000,105.750000 
	C129.972183,116.183479 132.275955,127.320625 135.852371,138.049210 
	C137.273697,142.312958 137.324371,147.147491 135.346222,151.783768 
	C128.309738,150.977158 123.687546,146.397659 118.535080,142.947601 
	C115.406906,140.852997 112.257324,139.310867 108.544197,138.332306 
	C104.645721,137.304886 101.266144,138.619171 98.065193,139.694138 
	C94.198463,140.992691 93.819603,145.598938 97.044441,148.449722 
	C100.684898,151.667923 104.442924,154.856186 108.542946,157.431641 
	C119.784790,164.493332 128.003143,174.361526 136.207932,184.583099 
	C141.865707,191.631607 149.044830,197.765472 159.505020,197.076233 
	C163.907623,196.786133 166.278763,200.828796 169.484070,203.023270 
	C175.970642,207.464203 180.712921,213.794601 186.500000,219.000000 
"/>
<path fill="none" opacity="1.000000" stroke="#000000" stroke-linecap="round" stroke-linejoin="round" stroke-width="6.000000"
	d="
M78.500000,54.500000 
	C76.083473,53.286964 73.666946,52.073933 70.704735,50.586983 
	C70.468506,76.386948 77.583832,98.968597 91.500000,119.500000 
"/>
<path fill="none" opacity="1.000000" stroke="#000000" stroke-linecap="round" stroke-linejoin="round" stroke-width="3.000000"
	d="
M136.500000,91.000000 
	C139.110397,102.786797 146.776184,112.207611 151.405838,123.040245 
	C152.129364,124.733185 153.264450,125.535240 154.513687,126.773781 
	C158.566513,123.896469 156.666473,120.322968 155.982544,117.003593 
	C154.880890,111.656860 152.795563,106.344398 152.727661,100.997108 
	C152.648575,94.769241 151.649826,88.961716 150.189850,82.953865 
	C148.513992,76.057594 145.999817,69.426781 144.456223,62.509769 
	C143.846939,59.779430 141.919800,58.805981 138.996811,58.912327 
	C135.755249,59.030266 134.438583,60.947193 134.086533,63.511879 
	C133.704788,66.292816 133.475571,69.292023 134.116241,71.972214 
	C135.228455,76.625183 136.090958,81.318855 137.157944,85.963722 
	C137.592682,87.856331 136.842056,89.019485 136.500000,90.500000 
"/>
<path fill="none" opacity="1.000000" stroke="#000000" stroke-linecap="round" stroke-linejoin="round" stroke-width="3.000000"
	d="
M182.000000,83.500000 
	C180.735977,84.793182 180.179733,85.974976 180.893280,88.036926 
	C182.073135,91.446487 181.298935,95.310890 180.289352,98.431862 
	C178.149368,105.047379 178.028931,111.762283 177.495651,118.499657 
	C177.379425,119.968117 178.105865,121.768867 175.616974,122.917740 
	C172.300522,118.956192 170.490265,114.554138 170.534485,109.500305 
	C170.589981,103.158577 169.373962,97.161217 166.504013,91.497971 
	C164.257172,87.064339 164.511139,82.260315 164.500000,77.500000 
"/>
<path fill="none" opacity="1.000000" stroke="#000000" stroke-linecap="round" stroke-linejoin="round" stroke-width="6.000000"
	d="
M66.000000,10.250000 
	C78.356903,17.664303 87.452141,28.420250 95.399826,40.068352 
	C102.958328,51.146091 107.106232,63.921471 111.500000,76.500000 
"/>
<path fill="none" opacity="1.000000" stroke="#000000" stroke-linecap="round" stroke-linejoin="round" stroke-width="3.000000"
	d="
M123.000000,104.000000 
	C122.166672,102.833328 120.964371,101.779579 120.566551,100.479637 
	C119.159271,95.881226 115.787239,93.718521 111.500336,92.499626 
	C106.773315,95.782211 106.136848,98.342201 109.567635,104.462090 
	C112.750557,110.139839 116.462914,115.524086 120.014076,120.990860 
	C122.103653,124.207603 124.386192,127.298691 126.488731,130.507385 
	C130.559967,136.720520 132.780853,143.499100 132.500000,151.000000 
"/>
<path fill="none" opacity="1.000000" stroke="#000000" stroke-linecap="round" stroke-linejoin="round" stroke-width="3.000000"
	d="
M213.000000,176.250000 
	C222.988037,161.754257 237.764709,152.721100 251.924606,143.212967 
	C246.505936,134.114258 237.219818,133.152939 228.486145,139.982285 
	C222.253174,144.856171 216.338226,150.237152 208.986832,153.470047 
	C205.205521,155.132919 206.235489,158.488235 206.690750,160.964935 
	C207.155090,163.490997 207.504959,165.962357 207.480759,168.499817 
	C207.465836,170.066177 207.669342,171.305527 208.956848,172.544830 
	C216.102417,179.422974 219.613098,188.708099 224.305679,197.108551 
	C229.110504,205.709869 234.903839,213.339066 241.500000,220.500000 
"/>
<path fill="none" opacity="1.000000" stroke="#000000" stroke-linecap="round" stroke-linejoin="round" stroke-width="3.000000"
	d="
M206.000000,110.000000 
	C207.166672,110.166672 208.368942,110.206589 209.493652,110.522606 
	C213.683624,111.699821 215.127258,114.254028 213.990875,118.497551 
	C211.929932,126.193619 207.925766,133.304199 207.429001,141.495697 
	C207.182861,145.554703 206.239990,149.566391 208.000000,153.500000 
"/>
<path fill="none" opacity="1.000000" stroke="#000000" stroke-linecap="round" stroke-linejoin="round" stroke-width="3.000000"
	d="
M136.000000,185.500000 
	C132.746796,192.296234 130.008911,199.298141 125.619965,205.583771 
	C122.187881,210.499023 119.833328,216.166672 117.000000,221.500000 
"/>
<path fill="none" opacity="1.000000" stroke="#000000" stroke-linecap="round" stroke-linejoin="round" stroke-width="3.000000"
	d="
M288.000000,75.000000 
	C291.135468,78.513901 286.766266,80.144653 285.831085,82.430901 
	C283.744598,87.531715 281.279602,93.842278 276.372894,95.656197 
	C266.526367,99.296280 263.635498,107.665138 259.500000,115.500000 
"/>
<path fill="none" opacity="1.000000" stroke="#000000" stroke-linecap="round" stroke-linejoin="round" stroke-width="3.000000"
	d="
M243.000000,33.500000 
	C240.592468,38.422100 242.950836,43.164436 243.427170,48.007164 
	C243.843094,52.235477 246.388840,55.972027 245.642899,60.523418 
	C245.255997,62.884121 247.989929,64.295197 249.750732,66.363403 
	C252.216034,62.816578 251.103073,58.926327 250.790970,55.519146 
	C250.526627,52.633175 250.342468,51.076962 253.447952,49.866474 
	C255.384842,49.111492 255.961212,46.946667 255.579773,44.487625 
	C254.729172,39.004162 254.310669,33.486546 255.921509,27.977053 
	C256.384979,26.391880 256.335388,25.109465 258.495117,24.938387 
	C260.978271,24.741686 261.342834,26.557766 261.425812,28.004253 
	C261.769348,33.994114 261.833344,40.000000 262.000000,46.000000 
"/>
<path fill="none" opacity="1.000000" stroke="#000000" stroke-linecap="round" stroke-linejoin="round" stroke-width="3.000000"
	d="
M227.500000,61.499996 
	C229.327484,60.978756 231.154968,60.457516 232.973541,59.938816 
	C241.868423,66.399117 246.523834,74.641884 246.145157,86.004837 
	C245.799118,96.388435 241.021957,104.995155 237.000000,114.000000 
"/>
<path fill="none" opacity="1.000000" stroke="#000000" stroke-linecap="round" stroke-linejoin="round" stroke-width="4.000000"
	d="
M165.000000,76.500000 
	C167.305374,72.549980 166.340530,68.200966 166.476761,63.999249 
	C166.590134,60.502922 166.692520,56.986507 166.448395,53.503616 
	C166.178864,49.657902 168.140778,47.718746 171.510315,47.052151 
	C174.429337,46.474689 177.691208,49.187775 177.952011,52.503773 
	C178.489166,59.333515 179.924850,66.108543 179.467697,72.997856 
	C179.273941,75.917656 179.952072,78.404869 182.000000,80.500000 
"/>
<path fill="none" opacity="1.000000" stroke="#000000" stroke-linecap="round" stroke-linejoin="round" stroke-width="2.000000"
	d="
M280.000000,94.500000 
	C285.322144,103.165276 292.637939,110.140312 299.500000,117.500000 
"/>
<path fill="none" opacity="1.000000" stroke="#000000" stroke-linecap="round" stroke-linejoin="round" stroke-width="3.000000"
	d="
M280.500000,61.000000 
	C285.092499,59.455074 285.756256,54.601173 288.413696,51.427731 
	C289.111694,50.594173 287.985962,49.254261 286.999115,48.501141 
	C285.826782,47.606419 284.559479,48.303612 284.070648,49.046482 
	C282.260773,51.796768 279.079895,53.873608 279.938690,58.012718 
	C280.610992,61.252682 279.127441,64.365814 278.442322,67.487343 
	C277.785583,70.479568 277.452667,73.217209 280.016724,76.080750 
	C281.859283,73.832405 283.186859,71.615082 285.074921,70.092911 
	C286.655426,68.818680 288.792511,67.376732 291.004608,69.495201 
	C292.942993,71.351585 291.980072,73.192780 290.973724,74.985245 
	C290.640442,75.578842 290.000000,75.999992 289.500000,76.499992 
"/>
<path fill="none" opacity="1.000000" stroke="#000000" stroke-linecap="round" stroke-linejoin="round" stroke-width="2.000000"
	d="
M234.000000,71.000000 
	C236.886200,77.020309 239.933273,82.933380 245.000000,87.500000 
"/>
<path fill="none" opacity="1.000000" stroke="#000000" stroke-linecap="round" stroke-linejoin="round" stroke-width="4.000000"
	d="
M126.000000,90.500000 
	C123.062134,93.093689 124.038239,96.835457 124.815552,99.404526 
	C125.507141,101.690285 124.842606,103.499229 125.000000,105.500000 
	C124.833336,105.500000 124.658203,105.532303 124.502243,105.491440 
	C124.325851,105.445229 124.166664,105.333336 124.000000,105.250000 
"/>
<path fill="none" opacity="1.000000" stroke="#000000" stroke-linecap="round" stroke-linejoin="round" stroke-width="4.000000"
	d="
M191.000000,93.500000 
	C190.500000,92.666672 189.538910,91.812630 189.575256,91.003380 
	C189.801514,85.964470 186.954010,83.278297 182.750000,81.500000 
"/>
<path fill="none" opacity="1.000000" stroke="#000000" stroke-linecap="round" stroke-linejoin="round" stroke-width="6.000000"
	d="
M163.500000,77.000000 
	C157.800079,72.273926 155.344681,72.273926 150.000000,77.000000 
"/>
<path fill="none" opacity="1.000000" stroke="#000000" stroke-linecap="round" stroke-linejoin="round" stroke-width="3.000000"
	d="
M272.500000,34.000000 
	C269.839966,37.931782 270.850098,43.134010 268.000000,47.000000 
"/>
<path fill="none" opacity="1.000000" stroke="#000000" stroke-linecap="round" stroke-linejoin="round" stroke-width="3.000000"
	d="
M255.500000,50.000000 
	C258.091370,53.395756 257.805878,57.792164 259.500000,61.500000 
"/>
<path fill="none" opacity="1.000000" stroke="#000000" stroke-linecap="round" stroke-linejoin="round" stroke-width="6.000000"
	d="
M71.500000,39.500000 
	C71.500000,43.333332 71.500000,47.166668 71.500000,51.000000 
"/>
<path fill="none" opacity="1.000000" stroke="#000000" stroke-linecap="round" stroke-linejoin="round" stroke-width="2.000000"
	d="
M102.500000,140.000000 
	C108.088631,143.169601 105.109261,147.456757 104.000000,151.500000 
"/>
<path fill="none" opacity="1.000000" stroke="#000000" stroke-linecap="round" stroke-linejoin="round" stroke-width="5.000000"
	d="
M136.000000,90.500000 
	C132.760239,89.002419 129.539200,87.255203 126.000000,89.750000 
"/>
<path fill="none" opacity="1.000000" stroke="#000000" stroke-linecap="round" stroke-linejoin="round" stroke-width="2.000000"
	d="
M144.000000,66.500000 
	C139.583893,70.559761 139.583893,70.559761 134.500000,66.500000 
"/>
<path fill="none" opacity="1.000000" stroke="#000000" stroke-linecap="round" stroke-linejoin="round" stroke-width="2.000000"
	d="
M248.000000,138.000000 
	C247.000000,138.333328 246.006393,138.687515 244.998978,138.996643 
	C238.111526,141.110001 237.474640,143.226807 242.000000,149.000000 
"/>
<path fill="none" opacity="1.000000" stroke="#000000" stroke-linecap="round" stroke-linejoin="round" stroke-width="3.000000"
	d="
M178.000000,211.000000 
	C174.510559,213.175461 172.738281,216.781906 170.500000,220.000000 
"/>
<path fill="none" opacity="1.000000" stroke="#000000" stroke-linecap="round" stroke-linejoin="round" stroke-width="2.000000"
	d="
M177.500000,55.500000 
	C174.596680,57.406792 171.720825,59.808178 168.500000,56.000000 
"/>
<path fill="none" opacity="1.000000" stroke="#000000" stroke-linecap="round" stroke-linejoin="round" stroke-width="3.000000"
	d="
M97.500000,64.500000 
	C100.423218,65.524368 103.330444,66.692650 106.500000,65.500000 
"/>
<path fill="none" opacity="1.000000" stroke="#000000" stroke-linecap="round" stroke-linejoin="round" stroke-width="2.000000"
	d="
M115.000000,95.000000 
	C114.799133,100.346710 114.348564,100.756317 109.500000,100.000000 
"/>
<path fill="none" opacity="1.000000" stroke="#000000" stroke-linecap="round" stroke-linejoin="round" stroke-width="5.000000"
	d="
M263.000000,45.500000 
	C270.359467,48.358433 271.511047,50.634232 269.540405,58.010792 
	C269.249481,59.099743 269.500000,60.333332 269.500000,61.500000 
"/>
<path fill="none" opacity="1.000000" stroke="#000000" stroke-linecap="round" stroke-linejoin="round" stroke-width="3.000000"
	d="
M229.250000,62.000000 
	C229.747284,65.019508 230.325043,67.999687 232.999237,70.001030 
	C234.342590,71.006393 234.218018,69.102692 235.000000,69.000000 
"/>
<path fill="none" opacity="1.000000" stroke="#000000" stroke-linecap="round" stroke-linejoin="round" stroke-width="3.000000"
	d="
M115.500000,58.500000 
	C112.031601,59.311218 112.704689,63.945354 109.500000,65.000000 
"/>
<path fill="none" opacity="1.000000" stroke="#000000" stroke-linecap="round" stroke-linejoin="round" stroke-width="3.000000"
	d="
M264.000000,109.000008 
	C266.000000,111.666672 268.000000,114.333344 270.000000,117.000008 
"/>
<path fill="none" opacity="1.000000" stroke="#000000" stroke-linecap="round" stroke-linejoin="round" stroke-width="3.000000"
	d="
M276.000000,34.500000 
	C278.707458,38.000000 276.361603,41.930252 275.615784,44.903622 
	C274.358002,49.918015 275.634674,51.849335 280.000000,53.000000 
"/>
<path fill="none" opacity="1.000000" stroke="#000000" stroke-linecap="round" stroke-linejoin="round" stroke-width="2.000000"
	d="
M210.000000,67.500000 
	C207.667343,70.505363 205.145065,71.993843 202.000000,68.500000 
"/>
<path fill="none" opacity="1.000000" stroke="#000000" stroke-linecap="round" stroke-linejoin="round" stroke-width="3.000000"
	d="
M176.500000,92.500000 
	C174.587479,95.369728 171.289902,93.045464 169.000000,94.500000 
"/>
<path fill="none" opacity="1.000000" stroke="#000000" stroke-linecap="round" stroke-linejoin="round" stroke-width="2.000000"
	d="
M152.000000,101.500000 
	C149.437576,101.365112 147.124100,103.097450 144.500000,102.500000 
"/>
<path fill="none" opacity="1.000000" stroke="#000000" stroke-linecap="round" stroke-linejoin="round" stroke-width="3.000000"
	d="
M70.000000,52.000000 
	C66.954033,51.635086 65.139885,54.349709 62.500000,55.000000 
"/>
<path fill="none" opacity="1.000000" stroke="#000000" stroke-linecap="round" stroke-linejoin="round" stroke-width="2.000000"
	d="
M112.000000,154.500000 
	C112.780830,152.313141 112.517258,149.724594 114.634872,147.878159 
	C116.523407,150.833328 115.086975,153.666672 114.500000,156.500000 
"/>
<path fill="none" opacity="1.000000" stroke="#000000" stroke-linecap="round" stroke-linejoin="round" stroke-width="3.000000"
	d="
M246.500000,33.000000 
	C248.418701,34.446415 247.576538,36.646557 248.079681,38.478111 
	C249.152390,42.383041 250.666672,46.166664 252.000015,49.999996 
"/>
<path fill="none" opacity="1.000000" stroke="#000000" stroke-linecap="round" stroke-linejoin="round" stroke-width="2.000000"
	d="
M151.500000,98.000000 
	C149.038483,97.901772 146.677078,98.270782 144.500000,99.500000 
"/>
<path fill="none" opacity="1.000000" stroke="#000000" stroke-linecap="round" stroke-linejoin="round" stroke-width="3.000000"
	d="
M245.000000,61.500000 
	C241.463943,61.825542 242.435898,65.019814 241.500000,67.000000 
"/>
<path fill="none" opacity="1.000000" stroke="#000000" stroke-linecap="round" stroke-linejoin="round" stroke-width="2.000000"
	d="
M139.500000,104.999992 
	C137.500000,105.499992 135.500000,105.999992 133.500000,106.499992 
"/>
<path fill="none" opacity="1.000000" stroke="#000000" stroke-linecap="round" stroke-linejoin="round" stroke-width="2.000000"
	d="
M137.000000,96.000000 
	C135.228180,96.843361 133.338638,96.391678 131.500000,96.500000 
"/>
<path fill="none" opacity="1.000000" stroke="#000000" stroke-linecap="round" stroke-linejoin="round" stroke-width="2.000000"
	d="
M129.000000,117.500000 
	C126.878563,117.567848 126.358070,120.037109 124.500000,120.500000 
"/>
<path fill="none" opacity="1.000000" stroke="#000000" stroke-linecap="round" stroke-linejoin="round" stroke-width="2.000000"
	d="
M166.000000,100.000000 
	C164.500000,100.418083 163.000000,101.105347 161.500000,100.000000 
"/>
<path fill="none" opacity="1.000000" stroke="#000000" stroke-linecap="round" stroke-linejoin="round" stroke-width="4.000000"
	d="
M163.500000,96.000000 
	C160.387512,96.016670 160.834793,100.779716 157.500000,100.500000 
"/>
<path fill="none" opacity="1.000000" stroke="#000000" stroke-linecap="round" stroke-linejoin="round" stroke-width="2.000000"
	d="
M123.000000,105.999992 
	C121.833328,106.499992 120.666664,106.999992 119.500000,107.499992 
"/>
<path fill="none" opacity="1.000000" stroke="#000000" stroke-linecap="round" stroke-linejoin="round" stroke-width="2.000000"
	d="
M130.000000,122.000000 
	C128.833328,122.500000 127.666664,123.000000 126.500000,123.500000 
"/>
</svg>