<svg version="1.1" id="Layer_1" xmlns="http://www.w3.org/2000/svg" xmlns:xlink="http://www.w3.org/1999/xlink" x="0px" y="0px"
	 width="100%" viewBox="0 0 388 235" enable-background="new 0 0 388 235" xml:space="preserve">
<path fill="none" opacity="1.000000" stroke="#000000" stroke-linecap="round" stroke-linejoin="round" stroke-width="3.000000"
	d="
M279.500000,94.500000 
	C280.970123,98.568199 277.569366,102.347801 278.942719,106.518860 
	C280.736938,111.968292 278.555542,117.259613 277.396179,122.476929 
	C276.518494,126.426704 276.749237,130.071823 277.334686,134.024490 
	C278.035187,138.754059 277.484558,143.666733 277.503113,148.499985 
	C277.546082,159.703354 280.337219,170.717438 279.633759,182.008331 
	C279.429474,185.287415 280.314392,188.883820 281.600739,191.957855 
	C284.982269,200.038971 285.899292,208.741531 288.500000,217.000000 
"/>
<path fill="none" opacity="1.000000" stroke="#000000" stroke-linecap="round" stroke-linejoin="round" stroke-width="3.000000"
	d="
M252.000000,107.500000 
	C249.077393,101.140625 248.984894,94.284439 248.513138,87.499084 
	C248.425949,86.244965 248.572464,85.129959 249.456680,83.967064 
	C258.419525,72.179420 267.612457,60.627579 278.958466,50.951294 
	C281.901184,48.441643 284.367767,45.364750 286.990509,42.491337 
	C289.724213,39.496346 289.490814,36.126930 287.442108,33.038391 
	C285.219543,29.687689 281.816284,28.360970 278.025543,30.057076 
	C272.496735,32.530834 268.409271,36.969631 263.935699,40.927334 
	C258.363983,45.856567 253.669388,51.736721 247.499084,55.998680 
	C246.126373,56.946846 244.780350,57.964104 243.000000,58.000000 
"/>
<path fill="none" opacity="1.000000" stroke="#000000" stroke-linecap="round" stroke-linejoin="round" stroke-width="3.000000"
	d="
M201.500000,138.500000 
	C194.140808,132.242630 190.651413,123.288620 185.287476,115.649223 
	C180.548874,108.900467 173.461502,104.152710 164.984497,102.583801 
	C161.879715,102.009178 158.618988,103.047699 157.098572,106.049919 
	C155.647400,108.915344 156.297241,111.983765 158.504562,114.495995 
	C164.482117,121.299278 167.255905,129.976013 171.984558,137.509689 
	C172.704071,138.656052 172.255280,138.614975 171.568512,141.019562 
	C169.754471,147.371124 165.583023,152.281906 161.404419,156.913773 
	C146.715134,173.196365 132.749191,190.182037 116.461792,204.957886 
	C111.205429,209.726425 105.500000,214.000000 100.000000,218.500000 
"/>
<path fill="none" opacity="1.000000" stroke="#000000" stroke-linecap="round" stroke-linejoin="round" stroke-width="3.000000"
	d="
M241.000000,62.500000 
	C236.494751,64.599182 234.011627,67.992485 232.856339,72.966637 
	C231.889557,77.129189 229.706314,81.017159 227.985840,84.993881 
	C226.864777,87.585159 226.302200,90.193871 226.991837,93.002007 
	C227.658997,95.718666 228.394012,98.478798 225.364685,101.038536 
	C221.165298,96.000687 219.937027,89.936890 217.544403,84.480530 
	C214.243744,76.953293 212.079453,68.946594 206.626785,62.394489 
	C204.974655,60.409225 204.643936,57.208839 204.038864,54.491348 
	C202.719940,48.567917 200.377060,43.028477 197.976135,37.510384 
	C196.586899,34.317486 194.574295,31.748407 190.502411,32.512833 
	C186.654083,33.235291 184.654694,35.836792 184.021484,39.503708 
	C182.887146,46.072762 184.695175,52.238232 186.394699,58.528450 
	C188.406219,65.973351 191.030716,73.288788 192.000000,81.000000 
"/>
<path fill="none" opacity="1.000000" stroke="#000000" stroke-linecap="round" stroke-linejoin="round" stroke-width="3.000000"
	d="
M277.500000,129.500000 
	C288.122711,126.957970 298.440491,123.695763 306.981537,116.478157 
	C309.087097,114.698845 310.881134,112.740578 310.554047,109.494553 
	C310.107269,105.060181 307.288452,102.976791 303.010773,104.529701 
	C298.794708,106.060265 294.579041,107.647621 290.527710,109.558754 
	C287.287689,111.087173 284.041290,111.873108 280.500000,111.500000 
"/>
<path fill="none" opacity="1.000000" stroke="#000000" stroke-linecap="round" stroke-linejoin="round" stroke-width="3.000000"
	d="
M269.000000,119.500000 
	C268.833344,118.333336 268.723114,117.155327 268.491333,116.001747 
	C266.002808,103.616386 267.705170,101.330437 277.880768,94.326767 
	C288.083038,87.304733 297.934967,79.591545 306.453491,70.456642 
	C308.885376,67.848824 309.665924,64.680588 307.006653,61.494446 
	C303.717834,57.554031 300.260834,57.092453 296.041840,60.551025 
	C293.449646,62.675987 290.715637,64.595024 288.115814,66.646767 
	C284.999237,69.106354 282.196625,71.354164 278.008453,71.628967 
	C276.550720,71.724625 275.026276,72.797905 273.886688,74.420410 
	C272.340576,76.621750 270.485260,78.897484 266.852997,79.130241 
	C270.423676,86.113136 266.985718,93.346924 269.500000,100.000000 
"/>
<path fill="none" opacity="1.000000" stroke="#000000" stroke-linecap="round" stroke-linejoin="round" stroke-width="3.000000"
	d="
M191.500000,101.000000 
	C189.000000,99.000000 186.365021,97.144142 184.035217,94.962387 
	C181.313828,92.413910 179.139435,89.534225 181.488892,85.493546 
	C183.092758,82.735199 189.288742,80.437759 192.500000,81.500008 
	C198.815109,83.588974 208.476532,96.293640 208.453171,102.999840 
	C208.414642,114.057701 207.228027,125.003693 203.455414,135.483948 
	C201.805389,140.067719 201.367111,144.719116 201.500000,149.500000 
"/>
<path fill="none" opacity="1.000000" stroke="#000000" stroke-linecap="round" stroke-linejoin="round" stroke-width="7.000000"
	d="
M81.500000,32.500000 
	C78.644203,34.716309 74.523186,35.034782 72.191879,38.530041 
	C84.723557,45.740589 94.415001,56.005203 103.308067,66.660194 
	C116.274696,82.195793 126.655838,99.522263 133.120789,118.959824 
	C133.737946,120.815384 134.508926,122.527870 134.500000,124.500000 
"/>
<path fill="none" opacity="1.000000" stroke="#000000" stroke-linecap="round" stroke-linejoin="round" stroke-width="7.000000"
	d="
M104.000000,70.000000 
	C94.981873,79.901573 88.746521,91.532280 82.956444,103.478889 
	C79.878944,109.828636 77.394073,116.388168 75.000000,123.000000 
"/>
<path fill="none" opacity="1.000000" stroke="#000000" stroke-linecap="round" stroke-linejoin="round" stroke-width="3.000000"
	d="
M173.000000,140.000000 
	C178.565277,145.344742 182.748779,151.723328 184.821686,159.050446 
	C186.010605,163.252960 188.168793,166.610855 190.525055,169.982483 
	C200.324005,184.003967 210.480331,197.733841 222.426559,210.071106 
	C224.927902,212.654312 226.795181,215.969452 228.000000,219.500000 
"/>
<path fill="none" opacity="1.000000" stroke="#000000" stroke-linecap="round" stroke-linejoin="round" stroke-width="3.000000"
	d="
M249.250000,84.250000 
	C246.802032,81.244171 247.128021,77.466255 246.584229,73.986832 
	C246.198242,71.517059 245.460938,69.283775 244.653427,66.946983 
	C243.747406,64.325096 239.406906,63.288776 241.770676,58.877132 
	C243.337082,55.953648 243.939590,52.691986 246.358734,49.878536 
	C250.218811,45.389324 252.848251,40.051941 254.140610,34.030178 
	C254.809097,30.915342 253.973785,28.744410 251.938202,27.075380 
	C249.689713,25.231813 246.824158,24.718763 244.007538,26.016378 
	C238.780029,28.424694 235.338516,32.848869 232.595642,37.555737 
	C228.046295,45.362572 223.294678,52.950256 216.461990,58.956760 
	C213.848755,61.254005 213.380966,64.994064 210.500000,67.000000 
"/>
<path fill="none" opacity="1.000000" stroke="#000000" stroke-linecap="round" stroke-linejoin="round" stroke-width="7.000000"
	d="
M134.000000,40.000000 
	C126.488625,46.470818 118.845490,52.783577 111.947548,59.949509 
	C109.570778,62.418621 108.224236,65.831505 105.000000,67.500000 
"/>
<path fill="none" opacity="1.000000" stroke="#000000" stroke-linecap="round" stroke-linejoin="round" stroke-width="3.000000"
	d="
M203.000000,189.500000 
	C195.309525,196.614197 189.114838,204.878189 183.951324,213.972366 
	C183.098618,215.474213 182.514297,217.408356 180.500000,218.000000 
"/>
<path fill="none" opacity="1.000000" stroke="#000000" stroke-linecap="round" stroke-linejoin="round" stroke-width="4.000000"
	d="
M238.000000,29.500000 
	C236.465759,25.901806 233.532379,24.757551 230.016296,25.570492 
	C226.901001,26.290768 224.205017,28.346470 223.602264,31.519426 
	C222.422470,37.729916 220.999847,44.075562 224.000000,50.250000 
"/>
<path fill="none" opacity="1.000000" stroke="#000000" stroke-linecap="round" stroke-linejoin="round" stroke-width="2.000000"
	d="
M165.000000,122.500000 
	C169.312668,121.495331 172.476334,118.331688 172.000000,115.500000 
	C171.253021,111.059258 165.744919,107.026100 161.517380,108.070358 
	C160.184372,108.399628 158.943954,109.109138 157.500000,109.000000 
"/>
<path fill="none" opacity="1.000000" stroke="#000000" stroke-linecap="round" stroke-linejoin="round" stroke-width="2.000000"
	d="
M187.000000,37.500000 
	C189.219864,44.295624 193.079819,46.050152 198.000000,42.500000 
"/>
<path fill="none" opacity="1.000000" stroke="#000000" stroke-linecap="round" stroke-linejoin="round" stroke-width="2.000000"
	d="
M233.500000,73.500000 
	C237.517532,75.098755 241.546341,76.627029 246.000000,75.500000 
"/>
<path fill="none" opacity="1.000000" stroke="#000000" stroke-linecap="round" stroke-linejoin="round" stroke-width="4.000000"
	d="
M265.000000,66.500000 
	C266.107544,70.473114 264.939423,75.015144 268.000000,78.500000 
"/>
<path fill="none" opacity="1.000000" stroke="#000000" stroke-linecap="round" stroke-linejoin="round" stroke-width="5.000000"
	d="
M72.500000,39.500000 
	C70.424736,42.551613 71.631653,46.259663 70.500000,49.500000 
"/>
<path fill="none" opacity="1.000000" stroke="#000000" stroke-linecap="round" stroke-linejoin="round" stroke-width="2.000000"
	d="
M258.500000,85.500000 
	C261.373566,87.428185 264.336853,89.072144 268.000000,88.500000 
"/>
<path fill="none" opacity="1.000000" stroke="#000000" stroke-linecap="round" stroke-linejoin="round" stroke-width="2.000000"
	d="
M182.500000,129.500000 
	C179.500000,132.000000 176.500000,134.500000 173.500000,137.000000 
"/>
<path fill="none" opacity="1.000000" stroke="#000000" stroke-linecap="round" stroke-linejoin="round" stroke-width="2.000000"
	d="
M203.000000,53.000000 
	C200.213699,53.733112 197.383759,54.095284 194.500000,54.000000 
"/>
<path fill="none" opacity="1.000000" stroke="#000000" stroke-linecap="round" stroke-linejoin="round" stroke-width="2.000000"
	d="
M259.500000,78.500000 
	C262.325623,78.356476 264.268555,80.861000 267.000000,81.000000 
"/>
<path fill="none" opacity="1.000000" stroke="#000000" stroke-linecap="round" stroke-linejoin="round" stroke-width="3.000000"
	d="
M148.500000,30.000000 
	C144.684433,32.252476 141.263184,35.022518 138.000000,38.000000 
"/>
<path fill="none" opacity="1.000000" stroke="#000000" stroke-linecap="round" stroke-linejoin="round" stroke-width="2.000000"
	d="
M227.500000,28.000000 
	C228.244202,30.544569 228.572113,33.297276 231.000000,35.000000 
"/>
<path fill="none" opacity="1.000000" stroke="#000000" stroke-linecap="round" stroke-linejoin="round" stroke-width="2.000000"
	d="
M177.500000,129.500000 
	C175.137711,130.045593 172.989273,130.957794 171.500000,133.000000 
"/>
<path fill="none" opacity="1.000000" stroke="#000000" stroke-linecap="round" stroke-linejoin="round" stroke-width="2.000000"
	d="
M188.000000,100.500000 
	C186.605789,105.946144 188.727448,109.536644 194.500000,111.500000 
"/>
<path fill="none" opacity="1.000000" stroke="#000000" stroke-linecap="round" stroke-linejoin="round" stroke-width="2.000000"
	d="
M274.500000,104.500000 
	C274.174652,107.158684 276.289154,107.377510 278.000000,108.000000 
"/>
</svg>