<svg version="1.1" id="Layer_1" xmlns="http://www.w3.org/2000/svg" xmlns:xlink="http://www.w3.org/1999/xlink" x="0px" y="0px"
	 width="100%" viewBox="0 0 391 235" enable-background="new 0 0 391 235" xml:space="preserve">
<path fill="none" opacity="1.000000" stroke="#000000" stroke-linecap="round" stroke-linejoin="round" stroke-width="3.000000"
	d="
M345.000000,174.500000 
	C344.719604,171.981964 342.393982,172.585709 340.978699,172.057007 
	C323.989471,165.710297 307.166199,158.869263 289.502411,154.490326 
	C280.988495,152.379715 272.423767,150.419373 264.033539,147.888748 
	C260.095703,146.701035 258.012024,149.709274 255.000961,150.503632 
	C250.845398,151.599884 247.160782,153.611267 244.010117,156.510986 
	C235.825195,164.043976 226.432343,169.970596 217.468826,176.456924 
	C209.150055,182.476669 199.607224,186.021622 190.046982,189.624680 
	C182.888870,192.322433 175.683380,194.880127 168.525604,197.568192 
	C163.325592,199.521042 160.244720,199.343338 157.066422,194.951920 
	C153.533859,190.070999 148.415543,186.921326 144.258392,182.740234 
	C141.935577,180.404053 137.222214,180.146255 133.490524,179.560349 
	C115.962242,176.808136 115.890968,164.001389 121.523041,152.010818 
	C122.186752,150.597824 123.166672,149.333344 124.000008,148.000000 
"/>
<path fill="none" opacity="1.000000" stroke="#000000" stroke-linecap="round" stroke-linejoin="round" stroke-width="3.000000"
	d="
M193.500000,55.000000 
	C188.846054,61.133392 185.691467,61.796879 179.971985,58.042675 
	C179.003708,57.407104 177.620789,56.933392 176.507019,57.061153 
	C163.748032,58.524704 151.202133,55.301697 138.499237,55.393684 
	C134.837585,55.420197 131.174820,54.117161 127.498093,53.511597 
	C121.977875,52.602413 116.886375,52.832653 111.930336,56.403309 
	C102.672729,63.073086 93.182938,69.466293 83.445816,75.411263 
	C74.642326,80.786201 64.617851,83.282661 54.487209,84.382164 
	C39.068623,86.055573 23.959486,89.054329 8.997610,92.990921 
	C6.848186,93.556450 4.666667,94.000000 2.500000,94.500000 
"/>
<path fill="none" opacity="1.000000" stroke="#000000" stroke-linecap="round" stroke-linejoin="round" stroke-width="3.000000"
	d="
M345.500000,100.000000 
	C333.528320,97.957108 322.055756,94.141678 310.424622,90.759247 
	C298.579193,87.314499 288.125458,80.408684 275.994202,78.029495 
	C270.027588,76.859322 264.017273,75.877342 257.995911,75.028976 
	C249.145370,73.782013 240.753525,70.630013 232.001465,68.992180 
	C218.215530,66.412308 204.724548,67.349670 190.947739,70.251915 
	C176.934555,73.203934 163.088501,77.267639 148.505020,77.678452 
	C137.166016,77.997864 133.929947,84.334747 136.500000,95.000000 
"/>
<path fill="none" opacity="1.000000" stroke="#000000" stroke-linecap="round" stroke-linejoin="round" stroke-width="3.000000"
	d="
M117.500000,165.500000 
	C97.760750,165.765366 78.444550,163.007416 61.152935,153.229553 
	C52.917149,148.572464 45.226460,149.762146 36.999077,150.489548 
	C25.551321,151.501633 14.368557,153.688904 3.465009,157.397110 
	C2.099235,157.861603 1.881340,158.548004 1.500000,159.500000 
"/>
<path fill="none" opacity="1.000000" stroke="#000000" stroke-linecap="round" stroke-linejoin="round" stroke-width="8.000000"
	d="
M212.000000,71.500000 
	C213.893570,77.275650 217.329727,82.335991 219.786316,87.872971 
	C224.117889,97.636154 225.716461,107.616638 225.962677,118.000885 
	C226.191147,127.637238 224.455597,137.044785 220.909454,145.964005 
	C218.382645,152.319397 214.250732,157.968826 212.000000,164.500000 
"/>
<path fill="none" opacity="1.000000" stroke="#000000" stroke-linecap="round" stroke-linejoin="round" stroke-width="8.000000"
	d="
M80.500000,85.000000 
	C85.020432,84.614983 89.580498,83.159790 94.654579,85.272552 
	C85.982201,98.771790 86.359512,113.390045 87.607246,127.990837 
	C88.261055,135.641479 91.602577,142.693985 95.126038,149.434113 
	C96.674889,152.396942 97.515884,155.567017 99.000000,158.500000 
"/>
<path fill="none" opacity="1.000000" stroke="#000000" stroke-linecap="round" stroke-linejoin="round" stroke-width="3.000000"
	d="
M155.500000,149.500000 
	C147.360382,148.503937 139.142212,148.943909 131.012726,148.331100 
	C123.504143,147.765106 116.275505,145.845566 114.029617,137.991531 
	C112.174477,131.503967 113.891304,125.679276 118.029305,120.523521 
	C118.844292,119.508072 119.773575,118.892418 121.524590,119.418098 
	C131.643280,122.455933 142.143341,121.467110 152.500977,121.980209 
	C155.161118,122.111984 157.833328,122.000000 160.500000,122.000000 
"/>
<path fill="none" opacity="1.000000" stroke="#000000" stroke-linecap="round" stroke-linejoin="round" stroke-width="4.000000"
	d="
M163.500000,96.500000 
	C156.166672,96.500000 148.833298,96.486969 141.500015,96.505493 
	C137.833267,96.514763 134.438751,94.625252 130.444412,96.372955 
	C121.624664,100.231995 117.896729,106.288788 120.126160,115.469360 
	C120.462875,116.855934 119.837128,117.833336 120.000000,119.000000 
"/>
<path fill="none" opacity="1.000000" stroke="#000000" stroke-linecap="round" stroke-linejoin="round" stroke-width="3.000000"
	d="
M197.500000,178.500000 
	C182.674118,182.467575 167.527863,180.669327 152.499969,180.998398 
	C150.125046,181.050400 147.695618,180.702667 145.500000,182.000000 
"/>
<path fill="none" opacity="1.000000" stroke="#000000" stroke-linecap="round" stroke-linejoin="round" stroke-width="2.000000"
	d="
M116.500000,121.500000 
	C113.841118,120.752014 112.320694,122.968117 110.551994,124.082527 
	C104.593468,127.836823 98.820930,131.877060 92.000000,134.000000 
"/>
<path fill="none" opacity="1.000000" stroke="#000000" stroke-linecap="round" stroke-linejoin="round" stroke-width="3.000000"
	d="
M179.500000,57.500000 
	C182.468613,55.291267 185.940796,54.558769 189.497498,53.984520 
	C195.587112,53.001316 198.819519,56.621807 196.993454,62.497967 
	C196.367966,64.510757 195.666672,66.500000 195.000015,68.500000 
"/>
<path fill="none" opacity="1.000000" stroke="#000000" stroke-linecap="round" stroke-linejoin="round" stroke-width="3.000000"
	d="
M232.500000,84.000000 
	C228.163116,84.074280 223.806976,83.648056 219.500000,84.500000 
"/>
<path fill="none" opacity="1.000000" stroke="#000000" stroke-linecap="round" stroke-linejoin="round" stroke-width="6.000000"
	d="
M99.500000,71.500000 
	C98.645538,76.362045 94.973007,79.923439 93.500000,84.500000 
"/>
<path fill="none" opacity="1.000000" stroke="#000000" stroke-linecap="round" stroke-linejoin="round" stroke-width="6.000000"
	d="
M80.500000,145.000000 
	C84.631683,146.041168 88.830864,145.395004 93.000000,145.500000 
"/>
<path fill="none" opacity="1.000000" stroke="#000000" stroke-linecap="round" stroke-linejoin="round" stroke-width="5.000000"
	d="
M219.000000,151.500000 
	C223.166672,152.511948 227.333328,151.849869 231.500000,151.500000 
"/>
<path fill="none" opacity="1.000000" stroke="#000000" stroke-linecap="round" stroke-linejoin="round" stroke-width="3.000000"
	d="
M217.000000,87.500000 
	C214.777985,89.819572 213.363724,92.643990 212.000000,95.500000 
"/>
<path fill="none" opacity="1.000000" stroke="#000000" stroke-linecap="round" stroke-linejoin="round" stroke-width="4.000000"
	d="
M211.500000,142.500000 
	C213.480087,145.065781 214.470200,148.312149 217.000000,150.500000 
"/>
</svg>