<svg version="1.1" id="Layer_1" xmlns="http://www.w3.org/2000/svg" xmlns:xlink="http://www.w3.org/1999/xlink" x="0px" y="0px"
	 width="100%" viewBox="0 0 387 235" enable-background="new 0 0 387 235" xml:space="preserve">
<path fill="none" opacity="1.000000" stroke="#000000" stroke-linecap="round" stroke-linejoin="round" stroke-width="3.000000"
	d="
M271.500000,220.500000 
	C260.526947,211.681427 249.244186,203.369904 240.787186,191.653610 
	C235.963654,184.971100 229.062744,179.766373 222.956711,174.046219 
	C221.394043,172.582321 219.865799,171.082092 220.067551,169.006561 
	C220.834595,161.115540 216.984131,154.486069 214.447800,147.518997 
	C213.074142,143.745667 211.102356,140.194229 209.516190,136.493057 
	C207.504761,131.799591 204.298569,128.221970 199.477188,126.566429 
	C195.182571,125.091759 191.278000,123.279602 187.911545,120.093468 
	C186.529999,118.785934 184.393524,119.149414 182.454285,120.430809 
	C179.561661,122.342163 176.769882,121.833611 174.482620,119.014099 
	C173.024704,117.216896 171.199387,115.809364 168.996155,115.010605 
	C166.345840,114.049759 163.141571,113.627937 161.622711,116.076134 
	C157.460480,122.785187 152.297852,124.120155 145.479828,120.538391 
	C144.627502,120.090630 143.500000,120.166664 142.500000,120.000000 
"/>
<path fill="none" opacity="1.000000" stroke="#000000" stroke-linecap="round" stroke-linejoin="round" stroke-width="3.000000"
	d="
M124.000000,39.500000 
	C119.491867,36.105209 119.265099,36.212715 115.980591,39.983089 
	C107.363976,49.874302 101.830338,61.898533 93.544815,72.036629 
	C84.844948,82.681702 76.600967,93.641953 69.347481,105.405960 
	C63.721504,114.530411 60.497730,124.672874 55.451916,133.973907 
	C48.347893,147.068909 44.205982,161.363174 38.289326,174.907974 
	C34.221130,184.221130 28.251427,192.717789 22.967155,201.480194 
	C19.955669,206.473846 16.295017,211.077011 14.000000,216.500000 
"/>
<path fill="none" opacity="1.000000" stroke="#000000" stroke-linecap="round" stroke-linejoin="round" stroke-width="6.000000"
	d="
M271.500000,128.500000 
	C269.740967,121.592377 265.384644,117.010872 258.479401,115.600853 
	C252.231750,114.325119 247.802673,117.447098 243.913315,122.432373 
	C233.154434,136.222809 233.949280,157.795197 243.088776,171.440536 
	C249.935196,181.662338 263.043396,179.440369 270.061554,167.536285 
	C272.846252,162.812897 274.102448,157.756378 274.871918,152.161575 
	C278.112946,153.904968 281.459320,154.998672 283.000000,158.500000 
"/>
<path fill="none" opacity="1.000000" stroke="#000000" stroke-linecap="round" stroke-linejoin="round" stroke-width="3.000000"
	d="
M162.000000,28.000000 
	C168.284454,30.589214 169.676682,33.452030 169.064270,40.006004 
	C167.962097,51.801380 163.102234,62.495121 159.318573,73.437263 
	C155.870239,83.409599 152.898102,93.521347 149.514542,103.504929 
	C147.071930,110.712242 143.861404,117.296761 138.623276,123.111061 
	C132.489456,129.919617 132.358658,138.837616 132.566742,147.498398 
	C132.627045,150.008835 134.085175,152.500000 132.500000,155.000000 
"/>
<path fill="none" opacity="1.000000" stroke="#000000" stroke-linecap="round" stroke-linejoin="round" stroke-width="3.000000"
	d="
M135.000000,160.500000 
	C135.116501,157.378479 134.131119,155.844925 130.527023,155.315887 
	C126.547234,154.731720 123.980629,151.091629 120.993965,148.506973 
	C114.870956,143.208115 109.261124,137.075317 100.991432,135.034714 
	C95.490265,133.677246 90.082344,133.780090 86.051117,138.543259 
	C84.294373,140.619003 83.096558,143.237457 86.011703,145.484818 
	C91.557953,149.760574 96.298729,155.082733 102.514404,158.473602 
	C107.603416,161.249832 111.107697,165.679291 115.262489,169.461670 
	C123.765961,177.202972 132.426819,184.930862 141.941589,191.583542 
	C148.051300,195.855438 153.734283,200.735718 161.013901,202.954407 
	C162.585388,203.433365 164.666687,204.008728 165.940720,203.379898 
	C170.757431,201.002472 173.760315,204.261017 176.969788,206.542511 
	C183.570282,211.234467 190.000000,216.166656 196.500000,221.000000 
"/>
<path fill="none" opacity="1.000000" stroke="#000000" stroke-linecap="round" stroke-linejoin="round" stroke-width="3.000000"
	d="
M115.250000,170.000000 
	C111.772919,171.261475 108.028290,172.134460 104.526848,171.376038 
	C97.096611,169.766693 93.469238,173.850235 90.497795,179.498840 
	C84.766136,190.394516 81.093056,202.137344 76.561592,213.524506 
	C75.676941,215.747528 73.785721,217.772110 74.500000,220.500000 
"/>
<path fill="none" opacity="1.000000" stroke="#000000" stroke-linecap="round" stroke-linejoin="round" stroke-width="2.000000"
	d="
M253.500000,33.000000 
	C265.598480,45.638771 272.522797,61.321213 279.559418,76.973282 
	C281.672852,81.674316 284.670624,85.930481 288.500000,89.500000 
"/>
<path fill="none" opacity="1.000000" stroke="#000000" stroke-linecap="round" stroke-linejoin="round" stroke-width="2.000000"
	d="
M232.000000,53.500000 
	C228.072800,56.959076 225.160767,53.650406 221.655899,51.707302 
	C219.488953,56.598114 214.154541,55.061901 210.345627,57.228626 
	C203.813126,60.944679 202.004028,66.900780 200.081787,73.025665 
	C198.891891,76.817039 197.314636,80.122017 194.543594,83.041382 
	C188.610245,89.292366 183.913467,96.795319 176.000000,101.000000 
"/>
<path fill="none" opacity="1.000000" stroke="#000000" stroke-linecap="round" stroke-linejoin="round" stroke-width="2.000000"
	d="
M266.500000,101.500000 
	C262.984406,94.507797 260.653687,86.973206 256.166931,80.386284 
	C254.806320,78.388771 252.892914,76.681641 251.584412,77.209312 
	C248.253052,78.552734 243.313934,74.317711 241.306671,80.941414 
	C239.189880,87.926460 231.387665,89.583725 225.914108,90.468750 
	C219.055008,91.577820 214.960281,95.601151 210.018265,99.026344 
	C208.842300,99.841377 208.098679,101.271484 206.500000,101.500000 
"/>
<path fill="none" opacity="1.000000" stroke="#000000" stroke-linecap="round" stroke-linejoin="round" stroke-width="3.000000"
	d="
M149.000000,18.500000 
	C149.500000,17.833334 150.115768,17.223948 150.479095,16.489656 
	C151.753403,13.914124 152.904678,10.992400 156.490234,11.561539 
	C160.059143,12.128037 163.464508,16.678774 162.894150,20.484135 
	C162.399094,23.787039 161.515335,26.966688 159.685928,30.108265 
	C156.516174,35.551594 154.689850,41.757133 151.961884,47.481838 
	C145.581161,60.872005 139.000000,74.166664 132.500000,87.500000 
"/>
<path fill="none" opacity="1.000000" stroke="#000000" stroke-linecap="round" stroke-linejoin="round" stroke-width="3.000000"
	d="
M111.500000,82.000000 
	C118.914879,78.689812 121.479607,71.543816 124.383766,64.948814 
	C126.992073,59.025646 129.793060,53.334003 133.436172,47.956757 
	C139.353592,39.222622 144.265472,29.902361 148.160019,20.096495 
	C141.837234,16.283775 140.999634,16.940327 136.868607,22.400597 
	C132.618393,28.018419 130.598969,35.035328 124.787323,39.847034 
	C123.084198,41.257122 121.981674,45.703114 120.343330,48.404999 
	C115.143715,56.979969 110.800171,66.092140 104.565460,74.051277 
	C103.008255,76.039192 101.215080,77.710678 99.500000,79.500000 
"/>
<path fill="none" opacity="1.000000" stroke="#000000" stroke-linecap="round" stroke-linejoin="round" stroke-width="3.000000"
	d="
M222.000000,21.500000 
	C221.061401,28.518929 225.309509,34.223316 227.276413,40.412151 
	C229.012863,45.875885 230.279495,51.759010 235.245346,56.279732 
	C238.352951,59.108746 239.426437,65.085350 237.744400,69.400360 
	C236.178787,73.416687 237.366501,74.809074 240.526657,75.924492 
	C241.298340,76.196869 241.966751,76.399841 242.500000,77.000000 
"/>
<path fill="none" opacity="1.000000" stroke="#000000" stroke-linecap="round" stroke-linejoin="round" stroke-width="2.000000"
	d="
M90.000000,137.000000 
	C91.833336,137.500000 93.808266,137.717255 95.474167,138.551590 
	C101.077171,141.357742 101.035072,147.182144 95.500000,151.000000 
"/>
<path fill="none" opacity="1.000000" stroke="#000000" stroke-linecap="round" stroke-linejoin="round" stroke-width="6.000000"
	d="
M235.500000,17.500000 
	C240.149017,18.913958 243.087753,22.430801 246.008301,25.993196 
	C247.956909,28.370050 249.084930,31.581730 252.500000,32.500000 
"/>
<path fill="none" opacity="1.000000" stroke="#000000" stroke-linecap="round" stroke-linejoin="round" stroke-width="2.000000"
	d="
M160.500000,18.000000 
	C159.899841,18.533253 159.758713,19.301958 159.421799,19.959961 
	C156.771088,25.136847 155.091202,25.360081 150.000000,21.500000 
"/>
<path fill="none" opacity="1.000000" stroke="#000000" stroke-linecap="round" stroke-linejoin="round" stroke-width="2.000000"
	d="
M167.000000,33.500000 
	C163.112457,40.329037 162.468750,40.618706 157.000000,38.000000 
"/>
<path fill="none" opacity="1.000000" stroke="#000000" stroke-linecap="round" stroke-linejoin="round" stroke-width="2.000000"
	d="
M112.500000,149.500000 
	C112.801796,153.633911 111.246162,157.176804 109.000000,160.500000 
"/>
<path fill="none" opacity="1.000000" stroke="#000000" stroke-linecap="round" stroke-linejoin="round" stroke-width="3.000000"
	d="
M277.000000,141.500000 
	C275.868042,144.909714 275.476868,148.425262 275.500000,152.000000 
"/>
<path fill="none" opacity="1.000000" stroke="#000000" stroke-linecap="round" stroke-linejoin="round" stroke-width="3.000000"
	d="
M226.000000,12.750000 
	C232.485428,12.751728 234.614609,14.485514 234.917282,20.504160 
	C234.986389,21.878531 235.298462,23.098310 236.047287,23.958855 
	C239.303864,27.701326 241.191299,32.218552 243.500000,36.500000 
"/>
<path fill="none" opacity="1.000000" stroke="#000000" stroke-linecap="round" stroke-linejoin="round" stroke-width="3.000000"
	d="
M274.000000,153.000000 
	C270.734894,152.776611 268.304657,154.918747 265.500000,156.000000 
"/>
<path fill="none" opacity="1.000000" stroke="#000000" stroke-linecap="round" stroke-linejoin="round" stroke-width="2.000000"
	d="
M109.500000,150.500000 
	C109.016075,153.871262 106.905708,156.381454 105.000000,159.000000 
"/>
<path fill="none" opacity="1.000000" stroke="#000000" stroke-linecap="round" stroke-linejoin="round" stroke-width="3.000000"
	d="
M225.500000,20.000000 
	C228.711655,23.049173 229.963120,27.258490 231.989471,31.005690 
	C233.952423,34.635605 235.399582,38.578033 238.500000,41.500000 
"/>
<path fill="none" opacity="1.000000" stroke="#000000" stroke-linecap="round" stroke-linejoin="round" stroke-width="2.000000"
	d="
M116.500000,60.500000 
	C118.701530,62.392963 121.227570,63.677479 124.000000,64.500000 
"/>
<path fill="none" opacity="1.000000" stroke="#000000" stroke-linecap="round" stroke-linejoin="round" stroke-width="3.000000"
	d="
M226.000000,13.500000 
	C224.667694,14.583591 224.931503,16.109562 225.035126,17.497377 
	C225.154175,19.091627 224.292130,19.555969 223.000000,19.750000 
"/>
<path fill="none" opacity="1.000000" stroke="#000000" stroke-linecap="round" stroke-linejoin="round" stroke-width="2.000000"
	d="
M98.000000,67.000000 
	C99.993858,68.282631 101.976051,69.595596 104.500000,69.500000 
"/>
<path fill="none" opacity="1.000000" stroke="#000000" stroke-linecap="round" stroke-linejoin="round" stroke-width="2.000000"
	d="
M132.500000,35.500000 
	C133.858093,37.413471 136.396439,37.472252 138.000000,39.000000 
"/>
<path fill="none" opacity="1.000000" stroke="#000000" stroke-linecap="round" stroke-linejoin="round" stroke-width="2.000000"
	d="
M137.000000,25.000000 
	C137.427368,27.632029 139.243744,29.013966 141.500000,30.000000 
"/>
<path fill="none" opacity="1.000000" stroke="#000000" stroke-linecap="round" stroke-linejoin="round" stroke-width="2.000000"
	d="
M153.000000,46.500000 
	C154.978851,46.766487 156.367447,48.656170 158.500000,48.500000 
"/>
<path fill="none" opacity="1.000000" stroke="#000000" stroke-linecap="round" stroke-linejoin="round" stroke-width="2.000000"
	d="
M106.500000,65.500000 
	C105.249512,63.612728 102.954788,65.206268 101.500000,64.000000 
"/>
<path fill="none" opacity="1.000000" stroke="#000000" stroke-linecap="round" stroke-linejoin="round" stroke-width="2.000000"
	d="
M237.500000,27.000000 
	C236.393143,28.551241 234.340134,27.973633 233.000000,29.000000 
"/>
<path fill="none" opacity="1.000000" stroke="#000000" stroke-linecap="round" stroke-linejoin="round" stroke-width="2.000000"
	d="
M231.500000,31.000000 
	C230.154617,31.467884 229.140671,32.819553 227.500000,32.500000 
"/>
<path fill="none" opacity="1.000000" stroke="#000000" stroke-linecap="round" stroke-linejoin="round" stroke-width="2.000000"
	d="
M116.000000,43.500000 
	C117.166664,44.333336 118.333336,45.166668 119.500000,46.000000 
"/>
</svg>