<svg version="1.1" id="Layer_1" xmlns="http://www.w3.org/2000/svg" xmlns:xlink="http://www.w3.org/1999/xlink" x="0px" y="0px"
	 width="100%" viewBox="0 0 389 239" enable-background="new 0 0 389 239" xml:space="preserve">
<path fill="none" opacity="1.000000" stroke="#000000" stroke-linecap="round" stroke-linejoin="round" stroke-width="3.000000"
	d="
M274.500000,114.000000 
	C279.351501,111.936623 281.794434,108.613739 282.218231,103.016525 
	C282.508972,99.176949 282.921875,95.001114 285.354004,91.401367 
	C286.175995,90.184830 285.257599,87.813980 285.120300,85.990944 
	C284.447845,77.061287 284.761841,68.260689 292.006104,61.506550 
	C293.128998,60.459618 294.211487,59.286060 295.522522,58.539547 
	C299.692169,56.165279 303.303650,58.481342 303.506042,63.499756 
	C303.748169,69.504433 302.491119,75.661285 304.556671,81.479889 
	C307.241608,89.043282 304.331665,96.231384 303.348114,103.479385 
	C302.601501,108.980797 301.458435,114.414764 301.501617,119.999985 
	C301.530945,123.796577 300.561615,127.224777 298.546021,130.528076 
	C292.822418,139.908249 288.207092,149.890381 284.108459,160.043777 
	C280.544434,168.872803 282.961609,177.833252 286.662292,185.925781 
	C291.676575,196.890793 297.833344,207.333328 303.500000,218.000000 
"/>
<path fill="none" opacity="1.000000" stroke="#000000" stroke-linecap="round" stroke-linejoin="round" stroke-width="3.000000"
	d="
M59.000000,74.000000 
	C53.086121,74.410393 51.189003,78.874756 50.693165,83.520615 
	C50.326679,86.954536 49.228203,90.324501 47.322861,92.331863 
	C41.609074,98.351593 41.018391,105.467514 40.983768,112.999924 
	C40.949287,120.501556 41.409611,128.023712 40.477943,135.497253 
	C39.718887,141.586182 43.029213,145.605865 46.972729,149.527420 
	C53.407017,155.925903 59.556770,162.612198 66.038368,168.960831 
	C70.411301,173.244034 70.607033,178.800888 70.328651,183.990814 
	C69.795883,193.923187 67.056747,203.543671 63.907963,212.969254 
	C63.349651,214.640503 64.387268,216.749512 62.500000,218.000000 
"/>
<path fill="none" opacity="1.000000" stroke="#000000" stroke-linecap="round" stroke-linejoin="round" stroke-width="3.000000"
	d="
M118.000000,101.000000 
	C119.160797,91.147575 125.100090,82.585175 125.599075,72.504906 
	C125.736595,69.726845 126.795807,66.980492 128.410828,64.443245 
	C129.841415,62.195744 131.407181,61.356102 134.001938,61.439789 
	C137.147476,61.541248 138.320602,63.771198 138.913269,66.022827 
	C140.322647,71.377365 139.453751,76.724861 138.011337,82.003098 
	C134.698181,94.126991 133.062515,106.491493 134.591156,118.988853 
	C136.157959,131.798157 137.373260,144.587006 137.004272,157.500122 
	C136.682571,168.757568 134.666687,179.425110 129.182968,189.598633 
	C125.199921,196.988098 124.613373,205.676132 123.541222,214.005310 
	C123.340874,215.561798 123.462761,217.139877 122.500000,218.500000 
"/>
<path fill="none" opacity="1.000000" stroke="#000000" stroke-linecap="round" stroke-linejoin="round" stroke-width="3.000000"
	d="
M224.500000,102.000000 
	C220.644501,92.420372 214.417694,84.064919 210.407501,74.538940 
	C208.749725,70.601021 206.541016,66.750458 202.997192,64.003624 
	C199.174942,61.040977 195.674271,62.554070 194.474197,67.493736 
	C193.140060,72.985275 195.795929,77.403755 197.987411,82.005997 
	C201.762024,89.932899 205.187729,97.918030 207.721527,106.434090 
	C211.382675,118.739090 209.504059,131.182114 210.278778,143.513901 
	C211.222733,158.539719 214.777206,172.406677 223.019913,184.986954 
	C227.755020,192.213821 229.829514,200.475067 232.447861,208.516983 
	C233.613754,212.097855 234.787567,215.644424 236.500000,219.000000 
"/>
<path fill="none" opacity="1.000000" stroke="#000000" stroke-linecap="round" stroke-linejoin="round" stroke-width="3.000000"
	d="
M285.000000,71.500000 
	C283.229919,70.295387 282.539246,68.425705 282.009155,66.497482 
	C279.533081,57.490543 274.310577,50.221821 268.055847,43.448425 
	C263.010681,37.984905 259.189850,31.481604 252.556183,27.408501 
	C246.677383,23.798904 244.603912,23.773907 240.000000,29.250000 
"/>
<path fill="none" opacity="1.000000" stroke="#000000" stroke-linecap="round" stroke-linejoin="round" stroke-width="3.000000"
	d="
M81.500000,92.500000 
	C79.860794,91.769829 78.221588,91.039650 76.424088,90.238968 
	C78.213249,83.937988 79.850418,77.372589 78.532990,70.493683 
	C78.446518,70.042160 78.714714,69.409164 79.017662,69.013519 
	C84.196312,62.250324 85.868767,53.560974 91.375313,46.896973 
	C93.321800,44.541344 94.229149,41.083202 94.882423,37.975285 
	C95.469849,35.180672 94.652832,32.188820 91.962929,30.561272 
	C89.723167,29.206097 87.194748,30.002487 85.018486,31.038820 
	C79.714424,33.564598 76.299477,38.073147 73.546638,43.025921 
	C71.016098,47.578743 68.224686,51.927696 64.988892,55.991154 
	C62.262718,59.414646 60.570179,63.427860 59.680840,67.539116 
	C59.148155,70.001617 58.388432,73.136345 60.978451,75.523384 
	C66.368774,80.491272 66.011040,87.170822 65.334221,93.482224 
	C64.859642,97.907646 62.885010,102.183441 61.484943,106.495110 
	C60.178646,110.517982 61.773476,114.482979 61.649544,118.504608 
	C61.515663,122.849174 63.572739,126.847725 66.000000,130.500000 
"/>
<path fill="none" opacity="1.000000" stroke="#000000" stroke-linecap="round" stroke-linejoin="round" stroke-width="2.000000"
	d="
M268.500000,117.500000 
	C256.265900,123.042938 249.910309,133.856308 244.050903,145.026703 
	C242.094055,148.757248 240.814148,152.826935 240.000000,157.000000 
"/>
<path fill="none" opacity="1.000000" stroke="#000000" stroke-linecap="round" stroke-linejoin="round" stroke-width="3.000000"
	d="
M111.000000,41.500000 
	C109.167145,37.231968 112.466507,33.856606 113.132202,30.022955 
	C113.663055,26.965824 113.170723,25.067938 110.523499,23.461279 
	C107.751701,21.779011 105.216850,21.722395 102.487694,23.480896 
	C98.822868,25.842278 97.645882,30.236881 94.500000,33.000000 
"/>
<path fill="none" opacity="1.000000" stroke="#000000" stroke-linecap="round" stroke-linejoin="round" stroke-width="2.000000"
	d="
M110.500000,157.500000 
	C104.135063,150.042755 98.143089,142.206390 89.986702,136.519073 
	C85.657547,133.500443 80.796745,131.822769 75.500000,131.500000 
"/>
<path fill="none" opacity="1.000000" stroke="#000000" stroke-linecap="round" stroke-linejoin="round" stroke-width="3.000000"
	d="
M120.500000,104.500000 
	C119.121208,101.735542 116.357094,100.608276 113.897903,98.930611 
	C115.388115,95.772148 114.759338,92.238434 114.780807,88.998550 
	C114.834862,80.841721 118.449089,73.677315 119.868530,65.975769 
	C121.123787,59.165016 124.759048,53.088196 125.151657,46.008411 
	C125.328262,42.823601 125.440010,40.405769 122.526009,38.461033 
	C119.597458,36.506596 116.976807,37.412220 114.524330,39.036724 
	C110.071945,41.985935 107.220154,46.028484 106.447533,51.492580 
	C106.087898,54.035995 105.762817,56.900883 104.397591,58.931137 
	C98.235901,68.094284 97.686195,78.638832 96.644600,89.014519 
	C96.389633,91.554298 95.192818,91.927177 93.500000,92.500000 
"/>
<path fill="none" opacity="1.000000" stroke="#000000" stroke-linecap="round" stroke-linejoin="round" stroke-width="3.000000"
	d="
M269.500000,88.500000 
	C266.291718,88.041618 264.739319,86.757454 263.719666,83.077682 
	C262.334747,78.079704 261.047516,73.055191 260.107971,67.980011 
	C259.632660,65.412544 258.772614,63.084301 257.441742,61.037888 
	C253.259293,54.606670 249.808304,47.702888 244.572800,41.933929 
	C242.142319,39.255795 240.793106,35.961113 240.318787,32.021820 
	C239.643250,26.411371 234.343231,23.755320 230.351669,20.693369 
	C228.689026,19.417931 225.542435,20.528992 223.458664,22.455278 
	C222.055161,23.752722 220.873871,25.220116 221.082138,26.990335 
	C221.458710,30.191133 221.484131,33.902748 223.155701,36.395599 
	C228.658600,44.602261 229.498520,54.700489 234.541779,62.974533 
	C239.909744,71.781303 240.268661,82.073051 243.859619,91.582214 
	C244.830597,91.693649 246.165298,91.846825 247.500000,92.000000 
"/>
<path fill="none" opacity="1.000000" stroke="#000000" stroke-linecap="round" stroke-linejoin="round" stroke-width="3.000000"
	d="
M222.000000,35.500000 
	C211.053329,33.460644 209.247147,39.449898 210.535110,47.994709 
	C210.791855,49.698040 211.169891,51.538666 212.056854,52.964630 
	C215.999786,59.303650 215.925461,67.099274 219.548859,73.472221 
	C224.171478,81.602631 223.673004,91.321648 228.000000,99.500000 
"/>
<path fill="none" opacity="1.000000" stroke="#000000" stroke-linecap="round" stroke-linejoin="round" stroke-width="2.000000"
	d="
M301.000000,60.500000 
	C296.511688,65.748718 296.754150,73.382797 301.509888,75.981880 
	C301.766571,76.122169 302.166656,76.000000 302.500000,76.000000 
"/>
<path fill="none" opacity="1.000000" stroke="#000000" stroke-linecap="round" stroke-linejoin="round" stroke-width="2.000000"
	d="
M56.000000,76.000000 
	C59.086777,82.310921 58.763222,85.546455 54.500019,90.999954 
	C52.635838,91.152702 51.538689,89.579620 50.000000,89.000000 
"/>
<path fill="none" opacity="1.000000" stroke="#000000" stroke-linecap="round" stroke-linejoin="round" stroke-width="3.000000"
	d="
M78.000000,70.000000 
	C76.166664,70.000000 74.333336,70.000000 72.500000,70.000000 
"/>
<path fill="none" opacity="1.000000" stroke="#000000" stroke-linecap="round" stroke-linejoin="round" stroke-width="2.000000"
	d="
M261.000000,66.999992 
	C262.500000,67.166664 264.000000,67.333328 265.500000,67.499992 
"/>
<path fill="none" opacity="1.000000" stroke="#000000" stroke-linecap="round" stroke-linejoin="round" stroke-width="3.000000"
	d="
M230.500000,99.000000 
	C226.559311,99.864174 224.185333,102.897644 221.500000,105.500000 
"/>
<path fill="none" opacity="1.000000" stroke="#000000" stroke-linecap="round" stroke-linejoin="round" stroke-width="2.000000"
	d="
M95.500000,68.500000 
	C96.666664,68.666664 97.833336,68.833336 99.000000,69.000000 
"/>
</svg>