<svg xmlns="http://www.w3.org/2000/svg" width="512" height="512" viewBox="0 0 512 512" version="1.1">
	<path d="M 58.594 4.009 C 55.895 5.063, 52.387 7.171, 50.797 8.694 C 48.398 10.993, 47.958 12.145, 48.204 15.481 C 48.483 19.266, 48.819 19.655, 53.972 22.166 C 60.787 25.485, 63 28.140, 63 32.996 C 63 35.930, 62.437 37.139, 60.471 38.427 C 58.154 39.945, 57.997 40.495, 58.594 44.996 C 59.310 50.396, 58.828 51.105, 49.255 58.719 C 38.309 67.426, 38.282 81.913, 49.193 91.764 C 60.080 101.592, 59.312 100.233, 58.768 108.708 L 58.280 116.314 51.198 122.907 C 47.303 126.533, 43.331 131.075, 42.370 133 C 37.940 141.879, 41.821 154.275, 51.665 162.685 C 56.974 167.221, 57.185 167.585, 56.679 171.354 C 56.025 176.232, 54.903 176.965, 48.064 176.985 C 37.555 177.014, 21.957 182.316, 12.593 189.041 C 10.166 190.783, 6.340 194.694, 4.091 197.730 L -0 203.251 -0 215.467 L 0 227.683 3.907 228.854 C 8.627 230.268, 13.666 235.702, 14.530 240.310 C 14.876 242.154, 15.011 257.165, 14.830 273.669 L 14.500 303.675 11.573 307.897 C 9.962 310.220, 7.825 312.558, 6.823 313.095 C 4.248 314.473, 4.536 316.795, 8.250 324.638 C 11.087 330.629, 11.543 332.733, 11.842 341.208 C 12.152 349.972, 11.936 351.431, 9.626 356.208 C 8.218 359.119, 6.083 362.712, 4.881 364.193 C 2.824 366.726, 2.790 367.031, 4.309 369.348 C 6.937 373.360, 22.189 377.644, 42 379.935 C 58.869 381.886, 86.171 382.859, 95.453 381.839 C 109.981 380.242, 126.155 374.839, 131.750 369.713 C 134.657 367.050, 134.588 366.172, 131.146 361.978 C 122.729 351.723, 122.050 340.039, 129.005 325.175 C 130.652 321.655, 132 317.941, 132 316.921 C 132 315.901, 129.997 312.812, 127.550 310.056 C 125.043 307.234, 122.829 303.603, 122.480 301.746 C 122.140 299.931, 122.005 285.150, 122.181 268.898 L 122.500 239.349 125.246 235.202 C 128.255 230.657, 131.461 228.637, 137.362 227.567 C 142.984 226.548, 146 223.112, 146 217.724 C 146 208.712, 140.795 198.409, 132.764 191.524 C 123.890 183.918, 105.081 177, 93.274 177 C 85.604 177, 84 175.890, 84 170.584 C 84 166.735, 84.429 165.911, 87.750 163.387 C 96.384 156.824, 99.943 150.663, 99.978 142.218 C 100.009 134.652, 97.836 130.434, 90.084 123.013 C 83.825 117.021, 83.193 116.038, 82.538 111.277 C 81.632 104.689, 82.572 100.379, 85.333 98.470 C 86.525 97.646, 90.875 94.760, 95 92.058 C 99.935 88.825, 106.587 82.800, 114.451 74.437 C 129.337 58.608, 134.997 54, 139.555 54 C 146.994 54, 154.259 64.712, 155.832 78 C 156.880 86.849, 156.725 87.457, 153.027 88.989 C 148.605 90.821, 145.798 94.366, 146.174 97.646 C 146.655 101.858, 154.283 104.274, 167.500 104.403 C 184.526 104.568, 194.721 99.801, 190.645 93.581 C 189.773 92.250, 187.246 90.142, 185.030 88.897 C 181.362 86.835, 180.998 86.266, 180.983 82.566 C 180.927 69.422, 173.534 51.638, 164.177 42.139 C 155.921 33.756, 150.688 31.500, 139.500 31.500 C 131.234 31.500, 130.011 31.766, 124.500 34.760 C 121.200 36.554, 113.775 42.107, 108 47.101 C 102.225 52.095, 96.726 56.599, 95.780 57.109 C 94.469 57.818, 92.634 57.024, 88.057 53.769 C 82.249 49.639, 82.053 49.353, 82.036 45 C 82.021 41.276, 81.514 40.069, 79.097 38 C 76.677 35.929, 76.265 34.946, 76.697 32.277 C 77.635 26.482, 83.704 22, 90.611 22 C 95.061 22, 99 18.299, 99 14.118 C 99 10.474, 95.020 7, 90.845 7 C 89.259 7, 85.192 5.875, 81.808 4.500 C 74.232 1.422, 65.684 1.241, 58.594 4.009 M 295.500 91.565 C 287.775 95.563, 278.968 107.291, 273.948 120.262 C 264.788 143.936, 264.313 170.046, 272.570 195.971 C 276.187 207.326, 277.976 209.724, 283.443 210.544 C 285.949 210.920, 289.350 211.029, 291 210.787 C 294.555 210.265, 294.507 209.664, 291.967 223 C 290.821 229.016, 289.699 240.373, 289.341 249.592 C 288.806 263.339, 288.970 266.497, 290.469 271.262 C 293.587 281.174, 300.946 285.318, 307.810 281.026 C 314.166 277.052, 316.932 264.709, 315.092 248.528 C 314.008 239, 309.753 216.126, 308.416 212.641 C 307.864 211.202, 308.793 211, 315.970 211 C 323.629 211, 324.336 210.818, 326.997 208.157 C 332.285 202.868, 337.902 179.909, 337.965 163.322 C 338.053 140.321, 331.633 118.050, 320.364 102.258 C 312.603 91.381, 303.455 87.448, 295.500 91.565 M 10.178 212.005 C 6.689 213.588, 5.919 214.403, 6.178 216.233 L 6.500 218.500 71 218.500 L 135.500 218.500 135.811 216.311 C 135.985 215.092, 135.210 213.210, 134.061 212.061 C 132.026 210.026, 131.266 210, 73.250 210.022 C 17.048 210.043, 14.313 210.129, 10.178 212.005 M 164.909 227.829 C 154.133 231.406, 147.428 237.584, 142.188 248.765 C 139.805 253.848, 139.500 255.693, 139.500 265 C 139.500 274.995, 139.673 275.860, 143.095 283 C 145.072 287.125, 148.560 293.382, 150.845 296.905 C 156.612 305.794, 156.404 307.586, 148.847 314.133 C 134.403 326.645, 134.549 338.644, 149.340 354.754 C 157.498 363.640, 157.980 366.527, 152.500 373.704 C 150.575 376.225, 149 378.837, 149 379.509 C 149 382.402, 153.800 386.342, 162.339 390.457 C 183.104 400.466, 220.242 406.862, 270 408.999 C 298.313 410.216, 364.548 410.213, 398 408.995 C 422.119 408.117, 423.639 408.167, 426.070 409.930 C 430.940 413.461, 442.511 418.757, 446.997 419.507 C 454.351 420.737, 458.245 425.488, 460.799 436.344 C 463.159 446.375, 462.613 450.040, 458.775 449.941 C 451.982 449.765, 5.515 451.152, 5.318 451.349 C 4.895 451.772, 8.951 470.437, 9.968 472.750 L 10.957 475 44.287 475 C 69.454 475, 77.999 475.306, 79.176 476.250 C 80.034 476.938, 83.531 481.100, 86.949 485.500 C 90.367 489.900, 96.988 497.662, 101.661 502.750 L 110.159 512 245.496 512 C 319.932 512, 380.983 511.663, 381.167 511.250 C 381.350 510.837, 385.290 507.125, 389.922 503 C 394.554 498.875, 401.682 491.311, 405.764 486.190 C 409.845 481.070, 414.297 476.458, 415.657 475.940 C 417.017 475.423, 427.091 475, 438.042 475 C 461.036 475, 458.841 476.013, 463.566 463.218 C 465.807 457.150, 467.137 455.183, 471.549 451.414 C 480.093 444.115, 481.478 436.235, 475.518 428.828 C 473.603 426.447, 470.624 422.118, 468.899 419.207 C 467.173 416.296, 463.277 411.796, 460.242 409.207 C 448.383 399.091, 446.483 397.139, 447.500 396.113 C 448.050 395.558, 453 393.150, 458.500 390.763 C 481.181 380.918, 497.640 366.774, 502.525 352.930 C 506.965 340.346, 500.394 328.570, 486.655 324.490 C 473.887 320.699, 457.916 323.517, 424.610 335.439 C 417.520 337.977, 411.596 339.929, 411.444 339.777 C 411.292 339.624, 415.038 336.575, 419.767 333 C 434.281 322.028, 441.019 309.282, 438.001 298.505 C 436.366 292.665, 429.388 284.772, 423.928 282.588 C 410.604 277.257, 396.991 280.519, 374.967 294.322 C 369.569 297.705, 366.027 299.202, 362.467 299.604 C 357.911 300.118, 356.577 299.706, 346.327 294.607 C 330.418 286.694, 323.538 285, 307.308 285 C 296.404 285, 293.108 284.638, 288.580 282.944 C 281.450 280.276, 271.293 273.574, 257 262.104 C 234.780 244.274, 221.618 236.500, 203.160 230.308 C 194.103 227.269, 190.846 226.674, 181.500 226.352 C 172.714 226.050, 169.375 226.347, 164.909 227.829 M 169.942 247.919 C 163.028 250.096, 159.068 255.586, 159.022 263.056 C 158.963 272.669, 167.435 287.739, 177.722 296.319 C 187.510 304.481, 220.597 319, 229.412 319 C 231.852 319, 231.973 318.815, 230.889 316.750 C 227.196 309.720, 218.084 302.001, 203.331 293.403 C 197.188 289.824, 190.110 285.088, 187.601 282.880 C 182.851 278.698, 178.455 273.212, 179.232 272.434 C 179.480 272.186, 183.017 273.516, 187.091 275.388 C 191.166 277.261, 199 280.175, 204.500 281.864 C 221.648 287.131, 231.366 291.459, 242.840 298.940 C 249.083 303.011, 254.425 305.855, 255.075 305.454 C 258.275 303.476, 253.232 290.704, 246.126 282.786 C 229.591 264.365, 183.988 243.494, 169.942 247.919 M 407.453 300.132 C 404.737 301.854, 400.712 304.724, 398.507 306.510 C 389.982 313.415, 378.538 320.280, 355.957 332.036 C 343.056 338.752, 324.752 348.489, 315.283 353.674 C 280.876 372.511, 277.419 373.516, 249.737 372.731 C 222.271 371.953, 197.531 367.360, 183.941 360.516 C 182.049 359.563, 177.951 356.807, 174.834 354.392 C 171.718 351.976, 168.878 350, 168.522 350 C 168.167 350, 169.351 352.055, 171.155 354.566 C 181.213 368.572, 197.162 376.559, 223 380.529 C 242 383.448, 279.661 381.963, 302.500 377.394 C 327.269 372.439, 357.676 357.717, 378.372 340.660 C 389.519 331.473, 419.046 304.784, 419.895 303.127 C 420.354 302.232, 420.498 300.825, 420.215 300 C 418.841 295.996, 413.895 296.047, 407.453 300.132 M 279 308.436 C 264.709 311.471, 254.511 316.069, 238.935 326.500 C 225.799 335.297, 222.830 336.404, 214.109 335.763 C 208.718 335.366, 204.828 334.069, 193 328.725 C 185.025 325.121, 176.700 321.686, 174.500 321.092 C 167.980 319.330, 157 319.922, 157 322.035 C 157 322.476, 159.915 323.807, 163.479 324.993 C 168.608 326.700, 171.562 328.606, 177.663 334.148 C 186.663 342.323, 190.419 344.422, 200.795 347.075 C 218.109 351.504, 258.231 354.412, 270.500 352.129 C 278.565 350.628, 288.349 345.586, 301 336.412 C 310.330 329.646, 326.356 320.769, 336.073 316.985 L 339.500 315.650 336.500 315.242 C 334.850 315.017, 327.200 313.266, 319.500 311.349 C 303.060 307.256, 289.236 306.262, 279 308.436 M 470.500 344.581 C 455.790 349.849, 430.658 356.978, 409.500 361.885 C 393.773 365.533, 385.504 367.976, 380.500 370.452 C 372.534 374.395, 359.249 384.199, 360 385.581 C 360.725 386.913, 387.187 386.537, 396 385.069 C 428.623 379.635, 465.230 365.047, 479.692 351.717 C 484.087 347.665, 484.937 345.337, 482.800 343.200 C 481.059 341.459, 478.378 341.760, 470.500 344.581" stroke="none" fill="black" fill-rule="evenodd"/>
</svg>