<svg xmlns="http://www.w3.org/2000/svg" width="512" height="512" viewBox="0 0 512 512" version="1.1">
	<path d="M 216.359 35.061 C 206.909 35.977, 198.977 39.050, 195.550 43.123 C 191.061 48.457, 189.843 62.668, 193.451 67.602 C 194.785 69.427, 194.873 69.425, 196.974 67.523 C 198.816 65.856, 199.036 64.894, 198.485 60.891 C 196.879 49.212, 206.718 44.027, 230.527 44.008 C 240.743 43.999, 244 45.372, 244 49.689 C 244 53.311, 238.036 58.615, 231.920 60.431 C 229.175 61.246, 222.332 62.218, 216.714 62.590 C 202.477 63.533, 202.867 63.195, 203.213 74.305 L 203.500 83.500 206.728 85 C 209.694 86.378, 209.958 86.885, 209.978 91.233 C 210 95.911, 209.942 95.996, 205.036 98.482 C 198.938 101.572, 198 103.229, 198 110.911 C 198 116.109, 197.685 117.144, 195.750 118.312 C 178.390 128.792, 168.779 137.095, 162.046 147.430 C 157.334 154.661, 154.729 161.746, 152.995 172.042 C 152.046 177.672, 150.318 182.197, 145.944 190.500 C 138.978 203.723, 136.773 210.926, 136.793 220.388 C 136.809 228.212, 139.751 237.751, 143.216 241.216 C 145.025 243.025, 145.091 243.602, 143.958 247.650 C 142.450 253.035, 143.712 258.316, 147.616 262.955 C 150.710 266.632, 152.438 266.788, 154.541 263.578 C 156.078 261.232, 156.243 261.203, 159.751 262.669 C 165.152 264.926, 169.361 268.474, 174.156 274.813 C 176.522 277.941, 179.896 282.228, 181.653 284.341 C 184.825 288.155, 184.837 288.211, 183.357 292.341 C 181.499 297.527, 175.793 321.083, 173.056 334.865 C 167.986 360.390, 166.531 390.751, 169.455 410 C 176.384 455.628, 204.028 489, 234.895 489 C 263.050 489, 286.503 465.782, 296.129 428.380 C 298.699 418.394, 299.273 413.941, 299.728 400.446 C 300.330 382.553, 299.351 371.594, 295.292 350.776 C 293.820 343.227, 292.814 336.854, 293.058 336.613 C 293.301 336.372, 304.075 336.637, 317 337.203 C 329.925 337.769, 342.509 338.168, 344.965 338.091 C 351.380 337.888, 357.556 334.638, 374.288 322.659 C 398.044 305.650, 407.599 296.936, 432.621 269.458 C 444.215 256.727, 450.985 251.532, 461.277 247.468 C 465.800 245.682, 479.041 239.559, 490.702 233.861 L 511.903 223.500 511.952 196.691 C 511.978 181.946, 511.662 170.074, 511.250 170.309 C 488.167 183.441, 479.595 188.526, 468.259 195.809 C 448.168 208.716, 446.002 209.267, 428.422 205.943 C 413.381 203.099, 395.398 203.617, 377.831 207.401 C 371.414 208.783, 359.372 210.624, 351.072 211.492 C 333.383 213.343, 325.284 215.614, 315.085 221.585 C 310.220 224.432, 305.012 226.521, 300.068 227.606 C 291.105 229.574, 287.179 231.459, 280.641 236.932 C 275.422 241.302, 272.330 242.442, 275.713 238.750 C 283.787 229.937, 286.091 213.833, 280.463 205.541 C 277.700 201.469, 276.691 201.870, 290.500 201.550 C 302.671 201.267, 315.310 197.881, 323.307 192.760 C 326.713 190.579, 335.582 182.603, 343.016 175.037 C 358.049 159.735, 361.657 157.382, 374.486 154.512 C 377.135 153.919, 377.266 153.728, 375.650 152.824 C 371.974 150.767, 359.967 151.746, 349.627 154.945 C 343.957 156.700, 337.533 158, 334.537 158 L 329.320 158 327.980 153.750 C 324.457 142.580, 317.568 133.390, 307.544 126.486 C 301.674 122.443, 300.982 121.087, 303.658 118.872 C 306.209 116.761, 308.954 109.932, 308.978 105.633 C 308.998 102.077, 309.181 101.825, 311.250 102.498 C 312.488 102.900, 320.475 103.558, 329 103.960 C 341.693 104.559, 345.224 105.063, 348.500 106.743 C 350.700 107.872, 357.675 113.921, 364 120.186 C 377.575 133.633, 387.782 141.461, 400.337 148.055 C 415.284 155.904, 423.647 158.336, 436 158.425 L 446.500 158.500 470 146.811 C 482.925 140.382, 497.550 133.356, 502.500 131.197 L 511.500 127.271 511.789 118.636 C 512.014 111.909, 511.779 110, 510.728 110 C 509.985 110, 499.730 115.424, 487.939 122.054 C 476.147 128.683, 461.775 136.446, 456 139.304 L 445.500 144.500 434.965 144.500 L 424.430 144.500 413.965 139.359 C 401.544 133.257, 391.505 126.396, 379.055 115.500 C 352.981 92.681, 355.321 93.841, 333.500 92.923 C 324.150 92.530, 315.150 91.879, 313.500 91.476 C 311.850 91.073, 306.507 88.463, 301.627 85.676 C 296.747 82.890, 290.502 79.847, 287.751 78.916 L 282.748 77.222 282.624 68.861 L 282.500 60.500 291.750 60.691 L 301 60.881 300.978 57.691 C 300.896 45.762, 287.870 36.906, 267.500 34.928 C 256.738 33.883, 227.737 33.959, 216.359 35.061 M 228 86.886 C 224.180 88.105, 245.358 89.209, 252 88.137 L 257.500 87.250 249 87.116 C 244.325 87.043, 238.250 86.782, 235.500 86.536 C 232.750 86.290, 229.375 86.448, 228 86.886 M 282.839 91.201 C 282.450 96.921, 282.307 96.622, 287.208 100.275 C 291.342 103.355, 292.795 107.778, 291.121 112.183 C 290.337 114.244, 290.445 115.124, 291.599 116.082 C 292.833 117.106, 293.783 116.647, 297.127 113.409 C 303.842 106.908, 305.586 101.710, 302.521 97.334 C 300.454 94.382, 291.222 88.428, 286.839 87.220 L 283.179 86.211 282.839 91.201 M 226 99.650 C 230.969 101.888, 247.962 102.481, 255 100.661 L 260.500 99.238 249 99.369 C 242.675 99.441, 234.125 99.179, 230 98.786 C 222.606 98.083, 222.550 98.095, 226 99.650 M 212 110.843 C 212 111.381, 214.137 112.874, 216.750 114.161 C 221.203 116.354, 222.564 116.492, 238.500 116.376 C 247.850 116.308, 256.850 115.784, 258.500 115.212 C 260.823 114.407, 257.777 114.149, 245 114.071 C 230.092 113.980, 222.488 113.088, 213.750 110.403 C 212.787 110.107, 212 110.305, 212 110.843 M 137.465 122.893 C 136.346 123.379, 134.854 124.472, 134.148 125.321 C 133.066 126.626, 133.299 127.149, 135.644 128.683 C 140.983 132.176, 162.500 130.427, 162.500 126.500 C 162.500 123.404, 142.820 120.568, 137.465 122.893 M 197.905 136.132 C 177.859 149.066, 165.695 171.397, 167.474 192 C 167.830 196.125, 168.475 201.075, 168.907 203 L 169.693 206.500 170.403 201.500 C 174.133 175.227, 181.260 160.738, 198.836 143.694 C 206.680 136.087, 206.983 135.905, 210.693 136.576 C 219.319 138.134, 219.322 138.264, 210.998 149.500 C 199.638 164.836, 192.878 179.242, 194.929 183.744 C 195.523 185.047, 196.495 185.812, 197.089 185.445 C 197.683 185.078, 200.180 180.440, 202.639 175.139 C 207.280 165.134, 217.153 148.637, 221.913 142.936 C 224.835 139.435, 228 139.340, 228 142.753 C 228 143.752, 225.704 150.854, 222.898 158.535 C 217.427 173.511, 215.761 182.727, 218.165 184.722 C 220.628 186.766, 221.916 184.636, 224.480 174.274 C 227.496 162.085, 231.705 148.517, 233.639 144.750 C 235.245 141.624, 238.338 141.147, 241.708 143.508 C 244.402 145.395, 246.300 153.887, 245.835 161.977 C 245.651 165.188, 245.798 167.629, 246.163 167.402 C 247.351 166.663, 248.290 158.679, 248.180 150.250 C 248.121 145.713, 248.406 142, 248.814 142 C 254.108 142, 261.324 157.663, 265.045 177.233 C 266.230 183.469, 267.297 184.828, 269.544 182.964 C 273.289 179.855, 269.609 164.683, 261.185 148.500 L 256.500 139.500 242.500 138.763 C 227.147 137.954, 212.739 135.637, 209.285 133.421 C 206.028 131.331, 204.948 131.588, 197.905 136.132 M 277.500 137 C 275.530 137.846, 275.531 137.860, 277.577 137.930 C 279.713 138.002, 292.569 150.577, 296.996 156.924 C 300.171 161.476, 300.665 159.406, 297.850 153.347 C 295.220 147.687, 284.023 135.968, 281.343 136.070 C 280.329 136.109, 278.600 136.527, 277.500 137 M 225.060 197.527 C 215.557 199.247, 210.451 201.218, 204.448 205.487 C 194.682 212.430, 191.583 221.343, 195.956 229.914 C 198.385 234.674, 201.775 237.564, 211.162 242.873 C 215.198 245.156, 220.642 248.562, 223.259 250.443 C 228.982 254.554, 237.130 256.480, 245.223 255.634 C 251.404 254.988, 258 252.688, 258 251.178 C 258 250.670, 253.387 250.245, 247.750 250.234 C 236.005 250.211, 227.672 248.059, 219.500 242.939 C 208.877 236.284, 203 228.511, 203 221.117 C 203 215.977, 206.336 211.961, 213.531 208.441 C 218.277 206.119, 219.896 205.834, 226.235 206.201 C 231.129 206.485, 235.091 207.392, 238.376 208.980 C 245.300 212.329, 254.288 221.043, 260.232 230.168 C 263.038 234.476, 265.698 238, 266.143 238 C 268.884 238, 272.959 224.494, 272.985 215.327 C 273.004 208.699, 270.302 205.306, 262.058 201.606 C 250.140 196.258, 238.912 195.020, 225.060 197.527 M 149.057 206.747 C 146.537 214.027, 145.252 228.528, 146.430 236.385 L 147.097 240.829 151.298 238.427 C 153.609 237.105, 156.512 236.019, 157.750 236.012 C 158.988 236.005, 160 235.715, 160 235.366 C 160 233.553, 152.619 201.389, 152.056 200.747 C 151.692 200.333, 150.343 203.033, 149.057 206.747 M 388.529 225.727 C 379.665 229.439, 366.089 232.619, 350.956 234.528 C 343.555 235.462, 337.307 236.406, 337.071 236.625 C 336.835 236.845, 337.458 238.707, 338.455 240.763 C 339.453 242.818, 340.622 246.012, 341.054 247.859 C 343.340 257.644, 331 275.419, 316.152 283.729 C 308.340 288.101, 290.496 294.477, 281.896 295.969 C 278.378 296.579, 274.320 297.542, 272.877 298.108 C 270.665 298.976, 269.488 298.668, 265.377 296.148 C 255.302 289.972, 233.475 280.066, 228.500 279.412 L 223.500 278.754 226.097 281.627 C 227.526 283.207, 231.403 288.100, 234.712 292.500 C 241.193 301.116, 247.025 306.903, 256.500 314.122 C 267.090 322.191, 268.489 322.418, 283.819 318.569 C 298.346 314.922, 307.378 313.239, 319 312.016 C 332.437 310.601, 337.810 308.096, 345.853 299.498 C 352.054 292.869, 354.993 288.237, 366.268 267.325 C 374.651 251.776, 382.094 240.512, 390.436 230.750 C 394.079 226.488, 396.483 223.051, 395.780 223.113 C 395.076 223.176, 391.813 224.352, 388.529 225.727 M 172 256.585 C 172 256.733, 174.478 257.988, 177.507 259.375 C 181.395 261.154, 187.227 265.857, 197.336 275.363 C 205.454 282.996, 213.334 289.530, 215.525 290.446 C 221.640 293.001, 225.518 296.479, 230.929 304.261 C 235.846 311.332, 249.514 324.811, 255.500 328.494 C 257.150 329.509, 253.496 325.200, 247.380 318.920 C 240.561 311.918, 233.718 303.631, 229.691 297.500 C 215.481 275.864, 208.949 269.848, 191.619 262.433 C 182.492 258.527, 172 255.400, 172 256.585 M 194.191 302.711 C 193.569 306.995, 191.942 317.925, 190.576 327 C 185.199 362.733, 185.044 386.485, 190.050 407.840 C 195.408 430.696, 208.030 450.296, 222.119 457.638 C 226.682 460.016, 228.715 460.446, 235.500 460.471 C 242.421 460.496, 244.290 460.100, 249.359 457.532 C 261.600 451.329, 273.420 434.433, 277.967 416.638 C 280.422 407.029, 281.554 392.374, 280.455 384.416 L 279.639 378.500 278.364 388.837 C 274.703 418.512, 262.970 440.862, 246.816 448.934 C 228.911 457.881, 211.638 446.979, 199.721 419.209 C 190.392 397.468, 189.070 370.744, 194.978 323.332 C 197.436 303.610, 197.756 297.356, 196.378 295.978 C 195.637 295.237, 194.985 297.246, 194.191 302.711 M 213.804 333 C 213.101 334.828, 210.980 357.906, 210.992 363.601 C 211.002 368.685, 212.844 374.215, 214.364 373.722 C 214.989 373.518, 216.114 372.092, 216.864 370.551 C 218.027 368.165, 217.988 365.512, 216.602 352.625 C 215.707 344.306, 214.841 336.150, 214.678 334.500 C 214.498 332.682, 214.154 332.091, 213.804 333 M 254.453 354.521 C 255.452 375.319, 257.385 382.871, 260.594 378.522 C 262.303 376.206, 261.959 372.678, 258.470 356.765 C 254.944 340.682, 253.756 340.018, 254.453 354.521" stroke="none" fill="black" fill-rule="evenodd"/>
</svg>