<?xml version="1.0" ?><!-- Uploaded to: SVG Repo, www.svgrepo.com, Generator: SVG Repo Mixer Tools -->
<svg width="800px" height="800px" viewBox="0 0 64 64" id="filled" xmlns="http://www.w3.org/2000/svg"><defs><style>.cls-1{fill:#f7d7c7;}.cls-1,.cls-2,.cls-3{stroke:#000000;stroke-linecap:round;stroke-linejoin:round;stroke-width:2px;}.cls-2{fill:#ffffff;}.cls-3{fill:#81dee3;}</style></defs><title/><path class="cls-1" d="M46,37h4a2,2,0,0,0,2-2h0a2,2,0,0,0-2-2H46"/><path class="cls-1" d="M46,33h9a2,2,0,0,0,2-2h0a2,2,0,0,0-2-2H46"/><path class="cls-1" d="M46,29H57.8A2.1072,2.1072,0,0,0,60,27h0a2.1072,2.1072,0,0,0-2.2-2H46"/><path class="cls-1" d="M46,25h9a2,2,0,0,0,2-2h0a2,2,0,0,0-2-2H46"/><path class="cls-2" d="M52,54a4.9464,4.9464,0,0,0-.2065-1.3455,4.99,4.99,0,1,0-6.151-7.06A4.9945,4.9945,0,1,0,42,54a5,5,0,0,0,10,0Z"/><path class="cls-2" d="M35,22a4.9464,4.9464,0,0,0-.2065-1.3455,4.99,4.99,0,1,0-6.151-7.06A4.9945,4.9945,0,1,0,25,22a5,5,0,0,0,10,0Z"/><rect class="cls-3" height="18" rx="4" ry="4" transform="translate(72.0858 -5.9645) rotate(90)" width="34" x="22.0251" y="24.0607"/><circle class="cls-2" cx="20" cy="53" r="3"/><circle class="cls-2" cx="53" cy="10" r="5"/><path class="cls-1" d="M31,45H22.2111a4,4,0,0,1-2.2188-.6718l-3.9846-2.6564A4,4,0,0,0,13.7889,41H4V29h9.7889a4,4,0,0,0,2.2188-.6718l3.9846-2.6564A4,4,0,0,1,22.2111,25H33a4,4,0,0,1-4,4h1"/><path class="cls-1" d="M30,45h6a2,2,0,0,0,2-2h0a2,2,0,0,0-2-2H30"/><path class="cls-1" d="M30,41H40a2,2,0,0,0,2-2h0a2,2,0,0,0-2-2H30"/><path class="cls-1" d="M30,37H42.8A2.1072,2.1072,0,0,0,45,35h0a2.1072,2.1072,0,0,0-2.2-2H30"/><path class="cls-1" d="M30,33H40a2,2,0,0,0,2-2h0a2,2,0,0,0-2-2H27"/></svg>