<?xml version="1.0" ?><!-- Uploaded to: SVG Repo, www.svgrepo.com, Generator: SVG Repo Mixer Tools -->
<svg width="800px" height="800px" viewBox="0 0 64 64" id="filled" xmlns="http://www.w3.org/2000/svg"><defs><style>.cls-1{fill:#f7d7c7;}.cls-1,.cls-2,.cls-3{stroke:#000000;stroke-linecap:round;stroke-linejoin:round;stroke-width:2px;}.cls-2{fill:none;}.cls-3{fill:#ffffff;}</style></defs><title/><path class="cls-1" d="M32.3564,34.6173l-3.7431,6.4832a4.9994,4.9994,0,0,1-2.1139,1.982l-3.75,1.8542a4.9993,4.9993,0,0,0-2.114,1.9821L15.3923,56,5,50l5.2431-9.0812a5.001,5.001,0,0,0,.6595-2.8218l-.2693-4.1747a5.0008,5.0008,0,0,1,.6595-2.8218l4.7431-8.2152,1-1.7321A4,4,0,0,1,18.5,26.6173h0"/><path class="cls-1" d="M31.8564,35.4833l3-5.1961a2,2,0,0,0-.732-2.7321h0a2,2,0,0,0-2.7321.7321l-3,5.1961"/><path class="cls-1" d="M28.3923,33.4833l5.5-9.5262a2,2,0,0,0-.732-2.7321h0a2,2,0,0,0-2.7321.7321l-5.5,9.5262"/><path class="cls-1" d="M24.9282,31.4833l6.9-11.9511a2.1073,2.1073,0,0,0-.632-2.9053h0a2.1072,2.1072,0,0,0-2.8321.9053l-6.9,11.9511"/><path class="cls-1" d="M21.4641,29.4833l5.5-9.5262a2,2,0,0,0-.732-2.7321h0a2,2,0,0,0-2.732.7321L18,27.4833"/><path class="cls-2" d="M17.9641,35.5455A3.9977,3.9977,0,0,0,16.5,30.0814L18,27.4833"/><circle class="cls-3" cx="40" cy="12" r="4"/><circle class="cls-3" cx="50" cy="18" r="2"/><circle class="cls-3" cx="26" cy="53" r="2"/><circle class="cls-3" cx="17" cy="15" r="3"/><path class="cls-3" d="M35,32a4.9464,4.9464,0,0,0-1.3455.2065,4.99,4.99,0,1,0-7.06,6.151A4.9945,4.9945,0,1,0,35,42a5,5,0,0,0,0-10Z"/><path class="cls-1" d="M49.9641,28.0814l4.3944,7.6114a3.9991,3.9991,0,0,1,.5276,2.2575l-.3082,4.7789a4.0007,4.0007,0,0,0,.5276,2.2575L58,50,47.6077,56l-2.8945-5.0133A4,4,0,0,0,43.022,49.401l-4.2928-2.1225a4.0009,4.0009,0,0,1-1.6912-1.5857L30.6436,34.6173h0a4,4,0,0,1,5.4641,1.4641h0"/><path class="cls-1" d="M50.4641,28.9474l-3-5.1961a2,2,0,0,0-2.7321-.7321h0A2,2,0,0,0,44,25.7513l3,5.1961"/><path class="cls-1" d="M47,30.9474l-5-8.66a2,2,0,0,0-2.7321-.7321h0a2,2,0,0,0-.732,2.7321l5,8.66"/><path class="cls-1" d="M43.5359,32.9474l-6.4-11.0851a2.1072,2.1072,0,0,0-2.8321-.9052h0a2.1072,2.1072,0,0,0-.632,2.9052l6.4,11.0851"/><path class="cls-1" d="M40.0718,34.9474l-5-8.66a2,2,0,0,0-2.7321-.7321h0a2,2,0,0,0-.732,2.7321l5,8.66"/></svg>