<?xml version="1.0" ?><!-- Uploaded to: SVG Repo, www.svgrepo.com, Generator: SVG Repo Mixer Tools -->
<svg width="800px" height="800px" viewBox="0 0 64 64" id="filled" xmlns="http://www.w3.org/2000/svg"><defs><style>.cls-1{fill:#ffffff;}.cls-1,.cls-2{stroke:#000000;stroke-linecap:round;stroke-linejoin:round;stroke-width:2px;}.cls-2{fill:#f7d7c7;}</style></defs><title/><path class="cls-1" d="M26,17a7.9958,7.9958,0,0,1,15.7648-1.895,7.925,7.925,0,0,1,9,6,7.9926,7.9926,0,0,1,3.0291,15.6858A7.9967,7.9967,0,1,1,39,41"/><path class="cls-2" d="M48.4142,37.4559l-7.0711-7.0711-.7071-.7071a4,4,0,0,0,5.6569,0L38.664,22.0488A4,4,0,0,0,36.62,20.9549l-4.696-.9392A4,4,0,0,1,29.88,18.9218L22.9584,12l-8.4853,8.4853,6.9218,6.9218a4,4,0,0,1,1.0939,2.0439l.9392,4.6959a3.9987,3.9987,0,0,0,1.0939,2.044l6.2147,6.2147L33.7415,39h10.56l1.2843,1.2843a2,2,0,0,0,2.8284,0h0A2,2,0,0,0,48.4142,37.4559Z"/><circle class="cls-1" cx="42" cy="56" r="3"/><circle class="cls-1" cx="55" cy="12" r="4"/><path class="cls-2" d="M31,50H22.2111a4,4,0,0,1-2.2188-.6718l-3.9846-2.6564A4,4,0,0,0,13.7889,46H4V34h9.7889a4,4,0,0,0,2.2188-.6718l3.9846-2.6564A4,4,0,0,1,22.2111,30H33a4,4,0,0,1-4,4h1"/><path class="cls-2" d="M30,50h6a2,2,0,0,0,2-2h0a2,2,0,0,0-2-2H30"/><path class="cls-2" d="M30,46H40a2,2,0,0,0,2-2h0a2,2,0,0,0-2-2H30"/><path class="cls-2" d="M30,42H42.8A2.1072,2.1072,0,0,0,45,40h0a2.1072,2.1072,0,0,0-2.2-2H30"/><path class="cls-2" d="M30,38H40a2,2,0,0,0,2-2h0a2,2,0,0,0-2-2H27"/></svg>