<!DOCTYPE svg PUBLIC "-//W3C//DTD SVG 1.1//EN" "http://www.w3.org/Graphics/SVG/1.1/DTD/svg11.dtd">
<!-- Uploaded to: SVG Repo, www.svgrepo.com, Transformed by: SVG Repo Mixer Tools -->
<svg height="800px" width="800px" version="1.1" id="Layer_1" xmlns="http://www.w3.org/2000/svg" xmlns:xlink="http://www.w3.org/1999/xlink" viewBox="0 0 512 512" xml:space="preserve" fill="#000000" transform="matrix(-1, 0, 0, 1, 0, 0)">
<g id="SVGRepo_bgCarrier" stroke-width="0"/>
<g id="SVGRepo_tracerCarrier" stroke-linecap="round" stroke-linejoin="round"/>
<g id="SVGRepo_iconCarrier"> <path style="fill:#FDC794;" d="M220.69,459.09c-19.421,0-35.31-15.89-35.31-35.31c0-19.421,15.89-35.31,35.31-35.31h-44.138 c-19.421,0-35.31-15.89-35.31-35.31c0-19.421,15.89-35.31,35.31-35.31h-35.31c-19.421,0-35.31-15.89-35.31-35.31 s15.89-35.31,35.31-35.31h35.31H35.31c-19.421,0-35.31-15.89-35.31-35.31s15.89-35.31,35.31-35.31h229.517l-23.834-15.89 c-30.897-17.655-45.021-60.028-34.428-88.276c0.883-4.414,3.531-7.062,5.297-10.593c7.062-10.593,15.007-8.828,17.655-8.828 s53.848,50.317,105.931,79.448c0,0,42.372,25.6,70.621,52.966h26.483c44.138,0,79.448,35.31,79.448,79.448v88.276 c0,34.428-29.131,69.738-62.676,77.683c-7.945,1.766-19.421,5.297-25.6,10.593c-8.828,7.945-30.897,17.655-61.793,17.655H220.69z"/> <g> <path style="fill:#F9A671;" d="M291.31,185.434c0-3.531-1.766-6.179-5.297-7.945l-17.655-8.828c-4.414-1.766-9.71,0-11.476,3.531 c-1.766,4.414,0,9.71,3.531,11.476l17.655,8.828c4.414,1.766,9.71,0,11.476-3.531C291.31,188.083,291.31,187.2,291.31,185.434"/> <path style="fill:#F9A671;" d="M291.31,247.228c0-5.297-3.531-8.828-8.828-8.828H132.414c-5.297,0-8.828,3.531-8.828,8.828 s3.531,8.828,8.828,8.828h150.069C287.779,256.055,291.31,252.524,291.31,247.228"/> <path style="fill:#F9A671;" d="M282.483,317.848c0-5.297-3.531-8.828-8.828-8.828h-97.103c-5.297,0-8.828,3.531-8.828,8.828 c0,5.297,3.531,8.828,8.828,8.828h97.103C278.952,326.676,282.483,323.145,282.483,317.848"/> <path style="fill:#F9A671;" d="M291.31,388.469c0-5.297-3.531-8.828-8.828-8.828H220.69c-5.297,0-8.828,3.531-8.828,8.828 s3.531,8.828,8.828,8.828h61.793C287.779,397.297,291.31,393.766,291.31,388.469"/> <path style="fill:#F9A671;" d="M441.379,397.297c0-3.531-2.648-7.945-6.179-8.828c-4.414-0.883-9.71,1.766-10.593,6.179 l-0.883,5.297c-5.297,19.421-7.945,30.014-19.421,33.545c-4.414,1.766-7.062,6.179-5.297,11.476 c1.766,4.414,6.179,7.062,11.476,5.297c21.186-7.062,25.6-26.483,30.897-45.903l0.883-4.414 C441.379,399.062,441.379,398.179,441.379,397.297"/> <path style="fill:#F9A671;" d="M441.379,229.572c0-1.766-0.883-3.531-1.766-5.297c-4.414-5.297-7.062-9.71-11.476-15.007 c-4.414-7.062-9.71-13.241-15.89-20.303c-3.531-3.531-8.828-3.531-12.359-0.883c-3.531,3.531-3.531,8.828-0.883,12.359 c5.297,6.179,9.71,12.359,14.124,18.538c3.531,5.297,7.062,10.593,12.359,16.772c3.531,3.531,8.828,4.414,12.359,0.883 C440.497,234.869,441.379,232.221,441.379,229.572"/> </g> </g>
</svg>