<?xml version="1.0" ?><!-- Uploaded to: SVG Repo, www.svgrepo.com, Generator: SVG Repo Mixer Tools -->
<svg width="800px" height="800px" viewBox="0 0 64 64" id="filled" xmlns="http://www.w3.org/2000/svg"><defs><style>.cls-1{fill:#f7d7c7;}.cls-1,.cls-2,.cls-3,.cls-4,.cls-5{stroke:#000000;stroke-linecap:round;stroke-linejoin:round;stroke-width:2px;}.cls-2{fill:none;}.cls-3{fill:#bdc3c7;}.cls-4{fill:#ffffff;}.cls-5{fill:#81dee3;}</style></defs><title/><path class="cls-1" d="M28,42v7.4861a5,5,0,0,1-.84,2.7735L24.84,55.74A5,5,0,0,0,24,58.5139V60H12V58.5139a5,5,0,0,0-.84-2.7735L8.84,52.26A5,5,0,0,1,8,49.4861V38a4,4,0,0,1,4,4h0"/><path class="cls-1" d="M28,43V38a2,2,0,0,0-2-2h0a2,2,0,0,0-2,2v5"/><path class="cls-1" d="M24,43V32a2,2,0,0,0-2-2h0a2,2,0,0,0-2,2V43"/><path class="cls-1" d="M20,43V29.2A2.1072,2.1072,0,0,0,18,27h0a2.1072,2.1072,0,0,0-2,2.2V43"/><path class="cls-1" d="M16,43V32a2,2,0,0,0-2-2h0a2,2,0,0,0-2,2V43"/><path class="cls-2" d="M16,50a3.9977,3.9977,0,0,0-4-4V43"/><path class="cls-1" d="M36,42v7.4861a5,5,0,0,0,.84,2.7735L39.16,55.74A5,5,0,0,1,40,58.5139V60H52V58.5139a5,5,0,0,1,.84-2.7735L55.16,52.26A5,5,0,0,0,56,49.4861V39a4,4,0,0,0-4,4V42"/><path class="cls-1" d="M36,43V38a2,2,0,0,1,2-2h0a2,2,0,0,1,2,2v5"/><path class="cls-1" d="M40,43V32a2,2,0,0,1,2-2h0a2,2,0,0,1,2,2V43"/><path class="cls-1" d="M44,43V29.2A2.1072,2.1072,0,0,1,46,27h0a2.1072,2.1072,0,0,1,2,2.2V43"/><path class="cls-1" d="M48,43V32a2,2,0,0,1,2-2h0a2,2,0,0,1,2,2V43"/><path class="cls-2" d="M48,50a3.9977,3.9977,0,0,1,4-4V43"/><rect class="cls-2" height="4" x="43" y="4"/><line class="cls-2" x1="48" x2="38" y1="4" y2="4"/><path class="cls-3" d="M38.4221,11a4.9929,4.9929,0,0,1,9.1558,0H60v6H47.5779a4.9929,4.9929,0,0,1-9.1558,0H37a2,2,0,0,0-2,2v3H29V17a6,6,0,0,1,6-6Z"/><rect class="cls-4" height="4" transform="translate(64 48) rotate(-180)" width="10" x="27" y="22"/><line class="cls-2" x1="60" x2="60" y1="6" y2="22"/><path class="cls-5" d="M30,32.75c0,1.6569.8954,2.25,2,2.25s2-.5931,2-2.25S32,29,32,29,30,31.0931,30,32.75Z"/></svg>