<!-- icon666.com - MILLIONS vector ICONS FREE --><svg id="Layer_1" enable-background="new 0 0 64 64" viewBox="0 0 64 64" xmlns="http://www.w3.org/2000/svg"><g><g><path d="m60.17 28.96c.29.51.17 1.15-.28 1.52l-3.8 2.91-2.01 1.53c-1.1.84-2.04 1.88-2.75 3.05-.36.57-.66 1.18-.9 1.81-.79 2.08-2.51 5.45-5.32 6.83l1.44-3.95c.88-2.42 1.3-4.98 1.24-7.54-.05-2.48.71-4.91 2.3-6.81l1.95-1.29c.97-.63 2.06-.93 3.14-.93 1.98 0 3.91 1.02 4.99 2.87z" fill="#dbab7b"></path><path d="m52.04 27.02-1.95 1.29c-1.59 1.9-2.35 4.33-2.3 6.81.06 2.56-.36 5.12-1.24 7.54l-1.44 3.95c2.81-1.38 4.53-4.75 5.32-6.83.24-.63.54-1.24.9-1.81-1.21-3.883.71-10.95.71-10.95z" fill="#c19167"></path><path d="m37.52 4.55.08 9.48c-.76.34-1.41.94-1.81 1.73l-2.79 6.59-1.56-6.56c-.15-.97-.67-1.79-1.39-2.35l.32-8.99c.07-1.93 1.65-3.45 3.57-3.45h.13c1.91.07 3.43 1.63 3.45 3.55z" fill="#dbab7b"></path><path d="m52.9 7.97c1.7 1.18 2.13 3.52.94 5.22l-5.6 8.03c-.56.06-1.12.27-1.61.63l-5.09 3.35 1.29-6.75c.09-.33.13-.65.13-.97 0-.66-.17-1.29-.48-1.85l5.35-6.88c.74-.94 1.84-1.44 2.95-1.44.73 0 1.47.22 2.12.66z" fill="#dbab7b"></path><path d="m30.108 11.813-.058 1.627c.72.56 1.24 1.38 1.39 2.35l1.56 6.56 2.79-6.59c.4-.79 1.05-1.39 1.81-1.73l-.012-1.371c-3.161 1.726-5.919.352-7.48-.846z" fill="#c19167"></path><path d="m43.598 14.192-1.118 1.438c.31.56.48 1.19.48 1.85 0 .32-.04.64-.13.97l-1.29 6.75 5.09-3.35c.49-.36 1.05-.57 1.61-.63l1.182-1.695c-3.848-.379-5.303-3.536-5.824-5.333z" fill="#c19167"></path><path d="m14.57 24.52 5.3 7.81-7.9-1.5-8.59-6.42c-.9-.66-1.38-1.68-1.38-2.72 0-.61.17-1.23.51-1.78.96-1.55 2.98-2.05 4.56-1.13l6.86 3.99c.06.61.27 1.21.64 1.75z" fill="#dbab7b"></path><path d="m13.534 31.127 6.336 1.203-5.3-7.81c-.37-.54-.58-1.14-.64-1.75l-2.921-1.699c.942 1.832 2.587 5.684 2.525 10.056z" fill="#c19167"></path><path d="m22.27 8.91 2.25 5.61c-.38.65-.56 1.43-.48 2.24l1.01 8.29-4.57-5.22c-.58-.63-1.33-1.02-2.12-1.16l-3.8-9.46c-.18-.44-.26-.9-.26-1.35 0-1.34.74-2.6 1.97-3.23.16-.09.33-.16.51-.22 1.2-.4 2.47-.14 3.4.59.06.05.13.1.19.16.4.36.73.82.94 1.35z" fill="#dbab7b"></path><path d="m24.04 16.76c-.08-.81.1-1.59.48-2.24l-.842-2.099c-.402 1.301-1.221 2.884-2.885 3.438-1.153.384-2.422.291-3.55.032l1.116 2.779c.79.14 1.54.53 2.12 1.16l4.57 5.22z" fill="#c19167"></path><path d="m27.67 54.98 2.33 9.02h-15l4.97-17.16c.75.69 1.53 1.31 2.28 1.86l1.86 1.37c-.07.3-.11.61-.11.93 0 2.1 1.61 3.82 3.67 3.98z" fill="#dbab7b"></path><path d="m18.997 53.198c1.938 1.163 3.396 2.98 4.11 5.124l1.893 5.678h5l-2.33-9.02c-2.06-.16-3.67-1.88-3.67-3.98 0-.32.04-.63.11-.93l-1.86-1.37c-.75-.55-1.53-1.17-2.28-1.86l-1.713 5.914z" fill="#c19167"></path><circle cx="55" cy="50" fill="#c6f1f7" r="2"></circle><circle cx="9" cy="51" fill="#c6f1f7" r="2"></circle><path d="m34 30c1.66 0 3 1.34 3 3-1.82 0-3.36 1.21-3.84 2.88-1.25-.36-2.16-1.51-2.16-2.88 0-1.66 1.34-3 3-3z" fill="#78d3ef"></path><path d="m37 33c2.21 0 4 1.79 4 4s-1.79 4-4 4-4-1.79-4-4c0-.39.06-.76.16-1.12.48-1.67 2.02-2.88 3.84-2.88z" fill="#60c3ea"></path><path d="m34 50c1.66 0 3 1.34 3 3s-1.34 3-3 3c-1.46 0-2.68-1.04-2.94-2.42.58-.7.94-1.6.94-2.58 0-.07 0-.15-.01-.22.53-.48 1.23-.78 2.01-.78z" fill="#78d3ef"></path><path d="m31 46c0 .68-.23 1.3-.61 1.8-.67-.5-1.5-.8-2.39-.8s-1.72.3-2.39.8c-.38-.5-.61-1.12-.61-1.8 0-1.66 1.34-3 3-3s3 1.34 3 3z" fill="#9fe0f4"></path><path d="m31.99 50.78c.01.07.01.15.01.22 0 .98-.36 1.88-.94 2.58-.74.87-1.84 1.42-3.06 1.42-.11 0-.22 0-.33-.02-2.06-.16-3.67-1.88-3.67-3.98 0-.32.04-.63.11-.93.22-.93.76-1.73 1.5-2.27.67-.5 1.5-.8 2.39-.8s1.72.3 2.39.8c.92.68 1.54 1.76 1.6 2.98z" fill="#60c3ea"></path><path d="m12.27 40.45s.23.13.61.36c-.34 1.27-1.5 2.19-2.88 2.19-1.66 0-3-1.34-3-3 0-.36.06-.7.18-1.01.97-.05 1.81-.57 2.33-1.33.56 1.18 1.5 2.17 2.76 2.79z" fill="#78d3ef"></path><path d="m9.51 37.65v.01c-.52.76-1.36 1.28-2.33 1.33-.06.01-.12.01-.18.01-1.66 0-3-1.34-3-3s1.34-3 3-3c.81 0 1.54.32 2.07.84-.29 1.31-.12 2.65.44 3.81z" fill="#9fe0f4"></path><path d="m20.18 5c-.93-.73-2.2-.99-3.4-.59-.18.06-.35.13-.51.22-.17-.34-.27-.72-.27-1.13 0-1.38 1.12-2.5 2.5-2.5s2.5 1.12 2.5 2.5c0 .09-.01.19-.01.28-.37.32-.65.74-.81 1.22z" fill="#9fe0f4"></path><path d="m23 3c1.66 0 3 1.34 3 3s-1.34 3-3 3c-.25 0-.5-.03-.73-.09l-.96-2.4c-.21-.53-.54-.99-.94-1.35-.06-.06-.13-.11-.19-.16.16-.48.44-.9.81-1.22.53-.48 1.23-.78 2.01-.78z" fill="#60c3ea"></path><path d="m42.83 18.45-1.29 6.75 5.09-3.35c.49-.36 1.05-.57 1.61-.63 1.08-.14 2.2.24 2.98 1.1.6.65.9 1.48.9 2.32 0 .78-.27 1.57-.81 2.21l-1.22 1.46c-1.59 1.9-2.35 4.33-2.3 6.81.06 2.56-.36 5.12-1.24 7.54l-1.44 3.95 4.89 17.39h-20l-2.33-9.02c.11.02.22.02.33.02 1.22 0 2.32-.55 3.06-1.42.26 1.38 1.48 2.42 2.94 2.42 1.66 0 3-1.34 3-3s-1.34-3-3-3c-.78 0-1.48.3-2.01.78-.06-1.22-.68-2.3-1.6-2.98.38-.5.61-1.12.61-1.8 0-1.66-1.34-3-3-3s-3 1.34-3 3c0 .68.23 1.3.61 1.8-.74.54-1.28 1.34-1.5 2.27l-1.86-1.37c-.75-.55-1.53-1.17-2.28-1.86-.69-.62-1.36-1.3-1.96-2.01-1.37-1.63-3.95-3.3-5.13-4.02-.38-.23-.61-.36-.61-.36-1.26-.62-2.2-1.61-2.76-2.79v-.01c-.56-1.16-.73-2.5-.44-3.81.06-.27.58-1.71.58-1.71.35-.94 1.33-1.49 2.32-1.3l7.9 1.5-5.3-7.81c-.37-.54-.58-1.14-.64-1.75-.12-1.28.41-2.59 1.51-3.41.68-.51 1.47-.75 2.26-.75.22 0 .44.02.66.06.79.14 1.54.53 2.12 1.16l4.57 5.22-1.01-8.29c-.08-.81.1-1.59.48-2.24.55-.96 1.52-1.66 2.69-1.83 1.238-.203 2.2.25 2.84.75.72.56 1.24 1.38 1.39 2.35l1.56 6.56 2.79-6.59c.4-.79 1.05-1.39 1.81-1.73.82-.37 1.77-.45 2.68-.17.97.3 1.74.95 2.2 1.77.31.56.48 1.19.48 1.85 0 .32-.04.64-.13.97zm-1.83 18.55c0-2.21-1.79-4-4-4 0-1.66-1.34-3-3-3s-3 1.34-3 3c0 1.37.91 2.52 2.16 2.88-.1.36-.16.73-.16 1.12 0 2.21 1.79 4 4 4s4-1.79 4-4z" fill="#e8c395"></path><path d="m58 36.5c0 1-.42 1.9-1.1 2.53-.62.61-1.47.97-2.4.97-1.4 0-2.62-.83-3.17-2.03.71-1.17 1.65-2.21 2.75-3.05l2.01-1.53c1.14.58 1.91 1.75 1.91 3.11z" fill="#60c3ea"></path><path d="m56.9 39.03c1.19.19 2.1 1.23 2.1 2.47 0 1.38-1.12 2.5-2.5 2.5s-2.5-1.12-2.5-2.5c0-.56.19-1.09.5-1.5.93 0 1.78-.36 2.4-.97z" fill="#78d3ef"></path><path d="m21.642 43.794c-.305 0-.605-.139-.801-.4-1.693-2.261-5.213-4.169-5.249-4.188-.486-.262-.668-.868-.407-1.354s.866-.671 1.354-.407c.16.086 3.947 2.14 5.902 4.75.331.442.241 1.069-.201 1.4-.179.134-.389.199-.598.199z" fill="#f1dbbf"></path><g fill="#96dbf1"><circle cx="26.17" cy="50.78" r="1.5"></circle><circle cx="38.864" cy="36.695" r="1.5"></circle></g></g><g fill="#252525"><path d="m55 47c-1.654 0-3 1.346-3 3 0 1.067.574 2.063 1.499 2.598.157.092.33.135.5.135.345 0 .681-.179.867-.499.276-.479.113-1.09-.365-1.366-.309-.18-.501-.512-.501-.868 0-.552.449-1 1-1s1 .448 1 1c0 .553.448 1 1 1s1-.447 1-1c0-1.654-1.346-3-3-3z"></path><path d="m9 48c-1.654 0-3 1.346-3 3 0 .553.448 1 1 1s1-.447 1-1c0-.552.449-1 1-1s1 .448 1 1c0 .356-.192.688-.5.867-.479.276-.642.888-.365 1.366.186.32.521.499.867.499.17 0 .342-.043.5-.135.924-.534 1.498-1.53 1.498-2.597 0-1.654-1.346-3-3-3z"></path><path d="m61.034 28.456c-1.212-2.076-3.456-3.366-5.854-3.366-.733 0-1.451.13-2.138.359.05-.266.078-.536.078-.81 0-1.119-.414-2.184-1.159-2.991-.533-.588-1.206-1.005-1.936-1.24l4.634-6.645c.726-1.037 1.003-2.296.781-3.544-.224-1.254-.923-2.345-1.98-3.078-.805-.544-1.731-.832-2.68-.832-1.463 0-2.825.664-3.739 1.826l-4.581 5.891c-.532-.504-1.164-.899-1.885-1.123-.648-.198-1.323-.24-1.985-.159l-.07-8.205c-.026-2.455-1.964-4.448-4.45-4.539h-.13c-2.473 0-4.479 1.938-4.569 4.415l-.265 7.442c-.656-.198-1.351-.266-2.039-.155-.827.12-1.583.454-2.218.949l-1.093-2.726c1.845-.356 3.244-1.978 3.244-3.925 0-2.206-1.794-4-4-4-.99 0-1.942.369-2.663 1.023-.203.175-.379.376-.539.591-.868-.382-1.836-.491-2.775-.302.112-.835.937-1.457 1.779-1.282.544.109 1.069-.238 1.18-.779s-.238-1.069-.779-1.18c-.231-.048-.467-.071-.703-.071-1.93 0-3.5 1.57-3.5 3.5 0 .243.034.482.084.717-1.113.865-1.784 2.193-1.784 3.643 0 .604.113 1.186.333 1.723l3.26 8.116c-.738.127-1.446.406-2.05.859-.86.64-1.464 1.554-1.747 2.569l-5.523-3.212c-2.063-1.2-4.66-.557-5.914 1.469-.431.698-.659 1.496-.659 2.306 0 1.387.668 2.704 1.781 3.521l6.96 5.202c-.453.34-.818.802-1.029 1.367l-.194.52c-.474-.195-.988-.3-1.518-.3-2.206 0-4 1.794-4 4 0 1.861 1.278 3.43 3.002 3.874-.002.042-.002.084-.002.126 0 2.206 1.794 4 4 4 1.35 0 2.575-.677 3.3-1.741 1.224.801 2.956 2.038 3.946 3.216.481.569 1.025 1.125 1.595 1.667l-4.512 15.58c-.154.53.152 1.085.682 1.239.093.026.187.039.279.039.434 0 .833-.284.96-.722l4.248-14.668c.367.297.748.594 1.158.894l1.372 1.011c-.015.163-.028.325-.028.485 0 2.364 1.685 4.373 3.862 4.852l1.911 7.398c.117.451.523.75.968.75.083 0 .167-.01.25-.032.535-.138.856-.684.718-1.218l-1.768-6.845c.618-.119 1.207-.352 1.738-.69.722 1.082 1.948 1.785 3.321 1.785 1.695 0 3.212-1.072 3.773-2.668.183-.521-.09-1.092-.611-1.275-.522-.186-1.092.091-1.275.611-.281.797-1.039 1.332-1.887 1.332-.829 0-1.555-.506-1.85-1.244.487-.74.771-1.586.824-2.462.729-.429 1.708-.357 2.341.198.417.364 1.048.322 1.411-.095.364-.415.322-1.047-.094-1.411-1.073-.937-2.627-1.176-3.96-.727-.227-.612-.56-1.179-1.01-1.66.223-.5.338-1.041.338-1.599 0-2.206-1.794-4-4-4s-4 1.794-4 4c0 .558.115 1.098.336 1.598-.257.275-.475.583-.663.909l-.832-.613c-.825-.604-1.543-1.19-2.203-1.798-.687-.617-1.314-1.26-1.863-1.909-1.425-1.695-3.979-3.378-5.378-4.232-.396-.239-.635-.375-.685-.401-.613-.302-1.145-.711-1.58-1.216-.361-.42-.993-.464-1.41-.104-.418.361-.465.992-.104 1.411.559.649 1.232 1.176 1.959 1.565-.366.48-.938.79-1.577.79-1.103 0-2-.897-2-2 0-.237.038-.456.112-.648.13-.334.061-.714-.165-.992-.225-.28-.593-.418-.947-.36-1.103 0-2-.897-2-2s.897-2 2-2c.353 0 .688.098.983.268-.078.626-.069 1.256.027 1.883.083.545.599.923 1.139.837.546-.083.921-.594.838-1.14-.092-.597-.071-1.2.059-1.791.049-.222.541-1.578.541-1.578.181-.485.686-.768 1.197-.667l7.9 1.5c.399.075.801-.096 1.022-.434s.218-.776-.008-1.11l-5.303-7.814c-.266-.388-.423-.819-.469-1.278-.091-.972.334-1.935 1.115-2.516.605-.454 1.353-.645 2.146-.506.604.107 1.143.402 1.542.835l4.57 5.22c.288.329.757.432 1.16.254.401-.179.638-.599.585-1.034l-1.007-8.268c-.058-.582.063-1.148.353-1.645.417-.729 1.134-1.216 1.979-1.339.773-.123 1.488.098 2.069.553.55.427.911 1.035 1.031 1.791l1.56 6.56c.1.42.458.729.889.765.436.048.836-.208 1.004-.606l2.761-6.528c.285-.563.756-1.013 1.33-1.27.624-.28 1.323-.324 1.973-.126.696.216 1.3.664 1.621 1.299.453.898.324 1.839.243 2.148l-1.29 6.75c-.075.395.093.796.427 1.02.333.223.769.225 1.105.003l5.131-3.379c.335-.246.725-.398 1.147-.444.783-.104 1.575.189 2.117.787.409.443.635 1.025.635 1.641 0 .57-.204 1.126-.577 1.568l-1.22 1.46c-1.689 2.02-2.589 4.673-2.532 7.476.057 2.45-.34 4.864-1.18 7.174l-1.44 3.95c-.072.197-.08.412-.023.613l4.609 16.39c.121.44.522.728.959.728.089 0 .181-.012.271-.037.532-.149.842-.702.692-1.233l-4.404-15.658c2.762-1.747 4.362-5.027 5.087-6.935.039-.101.087-.196.129-.295.458.413.997.73 1.584.927-.051.239-.077.484-.077.731 0 1.93 1.57 3.5 3.5 3.5s3.5-1.57 3.5-3.5c0-1.093-.522-2.139-1.397-2.799-.442-.335-1.068-.246-1.401.195s-.245 1.068.196 1.4c.383.29.602.728.602 1.204 0 .827-.673 1.5-1.5 1.5s-1.5-.673-1.5-1.5c0-.324.106-.643.298-.896.229-.303.267-.709.098-1.049-.17-.34-.517-.555-.896-.555-.793 0-1.515-.392-1.978-1.01.595-.855 1.329-1.636 2.164-2.274l1.436-1.097c.547.466.878 1.141.878 1.881 0 .553.448 1 1 1s1-.447 1-1c0-1.189-.47-2.291-1.267-3.113l2.792-2.134c.829-.683 1.045-1.855.509-2.797zm-34.834 20.151c.217-.158.361-.397.399-.663.039-.266-.031-.536-.193-.749-.265-.35-.406-.763-.406-1.195 0-1.103.897-2 2-2s2 .897 2 2c0 .432-.141.845-.406 1.195-.162.213-.231.481-.193.746s.205.474.395.662c1.204 1.198 1.204 1.971 1.204 2.397 0 .7-.252 1.39-.702 1.932-.782.926-1.795 1.086-2.551 1.052-1.54-.121-2.747-1.431-2.747-2.984 0-.23.027-.461.083-.699.162-.685.559-1.286 1.117-1.694zm-8.51-17.709-5.307-1.008-8.411-6.287c-.618-.452-.972-1.15-.972-1.913 0-.439.125-.873.36-1.254.68-1.096 2.089-1.442 3.208-.792l6.454 3.753c.13.601.373 1.176.721 1.684zm5.31-26.898c1.103 0 2 .897 2 2s-.897 2-2 2c-.006 0-.01-.002-.016-.002l-.744-1.857c-.197-.497-.485-.959-.823-1.343.074-.097.149-.193.245-.276.371-.337.846-.522 1.338-.522zm-1.785 15.152c-.582-.632-1.308-1.074-2.114-1.319l-3.616-9.002c-.123-.301-.185-.628-.185-.971 0-.993.546-1.89 1.459-2.358.105-.059.217-.104.337-.144.845-.281 1.766-.121 2.519.47 0 0 .467.373.767 1.053l3.048 7.606c-.326.738-.466 1.549-.382 2.394l.618 5.069zm13.654-3.782-1.603 3.785-.838-3.518c-.155-1.003-.643-1.904-1.363-2.61l.304-8.541c.051-1.394 1.18-2.486 2.571-2.486l.093-.001c1.38.051 2.473 1.176 2.487 2.56l.075 8.891c-.717.457-1.315 1.105-1.726 1.92zm11.211 5.645-3.115 2.05.83-4.352c.111-.408.367-1.737-.156-2.944l4.977-6.401c.872-1.108 2.537-1.371 3.713-.577.606.421 1.012 1.054 1.142 1.779.128.721-.032 1.448-.452 2.048l-5.364 7.691c-.576.13-1.121.372-1.575.706zm13.202 8.672-5.809 4.438c-1.194.912-2.231 2.062-2.989 3.312-.388.614-.721 1.283-.989 1.988-.331.871-1.038 2.485-2.132 3.925l.127-.347c.926-2.546 1.363-5.205 1.3-7.902-.046-2.27.663-4.411 1.991-6.048l1.804-1.193c.773-.503 1.671-.769 2.595-.769 1.715 0 3.258.888 4.121 2.364.048.085.029.191-.019.232z"></path><path d="m37 42c2.757 0 5-2.243 5-5 0-2.452-1.774-4.498-4.107-4.92-.416-1.764-2.004-3.08-3.893-3.08-2.206 0-4 1.794-4 4 0 1.456.801 2.782 2.028 3.48-.019.174-.028.347-.028.52 0 2.757 2.243 5 5 5zm-5-9c0-1.103.897-2 2-2s2 .897 2 2c0 .553.448 1 1 1 1.654 0 3 1.346 3 3s-1.346 3-3 3-3-1.346-3-3c0-.274.041-.553.124-.853.147-.528-.159-1.076-.687-1.229-.846-.243-1.437-1.032-1.437-1.918z"></path><path d="m10.668 12.279c.187 0 .375-.052.543-.161.462-.299.595-.917.298-1.381-.083-.13-2.005-3.198.135-5.907.342-.434.269-1.063-.165-1.405-.434-.341-1.062-.269-1.404.165-3.041 3.851-.358 8.06-.243 8.236.192.294.511.453.836.453z"></path><path d="m5.471 10.865c.185 0 .373-.052.541-.158.461-.293.597-.908.312-1.374-.083-.135-.773-1.364.47-2.932.343-.432.27-1.061-.163-1.404-.431-.344-1.061-.27-1.405.162-2.184 2.755-.648 5.159-.582 5.261.191.29.505.445.827.445z"></path><path d="m53.993 4.624c.116.022 2.845.61 3.547 5.41.073.498.5.855.988.855.048 0 .097-.003.146-.011.547-.08.925-.588.845-1.134-.925-6.321-5.013-7.063-5.187-7.092-.538-.094-1.042.272-1.139.811s.264 1.056.8 1.161z"></path><path d="m58.763 12.622c-.001 0-.002 0-.003 0-.55 0-.997.445-1 .995-.001.255-.067 1.035-.346 1.57-.256.489-.066 1.094.423 1.35.148.077.306.113.462.113.361 0 .709-.195.887-.537.558-1.067.574-2.351.574-2.493 0-.551-.446-.997-.997-.998z"></path><path d="m43.934 54.722c-.154-.53-.711-.833-1.238-.683-.531.154-.836.709-.683 1.239l2.026 7c.127.438.527.722.961.722.092 0 .186-.013.278-.039.531-.154.836-.709.683-1.239z"></path><circle cx="42" cy="51.732" r="1"></circle></g></g></svg>