<?xml version="1.0" ?><!-- Uploaded to: SVG Repo, www.svgrepo.com, Generator: SVG Repo Mixer Tools -->
<svg width="800px" height="800px" viewBox="0 0 64 64" id="filled" xmlns="http://www.w3.org/2000/svg"><defs><style>.cls-1{fill:#f7d7c7;}.cls-1,.cls-2,.cls-3,.cls-4{stroke:#000000;stroke-linecap:round;stroke-linejoin:round;stroke-width:2px;}.cls-2{fill:#bdc3c7;}.cls-3{fill:#ffffff;}.cls-4{fill:none;}</style></defs><title/><path class="cls-1" d="M32,57H23.2111a4,4,0,0,1-2.2188-.6718l-3.9846-2.6564A4,4,0,0,0,14.7889,53H5V41h9.7889a4,4,0,0,0,2.2188-.6718l3.9846-2.6564A4,4,0,0,1,23.2111,37H34a4,4,0,0,1-4,4h1"/><path class="cls-1" d="M31,57h6a2,2,0,0,0,2-2h0a2,2,0,0,0-2-2H31"/><path class="cls-1" d="M31,53H41a2,2,0,0,0,2-2h0a2,2,0,0,0-2-2H31"/><path class="cls-1" d="M31,49H43.8A2.1072,2.1072,0,0,0,46,47h0a2.1072,2.1072,0,0,0-2.2-2H31"/><path class="cls-1" d="M31,45H41a2,2,0,0,0,2-2h0a2,2,0,0,0-2-2H28"/><polygon class="cls-2" points="53.857 17 10.143 17 5 5 59 5 53.857 17"/><path class="cls-3" d="M24,11H40a6,6,0,0,1,6,6v0a0,0,0,0,1,0,0H18a0,0,0,0,1,0,0v0A6,6,0,0,1,24,11Z"/><path class="cls-4" d="M31.9718,23c1.0386,1.3933,1.1238,2.3541.9669,3-.3306,1.3609-1.8357,1.7365-1.9338,3a2.7146,2.7146,0,0,0,.9669,2"/><path class="cls-4" d="M25.9718,21c1.0386,1.3933,1.1238,2.3541.9669,3-.3306,1.3609-1.8357,1.7365-1.9338,3a2.7149,2.7149,0,0,0,.9669,2"/><path class="cls-4" d="M37.9718,21c1.0386,1.3933,1.1238,2.3541.9669,3-.3306,1.3609-1.8357,1.7365-1.9338,3a2.7146,2.7146,0,0,0,.9669,2"/></svg>