<?xml version="1.0" encoding="iso-8859-1"?>
<!-- Uploaded to: SVG Repo, www.svgrepo.com, Generator: SVG Repo Mixer Tools -->
<svg height="800px" width="800px" version="1.1" id="Layer_1" xmlns="http://www.w3.org/2000/svg" xmlns:xlink="http://www.w3.org/1999/xlink" 
	 viewBox="0 0 512 512" xml:space="preserve">
<path style="fill:#F1ECDE;" d="M176.861,273.516l-77.804,77.803c-17.663,0-41.952,0-47.312,0c-24.065,0-43.574,19.509-43.574,43.574
	s19.508,43.574,43.574,43.574c2.949,0,11.633,0,21.787,0v21.787c0,24.065,19.509,43.574,43.574,43.574s43.574-19.509,43.574-43.574
	v-47.313l77.803-77.803L176.861,273.516z"/>
<path style="fill:#FCD197;" d="M355.057,33.695c-0.004,0.004-228.265,228.266-228.265,228.266l50.069,11.555l11.558,50.073
	l50.065,11.551l11.555,50.069l228.265-228.265c34.034-34.034,34.034-89.213,0-123.247C444.271-0.338,389.091-0.339,355.057,33.695z"
	/>
<path style="fill:#B34FCC;" d="M378.166,56.805l-19.258,19.258c-4.095,4.095-6.606,9.17-7.548,14.47l70.108,70.107
	c5.299-0.941,10.374-3.453,14.469-7.548l19.258-19.258c21.271-21.271,21.271-55.758,0-77.03
	C433.924,35.533,399.437,35.533,378.166,56.805z"/>
<path style="fill:#E2D8BD;" d="M351.361,90.531c-1.504,8.465,1.007,17.505,7.548,24.045l38.514,38.514
	c6.541,6.541,15.58,9.053,24.045,7.548c7.242-19.373,3.088-42.037-12.491-57.617C393.399,87.442,370.734,83.289,351.361,90.531z"/>
<g>
	<circle style="fill:#440852;" cx="257.068" cy="262.634" r="8.17"/>
	<circle style="fill:#440852;" cx="303.289" cy="262.634" r="8.17"/>
	<path style="fill:#440852;" d="M484.082,27.918C466.079,9.915,442.141,0,416.681,0s-49.397,9.915-67.354,27.872
		c-0.027,0.027-0.027,0.027-228.312,228.312c-2.1,2.1-2.896,5.174-2.076,8.03c0.818,2.855,3.122,5.04,6.017,5.709l45.094,10.406
		l10.41,45.097c0.703,3.044,3.08,5.422,6.124,6.123l35.701,8.237l-67.379,67.379c-1.533,1.532-2.393,3.61-2.393,5.777v47.313
		c0,19.521-15.883,35.404-35.404,35.404s-35.405-15.883-35.405-35.404v-21.787c0-4.512-3.658-8.17-8.17-8.17H51.745
		c-19.521,0-35.404-15.883-35.404-35.404c0-19.521,15.883-35.404,35.404-35.404h47.313c2.167,0,4.245-0.861,5.777-2.393
		c0,0,47.828-47.828,50.433-50.431c0.928-0.889,1.66-2.01,2.095-3.314c1.427-4.28-0.887-8.908-5.168-10.335
		c-4.791-1.598-7.451,1.064-10.533,4.146l-45.988,45.986H51.745C23.213,343.149,0,366.362,0,394.894
		c0,28.531,23.213,51.745,51.745,51.745h13.617v13.617c0,28.531,23.213,51.745,51.745,51.745s51.745-23.213,51.745-51.745v-43.929
		l64.987-64.987l8.24,35.706c0.668,2.894,2.854,5.197,5.709,6.017c0.743,0.212,1.5,0.317,2.252,0.317
		c2.136,0,4.223-0.84,5.778-2.393L484.083,162.72C502.085,144.716,512,120.78,512,95.319S502.085,45.922,484.082,27.918z
		 M472.527,151.165L254.685,369.007l-8.239-35.706c-0.01-0.044-0.028-0.084-0.039-0.127c-0.074-0.3-0.163-0.596-0.272-0.888
		c-0.015-0.041-0.028-0.085-0.044-0.125c-0.126-0.322-0.275-0.637-0.443-0.944c-0.032-0.057-0.066-0.111-0.099-0.168
		c-0.141-0.242-0.294-0.477-0.461-0.707c-0.051-0.07-0.1-0.141-0.154-0.209c-0.206-0.264-0.424-0.522-0.667-0.765
		c-0.254-0.253-0.511-0.471-0.776-0.676c-0.069-0.053-0.139-0.103-0.21-0.155c-0.229-0.167-0.463-0.32-0.705-0.46
		c-0.057-0.034-0.112-0.069-0.17-0.1c-0.306-0.168-0.621-0.316-0.942-0.442c-0.044-0.017-0.088-0.029-0.133-0.046
		c-0.289-0.108-0.583-0.196-0.88-0.27c-0.045-0.011-0.086-0.029-0.131-0.04l-45.09-10.402l-10.41-45.097
		c-0.703-3.044-3.08-5.421-6.123-6.123l-35.705-8.239c44.658-44.658,217.572-217.572,217.843-217.842
		c14.917-14.918,34.75-23.134,55.845-23.134c21.097,0,40.929,8.216,55.846,23.133c14.918,14.917,23.133,34.751,23.133,55.846
		S487.445,136.249,472.527,151.165z"/>
	<path style="fill:#440852;" d="M460.973,51.027c-11.832-11.83-27.562-18.346-44.292-18.346c-16.732,0-32.462,6.515-44.292,18.346
		l-19.258,19.258c-5.213,5.214-8.455,11.662-9.729,18.412c-0.069,0.296-0.117,0.598-0.153,0.902
		c-1.765,10.863,1.523,22.395,9.882,30.755l38.514,38.514c6.688,6.686,15.578,10.37,25.035,10.37c9.457,0,18.348-3.683,25.035-10.37
		l19.258-19.258C485.396,115.188,485.396,75.45,460.973,51.027z M364.687,108.8c-3.379-3.379-5.205-7.724-5.511-12.153
		c15.653-3.918,32.468,0.595,44.025,12.153c11.561,11.56,16.075,28.379,12.153,44.034c-4.591-0.315-8.867-2.234-12.152-5.519
		L364.687,108.8z M449.418,128.057l-16.417,16.417c0.792-17.33-5.616-34.598-18.246-47.228
		c-12.63-12.631-29.899-19.038-47.229-18.247l16.418-16.418c8.743-8.743,20.369-13.559,32.736-13.559
		c12.366,0,23.992,4.816,32.737,13.56C467.47,80.633,467.47,110.005,449.418,128.057z"/>
	<path style="fill:#440852;" d="M341.578,131.909c-3.192-3.191-8.364-3.191-11.555,0c-3.191,3.191-3.191,8.364,0,11.554
		l38.514,38.514c1.596,1.595,3.688,2.393,5.778,2.393s4.182-0.797,5.778-2.393c3.191-3.191,3.191-8.364,0-11.554L341.578,131.909z"
		/>
</g>
</svg>