<svg version="1.2" xmlns="http://www.w3.org/2000/svg" viewBox="0 0 800 800" width="400" height="400">
	<title>Logo</title>
	<style>
		.s0 { fill: #ffffff;stroke: #000000;stroke-miterlimit:10;stroke-width: 3 } 
		.s1 { fill: #ffffff;stroke: #000000;stroke-miterlimit:100;stroke-width: 3 } 
	</style>
	<g id="Carpeta 1">
		<path id="CHESS REVOLUT  ON" class="s0" aria-label="CHESS
REVOLUT  ON"  d="m282.4 265.3v11.9q-5.7-5.3-12.2-8-6.4-2.6-13.6-2.6-14.2 0-21.8 8.8-7.6 8.7-7.6 25.1 0 16.5 7.6 25.2 7.6 8.7 21.8 8.7 7.2 0 13.6-2.6 6.5-2.7 12.2-7.9v11.7q-5.9 4-12.5 6-6.6 2-14 2-18.8 0-29.7-11.5-10.8-11.6-10.8-31.6 0-20 10.8-31.5 10.9-11.6 29.7-11.6 7.5 0 14.1 2 6.6 1.9 12.4 5.9zm17.3 76.7v-83.1h11.3v34.1h40.9v-34.1h11.2v83.1h-11.2v-39.6h-40.9v39.6zm85.7 0v-83.1h52.6v9.5h-41.3v24.6h39.5v9.4h-39.5v30.1h42.3v9.5zm121.8-80.4v11q-6.4-3.1-12.1-4.6-5.6-1.5-10.9-1.5-9.2 0-14.2 3.6-5 3.5-5 10.1 0 5.5 3.3 8.4 3.3 2.7 12.6 4.5l6.8 1.4q12.6 2.4 18.5 8.4 6 6 6 16.2 0 12-8.1 18.3-8.1 6.2-23.7 6.2-5.9 0-12.6-1.3-6.6-1.4-13.7-4v-11.6q6.8 3.9 13.4 5.8 6.5 2 12.9 2 9.6 0 14.8-3.8 5.3-3.8 5.3-10.8 0-6.1-3.8-9.6-3.7-3.4-12.3-5.1l-6.9-1.4q-12.5-2.5-18.2-7.8-5.6-5.4-5.6-14.9 0-11 7.8-17.4 7.8-6.3 21.4-6.3 5.8 0 11.9 1 6.1 1.1 12.4 3.2zm72.4 0v11q-6.4-3.1-12.1-4.6-5.7-1.5-11-1.5-9.2 0-14.2 3.6-4.9 3.5-4.9 10.1 0 5.5 3.3 8.4 3.3 2.7 12.5 4.5l6.8 1.4q12.6 2.4 18.6 8.4 6 6 6 16.2 0 12-8.1 18.3-8.1 6.2-23.8 6.2-5.9 0-12.5-1.3-6.7-1.4-13.8-4v-11.6q6.9 3.9 13.4 5.8 6.6 2 12.9 2 9.7 0 14.9-3.8 5.2-3.8 5.2-10.8 0-6.1-3.7-9.6-3.8-3.4-12.3-5.1l-6.9-1.4q-12.6-2.5-18.2-7.8-5.6-5.4-5.6-14.9 0-11 7.7-17.4 7.8-6.3 21.5-6.3 5.8 0 11.9 1 6 1.1 12.4 3.2zm-516.8 196.4q3.6 1.3 7 5.3 3.5 4 6.9 11l11.4 22.7h-12l-10.7-21.3q-4.1-8.4-8-11.1-3.8-2.7-10.5-2.7h-12.2v35.1h-11.3v-83.1h25.4q14.2 0 21.3 5.9 7 6 7 18 0 7.9-3.7 13.1-3.6 5.1-10.6 7.1zm-14-34.9h-14.1v29.5h14.1q8.1 0 12.2-3.7 4.2-3.8 4.2-11.1 0-7.3-4.2-10.9-4.1-3.8-12.2-3.8zm53.8 73.9v-83.1h52.6v9.5h-41.3v24.6h39.5v9.4h-39.5v30.1h42.3v9.5zm106.2 0h-12.8l-31.7-83.1h11.7l26.4 70 26.4-70h11.6zm75.6-75.5q-12.3 0-19.5 9.1-7.2 9.2-7.2 24.9 0 15.7 7.2 24.8 7.2 9.2 19.5 9.2 12.2 0 19.4-9.2 7.1-9.1 7.1-24.8 0-15.7-7.1-24.9-7.2-9.1-19.4-9.1zm0-9.1q17.5 0 27.9 11.7 10.5 11.7 10.5 31.4 0 19.7-10.5 31.4-10.4 11.7-27.9 11.7-17.6 0-28.1-11.7-10.4-11.7-10.4-31.4 0-19.7 10.4-31.4 10.5-11.7 28.1-11.7zm56 84.6v-83.1h11.2v73.6h40.5v9.5zm56.5-31.2v-51.9h11.3v50.5q0 13.3 4.9 19.2 4.8 5.9 15.7 5.9 10.8 0 15.6-5.9 4.9-5.9 4.9-19.2v-50.5h11.3v51.9q0 16.2-8.1 24.5-8 8.3-23.7 8.3-15.8 0-23.8-8.3-8.1-8.3-8.1-24.5zm73.2-42.5v-9.4h70.4v9.4h-29.6v73.7h-11.3v-73.7zm187.4-1.8q-12.2 0-19.5 9.1-7.1 9.2-7.1 24.9 0 15.7 7.1 24.8 7.3 9.2 19.5 9.2 12.3 0 19.4-9.2 7.2-9.1 7.2-24.8 0-15.7-7.2-24.9-7.1-9.1-19.4-9.1zm0-9.1q17.5 0 28 11.7 10.4 11.7 10.4 31.4 0 19.7-10.4 31.4-10.5 11.7-28 11.7-17.5 0-28-11.7-10.5-11.7-10.5-31.4 0-19.7 10.5-31.4 10.5-11.7 28-11.7zm56 84.6v-83.1h15.2l36.8 69.5v-69.5h10.9v83.1h-15.1l-36.9-69.5v69.5z"/>
		<path id="Forma 1" class="s1" d="m579.5 447c-10.2 0-18.5-8.3-18.5-18.5 0-10.2 8.3-18.5 18.5-18.5 10.2 0 18.5 8.3 18.5 18.5 0 10.2-8.3 18.5-18.5 18.5zm-24.2 6.6l48.4-0.6-0.3 9.5-15-0.3c0 9.7-2.2 23.7 14 24.1v9.6l-46.6-0.6-0.2-9.4c15.6 0 18.6-12.8 18.6-24.5h-19.2z"/>
	</g>
</svg>