<svg version="1.1" id="Layer_1" xmlns="http://www.w3.org/2000/svg" xmlns:xlink="http://www.w3.org/1999/xlink" x="0px" y="0px"
	 width="100%" viewBox="0 0 256 208" enable-background="new 0 0 256 208" xml:space="preserve">
<path fill="#000000" opacity="1.000000" stroke="none" 
	d="
M144.888763,171.981628 
	C154.260895,173.896774 162.290298,181.420547 163.409698,189.102524 
	C160.774002,190.002060 159.901703,187.975800 159.011551,186.324417 
	C157.055527,182.695740 154.214142,179.976730 150.803879,177.768738 
	C148.197754,176.081390 145.621460,175.437271 142.344833,176.160156 
	C134.916534,177.799011 127.800697,174.942154 120.807396,173.214996 
	C113.273300,171.354263 105.621689,169.351547 98.672264,165.572296 
	C95.474709,163.833389 93.888908,164.912003 93.045189,168.375519 
	C91.708595,173.862350 90.021576,179.264450 88.452942,184.693756 
	C87.973213,186.354172 88.029144,188.439438 85.538033,188.797714 
	C83.646347,187.040588 84.645584,185.043976 85.138306,183.229294 
	C86.619705,177.773392 88.083038,172.301605 89.886604,166.948273 
	C90.960548,163.760620 90.462112,161.919785 87.058731,160.972977 
	C79.369431,158.833847 71.714287,156.571426 64.052086,154.335724 
	C60.510357,153.302307 56.701920,152.517838 56.617210,147.640381 
	C56.531876,142.726959 59.470337,139.920853 63.630737,138.367599 
	C69.085106,136.331268 74.686462,136.333481 80.327614,137.914902 
	C86.157379,139.549210 92.039566,140.996490 97.639786,142.457977 
	C99.355019,139.815933 97.595093,138.696671 96.820999,137.378235 
	C88.804070,123.723862 77.914780,112.018028 70.198235,98.150314 
	C68.744461,95.537682 66.725418,93.231369 65.352219,90.584000 
	C63.172646,86.382057 61.074303,82.606094 55.573441,81.815117 
	C52.851681,81.423737 50.731533,78.866760 49.538113,76.189568 
	C47.100426,70.721138 43.263100,66.069283 41.096279,60.373646 
	C38.556957,53.698853 31.709936,49.886131 25.532787,50.895981 
	C27.725142,56.666668 29.749218,62.418705 32.087460,68.040070 
	C34.912727,74.832283 36.457237,81.974335 38.535954,88.973312 
	C40.885475,96.884079 44.134357,104.772621 48.411537,111.807884 
	C54.637974,122.049332 52.527050,131.529572 48.975964,141.785904 
	C44.191170,155.605469 40.633915,169.844299 35.337448,183.506882 
	C34.442593,185.815216 34.368698,188.775314 31.435110,189.902878 
	C29.248545,188.128372 30.491276,186.298294 31.111658,184.774445 
	C37.779819,168.395447 41.740704,151.136169 47.551571,134.480392 
	C49.645302,128.479095 49.725155,122.846870 46.615688,116.740479 
	C39.895309,103.542984 34.764633,89.675987 30.863842,75.315300 
	C29.102472,68.830849 27.001720,62.250011 22.814394,56.643044 
	C20.975479,54.180668 19.853333,51.270138 22.150284,48.357071 
	C24.597614,45.253288 27.659269,46.008743 30.795511,47.096172 
	C37.840332,49.538830 42.498081,54.267563 45.457535,61.122768 
	C47.559303,65.991249 50.321251,70.591728 53.017071,75.177483 
	C53.952652,76.768951 55.172588,78.568428 57.977287,78.334305 
	C57.248486,74.685890 54.694183,71.228333 56.031506,67.680351 
	C57.995701,62.469288 59.613071,57.285667 60.731598,51.782364 
	C61.764046,46.702572 67.595001,45.623886 71.970894,49.240147 
	C74.181908,51.067329 75.926270,51.845566 78.547821,50.185776 
	C80.843346,48.732399 83.444633,48.775143 85.535210,50.644135 
	C88.341934,53.153358 90.367043,52.114929 92.794174,49.942291 
	C97.754097,45.502422 102.748062,41.044353 108.126579,37.143303 
	C114.148376,32.775684 120.346687,27.880426 128.500809,32.965591 
	C130.145630,33.991341 131.157410,32.152863 132.382980,31.436623 
	C135.983383,29.332504 139.651733,27.961340 143.593933,30.599390 
	C144.872147,31.454748 146.518127,32.874245 146.141174,34.078175 
	C144.203079,40.268261 152.994995,44.241173 149.405121,50.526619 
	C147.272430,54.260674 144.830246,57.817955 142.543900,61.428387 
	C148.324463,67.866730 148.450027,70.699684 143.764114,78.590691 
	C141.833832,81.841232 137.716263,84.783920 138.387878,88.320648 
	C139.059418,91.856941 143.951797,93.153786 146.874039,95.580215 
	C155.678604,102.890900 162.254135,112.174416 169.168488,121.113586 
	C173.343552,126.511330 177.187729,132.155518 182.093750,136.943161 
	C194.881546,149.422379 202.578995,165.621185 213.284988,179.622757 
	C215.134521,182.041656 217.776199,184.108261 217.881897,187.544556 
	C215.558182,189.192230 214.735748,187.314545 213.837662,186.055069 
	C208.526794,178.607162 202.619293,171.603378 198.227417,163.473602 
	C195.712875,158.819000 192.616287,154.311081 189.028641,150.434036 
	C176.005829,136.360825 164.875336,120.758995 152.631119,106.061958 
	C146.211609,98.356483 137.498230,93.610268 129.926422,87.399567 
	C128.375137,86.127144 126.363930,86.793839 124.300941,85.999336 
	C123.942169,79.069191 117.234619,76.322250 113.847847,71.170235 
	C112.401192,68.969574 110.797104,69.897842 109.016808,72.907448 
	C116.059761,79.475693 123.285385,86.214279 130.620865,93.055336 
	C128.024948,95.820160 126.615753,94.231964 125.208504,93.286346 
	C121.271950,90.641121 118.612656,86.728653 115.430550,83.334625 
	C113.037346,80.782051 110.652260,78.416023 107.215607,82.024513 
	C106.696419,82.569664 105.684120,82.670876 104.834404,81.931953 
	C104.106964,79.176758 108.307678,79.613731 108.099144,77.155212 
	C102.377274,79.276321 101.704597,81.147202 105.281013,85.318283 
	C107.559891,87.976089 110.059242,90.409081 112.967125,92.423187 
	C114.369926,93.394821 116.246315,94.232056 115.936401,96.495232 
	C113.689667,98.164047 112.360222,96.313515 111.012398,95.363297 
	C107.176079,92.658722 103.976906,89.231133 100.997040,85.640823 
	C98.759834,82.945328 96.733200,81.637993 93.727638,84.719254 
	C92.548897,85.927666 90.891594,87.218109 88.594757,85.785675 
	C89.184113,83.864120 92.436165,82.423676 90.058937,79.808266 
	C87.657532,78.872215 87.446663,81.971344 85.080467,82.382507 
	C84.250427,78.314934 87.158638,76.748169 90.190933,75.267921 
	C85.154243,68.832741 78.067978,64.955887 74.945190,57.387268 
	C72.078033,58.584126 69.693794,59.579395 67.177078,60.629967 
	C76.700752,78.291077 92.143059,91.295792 103.083519,107.867294 
	C95.071732,105.423119 92.897385,96.517281 86.049316,92.525368 
	C83.037590,93.483238 81.729950,98.162773 77.096024,97.097847 
	C78.428329,93.518883 83.940331,93.112541 83.362785,88.263535 
	C78.250229,87.986320 77.896530,93.537209 74.258080,95.782318 
	C73.614082,90.571732 76.655937,88.234535 79.954643,85.537643 
	C76.593666,81.087196 73.171005,76.833626 70.552101,72.053795 
	C69.796227,70.674248 68.566246,70.416664 67.135498,71.165581 
	C64.799492,72.388336 62.393929,72.182198 59.308823,70.729912 
	C61.920734,78.918289 66.270363,85.224617 70.178261,91.689743 
	C80.519478,108.798004 93.015610,124.449379 104.020470,141.115921 
	C105.045250,142.667923 106.413803,144.159073 105.321396,146.083038 
	C104.149971,148.146179 101.963074,147.474960 100.341682,147.065002 
	C94.227158,145.519058 88.172630,143.730347 82.115669,141.963852 
	C77.095207,140.499649 72.078552,139.629120 66.367813,141.591812 
	C72.796036,143.103226 74.097656,147.295181 73.036980,152.655594 
	C74.826538,154.146484 76.798241,154.106720 78.733910,154.194122 
	C81.223740,151.864182 78.901466,146.114365 84.529160,146.204803 
	C86.642090,148.195435 86.483719,150.785172 86.329826,153.244736 
	C86.168289,155.826447 87.243828,157.227158 89.551834,158.176941 
	C103.857849,164.063950 118.060112,170.224075 133.585968,172.358124 
	C137.272110,172.864792 140.870712,173.039398 144.888763,171.981628 
M114.999870,53.479584 
	C107.965408,61.460934 107.962906,61.464172 115.289810,67.129677 
	C115.518997,67.306892 115.919327,67.262787 116.483727,67.366814 
	C125.362679,58.108994 132.520599,47.181458 141.852432,38.158718 
	C142.862839,37.181770 143.152557,35.796055 142.350052,34.480995 
	C141.593460,33.241165 140.379990,32.731007 138.947906,32.808002 
	C136.876663,32.919361 135.165176,33.819824 133.536163,35.089542 
	C126.807129,40.334435 121.057571,46.558933 114.999870,53.479584 
M106.965065,57.501011 
	C112.089867,50.950363 117.937660,45.063629 123.786873,39.177963 
	C124.714386,38.244671 126.001152,37.323696 125.320732,35.823883 
	C124.580063,34.191265 122.933769,34.191895 121.419189,34.420143 
	C120.448723,34.566391 119.517662,34.972599 118.568176,35.259777 
	C112.124985,37.208515 107.479607,41.864815 102.721191,46.186958 
	C99.247353,49.342293 94.771103,51.557899 92.305214,56.200062 
	C93.657982,57.650383 94.860291,58.996616 96.123390,60.283154 
	C100.430962,64.670685 101.010674,64.650887 105.011826,60.032185 
	C105.553856,59.406494 106.018440,58.713718 106.965065,57.501011 
M135.621582,50.105545 
	C131.323212,55.373909 126.959839,60.590885 122.743736,65.924278 
	C117.997353,71.928452 118.454300,73.562080 126.151344,77.625572 
	C133.384857,68.532013 139.782974,58.714802 146.317474,48.997662 
	C146.406799,48.864822 146.442947,48.691120 146.483383,48.531288 
	C146.983276,46.554768 146.543442,44.860195 144.756607,43.771854 
	C143.073441,42.746666 141.527328,43.298740 140.291122,44.650066 
	C138.836716,46.239944 137.481720,47.920765 135.621582,50.105545 
M84.951447,64.949333 
	C89.926102,69.720039 94.900757,74.490746 100.393623,79.758423 
	C101.323990,76.362312 107.070435,75.501869 103.408257,71.602684 
	C98.929947,66.834557 93.779160,62.698032 88.913986,58.283695 
	C87.121750,59.656105 85.740524,60.823101 84.249374,61.826775 
	C82.548004,62.971947 83.848129,63.695736 84.951447,64.949333 
M134.304825,85.337273 
	C138.192078,81.425919 141.028152,76.812195 143.147369,71.765434 
	C143.932343,69.896080 144.422379,67.683762 142.062820,66.572372 
	C140.108704,65.651947 138.610336,66.902519 137.453156,68.492477 
	C135.506561,71.167099 133.541092,73.827972 131.589600,76.499046 
	C127.897614,81.552406 127.938202,81.719315 134.304825,85.337273 
M63.459953,145.051025 
	C61.708862,146.083801 60.341877,147.611404 61.864540,149.431717 
	C63.530876,151.423782 66.244858,151.527893 68.711838,151.458282 
	C70.061577,151.420197 70.623138,150.247177 70.569252,148.960876 
	C70.462280,146.407898 68.864243,145.114395 66.550484,144.635727 
	C65.780853,144.476501 64.928841,144.715485 63.459953,145.051025 
M65.820786,54.839962 
	C67.253349,56.958477 68.903900,57.464485 71.028839,55.734253 
	C70.482887,53.536686 69.786537,51.597683 67.458199,51.471451 
	C65.864876,51.385063 65.343498,52.715050 65.820786,54.839962 
M63.269024,63.732105 
	C60.258793,64.643623 61.205303,66.533279 62.265850,68.264526 
	C63.067287,69.572792 64.373466,69.961525 65.528824,68.728600 
	C67.144630,67.004303 65.555489,65.797073 64.591225,64.551849 
	C64.398605,64.303116 64.091003,64.143425 63.269024,63.732105 
M80.317490,54.793716 
	C79.329109,56.853069 79.643272,58.435055 82.154518,58.702229 
	C83.650719,58.861412 84.873306,57.896301 84.533661,56.310036 
	C84.123894,54.396175 83.100311,52.838234 80.317490,54.793716 
z"/>
<path fill="#000000" opacity="1.000000" stroke="none" 
	d="
M137.856476,114.542801 
	C135.156677,115.542236 132.795914,116.344986 131.126099,117.826927 
	C130.290939,119.993591 132.728058,121.007126 132.039871,123.232506 
	C126.953377,125.467049 121.243866,125.998375 114.856644,127.136368 
	C115.678062,120.606575 117.674896,115.170250 120.419998,108.655838 
	C124.423012,114.882187 128.261139,111.410172 132.309311,109.743248 
	C136.963562,107.826759 141.815964,106.530685 146.913086,108.033035 
	C156.271378,110.791321 160.669540,120.292786 156.826416,131.790375 
	C151.800568,146.826309 141.798233,157.155060 125.761063,160.487534 
	C119.942657,161.696564 114.728477,159.823608 110.975937,155.292618 
	C106.846237,150.306213 106.524620,144.325424 108.135468,138.244476 
	C108.615219,136.433426 110.052422,135.517899 111.993805,135.932465 
	C113.803894,136.318985 114.214478,137.741837 114.201637,139.360168 
	C114.197685,139.857849 114.118446,140.355042 114.071640,140.852264 
	C113.009384,152.136154 119.890900,157.248016 130.198822,152.633865 
	C140.677261,147.943344 147.692856,139.996811 150.766617,128.916733 
	C153.704071,118.328056 149.218719,113.304520 137.856476,114.542801 
z"/>
</svg>