<svg version="1.1" id="Layer_1" xmlns="http://www.w3.org/2000/svg" xmlns:xlink="http://www.w3.org/1999/xlink" x="0px" y="0px"
	 width="100%" viewBox="0 0 305 207" enable-background="new 0 0 305 207" xml:space="preserve">
<path fill="none" opacity="1.000000" stroke="#000000" stroke-linecap="round" stroke-linejoin="round" stroke-width="3.000000"
	d="
M53.500000,138.500000 
	C51.237198,136.118011 51.361084,132.747375 50.212158,129.913971 
	C48.302929,125.205574 45.759953,121.095169 41.906036,118.121788 
	C39.134010,115.983124 39.793343,114.368492 40.967548,111.984016 
	C44.227772,105.363426 47.562881,98.763557 50.430168,91.970520 
	C52.894039,86.133240 51.528934,80.530624 47.501541,77.001228 
	C35.812447,86.490601 27.448969,98.684174 20.144106,111.581619 
	C18.015537,115.339821 16.745533,119.788696 16.930292,124.502731 
	C17.290751,133.699646 17.212175,142.825882 18.718462,152.045990 
	C20.168055,160.919083 16.400793,169.564255 13.481958,177.993759 
	C12.257034,181.531296 10.833330,185.000000 9.499997,188.500000 
"/>
<path fill="none" opacity="1.000000" stroke="#000000" stroke-linecap="round" stroke-linejoin="round" stroke-width="2.000000"
	d="
M156.999985,91.500000 
	C157.999985,96.666672 160.018311,101.885567 159.756622,106.987518 
	C159.382446,114.283089 162.240662,120.023079 166.079361,125.443802 
	C170.773712,132.072861 175.004318,138.951263 179.005173,145.997055 
	C183.400650,153.737823 190.473679,159.219482 195.964905,166.028305 
	C201.490677,172.879913 206.008194,180.395081 209.500000,188.500000 
"/>
<path fill="none" opacity="1.000000" stroke="#000000" stroke-linecap="round" stroke-linejoin="round" stroke-width="2.000000"
	d="
M158.500000,27.500000 
	C161.661850,25.823568 164.823700,24.147137 168.180878,22.367142 
	C171.479034,23.614714 172.314362,27.184286 174.675232,29.686279 
	C182.949265,27.214781 190.301254,31.173742 198.028564,33.400909 
	C203.486572,34.974018 206.273773,38.475235 208.034332,43.487946 
	C210.039825,49.198009 213.971146,53.849922 216.994476,59.003242 
	C223.882874,70.744614 228.451187,83.413086 232.016281,96.495560 
	C234.770370,106.601921 238.009567,116.602463 239.439163,127.008362 
	C240.279785,133.127136 241.831406,138.952927 244.500000,144.500000 
"/>
<path fill="none" opacity="1.000000" stroke="#000000" stroke-linecap="round" stroke-linejoin="round" stroke-width="2.000000"
	d="
M91.000000,98.500000 
	C94.313683,101.409439 94.153610,104.962166 93.599335,109.013588 
	C92.341766,118.205513 88.921776,126.920311 87.631966,136.018707 
	C85.274612,152.647507 77.453606,166.499847 67.533081,179.525192 
	C65.635826,182.016235 64.166664,184.833328 62.499996,187.500000 
"/>
<path fill="none" opacity="1.000000" stroke="#000000" stroke-linecap="round" stroke-linejoin="round" stroke-width="3.000000"
	d="
M149.500000,48.000000 
	C148.166672,48.000000 146.830902,47.948330 145.500504,48.010620 
	C142.624664,48.145271 139.041580,47.046654 137.596085,50.539761 
	C136.061249,54.248745 136.608597,58.142517 139.045380,61.466736 
	C139.929977,62.673504 141.303223,63.537807 142.504608,64.494217 
	C156.163467,75.367943 165.028702,89.852531 172.977859,105.011612 
	C174.516769,107.946289 175.210175,111.148735 175.000000,114.500000 
"/>
<path fill="none" opacity="1.000000" stroke="#000000" stroke-linecap="round" stroke-linejoin="round" stroke-width="3.000000"
	d="
M168.500000,35.000000 
	C182.800034,38.290627 191.492996,48.415764 199.009430,59.993877 
	C200.443710,62.203213 202.000000,64.333336 203.500000,66.500008 
"/>
<path fill="none" opacity="1.000000" stroke="#000000" stroke-linecap="round" stroke-linejoin="round" stroke-width="3.000000"
	d="
M180.500000,71.500000 
	C176.095810,60.227650 166.648407,48.173717 154.001053,49.015709 
	C153.326263,49.060631 152.666672,49.333328 152.000000,49.499992 
"/>
<path fill="none" opacity="1.000000" stroke="#000000" stroke-linecap="round" stroke-linejoin="round" stroke-width="3.000000"
	d="
M166.750000,31.999998 
	C163.166672,33.666664 159.662750,35.540375 155.981735,36.952362 
	C150.195908,39.171722 146.203384,44.886326 152.506378,51.493908 
	C153.826263,52.877579 155.232437,54.104912 156.977478,55.041931 
	C163.326630,58.451153 169.103455,62.653687 174.005203,67.995224 
	C177.389999,71.683693 183.177567,72.004219 186.000000,76.500000 
"/>
<path fill="none" opacity="1.000000" stroke="#000000" stroke-linecap="round" stroke-linejoin="round" stroke-width="2.000000"
	d="
M107.500000,81.500000 
	C105.010231,79.894287 104.474525,77.757507 105.468323,74.988632 
	C106.340279,72.559219 105.887794,70.477348 104.697609,67.908447 
	C102.444542,63.045418 98.867233,59.933807 94.477806,57.540707 
	C88.270073,54.156273 85.601357,54.741051 80.500000,60.000000 
"/>
<path fill="none" opacity="1.000000" stroke="#000000" stroke-linecap="round" stroke-linejoin="round" stroke-width="2.000000"
	d="
M151.500000,74.000000 
	C144.209274,77.777718 137.571167,82.724716 130.000000,86.000000 
"/>
<path fill="none" opacity="1.000000" stroke="#000000" stroke-linecap="round" stroke-linejoin="round" stroke-width="2.000000"
	d="
M161.500000,88.000000 
	C154.886841,93.118713 146.714218,95.537346 139.971558,100.461044 
	C137.718521,102.106277 135.651764,99.930229 133.500000,99.500000 
"/>
<path fill="none" opacity="1.000000" stroke="#000000" stroke-linecap="round" stroke-linejoin="round" stroke-width="3.000000"
	d="
M56.500000,85.500000 
	C57.301876,87.698120 59.310955,88.806808 61.048534,89.924545 
	C63.827141,91.711952 66.950180,89.931633 66.874008,86.502800 
	C66.834938,84.744469 68.478142,83.680328 68.000000,82.000000 
	C62.562424,73.894806 59.250378,75.714920 53.998680,78.997894 
	C53.174763,79.512955 52.333332,80.000000 51.500000,80.500000 
"/>
<path fill="none" opacity="1.000000" stroke="#000000" stroke-linecap="round" stroke-linejoin="round" stroke-width="2.000000"
	d="
M104.500000,78.500000 
	C100.773323,83.740982 99.817062,83.961655 91.500000,81.500000 
"/>
<path fill="none" opacity="1.000000" stroke="#000000" stroke-linecap="round" stroke-linejoin="round" stroke-width="5.000000"
	d="
M69.000000,81.000000 
	C73.474960,79.963051 77.026405,80.966988 79.002594,85.498871 
	C80.045631,87.890793 81.605637,89.006767 84.495049,89.123070 
	C88.873878,89.299301 88.212090,93.966690 90.592506,96.710121 
	C86.988785,97.664009 84.000305,98.840164 81.487411,100.985252 
	C79.173355,102.960602 77.722137,99.000504 75.500000,100.000000 
"/>
<path fill="none" opacity="1.000000" stroke="#000000" stroke-linecap="round" stroke-linejoin="round" stroke-width="2.000000"
	d="
M125.500000,46.500004 
	C124.000000,47.166668 122.459152,47.755131 121.007080,48.513561 
	C114.771332,51.770550 113.223724,55.076630 114.487228,62.002331 
	C115.062431,65.155273 115.500000,68.333336 116.000000,71.500000 
"/>
<path fill="none" opacity="1.000000" stroke="#000000" stroke-linecap="round" stroke-linejoin="round" stroke-width="2.000000"
	d="
M127.500000,81.500000 
	C129.171936,86.238205 131.536804,90.639427 133.973953,95.014511 
	C134.739441,96.388664 136.591415,97.469528 135.500000,99.500000 
"/>
<path fill="none" opacity="1.000000" stroke="#000000" stroke-linecap="round" stroke-linejoin="round" stroke-width="2.000000"
	d="
M141.500000,37.499992 
	C137.166656,39.833328 132.833328,42.166660 128.500000,44.499992 
"/>
<path fill="none" opacity="1.000000" stroke="#000000" stroke-linecap="round" stroke-linejoin="round" stroke-width="3.000000"
	d="
M74.500000,107.500000 
	C69.318565,108.318565 68.986305,113.899529 65.599388,116.623573 
	C62.149857,119.397987 59.500000,123.166664 56.500000,126.500000 
"/>
<path fill="none" opacity="1.000000" stroke="#000000" stroke-linecap="round" stroke-linejoin="round" stroke-width="2.000000"
	d="
M82.500000,106.500000 
	C81.869690,109.708588 80.875748,112.952187 78.885178,115.406891 
	C76.796585,117.982491 77.197777,120.061745 78.500000,122.500000 
"/>
<path fill="none" opacity="1.000000" stroke="#000000" stroke-linecap="round" stroke-linejoin="round" stroke-width="3.000000"
	d="
M63.500000,91.000000 
	C61.000000,95.333336 58.522129,99.679642 55.990902,103.994659 
	C54.675972,106.236252 52.421021,105.321518 50.500000,105.500000 
"/>
<path fill="none" opacity="1.000000" stroke="#000000" stroke-linecap="round" stroke-linejoin="round" stroke-width="3.000000"
	d="
M80.250000,88.000000 
	C73.767326,90.776924 73.761925,90.777855 75.006538,97.998871 
	C75.169769,98.945892 74.432449,99.372063 74.081467,100.042641 
	C72.688705,102.703590 70.629318,105.182899 71.000000,108.500000 
"/>
<path fill="none" opacity="1.000000" stroke="#000000" stroke-linecap="round" stroke-linejoin="round" stroke-width="2.000000"
	d="
M103.000000,85.000000 
	C100.871422,85.747612 98.264862,86.090530 99.937347,89.530464 
	C100.273888,90.222641 99.402977,90.902977 98.500000,91.000000 
"/>
<path fill="none" opacity="1.000000" stroke="#000000" stroke-linecap="round" stroke-linejoin="round" stroke-width="2.000000"
	d="
M114.000000,66.500008 
	C111.500000,67.666672 109.000000,68.833336 106.500000,70.000008 
"/>
<path fill="none" opacity="1.000000" stroke="#000000" stroke-linecap="round" stroke-linejoin="round" stroke-width="2.000000"
	d="
M115.000000,56.000000 
	C117.149300,57.637558 118.004219,59.972088 118.500000,62.500000 
"/>
<path fill="none" opacity="1.000000" stroke="#000000" stroke-linecap="round" stroke-linejoin="round" stroke-width="2.000000"
	d="
M67.000000,90.500000 
	C68.639343,92.284935 70.283852,94.061012 73.000000,94.000000 
"/>
<path fill="none" opacity="1.000000" stroke="#000000" stroke-linecap="round" stroke-linejoin="round" stroke-width="2.000000"
	d="
M126.000000,92.500000 
	C124.295555,94.584442 121.710800,95.238380 119.500000,96.500000 
"/>
<path fill="none" opacity="1.000000" stroke="#000000" stroke-linecap="round" stroke-linejoin="round" stroke-width="3.000000"
	d="
M174.000000,29.500002 
	C171.833328,30.333336 169.666672,31.166670 167.500000,32.000004 
"/>
<path fill="none" opacity="1.000000" stroke="#000000" stroke-linecap="round" stroke-linejoin="round" stroke-width="2.000000"
	d="
M103.000000,82.500000 
	C105.087540,87.922615 108.243057,92.740044 111.500000,97.500000 
"/>
<path fill="none" opacity="1.000000" stroke="#000000" stroke-linecap="round" stroke-linejoin="round" stroke-width="3.000000"
	d="
M81.000000,102.000000 
	C80.147316,106.852684 85.011932,105.988068 87.000000,108.000000 
"/>
<path fill="none" opacity="1.000000" stroke="#000000" stroke-linecap="round" stroke-linejoin="round" stroke-width="2.000000"
	d="
M55.500000,129.500000 
	C55.151218,128.259705 58.941460,127.364998 55.962170,126.088272 
	C54.220810,125.342041 53.159092,126.956062 52.500000,128.500000 
"/>
<path fill="none" opacity="1.000000" stroke="#000000" stroke-linecap="round" stroke-linejoin="round" stroke-width="2.000000"
	d="
M69.500000,110.500000 
	C68.166664,110.500000 66.833336,110.500000 65.500000,110.500000 
"/>
<path fill="none" opacity="1.000000" stroke="#000000" stroke-linecap="round" stroke-linejoin="round" stroke-width="2.000000"
	d="
M129.500000,94.500000 
	C128.620682,93.379318 128.567978,91.432022 126.500000,91.500000 
"/>
<path fill="none" opacity="1.000000" stroke="#000000" stroke-linecap="round" stroke-linejoin="round" stroke-width="2.000000"
	d="
M80.500000,104.000000 
	C79.288437,104.824715 78.103966,105.721687 76.500000,105.500000 
"/>
<path fill="none" opacity="1.000000" stroke="#000000" stroke-linecap="round" stroke-linejoin="round" stroke-width="2.000000"
	d="
M106.500000,91.000000 
	C104.500000,91.680199 102.500000,94.965935 100.500000,91.000000 
"/>
</svg>