<svg version="1.1" id="Layer_1" xmlns="http://www.w3.org/2000/svg" xmlns:xlink="http://www.w3.org/1999/xlink" x="0px" y="0px"
	 width="100%" viewBox="0 0 278 215" enable-background="new 0 0 278 215" xml:space="preserve">
<path fill="none" opacity="1.000000" stroke="#000000" stroke-linecap="round" stroke-linejoin="round" stroke-width="3.000000"
	d="
M230.000000,201.000000 
	C220.642990,193.565948 211.418655,186.142273 203.773621,176.682953 
	C199.261185,171.099655 193.913208,165.885803 188.392288,161.124893 
	C186.238297,159.267426 185.687759,157.428360 185.490952,155.000732 
	C184.566177,143.594315 178.638229,134.015915 173.861618,124.066429 
	C172.845795,121.950493 170.478531,120.510498 167.556107,119.776588 
	C164.287720,118.955803 160.984650,117.284325 158.439392,114.556557 
	C157.037354,113.054001 155.244629,112.002831 152.946548,113.936478 
	C150.559250,115.945198 148.031570,115.250252 146.010361,112.990730 
	C144.454285,111.251205 142.762009,109.521347 140.483002,109.089737 
	C138.449326,108.704575 135.831055,108.389946 134.560226,110.535667 
	C131.116531,116.350128 126.658432,117.224045 120.982483,114.031143 
	C120.277809,113.634750 119.180908,114.428810 118.500000,113.500000 
"/>
<path fill="none" opacity="1.000000" stroke="#000000" stroke-linecap="round" stroke-linejoin="round" stroke-width="2.000000"
	d="
M102.000000,43.500000 
	C98.963234,41.316177 96.950165,41.710274 94.372894,44.897213 
	C89.124756,51.386864 85.261681,58.730076 80.570526,65.548523 
	C74.077919,74.985321 66.247971,83.347633 59.803776,92.867165 
	C52.930874,103.019989 48.582176,114.293251 42.850906,124.919586 
	C35.561363,138.435135 32.173477,153.538605 24.899431,166.945435 
	C19.235403,177.384827 12.666668,187.333328 6.500001,197.500000 
"/>
<path fill="none" opacity="1.000000" stroke="#000000" stroke-linecap="round" stroke-linejoin="round" stroke-width="5.000000"
	d="
M230.000000,119.500000 
	C228.280762,117.373779 227.368027,114.825516 225.096664,112.886742 
	C219.333191,107.967194 209.943207,109.323578 205.932266,115.959053 
	C202.715576,121.280579 200.520309,126.658279 199.825394,132.980804 
	C199.112335,139.468307 199.983017,145.456497 201.965668,151.511246 
	C203.435226,155.999176 206.211639,159.321335 209.986710,162.018600 
	C214.644272,165.346420 220.955093,164.543167 225.509888,160.009933 
	C230.791809,154.753006 231.961548,147.789474 233.454483,140.990005 
	C234.063309,138.217163 234.166656,135.333328 234.500000,132.500000 
"/>
<path fill="none" opacity="1.000000" stroke="#000000" stroke-linecap="round" stroke-linejoin="round" stroke-width="3.000000"
	d="
M135.500000,33.500000 
	C142.385345,37.384541 142.372589,43.723560 139.443497,52.982124 
	C134.992798,67.050446 129.884857,80.915062 125.627998,95.038582 
	C123.719070,101.372047 121.642776,107.702995 117.789703,112.842331 
	C114.567558,117.140121 111.306282,120.898483 110.364685,126.477158 
	C109.650269,130.709808 108.251251,134.660263 109.871849,139.047333 
	C110.436989,140.577225 110.517326,142.744003 109.500000,144.500000 
"/>
<path fill="none" opacity="1.000000" stroke="#000000" stroke-linecap="round" stroke-linejoin="round" stroke-width="3.000000"
	d="
M111.999992,148.000000 
	C111.833328,147.666672 111.750137,147.142105 111.487923,147.027649 
	C101.959206,142.868195 96.171036,133.619598 86.990868,129.018219 
	C82.582504,126.808617 78.301453,125.183907 72.932785,126.772888 
	C69.423958,127.811401 69.031212,130.257568 68.091782,132.537811 
	C67.075813,135.003830 69.379456,136.074783 70.952667,137.550461 
	C78.872093,144.978897 88.960243,149.789536 96.314445,157.673096 
	C101.213852,162.925171 106.673958,167.332916 111.981598,172.020844 
	C117.221695,176.649094 123.307991,180.038086 129.032990,183.951736 
	C130.479446,184.940552 132.504623,186.168259 133.972733,185.867065 
	C145.078934,183.588486 151.115402,192.331024 158.978165,197.036484 
	C160.792847,198.122482 162.333328,199.666672 164.000000,201.000000 
"/>
<path fill="none" opacity="1.000000" stroke="#000000" stroke-linecap="round" stroke-linejoin="round" stroke-width="3.000000"
	d="
M94.500000,157.500000 
	C92.166664,157.666656 89.727905,158.355164 87.518433,157.908752 
	C78.441078,156.074753 74.052628,161.701248 71.112091,168.548141 
	C66.681992,178.863434 62.999996,189.500000 59.000000,200.000000 
"/>
<path fill="none" opacity="1.000000" stroke="#000000" stroke-linecap="round" stroke-linejoin="round" stroke-width="3.000000"
	d="
M109.499992,85.499992 
	C115.499992,72.999992 121.553818,60.525425 127.476425,47.988861 
	C130.280350,42.053711 132.827591,35.997440 135.502121,30.000946 
	C137.151459,26.303051 135.485413,23.379457 132.929749,21.078007 
	C131.305405,19.615236 128.851486,18.915400 127.043091,21.036736 
	C125.342110,23.032066 123.443680,25.139200 122.606842,27.537283 
	C120.319122,34.093143 117.299210,40.267311 113.442734,45.961216 
	C108.089470,53.865067 103.673485,62.209011 99.956581,70.981606 
	C98.241707,75.029022 95.575409,78.444664 91.500000,80.500000 
"/>
<path fill="none" opacity="1.000000" stroke="#000000" stroke-linecap="round" stroke-linejoin="round" stroke-width="2.000000"
	d="
M189.500000,24.000000 
	C183.448624,27.709223 187.624435,32.628578 188.755417,36.423889 
	C190.260101,41.473324 192.152878,46.505054 193.997864,51.500790 
	C194.180359,51.994942 194.192856,52.632637 194.521011,52.980167 
	C199.740921,58.508411 202.019958,64.871681 200.541580,72.508049 
	C199.892181,75.862488 204.623703,74.376289 205.000000,77.000000 
"/>
<path fill="none" opacity="1.000000" stroke="#000000" stroke-linecap="round" stroke-linejoin="round" stroke-width="3.000000"
	d="
M122.000000,26.500000 
	C118.623909,24.328962 116.468201,24.554226 113.862877,28.407284 
	C105.294289,41.079536 97.057480,53.903282 89.878609,67.435600 
	C87.758339,71.432335 85.126793,75.465820 81.000000,78.000000 
"/>
<path fill="none" opacity="1.000000" stroke="#000000" stroke-linecap="round" stroke-linejoin="round" stroke-width="2.000000"
	d="
M220.500000,86.500000 
	C219.666672,84.833336 218.884583,83.138596 217.990265,81.505333 
	C215.445465,76.857895 212.273926,75.498123 206.991409,76.452446 
	C205.626129,76.699097 204.932953,77.290718 204.492218,78.497154 
	C201.760757,85.974388 194.964874,87.041458 188.483215,88.421112 
	C187.118988,88.711487 185.737534,88.783470 184.500000,89.500000 
"/>
<path fill="none" opacity="1.000000" stroke="#000000" stroke-linecap="round" stroke-linejoin="round" stroke-width="2.000000"
	d="
M171.500000,63.500000 
	C168.576874,69.869751 168.246826,77.467796 162.500000,82.500000 
"/>
<path fill="none" opacity="1.000000" stroke="#000000" stroke-linecap="round" stroke-linejoin="round" stroke-width="2.000000"
	d="
M223.500000,49.500000 
	C227.401520,54.689388 229.393265,60.889843 232.500000,66.500000 
"/>
<path fill="none" opacity="1.000000" stroke="#000000" stroke-linecap="round" stroke-linejoin="round" stroke-width="2.000000"
	d="
M193.500000,32.500000 
	C192.166672,29.333334 190.645569,26.227936 189.583374,22.972795 
	C189.091125,21.464296 189.113220,19.370989 191.022064,18.551388 
	C193.196854,17.617596 193.969543,19.788357 194.416382,21.030092 
	C196.573425,27.024345 201.332733,31.545786 203.500000,37.500000 
"/>
<path fill="none" opacity="1.000000" stroke="#000000" stroke-linecap="round" stroke-linejoin="round" stroke-width="2.000000"
	d="
M201.000000,24.000000 
	C205.248978,29.023376 207.636292,35.231449 211.500000,40.500000 
"/>
<path fill="none" opacity="1.000000" stroke="#000000" stroke-linecap="round" stroke-linejoin="round" stroke-width="2.000000"
	d="
M196.000000,56.000000 
	C193.833328,57.434574 191.659027,58.764088 189.503036,55.997635 
	C188.322815,54.483227 186.929840,54.894619 185.500000,55.500000 
"/>
<path fill="none" opacity="1.000000" stroke="#000000" stroke-linecap="round" stroke-linejoin="round" stroke-width="2.000000"
	d="
M200.000000,23.000000 
	C198.978195,21.257395 197.948975,19.531490 195.500000,21.000000 
"/>
<path fill="none" opacity="1.000000" stroke="#000000" stroke-linecap="round" stroke-linejoin="round" stroke-width="2.000000"
	d="
M81.500000,65.000000 
	C82.721916,66.058014 84.179359,65.231796 85.500000,65.500000 
"/>
<path fill="none" opacity="1.000000" stroke="#000000" stroke-linecap="round" stroke-linejoin="round" stroke-width="2.000000"
	d="
M79.500000,138.500000 
	C79.233086,140.213043 77.592171,140.277267 76.500000,141.000000 
"/>
</svg>