<svg version="1.1" id="Layer_1" xmlns="http://www.w3.org/2000/svg" xmlns:xlink="http://www.w3.org/1999/xlink" x="0px" y="0px"
	 width="100%" viewBox="0 0 268 220" enable-background="new 0 0 268 220" xml:space="preserve">
<path fill="none" opacity="1.000000" stroke="#000000" stroke-linecap="round" stroke-linejoin="round" stroke-width="3.000000"
	d="
M106.500000,195.500000 
	C103.515274,190.945419 103.642578,185.450500 101.963058,180.512558 
	C99.005539,171.817184 100.065979,162.851562 100.090866,154.000259 
	C100.119576,143.784058 95.931999,134.947189 91.939041,126.027290 
	C89.781418,121.207352 85.846832,116.915573 84.773109,111.941048 
	C83.203751,104.670296 80.476212,97.029495 84.467712,89.482925 
	C85.748207,87.061951 85.835785,85.285156 83.153595,82.832062 
	C76.957466,77.165169 69.801178,76.328789 62.006207,75.889816 
	C49.674904,75.195366 39.041611,78.672806 30.057259,87.061325 
	C29.175316,87.884789 28.471575,88.049744 27.500414,87.992935 
	C25.696001,87.887367 24.634096,88.532608 24.483498,90.498734 
	C24.095184,95.568291 20.810139,99.287529 17.888872,102.910393 
	C14.613611,106.972282 14.537872,110.865746 15.942432,115.517380 
	C18.812223,125.021637 22.425653,134.165665 26.883795,143.058258 
	C29.469700,148.216339 33.543434,151.516006 38.031433,154.451950 
	C50.367489,162.521896 55.414471,174.250641 56.075626,188.496490 
	C56.231426,191.853531 57.333332,195.166672 58.000000,198.500000 
"/>
<path fill="none" opacity="1.000000" stroke="#000000" stroke-linecap="round" stroke-linejoin="round" stroke-width="2.000000"
	d="
M182.500000,106.500000 
	C179.950180,107.623177 177.842270,109.445328 174.436234,108.170341 
	C171.572189,107.098251 167.875977,110.700333 166.479919,114.492607 
	C159.356735,133.841949 152.169998,153.167908 144.976929,172.491409 
	C144.827362,172.893158 144.333328,173.166656 144.000000,173.500000 
"/>
<path fill="none" opacity="1.000000" stroke="#000000" stroke-linecap="round" stroke-linejoin="round" stroke-width="3.000000"
	d="
M237.500000,60.500000 
	C233.469009,62.011719 229.384628,63.175594 224.999100,63.026550 
	C222.467667,62.940517 220.007111,63.076412 217.473709,63.921165 
	C209.232788,66.669060 200.407516,67.217133 191.983521,67.488754 
	C186.489090,67.665916 181.040176,69.659256 175.500000,68.500000 
"/>
<path fill="none" opacity="1.000000" stroke="#000000" stroke-linecap="round" stroke-linejoin="round" stroke-width="3.000000"
	d="
M237.500000,26.000000 
	C224.000336,28.247313 210.513824,30.220362 197.932159,36.360992 
	C189.832443,40.314148 180.776001,41.891953 171.982941,43.926239 
	C170.734192,44.215137 169.240753,44.424816 169.092697,45.512619 
	C168.603409,49.107433 165.599030,51.395901 164.639053,54.542423 
	C163.678665,57.690239 162.063782,58.658085 159.012329,59.087593 
	C152.804428,59.961384 146.633636,61.187061 140.515610,62.569092 
	C137.922058,63.154957 135.406387,64.323410 133.040955,65.577278 
	C131.920883,66.171005 130.531158,67.202087 131.005951,68.998428 
	C131.475861,70.776268 133.080978,71.388344 134.500961,71.402245 
	C136.149521,71.418381 138.119263,72.263000 139.500000,70.500000 
"/>
<path fill="none" opacity="1.000000" stroke="#000000" stroke-linecap="round" stroke-linejoin="round" stroke-width="2.000000"
	d="
M181.500000,130.500000 
	C177.333344,140.833328 173.160522,151.164200 169.008194,161.503296 
	C168.520279,162.718216 167.602875,163.356354 166.523407,164.037109 
	C161.636551,167.118912 156.913147,170.464951 151.975464,173.459549 
	C147.809006,175.986420 141.167999,174.263046 138.034042,169.975128 
	C136.743912,168.209946 135.415344,166.584656 133.500000,165.500000 
"/>
<path fill="none" opacity="1.000000" stroke="#000000" stroke-linecap="round" stroke-linejoin="round" stroke-width="3.000000"
	d="
M29.500000,88.500000 
	C36.447826,96.206818 37.203831,101.498840 32.499825,109.500092 
	C34.364700,111.900986 36.358959,114.237190 36.173229,117.916817 
	C50.353611,117.427986 61.176006,124.102875 71.000000,133.000000 
"/>
<path fill="none" opacity="1.000000" stroke="#000000" stroke-linecap="round" stroke-linejoin="round" stroke-width="2.000000"
	d="
M138.500000,72.000000 
	C134.278320,77.837814 133.099289,84.861038 131.047012,91.514503 
	C128.031265,101.291573 125.327919,111.165123 122.516953,121.004845 
	C122.384895,121.467117 122.500000,122.000000 122.500000,122.500000 
"/>
<path fill="none" opacity="1.000000" stroke="#000000" stroke-linecap="round" stroke-linejoin="round" stroke-width="3.000000"
	d="
M240.500000,40.000000 
	C231.692032,43.314785 222.011963,43.111652 213.357056,47.732243 
	C208.133911,50.520729 201.495987,50.648987 195.502487,52.010952 
	C193.741501,52.411118 191.882950,52.624054 190.500000,54.000000 
"/>
<path fill="none" opacity="1.000000" stroke="#000000" stroke-linecap="round" stroke-linejoin="round" stroke-width="2.000000"
	d="
M187.500000,117.500000 
	C190.554718,109.354019 193.609436,101.208031 196.579895,93.286751 
	C192.847672,86.364250 184.638428,83.146179 182.357880,74.565849 
	C175.929153,76.678825 169.209976,75.373650 164.688080,69.846130 
	C161.184921,65.563896 157.469391,66.293022 153.518600,67.091980 
	C149.169006,67.971596 144.287689,66.635574 140.500000,70.000000 
"/>
<path fill="none" opacity="1.000000" stroke="#000000" stroke-linecap="round" stroke-linejoin="round" stroke-width="3.000000"
	d="
M81.000000,83.500000 
	C77.485474,90.140038 71.007507,91.347099 64.500000,92.500000 
"/>
<path fill="none" opacity="1.000000" stroke="#000000" stroke-linecap="round" stroke-linejoin="round" stroke-width="3.000000"
	d="
M72.000000,78.500000 
	C68.575829,86.701378 67.239769,87.673058 61.000000,86.500000 
"/>
<path fill="none" opacity="1.000000" stroke="#000000" stroke-linecap="round" stroke-linejoin="round" stroke-width="3.000000"
	d="
M62.000000,76.500000 
	C62.063919,81.501457 63.124836,86.908424 56.519852,89.060913 
	C55.871456,89.272224 55.030491,90.366875 55.075333,90.994621 
	C55.393494,95.448792 54.204788,99.686852 53.585514,104.012245 
	C53.427029,105.119209 54.879135,104.150116 55.500000,104.500000 
"/>
<path fill="none" opacity="1.000000" stroke="#000000" stroke-linecap="round" stroke-linejoin="round" stroke-width="3.000000"
	d="
M69.000000,93.000000 
	C68.686394,97.160789 66.915024,101.263268 68.589912,105.321053 
	C67.870834,106.722916 65.807159,105.794075 65.500000,107.500000 
"/>
<path fill="none" opacity="1.000000" stroke="#000000" stroke-linecap="round" stroke-linejoin="round" stroke-width="3.000000"
	d="
M167.500000,51.500000 
	C169.632523,53.588917 171.464600,56.325588 174.522827,56.872257 
	C176.382919,57.204750 178.642044,57.873447 180.488998,56.485359 
	C183.212341,54.438602 186.349930,54.491344 189.500000,54.500000 
"/>
<path fill="none" opacity="1.000000" stroke="#000000" stroke-linecap="round" stroke-linejoin="round" stroke-width="3.000000"
	d="
M55.000000,89.500000 
	C52.152889,87.625336 50.836079,90.470634 49.024162,91.540909 
	C46.575138,92.987511 45.093643,96.217247 41.500000,95.500000 
"/>
<path fill="none" opacity="1.000000" stroke="#000000" stroke-linecap="round" stroke-linejoin="round" stroke-width="3.000000"
	d="
M44.000000,96.000000 
	C44.156918,100.763161 44.191967,105.482445 39.500000,108.500000 
"/>
<path fill="none" opacity="1.000000" stroke="#000000" stroke-linecap="round" stroke-linejoin="round" stroke-width="3.000000"
	d="
M179.000000,58.000000 
	C177.607285,62.699657 181.567398,64.425514 184.000000,67.000000 
"/>
<path fill="none" opacity="1.000000" stroke="#000000" stroke-linecap="round" stroke-linejoin="round" stroke-width="2.000000"
	d="
M215.000000,30.000000 
	C215.196884,32.236618 216.862350,34.134331 216.500000,36.500000 
"/>
<path fill="none" opacity="1.000000" stroke="#000000" stroke-linecap="round" stroke-linejoin="round" stroke-width="2.000000"
	d="
M186.500000,68.000000 
	C185.666672,69.666664 184.833328,71.333336 184.000000,73.000000 
"/>
<path fill="none" opacity="1.000000" stroke="#000000" stroke-linecap="round" stroke-linejoin="round" stroke-width="2.000000"
	d="
M189.999985,40.000000 
	C190.166656,41.500000 190.333328,43.000000 190.499985,44.500000 
"/>
<path fill="none" opacity="1.000000" stroke="#000000" stroke-linecap="round" stroke-linejoin="round" stroke-width="2.000000"
	d="
M103.500000,88.500000 
	C101.562050,90.457436 97.674606,88.216003 96.392120,91.963081 
	C95.996346,93.119453 96.910309,92.974342 97.000000,93.500000 
"/>
<path fill="none" opacity="1.000000" stroke="#000000" stroke-linecap="round" stroke-linejoin="round" stroke-width="2.000000"
	d="
M164.000000,58.500000 
	C167.002991,61.725842 166.855667,64.581055 163.000000,67.000000 
"/>
<path fill="none" opacity="1.000000" stroke="#000000" stroke-linecap="round" stroke-linejoin="round" stroke-width="2.000000"
	d="
M193.000000,100.499992 
	C191.500000,101.166664 190.000000,101.833328 188.500000,102.499992 
"/>
<path fill="none" opacity="1.000000" stroke="#000000" stroke-linecap="round" stroke-linejoin="round" stroke-width="2.000000"
	d="
M159.500000,67.500000 
	C158.750015,69.500000 158.750015,71.500000 159.500000,73.500000 
"/>
<path fill="none" opacity="1.000000" stroke="#000000" stroke-linecap="round" stroke-linejoin="round" stroke-width="2.000000"
	d="
M183.500000,79.499992 
	C181.833328,80.166664 180.166672,80.833328 178.500000,81.499992 
"/>
</svg>