<svg version="1.1" id="Layer_1" xmlns="http://www.w3.org/2000/svg" xmlns:xlink="http://www.w3.org/1999/xlink" x="0px" y="0px"
	 width="100%" viewBox="0 0 260 214" enable-background="new 0 0 260 214" xml:space="preserve">
<path fill="none" opacity="1.000000" stroke="#000000" stroke-linecap="round" stroke-linejoin="round" stroke-width="3.000000"
	d="
M186.500000,118.500000 
	C192.026657,118.413300 196.561737,115.362885 201.516785,113.545753 
	C204.054840,112.614990 206.840088,110.434891 209.052429,114.471268 
	C210.904877,117.851059 209.204056,119.964607 206.987518,121.986320 
	C200.593185,127.818657 192.220032,129.471512 184.133469,132.917374 
	C183.699844,141.517899 183.603302,150.576599 185.107666,159.481812 
	C186.427658,167.295578 185.070892,175.444382 188.038742,182.984756 
	C190.271133,188.656494 191.271957,194.596741 192.500000,200.500000 
"/>
<path fill="none" opacity="1.000000" stroke="#000000" stroke-linecap="round" stroke-linejoin="round" stroke-width="2.000000"
	d="
M91.000000,117.500000 
	C91.168228,118.333023 90.672409,119.216499 91.483505,120.016724 
	C96.596939,125.061546 98.495659,132.012100 102.145821,137.909744 
	C103.424248,139.975327 102.613487,141.159607 101.948769,142.474091 
	C97.641304,150.992218 90.572273,157.362411 84.479652,164.482590 
	C73.096970,177.785019 60.963017,190.336441 47.000000,201.000000 
"/>
<path fill="none" opacity="1.000000" stroke="#000000" stroke-linecap="round" stroke-linejoin="round" stroke-width="2.000000"
	d="
M103.500000,140.500000 
	C107.951363,145.260330 110.997078,150.689911 113.169479,156.941101 
	C115.423119,163.426056 121.067078,168.091583 124.436852,174.035797 
	C129.321732,182.652634 137.800400,188.209641 142.978745,196.513260 
	C143.960434,198.087418 144.666656,199.833328 145.500000,201.500000 
"/>
<path fill="none" opacity="1.000000" stroke="#000000" stroke-linecap="round" stroke-linejoin="round" stroke-width="3.000000"
	d="
M178.000000,109.500000 
	C187.837494,103.005203 197.077850,95.767761 205.511246,87.511490 
	C207.706223,85.362633 209.116562,82.920265 207.443558,80.032700 
	C205.354034,76.426208 202.481415,76.007927 199.013199,78.518234 
	C196.611252,80.256760 194.180725,82.006760 192.043930,84.046036 
	C190.003784,85.993088 187.664276,87.288330 184.996155,87.424927 
	C180.793503,87.640060 180.484283,92.590157 177.000000,93.500000 
"/>
<path fill="none" opacity="1.000000" stroke="#000000" stroke-linecap="round" stroke-linejoin="round" stroke-width="3.000000"
	d="
M123.500008,63.500000 
	C123.166672,62.500000 122.887657,61.477806 122.489815,60.504166 
	C121.293472,57.576363 118.911835,56.152649 116.037674,57.112770 
	C113.331345,58.016827 112.175629,60.417717 111.923531,63.493732 
	C111.333969,70.687393 113.567795,77.290268 115.474014,84.007378 
	C116.455345,87.465378 117.166664,91.000000 118.000000,94.500000 
"/>
<path fill="none" opacity="1.000000" stroke="#000000" stroke-linecap="round" stroke-linejoin="round" stroke-width="2.000000"
	d="
M162.500000,97.500000 
	C170.053391,85.417831 180.608963,76.003143 190.510040,66.009941 
	C192.324966,64.178131 193.623352,62.034012 192.934906,59.517807 
	C191.746597,55.174709 186.369827,53.367134 182.528046,56.040298 
	C178.056900,59.151375 174.274780,63.087635 170.500000,67.000000 
"/>
<path fill="none" opacity="1.000000" stroke="#000000" stroke-linecap="round" stroke-linejoin="round" stroke-width="3.000000"
	d="
M115.000000,109.500000 
	C114.552727,107.022255 112.261009,105.876175 110.903595,104.072556 
	C109.162376,101.758965 108.045822,99.870903 110.499306,97.499283 
	C112.783134,95.291656 115.393753,94.084320 118.489891,95.521767 
	C126.982964,99.464836 133.254974,109.931206 130.234497,120.069862 
	C128.457199,126.035606 129.236954,132.744919 126.000000,138.500000 
"/>
<path fill="none" opacity="1.000000" stroke="#000000" stroke-linecap="round" stroke-linejoin="round" stroke-width="5.000000"
	d="
M51.500000,86.000000 
	C60.783386,97.833092 67.816002,110.911552 72.933891,125.023972 
	C73.211311,125.788933 73.399841,126.466751 74.000000,127.000000 
"/>
<path fill="none" opacity="1.000000" stroke="#000000" stroke-linecap="round" stroke-linejoin="round" stroke-width="5.000000"
	d="
M50.000000,86.500000 
	C39.567142,98.128593 32.814095,111.780815 27.987379,126.495857 
	C27.921833,126.695694 27.666664,126.833328 27.499998,127.000000 
"/>
<path fill="none" opacity="1.000000" stroke="#000000" stroke-linecap="round" stroke-linejoin="round" stroke-width="3.000000"
	d="
M164.500000,115.500000 
	C162.641525,111.016396 162.341537,106.302261 161.848816,101.515564 
	C161.146759,94.695175 161.493347,87.546783 157.077194,81.444138 
	C154.864395,78.386307 156.667343,75.019417 158.599609,72.578857 
	C161.310638,69.154671 163.327988,65.484146 165.049576,61.521538 
	C166.496063,58.192173 167.113449,54.985004 163.950653,52.564487 
	C160.897156,50.227631 157.988480,51.581043 155.503036,54.003113 
	C154.152710,55.319008 152.438049,56.449215 151.565201,58.035866 
	C146.513062,67.219307 139.392319,74.833649 133.000000,83.000000 
"/>
<path fill="none" opacity="1.000000" stroke="#000000" stroke-linecap="round" stroke-linejoin="round" stroke-width="2.000000"
	d="
M116.500000,109.500000 
	C116.166664,109.500000 115.664650,109.357178 115.525475,109.521568 
	C113.640152,111.748329 112.605934,121.145332 114.008583,123.494881 
	C117.573280,129.466003 121.004143,135.536301 126.127640,140.163467 
	C125.151443,143.124054 125.615425,145.830124 125.500000,148.500000 
"/>
<path fill="none" opacity="1.000000" stroke="#000000" stroke-linecap="round" stroke-linejoin="round" stroke-width="2.000000"
	d="
M153.500000,55.000000 
	C152.755157,52.122845 150.556854,51.058140 148.018478,51.588470 
	C144.732208,52.275063 142.292282,54.537971 142.084045,58.005047 
	C141.834946,62.152702 140.757248,66.396378 142.500000,70.500000 
"/>
<path fill="none" opacity="1.000000" stroke="#000000" stroke-linecap="round" stroke-linejoin="round" stroke-width="3.000000"
	d="
M124.000000,64.500000 
	C125.441422,65.856766 125.434624,67.812851 125.964180,69.511169 
	C130.325058,83.496666 138.538834,95.785095 142.586456,109.322067 
	C144.723694,109.723694 144.934036,108.161171 144.906937,108.017570 
	C143.406662,100.070236 148.310699,93.657173 150.108109,86.527252 
	C150.814072,83.726837 152.686157,81.186157 156.000000,80.500000 
"/>
<path fill="none" opacity="1.000000" stroke="#000000" stroke-linecap="round" stroke-linejoin="round" stroke-width="5.000000"
	d="
M50.000000,83.500000 
	C42.167084,75.953018 35.125950,67.503761 25.440578,61.660755 
	C26.433754,58.322876 30.127256,58.938694 32.500000,57.500000 
"/>
<path fill="none" opacity="1.000000" stroke="#000000" stroke-linecap="round" stroke-linejoin="round" stroke-width="2.000000"
	d="
M112.500000,119.000000 
	C110.603210,119.460243 109.693016,118.054100 108.472801,117.032486 
	C105.813454,114.805962 102.928246,112.940697 99.506226,111.977875 
	C94.818771,110.659004 92.452515,111.785088 90.500000,116.500000 
"/>
<path fill="none" opacity="1.000000" stroke="#000000" stroke-linecap="round" stroke-linejoin="round" stroke-width="2.000000"
	d="
M126.500000,179.000000 
	C120.043571,184.667099 115.034653,191.462280 111.039772,199.021027 
	C110.645554,199.766922 110.402977,200.402969 109.500000,200.500000 
"/>
<path fill="none" opacity="1.000000" stroke="#000000" stroke-linecap="round" stroke-linejoin="round" stroke-width="5.000000"
	d="
M73.500000,63.000000 
	C65.559464,68.834763 58.394360,75.503105 52.000000,83.000000 
"/>
<path fill="none" opacity="1.000000" stroke="#000000" stroke-linecap="round" stroke-linejoin="round" stroke-width="3.000000"
	d="
M174.500000,83.500000 
	C175.500000,88.666672 176.921570,93.796593 177.376083,99.010803 
	C177.792969,103.793274 177.507584,108.710945 176.887466,113.485382 
	C176.427155,117.029533 176.604065,120.272926 178.000000,123.500000 
"/>
<path fill="none" opacity="1.000000" stroke="#000000" stroke-linecap="round" stroke-linejoin="round" stroke-width="3.000000"
	d="
M169.500000,67.500000 
	C165.143524,70.216377 162.941101,75.653664 157.500000,77.000000 
"/>
<path fill="none" opacity="1.000000" stroke="#000000" stroke-linecap="round" stroke-linejoin="round" stroke-width="3.000000"
	d="
M185.500000,105.500000 
	C186.428818,106.180908 186.138641,107.243744 185.952423,107.988098 
	C184.142883,115.221306 186.309158,122.887207 183.540436,130.015701 
	C183.393539,130.393921 183.833328,131.000000 184.000000,131.500000 
"/>
<path fill="none" opacity="1.000000" stroke="#000000" stroke-linecap="round" stroke-linejoin="round" stroke-width="2.000000"
	d="
M100.500000,118.500000 
	C98.173744,112.797951 93.893715,116.864761 90.500000,116.500000 
"/>
<path fill="none" opacity="1.000000" stroke="#000000" stroke-linecap="round" stroke-linejoin="round" stroke-width="3.000000"
	d="
M68.500000,58.000000 
	C71.166771,58.809296 73.677139,59.953751 76.000000,61.500000 
"/>
<path fill="none" opacity="1.000000" stroke="#000000" stroke-linecap="round" stroke-linejoin="round" stroke-width="3.000000"
	d="
M25.500000,62.500000 
	C24.504702,64.738770 24.196465,67.075684 24.500000,69.500000 
"/>
<path fill="none" opacity="1.000000" stroke="#000000" stroke-linecap="round" stroke-linejoin="round" stroke-width="2.000000"
	d="
M159.500000,90.000000 
	C157.573547,91.049225 155.494415,90.266380 153.500000,90.500000 
"/>
<path fill="none" opacity="1.000000" stroke="#000000" stroke-linecap="round" stroke-linejoin="round" stroke-width="2.000000"
	d="
M177.000000,100.500000 
	C175.833328,100.500000 174.666672,100.500000 173.500000,100.500000 
"/>
</svg>