<svg version="1.1" id="Layer_1" xmlns="http://www.w3.org/2000/svg" xmlns:xlink="http://www.w3.org/1999/xlink" x="0px" y="0px"
	 width="100%" viewBox="0 0 268 207" enable-background="new 0 0 268 207" xml:space="preserve">
<path fill="none" opacity="1.000000" stroke="#000000" stroke-linecap="round" stroke-linejoin="round" stroke-width="3.000000"
	d="
M65.500000,49.500000 
	C58.106190,54.972176 53.898258,61.974724 53.886578,71.499863 
	C53.881062,76.000671 53.182034,80.656891 51.871796,84.960976 
	C50.167912,90.558167 51.201107,95.968140 51.446850,101.502357 
	C51.862625,110.865791 53.816849,120.359001 49.982651,129.492722 
	C48.143490,133.873917 44.998772,137.359528 42.069973,141.055450 
	C30.880911,155.175201 19.714781,169.308792 8.000000,183.000000 
"/>
<path fill="none" opacity="1.000000" stroke="#000000" stroke-linecap="round" stroke-linejoin="round" stroke-width="3.000000"
	d="
M190.000000,201.000000 
	C182.525055,190.394028 176.777847,178.981461 175.082001,165.989304 
	C174.040146,158.007477 169.655899,151.176208 168.078247,143.483948 
	C165.847946,132.609665 158.443375,125.225777 151.440826,117.554008 
	C149.548294,115.480598 148.769379,112.230621 145.500000,111.500000 
"/>
<path fill="none" opacity="1.000000" stroke="#000000" stroke-linecap="round" stroke-linejoin="round" stroke-width="3.000000"
	d="
M143.500000,34.000000 
	C141.295807,25.499153 134.316330,24.257698 127.152573,30.184422 
	C115.258057,40.025005 102.892715,49.388321 92.417381,60.924980 
	C85.930847,68.068710 78.635933,74.478424 70.884666,82.014076 
	C71.459274,73.524750 72.299889,66.227982 74.347069,58.956944 
	C75.545547,54.700260 76.861092,50.368462 75.253960,45.417561 
	C73.943336,41.380085 72.415474,38.496010 68.159943,37.225666 
	C64.089989,40.483948 62.832222,45.135391 63.500000,50.500000 
"/>
<path fill="none" opacity="1.000000" stroke="#000000" stroke-linecap="round" stroke-linejoin="round" stroke-width="3.000000"
	d="
M118.500000,81.500000 
	C123.719757,79.053093 126.499535,73.948532 129.783844,69.827728 
	C137.360458,60.321404 146.084915,52.104004 155.009323,44.010288 
	C159.863297,39.608124 160.307938,37.546772 157.000000,33.500000 
	C153.896194,29.702948 149.648575,29.232431 145.550537,33.054192 
	C131.578125,46.084599 116.945282,58.490852 105.483009,73.987427 
	C105.285446,74.254524 104.833336,74.333344 104.500000,74.500008 
"/>
<path fill="none" opacity="1.000000" stroke="#000000" stroke-linecap="round" stroke-linejoin="round" stroke-width="3.000000"
	d="
M86.000000,136.000000 
	C88.542297,138.771805 86.859207,142.374359 87.682983,145.581436 
	C88.743851,149.711533 90.760132,153.633560 91.088203,157.993362 
	C91.154366,158.872604 91.772224,159.546051 91.023567,160.518158 
	C80.321404,174.414383 69.788292,188.435776 60.000000,203.000000 
"/>
<path fill="none" opacity="1.000000" stroke="#000000" stroke-linecap="round" stroke-linejoin="round" stroke-width="3.000000"
	d="
M92.000000,161.500000 
	C94.004196,163.221527 92.600395,165.510651 92.997566,167.500488 
	C93.829811,171.670105 94.808884,175.519882 98.430077,178.582672 
	C107.478439,186.235733 115.718399,194.862701 126.000000,201.000000 
"/>
<path fill="none" opacity="1.000000" stroke="#000000" stroke-linecap="round" stroke-linejoin="round" stroke-width="5.000000"
	d="
M61.500000,120.500000 
	C62.178467,125.674095 61.719608,131.174881 66.478073,135.027084 
	C70.728134,138.467697 80.810112,138.361038 84.443901,134.447906 
	C85.318451,133.506119 85.692703,132.023682 85.530746,130.496735 
	C85.028969,125.765869 87.435059,123.421494 92.000000,123.000000 
"/>
<path fill="none" opacity="1.000000" stroke="#000000" stroke-linecap="round" stroke-linejoin="round" stroke-width="2.000000"
	d="
M107.500000,87.500000 
	C109.051750,90.849312 111.788284,93.083206 115.022667,94.446213 
	C123.945122,98.206245 128.062622,105.943771 132.061340,113.969437 
	C133.763443,117.385666 134.652435,121.483429 138.500000,123.500000 
"/>
<path fill="none" opacity="1.000000" stroke="#000000" stroke-linecap="round" stroke-linejoin="round" stroke-width="3.000000"
	d="
M119.000000,132.500000 
	C117.166397,125.943001 113.136581,120.500816 109.368973,115.091255 
	C104.930603,108.718620 100.999725,101.704536 93.995995,97.506691 
	C91.848000,96.219238 90.036781,93.110329 87.005356,96.005608 
	C84.082787,98.796898 83.071465,102.158066 84.525383,105.990372 
	C85.982521,109.831200 88.130440,113.457718 90.189064,116.886482 
	C97.810341,129.580139 101.047935,143.854324 105.881996,157.541672 
	C106.673767,159.783508 106.326569,162.632431 105.000000,165.000000 
"/>
<path fill="none" opacity="1.000000" stroke="#000000" stroke-linecap="round" stroke-linejoin="round" stroke-width="2.000000"
	d="
M156.000000,62.500000 
	C161.018539,65.651474 161.697937,67.838150 159.514282,73.006035 
	C156.652405,79.779007 151.357162,84.901352 147.426895,90.952515 
	C144.987457,94.708351 141.833328,98.000000 139.000000,101.500000 
"/>
<path fill="none" opacity="1.000000" stroke="#000000" stroke-linecap="round" stroke-linejoin="round" stroke-width="2.000000"
	d="
M230.500000,78.500000 
	C231.666672,74.500000 232.853806,70.505829 233.994431,66.498413 
	C235.214203,62.212906 236.205200,57.830158 240.049194,54.737373 
	C236.414993,51.486607 233.992203,53.770931 231.500000,55.500000 
"/>
<path fill="none" opacity="1.000000" stroke="#000000" stroke-linecap="round" stroke-linejoin="round" stroke-width="3.000000"
	d="
M159.500000,41.000000 
	C166.461868,45.317486 166.892685,49.083366 161.525879,55.023388 
	C150.692505,67.013863 138.837189,78.050140 128.488113,90.490112 
	C127.980461,91.100319 127.265343,91.549339 127.500000,92.500000 
"/>
<path fill="none" opacity="1.000000" stroke="#000000" stroke-linecap="round" stroke-linejoin="round" stroke-width="2.000000"
	d="
M226.500000,85.500000 
	C225.348312,88.500000 225.926636,91.556801 226.552979,94.488686 
	C228.055862,101.523674 229.833344,108.500000 231.500000,115.500000 
"/>
<path fill="none" opacity="1.000000" stroke="#000000" stroke-linecap="round" stroke-linejoin="round" stroke-width="2.000000"
	d="
M202.500000,95.500000 
	C205.796341,90.084335 209.793365,85.258087 214.484283,80.982758 
	C216.662994,78.997078 218.673355,76.826691 220.982880,74.517166 
	C218.564362,72.184204 220.830185,68.150154 217.475906,66.550522 
	C214.333862,65.052094 211.471848,62.603157 207.491470,63.460373 
	C203.842499,64.246216 199.983505,65.045738 197.135269,67.180489 
	C194.553619,69.115440 191.785873,70.176651 189.034027,71.567329 
	C181.786911,75.229744 177.483719,81.754761 173.500000,88.500000 
"/>
<path fill="none" opacity="1.000000" stroke="#000000" stroke-linecap="round" stroke-linejoin="round" stroke-width="2.000000"
	d="
M213.500000,36.500000 
	C218.580246,44.727444 221.079620,54.170296 225.794342,62.614822 
	C227.155289,65.052399 225.781845,68.758728 222.500000,70.500000 
"/>
<path fill="none" opacity="1.000000" stroke="#000000" stroke-linecap="round" stroke-linejoin="round" stroke-width="2.000000"
	d="
M194.000000,44.500000 
	C190.352875,45.599258 189.620987,47.250347 191.007339,51.497604 
	C192.642715,56.507812 194.333328,61.500000 196.000000,66.500000 
"/>
<path fill="none" opacity="1.000000" stroke="#000000" stroke-linecap="round" stroke-linejoin="round" stroke-width="2.000000"
	d="
M202.500000,32.500000 
	C199.872131,31.897995 198.609024,33.570591 197.485748,35.559074 
	C201.375351,42.931007 205.009140,50.467041 207.500000,58.500000 
"/>
<path fill="none" opacity="1.000000" stroke="#000000" stroke-linecap="round" stroke-linejoin="round" stroke-width="3.000000"
	d="
M149.000000,121.000000 
	C146.995773,117.935028 145.959778,114.520004 144.687546,111.116806 
	C142.418106,105.046112 137.999283,99.822617 132.466873,96.048569 
	C127.963196,92.976311 123.282280,90.113800 118.460732,87.574562 
	C115.053421,85.780128 111.472145,84.230370 107.334473,86.725502 
	C106.683815,87.117874 103.914291,87.366386 101.986725,87.272491 
	C90.372826,86.706718 78.836899,87.297935 71.000000,98.000000 
"/>
<path fill="none" opacity="1.000000" stroke="#000000" stroke-linecap="round" stroke-linejoin="round" stroke-width="2.000000"
	d="
M206.500000,37.500000 
	C209.166656,44.166668 211.833328,50.833336 214.500000,57.500000 
"/>
<path fill="none" opacity="1.000000" stroke="#000000" stroke-linecap="round" stroke-linejoin="round" stroke-width="2.000000"
	d="
M197.000000,35.500000 
	C192.381653,35.136810 192.933365,38.809177 193.645065,40.951817 
	C195.738266,47.253605 198.447678,53.355766 201.069580,59.470161 
	C201.379379,60.192635 201.399307,60.816841 201.500000,61.500000 
"/>
<path fill="none" opacity="1.000000" stroke="#000000" stroke-linecap="round" stroke-linejoin="round" stroke-width="2.000000"
	d="
M208.500000,96.500000 
	C206.764236,101.821655 202.380264,103.502029 197.500000,104.500000 
"/>
<path fill="none" opacity="1.000000" stroke="#000000" stroke-linecap="round" stroke-linejoin="round" stroke-width="2.000000"
	d="
M206.000000,102.500000 
	C207.491104,105.158432 207.433029,108.075058 207.555695,110.997665 
	C207.604599,112.162979 206.664581,113.762497 208.500000,114.500000 
"/>
<path fill="none" opacity="1.000000" stroke="#000000" stroke-linecap="round" stroke-linejoin="round" stroke-width="3.000000"
	d="
M66.000000,92.500000 
	C67.166664,95.000000 68.333336,97.500000 69.500000,100.000000 
"/>
<path fill="none" opacity="1.000000" stroke="#000000" stroke-linecap="round" stroke-linejoin="round" stroke-width="2.000000"
	d="
M213.000000,65.500000 
	C209.771286,67.545441 205.397141,66.584160 202.500000,69.500000 
"/>
<path fill="none" opacity="1.000000" stroke="#000000" stroke-linecap="round" stroke-linejoin="round" stroke-width="3.000000"
	d="
M91.500000,89.000000 
	C91.166664,90.833336 90.833336,92.666664 90.500000,94.500000 
"/>
<path fill="none" opacity="1.000000" stroke="#000000" stroke-linecap="round" stroke-linejoin="round" stroke-width="2.000000"
	d="
M92.000000,97.500000 
	C91.161789,98.982918 89.731720,98.394348 88.500000,98.500000 
"/>
<path fill="none" opacity="1.000000" stroke="#000000" stroke-linecap="round" stroke-linejoin="round" stroke-width="2.000000"
	d="
M214.500000,82.000000 
	C216.968658,83.025482 215.329727,84.963760 215.500000,86.500000 
"/>
</svg>