<svg version="1.1" id="Layer_1" xmlns="http://www.w3.org/2000/svg" xmlns:xlink="http://www.w3.org/1999/xlink" x="0px" y="0px"
	 width="100%" viewBox="0 0 250 212" enable-background="new 0 0 250 212" xml:space="preserve">
<path fill="none" opacity="1.000000" stroke="#000000" stroke-linecap="round" stroke-linejoin="round" stroke-width="3.000000"
	d="
M184.500000,115.500000 
	C187.740311,113.800629 189.076828,111.339706 190.336304,107.613678 
	C192.725800,100.544540 191.608200,93.492889 192.436111,86.492447 
	C193.059052,81.225197 195.759308,77.286186 199.550049,74.058792 
	C202.320602,71.700005 205.033539,72.863541 206.513184,76.494629 
	C207.383774,78.631012 207.370941,80.963646 206.883972,82.971863 
	C205.973511,86.726585 207.173157,90.004410 207.852524,93.528435 
	C208.337067,96.041885 208.227997,98.807846 207.569458,101.516884 
	C206.176422,107.247406 204.779663,113.041939 205.047592,118.997856 
	C205.230576,123.066154 204.050400,126.720642 201.943115,129.963028 
	C197.841141,136.274506 194.731934,143.081329 192.110703,150.041687 
	C189.475128,157.040192 190.552795,164.346039 193.609985,170.949081 
	C197.488602,179.326279 202.166656,187.333344 206.500000,195.500000 
"/>
<path fill="none" opacity="1.000000" stroke="#000000" stroke-linecap="round" stroke-linejoin="round" stroke-width="3.000000"
	d="
M31.500000,82.500000 
	C35.153305,83.147362 36.801212,80.615501 37.940521,77.974342 
	C40.145824,72.861961 42.869633,68.110115 45.811077,63.382458 
	C47.357906,60.896301 49.614330,57.424744 46.977261,54.017601 
	C45.447315,52.040890 43.305218,51.267876 41.026878,52.547844 
	C39.064003,53.650589 36.874657,54.824970 35.581570,56.560764 
	C30.694145,63.121429 26.091022,69.892174 21.943083,76.966629 
	C21.052855,78.484947 21.271967,79.986092 20.940144,81.486763 
	C20.486616,83.537842 20.592581,85.976479 17.513632,86.570641 
	C14.763177,87.101418 14.376678,90.109474 14.177621,92.018524 
	C13.786148,95.772903 12.012584,98.630760 9.989301,101.492432 
	C7.750915,104.658340 6.901413,108.055672 6.895216,111.999832 
	C6.885269,118.330231 7.648982,124.678825 6.109089,131.026459 
	C5.135167,135.041092 6.998518,138.565521 9.974400,141.525742 
	C14.736676,146.262939 19.152599,151.359818 24.052042,155.944382 
	C28.728477,160.320267 29.713892,165.749359 28.904263,171.486496 
	C27.773617,179.498413 25.544384,187.305664 23.000000,195.000000 
"/>
<path fill="none" opacity="1.000000" stroke="#000000" stroke-linecap="round" stroke-linejoin="round" stroke-width="3.000000"
	d="
M60.500000,60.500000 
	C63.262173,59.530899 65.795845,56.160732 68.925201,58.596111 
	C71.880272,60.895863 71.308899,64.252846 70.026375,67.510384 
	C67.262306,74.530968 66.887421,82.295815 63.136715,89.075630 
	C62.218964,90.734581 63.059914,93.335480 62.982471,95.499374 
	C62.910748,97.503372 63.434425,99.577637 62.492001,101.496071 
	C61.143543,104.241051 62.764835,105.278793 65.473892,106.409531 
	C65.962357,98.223297 71.276207,91.671883 71.155624,83.497704 
	C71.123894,81.346252 72.877846,79.098534 74.036797,77.020523 
	C75.051971,75.200287 77.254341,75.628967 78.442528,76.134956 
	C80.755646,77.119995 81.527184,79.570099 82.017303,81.996506 
	C82.583595,84.799957 81.545052,87.493973 80.845284,89.956024 
	C78.554420,98.016212 77.734062,106.309135 77.236717,114.514351 
	C76.867363,120.608116 78.911049,126.812042 79.450554,133.004303 
	C80.679230,147.106857 80.649529,161.025452 73.566681,174.036301 
	C70.144753,180.322220 70.485954,187.663589 68.997246,194.499405 
	C68.851089,195.170547 68.666664,195.833328 68.500000,196.500000 
"/>
<path fill="none" opacity="1.000000" stroke="#000000" stroke-linecap="round" stroke-linejoin="round" stroke-width="3.000000"
	d="
M146.000000,107.000000 
	C143.579758,98.890633 137.599670,92.548141 134.886841,84.538322 
	C134.125214,82.289558 132.367264,80.279785 130.582840,78.420494 
	C129.139603,76.916702 127.533974,76.638885 126.028656,77.094658 
	C123.853218,77.753326 122.944054,79.617249 122.967056,82.000320 
	C122.998505,85.258446 124.176506,88.299210 125.606873,90.942162 
	C131.887146,102.546547 135.547348,114.572365 135.153610,128.004501 
	C134.831161,139.005722 135.540573,150.087662 139.929535,160.529617 
	C140.233902,161.253708 140.550613,161.867355 140.977478,162.514847 
	C147.866455,172.964081 151.585739,184.774704 155.500000,196.500000 
"/>
<path fill="none" opacity="1.000000" stroke="#000000" stroke-linecap="round" stroke-linejoin="round" stroke-width="3.000000"
	d="
M192.500000,83.500000 
	C190.708679,83.298332 190.354141,81.281570 190.156403,80.462250 
	C187.146011,67.988449 177.552933,60.236603 169.392593,51.601501 
	C164.527664,46.453545 162.843552,46.850971 158.500000,51.000000 
"/>
<path fill="none" opacity="1.000000" stroke="#000000" stroke-linecap="round" stroke-linejoin="round" stroke-width="3.000000"
	d="
M144.500000,57.000000 
	C142.083435,56.001385 139.757706,55.236847 137.477478,57.477070 
	C135.207535,59.707169 134.649490,61.760162 135.868744,65.048668 
	C138.634094,72.507240 140.513092,80.247581 143.841400,87.572067 
	C146.015549,92.356667 146.652054,97.837212 148.020935,102.994446 
	C148.169724,103.554970 148.607941,104.038666 148.972763,104.661972 
	C148.370270,106.949913 145.114380,107.036270 144.500000,109.500000 
"/>
<path fill="none" opacity="1.000000" stroke="#000000" stroke-linecap="round" stroke-linejoin="round" stroke-width="3.000000"
	d="
M163.500000,99.500000 
	C158.789902,99.230301 159.784103,94.836411 159.243607,92.444939 
	C158.311066,88.318932 157.212891,84.257103 155.409058,80.544182 
	C151.815399,73.147179 149.850204,65.078362 145.623810,57.926830 
	C144.326370,55.731430 144.579727,52.648472 143.976654,50.005329 
	C143.419540,47.563580 144.890625,45.654472 146.554443,45.198753 
	C148.297974,44.721203 150.712830,44.057198 152.515869,45.985165 
	C155.021835,48.664787 157.767548,51.050713 158.568024,54.986164 
	C159.264465,58.410130 160.941910,61.476601 163.490494,64.009560 
	C167.512131,68.006500 169.529739,73.314156 172.527237,77.982506 
	C174.618896,81.240051 173.676453,85.072960 174.825348,88.557587 
	C175.543518,90.735794 177.217010,92.905876 176.500000,95.500000 
"/>
<path fill="none" opacity="1.000000" stroke="#000000" stroke-linecap="round" stroke-linejoin="round" stroke-width="3.000000"
	d="
M20.500000,85.500000 
	C27.424606,91.958382 25.632629,99.243210 23.127741,107.041031 
	C20.899361,113.978096 21.036121,121.109413 25.500000,127.500000 
"/>
<path fill="none" opacity="1.000000" stroke="#000000" stroke-linecap="round" stroke-linejoin="round" stroke-width="3.000000"
	d="
M47.500004,54.500000 
	C49.166668,52.333336 50.857273,50.184559 52.493507,47.995148 
	C54.255310,45.637722 56.465412,45.411427 59.000221,46.499489 
	C62.058479,47.812229 62.044975,50.552982 61.430157,52.982323 
	C59.137638,62.040798 56.223560,70.957016 52.314476,79.414246 
	C50.825554,82.635506 50.288635,85.645569 49.920929,88.991310 
	C49.529655,92.551506 50.311596,96.471016 47.500000,99.500000 
"/>
<path fill="none" opacity="1.000000" stroke="#000000" stroke-linecap="round" stroke-linejoin="round" stroke-width="3.000000"
	d="
M35.500000,82.500000 
	C37.022629,86.815147 35.111553,90.913658 34.320320,94.964905 
	C33.805637,97.600159 34.757397,98.478195 36.500000,99.500000 
"/>
<path fill="none" opacity="1.000000" stroke="#000000" stroke-linecap="round" stroke-linejoin="round" stroke-width="2.000000"
	d="
M177.500000,80.500000 
	C176.333328,80.500000 175.166672,80.500000 174.000000,80.500000 
"/>
</svg>