<svg version="1.1" id="Layer_1" xmlns="http://www.w3.org/2000/svg" xmlns:xlink="http://www.w3.org/1999/xlink" x="0px" y="0px"
	 width="100%" viewBox="0 0 280 215" enable-background="new 0 0 280 215" xml:space="preserve">
<path fill="none" opacity="1.000000" stroke="#000000" stroke-linecap="round" stroke-linejoin="round" stroke-width="3.000000"
	d="
M257.500000,149.500000 
	C239.716461,142.473480 221.536789,136.617096 202.965027,132.145279 
	C196.903458,130.685745 191.555588,134.152985 187.033066,138.038483 
	C178.918777,145.009796 170.421463,151.579559 160.909515,156.318359 
	C152.168640,160.673035 142.669769,163.508163 133.498062,166.994904 
	C130.837952,168.006165 128.523941,166.925919 127.079636,164.942032 
	C125.077255,162.191544 122.156670,160.509995 120.000000,158.000000 
"/>
<path fill="none" opacity="1.000000" stroke="#000000" stroke-linecap="round" stroke-linejoin="round" stroke-width="3.000000"
	d="
M111.500000,94.500000 
	C112.543800,93.646187 111.947617,92.490921 111.968132,91.499344 
	C112.084557,85.872139 113.657661,83.556366 119.006424,83.070747 
	C128.988037,82.164543 138.791916,80.495026 148.516495,78.066040 
	C155.043823,76.435646 156.866196,71.679153 152.435822,66.423866 
	C146.564178,69.041542 140.225891,69.194992 134.010162,68.827850 
	C130.873444,68.642570 127.695915,67.963608 124.500275,68.016708 
	C118.078690,68.123390 111.789803,67.246292 105.486534,66.072319 
	C100.928360,65.223373 96.768349,66.513557 92.960152,69.448296 
	C86.838348,74.165970 80.317505,78.274963 73.591377,82.158279 
	C67.379120,85.744911 60.662769,87.271408 53.982857,87.770638 
	C43.911259,88.523346 34.345295,91.404320 24.512627,93.074341 
	C19.108721,93.992157 13.833334,95.666672 8.500001,97.000000 
"/>
<path fill="none" opacity="1.000000" stroke="#000000" stroke-linecap="round" stroke-linejoin="round" stroke-width="3.000000"
	d="
M257.500000,98.500000 
	C242.531937,96.021744 228.492203,90.531136 214.532547,84.919037 
	C207.231873,81.984001 199.410324,82.129303 191.984299,80.056259 
	C181.876877,77.234711 171.627213,75.356567 160.992889,75.845329 
	C158.306442,75.968796 155.783096,78.196281 153.000000,76.500000 
"/>
<path fill="none" opacity="1.000000" stroke="#000000" stroke-linecap="round" stroke-linejoin="round" stroke-width="3.000000"
	d="
M99.000000,144.000000 
	C83.756371,144.227875 69.264328,141.487885 55.961834,133.564072 
	C53.280743,131.967056 49.924072,132.757782 47.012302,133.103592 
	C37.357811,134.250214 27.632816,135.264435 18.502012,139.004913 
	C15.322686,140.307343 12.166668,141.666672 9.000001,143.000000 
"/>
<path fill="none" opacity="1.000000" stroke="#000000" stroke-linecap="round" stroke-linejoin="round" stroke-width="5.000000"
	d="
M166.500000,81.500000 
	C171.434631,91.257172 175.458771,101.353935 174.896500,112.494774 
	C174.557129,119.219276 173.781372,126.042229 170.000000,132.000000 
"/>
<path fill="none" opacity="1.000000" stroke="#000000" stroke-linecap="round" stroke-linejoin="round" stroke-width="5.000000"
	d="
M82.500000,89.000000 
	C75.378334,104.927689 76.206131,120.422958 84.975983,135.513962 
	C85.494560,136.406311 85.666664,137.500000 86.000000,138.500000 
"/>
<path fill="none" opacity="1.000000" stroke="#000000" stroke-linecap="round" stroke-linejoin="round" stroke-width="3.000000"
	d="
M126.500000,133.000000 
	C118.977013,132.844803 111.547272,131.290894 103.447998,132.255951 
	C102.695663,134.844925 100.162300,137.506165 99.875191,141.491013 
	C99.318161,149.221970 102.021500,152.041275 109.051834,153.791840 
	C112.422241,154.631088 115.627510,155.585587 118.750000,157.000000 
"/>
<path fill="none" opacity="1.000000" stroke="#000000" stroke-linecap="round" stroke-linejoin="round" stroke-width="3.000000"
	d="
M102.500000,131.000000 
	C96.145584,127.173584 94.537613,120.200966 98.436539,114.456924 
	C99.526588,112.851021 100.716156,111.600960 102.484047,112.061264 
	C111.055229,114.292953 119.784592,113.966980 128.500000,114.000000 
"/>
<path fill="none" opacity="1.000000" stroke="#000000" stroke-linecap="round" stroke-linejoin="round" stroke-width="3.000000"
	d="
M131.500000,96.000000 
	C125.014290,95.387962 118.521866,96.795486 111.960922,95.156433 
	C106.836586,93.876282 101.030327,99.890823 101.001793,105.500008 
	C100.990768,107.666618 101.000000,109.833336 101.000000,112.000000 
"/>
<path fill="none" opacity="1.000000" stroke="#000000" stroke-linecap="round" stroke-linejoin="round" stroke-width="3.000000"
	d="
M155.500000,153.000000 
	C145.483093,155.950439 135.200272,154.832153 125.000313,155.017090 
	C123.132141,155.050964 121.112518,154.452164 119.500000,156.000000 
"/>
<path fill="none" opacity="1.000000" stroke="#000000" stroke-linecap="round" stroke-linejoin="round" stroke-width="3.000000"
	d="
M85.999992,79.500000 
	C84.666664,82.333328 83.333328,85.166664 81.999992,88.000000 
"/>
<path fill="none" opacity="1.000000" stroke="#000000" stroke-linecap="round" stroke-linejoin="round" stroke-width="2.000000"
	d="
M178.500000,87.500000 
	C175.833328,87.500000 173.166672,87.500000 170.500000,87.500000 
"/>
<path fill="none" opacity="1.000000" stroke="#000000" stroke-linecap="round" stroke-linejoin="round" stroke-width="3.000000"
	d="
M81.500000,130.000000 
	C79.166664,131.377228 76.833336,129.492859 74.500000,130.000000 
"/>
<path fill="none" opacity="1.000000" stroke="#000000" stroke-linecap="round" stroke-linejoin="round" stroke-width="4.000000"
	d="
M86.500000,92.500000 
	C83.759254,87.641983 79.578094,86.625076 74.500000,88.000000 
"/>
</svg>