<svg version="1.1" id="Layer_1" xmlns="http://www.w3.org/2000/svg" xmlns:xlink="http://www.w3.org/1999/xlink" x="0px" y="0px"
	 width="100%" viewBox="0 0 269 221" enable-background="new 0 0 269 221" xml:space="preserve">
<path fill="none" opacity="1.000000" stroke="#000000" stroke-linecap="round" stroke-linejoin="round" stroke-width="3.000000"
	d="
M83.500000,85.500000 
	C77.081093,83.392738 75.534439,83.845955 73.432335,87.965469 
	C72.964783,88.881752 72.791039,89.823021 73.060715,90.474884 
	C74.926758,94.985573 74.965927,99.896439 76.235832,104.571754 
	C79.313370,115.902115 85.393425,126.650429 84.016640,139.001862 
	C83.894234,140.099960 84.290268,141.318985 82.363914,142.304016 
	C78.291908,139.675415 73.770363,137.011124 69.538734,133.946518 
	C65.992737,131.378448 62.196625,129.703613 58.035530,128.387650 
	C54.194763,127.172989 51.230392,128.807083 48.591965,130.632889 
	C46.116707,132.345779 46.266327,135.372925 48.546638,137.448761 
	C51.522808,140.158035 54.653908,142.779709 58.033554,144.947708 
	C68.297401,151.531830 76.297691,160.211426 83.683823,169.859268 
	C88.520744,176.177307 94.713905,181.921097 103.998558,180.985718 
	C105.488487,180.835602 106.901741,181.118515 107.977425,182.026733 
	C115.012535,187.966446 122.850502,193.069641 128.000000,201.000000 
"/>
<path fill="none" opacity="1.000000" stroke="#000000" stroke-linecap="round" stroke-linejoin="round" stroke-width="3.000000"
	d="
M148.000000,142.500000 
	C154.672928,140.843185 158.975266,135.458710 164.454727,131.929703 
	C168.102646,129.580276 171.594559,127.265366 175.982590,126.410629 
	C178.248322,125.969284 180.306976,125.974937 182.506409,126.471642 
	C185.526520,127.153641 186.185410,129.864929 186.856613,132.044159 
	C187.522308,134.205521 185.356293,135.023483 183.547867,136.081802 
	C171.540970,143.108475 160.778366,151.640594 152.560638,163.101974 
	C160.699265,176.196625 166.465485,190.984100 178.000000,202.000000 
"/>
<path fill="none" opacity="1.000000" stroke="#000000" stroke-linecap="round" stroke-linejoin="round" stroke-width="3.000000"
	d="
M124.000000,76.500000 
	C122.222084,70.283638 122.624352,63.832035 122.112343,57.490929 
	C121.899330,54.852848 121.333855,52.420631 120.477745,50.007896 
	C119.571701,47.454445 117.518417,46.378925 115.018616,47.067577 
	C112.470161,47.769634 111.576828,49.376499 111.282356,52.479347 
	C110.554337,60.150829 112.146645,67.940720 110.000000,75.500000 
"/>
<path fill="none" opacity="1.000000" stroke="#000000" stroke-linecap="round" stroke-linejoin="round" stroke-width="5.000000"
	d="
M25.000000,51.500000 
	C25.323215,73.807877 31.354593,94.291016 44.500000,112.500000 
"/>
<path fill="none" opacity="1.000000" stroke="#000000" stroke-linecap="round" stroke-linejoin="round" stroke-width="3.000000"
	d="
M95.000000,74.000000 
	C93.088852,70.041786 93.509827,65.498169 91.628738,61.440319 
	C90.363144,58.710213 89.118965,56.987621 86.003029,57.517803 
	C82.899162,58.045933 82.873032,60.372448 82.360512,62.972504 
	C81.348907,68.104393 82.941856,72.749596 84.051384,77.487968 
	C85.289497,82.775513 83.947754,88.455338 86.512863,93.493454 
	C90.744682,101.805138 95.058411,110.075127 99.378906,118.442642 
	C103.019775,117.022339 102.704826,115.020226 102.051865,112.486633 
	C99.051842,100.846161 99.250496,88.680458 96.430931,77.016701 
	C95.476471,73.068390 97.695572,71.389442 100.533844,70.625801 
	C103.352791,69.867340 106.658913,70.554489 107.813789,73.571281 
	C108.407425,75.122009 109.815384,76.500717 109.542488,78.505783 
	C108.993912,82.536377 110.484909,85.995895 112.384094,89.561729 
	C114.556183,93.639961 114.611031,98.490021 114.849243,103.007950 
	C115.096420,107.695892 116.594444,111.527084 119.420685,115.031357 
	C121.460876,114.214493 120.998970,112.499771 120.990639,111.000053 
	C120.953651,104.337074 121.506989,97.846207 123.859634,91.448387 
	C125.157509,87.918938 123.047684,83.692551 125.000000,80.000000 
"/>
<path fill="none" opacity="1.000000" stroke="#000000" stroke-linecap="round" stroke-linejoin="round" stroke-width="2.000000"
	d="
M187.000000,47.500000 
	C185.707947,44.109219 184.571030,40.749931 184.365845,37.007355 
	C184.233871,34.600323 184.131592,31.180216 179.792389,31.515722 
	C176.850006,39.404709 180.067017,46.946770 181.690292,54.458881 
	C182.253601,57.065636 182.789246,59.268749 180.444534,60.383327 
	C177.212204,61.919834 178.328995,65.727150 178.731583,66.350395 
	C184.430344,75.172249 182.910110,84.272095 180.500000,93.500000 
"/>
<path fill="none" opacity="1.000000" stroke="#000000" stroke-linecap="round" stroke-linejoin="round" stroke-width="5.000000"
	d="
M21.500000,13.500000 
	C37.538330,25.385845 49.167835,40.736786 56.947937,59.022152 
	C58.799049,63.372761 60.000000,68.000000 61.500000,72.500000 
"/>
<path fill="none" opacity="1.000000" stroke="#000000" stroke-linecap="round" stroke-linejoin="round" stroke-width="3.000000"
	d="
M60.000000,92.500000 
	C57.433327,95.529167 59.731297,98.415474 61.142380,100.398697 
	C66.246567,107.572464 70.534630,115.256447 75.530113,122.479172 
	C78.790527,127.193230 79.992981,132.548935 80.952980,138.008270 
	C81.118553,138.949844 80.666664,140.000000 80.500000,141.000000 
"/>
<path fill="none" opacity="1.000000" stroke="#000000" stroke-linecap="round" stroke-linejoin="round" stroke-width="3.000000"
	d="
M134.000000,88.500000 
	C137.372879,80.600540 138.615814,72.052422 141.464722,63.987537 
	C142.599228,60.775871 143.854980,57.832985 147.982162,59.059982 
	C151.260651,60.034660 151.553101,63.199127 151.972748,66.004082 
	C152.355591,68.563187 151.479950,71.007507 151.056870,73.509613 
	C148.949951,85.969841 146.666351,98.402351 142.902435,110.469566 
	C141.332428,115.503044 139.006363,120.372459 135.500000,124.500000 
"/>
<path fill="none" opacity="1.000000" stroke="#000000" stroke-linecap="round" stroke-linejoin="round" stroke-width="3.000000"
	d="
M153.000000,106.500000 
	C155.445801,109.166664 153.919113,112.336769 152.837418,114.415390 
	C147.294281,125.067383 146.399887,136.495193 147.245529,147.981918 
	C147.589310,152.651764 146.034607,158.607925 151.500000,162.000000 
"/>
<path fill="none" opacity="1.000000" stroke="#000000" stroke-linecap="round" stroke-linejoin="round" stroke-width="3.000000"
	d="
M124.500000,77.750000 
	C132.112823,78.209167 131.773743,84.752861 132.749908,89.550880 
	C133.296967,92.239830 133.201172,95.260765 134.043152,97.986671 
	C135.755768,103.531235 133.866318,109.003723 133.821976,114.498566 
	C133.796524,117.655472 133.581635,120.620560 135.000000,123.500000 
"/>
<path fill="none" opacity="1.000000" stroke="#000000" stroke-linecap="round" stroke-linejoin="round" stroke-width="2.000000"
	d="
M83.000000,171.500000 
	C80.556900,182.071136 72.930428,189.957779 68.494682,199.497528 
	C67.866409,200.848709 67.166656,202.166656 66.499992,203.500000 
"/>
<path fill="none" opacity="1.000000" stroke="#000000" stroke-linecap="round" stroke-linejoin="round" stroke-width="2.000000"
	d="
M196.000000,35.500000 
	C197.511978,33.333332 195.739166,31.183794 195.914383,28.993153 
	C196.009430,27.804897 194.922104,26.990793 193.500092,26.982965 
	C192.080856,26.975155 191.781708,27.677683 191.438461,28.983829 
	C189.644943,35.808903 189.613998,42.897743 191.409409,49.386723 
	C192.204132,52.258995 190.907867,56.443237 194.911545,58.573524 
	C196.054230,51.078896 197.912033,43.684772 196.500000,36.000000 
"/>
<path fill="none" opacity="1.000000" stroke="#000000" stroke-linecap="round" stroke-linejoin="round" stroke-width="2.000000"
	d="
M213.500000,86.500000 
	C217.488083,81.755753 218.694641,75.211617 223.506104,71.006981 
	C225.088394,69.624260 224.539444,68.078453 224.207352,66.615356 
	C222.166672,65.164230 220.333328,66.633865 218.500000,66.500000 
"/>
<path fill="none" opacity="1.000000" stroke="#000000" stroke-linecap="round" stroke-linejoin="round" stroke-width="2.000000"
	d="
M212.000000,63.000000 
	C215.190720,57.754089 220.472015,53.521782 221.176727,45.688843 
	C212.017136,52.002846 209.292755,60.857101 212.204041,73.377495 
	C213.827530,71.534225 215.163773,70.017113 216.500000,68.500000 
"/>
<path fill="none" opacity="1.000000" stroke="#000000" stroke-linecap="round" stroke-linejoin="round" stroke-width="2.000000"
	d="
M172.500000,59.499996 
	C171.333328,58.999996 170.205276,58.269398 168.988983,58.065819 
	C167.808029,57.868149 166.169586,57.451756 165.560699,59.023514 
	C165.170181,60.031567 165.619614,61.035286 166.443817,62.045818 
	C169.102997,65.306152 171.675446,68.660812 173.500000,72.500000 
"/>
<path fill="none" opacity="1.000000" stroke="#000000" stroke-linecap="round" stroke-linejoin="round" stroke-width="3.000000"
	d="
M74.000000,99.500000 
	C70.269806,97.362602 69.924698,92.746483 67.014175,89.985062 
	C64.256653,87.368805 62.176781,87.806145 60.500000,91.500000 
"/>
<path fill="none" opacity="1.000000" stroke="#000000" stroke-linecap="round" stroke-linejoin="round" stroke-width="2.000000"
	d="
M198.000000,46.000000 
	C199.166672,46.000000 200.334763,46.033798 201.499344,45.984497 
	C202.014297,45.962696 202.522110,45.772511 202.840927,45.701553 
	C205.173676,41.187782 202.931564,35.240089 208.415634,31.422819 
	C212.131989,38.059498 207.795639,44.347866 208.500000,50.500000 
"/>
<path fill="none" opacity="1.000000" stroke="#000000" stroke-linecap="round" stroke-linejoin="round" stroke-width="2.000000"
	d="
M190.000000,47.500000 
	C186.794800,47.739689 186.653198,49.938625 186.429092,52.493782 
	C186.092499,56.331772 188.279816,60.258541 186.233566,64.043076 
	C183.759521,63.606251 183.830383,61.190083 182.500000,60.000000 
"/>
<path fill="none" opacity="1.000000" stroke="#000000" stroke-linecap="round" stroke-linejoin="round" stroke-width="2.000000"
	d="
M212.500000,52.000000 
	C209.108047,48.961525 206.862061,50.871590 205.605087,54.041668 
	C204.751633,56.194054 204.114151,58.441338 203.000000,60.500000 
"/>
<path fill="none" opacity="1.000000" stroke="#000000" stroke-linecap="round" stroke-linejoin="round" stroke-width="2.000000"
	d="
M202.000000,46.500000 
	C203.598389,50.394577 201.481964,54.598724 203.000000,58.500000 
"/>
<path fill="none" opacity="1.000000" stroke="#000000" stroke-linecap="round" stroke-linejoin="round" stroke-width="2.000000"
	d="
M120.500000,194.000000 
	C117.938934,196.437286 116.020035,199.327866 114.500000,202.500000 
"/>
<path fill="none" opacity="1.000000" stroke="#000000" stroke-linecap="round" stroke-linejoin="round" stroke-width="2.000000"
	d="
M120.500000,88.500000 
	C118.175034,88.783852 115.766167,87.893036 113.500000,89.000000 
"/>
<path fill="none" opacity="1.000000" stroke="#000000" stroke-linecap="round" stroke-linejoin="round" stroke-width="2.000000"
	d="
M177.500000,78.500000 
	C179.049377,80.292938 179.505737,82.980148 182.000000,84.000000 
"/>
<path fill="none" opacity="1.000000" stroke="#000000" stroke-linecap="round" stroke-linejoin="round" stroke-width="2.000000"
	d="
M185.000000,129.500000 
	C183.166672,129.500000 181.333328,129.500000 179.500000,129.500000 
"/>
<path fill="none" opacity="1.000000" stroke="#000000" stroke-linecap="round" stroke-linejoin="round" stroke-width="3.000000"
	d="
M64.500000,57.500000 
	C64.057922,59.467350 61.900791,59.934025 61.000000,61.500000 
"/>
<path fill="none" opacity="1.000000" stroke="#000000" stroke-linecap="round" stroke-linejoin="round" stroke-width="2.000000"
	d="
M55.500000,137.500000 
	C55.231792,138.820648 56.058010,140.278091 55.000000,141.500000 
"/>
<path fill="none" opacity="1.000000" stroke="#000000" stroke-linecap="round" stroke-linejoin="round" stroke-width="2.000000"
	d="
M125.000000,87.500000 
	C126.166664,87.500000 127.333336,87.500000 128.500000,87.500000 
"/>
</svg>