<svg version="1.1" id="Layer_1" xmlns="http://www.w3.org/2000/svg" xmlns:xlink="http://www.w3.org/1999/xlink" x="0px" y="0px"
	 width="100%" viewBox="0 0 1137 1081" enable-background="new 0 0 1137 1081" xml:space="preserve">
<path fill="#FFFFFF" opacity="1.000000" stroke="none" 
	d="
M616.000000,1082.000000 
	C410.689697,1082.000000 205.879379,1082.000000 1.034539,1082.000000 
	C1.034539,721.730225 1.034539,361.460388 1.034539,1.095299 
	C379.893860,1.095299 758.787720,1.095299 1137.840820,1.095299 
	C1137.840820,361.333282 1137.840820,721.666626 1137.840820,1082.000000 
	C964.126648,1082.000000 790.313293,1082.000000 616.000000,1082.000000 
M498.378204,41.874535 
	C471.611084,45.746761 445.390320,51.947712 419.674774,60.312218 
	C371.307098,76.044785 326.509796,98.840004 285.461334,128.833664 
	C260.714020,146.916275 237.791992,167.102112 216.872726,189.605728 
	C183.630035,225.366058 156.289093,265.131744 135.217697,309.106201 
	C108.135788,365.624176 92.553162,425.214691 88.715904,487.850403 
	C84.690666,553.554382 93.240715,617.506531 115.094688,679.614746 
	C129.995789,721.963135 150.409241,761.472412 176.495163,798.059265 
	C196.265549,825.788330 218.409790,851.411865 243.626572,874.299561 
	C271.079895,899.217346 300.816193,920.976746 333.231476,939.129883 
	C371.408142,960.509521 411.694244,976.459167 454.118561,986.866516 
	C498.546936,997.765442 543.671997,1002.163818 589.442261,1000.293884 
	C638.257080,998.299683 685.656372,989.275391 731.678833,972.947266 
	C773.672180,958.048584 812.857300,937.773926 849.180359,911.909790 
	C876.798157,892.244202 902.312622,870.191162 925.102539,845.120300 
	C949.913391,817.826172 971.638428,788.275574 989.720459,755.998901 
	C1006.317444,726.373169 1019.835388,695.489502 1029.909546,663.124939 
	C1046.908569,608.513611 1053.941528,552.607788 1051.239868,495.430511 
	C1048.837158,444.580231 1038.706421,395.377167 1020.772156,347.773926 
	C1006.139099,308.933105 986.828613,272.589386 962.667603,238.789703 
	C942.958557,211.217957 920.892822,185.755264 895.828674,162.961258 
	C865.775818,135.630341 832.925598,112.248917 796.990112,93.155190 
	C760.747314,73.898209 722.716675,59.508984 682.867065,49.893414 
	C655.114868,43.196922 626.970215,38.926304 598.446167,37.466038 
	C565.255493,35.766865 532.157410,36.636864 498.378204,41.874535 
z"/>
<path fill="#DD9601" opacity="1.000000" stroke="none" 
	d="
M498.816406,41.825508 
	C532.157410,36.636864 565.255493,35.766865 598.446167,37.466038 
	C626.970215,38.926304 655.114868,43.196922 682.867065,49.893414 
	C722.716675,59.508984 760.747314,73.898209 796.990112,93.155190 
	C832.925598,112.248917 865.775818,135.630341 895.828674,162.961258 
	C920.892822,185.755264 942.958557,211.217957 962.667603,238.789703 
	C986.828613,272.589386 1006.139099,308.933105 1020.772156,347.773926 
	C1038.706421,395.377167 1048.837158,444.580231 1051.239868,495.430511 
	C1053.941528,552.607788 1046.908569,608.513611 1029.909546,663.124939 
	C1019.835388,695.489502 1006.317444,726.373169 989.720459,755.998901 
	C971.638428,788.275574 949.913391,817.826172 925.102539,845.120300 
	C902.312622,870.191162 876.798157,892.244202 849.180359,911.909790 
	C812.857300,937.773926 773.672180,958.048584 731.678833,972.947266 
	C685.656372,989.275391 638.257080,998.299683 589.442261,1000.293884 
	C543.671997,1002.163818 498.546936,997.765442 454.118561,986.866516 
	C411.694244,976.459167 371.408142,960.509521 333.231476,939.129883 
	C300.816193,920.976746 271.079895,899.217346 243.626572,874.299561 
	C218.409790,851.411865 196.265549,825.788330 176.495163,798.059265 
	C150.409241,761.472412 129.995789,721.963135 115.094688,679.614746 
	C93.240715,617.506531 84.690666,553.554382 88.715904,487.850403 
	C92.553162,425.214691 108.135788,365.624176 135.217697,309.106201 
	C156.289093,265.131744 183.630035,225.366058 216.872726,189.605728 
	C237.791992,167.102112 260.714020,146.916275 285.461334,128.833664 
	C326.509796,98.840004 371.307098,76.044785 419.674774,60.312218 
	C445.390320,51.947712 471.611084,45.746761 498.816406,41.825508 
M869.007751,347.546753 
	C862.502563,337.228119 853.655090,329.182922 843.989624,321.972626 
	C822.325623,305.811615 798.314453,293.870392 773.299194,284.078918 
	C673.076111,244.849609 569.097656,225.339371 461.442352,226.116470 
	C431.568848,226.332108 401.916351,229.443558 372.915405,237.084778 
	C349.513794,243.250656 327.293243,251.991562 309.011841,268.545593 
	C281.018677,293.893738 274.529449,335.073883 293.738434,365.332458 
	C302.668976,379.400116 315.471863,389.554138 328.746979,399.158539 
	C335.044983,403.715057 341.463623,408.104858 346.951538,411.955475 
	C341.447601,422.567291 335.433167,432.401733 331.072662,442.921753 
	C320.622620,468.133179 316.538910,494.913849 315.330017,521.910400 
	C313.982697,551.998230 313.617188,582.175049 314.135498,612.290588 
	C314.894897,656.413940 316.771271,700.518921 318.375946,744.624329 
	C318.467651,747.145203 319.780823,750.252441 321.588776,751.963074 
	C327.255066,757.324707 333.028717,762.747009 339.478699,767.076050 
	C366.510406,785.218872 396.646820,792.896606 428.983154,791.636536 
	C451.360840,790.764465 472.194794,784.603760 490.897369,771.708130 
	C498.773529,766.277466 502.954681,760.202820 503.624390,749.901794 
	C506.428558,706.768738 507.059021,663.695557 503.628632,620.599670 
	C499.439606,567.972595 489.299042,516.421326 475.251099,465.591858 
	C472.287109,454.867310 469.336334,444.139160 466.166016,432.638306 
	C533.547607,441.787354 600.088318,434.993134 666.733459,428.637207 
	C662.586731,438.170990 658.343384,446.837036 654.987183,455.834015 
	C641.196167,492.803894 636.781799,531.524170 635.333130,570.549438 
	C634.227905,600.321411 634.424011,630.164490 634.848206,659.964417 
	C635.338806,694.431702 636.820312,728.883972 637.569641,763.349365 
	C637.663696,767.675171 639.319519,769.890930 642.644470,772.038330 
	C673.939575,792.251282 708.293884,800.851013 745.297974,798.691223 
	C768.639648,797.328796 790.493347,790.717407 809.978333,777.413940 
	C811.775391,776.187073 813.538696,773.767883 813.852234,771.682007 
	C818.640564,739.833862 820.462341,707.749817 820.549316,675.578003 
	C820.648499,638.902039 818.454834,602.345520 814.144775,565.909241 
	C808.697937,519.863159 800.383972,474.399445 787.184448,429.899139 
	C785.117981,422.932312 782.897156,416.011261 780.703735,408.927002 
	C789.512085,406.204773 797.975525,403.807953 806.291443,400.977539 
	C829.924927,392.933716 851.895142,382.077820 868.094788,362.234131 
	C874.143311,354.825073 874.280029,357.384796 869.007751,347.546753 
z"/>
<path fill="#FFFFFE" opacity="1.000000" stroke="none" 
	d="
M869.193420,347.861694 
	C874.280029,357.384796 874.143311,354.825073 868.094788,362.234131 
	C851.895142,382.077820 829.924927,392.933716 806.291443,400.977539 
	C797.975525,403.807953 789.512085,406.204773 780.703735,408.927002 
	C782.897156,416.011261 785.117981,422.932312 787.184448,429.899139 
	C800.383972,474.399445 808.697937,519.863159 814.144775,565.909241 
	C818.454834,602.345520 820.648499,638.902039 820.549316,675.578003 
	C820.462341,707.749817 818.640564,739.833862 813.852234,771.682007 
	C813.538696,773.767883 811.775391,776.187073 809.978333,777.413940 
	C790.493347,790.717407 768.639648,797.328796 745.297974,798.691223 
	C708.293884,800.851013 673.939575,792.251282 642.644470,772.038330 
	C639.319519,769.890930 637.663696,767.675171 637.569641,763.349365 
	C636.820312,728.883972 635.338806,694.431702 634.848206,659.964417 
	C634.424011,630.164490 634.227905,600.321411 635.333130,570.549438 
	C636.781799,531.524170 641.196167,492.803894 654.987183,455.834015 
	C658.343384,446.837036 662.586731,438.170990 666.733459,428.637207 
	C600.088318,434.993134 533.547607,441.787354 466.166016,432.638306 
	C469.336334,444.139160 472.287109,454.867310 475.251099,465.591858 
	C489.299042,516.421326 499.439606,567.972595 503.628632,620.599670 
	C507.059021,663.695557 506.428558,706.768738 503.624390,749.901794 
	C502.954681,760.202820 498.773529,766.277466 490.897369,771.708130 
	C472.194794,784.603760 451.360840,790.764465 428.983154,791.636536 
	C396.646820,792.896606 366.510406,785.218872 339.478699,767.076050 
	C333.028717,762.747009 327.255066,757.324707 321.588776,751.963074 
	C319.780823,750.252441 318.467651,747.145203 318.375946,744.624329 
	C316.771271,700.518921 314.894897,656.413940 314.135498,612.290588 
	C313.617188,582.175049 313.982697,551.998230 315.330017,521.910400 
	C316.538910,494.913849 320.622620,468.133179 331.072662,442.921753 
	C335.433167,432.401733 341.447601,422.567291 346.951538,411.955475 
	C341.463623,408.104858 335.044983,403.715057 328.746979,399.158539 
	C315.471863,389.554138 302.668976,379.400116 293.738434,365.332458 
	C274.529449,335.073883 281.018677,293.893738 309.011841,268.545593 
	C327.293243,251.991562 349.513794,243.250656 372.915405,237.084778 
	C401.916351,229.443558 431.568848,226.332108 461.442352,226.116470 
	C569.097656,225.339371 673.076111,244.849609 773.299194,284.078918 
	C798.314453,293.870392 822.325623,305.811615 843.989624,321.972626 
	C853.655090,329.182922 862.502563,337.228119 869.193420,347.861694 
z"/>
</svg>