<svg version="1.1" id="Layer_1" xmlns="http://www.w3.org/2000/svg" xmlns:xlink="http://www.w3.org/1999/xlink" x="0px" y="0px"
	 width="100%" viewBox="0 0 342 194" enable-background="new 0 0 342 194" xml:space="preserve">
<path fill="none" opacity="1.000000" stroke="#000000" stroke-linecap="round" stroke-linejoin="round" stroke-width="3.000000"
	d="
M102.500000,67.000000 
	C97.989525,68.403336 94.024231,67.055870 91.625526,61.941132 
	C88.671333,55.641953 84.486137,50.093773 81.789001,43.587467 
	C78.833069,36.456875 73.133514,31.511246 65.019371,29.902319 
	C62.653709,29.433239 60.567287,29.305786 59.069088,31.059038 
	C57.637001,32.734921 58.452740,34.790058 59.513466,36.491604 
	C65.521019,46.128529 69.767395,56.804996 72.142426,67.578827 
	C75.890526,84.581276 84.226997,99.398819 90.920029,115.034233 
	C92.411377,118.518150 91.635765,122.381981 90.496330,125.998848 
	C88.342354,132.836166 85.859711,139.587036 84.062012,146.516083 
	C79.946022,162.380814 74.421173,177.751495 68.500000,193.000000 
"/>
<path fill="none" opacity="1.000000" stroke="#000000" stroke-linecap="round" stroke-linejoin="round" stroke-width="6.000000"
	d="
M161.500015,133.500000 
	C161.333344,137.666672 160.637054,141.894867 161.112503,145.986938 
	C162.044174,154.006149 169.941147,158.533447 178.999771,156.748856 
	C189.398148,154.700378 197.169907,148.582993 203.457458,140.467041 
	C208.878403,133.469696 212.270233,125.738983 212.119888,116.498047 
	C212.000565,109.162361 205.558731,102.378433 198.488007,102.797646 
	C190.639511,103.262970 184.004639,105.428261 178.500000,111.000000 
"/>
<path fill="none" opacity="1.000000" stroke="#000000" stroke-linecap="round" stroke-linejoin="round" stroke-width="3.000000"
	d="
M156.000000,47.000000 
	C160.185089,48.987049 163.618774,52.057945 166.434418,55.552837 
	C176.226318,67.706886 188.423111,77.032555 200.975143,86.034660 
	C209.560135,92.191666 215.802780,100.701157 221.879288,109.087463 
	C231.922333,122.948006 243.474350,135.490997 254.491714,148.507004 
	C261.912628,157.274139 266.613892,167.869003 273.502228,176.998322 
	C277.156281,181.841171 280.833344,186.666672 284.500000,191.500000 
"/>
<path fill="none" opacity="1.000000" stroke="#000000" stroke-linecap="round" stroke-linejoin="round" stroke-width="3.000000"
	d="
M221.000000,193.500000 
	C217.298782,185.638504 211.887390,179.521851 203.489212,176.530289 
	C202.401230,176.142731 200.885208,175.639893 200.046921,176.087814 
	C195.537628,178.497253 190.990158,177.391113 186.507706,176.462784 
	C172.404297,173.541901 158.582336,169.999039 145.386200,163.739944 
	C137.246338,159.879150 128.520401,156.806747 119.512833,154.938126 
	C114.773529,153.954956 110.168983,152.325180 105.499428,151.002029 
	C99.482430,149.297058 98.106216,143.961929 102.490990,139.491165 
	C105.399117,136.526031 109.027100,135.799057 112.995331,135.447342 
	C123.225449,134.540619 132.506805,138.403137 141.952042,141.164062 
	C144.926010,142.033371 147.333328,142.347916 150.000000,141.000000 
"/>
<path fill="none" opacity="1.000000" stroke="#000000" stroke-linecap="round" stroke-linejoin="round" stroke-width="3.000000"
	d="
M104.000000,45.500000 
	C98.977509,49.189796 97.164223,55.205288 100.073929,60.962635 
	C103.940903,68.614098 107.761787,76.403061 112.678047,83.374435 
	C116.723175,89.110542 120.253548,95.109634 124.087616,100.942406 
	C128.199371,107.197617 133.110703,112.920845 137.471924,119.020073 
	C142.895950,126.605675 148.199463,134.287827 151.750000,143.000000 
"/>
<path fill="none" opacity="1.000000" stroke="#000000" stroke-linecap="round" stroke-linejoin="round" stroke-width="3.000000"
	d="
M167.500000,55.499996 
	C175.333328,46.166664 183.150650,36.819813 191.012344,27.510427 
	C192.761429,25.439278 194.466309,23.255934 196.542358,21.551590 
	C200.671356,18.161865 201.834457,15.704558 200.000000,12.999998 
	C197.383789,9.142898 193.495895,8.503283 188.988098,10.978326 
	C184.745560,13.307725 181.500961,16.822109 178.034912,20.037640 
	C170.407974,27.113329 163.343933,34.781677 157.161011,43.119404 
	C155.195526,45.769897 152.930298,48.405880 151.500000,51.500000 
"/>
<path fill="none" opacity="1.000000" stroke="#000000" stroke-linecap="round" stroke-linejoin="round" stroke-width="3.000000"
	d="
M121.000000,38.000000 
	C118.202782,37.678082 117.043999,35.509476 115.365891,33.619049 
	C113.763092,31.813486 111.563072,29.562006 108.513023,30.540600 
	C105.851219,31.394629 102.911568,36.485779 103.584885,39.480919 
	C104.173393,42.098801 104.158684,44.757626 107.356430,46.732475 
	C110.823196,48.873463 114.201042,52.386959 115.797852,56.087231 
	C119.894684,65.580742 127.884293,71.761490 134.053192,79.457359 
	C139.295486,85.997269 145.000000,92.166664 150.500000,98.500000 
"/>
<path fill="none" opacity="1.000000" stroke="#000000" stroke-linecap="round" stroke-linejoin="round" stroke-width="3.000000"
	d="
M181.000000,15.000000 
	C177.599823,10.734438 173.778122,11.203068 168.938156,12.814226 
	C162.855682,14.839005 158.365158,18.932146 153.572174,22.594461 
	C147.767868,27.029533 142.500000,32.166668 137.000000,37.000000 
"/>
<path fill="none" opacity="1.000000" stroke="#000000" stroke-linecap="round" stroke-linejoin="round" stroke-width="3.000000"
	d="
M181.500000,82.500000 
	C179.500000,81.000000 177.119904,79.815842 175.565674,77.945427 
	C168.766510,69.763069 160.194092,63.237141 153.924484,54.554531 
	C152.943481,53.195976 151.326340,52.202877 149.627808,51.267834 
	C146.198929,49.380238 143.057999,46.515285 140.610825,43.412594 
	C137.485626,39.450275 133.282745,37.016209 129.449982,34.064957 
	C127.643532,32.673977 125.330139,33.229958 123.524429,34.533833 
	C121.667511,35.874668 121.065468,37.638165 121.945610,40.020100 
	C123.032936,42.962780 124.335136,45.919788 126.564949,47.927879 
	C138.231155,58.434021 148.516663,70.320145 159.976929,81.024704 
	C161.949020,82.866737 164.091797,84.348892 166.500000,85.500000 
"/>
<path fill="none" opacity="1.000000" stroke="#000000" stroke-linecap="round" stroke-linejoin="round" stroke-width="3.000000"
	d="
M195.000000,48.000000 
	C201.381332,49.559502 202.803986,52.381512 200.518555,58.506924 
	C198.008881,65.233345 192.845612,70.303802 189.500000,76.500000 
"/>
<path fill="none" opacity="1.000000" stroke="#000000" stroke-linecap="round" stroke-linejoin="round" stroke-width="3.000000"
	d="
M140.500000,163.000000 
	C137.177551,173.030365 133.511139,182.964859 132.000000,193.500000 
"/>
<path fill="none" opacity="1.000000" stroke="#000000" stroke-linecap="round" stroke-linejoin="round" stroke-width="3.000000"
	d="
M199.000000,21.500000 
	C205.443146,24.262676 206.925552,28.284075 202.945831,33.962036 
	C195.407303,44.717453 188.437515,55.886669 180.016876,66.014030 
	C179.552887,66.572067 179.333328,67.333328 179.000000,68.000000 
"/>
<path fill="none" opacity="1.000000" stroke="#000000" stroke-linecap="round" stroke-linejoin="round" stroke-width="2.000000"
	d="
M114.000000,151.500000 
	C116.535110,149.108551 116.170181,145.912384 114.839958,143.591736 
	C113.170723,140.679703 109.706818,140.507446 106.502533,141.015945 
	C104.987778,141.256332 103.500000,141.666672 102.000000,142.000000 
"/>
<path fill="none" opacity="1.000000" stroke="#000000" stroke-linecap="round" stroke-linejoin="round" stroke-width="2.000000"
	d="
M106.000000,36.500000 
	C107.447807,38.590748 107.369896,41.922981 111.509109,41.627617 
	C114.845482,41.389542 116.248695,39.822483 117.000000,37.000000 
"/>
<path fill="none" opacity="1.000000" stroke="#000000" stroke-linecap="round" stroke-linejoin="round" stroke-width="2.000000"
	d="
M101.000000,50.500000 
	C104.205223,57.143787 106.862282,57.776421 111.500000,53.000000 
"/>
<path fill="none" opacity="1.000000" stroke="#000000" stroke-linecap="round" stroke-linejoin="round" stroke-width="2.000000"
	d="
M129.500000,144.500000 
	C131.792297,148.666672 131.448624,152.833328 129.500000,157.000000 
"/>
<path fill="none" opacity="1.000000" stroke="#000000" stroke-linecap="round" stroke-linejoin="round" stroke-width="8.000000"
	d="
M172.499985,102.500000 
	C173.290817,105.927406 174.081650,109.354820 174.884125,112.832687 
	C171.958572,114.922691 170.144501,118.534355 166.500000,120.000000 
"/>
<path fill="none" opacity="1.000000" stroke="#000000" stroke-linecap="round" stroke-linejoin="round" stroke-width="2.000000"
	d="
M133.500000,38.000000 
	C131.700500,44.060383 131.660919,44.088970 124.500000,44.500000 
"/>
<path fill="none" opacity="1.000000" stroke="#000000" stroke-linecap="round" stroke-linejoin="round" stroke-width="2.000000"
	d="
M127.500000,145.500000 
	C125.947174,148.831207 127.301865,152.716232 125.500000,156.000000 
"/>
<path fill="none" opacity="1.000000" stroke="#000000" stroke-linecap="round" stroke-linejoin="round" stroke-width="3.000000"
	d="
M175.500000,113.000000 
	C178.833328,114.166664 182.166672,115.333336 185.500000,116.500000 
"/>
<path fill="none" opacity="1.000000" stroke="#000000" stroke-linecap="round" stroke-linejoin="round" stroke-width="2.000000"
	d="
M162.000000,52.000000 
	C160.535553,55.939976 157.181107,54.210007 154.500000,54.500000 
"/>
</svg>