<svg version="1.1" id="Layer_1" xmlns="http://www.w3.org/2000/svg" xmlns:xlink="http://www.w3.org/1999/xlink" x="0px" y="0px"
	 width="100%" viewBox="0 0 343 200" enable-background="new 0 0 343 200" xml:space="preserve">
<path fill="none" opacity="1.000000" stroke="#000000" stroke-linecap="round" stroke-linejoin="round" stroke-width="3.000000"
	d="
M136.000000,197.500000 
	C139.803879,191.669403 144.430344,187.522247 151.988739,186.869644 
	C160.656998,186.121231 168.372849,181.285858 176.997818,179.985489 
	C177.348297,179.932632 177.705872,179.717056 177.994263,179.492599 
	C184.834991,174.168808 191.732971,168.914978 198.460526,163.451401 
	C200.540710,161.762039 200.279205,158.945007 200.482101,156.498520 
	C200.799576,152.670776 200.969040,148.830978 201.259247,145.000702 
	C201.516891,141.599960 200.015823,140.502106 196.497101,141.489655 
	C192.436646,142.629272 189.818359,145.466187 188.039764,149.019897 
	C184.723007,155.646988 174.041840,159.022415 167.972229,157.620193 
	C154.693008,154.552338 141.258209,152.536743 128.009338,158.022568 
	C125.884834,158.902267 123.723877,159.038544 121.500000,159.000000 
"/>
<path fill="none" opacity="1.000000" stroke="#000000" stroke-linecap="round" stroke-linejoin="round" stroke-width="2.000000"
	d="
M172.500000,10.500000 
	C172.500000,31.500000 172.500000,52.500000 172.500000,74.246788 
	C176.311874,72.775139 179.961624,71.514023 183.483704,69.962997 
	C186.739288,68.529320 189.325790,65.920319 193.517685,66.309486 
	C196.117447,66.550850 200.296616,58.703636 199.433319,55.518070 
	C197.543365,48.544090 198.295013,41.440342 198.791428,34.520908 
	C199.052689,30.879299 199.424072,27.186504 199.486435,23.499771 
	C199.548431,19.834152 199.465027,16.166113 199.522919,12.500362 
	C199.538757,11.497982 199.833344,10.500002 200.000015,9.500002 
"/>
<path fill="none" opacity="1.000000" stroke="#000000" stroke-linecap="round" stroke-linejoin="round" stroke-width="2.000000"
	d="
M193.000000,67.000000 
	C182.923203,74.605576 172.470413,79.904465 158.962967,77.183899 
	C147.140442,74.802681 135.006409,73.944107 122.992256,72.567581 
	C121.411156,72.386421 120.131935,72.037071 119.021431,71.504929 
	C118.815918,67.969528 121.169678,68.909424 122.492989,69.061142 
	C134.671555,70.457397 146.815506,72.177681 159.009933,73.401039 
	C163.129044,73.814278 167.232727,76.348328 171.500000,74.000000 
"/>
<path fill="none" opacity="1.000000" stroke="#000000" stroke-linecap="round" stroke-linejoin="round" stroke-width="3.000000"
	d="
M145.000000,106.500000 
	C146.069275,110.330658 145.588226,113.684860 143.077011,117.057343 
	C139.356567,122.053764 137.461624,128.278580 136.325272,134.063889 
	C134.542984,143.137772 128.543686,147.366913 121.457359,150.914825 
	C116.168449,153.562836 110.880753,156.140137 105.995239,159.493073 
	C102.501030,161.891159 99.475792,164.835129 98.569603,169.015091 
	C96.196487,179.961548 89.594398,188.576004 83.500000,197.500000 
"/>
<path fill="none" opacity="1.000000" stroke="#000000" stroke-linecap="round" stroke-linejoin="round" stroke-width="3.000000"
	d="
M116.000000,7.500000 
	C116.333336,26.333334 116.714584,45.166096 116.940224,64.000717 
	C116.968880,66.393219 117.951889,67.991570 119.500000,69.500000 
"/>
<path fill="none" opacity="1.000000" stroke="#000000" stroke-linecap="round" stroke-linejoin="round" stroke-width="3.000000"
	d="
M175.000000,109.000000 
	C180.273422,108.881264 180.645859,113.002663 180.917450,116.506401 
	C181.744308,127.173714 184.001541,137.727219 183.516815,148.500763 
	C183.448074,150.028168 183.240051,151.626663 184.250000,153.000000 
"/>
<path fill="none" opacity="1.000000" stroke="#000000" stroke-linecap="round" stroke-linejoin="round" stroke-width="3.000000"
	d="
M200.000000,60.500000 
	C202.083450,67.000000 201.091995,73.537682 199.900375,79.981575 
	C199.419357,82.582748 196.916290,83.825508 194.537582,85.071724 
	C189.250412,87.841705 184.230301,91.117928 178.975082,93.953842 
	C176.029556,95.543350 175.293030,97.726891 174.827682,100.975311 
	C173.931717,107.229797 173.595047,113.604141 170.712662,119.602196 
	C169.315002,122.510643 170.114441,126.498451 170.010696,130.000320 
	C169.784042,137.650909 169.449387,145.277313 166.500000,152.500000 
"/>
<path fill="none" opacity="1.000000" stroke="#000000" stroke-linecap="round" stroke-linejoin="round" stroke-width="2.000000"
	d="
M152.000000,113.000000 
	C150.830627,113.164635 150.513275,113.883842 150.482162,114.999504 
	C150.119141,128.014420 148.170197,140.948898 148.500000,154.000000 
"/>
<path fill="none" opacity="1.000000" stroke="#000000" stroke-linecap="round" stroke-linejoin="round" stroke-width="3.000000"
	d="
M118.500000,72.500000 
	C118.666664,76.666664 118.964752,80.833565 118.957565,84.999924 
	C118.952026,88.213486 120.572701,89.611641 123.499832,90.001236 
	C136.000229,91.665001 148.501328,93.323616 160.995453,95.033264 
	C161.531036,95.106552 162.000000,95.666672 162.500000,96.000000 
"/>
<path fill="none" opacity="1.000000" stroke="#000000" stroke-linecap="round" stroke-linejoin="round" stroke-width="2.000000"
	d="
M145.000000,115.500000 
	C147.887802,121.128662 146.249664,127.164406 146.414154,133.002426 
	C146.611115,139.992172 146.166672,147.000000 146.000000,154.000000 
"/>
<path fill="none" opacity="1.000000" stroke="#000000" stroke-linecap="round" stroke-linejoin="round" stroke-width="3.000000"
	d="
M201.000000,31.500000 
	C202.818741,38.833332 202.310532,46.166668 201.000000,53.500000 
"/>
<path fill="none" opacity="1.000000" stroke="#000000" stroke-linecap="round" stroke-linejoin="round" stroke-width="3.000000"
	d="
M160.500000,118.500000 
	C158.891830,126.762627 157.960236,135.174316 154.565186,143.028183 
	C153.761826,144.886642 153.777451,147.099808 151.500000,148.000000 
"/>
<path fill="none" opacity="1.000000" stroke="#000000" stroke-linecap="round" stroke-linejoin="round" stroke-width="3.000000"
	d="
M203.000000,10.500000 
	C203.014160,16.519304 203.067200,22.540770 202.000000,28.500000 
"/>
<path fill="none" opacity="1.000000" stroke="#000000" stroke-linecap="round" stroke-linejoin="round" stroke-width="2.000000"
	d="
M139.000000,93.000000 
	C140.688492,96.990906 137.025696,103.227524 144.001236,104.995140 
	C151.503494,106.896225 158.736816,107.087532 165.000000,101.500000 
"/>
<path fill="none" opacity="1.000000" stroke="#000000" stroke-linecap="round" stroke-linejoin="round" stroke-width="3.000000"
	d="
M153.500000,107.000000 
	C151.416122,113.991890 151.631348,116.518677 161.011337,117.924355 
	C164.027451,118.376335 167.096802,118.419235 170.000000,119.500000 
"/>
<path fill="none" opacity="1.000000" stroke="#000000" stroke-linecap="round" stroke-linejoin="round" stroke-width="4.000000"
	d="
M174.750000,97.000000 
	C171.612640,95.402260 168.959473,98.041176 166.000000,98.000000 
"/>
</svg>