<?xml version="1.0" standalone="no"?>
<!DOCTYPE svg PUBLIC "-//W3C//DTD SVG 20010904//EN"
 "http://www.w3.org/TR/2001/REC-SVG-20010904/DTD/svg10.dtd">
<svg version="1.0" xmlns="http://www.w3.org/2000/svg"
 width="346.000000pt" height="201.000000pt" viewBox="0 0 346.000000 201.000000"
 preserveAspectRatio="xMidYMid meet">

<g transform="translate(0.000000,201.000000) scale(0.100000,-0.100000)"
fill="#000000" stroke="none">
<path d="M1889 1838 c-20 -18 -44 -46 -54 -61 -10 -15 -30 -34 -44 -42 -14 -7
-39 -31 -56 -54 -16 -22 -37 -41 -46 -41 -26 0 -167 -69 -177 -86 -5 -9 -5
-37 0 -66 13 -68 6 -82 -35 -74 -66 12 -90 -53 -46 -122 36 -54 54 -111 40
-125 -6 -6 -11 -37 -11 -68 0 -32 -5 -70 -10 -85 -6 -15 -57 -73 -113 -128
-56 -56 -122 -123 -147 -151 -84 -93 -344 -317 -585 -504 -103 -80 -144 -121
-121 -121 10 0 270 205 400 315 65 55 135 113 155 130 35 29 142 135 290 288
41 42 77 74 79 72 3 -2 1 -10 -5 -17 -18 -25 -15 -135 5 -182 17 -37 29 -48
85 -76 36 -17 67 -39 70 -48 3 -10 16 -42 30 -74 l26 -56 -66 -89 c-214 -284
-197 -259 -183 -268 7 -4 158 187 252 320 5 6 14 1 24 -13 9 -13 43 -57 76
-98 49 -61 71 -79 126 -105 37 -18 85 -47 106 -65 21 -18 43 -31 48 -28 18 12
-57 75 -128 109 -60 28 -83 46 -138 112 -37 43 -77 101 -90 128 -68 144 -94
217 -79 222 6 2 19 10 29 18 18 14 16 14 -13 9 -26 -5 -33 -3 -33 10 0 11 15
20 45 28 25 7 45 15 45 19 0 8 -61 -4 -80 -16 -15 -9 -30 12 -30 43 0 17 6 22
25 22 15 0 40 7 56 16 32 16 32 15 13 89 -4 17 -2 16 15 -5 21 -26 61 -120 61
-145 0 -7 15 -44 33 -82 19 -37 42 -90 53 -118 11 -27 24 -49 29 -47 12 4 11
13 -14 84 -10 31 -19 81 -19 111 1 71 -29 157 -104 303 -85 166 -134 234 -169
234 -20 0 -79 64 -79 86 0 11 4 12 19 4 14 -7 28 -7 47 1 31 11 74 5 74 -11 0
-6 -4 -10 -10 -10 -5 0 -10 -5 -10 -10 0 -7 6 -7 20 0 17 9 29 4 72 -28 77
-57 86 -69 62 -88 -20 -16 -13 -16 31 2 8 3 15 1 15 -6 0 -6 -13 -17 -30 -23
-16 -6 -30 -15 -30 -19 0 -5 16 -1 36 7 20 8 38 15 40 15 2 0 33 -44 68 -97
78 -118 90 -133 105 -133 14 0 14 17 0 26 -6 3 -41 52 -77 108 -36 55 -92 130
-126 166 -112 120 -223 304 -154 256 12 -9 39 -16 59 -16 23 0 42 -7 53 -19
17 -18 17 -20 -1 -30 -16 -9 -15 -10 8 -11 26 0 41 -15 126 -127 31 -41 31
-42 10 -46 -15 -3 -11 -5 11 -6 38 -1 35 -21 -3 -21 -13 0 -27 -5 -30 -11 -5
-7 4 -8 27 -5 32 6 34 4 98 -88 36 -51 83 -106 104 -122 29 -20 38 -23 33 -11
-6 16 -4 16 23 2 17 -9 30 -20 30 -26 0 -5 15 -19 33 -29 47 -28 56 -53 67
-193 17 -198 28 -275 46 -309 30 -58 341 -338 375 -338 22 0 4 22 -58 71 -104
81 -263 230 -289 270 -19 31 -25 64 -40 226 l-18 189 22 45 c26 53 28 106 7
137 -12 16 -13 27 -5 41 5 11 10 31 10 44 0 28 -41 77 -65 77 -19 0 -19 0 1
39 14 29 15 57 3 100 -3 11 22 19 100 35 99 20 105 23 126 56 26 40 24 50 -9
50 -19 0 -24 9 -39 69 -16 69 -77 181 -98 181 -6 0 -36 20 -67 43 -77 59 -91
66 -178 83 -109 20 -125 19 -165 -18z m193 -6 c5 -5 -18 -16 -49 -26 -60 -19
-138 -60 -149 -78 -4 -6 17 2 46 18 39 21 54 26 58 16 2 -7 19 -36 38 -63 19
-28 34 -53 34 -55 0 -2 -18 -4 -40 -4 -23 0 -52 -7 -65 -16 -28 -19 -24 -39 5
-24 23 12 27 6 36 -49 4 -23 10 -43 14 -46 4 -2 40 11 79 30 40 19 84 35 97
35 13 0 24 5 24 11 0 5 -4 7 -10 4 -5 -3 -10 -2 -10 3 0 5 26 32 59 60 l59 51
27 -41 c34 -51 69 -177 52 -183 -7 -2 -47 -6 -90 -10 -102 -8 -230 -45 -305
-90 -86 -50 -88 -49 -88 44 0 44 -5 85 -10 93 -13 17 -17 78 -5 78 5 0 11 7
15 15 5 13 2 13 -18 -1 -18 -11 -26 -28 -31 -63 -10 -73 -19 -77 -44 -21 -21
47 -22 52 -7 69 18 20 22 36 6 26 -15 -9 -12 22 5 58 l16 32 -21 -24 c-11 -13
-20 -31 -21 -40 -4 -70 -2 -66 -36 -63 -24 2 -39 -3 -57 -21 -26 -26 -46 -20
-46 13 0 23 36 54 55 47 9 -4 15 -1 15 7 0 25 70 93 130 125 34 18 59 35 57
38 -3 2 -15 0 -26 -7 -30 -16 -26 -1 12 38 l32 34 75 -6 c41 -3 78 -10 82 -14z
m83 -31 c17 -10 45 -32 64 -48 l33 -29 -61 -56 c-60 -56 -61 -57 -90 -42 -31
15 -114 129 -108 147 3 9 95 43 122 46 6 0 24 -8 40 -18z m125 -90 c0 -20
-128 -124 -192 -157 -80 -41 -88 -41 -88 -10 0 14 -4 36 -10 50 -8 22 -6 27
13 31 12 3 40 2 62 -3 31 -6 39 -12 37 -26 -3 -15 5 -12 41 14 24 17 62 49 83
71 38 39 54 48 54 30z m-650 -115 c0 -3 -4 -8 -10 -11 -5 -3 -10 -1 -10 4 0 6
5 11 10 11 6 0 10 -2 10 -4z m-6 -58 c22 -30 20 -38 -7 -38 -27 0 -62 33 -52
49 11 18 43 12 59 -11z m140 -10 c9 -12 16 -33 16 -46 0 -32 -39 -26 -59 10
-13 22 -13 29 -2 42 18 21 27 20 45 -6z m-232 -28 c2 -22 0 -40 -4 -40 -5 0
-8 4 -8 9 0 5 -3 23 -6 40 -4 18 -2 31 4 31 5 0 12 -18 14 -40z m348 -80 c0
-45 -5 -73 -16 -89 -20 -28 -28 -18 -38 44 -5 31 -2 53 14 90 27 62 40 47 40
-45z m-72 11 c2 -12 1 -30 -3 -38 -5 -13 -12 -10 -41 18 l-35 34 28 6 c39 9
48 6 51 -20z m541 25 c-8 -8 -188 -46 -216 -46 -22 1 -25 3 -12 10 28 17 242
50 228 36z m71 -13 c-1 -25 -34 -36 -202 -68 -209 -39 -219 -41 -212 -21 8 21
50 36 102 36 26 0 103 13 172 29 147 34 140 33 140 24z m-837 -47 c15 -24 27
-46 27 -49 0 -3 -22 7 -49 21 -47 25 -48 27 -34 49 9 13 18 23 22 23 3 -1 18
-20 34 -44z m-109 -12 c9 -3 16 -10 16 -16 0 -14 -53 -5 -58 10 -4 13 16 16
42 6z m504 -61 c-6 -21 -11 -80 -12 -130 0 -51 -1 -93 -2 -93 -1 0 -18 22 -38
49 -44 59 -47 102 -12 150 24 32 55 60 68 61 3 0 2 -17 -4 -37z m202 2 c18
-22 15 -63 -7 -93 -19 -25 -56 -42 -122 -57 -33 -7 -34 -6 -27 20 5 21 2 33
-15 51 -26 28 -24 31 46 68 56 29 106 34 125 11z m-282 -25 c-13 -20 -28 -27
-28 -12 0 10 22 32 32 32 5 0 3 -9 -4 -20z m-400 -80 c3 -21 2 -22 -12 -11
-19 16 -21 44 -3 39 6 -3 14 -15 15 -28z m510 -7 c2 -11 -4 -26 -13 -33 -13
-11 -15 -8 -15 25 0 39 22 46 28 8z m-482 -30 c-6 -25 -5 -26 7 -10 8 9 19 17
24 17 12 0 130 -221 167 -315 16 -38 30 -96 33 -130 l4 -60 -17 30 c-10 17
-18 39 -20 50 -1 12 -9 42 -18 68 -9 26 -16 52 -16 58 0 6 -21 30 -47 54 -44
39 -46 44 -33 60 13 16 13 18 0 13 -9 -3 -21 4 -28 16 -12 19 -13 19 -8 -11 5
-31 4 -33 -24 -33 -27 0 -28 2 -23 34 6 41 -4 106 -17 106 -6 0 -6 -10 -1 -22
10 -29 -1 -123 -19 -165 -17 -40 -50 -45 -50 -9 0 14 7 32 16 40 9 9 15 30 14
49 -5 93 0 126 26 156 32 38 38 39 30 4z m684 -13 c33 -18 42 -46 26 -78 -13
-25 -23 -30 -73 -37 -32 -4 -78 -8 -102 -9 -43 -1 -44 0 -59 41 -9 23 -13 46
-9 49 10 10 17 1 32 -43 14 -39 33 -45 63 -21 17 14 15 55 -3 62 -25 9 -17 22
23 33 50 14 80 15 102 3z m-135 -44 c20 -15 15 -43 -10 -52 -20 -8 -21 -6 -30
34 -7 36 7 43 40 18z m95 -121 c14 -37 53 -31 62 10 4 18 6 18 17 -6 10 -20
10 -35 1 -67 -6 -23 -15 -42 -21 -42 -6 0 -8 8 -4 18 4 15 -2 21 -27 28 -23 7
-34 17 -36 32 -2 13 -10 26 -18 29 -19 7 -18 23 1 23 9 0 20 -11 25 -25z m48
7 c3 -9 -2 -13 -14 -10 -9 1 -19 9 -22 16 -3 9 2 13 14 10 9 -1 19 -9 22 -16z
m-73 -22 c3 -5 -1 -10 -9 -10 -9 0 -16 5 -16 10 0 6 4 10 9 10 6 0 13 -4 16
-10z m-561 -46 c18 -18 29 -54 24 -80 -4 -21 -66 -40 -80 -26 -18 18 -23 103
-7 113 21 13 46 11 63 -7z m-103 -53 c4 -3 9 -36 13 -73 6 -63 5 -67 -16 -74
-23 -7 -23 -7 4 -16 18 -6 31 -21 38 -44 7 -20 10 -38 7 -41 -12 -11 -92 43
-110 75 l-19 32 34 1 33 0 -35 12 c-34 12 -34 12 -31 67 1 30 7 61 13 67 10
12 55 8 69 -6z"/>
<path d="M2050 1276 c0 -4 9 -19 20 -33 13 -17 20 -20 20 -11 0 8 -9 23 -20
33 -11 10 -20 15 -20 11z"/>
<path d="M2134 1137 c3 -10 6 -23 6 -28 0 -5 5 -9 10 -9 14 0 12 13 -6 36 -14
17 -15 17 -10 1z"/>
</g>
</svg>
