<?xml version="1.0" standalone="no"?>
<!DOCTYPE svg PUBLIC "-//W3C//DTD SVG 20010904//EN"
 "http://www.w3.org/TR/2001/REC-SVG-20010904/DTD/svg10.dtd">
<svg version="1.0" xmlns="http://www.w3.org/2000/svg"
 width="343.000000pt" height="203.000000pt" viewBox="0 0 343.000000 203.000000"
 preserveAspectRatio="xMidYMid meet">

<g transform="translate(0.000000,203.000000) scale(0.100000,-0.100000)"
fill="#000000" stroke="none">
<path d="M1665 1936 c-27 -13 -67 -40 -87 -60 -20 -20 -72 -64 -115 -98 -43
-34 -117 -100 -164 -147 -47 -47 -124 -123 -170 -169 l-86 -82 4 57 c3 32 14
87 25 122 42 131 22 251 -45 274 -45 15 -70 -9 -85 -83 -8 -35 -24 -77 -37
-94 -45 -61 -64 -112 -70 -192 -4 -43 -14 -104 -22 -134 -13 -48 -14 -76 -3
-215 10 -121 10 -173 1 -213 -12 -59 -63 -146 -121 -207 -20 -22 -63 -75 -94
-118 -32 -43 -85 -111 -119 -150 -129 -150 -148 -175 -135 -183 7 -5 20 3 32
21 12 15 56 69 99 119 43 50 104 125 135 166 31 41 82 106 114 145 32 38 72
96 88 129 28 55 30 68 30 167 0 59 -5 141 -10 183 -9 60 -8 86 4 133 8 32 19
99 25 150 11 104 25 137 87 203 52 56 67 90 54 126 -13 33 -13 34 3 34 30 0
60 -49 65 -105 7 -89 -26 -201 -61 -208 -22 -4 -22 -4 1 -6 25 -1 27 -13 12
-91 -8 -40 -7 -61 2 -82 13 -29 35 -40 24 -12 -4 11 9 33 39 65 98 105 364
357 425 403 36 27 74 60 85 72 36 41 96 74 134 74 44 0 61 -14 61 -51 0 -22
-20 -46 -96 -116 -162 -149 -346 -361 -296 -341 5 2 56 55 113 118 57 63 124
133 149 155 24 22 63 59 85 81 114 117 164 139 205 87 11 -15 20 -36 18 -47
-2 -11 -44 -56 -95 -101 -51 -44 -116 -109 -145 -144 -29 -35 -83 -98 -120
-140 -65 -72 -77 -91 -60 -91 14 0 27 15 145 152 117 137 270 278 300 278 9 0
24 -12 33 -26 25 -37 8 -64 -116 -191 -58 -60 -144 -150 -192 -202 l-86 -93
-75 37 c-65 32 -82 36 -119 31 -24 -4 -92 -8 -153 -9 -119 -3 -153 -14 -225
-75 l-35 -30 -27 19 c-15 11 -29 16 -32 11 -2 -4 -8 -47 -12 -95 l-7 -88 59
26 c32 15 72 32 87 37 l28 10 -22 24 c-22 23 -22 24 -4 44 21 23 94 60 118 60
10 0 17 -8 17 -20 0 -11 -5 -20 -10 -20 -6 0 -22 -12 -35 -26 -37 -40 -32 -81
20 -181 25 -47 45 -89 45 -92 0 -4 -15 -11 -32 -16 -29 -9 -33 -15 -36 -48 -4
-48 -46 -77 -110 -77 -75 0 -100 25 -111 114 -5 39 -10 52 -25 54 -27 6 -37
-17 -30 -68 9 -66 41 -117 89 -140 48 -23 85 -25 140 -5 22 8 43 15 46 15 4 0
10 -25 14 -56 4 -31 15 -81 26 -111 l19 -56 -32 -51 c-18 -28 -69 -98 -112
-156 -83 -109 -196 -274 -196 -284 0 -3 6 -6 13 -6 6 0 34 34 61 76 26 41 83
121 125 177 43 56 92 124 110 151 36 53 51 49 51 -12 0 -62 25 -96 146 -202
66 -57 124 -109 129 -115 10 -12 88 -55 100 -55 16 0 1 21 -27 37 -42 25 -243
199 -285 246 -25 28 -33 49 -38 94 -5 48 -22 114 -42 169 -2 6 8 16 22 22 14
6 25 16 25 22 0 6 -11 3 -24 -5 -15 -10 -27 -12 -30 -6 -4 5 2 12 13 16 23 7
59 45 43 45 -7 0 -12 -4 -12 -8 0 -12 -46 -32 -54 -25 -3 4 -6 23 -6 44 0 27
7 45 25 63 27 27 27 58 -1 103 -13 20 -12 23 0 23 28 0 43 -29 96 -186 39
-116 53 -173 52 -211 0 -52 10 -69 22 -37 14 35 4 89 -43 232 -29 88 -77 205
-114 279 -91 179 -92 187 -17 198 l45 7 66 -75 c37 -42 97 -127 134 -191 37
-64 71 -114 76 -111 12 8 3 26 -63 139 -33 55 -81 124 -108 153 -28 30 -50 59
-50 64 0 5 -18 20 -40 34 -53 34 -52 55 6 83 26 13 49 20 53 16 3 -4 1 -9 -5
-11 -6 -2 -20 -11 -30 -19 -18 -15 -18 -15 1 -9 11 4 32 12 47 18 24 10 34 6
98 -38 l71 -49 -38 -13 c-50 -18 -61 -30 -23 -28 62 3 71 5 66 14 -3 5 0 11 8
14 22 9 59 -40 121 -155 31 -60 61 -111 67 -114 16 -10 23 6 10 24 -6 9 -37
66 -69 126 -31 59 -66 115 -78 123 -11 8 -42 28 -69 45 l-50 30 25 19 c26 20
19 25 -12 8 -12 -6 -28 -8 -37 -4 -15 5 -13 8 8 20 17 9 32 10 49 3 35 -13
171 -100 171 -109 0 -4 -8 -10 -17 -12 -10 -3 -3 -4 16 -4 45 2 53 -20 9 -26
-28 -4 -27 -4 7 -3 47 1 59 -12 111 -123 39 -84 52 -103 65 -95 6 3 0 21 -12
40 -31 51 -17 52 22 2 19 -24 53 -63 77 -87 50 -51 67 -80 83 -147 7 -27 25
-77 40 -112 15 -34 38 -109 50 -165 12 -56 30 -127 41 -157 27 -77 118 -240
135 -240 15 0 18 16 4 24 -4 3 -34 55 -65 116 -46 89 -62 133 -81 226 -14 64
-37 144 -51 177 -14 34 -35 93 -45 131 -22 78 -41 109 -109 181 -26 28 -78 90
-115 139 -79 104 -82 79 33 230 120 159 147 230 102 271 -11 10 -20 22 -20 26
0 5 20 31 45 59 57 65 60 97 10 147 -19 19 -33 38 -31 42 10 15 -25 71 -53 85
-37 20 -49 20 -84 1 -28 -14 -30 -13 -62 20 -39 42 -62 44 -130 11z m-675
-180 c0 -13 -9 -34 -19 -47 l-19 -24 11 48 c11 50 27 63 27 23z m996 -250 c3
-15 -3 -40 -17 -67 -19 -39 -117 -175 -182 -253 l-24 -30 -43 37 c-24 20 -47
37 -52 37 -21 0 3 31 133 170 122 130 143 149 160 140 10 -6 21 -21 25 -34z
m-526 -205 c0 -5 -6 -11 -12 -14 -18 -6 -39 3 -32 14 7 12 44 12 44 0z m-165
-21 c-3 -5 -11 -10 -16 -10 -6 0 -7 5 -4 10 3 6 11 10 16 10 6 0 7 -4 4 -10z
m-51 -89 c3 -5 -1 -12 -10 -15 -27 -11 -37 -7 -24 9 14 17 26 19 34 6z m-4
-340 c15 -28 12 -67 -5 -81 -21 -17 -25 -11 -32 49 -5 43 -3 51 10 51 9 0 21
-9 27 -19z"/>
<path d="M2399 1874 c-6 -8 -16 -14 -22 -14 -18 0 -36 -35 -30 -61 4 -19 -1
-33 -16 -48 -27 -27 -26 -35 3 -118 45 -126 45 -126 -16 -155 -52 -26 -123
-97 -177 -178 -13 -19 -45 -54 -70 -77 -25 -23 -41 -42 -36 -43 19 0 84 60
117 108 77 113 152 183 179 166 6 -3 23 5 37 19 27 25 119 67 147 67 8 0 15
-4 15 -10 0 -5 -11 -10 -24 -10 -26 0 -142 -92 -125 -98 5 -2 27 12 49 32 40
36 41 36 68 19 l27 -17 -19 22 c-20 23 -9 31 13 10 10 -11 12 -10 9 1 -2 7 9
18 25 23 21 8 34 6 54 -7 l26 -17 -60 -32 c-68 -35 -141 -91 -132 -101 4 -3
20 6 37 20 36 30 39 30 66 8 21 -18 21 -18 2 5 -23 26 -14 41 11 21 16 -12 17
-12 6 1 -10 13 -8 18 7 28 11 6 27 9 36 5 13 -5 15 -3 9 8 -4 8 0 7 11 -3 18
-17 16 -20 -37 -67 -73 -65 -142 -155 -136 -178 4 -17 5 -16 13 2 8 18 93 135
99 135 1 0 1 -17 0 -37 -1 -29 -5 -38 -19 -37 -10 1 -16 -4 -14 -15 1 -9 -10
-37 -26 -63 -23 -40 -36 -50 -84 -68 -31 -12 -69 -24 -84 -27 -30 -6 -49 -23
-26 -23 7 0 48 12 91 26 43 14 80 24 83 22 2 -3 7 -32 10 -66 4 -34 11 -62 16
-62 7 0 3 83 -7 136 -3 13 16 51 50 104 56 86 63 104 45 115 -7 4 4 23 25 46
19 21 35 45 35 52 0 6 11 22 23 34 13 12 29 40 36 62 14 47 61 106 91 114 26
7 37 -11 16 -26 -9 -7 -27 -55 -41 -107 -15 -52 -39 -123 -56 -158 -16 -34
-29 -77 -29 -95 0 -42 50 -269 63 -282 12 -13 7 18 -28 171 l-27 122 36 75
c20 42 36 81 36 89 0 29 41 140 61 167 25 34 20 61 -11 61 -35 0 -77 -28 -101
-66 l-23 -37 -17 39 c-60 136 -104 223 -124 250 -23 30 -28 32 -89 32 -44 0
-69 -5 -77 -14z m93 -70 c21 -38 47 -97 58 -131 12 -35 26 -63 32 -63 6 0 7 8
3 18 -4 9 -11 28 -15 42 -4 14 -24 61 -44 104 -27 58 -33 82 -25 92 6 7 17 10
25 7 19 -7 91 -130 114 -196 10 -29 26 -67 35 -86 22 -42 22 -77 0 -101 -24
-26 -35 -25 -35 3 0 17 -12 28 -49 46 -53 25 -100 24 -169 -5 -25 -10 -34 -11
-37 -1 -2 7 -15 46 -29 88 -30 87 -33 119 -10 119 14 0 25 -20 80 -147 9 -21
18 -33 20 -27 3 6 -14 56 -36 113 -43 107 -53 151 -33 158 15 5 79 -108 98
-175 14 -45 35 -79 35 -55 0 15 -40 114 -70 174 -33 64 -37 85 -17 92 23 10
32 1 69 -69z m90 -496 c-7 -7 -12 -8 -12 -2 0 14 12 26 19 19 2 -3 -1 -11 -7
-17z"/>
<path d="M1255 1140 l-20 -9 20 0 c11 0 27 4 35 9 13 9 13 10 0 9 -8 0 -24 -4
-35 -9z"/>
<path d="M1518 1111 c-27 -9 -48 -20 -48 -24 0 -10 30 -2 85 23 49 22 27 23
-37 1z"/>
<path d="M1331 1019 c-40 -16 -17 -20 25 -5 22 8 30 15 19 15 -11 0 -31 -5
-44 -10z"/>
<path d="M1350 990 c-30 -10 -46 -18 -34 -19 24 -1 84 17 99 30 13 12 -1 10
-65 -11z"/>
</g>
</svg>
