<?xml version="1.0" standalone="no"?>
<!DOCTYPE svg PUBLIC "-//W3C//DTD SVG 20010904//EN"
 "http://www.w3.org/TR/2001/REC-SVG-20010904/DTD/svg10.dtd">
<svg version="1.0" xmlns="http://www.w3.org/2000/svg"
 width="343.000000pt" height="200.000000pt" viewBox="0 0 343.000000 200.000000"
 preserveAspectRatio="xMidYMid meet">

<g transform="translate(0.000000,200.000000) scale(0.100000,-0.100000)"
fill="#000000" stroke="none">
<path d="M1991 1889 c-20 -19 -23 -29 -19 -70 4 -37 2 -46 -9 -42 -19 7 -72
-16 -83 -38 -17 -31 -11 -98 15 -159 14 -33 25 -65 25 -72 0 -7 12 -40 26 -73
23 -55 74 -236 74 -260 -1 -9 -21 28 -138 249 -20 39 -49 79 -64 89 -23 17
-31 18 -57 7 -23 -9 -32 -21 -37 -47 -6 -33 9 -107 26 -128 19 -23 81 -184 96
-245 9 -37 17 -127 19 -212 6 -244 35 -366 113 -480 17 -25 52 -106 76 -179
43 -126 59 -159 71 -147 8 8 -63 216 -94 278 -16 30 -45 87 -65 125 -54 105
-66 167 -72 365 -3 101 -12 202 -21 239 -8 35 -12 72 -10 82 3 11 1 19 -4 19
-14 0 -58 100 -52 116 3 8 0 14 -6 14 -21 0 -52 87 -49 133 2 35 7 43 25 45
30 4 67 -36 90 -96 9 -26 30 -66 45 -89 46 -68 80 -150 73 -174 -8 -24 -2 -22
53 18 28 21 31 27 18 36 -19 15 -49 122 -43 153 2 13 0 24 -5 24 -13 0 -59
107 -61 144 -1 17 -8 37 -14 44 -15 15 -43 106 -43 137 0 27 29 55 57 55 30 0
51 -30 82 -118 16 -44 47 -120 69 -168 43 -94 77 -208 67 -224 -7 -12 21 -12
49 -1 19 7 19 8 -1 13 -16 4 -24 20 -37 76 -19 85 -20 109 -3 115 9 4 9 6 0 6
-13 1 -73 112 -88 161 -4 14 -27 66 -51 116 -24 50 -44 98 -44 107 0 21 35 57
56 57 25 0 85 -75 104 -129 9 -27 30 -66 46 -86 48 -61 104 -154 119 -198 20
-61 37 -167 31 -191 -5 -20 -2 -21 36 -18 22 3 35 8 29 11 -15 9 -61 138 -61
170 0 18 4 22 20 18 11 -3 20 -1 20 4 0 5 -8 9 -18 9 -20 0 -107 134 -97 150
3 5 0 10 -7 10 -8 0 -31 23 -52 50 -49 64 -61 131 -27 150 18 9 28 7 54 -9 50
-33 67 -49 159 -159 74 -88 91 -116 118 -190 29 -79 31 -95 27 -172 -8 -123
-30 -210 -62 -235 -14 -12 -25 -24 -25 -28 0 -15 28 -6 50 18 12 13 26 23 29
21 3 -2 7 16 8 40 2 48 21 116 35 125 5 3 4 18 -2 35 -24 60 8 193 56 235 54
48 88 21 82 -67 -4 -68 -23 -53 -23 19 0 49 -2 55 -12 40 -20 -27 -15 -78 10
-110 13 -15 29 -53 35 -84 11 -46 10 -66 -4 -125 -8 -38 -19 -112 -23 -164 -8
-88 -12 -101 -56 -179 -26 -46 -63 -121 -81 -167 -59 -145 -47 -216 73 -439
78 -146 89 -162 98 -153 4 3 -33 82 -80 174 -133 259 -133 292 -8 533 57 111
66 136 74 206 5 44 16 122 25 173 14 77 15 103 6 156 -7 35 -12 93 -12 130 0
37 -5 76 -10 87 -23 42 -111 9 -146 -56 -10 -19 -21 -35 -24 -35 -3 0 -14 24
-25 53 -25 72 -40 92 -185 260 -41 48 -115 97 -145 97 -12 0 -30 -9 -39 -19
-17 -19 -18 -18 -53 20 -42 46 -85 52 -122 18z"/>
<path d="M900 1884 c-14 -9 -36 -32 -49 -51 -17 -26 -26 -32 -34 -24 -41 41
-148 -29 -207 -136 -11 -21 -38 -62 -60 -91 -25 -35 -43 -74 -50 -108 -8 -35
-16 -54 -26 -54 -19 0 -50 -53 -59 -98 -4 -19 -23 -60 -43 -91 l-36 -56 -7
-180 c-3 -99 -2 -191 2 -203 5 -13 65 -84 134 -157 l125 -134 0 -74 c0 -65
-37 -246 -66 -321 -4 -10 -1 -16 8 -16 10 0 23 32 41 98 39 139 50 209 43 271
-7 60 -6 58 -177 238 -59 62 -89 102 -91 120 -2 16 -1 98 2 183 l5 155 34 52
c28 44 38 52 57 47 35 -9 58 34 51 96 -5 39 -3 48 8 44 22 -9 45 -68 45 -116
0 -58 -26 -144 -51 -169 -13 -13 -15 -19 -5 -19 7 0 16 -10 20 -22 10 -39 7
-113 -6 -127 -11 -10 -10 -12 3 -9 9 1 26 -8 37 -22 29 -36 39 -17 15 28 -30
52 -31 155 -3 251 26 87 21 141 -17 197 -46 68 -28 113 137 341 52 72 122 92
136 39 7 -31 -32 -121 -63 -146 -14 -11 -22 -23 -19 -28 3 -6 -8 -37 -26 -71
-25 -48 -38 -63 -62 -70 l-31 -9 28 -1 c26 -1 27 -3 27 -55 0 -29 -6 -72 -14
-94 -17 -46 -14 -52 28 -52 27 0 28 1 12 13 -16 12 -17 19 -7 66 6 28 11 70
11 91 0 39 63 185 95 220 21 23 45 85 45 117 1 41 64 123 94 123 35 0 57 -26
50 -58 -3 -15 -21 -59 -40 -98 -19 -40 -34 -79 -34 -88 0 -28 -42 -128 -62
-148 -16 -16 -17 -22 -8 -28 10 -6 11 -27 3 -96 -6 -49 -14 -97 -18 -106 -6
-14 -2 -18 16 -18 23 0 24 3 27 88 2 79 6 94 41 162 21 41 46 101 55 132 26
90 80 140 114 106 23 -23 7 -149 -21 -173 -7 -5 -13 -27 -13 -47 -2 -54 -32
-128 -52 -128 -14 0 -14 -2 -3 -9 10 -6 12 -27 9 -82 -3 -41 -7 -80 -9 -87 -2
-7 14 -24 36 -37 l40 -24 1 52 c1 30 13 79 28 116 14 36 26 80 26 98 0 39 20
93 42 111 40 33 72 -30 56 -114 -5 -27 -10 -60 -12 -74 -6 -46 -18 -90 -24
-90 -11 0 -6 -216 7 -310 15 -118 14 -331 -4 -414 -8 -37 -26 -88 -40 -112
-23 -39 -52 -153 -69 -272 -5 -33 -3 -43 6 -40 8 3 20 48 31 114 13 75 29 131
53 181 62 131 77 296 49 528 -18 154 -19 268 -1 331 24 81 40 197 32 235 -8
46 -36 71 -72 67 -37 -4 -62 -42 -75 -113 -6 -33 -15 -73 -21 -90 -6 -16 -18
-58 -27 -92 -27 -107 -39 -72 -22 67 4 36 27 128 49 205 46 154 49 180 26 213
-19 27 -69 30 -104 5 -23 -16 -23 -16 -15 3 4 10 13 40 19 67 9 42 8 50 -9 67
-28 27 -66 33 -95 14z m-414 -539 c9 -48 -30 -108 -50 -77 -4 8 5 57 19 100 8
24 24 12 31 -23z"/>
<path d="M2348 986 c-77 -59 -170 -200 -196 -298 -17 -61 1 -43 22 22 18 60
85 171 134 224 15 16 47 42 71 57 25 16 38 29 29 29 -8 0 -35 -15 -60 -34z"/>
<path d="M683 879 c84 -20 137 -59 245 -184 28 -33 52 -55 52 -49 0 6 -39 53
-87 104 -92 98 -160 141 -218 139 -28 -1 -28 -1 8 -10z"/>
</g>
</svg>
