<svg version="1.1" id="Layer_1" xmlns="http://www.w3.org/2000/svg" xmlns:xlink="http://www.w3.org/1999/xlink" x="0px" y="0px"
	 width="100%" viewBox="0 0 347 201" enable-background="new 0 0 347 201" xml:space="preserve">
<path fill="none" opacity="1.000000" stroke="#000000" stroke-linecap="round" stroke-linejoin="round" stroke-width="6.000000"
	d="
M64.000000,32.500000 
	C63.833336,37.333332 63.563324,42.165699 63.518002,47.000168 
	C63.327892,67.280678 69.826332,85.534126 80.503464,102.497818 
	C81.143448,103.514618 81.833336,104.500000 82.500000,105.500000 
"/>
<path fill="none" opacity="1.000000" stroke="#000000" stroke-linecap="round" stroke-linejoin="round" stroke-width="3.000000"
	d="
M165.500000,71.500000 
	C164.585922,73.067703 163.373749,74.372536 163.443512,76.501854 
	C163.774948,86.618217 159.642365,96.312561 160.454742,106.503609 
	C160.479050,106.808456 159.833359,107.166687 159.165344,107.834709 
	C155.868286,106.061485 155.084137,102.544579 154.625305,99.481232 
	C153.527283,92.150215 153.479660,84.678993 149.609161,77.937325 
	C148.704239,76.361168 148.909515,73.981262 149.053589,72.003906 
	C149.352829,67.896881 147.789948,64.963295 143.983856,63.543285 
	C140.118698,62.101242 137.008789,63.284489 135.000000,67.000000 
"/>
<path fill="none" opacity="1.000000" stroke="#000000" stroke-linecap="round" stroke-linejoin="round" stroke-width="5.000000"
	d="
M60.000000,6.000000 
	C75.110039,16.444645 85.761742,30.538725 93.481323,47.008755 
	C94.780258,49.780094 95.833328,52.666668 96.999992,55.500000 
"/>
<path fill="none" opacity="1.000000" stroke="#000000" stroke-linecap="round" stroke-linejoin="round" stroke-width="3.000000"
	d="
M122.000000,132.500000 
	C124.748962,128.500000 123.260849,124.496727 121.997879,120.500671 
	C119.202255,111.655273 116.938606,102.643288 113.525070,93.990112 
	C111.975822,90.062820 108.287170,87.757965 106.412575,84.044128 
	C105.409485,82.056870 103.082985,81.027832 101.058380,82.576324 
	C98.936356,84.199333 96.740005,85.893463 97.890556,89.534584 
	C99.165977,93.570862 102.234802,96.341545 104.138214,99.926620 
	C107.116806,105.536789 110.787292,110.822929 114.558891,115.956734 
	C118.450905,121.254463 118.723099,127.491783 120.000000,133.500000 
"/>
<path fill="none" opacity="1.000000" stroke="#000000" stroke-linecap="round" stroke-linejoin="round" stroke-width="3.000000"
	d="
M173.000000,80.500000 
	C176.708420,75.807327 177.479309,69.988358 178.922272,64.479637 
	C179.866196,60.875980 181.046692,57.421650 182.395950,53.959450 
	C183.342422,51.530811 184.754013,50.972431 187.000046,50.976738 
	C189.758713,50.982033 190.306168,53.060501 190.990768,55.003254 
	C193.472046,62.044754 189.958954,68.670090 189.358200,75.487503 
	C188.911987,80.550987 186.794754,85.449760 186.110489,90.514923 
	C185.495560,95.067131 183.922073,99.239456 182.771729,103.572144 
	C181.311691,109.071091 177.156189,112.839767 175.528107,118.164001 
	C173.937531,114.670631 172.715851,111.489510 173.363037,107.477905 
	C174.428329,100.874550 174.686417,94.218788 173.179230,87.460030 
	C172.341934,83.705391 172.389969,79.726631 171.036972,75.986626 
	C170.184586,73.630394 169.196136,71.773643 166.522827,70.927864 
	C163.847809,70.081535 162.576706,68.209335 162.373795,65.007996 
	C161.929596,57.999794 162.454636,50.930485 160.638138,43.963982 
	C159.755859,40.580357 158.367920,38.700760 155.007751,39.070480 
	C151.719559,39.432274 150.367767,41.533123 150.428268,45.001251 
	C150.527039,50.663288 150.164734,56.333279 150.001236,62.000034 
	C149.956070,63.565651 150.319199,65.219078 149.000000,66.500000 
"/>
<path fill="none" opacity="1.000000" stroke="#000000" stroke-linecap="round" stroke-linejoin="round" stroke-width="3.000000"
	d="
M122.500000,77.500000 
	C124.617126,73.567375 123.166206,69.728203 121.941566,66.019295 
	C120.626724,62.037205 121.062584,58.023273 120.996552,54.000057 
	C120.946205,50.932049 123.189110,50.118786 125.506134,49.523888 
	C128.417892,48.776287 129.875015,50.796642 130.431595,53.017147 
	C132.499115,61.265774 134.931656,69.396393 137.435455,77.519897 
	C139.075790,82.841934 137.516235,88.504761 138.812469,94.043884 
	C139.846237,98.461388 141.758820,102.736877 141.680008,107.502975 
	C141.655716,108.972954 141.703110,109.721291 140.514816,110.521988 
	C138.965134,111.566193 138.103424,110.801865 137.513885,109.493736 
	C133.254868,100.043411 126.274925,91.796104 124.172089,81.464973 
	C123.169884,76.541237 119.973450,77.134575 116.998764,77.096504 
	C113.368179,77.050026 112.007889,79.553055 111.972656,82.999718 
	C111.948792,85.334480 113.607941,87.805328 111.500000,90.000000 
"/>
<path fill="none" opacity="1.000000" stroke="#000000" stroke-linecap="round" stroke-linejoin="round" stroke-width="3.000000"
	d="
M186.500000,96.500000 
	C193.069244,97.239059 195.241699,100.372757 192.955826,106.483475 
	C189.926590,114.581345 187.370239,122.587959 187.266052,131.497269 
	C187.189453,138.048035 187.658417,144.505539 188.038910,150.997726 
	C188.088730,151.847672 188.453796,152.873627 189.032257,153.468643 
	C196.465805,161.115143 200.080566,171.117020 205.487823,180.007416 
	C209.347000,186.352554 213.673584,192.288422 219.500000,197.000000 
"/>
<path fill="none" opacity="1.000000" stroke="#000000" stroke-linecap="round" stroke-linejoin="round" stroke-width="2.000000"
	d="
M260.500000,39.500000 
	C258.000641,44.333672 254.610992,48.755112 253.072388,54.021152 
	C251.972855,57.784485 250.835968,61.775249 253.499191,65.500000 
	C256.089264,63.262314 257.461243,59.611607 261.023163,58.580009 
	C262.388763,58.184521 264.252167,57.635792 265.465210,59.030251 
	C266.853271,60.625919 265.644226,61.780125 264.524323,63.021942 
	C260.256500,67.754532 258.294250,73.943840 254.559921,79.043869 
	C253.389206,80.642731 252.416580,82.317223 250.493805,82.982071 
	C242.465393,85.758163 239.405792,93.012733 235.545853,99.527168 
	C235.244995,100.034904 235.214111,100.547447 234.500000,100.500000 
"/>
<path fill="none" opacity="1.000000" stroke="#000000" stroke-linecap="round" stroke-linejoin="round" stroke-width="3.000000"
	d="
M123.000000,165.000000 
	C125.333336,167.000000 127.572395,169.125870 130.026840,170.964157 
	C132.422150,172.758163 134.920776,175.113007 137.993073,174.900101 
	C148.161804,174.195389 153.688690,181.821152 160.415009,187.108124 
	C163.417847,189.468399 165.500000,193.000000 168.000000,196.000000 
"/>
<path fill="none" opacity="1.000000" stroke="#000000" stroke-linecap="round" stroke-linejoin="round" stroke-width="3.000000"
	d="
M192.500000,156.500000 
	C199.804016,148.060669 207.403702,139.940430 217.004501,134.007278 
	C218.973511,132.790466 221.109528,131.816696 222.969742,130.458557 
	C224.898117,129.050674 228.481262,128.224701 227.349457,125.053734 
	C226.182144,121.783257 223.591461,119.213562 219.500748,119.510391 
	C213.877579,119.918442 209.051056,122.171272 204.449707,125.428963 
	C199.250900,129.109650 194.924057,134.162064 188.500000,136.000000 
"/>
<path fill="none" opacity="1.000000" stroke="#000000" stroke-linecap="round" stroke-linejoin="round" stroke-width="3.000000"
	d="
M223.000000,25.750000 
	C217.889114,25.038805 218.841156,28.833475 219.073059,31.493629 
	C219.636902,37.961273 221.313324,44.241055 223.167557,50.824074 
	C221.537766,52.692810 218.542328,53.824181 218.500000,57.000000 
"/>
<path fill="none" opacity="1.000000" stroke="#000000" stroke-linecap="round" stroke-linejoin="round" stroke-width="3.000000"
	d="
M122.000000,137.500000 
	C122.177643,136.042908 121.997421,134.385025 120.485641,134.068619 
	C114.527008,132.821457 110.322289,128.630402 105.519028,125.471069 
	C100.709900,122.307861 95.633537,121.124329 89.997925,122.491440 
	C87.948715,122.988541 86.144028,124.036758 85.584045,126.023689 
	C85.009041,128.063965 85.449936,130.063324 87.479439,131.528473 
	C92.506149,135.157379 97.277908,139.102356 102.424744,142.610413 
	C110.505226,148.117996 116.394348,155.965698 122.745316,163.600296 
	C118.744659,175.872757 112.018005,186.648972 104.500000,197.000000 
"/>
<path fill="none" opacity="1.000000" stroke="#000000" stroke-linecap="round" stroke-linejoin="round" stroke-width="2.000000"
	d="
M211.500000,60.500000 
	C208.858444,57.410915 208.858444,57.410915 207.474503,51.898430 
	C209.166672,50.543522 210.681458,50.566063 212.526489,51.965073 
	C220.197662,57.781849 223.558746,65.478058 223.001297,75.000076 
	C222.458878,84.265373 218.209213,92.291962 214.500000,100.500000 
"/>
<path fill="none" opacity="1.000000" stroke="#000000" stroke-linecap="round" stroke-linejoin="round" stroke-width="2.000000"
	d="
M254.000000,82.500000 
	C259.138550,89.774605 264.409119,96.933693 271.500000,102.500000 
"/>
<path fill="none" opacity="1.000000" stroke="#000000" stroke-linecap="round" stroke-linejoin="round" stroke-width="3.000000"
	d="
M237.000000,38.500000 
	C234.909302,37.417847 233.664978,37.436779 231.324753,39.277153 
	C226.477295,43.089268 226.444443,47.595497 227.648895,52.463158 
	C228.114441,54.344627 227.138184,54.920433 226.989838,55.959316 
	C223.955292,56.211380 224.386475,53.446857 223.000000,52.500000 
"/>
<path fill="none" opacity="1.000000" stroke="#000000" stroke-linecap="round" stroke-linejoin="round" stroke-width="2.000000"
	d="
M213.000000,59.000000 
	C211.541672,60.166668 212.212250,61.038815 212.877609,62.553753 
	C215.110748,67.638283 217.915024,72.223320 222.000000,76.000000 
"/>
<path fill="none" opacity="1.000000" stroke="#000000" stroke-linecap="round" stroke-linejoin="round" stroke-width="3.000000"
	d="
M232.500000,22.000000 
	C230.073654,27.166666 230.073364,32.333332 232.500000,37.500000 
"/>
<path fill="none" opacity="1.000000" stroke="#000000" stroke-linecap="round" stroke-linejoin="round" stroke-width="3.000000"
	d="
M246.000000,28.500002 
	C245.500000,31.000002 245.266586,33.593105 244.434036,35.976959 
	C243.338394,39.114014 241.350754,40.403004 238.500000,37.500000 
"/>
<path fill="none" opacity="1.000000" stroke="#000000" stroke-linecap="round" stroke-linejoin="round" stroke-width="2.000000"
	d="
M224.000000,122.000000 
	C223.666672,122.166664 223.350082,122.394630 222.997528,122.490967 
	C215.459991,124.550529 214.962372,125.727661 219.000000,132.000000 
"/>
<path fill="none" opacity="1.000000" stroke="#000000" stroke-linecap="round" stroke-linejoin="round" stroke-width="2.000000"
	d="
M91.499992,123.000008 
	C93.150734,124.183235 94.801476,125.366470 96.219269,126.382736 
	C94.844810,130.061859 93.922401,132.530930 93.000000,135.000000 
"/>
<path fill="none" opacity="1.000000" stroke="#000000" stroke-linecap="round" stroke-linejoin="round" stroke-width="3.000000"
	d="
M236.000000,22.500000 
	C237.201904,27.598740 238.065063,32.730263 237.500000,38.000000 
"/>
<path fill="none" opacity="1.000000" stroke="#000000" stroke-linecap="round" stroke-linejoin="round" stroke-width="2.000000"
	d="
M239.000000,95.000008 
	C241.166656,97.833336 243.333328,100.666672 245.500000,103.500008 
"/>
<path fill="none" opacity="1.000000" stroke="#000000" stroke-linecap="round" stroke-linejoin="round" stroke-width="3.000000"
	d="
M160.000000,188.500000 
	C157.552704,191.201813 155.402298,194.101532 154.000000,197.500000 
"/>
<path fill="none" opacity="1.000000" stroke="#000000" stroke-linecap="round" stroke-linejoin="round" stroke-width="3.000000"
	d="
M97.000008,56.500000 
	C98.000008,59.500000 99.000008,62.500000 100.000008,65.500000 
"/>
<path fill="none" opacity="1.000000" stroke="#000000" stroke-linecap="round" stroke-linejoin="round" stroke-width="3.000000"
	d="
M103.000000,49.500000 
	C99.245888,56.809540 96.887337,57.704163 88.500000,55.000000 
"/>
<path fill="none" opacity="1.000000" stroke="#000000" stroke-linecap="round" stroke-linejoin="round" stroke-width="5.000000"
	d="
M253.500000,44.000000 
	C245.557419,42.481346 244.000000,44.038761 244.000000,53.500000 
"/>
<path fill="none" opacity="1.000000" stroke="#000000" stroke-linecap="round" stroke-linejoin="round" stroke-width="2.000000"
	d="
M129.500000,57.000000 
	C127.138245,62.045242 124.206017,57.962955 121.500000,57.500000 
"/>
<path fill="none" opacity="1.000000" stroke="#000000" stroke-linecap="round" stroke-linejoin="round" stroke-width="2.000000"
	d="
M182.000000,57.500000 
	C184.349075,59.930466 186.711075,62.167221 189.500000,58.000000 
"/>
<path fill="none" opacity="1.000000" stroke="#000000" stroke-linecap="round" stroke-linejoin="round" stroke-width="4.000000"
	d="
M70.500000,46.500000 
	C65.683823,40.818680 60.585728,43.594822 55.500000,46.000000 
"/>
<path fill="none" opacity="1.000000" stroke="#000000" stroke-linecap="round" stroke-linejoin="round" stroke-width="3.000000"
	d="
M250.000000,27.500000 
	C251.982864,31.589563 249.378357,35.484932 249.470322,39.500679 
	C249.496933,40.662922 249.166672,41.833332 249.000000,43.000000 
"/>
<path fill="none" opacity="1.000000" stroke="#000000" stroke-linecap="round" stroke-linejoin="round" stroke-width="2.000000"
	d="
M160.000000,47.000000 
	C157.803253,48.289387 155.706131,50.276260 153.000000,48.000000 
"/>
<path fill="none" opacity="1.000000" stroke="#000000" stroke-linecap="round" stroke-linejoin="round" stroke-width="2.000000"
	d="
M101.000000,137.000000 
	C102.375137,135.616714 100.206139,132.815781 103.500000,131.813400 
	C103.500000,134.141159 103.500000,136.320572 103.500000,138.500000 
"/>
<path fill="none" opacity="1.000000" stroke="#000000" stroke-linecap="round" stroke-linejoin="round" stroke-width="3.000000"
	d="
M224.000000,27.500000 
	C225.677185,30.095566 225.248871,33.189556 225.887161,36.025398 
	C226.258804,37.676655 226.821671,38.922497 228.000000,40.000000 
"/>
<path fill="none" opacity="1.000000" stroke="#000000" stroke-linecap="round" stroke-linejoin="round" stroke-width="2.000000"
	d="
M127.000000,91.000000 
	C125.238846,92.887657 122.457100,92.121780 120.500000,93.500000 
"/>
<path fill="none" opacity="1.000000" stroke="#000000" stroke-linecap="round" stroke-linejoin="round" stroke-width="2.000000"
	d="
M137.000000,88.000000 
	C134.890198,88.746445 132.904037,90.028625 130.500000,89.500000 
"/>
<path fill="none" opacity="1.000000" stroke="#000000" stroke-linecap="round" stroke-linejoin="round" stroke-width="2.000000"
	d="
M137.000000,86.000000 
	C134.706680,84.520103 132.664291,86.302551 130.500000,86.500000 
"/>
<path fill="none" opacity="1.000000" stroke="#000000" stroke-linecap="round" stroke-linejoin="round" stroke-width="2.000000"
	d="
M231.500000,42.000000 
	C233.568268,43.691689 232.971481,46.408405 234.000000,48.500000 
"/>
<path fill="none" opacity="1.000000" stroke="#000000" stroke-linecap="round" stroke-linejoin="round" stroke-width="2.000000"
	d="
M144.500000,87.000000 
	C146.426453,88.049225 148.505585,87.266380 150.500000,87.500000 
"/>
<path fill="none" opacity="1.000000" stroke="#000000" stroke-linecap="round" stroke-linejoin="round" stroke-width="2.000000"
	d="
M123.000000,83.000000 
	C121.500000,83.500000 120.000000,84.000000 118.500000,84.500000 
"/>
<path fill="none" opacity="1.000000" stroke="#000000" stroke-linecap="round" stroke-linejoin="round" stroke-width="2.000000"
	d="
M152.000000,82.000000 
	C154.173203,80.545723 156.893265,82.919556 159.022614,80.787872 
	C158.123505,78.629478 156.069809,79.790581 154.500000,79.500000 
"/>
<path fill="none" opacity="1.000000" stroke="#000000" stroke-linecap="round" stroke-linejoin="round" stroke-width="2.000000"
	d="
M164.500000,80.000008 
	C165.833328,80.166672 167.166672,80.333336 168.500000,80.500008 
"/>
<path fill="none" opacity="1.000000" stroke="#000000" stroke-linecap="round" stroke-linejoin="round" stroke-width="2.000000"
	d="
M116.000000,103.500000 
	C114.446014,104.048126 113.079895,104.815430 112.500000,106.500000 
"/>
<path fill="none" opacity="1.000000" stroke="#000000" stroke-linecap="round" stroke-linejoin="round" stroke-width="2.000000"
	d="
M117.000000,107.000000 
	C115.689209,107.163704 115.157280,109.144768 113.500000,108.500000 
"/>
<path fill="none" opacity="1.000000" stroke="#000000" stroke-linecap="round" stroke-linejoin="round" stroke-width="3.000000"
	d="
M146.500000,84.500000 
	C145.085892,84.032043 144.170258,84.999016 144.080734,86.007172 
	C143.901428,88.026260 142.556564,87.372055 141.500000,87.500000 
"/>
</svg>