<?xml version="1.0" standalone="no"?>
<!DOCTYPE svg PUBLIC "-//W3C//DTD SVG 20010904//EN"
 "http://www.w3.org/TR/2001/REC-SVG-20010904/DTD/svg10.dtd">
<svg version="1.0" xmlns="http://www.w3.org/2000/svg"
 width="344.000000pt" height="201.000000pt" viewBox="0 0 344.000000 201.000000"
 preserveAspectRatio="xMidYMid meet">

<g transform="translate(0.000000,201.000000) scale(0.100000,-0.100000)"
fill="#000000" stroke="none">
<path d="M2023 1825 c-26 -18 -43 -85 -43 -173 0 -66 -2 -72 -33 -103 -18 -19
-40 -45 -49 -59 -23 -33 -28 -24 -74 119 -25 81 -44 122 -64 143 -32 32 -49
34 -90 13 -51 -26 -53 -126 -7 -285 43 -147 43 -147 9 -155 -74 -16 -93 -80
-42 -138 37 -42 38 -95 5 -135 -2 -2 -24 13 -49 32 -75 57 -144 67 -188 28
-29 -24 -22 -67 21 -130 21 -31 54 -87 72 -124 l33 -68 -22 -45 c-41 -85 -375
-453 -528 -581 -63 -52 -112 -100 -108 -105 7 -11 5 -12 119 82 137 113 480
486 534 581 l27 47 41 -62 c23 -34 46 -81 52 -104 6 -22 46 -89 90 -149 l78
-109 -57 -63 c-53 -59 -140 -190 -140 -212 0 -26 21 -4 59 60 23 39 66 96 96
128 l54 57 81 -85 c45 -47 93 -104 107 -127 24 -41 43 -55 43 -33 0 22 -55 98
-115 160 -86 88 -242 310 -275 392 -15 36 -46 92 -69 125 l-41 58 40 33 c22
19 40 38 40 44 0 5 -19 -7 -42 -26 -23 -20 -45 -36 -50 -36 -18 0 -6 26 20 42
19 12 22 18 10 18 -9 0 -20 -4 -23 -10 -12 -20 -32 -9 -49 26 -9 20 -16 37
-14 38 27 11 45 28 52 49 8 21 4 32 -19 62 -25 33 -31 36 -66 33 -40 -4 -55
14 -23 26 55 21 151 -26 214 -105 22 -28 40 -54 40 -59 0 -4 25 -42 55 -85 49
-68 55 -82 55 -126 0 -66 21 -61 26 6 2 26 10 67 19 89 16 45 45 216 45 269 0
76 -55 169 -127 217 -41 27 -129 400 -94 400 6 0 11 -4 11 -10 0 -35 92 -69
102 -38 3 7 12 -8 21 -34 l15 -47 -41 -10 -42 -10 40 2 40 2 38 -75 c21 -41
64 -138 96 -215 51 -126 59 -140 82 -140 23 0 24 3 26 65 1 46 9 82 27 123 23
53 28 58 48 51 13 -5 36 -8 51 -9 32 0 32 0 47 -135 5 -53 15 -110 21 -128 14
-39 34 -43 25 -4 -4 15 -11 58 -16 95 l-10 68 45 67 c24 37 52 78 62 91 l17
25 6 -25 c4 -13 10 -39 13 -57 6 -30 5 -32 -14 -22 -11 6 -25 9 -32 7 -7 -3
-4 -8 8 -12 32 -12 55 -36 55 -57 0 -22 -27 -24 -58 -2 -14 9 -22 11 -22 4 0
-6 19 -19 41 -28 l41 -16 -6 -101 c-6 -101 2 -172 19 -167 5 1 8 36 6 78 -3
75 -3 76 31 105 40 34 48 35 48 9 0 -11 -7 -20 -15 -20 -14 0 -13 -3 1 -25 17
-26 7 -34 -14 -13 -22 22 -13 -5 10 -29 21 -23 21 -24 6 -100 -13 -64 -14
-105 -7 -223 19 -331 27 -405 53 -491 14 -47 30 -109 37 -137 13 -63 34 -71
26 -9 -3 23 -18 82 -32 132 -16 53 -31 135 -36 200 -5 61 -13 151 -17 200 -5
50 -8 119 -8 154 1 62 2 65 31 74 64 20 172 69 208 94 66 45 80 99 39 146 -21
24 -31 22 -137 -23 -120 -51 -125 -51 -124 3 1 101 6 110 119 202 154 128 177
170 118 225 -38 35 -61 28 -160 -48 -44 -34 -61 -42 -81 -37 -35 9 -66 -10
-84 -53 -19 -45 -33 -28 -33 43 0 49 1 50 83 129 45 44 92 93 105 110 29 39
28 81 -3 111 -48 49 -113 26 -220 -75 -22 -21 -49 -40 -60 -42 -11 -2 -29 -20
-40 -41 -20 -37 -61 -74 -72 -63 -3 3 7 19 21 37 31 36 70 111 80 152 7 31
-14 81 -39 91 -29 11 -65 7 -91 -10 -23 -15 -26 -15 -43 0 -22 20 -70 21 -98
1z m82 -21 c14 -14 14 -19 2 -38 -20 -29 -40 -26 -51 7 -8 22 -7 30 4 37 21
13 26 12 45 -6z m143 0 c42 -29 28 -77 -62 -214 -109 -164 -170 -304 -168
-385 l2 -50 -25 54 c-14 29 -36 85 -50 123 -14 38 -30 78 -35 89 -14 25 -2 46
69 123 31 34 74 92 96 129 39 68 113 147 138 147 7 0 23 -7 35 -16z m-190 -57
c15 -17 14 -22 -13 -73 -19 -36 -32 -50 -37 -41 -10 14 0 111 15 147 9 23 11
23 15 5 2 -11 11 -28 20 -38z m504 16 c39 -45 26 -74 -69 -164 -102 -97 -195
-200 -222 -247 -27 -45 -41 -46 -41 -4 0 26 -21 117 -34 152 -4 10 5 22 26 35
18 10 76 60 128 111 134 129 179 154 212 117z m-816 -30 c7 -10 14 -30 14 -45
0 -21 -5 -28 -20 -28 -28 0 -60 35 -60 65 0 20 5 25 26 25 15 0 33 -8 40 -17z
m992 -229 c24 -16 28 -44 12 -74 -16 -30 -298 -260 -318 -260 -4 0 -7 35 -8
79 l0 78 47 27 c27 15 90 58 140 96 51 39 95 70 98 70 4 0 17 -7 29 -16z
m-564 -20 c9 -22 8 -23 -13 -17 -12 3 -17 11 -14 19 7 19 19 18 27 -2z m-1
-36 c23 -19 32 -64 13 -71 -15 -6 -86 10 -86 19 0 11 23 49 34 56 15 10 20 10
39 -4z m327 -42 c0 -3 -4 -8 -10 -11 -5 -3 -10 -1 -10 4 0 6 5 11 10 11 6 0
10 -2 10 -4z m-749 -129 c47 -31 92 -99 99 -149 6 -47 -12 -208 -32 -275 -15
-53 -22 -48 -95 64 -44 68 -52 87 -47 113 7 30 18 38 29 20 3 -5 14 -10 23
-10 15 0 15 2 2 10 -8 5 -11 10 -6 10 5 0 0 10 -11 23 -32 35 -39 52 -19 44
11 -4 19 -1 23 10 4 11 -5 25 -28 44 -67 56 -69 58 -62 76 17 50 68 58 124 20z
m-60 -114 c13 -16 12 -17 -3 -4 -17 13 -22 21 -14 21 2 0 10 -8 17 -17z m1083
-79 c13 -33 5 -54 -34 -86 -38 -33 -227 -115 -238 -103 -3 3 1 33 9 68 12 52
18 63 38 65 12 2 57 19 99 37 87 37 117 42 126 19z m-1271 -44 c26 -30 27 -60
2 -80 -18 -15 -36 -4 -67 41 -33 46 -34 56 -10 62 37 10 51 6 75 -23z"/>
<path d="M2130 1420 c0 -5 12 -10 28 -10 21 0 24 2 12 10 -20 13 -40 13 -40 0z"/>
<path d="M561 1704 c22 -49 43 -91 45 -94 3 -3 14 5 24 18 10 12 23 22 28 22
13 0 222 -199 222 -211 0 -5 -22 -39 -49 -76 -58 -80 -136 -226 -182 -340 -27
-69 -30 -84 -19 -98 24 -29 42 -11 80 85 20 52 52 122 69 155 41 77 133 215
144 215 23 0 166 -254 217 -385 27 -70 43 -90 64 -82 24 9 20 35 -20 133 -44
110 -107 227 -172 319 l-49 70 36 44 c20 24 72 75 116 113 l79 69 28 -33 c25
-31 27 -32 34 -13 4 11 20 53 36 94 16 40 26 76 24 79 -5 5 -142 -14 -178 -24
-16 -5 -17 -7 -1 -30 15 -24 15 -26 -8 -48 -13 -12 -66 -62 -117 -111 l-92
-89 -53 55 c-28 30 -81 80 -116 111 l-63 57 21 30 21 29 -27 6 c-16 2 -63 8
-105 11 l-78 7 41 -88z"/>
<path d="M1794 1404 c-19 -15 -19 -16 1 -9 11 4 34 11 50 15 l30 8 -31 1 c-16
1 -39 -6 -50 -15z"/>
<path d="M1865 1360 c-3 -5 -20 -14 -38 -19 -30 -9 -31 -9 -6 -10 15 -1 37 8
50 19 13 10 19 19 12 20 -6 0 -15 -4 -18 -10z"/>
</g>
</svg>
