<?xml version="1.0" standalone="no"?>
<!DOCTYPE svg PUBLIC "-//W3C//DTD SVG 20010904//EN"
 "http://www.w3.org/TR/2001/REC-SVG-20010904/DTD/svg10.dtd">
<svg version="1.0" xmlns="http://www.w3.org/2000/svg"
 width="368.000000pt" height="194.000000pt" viewBox="0 0 368.000000 194.000000"
 preserveAspectRatio="xMidYMid meet">

<g transform="translate(0.000000,194.000000) scale(0.100000,-0.100000)"
fill="#000000" stroke="none">
<path d="M1293 1500 c-12 -5 -86 -53 -164 -106 -187 -127 -266 -158 -454 -178
-124 -14 -540 -107 -559 -126 -18 -18 26 -12 176 24 182 43 276 62 413 81 198
28 246 48 444 182 159 108 178 116 233 103 24 -6 94 -15 157 -20 63 -5 119
-14 124 -19 14 -14 30 -14 22 -1 -3 6 1 10 9 10 9 0 16 -8 16 -17 0 -15 2 -16
10 -3 12 19 127 22 155 3 29 -19 58 -16 98 11 40 27 47 25 47 -14 0 -48 -32
-76 -102 -89 -35 -7 -86 -19 -114 -27 -42 -12 -179 -30 -281 -37 -13 -1 -23
-7 -23 -13 0 -15 -31 -41 -55 -47 -16 -4 -17 -5 -2 -6 24 -1 25 -91 1 -91 -9
0 -34 -10 -55 -22 -51 -28 -84 -93 -76 -149 5 -39 4 -40 -56 -83 -34 -24 -86
-56 -115 -70 -30 -15 -52 -30 -49 -32 6 -7 75 28 146 73 52 33 54 34 38 9 -21
-31 -22 -116 -3 -154 8 -15 27 -34 43 -42 15 -8 29 -15 31 -16 2 -1 -5 -19
-16 -41 -11 -21 -23 -53 -27 -70 -3 -18 -10 -35 -13 -37 -10 -5 -208 12 -263
23 -70 15 -215 70 -254 97 -43 29 -82 30 -245 9 -142 -19 -167 -25 -307 -76
-70 -26 -113 -46 -113 -55 0 -18 -5 -19 81 17 104 42 231 77 330 88 46 6 108
13 136 17 47 6 59 3 120 -29 139 -72 317 -116 470 -117 48 0 53 -2 59 -25 8
-34 75 -92 115 -99 58 -12 161 -69 217 -121 73 -68 85 -72 147 -44 11 4 45 17
75 28 126 44 222 81 260 101 79 41 209 131 331 231 30 25 81 56 112 68 l57 23
164 -41 c90 -22 228 -63 307 -91 256 -91 290 -102 296 -96 10 10 -2 16 -99 53
-179 66 -384 131 -529 167 l-145 36 -67 -30 c-36 -16 -88 -49 -115 -72 -139
-121 -296 -219 -432 -271 -58 -22 -134 -51 -170 -64 -110 -42 -111 -42 -171
19 -94 94 -95 88 10 88 88 0 91 -1 92 -22 l0 -23 9 23 c9 20 16 22 87 22 94 0
193 19 193 37 0 14 -1 14 -99 -8 -65 -14 -465 -6 -523 11 -20 6 -50 23 -67 39
-27 25 -31 36 -31 80 0 31 8 69 20 94 l20 43 150 -4 c95 -3 150 -1 150 5 0 13
-81 23 -178 23 -147 0 -218 47 -209 138 3 26 13 53 26 66 22 23 24 23 206 18
135 -3 185 -2 185 7 0 7 -37 11 -117 12 -143 1 -222 11 -234 30 -17 26 -10
105 11 131 33 43 89 59 154 47 59 -12 226 -3 226 12 0 4 -55 10 -122 11 l-123
3 -3 34 c-8 84 21 105 154 116 43 4 126 17 184 30 192 43 270 56 353 56 92 1
122 -3 257 -36 52 -13 151 -33 220 -45 90 -15 151 -32 220 -62 198 -85 528
-176 506 -139 -3 5 -38 16 -78 26 -121 28 -324 94 -405 131 -83 37 -157 59
-243 69 -30 4 -100 18 -155 31 -209 52 -331 65 -433 45 -38 -7 -42 -6 -37 8
40 100 -21 147 -136 105 -26 -9 -76 -15 -121 -15 -93 0 -307 19 -363 31 -49
12 -93 11 -122 0z m688 -34 c-17 -21 -63 -34 -86 -26 -19 7 -19 8 5 18 29 11
59 19 79 21 10 1 11 -2 2 -13z m-416 -1156 c3 -6 -1 -7 -9 -4 -18 7 -21 14 -7
14 6 0 13 -4 16 -10z"/>
<path d="M1046 1268 l-89 -61 36 -19 c42 -21 42 -21 22 -103 -23 -96 -18 -305
10 -376 4 -12 -3 -20 -25 -29 -17 -7 -32 -16 -35 -20 -5 -7 174 -135 180 -128
6 6 26 211 20 216 -2 3 -18 -1 -34 -8 -16 -6 -34 -9 -39 -6 -6 3 -16 39 -22
78 -13 78 -9 195 11 273 10 38 15 46 30 41 67 -21 62 -26 55 50 -11 115 -17
154 -24 153 -4 0 -47 -28 -96 -61z"/>
<path d="M2158 1223 c-2 -60 -2 -111 0 -116 2 -4 13 0 25 8 37 26 45 18 63
-62 20 -92 15 -262 -11 -335 -19 -53 -19 -53 -55 -33 -14 8 -27 14 -30 15 -6
0 -1 -176 5 -207 5 -22 8 -21 78 25 39 26 82 54 95 63 l23 17 -35 20 -35 21
21 68 c29 97 29 299 0 396 l-21 67 41 21 c46 24 53 15 -73 92 -42 26 -78 47
-82 47 -3 0 -7 -48 -9 -107z"/>
</g>
</svg>
