<?xml version="1.0" standalone="no"?>
<!DOCTYPE svg PUBLIC "-//W3C//DTD SVG 20010904//EN"
 "http://www.w3.org/TR/2001/REC-SVG-20010904/DTD/svg10.dtd">
<svg version="1.0" xmlns="http://www.w3.org/2000/svg"
 width="344.000000pt" height="198.000000pt" viewBox="0 0 344.000000 198.000000"
 preserveAspectRatio="xMidYMid meet">

<g transform="translate(0.000000,198.000000) scale(0.100000,-0.100000)"
fill="#000000" stroke="none">
<path d="M2385 1845 c-49 -7 -110 -20 -134 -30 -41 -17 -79 -17 -787 -5 -562
9 -747 10 -758 1 -20 -17 -461 -1129 -452 -1139 10 -9 -9 -54 202 488 63 162
147 373 186 469 l72 173 575 -7 c317 -4 639 -10 716 -14 l140 -6 -75 -29 c-42
-16 -83 -39 -93 -52 l-19 -24 -42 44 c-95 97 -239 60 -287 -74 -14 -40 -19
-45 -44 -42 -17 2 -61 -11 -111 -33 -78 -35 -83 -39 -103 -86 -19 -44 -20 -52
-7 -76 8 -16 19 -47 26 -71 9 -35 18 -46 45 -58 19 -8 51 -14 70 -14 34 0 36
-2 31 -27 -3 -16 -8 -47 -11 -71 l-7 -44 -137 8 c-341 19 -441 9 -566 -54
-144 -72 -331 -327 -420 -572 -30 -83 -95 -315 -95 -338 0 -31 11 -2 30 74 73
307 200 561 363 726 101 101 216 151 372 160 54 3 436 -12 446 -18 3 -1 -1
-47 -8 -101 -25 -170 -5 -266 67 -327 46 -38 93 -35 136 8 28 28 34 42 34 75
0 23 2 41 5 41 14 0 87 -42 111 -65 15 -14 30 -25 34 -25 4 0 28 16 53 35 25
19 50 35 56 35 5 0 19 -28 30 -62 19 -59 61 -208 61 -217 0 -2 -16 12 -35 32
-56 58 -157 74 -199 32 -8 -8 -19 -15 -24 -15 -19 0 -53 -68 -58 -117 -4 -38
0 -57 18 -92 30 -58 65 -83 127 -89 66 -6 130 29 158 88 l20 40 7 -47 c3 -25
6 -101 6 -169 0 -104 2 -124 15 -124 18 0 19 26 5 270 -11 191 -25 262 -91
450 -39 111 -55 199 -64 355 -2 33 -7 94 -10 136 -6 62 -4 82 9 102 10 14 14
32 10 42 -5 13 -3 16 7 13 21 -7 70 -108 76 -159 11 -83 43 -93 67 -20 23 71
20 103 -16 160 -23 39 -40 54 -67 62 -40 12 -109 65 -98 75 13 14 113 16 157
4 32 -9 55 -25 85 -58 99 -114 155 -166 165 -156 7 7 -6 26 -40 59 -28 27 -50
53 -50 57 0 12 -100 102 -127 114 -54 23 -4 21 97 -5 118 -29 118 -29 159
-159 12 -34 32 -82 46 -107 25 -42 25 -45 10 -80 -17 -42 -20 -75 -6 -75 5 0
12 7 15 16 4 9 9 15 11 12 3 -3 -4 -34 -14 -69 -11 -35 -25 -116 -31 -179 -7
-63 -19 -131 -27 -150 -8 -19 -15 -46 -15 -60 -1 -28 74 -282 129 -435 19 -55
42 -120 50 -145 18 -51 43 -86 43 -58 0 8 -20 72 -45 141 -25 69 -71 208 -101
309 -56 183 -56 183 -41 228 9 25 18 59 21 75 2 17 7 47 11 68 l6 37 66 0 66
0 -7 65 -7 65 40 0 c56 0 176 -25 244 -50 71 -27 86 -21 20 8 -59 25 -187 52
-247 52 -25 0 -48 4 -51 10 -10 17 -35 203 -30 221 3 9 -3 79 -14 156 -11 76
-24 182 -27 236 l-7 97 207 0 c131 0 206 4 206 10 0 6 -75 10 -205 10 l-205 0
0 35 c0 40 8 39 -125 20z m113 -82 l-3 -78 -75 -7 c-41 -4 -110 -19 -153 -33
-43 -14 -85 -25 -93 -25 -8 0 -14 -4 -14 -10 0 -13 12 -13 44 0 24 9 26 7 26
-16 0 -22 -3 -24 -22 -18 -13 4 -39 11 -58 15 -19 4 -44 19 -55 32 -11 14 -37
31 -57 38 -70 24 -51 41 118 104 145 54 214 70 307 74 l38 1 -3 -77z m-628
-23 c10 -5 32 -27 49 -48 l30 -39 -32 -66 c-18 -37 -38 -67 -44 -67 -17 0 -16
5 3 41 8 17 13 33 10 36 -14 15 -60 -122 -96 -284 -60 -274 -73 -366 -67 -457
8 -119 -24 -176 -98 -176 -59 0 -106 59 -119 150 -12 83 69 585 124 768 20 68
60 128 94 142 29 12 123 12 146 0z m170 -95 c32 -7 60 -38 60 -68 0 -16 -6
-18 -52 -12 -62 8 -108 -6 -115 -35 -4 -16 -33 -30 -33 -16 0 10 35 86 57 123
21 37 27 41 39 29 7 -8 27 -17 44 -21z m465 -32 c3 -32 14 -113 24 -181 l17
-122 -30 -20 -31 -19 -10 53 c-11 52 -38 106 -54 106 -4 0 -16 18 -26 41 -10
22 -31 50 -47 63 l-28 22 30 34 c16 18 32 41 35 51 6 18 27 25 82 28 31 1 32
0 38 -56z m-140 27 c0 -7 -13 -30 -30 -51 -22 -28 -35 -36 -50 -32 -27 7 -33
14 -37 43 -3 22 3 27 47 42 55 18 70 18 70 -2z m-755 -67 c-1 -21 -22 -35 -88
-58 -56 -19 -77 -23 -92 -15 -11 6 -20 13 -20 16 0 3 28 18 63 34 58 26 137
40 137 23z m-21 -70 c-2 -47 -25 -118 -38 -118 -10 0 -51 83 -51 103 0 5 64
31 78 32 6 0 12 -8 11 -17z m349 -8 c16 -3 44 -22 63 -42 l34 -35 -35 17 c-19
10 -38 22 -42 28 -4 7 -25 5 -65 -5 -32 -9 -58 -16 -59 -15 0 1 3 17 8 35 8
30 12 33 38 28 17 -3 43 -8 58 -11z m-481 -13 c27 -3 35 -11 49 -49 16 -41 16
-46 1 -79 -10 -19 -17 -43 -17 -54 0 -27 -11 -30 -46 -15 -26 11 -34 23 -54
84 -19 61 -21 75 -10 101 9 23 17 29 29 24 9 -4 30 -9 48 -12z m453 -41 c0 -6
-15 -35 -33 -66 -32 -51 -35 -54 -50 -38 -11 13 -14 27 -9 52 6 27 15 37 42
47 44 16 50 16 50 5z m198 -83 c19 -40 20 -47 8 -93 -13 -49 -13 -49 -21 -20
-3 17 -13 50 -21 74 -18 58 -19 108 -1 93 7 -6 23 -31 35 -54z m-200 -19 c-10
-7 -9 -9 3 -9 12 0 19 -17 28 -69 26 -161 8 -259 -53 -286 -18 -8 -24 -14 -14
-14 29 -2 48 11 65 43 l16 31 10 -28 c7 -23 6 -32 -11 -47 -17 -16 -36 -19
-116 -18 l-96 0 0 30 c0 70 41 233 69 273 15 22 45 69 67 105 l39 65 3 -34 c2
-20 -2 -37 -10 -42z m58 56 c4 -8 3 -23 0 -32 -6 -15 -8 -15 -16 -3 -13 20
-12 50 0 50 6 0 13 -7 16 -15z m-411 -62 c-9 -52 -55 -87 -55 -43 0 31 28 80
46 80 13 0 15 -7 9 -37z m889 21 c3 -8 2 -12 -4 -9 -6 3 -10 10 -10 16 0 14 7
11 14 -7z m-624 -69 c-19 -35 -30 -31 -19 7 5 18 9 35 9 37 0 3 5 0 12 -7 9
-9 8 -17 -2 -37z m735 -145 c8 -58 16 -130 17 -160 l3 -55 -59 -3 -58 -3 7 62
c4 34 14 78 22 97 11 26 13 54 8 107 -7 68 -6 73 16 89 23 16 24 16 27 -6 1
-13 9 -70 17 -128z m-655 -218 c22 -10 24 -87 3 -149 l-16 -51 -28 28 c-16 15
-48 36 -73 46 -27 11 -47 27 -50 39 -8 28 -7 80 1 88 8 9 143 8 163 -1z m78
-62 c13 -59 12 -62 -10 -81 -33 -28 -58 -41 -58 -31 0 5 7 25 15 45 11 27 12
42 4 66 -8 24 -8 35 1 46 23 28 36 15 48 -45z m33 -307 c44 -22 69 -68 69
-128 0 -69 -26 -115 -81 -143 -105 -55 -209 14 -209 138 0 62 20 101 67 130
54 33 93 33 154 3z"/>
<path d="M1422 1448 c-16 -16 -15 -70 1 -92 16 -21 45 -18 61 6 22 36 -34 114
-62 86z m37 -22 c17 -20 10 -71 -9 -71 -17 0 -36 46 -27 69 8 20 21 20 36 2z"/>
<path d="M1854 496 c-28 -28 -34 -42 -34 -76 0 -34 6 -48 34 -76 73 -73 176
-25 176 81 0 29 -8 45 -34 71 -47 47 -95 47 -142 0z m128 -3 c25 -23 31 -66
14 -106 -30 -73 -118 -79 -154 -10 -47 88 66 182 140 116z"/>
</g>
</svg>
