<svg version="1.1" id="Layer_1" xmlns="http://www.w3.org/2000/svg" xmlns:xlink="http://www.w3.org/1999/xlink" x="0px" y="0px"
	 width="100%" viewBox="0 0 346 202" enable-background="new 0 0 346 202" xml:space="preserve">
<path fill="none" opacity="1.000000" stroke="#000000" stroke-linecap="round" stroke-linejoin="round" stroke-width="2.000000"
	d="
M126.000000,33.500000 
	C123.823944,33.455353 121.622154,33.745338 119.270172,32.869404 
	C117.292870,38.116882 112.720085,38.183231 108.031097,39.150711 
	C89.621773,42.949104 71.333336,47.333336 53.000000,51.500000 
	C49.333332,52.333336 45.694729,53.337769 41.991016,53.945225 
	C39.089787,54.421062 38.659008,55.771042 38.918350,58.507736 
	C39.729370,67.066002 41.413174,75.493080 42.440620,84.007164 
	C43.845051,95.645134 44.873692,107.329468 45.991665,119.000801 
	C48.376675,143.899643 58.959698,164.019638 81.581085,175.844879 
	C101.817413,186.423325 123.589653,189.887329 146.524567,187.210434 
	C157.040466,185.983078 167.377441,184.521347 177.500000,181.500000 
"/>
<path fill="none" opacity="1.000000" stroke="#000000" stroke-linecap="round" stroke-linejoin="round" stroke-width="2.000000"
	d="
M69.500000,89.500000 
	C65.371994,94.977547 63.215317,101.195747 63.031300,108.000847 
	C62.665695,121.521263 64.516228,134.824234 72.667542,145.876434 
	C80.607841,156.642517 91.865891,163.337906 105.002144,166.491074 
	C124.827255,171.249817 144.668152,171.423325 164.497345,166.489349 
	C166.184006,166.069687 167.833328,165.500000 169.500000,165.000000 
"/>
<path fill="none" opacity="1.000000" stroke="#000000" stroke-linecap="round" stroke-linejoin="round" stroke-width="3.000000"
	d="
M170.000000,42.000000 
	C171.812454,45.411057 175.205505,46.305698 178.481857,47.547863 
	C182.072372,48.909138 185.144257,51.243923 189.514709,50.599773 
	C200.541794,48.974518 208.328003,55.970009 215.897308,62.126266 
	C227.778458,71.789421 239.265793,82.055344 252.122559,90.309082 
	C264.892242,98.506920 277.000610,107.674400 290.016052,115.473213 
	C291.732452,116.501694 293.666656,117.166672 295.500000,118.000008 
"/>
<path fill="none" opacity="1.000000" stroke="#000000" stroke-linecap="round" stroke-linejoin="round" stroke-width="2.000000"
	d="
M291.500000,117.000000 
	C287.713379,128.667740 279.206024,136.514771 269.442627,142.912445 
	C253.077072,153.636292 235.148178,161.334473 217.000000,168.500000 
"/>
<path fill="none" opacity="1.000000" stroke="#000000" stroke-linecap="round" stroke-linejoin="round" stroke-width="3.000000"
	d="
M181.500000,22.499998 
	C180.826035,22.181459 180.152084,21.862921 179.077820,21.355183 
	C181.903091,18.593082 183.947983,20.336836 186.000092,21.999891 
	C193.280472,27.900057 201.375351,32.282173 209.953369,36.104633 
	C229.439011,44.787640 249.738922,51.051952 269.984772,57.547504 
	C277.911224,60.090588 285.666656,63.166668 293.500000,66.000000 
"/>
<path fill="none" opacity="1.000000" stroke="#000000" stroke-linecap="round" stroke-linejoin="round" stroke-width="2.000000"
	d="
M145.000000,61.500004 
	C133.166672,64.500008 121.317436,67.438988 109.504723,70.518112 
	C98.862701,73.292076 87.681328,74.586418 78.499741,81.499649 
	C77.168297,82.502167 75.833336,83.500000 74.500000,84.500000 
"/>
<path fill="none" opacity="1.000000" stroke="#000000" stroke-linecap="round" stroke-linejoin="round" stroke-width="3.000000"
	d="
M173.500000,83.500000 
	C176.833328,79.833328 180.174667,76.173866 183.492142,72.492920 
	C184.047791,71.876404 184.363434,70.940674 185.024780,70.541016 
	C187.299896,69.166168 189.912796,66.570015 192.382019,68.640686 
	C195.368271,71.144920 192.725006,73.770454 190.989777,75.992012 
	C188.362244,79.355919 185.891998,82.883896 182.941895,85.943977 
	C179.403091,89.614693 178.044937,93.698067 179.568359,98.478210 
	C180.351547,100.935661 180.407150,103.482567 179.373795,105.433136 
	C177.327499,109.295708 178.614334,111.838501 180.906418,115.066452 
	C189.860077,127.675926 201.094284,138.461121 209.568268,151.455490 
	C212.931763,156.613205 214.631302,162.422455 216.304031,168.058167 
	C219.751694,179.673965 228.734253,184.977600 238.581314,189.315430 
	C241.284378,190.506180 244.474411,191.258759 247.500000,192.000000 
"/>
<path fill="none" opacity="1.000000" stroke="#000000" stroke-linecap="round" stroke-linejoin="round" stroke-width="2.000000"
	d="
M162.000000,41.500000 
	C163.603210,40.698730 165.325500,41.016384 167.000015,41.013668 
	C172.111298,41.005383 173.846619,38.334457 173.620331,32.994900 
	C173.343903,26.471933 170.228241,20.391062 165.330002,18.423107 
	C156.678406,14.947162 147.620377,10.117939 137.499405,13.498202 
	C131.198105,15.602742 125.025955,25.931337 126.593155,32.477699 
	C127.346535,35.624626 130.291580,38.000038 130.500000,41.500000 
"/>
<path fill="none" opacity="1.000000" stroke="#000000" stroke-linecap="round" stroke-linejoin="round" stroke-width="3.000000"
	d="
M164.000000,80.000000 
	C157.657959,75.671021 154.996216,69.328827 155.151505,62.003212 
	C155.220673,58.740078 152.891388,57.817005 151.386581,56.099361 
	C150.962585,55.615395 148.398621,55.984707 148.136566,56.561996 
	C147.145447,58.745495 145.369080,60.547989 145.884964,63.519966 
	C146.885666,69.285027 148.620163,75.246696 145.895432,80.950043 
	C145.103104,82.608543 145.628998,83.908981 146.085693,84.962868 
	C151.172119,96.700729 155.140076,108.842110 158.893127,121.032898 
	C160.681381,126.841537 161.615707,132.961395 162.442383,139.007874 
	C164.275208,152.413559 169.631561,164.536194 175.514969,176.492630 
	C177.587952,180.705399 179.833328,184.833328 182.000000,189.000000 
"/>
<path fill="none" opacity="1.000000" stroke="#000000" stroke-linecap="round" stroke-linejoin="round" stroke-width="2.000000"
	d="
M156.000000,114.500008 
	C154.666672,114.666672 153.337326,114.882492 151.999298,114.991463 
	C146.305466,115.455162 143.269562,117.972748 142.999985,122.500000 
	C142.773041,126.311539 145.818008,129.412262 151.003647,130.482315 
	C154.022079,131.105179 157.041763,130.918518 160.000000,130.000000 
"/>
<path fill="none" opacity="1.000000" stroke="#000000" stroke-linecap="round" stroke-linejoin="round" stroke-width="2.000000"
	d="
M276.000000,107.000000 
	C274.062653,109.125061 274.147552,112.046143 273.056549,114.524895 
	C268.736816,124.339355 260.229614,129.513519 251.500000,134.500000 
"/>
<path fill="none" opacity="1.000000" stroke="#000000" stroke-linecap="round" stroke-linejoin="round" stroke-width="2.000000"
	d="
M243.500000,139.500000 
	C233.308380,144.860519 222.708771,149.303085 212.000000,153.500000 
"/>
<path fill="none" opacity="1.000000" stroke="#000000" stroke-linecap="round" stroke-linejoin="round" stroke-width="2.000000"
	d="
M157.500000,118.500000 
	C155.000000,118.586578 152.566269,117.488289 149.978897,118.442810 
	C147.931641,119.198074 146.672775,120.154419 146.447388,122.494934 
	C146.231506,124.736740 147.174957,125.948219 148.980698,127.032166 
	C152.711456,129.271637 156.333328,127.848503 160.000000,127.000000 
"/>
<path fill="none" opacity="1.000000" stroke="#000000" stroke-linecap="round" stroke-linejoin="round" stroke-width="2.000000"
	d="
M146.000000,69.500000 
	C142.666672,70.500000 139.359222,71.599915 135.992859,72.472473 
	C132.481812,73.382530 133.097198,75.003082 134.950562,77.004616 
	C138.934784,76.633324 142.472076,74.438225 146.500000,74.500000 
"/>
<path fill="none" opacity="1.000000" stroke="#000000" stroke-linecap="round" stroke-linejoin="round" stroke-width="2.000000"
	d="
M190.500000,23.000000 
	C192.500000,20.748631 194.942612,22.252089 196.424271,23.128090 
	C203.262573,27.171137 209.772873,31.765759 216.557816,35.905239 
	C217.727631,36.618942 217.314438,37.259449 217.500000,38.000000 
"/>
<path fill="none" opacity="1.000000" stroke="#000000" stroke-linecap="round" stroke-linejoin="round" stroke-width="2.000000"
	d="
M113.000000,39.000000 
	C113.460373,44.098370 115.468536,48.012672 121.005066,48.970707 
	C123.398262,49.384819 124.373398,51.794189 126.500000,52.500000 
"/>
<path fill="none" opacity="1.000000" stroke="#000000" stroke-linecap="round" stroke-linejoin="round" stroke-width="2.000000"
	d="
M145.500000,48.500000 
	C139.678848,55.114517 134.539307,56.503578 127.000000,53.500000 
"/>
<path fill="none" opacity="1.000000" stroke="#000000" stroke-linecap="round" stroke-linejoin="round" stroke-width="3.000000"
	d="
M163.500000,54.000000 
	C164.452087,59.344757 164.880630,64.505562 160.049393,68.558884 
	C159.042648,69.403526 158.666656,71.000000 158.000000,72.250000 
"/>
<path fill="none" opacity="1.000000" stroke="#000000" stroke-linecap="round" stroke-linejoin="round" stroke-width="2.000000"
	d="
M127.500000,52.000000 
	C130.558517,49.363003 132.631042,45.283848 137.013382,44.583740 
	C140.019684,44.103451 143.222794,44.836796 146.142334,42.698296 
	C142.995621,40.229530 145.514694,36.326046 143.548889,32.638371 
	C139.458710,35.629219 134.304550,35.638714 129.500000,37.000000 
"/>
<path fill="none" opacity="1.000000" stroke="#000000" stroke-linecap="round" stroke-linejoin="round" stroke-width="3.000000"
	d="
M166.500000,67.500000 
	C165.635834,62.348888 168.830643,58.400436 170.703934,53.931965 
	C170.999985,53.833294 171.597946,53.400810 171.984116,53.543098 
	C174.509323,54.473492 179.145309,52.895226 179.206772,56.504993 
	C179.276825,60.620823 177.116440,65.329697 173.842468,67.790398 
	C169.405045,71.125549 169.414948,77.363998 164.562012,80.109612 
	C164.324661,80.243896 163.914825,82.204117 165.009872,82.986168 
	C166.581589,84.108650 166.686539,85.988953 167.500000,87.500000 
"/>
<path fill="none" opacity="1.000000" stroke="#000000" stroke-linecap="round" stroke-linejoin="round" stroke-width="2.000000"
	d="
M157.500000,31.500000 
	C152.860397,31.355431 149.510742,35.241905 145.000000,35.500000 
"/>
<path fill="none" opacity="1.000000" stroke="#000000" stroke-linecap="round" stroke-linejoin="round" stroke-width="2.000000"
	d="
M158.000000,36.499996 
	C154.316757,38.469704 150.633530,40.439411 146.945755,42.411541 
	C149.987228,47.371571 152.966873,47.760220 158.500000,44.000000 
"/>
<path fill="none" opacity="1.000000" stroke="#000000" stroke-linecap="round" stroke-linejoin="round" stroke-width="2.000000"
	d="
M169.500000,45.000000 
	C166.848511,48.389477 170.231171,50.714108 171.000000,53.500000 
"/>
<path fill="none" opacity="1.000000" stroke="#000000" stroke-linecap="round" stroke-linejoin="round" stroke-width="2.000000"
	d="
M144.000000,23.500000 
	C141.913376,25.811676 140.761032,28.356924 142.000000,31.500000 
"/>
<path fill="none" opacity="1.000000" stroke="#000000" stroke-linecap="round" stroke-linejoin="round" stroke-width="3.000000"
	d="
M164.000000,45.500000 
	C165.524231,52.887764 159.963730,56.122417 155.500000,60.000000 
"/>
<path fill="none" opacity="1.000000" stroke="#000000" stroke-linecap="round" stroke-linejoin="round" stroke-width="3.000000"
	d="
M179.500000,20.500000 
	C175.366714,19.721863 171.277298,18.578024 167.000000,19.000000 
"/>
<path fill="none" opacity="1.000000" stroke="#000000" stroke-linecap="round" stroke-linejoin="round" stroke-width="3.000000"
	d="
M186.500000,69.000000 
	C186.087509,66.640282 187.731812,64.966156 188.512253,62.968098 
	C187.838165,61.328499 186.671494,60.161835 185.042221,59.491993 
	C181.947205,60.078686 181.097153,64.328583 177.500000,64.000000 
"/>
<path fill="none" opacity="1.000000" stroke="#000000" stroke-linecap="round" stroke-linejoin="round" stroke-width="2.000000"
	d="
M184.500000,52.000000 
	C183.251999,53.713322 181.047104,53.034412 179.500000,54.000000 
"/>
<path fill="none" opacity="1.000000" stroke="#000000" stroke-linecap="round" stroke-linejoin="round" stroke-width="2.000000"
	d="
M129.000000,43.500004 
	C127.500000,45.000004 126.000000,46.500004 124.500000,48.000004 
"/>
</svg>