<?xml version="1.0" standalone="no"?>
<!DOCTYPE svg PUBLIC "-//W3C//DTD SVG 20010904//EN"
 "http://www.w3.org/TR/2001/REC-SVG-20010904/DTD/svg10.dtd">
<svg version="1.0" xmlns="http://www.w3.org/2000/svg"
 width="345.000000pt" height="195.000000pt" viewBox="0 0 345.000000 195.000000"
 preserveAspectRatio="xMidYMid meet">

<g transform="translate(0.000000,195.000000) scale(0.100000,-0.100000)"
fill="#000000" stroke="none">
<path d="M1655 1863 c-69 -15 -123 -36 -271 -105 -22 -10 -146 13 -169 32 -5
4 -35 16 -66 25 l-56 18 -59 -31 c-33 -17 -216 -102 -409 -190 -192 -88 -351
-165 -353 -171 -2 -6 34 6 80 28 46 21 214 97 373 170 160 73 308 142 331 153
39 20 89 20 104 0 3 -4 41 -18 85 -30 44 -13 81 -25 83 -27 2 -2 -6 -14 -17
-27 -58 -62 -64 -232 -10 -308 9 -14 20 -51 24 -83 l6 -57 -53 21 c-29 11 -89
35 -133 54 -135 55 -219 70 -395 69 -133 -1 -169 -5 -250 -26 -89 -24 -245
-86 -237 -95 2 -2 40 11 83 28 222 90 458 109 665 55 79 -21 312 -114 321
-129 4 -7 8 -33 8 -59 l0 -47 -35 6 c-28 4 -41 1 -58 -15 -12 -11 -34 -24 -49
-27 -35 -9 -44 -21 -67 -86 l-18 -54 -59 -6 c-33 -3 -79 -12 -104 -21 -125
-43 -149 -48 -245 -49 -90 0 -116 4 -259 45 -87 25 -165 46 -172 46 -20 0 -17
-18 4 -24 319 -93 343 -98 449 -92 73 4 127 14 194 36 51 16 112 30 136 30 37
0 43 -3 43 -21 0 -16 -6 -20 -27 -18 -52 4 -93 -1 -93 -11 0 -5 17 -10 38 -10
70 0 192 -23 192 -36 0 -7 4 -16 10 -19 6 -4 9 3 7 16 -3 30 20 36 26 7 4 -22
4 -22 6 -2 1 17 9 23 36 26 31 4 34 2 29 -18 -7 -26 19 -54 50 -54 28 0 56 29
56 58 0 12 5 22 10 22 20 0 9 -47 -18 -73 -42 -40 -99 -56 -199 -54 -93 1
-111 -4 -172 -54 -19 -15 -82 -45 -142 -65 -83 -29 -106 -41 -98 -51 8 -9 1
-27 -25 -67 -41 -61 -71 -74 -116 -51 -46 24 -188 54 -296 64 -55 4 -102 6
-106 4 -23 -13 2 -21 79 -27 139 -11 303 -47 303 -65 0 -4 -24 -13 -52 -20
-63 -16 -319 -110 -332 -122 -28 -26 17 -17 130 26 70 26 178 62 241 80 124
36 142 47 180 113 37 63 83 80 83 31 0 -23 4 -24 37 -1 15 9 45 22 68 28 22 7
69 24 105 39 48 21 91 30 165 35 121 10 128 12 185 65 48 45 113 75 158 74
l27 0 -24 -12 c-21 -10 -23 -16 -19 -59 4 -41 2 -51 -14 -59 -11 -6 -21 -9
-22 -7 -2 2 -8 12 -15 23 -11 18 -12 17 -6 -10 6 -29 6 -29 -10 -10 -16 20
-16 19 -11 -6 4 -20 -1 -30 -23 -47 -16 -12 -49 -47 -73 -79 -57 -75 -60 -80
-48 -88 5 -3 30 22 55 57 26 34 55 68 64 75 17 11 19 9 24 -25 8 -48 0 -81
-29 -112 -12 -14 -26 -37 -29 -52 -4 -14 -15 -34 -26 -44 -23 -21 -25 -96 -4
-134 20 -35 19 -40 -14 -40 -16 0 -34 -7 -41 -15 -7 -8 -19 -15 -26 -15 -8 0
-14 -4 -14 -10 0 -5 -6 -10 -14 -10 -7 0 -19 -6 -25 -14 -7 -8 -20 -12 -30 -9
-28 7 -16 53 14 53 36 0 68 47 60 87 -5 29 -3 34 19 43 28 10 42 46 31 79 -5
16 -1 22 19 27 14 3 26 12 26 20 0 19 0 19 -82 -16 -38 -16 -75 -30 -82 -30
-21 0 -171 -76 -294 -149 -74 -44 -137 -90 -171 -125 -71 -74 -41 -76 37 -2
55 51 168 123 293 187 48 24 64 28 75 18 19 -16 19 -50 -1 -43 -8 3 -19 3 -25
-1 -16 -10 46 -57 71 -53 12 2 24 -2 26 -8 5 -15 -35 -25 -65 -17 -16 4 -22 1
-22 -11 0 -10 9 -16 25 -16 40 0 27 -30 -27 -63 -32 -20 -35 -32 -12 -41 9 -3
25 4 40 19 28 28 40 31 46 13 3 -8 14 -3 30 14 26 29 38 28 38 -4 0 -20 26
-25 33 -5 3 9 9 9 26 0 25 -15 151 -17 151 -3 0 6 6 10 14 10 8 0 31 19 50 42
30 34 36 49 36 86 0 39 -5 50 -39 82 -26 25 -57 42 -90 51 -28 7 -51 16 -51
20 0 21 14 39 30 39 36 0 77 78 50 95 -5 3 -10 21 -10 38 0 32 1 32 39 29 33
-3 42 0 56 22 11 16 15 35 11 54 -6 24 -1 32 34 61 27 22 40 40 40 57 0 34
-42 74 -78 74 -25 0 -29 3 -25 23 3 14 -2 29 -11 36 -9 8 -16 26 -16 42 l0 28
106 -47 c81 -35 110 -43 123 -35 25 15 24 46 -1 69 -27 25 -193 96 -223 97
-11 0 -29 13 -41 31 -17 26 -26 31 -56 29 -33 -2 -37 1 -43 28 -4 16 -17 36
-29 45 -17 10 -22 21 -18 39 2 14 5 25 7 25 3 0 73 -28 540 -217 485 -196 626
-264 749 -358 52 -39 68 -45 41 -15 -30 34 -171 119 -289 176 -61 29 -320 138
-576 242 l-465 188 -3 34 c-6 62 8 116 38 150 l29 32 63 -47 c57 -43 66 -46
103 -40 41 6 42 5 81 -47 71 -95 140 -128 269 -128 137 0 195 33 195 110 0 21
8 48 19 61 10 13 20 31 22 40 3 14 47 1 264 -77 143 -52 264 -94 270 -94 31 0
-40 29 -280 115 -216 78 -277 104 -305 130 -28 27 -41 32 -66 28 -18 -3 -35 0
-38 5 -4 6 -11 48 -17 94 -12 100 -38 162 -86 206 -58 56 -105 72 -208 71 -49
-1 -99 -3 -110 -6z m219 -23 c102 -39 161 -127 167 -250 3 -68 2 -70 -36 -86
-42 -17 -100 -18 -139 -1 -27 12 -31 20 -42 83 -7 38 -15 77 -19 87 -6 14 -2
17 25 17 18 0 29 4 25 10 -9 15 -64 12 -146 -9 -153 -39 -218 -88 -233 -172
-4 -21 -13 -42 -21 -49 -21 -17 -153 -9 -165 10 -14 22 -11 119 4 163 19 51
35 67 98 99 224 111 367 141 482 98z m-85 -168 c12 -23 25 -92 17 -92 -17 0
-135 75 -128 82 6 6 64 23 94 27 4 1 12 -7 17 -17z m-91 -49 c58 -32 72 -49
72 -84 0 -51 -19 -51 -103 -1 -70 43 -77 49 -72 72 12 47 38 51 103 13z m-162
-67 c-48 -47 -65 -49 -21 -2 14 15 25 31 25 36 0 5 8 16 18 26 15 16 17 16 20
2 2 -9 -17 -37 -42 -62z m130 -32 c85 -53 94 -76 44 -118 l-30 -25 -80 55
c-44 30 -82 59 -85 64 -7 12 44 70 62 70 8 0 49 -21 89 -46z m144 27 c0 -26
-16 -35 -24 -15 -10 25 -7 34 9 34 8 0 15 -9 15 -19z m20 -39 c0 -31 144 -43
190 -17 32 18 40 18 40 0 0 -9 -14 -16 -37 -20 -63 -10 -83 -23 -99 -62 -30
-71 -29 -97 6 -148 17 -25 38 -49 46 -52 24 -9 15 -23 -16 -23 -38 0 -117 26
-155 52 -28 19 -95 99 -95 114 0 4 16 24 35 45 19 21 37 51 41 66 4 16 11 34
17 41 11 14 27 16 27 4z m-64 -53 c-8 -19 -15 -29 -15 -22 -1 18 19 67 25 61
3 -3 -2 -21 -10 -39z m-183 -27 c79 -53 86 -70 27 -62 -11 1 -78 46 -129 86
-2 2 -1 10 3 19 7 19 7 19 99 -43z m601 8 c20 -22 36 -43 36 -46 0 -3 -9 -17
-20 -31 -12 -15 -20 -41 -20 -63 0 -34 -3 -38 -31 -44 -61 -12 -89 -7 -98 17
-5 12 -23 35 -40 51 -35 33 -38 51 -17 101 14 33 18 35 63 35 26 0 55 5 63 10
22 14 25 13 64 -30z m-210 -37 c-13 -46 -38 -73 -52 -58 -10 10 22 87 42 100
11 8 21 13 22 12 2 -2 -4 -26 -12 -54z m-524 37 c0 -28 -90 -41 -131 -20 -35
19 -20 26 56 25 41 0 75 -2 75 -5z m-45 -79 c-4 -14 -9 -123 -12 -241 -4 -199
-11 -246 -30 -226 -5 4 -11 96 -15 204 -4 108 -10 220 -14 247 l-6 51 42 -4
c40 -4 42 -6 35 -31z m578 -33 c45 -23 73 -78 57 -109 -16 -28 -29 -24 -77 26
-47 49 -53 68 -25 84 22 13 19 13 45 -1z m166 -103 c-17 -17 -97 -36 -104 -25
-8 12 13 23 65 36 51 12 60 10 39 -11z m-845 -111 c13 -5 16 -24 16 -108 0
-55 -4 -106 -8 -112 -4 -6 -22 -14 -41 -17 l-34 -7 7 52 c3 29 6 79 6 110 0
38 5 62 16 72 18 18 17 18 38 10z m126 -20 c6 -14 10 -63 10 -110 0 -77 -2
-84 -20 -84 -19 0 -20 7 -20 110 0 110 10 138 30 84z m-210 -101 c0 -116 -4
-123 -56 -123 -24 0 -44 2 -44 5 0 3 9 37 20 76 22 80 43 119 65 119 12 0 15
-16 15 -77z m323 19 c9 -22 16 -78 18 -131 l3 -92 -43 -20 c-60 -27 -65 -25
-57 19 4 20 7 83 6 139 -1 57 1 107 5 113 3 5 17 10 30 10 17 0 27 -9 38 -38z
m173 -56 c42 -19 85 -41 96 -50 39 -34 5 -34 -75 0 -123 53 -131 58 -135 78
-5 22 3 20 114 -28z m26 -66 c32 -13 56 -26 53 -28 -10 -10 -202 75 -208 93
-3 7 18 0 46 -15 29 -15 78 -38 109 -50z m-322 -42 c0 -47 -45 -71 -75 -41
-17 16 -16 18 9 40 36 30 66 30 66 1z m268 -126 c-3 -26 -50 -63 -63 -50 -4 4
-8 21 -8 39 -2 27 2 34 23 39 37 10 51 1 48 -28z m-268 18 c0 -5 -5 -10 -11
-10 -5 0 -7 5 -4 10 3 6 8 10 11 10 2 0 4 -4 4 -10z m-18 -27 c26 -24 23 -31
-23 -43 -33 -9 -44 -9 -51 2 -8 10 -11 10 -15 1 -6 -15 -59 -17 -68 -3 -9 15
-25 12 -25 -5 0 -18 -16 -20 -24 -2 -3 9 -8 8 -18 -3 -13 -15 -188 -90 -210
-90 -6 0 -16 -8 -23 -17 -11 -15 -14 -15 -39 4 l-26 21 52 17 c74 24 128 53
161 83 26 25 35 27 139 29 60 2 118 8 127 13 21 13 22 13 43 -7z m218 -117 c0
-30 -23 -50 -50 -41 -28 9 -25 32 8 49 37 21 42 20 42 -8z m-244 -281 c8 -21
-14 -45 -40 -45 -11 1 -34 7 -51 14 l-30 13 45 15 c58 21 69 21 76 3z m177
-29 c18 -7 46 -28 61 -47 38 -45 32 -98 -18 -148 -33 -32 -41 -36 -104 -39
-71 -4 -150 18 -137 38 8 14 38 13 53 -2 6 -6 34 -12 62 -12 88 0 136 57 106
127 -18 43 -48 64 -101 71 -22 2 -41 5 -43 5 -2 1 0 6 3 11 9 14 80 12 118 -4z
m-287 -23 c39 -18 39 -18 27 -53 -6 -19 -12 -27 -12 -17 -1 21 -19 23 -27 2
-4 -8 -12 -15 -20 -15 -19 0 -18 10 4 26 16 12 16 15 0 44 -20 35 -21 35 28
13z m275 -33 c23 -23 29 -35 24 -52 -10 -33 -45 -58 -83 -58 -30 0 -32 2 -21
21 9 17 8 24 -2 31 -10 6 -7 7 9 3 13 -4 22 -2 22 4 0 6 -6 11 -14 11 -21 0
-46 28 -46 51 0 16 7 19 41 19 32 0 47 -6 70 -30z m-211 -33 c0 -23 -16 -55
-23 -47 -2 3 -2 22 1 42 4 39 22 43 22 5z m211 -87 c-24 -20 -114 -29 -125
-12 -2 4 20 8 50 8 29 0 59 5 66 12 7 7 17 12 23 12 5 -1 -1 -10 -14 -20z"/>
<path d="M2057 1402 c-22 -25 -21 -55 2 -76 27 -25 72 -17 90 15 13 24 13 29
-2 53 -21 31 -66 35 -90 8z m71 -4 c27 -27 7 -78 -29 -78 -21 0 -49 26 -49 45
0 35 53 58 78 33z"/>
<path d="M1090 150 c0 -19 5 -30 14 -30 22 0 28 17 16 40 -16 29 -30 25 -30
-10z"/>
<path d="M1090 31 c0 -19 23 -35 34 -24 14 15 5 43 -14 43 -13 0 -20 -7 -20
-19z"/>
</g>
</svg>
