<?xml version="1.0" standalone="no"?>
<!DOCTYPE svg PUBLIC "-//W3C//DTD SVG 20010904//EN"
 "http://www.w3.org/TR/2001/REC-SVG-20010904/DTD/svg10.dtd">
<svg version="1.0" xmlns="http://www.w3.org/2000/svg"
 width="346.000000pt" height="201.000000pt" viewBox="0 0 346.000000 201.000000"
 preserveAspectRatio="xMidYMid meet">

<g transform="translate(0.000000,201.000000) scale(0.100000,-0.100000)"
fill="#000000" stroke="none">
<path d="M1375 1960 c-11 -4 -26 -19 -34 -33 -12 -22 -17 -24 -38 -16 -33 12
-71 -7 -92 -46 -15 -27 -80 -136 -86 -143 -1 -1 -14 3 -28 9 -41 19 -67 -6
-171 -164 -52 -78 -117 -169 -145 -202 -65 -78 -176 -243 -218 -325 -61 -122
-173 -360 -173 -371 0 -5 -22 -64 -49 -130 -46 -111 -87 -186 -206 -374 -48
-76 -52 -85 -32 -85 6 1 32 33 55 73 24 40 72 118 107 175 42 68 79 146 109
230 25 70 65 165 90 212 24 47 58 121 77 165 50 120 129 247 248 398 71 89 87
104 102 96 10 -5 24 -9 31 -9 7 1 0 8 -15 16 -34 19 -25 38 15 30 18 -3 27 -2
23 4 -3 6 -15 10 -26 10 -17 0 -15 6 17 55 32 48 39 53 56 44 11 -6 22 -8 25
-6 2 3 -5 8 -16 12 -12 3 -21 10 -21 13 0 6 18 36 36 60 4 6 44 -23 44 -32 0
-16 -112 -199 -152 -248 -21 -26 -34 -49 -29 -52 12 -8 85 73 110 121 15 30
214 356 226 371 2 2 14 -7 28 -20 23 -22 24 -25 11 -51 -16 -29 -25 -32 -55
-17 -12 7 -19 7 -19 1 0 -5 9 -13 20 -16 27 -9 25 -25 -10 -74 -17 -23 -38
-57 -47 -76 -15 -32 -18 -33 -37 -19 -24 16 -36 18 -36 4 0 -5 6 -10 13 -10
19 0 36 -20 30 -36 -6 -15 -43 -19 -59 -6 -5 4 2 -3 15 -15 25 -22 25 -23 8
-57 -9 -19 -33 -53 -53 -76 -41 -45 -39 -65 4 -34 17 12 52 70 92 150 36 71
77 145 91 164 15 19 49 79 77 133 45 89 51 97 65 83 27 -27 61 -20 76 17 10
24 15 28 18 15 2 -10 -10 -48 -28 -85 -17 -38 -47 -106 -66 -152 -18 -46 -43
-96 -53 -111 -11 -16 -35 -64 -54 -108 -19 -45 -41 -91 -49 -104 -24 -38 -30
-68 -14 -68 9 0 34 45 66 120 29 66 62 136 75 154 12 19 29 48 36 65 11 29 16
31 44 26 l31 -6 -27 16 c-25 14 -26 18 -16 46 9 26 15 30 36 26 17 -3 32 2 49
19 l23 23 0 -46 c0 -45 -18 -114 -62 -233 -11 -30 -44 -130 -73 -221 -60 -187
-73 -217 -125 -276 -48 -54 -75 -158 -66 -244 4 -31 3 -60 -2 -63 -5 -3 -50
30 -101 73 -103 89 -140 109 -209 118 -74 8 -132 -31 -132 -89 0 -15 74 -82
151 -137 76 -54 129 -97 129 -105 0 -3 -35 -6 -78 -6 -113 0 -117 -5 -239
-313 -49 -125 -59 -168 -34 -141 5 5 35 74 66 154 70 176 90 217 123 253 24
25 31 27 112 27 86 0 86 0 121 -36 58 -61 178 -155 262 -206 71 -42 87 -48
137 -48 53 0 62 -4 126 -52 38 -28 71 -54 74 -57 12 -14 70 -51 80 -51 18 0
11 19 -12 31 -13 7 -27 18 -33 24 -5 7 -46 38 -89 70 -75 54 -83 58 -140 59
-54 1 -69 6 -131 45 -97 60 -195 140 -294 239 -73 72 -83 86 -74 101 16 25 29
102 14 81 -6 -8 -11 -24 -11 -36 0 -25 -26 -62 -36 -51 -5 4 0 23 11 42 10 20
16 38 12 41 -3 3 -13 -10 -22 -30 -10 -20 -20 -36 -24 -36 -3 0 -24 12 -45 26
l-38 26 21 22 c39 41 22 90 -39 115 -22 9 -20 10 20 10 63 1 106 -22 207 -109
49 -42 100 -81 116 -88 15 -6 27 -16 27 -22 0 -5 5 -10 10 -10 12 0 13 37 1
44 -19 12 -20 132 -1 207 26 100 60 127 124 98 34 -16 70 -4 110 35 40 40 62
39 114 -6 36 -31 49 -33 86 -16 21 9 29 8 44 -5 10 -9 48 -30 84 -46 75 -34
83 -46 148 -197 26 -60 44 -121 47 -155 l5 -56 202 -205 c188 -192 268 -260
284 -243 4 4 -2 13 -13 21 -66 47 -160 136 -350 335 -98 102 -99 104 -106 164
-9 70 -98 281 -135 318 -13 13 -42 30 -65 37 -23 8 -57 27 -76 42 -41 32 -44
33 -83 13 -27 -14 -30 -13 -70 20 -55 46 -89 46 -131 0 -34 -37 -65 -44 -114
-25 l-27 10 20 33 c11 17 39 91 61 162 23 72 57 173 76 225 90 254 103 334 64
384 -11 14 -26 26 -33 26 -10 0 -12 13 -8 49 2 26 -1 57 -7 68 -13 26 -59 43
-86 33z m39 -26 c35 -14 10 -84 -30 -84 -32 0 -39 21 -19 59 16 32 22 35 49
25z m-110 -62 c8 -13 -23 -72 -38 -72 -23 0 -29 19 -16 51 12 27 42 40 54 21z
m175 -96 c18 -21 -6 -66 -36 -66 -26 0 -27 5 -12 49 12 33 29 40 48 17z m-389
-86 c0 -20 -13 -40 -26 -40 -20 0 -29 27 -14 45 11 14 40 10 40 -5z m-246
-902 c29 -12 40 -38 31 -67 -10 -33 -35 -33 -76 0 -43 33 -49 52 -21 68 22 14
36 13 66 -1z"/>
<path d="M2020 1955 c-7 -8 -10 -22 -6 -30 3 -9 -1 -18 -9 -21 -31 -12 -7
-121 70 -316 6 -14 2 -18 -18 -18 -14 0 -29 5 -32 10 -9 15 -41 12 -55 -5 -7
-9 -21 -14 -31 -13 -9 2 -37 -10 -62 -25 -40 -25 -48 -37 -72 -105 -33 -92
-55 -123 -157 -224 -43 -43 -73 -78 -66 -78 19 0 218 211 218 232 0 30 51 148
65 148 7 0 24 9 38 20 14 11 32 18 39 15 8 -3 23 3 33 15 17 19 20 19 43 4 15
-10 35 -14 53 -10 43 8 64 -29 62 -111 -2 -57 1 -65 22 -79 21 -14 22 -19 12
-41 -13 -30 -113 -83 -156 -83 -19 0 -48 -15 -87 -46 -33 -25 -60 -49 -62 -55
-6 -15 14 -10 29 7 24 29 97 74 120 74 12 0 52 14 89 31 52 24 71 38 83 64 15
31 19 33 59 30 24 -2 46 -4 49 -4 4 -1 30 -49 59 -107 28 -58 54 -103 57 -100
4 3 -18 54 -48 114 l-54 107 -60 6 c-88 8 -104 20 -98 68 8 56 -4 106 -32 139
-13 16 -40 73 -60 128 -20 54 -40 109 -46 122 -13 33 -11 42 10 42 10 0 21 -8
25 -17 3 -10 14 -34 26 -53 15 -26 17 -36 7 -42 -8 -5 -7 -8 5 -8 9 0 26 -16
37 -36 12 -20 24 -34 27 -31 3 3 -20 54 -50 113 -31 59 -56 114 -56 121 0 7 9
13 21 13 11 0 19 -5 17 -12 -2 -6 6 -22 18 -35 28 -30 37 -63 18 -63 -8 0 -14
-5 -14 -11 0 -7 9 -9 23 -6 18 5 26 -1 46 -36 14 -24 26 -36 29 -29 2 8 -1 19
-7 25 -16 16 -14 37 3 37 8 0 23 -13 33 -30 17 -30 33 -39 33 -20 0 6 6 10 13
10 26 -1 120 -141 193 -289 75 -153 117 -221 136 -221 6 0 -1 15 -15 34 -14
18 -60 102 -101 186 -80 160 -93 182 -166 271 -25 30 -60 77 -78 103 -23 34
-38 47 -51 43 -12 -3 -24 7 -39 34 -16 28 -29 39 -47 39 -13 0 -27 5 -30 10
-9 15 -41 12 -55 -5z m37 -21 c-9 -9 -28 6 -21 18 4 6 10 6 17 -1 6 -6 8 -13
4 -17z m80 -47 c-4 -13 -22 -8 -22 6 0 6 -6 16 -13 20 -7 5 -9 13 -6 19 7 12
45 -31 41 -45z m-107 -7 c0 -5 -4 -10 -10 -10 -5 0 -10 5 -10 10 0 6 5 10 10
10 6 0 10 -4 10 -10z m143 -40 c14 -27 13 -40 -3 -40 -11 0 -41 60 -35 70 9
14 21 5 38 -30z m37 10 c0 -5 -2 -10 -4 -10 -3 0 -8 5 -11 10 -3 6 -1 10 4 10
6 0 11 -4 11 -10z m33 -46 c11 -14 16 -28 13 -31 -8 -9 -37 18 -30 28 3 5 0 9
-5 9 -6 0 -11 5 -11 10 0 17 14 10 33 -16z"/>
<path d="M1310 1769 c0 -5 4 -9 9 -9 5 0 16 -3 25 -6 9 -3 16 -2 16 4 0 5 -11
12 -25 14 -14 3 -25 1 -25 -3z"/>
<path d="M1206 1592 c5 -5 23 -14 39 -20 l30 -12 -24 20 c-13 11 -30 20 -39
20 -9 0 -12 -3 -6 -8z"/>
<path d="M1190 1556 c0 -3 12 -12 28 -20 20 -11 22 -15 9 -16 -10 0 -27 5 -38
10 -12 7 -19 7 -19 1 0 -5 9 -12 20 -15 11 -3 28 -8 39 -11 13 -4 20 1 24 14
3 12 -1 21 -12 24 -9 3 -24 8 -33 12 -10 4 -18 5 -18 1z"/>
<path d="M1305 1450 c3 -5 14 -10 24 -10 9 0 22 -5 29 -12 9 -9 12 -9 12 0 0
7 -12 17 -26 22 -33 13 -47 13 -39 0z"/>
<path d="M1283 1413 c10 -15 65 -34 72 -24 2 5 -5 11 -18 14 -12 2 -31 8 -41
12 -13 6 -17 5 -13 -2z"/>
<path d="M2260 1024 c-76 -33 -129 -111 -150 -222 -42 -210 76 -416 222 -388
54 10 112 66 144 140 27 63 28 64 61 59 l34 -6 -20 49 c-32 80 -51 124 -54
124 -5 0 -107 -136 -107 -143 0 -4 11 -7 25 -7 30 0 32 -17 6 -68 -22 -43 -67
-87 -98 -96 -31 -10 -86 16 -112 52 -38 54 -53 112 -53 203 0 73 4 96 26 144
61 134 161 156 226 50 22 -36 54 -46 63 -21 3 8 -6 32 -20 53 -48 75 -127 107
-193 77z"/>
</g>
</svg>
